<svg xmlns="http://www.w3.org/2000/svg" viewBox="0 0 237.28 1081.99">
  <defs>
    <style>
      .cls-1 {
        fill: none;
        stroke: aqua;
        stroke-miterlimit: 10;
      }

      .cls-2 {
        fill: #fff;
      }

      .cls-3 {
        opacity: 0.1;
      }

      .cls-4 {
        fill: aqua;
      }
    </style>
  </defs>
  <g id="hover-home">
    <line id="Linie_257-2" data-name="Linie 257-2" class="cls-1" x1="116.8" y1="81.29" x2="164.38" y2="81.29"/>
    <g>
      <path class="cls-2" d="M134.73,62.53a3.23,3.23,0,0,0-2.58-1.4A2.59,2.59,0,0,0,129.66,64c0,4,5.92,3.75,5.92,8.56,0,2.49-1.69,4.89-4.34,4.89a4.66,4.66,0,0,1-2.73-.91V74.42a4,4,0,0,0,2.81,1.4A2.82,2.82,0,0,0,134,72.73c0-4-5.93-3.7-5.93-8.56,0-2.37,1.45-4.6,4-4.6a4.51,4.51,0,0,1,2.71.93Z" transform="translate(0 -0.01)"/>
      <path class="cls-2" d="M138.89,66.87V77.15h-1.46V66.87h-1.25V65.52h1.25v-3.3h1.46v3.3h2v1.35Z" transform="translate(0 -0.01)"/>
      <path class="cls-2" d="M146.58,77.15v-.94a2.29,2.29,0,0,1-2,1.12c-2.66,0-2.73-3.72-2.73-5.77,0-2.37.07-6.22,2.86-6.22a2.13,2.13,0,0,1,1.84,1v-.78h1.48V77.15ZM145.1,66.51c-1.69,0-1.72,3-1.72,4.14,0,1,0,1.87.08,2.8s.26,2.68,1.61,2.68a1.15,1.15,0,0,0,.94-.39c.73-.73.73-3.46.73-4.47C146.74,69,146.61,66.51,145.1,66.51Z" transform="translate(0 -0.01)"/>
      <path class="cls-2" d="M154.1,67c-1.95,0-2,1.56-2,3.07v7.05h-1.46V65.52h1.46V67a2.4,2.4,0,0,1,2-1.69Z" transform="translate(0 -0.01)"/>
      <path class="cls-2" d="M158,66.87V77.15h-1.45V66.87h-1.25V65.52h1.25v-3.3H158v3.3H160v1.35Z" transform="translate(0 -0.01)"/>
    </g>
  </g>
  <g id="hover-imprint">
    <line id="Linie_257-2-2" data-name="Linie 257-2" class="cls-1" x1="57.08" y1="656.68" x2="121.62" y2="656.68"/>
    <g>
      <path class="cls-2" d="M69.21,652.53V635.19h1.61v17.34Z" transform="translate(0 -0.01)"/>
      <path class="cls-2" d="M84.13,652.53H82.68v-8.6c0-1-.16-2-1.36-2-1.69,0-1.76,1.89-1.76,3.17v7.43H78.07V644c0-.85-.07-2-1.22-2C75,641.93,75,644,75,645.33v7.2H73.52V640.91H75v1a3.1,3.1,0,0,1,2.26-1.14,2.27,2.27,0,0,1,2.13,1.35,2.83,2.83,0,0,1,2.4-1.35c1.87,0,2.36,1.22,2.36,2.88Z" transform="translate(0 -0.01)"/>
      <path class="cls-2" d="M88.11,641.69a2.1,2.1,0,0,1,1.85-1c2.86,0,2.88,3.66,2.88,5.77,0,2.5-.08,6.22-2.73,6.22a2.45,2.45,0,0,1-2-1.12v5.61H86.65v-16.3h1.46Zm1.51.21c-1.51,0-1.64,2.44-1.64,4.76,0,1,0,3.74.73,4.47a1.13,1.13,0,0,0,.93.39c1.36,0,1.51-1.67,1.62-2.68s.07-1.82.07-2.73C91.33,644.94,91.31,641.9,89.62,641.9Z" transform="translate(0 -0.01)"/>
      <path class="cls-2" d="M98.43,642.42c-2,0-2,1.56-2,3.07v7H95V640.91h1.46v1.51a2.4,2.4,0,0,1,2-1.69Z" transform="translate(0 -0.01)"/>
      <path class="cls-2" d="M100.8,638.34a1.1,1.1,0,1,1,1.06-1.07A1.07,1.07,0,0,1,100.8,638.34ZM100,652.53V640.91h1.49v11.62Z" transform="translate(0 -0.01)"/>
      <path class="cls-2" d="M108.62,652.53v-8.45c0-.93,0-2.15-1.3-2.15a1.61,1.61,0,0,0-1.37.75,3.6,3.6,0,0,0-.39,2v7.82H104.1V640.91h1.46v.94a3,3,0,0,1,2.26-1.12c2,0,2.26,1.61,2.26,3.2v8.6Z" transform="translate(0 -0.01)"/>
      <path class="cls-2" d="M114.58,642.26v10.27h-1.46V642.26h-1.25v-1.35h1.25v-3.3h1.46v3.3h2v1.35Z" transform="translate(0 -0.01)"/>
    </g>
  </g>
  <g id="hover-info-page">
    <line id="Linie_257-2-3" data-name="Linie 257-2" class="cls-1" x1="127.5" y1="174.88" x2="169.7" y2="174.88"/>
    <g>
      <path class="cls-2" d="M139.62,170.73V153.39h1.62v17.34Z" transform="translate(0 -0.01)"/>
      <path class="cls-2" d="M148.46,170.73v-8.45c0-.93,0-2.15-1.29-2.15a1.62,1.62,0,0,0-1.38.75,3.6,3.6,0,0,0-.39,2v7.82h-1.46V159.11h1.46v.94a3,3,0,0,1,2.26-1.12c2,0,2.26,1.61,2.26,3.2v8.6Z" transform="translate(0 -0.01)"/>
      <path class="cls-2" d="M154.42,160.46v10.27H153V160.46h-1.32v-1.35H153v-4.65c0-1.48.39-3,2.16-3a3.28,3.28,0,0,1,1.3.26v1.62a1.73,1.73,0,0,0-1.07-.52c-.85,0-.93.78-.93,1.43v4.83h2v1.35Z" transform="translate(0 -0.01)"/>
      <path class="cls-2" d="M160.74,170.92c-3,0-3.41-3.75-3.41-6s.42-6,3.41-6S164,162.75,164,165,163.73,170.92,160.74,170.92Zm0-10.64c-1.79,0-1.85,3.54-1.85,4.76s.08,4.5,1.85,4.5,1.77-3.46,1.77-4.63S162.43,160.28,160.71,160.28Z" transform="translate(0 -0.01)"/>
    </g>
  </g>
  <g id="hover-Lollipop-page">
    <line id="Linie_257-2-4" data-name="Linie 257-2" class="cls-1" x1="100.44" y1="263.28" x2="237.28" y2="263.28"/>
    <g>
      <path class="cls-2" d="M118.46,259.13l-4-8.47v8.47h-1.76V241.79h2.18a6.09,6.09,0,0,1,3,.5c1.56.83,1.87,2.54,1.87,4.16,0,2.39-.8,4.16-3.43,4.36l4,8.32Zm-3-9.75c2.08,0,2.42-1.22,2.42-3,0-2-.42-3.07-2.63-3.07h-.86v6.11Z" transform="translate(0 -0.01)"/>
      <path class="cls-2" d="M122.94,244.94a1.1,1.1,0,1,1,1.06-1.07A1.08,1.08,0,0,1,122.94,244.94Zm-.76,14.19V247.51h1.48v11.62Z" transform="translate(0 -0.01)"/>
      <path class="cls-2" d="M130.63,249.88a2.72,2.72,0,0,0-2-1.2,1.45,1.45,0,0,0-1.43,1.54c0,2.26,3.74,2.67,3.74,5.82a3.14,3.14,0,0,1-3.12,3.28,3.51,3.51,0,0,1-2.15-.81v-1.72a3,3,0,0,0,2,1.15,1.7,1.7,0,0,0,1.69-1.8c0-2.28-3.74-3.06-3.74-5.87a2.81,2.81,0,0,1,2.88-2.94,3.51,3.51,0,0,1,2.08.75Z" transform="translate(0 -0.01)"/>
      <path class="cls-2" d="M137.78,259.13l-3.61-5.56v5.56h-1.46V240.18h1.46v12.06l2.91-4.73h1.64l-3.33,5.2,4.24,6.42Z" transform="translate(0 -0.01)"/>
      <path class="cls-2" d="M151,259.13v-.93a2.3,2.3,0,0,1-2,1.12c-2.65,0-2.73-3.72-2.73-5.78,0-2.36.08-6.21,2.86-6.21a2.13,2.13,0,0,1,1.85,1v-.78h1.48v11.62Zm-1.48-10.63c-1.69,0-1.72,3-1.72,4.13,0,1,0,1.88.08,2.81s.26,2.68,1.61,2.68a1.15,1.15,0,0,0,.94-.39c.73-.73.73-3.46.73-4.47C151.15,250.94,151,248.5,149.51,248.5Z" transform="translate(0 -0.01)"/>
      <path class="cls-2" d="M159.6,259.13v-8.45c0-.93,0-2.15-1.3-2.15a1.62,1.62,0,0,0-1.38.75,3.6,3.6,0,0,0-.39,2v7.82h-1.46V247.51h1.46v.94a3,3,0,0,1,2.26-1.12c2,0,2.26,1.61,2.26,3.2v8.6Z" transform="translate(0 -0.01)"/>
      <path class="cls-2" d="M167.94,259.13v-.93a2.34,2.34,0,0,1-2,1.12c-2.68,0-2.73-3.88-2.73-5.91,0-2.26,0-6.08,2.89-6.08a2.13,2.13,0,0,1,1.84,1v-8.11h1.46v18.95Zm-1.51-10.63c-1.66,0-1.69,3-1.69,4.13,0,1,0,1.88.08,2.81s.24,2.68,1.59,2.68a1.19,1.19,0,0,0,1-.39c.7-.7.7-3.43.7-4.39C168.07,250.89,167.94,248.5,166.43,248.5Z" transform="translate(0 -0.01)"/>
      <path class="cls-2" d="M180.71,241.79a4.08,4.08,0,0,1,2.54.6c1,.78,1.33,2.6,1.33,3.82,0,1.77-.41,3.23-2.13,4,2.24.6,2.55,2.19,2.55,4.27a4.71,4.71,0,0,1-1.43,3.9,4.07,4.07,0,0,1-2.73.72h-2.66V241.79Zm-.05,7.67c2.1,0,2.28-1.45,2.28-3.17s-.07-3.09-2.13-3.09h-1v6.26Zm0,8.3c2.21,0,2.67-1.36,2.67-3.31,0-1.74-.52-3.56-2.6-3.56h-.93v6.87Z" transform="translate(0 -0.01)"/>
      <path class="cls-2" d="M193.06,255.18c-.08,1.87-.65,4.14-2.94,4.14-3,0-3.38-3.72-3.38-6s.44-6,3.27-6,3.15,3.51,3.15,5.56c0,.24,0,.5,0,.73h-4.91v.26c0,1.17.18,4.06,1.85,4.06,1.3,0,1.48-1.77,1.51-2.76Zm-1.35-2.81c-.06-1-.19-3.69-1.67-3.69s-1.74,2.63-1.79,3.69Z" transform="translate(0 -0.01)"/>
      <path class="cls-2" d="M199.84,259.13v-8.45c0-.93,0-2.15-1.3-2.15a1.61,1.61,0,0,0-1.37.75,3.53,3.53,0,0,0-.4,2v7.82h-1.45V247.51h1.45v.94a3.07,3.07,0,0,1,2.27-1.12c2,0,2.26,1.61,2.26,3.2v8.6Z" transform="translate(0 -0.01)"/>
      <path class="cls-2" d="M209.77,255.18c-.07,1.87-.65,4.14-2.93,4.14-3,0-3.38-3.72-3.38-6s.44-6,3.27-6,3.15,3.51,3.15,5.56c0,.24,0,.5,0,.73h-4.91v.26c0,1.17.18,4.06,1.85,4.06,1.29,0,1.48-1.77,1.5-2.76Zm-1.35-2.81c0-1-.18-3.69-1.66-3.69s-1.74,2.63-1.8,3.69Z" transform="translate(0 -0.01)"/>
      <path class="cls-2" d="M213.93,248.86v10.27h-1.45V248.86h-1.33v-1.35h1.33v-4.65c0-1.48.39-3,2.16-3a3.28,3.28,0,0,1,1.3.26v1.62a1.75,1.75,0,0,0-1.07-.52c-.86,0-.94.78-.94,1.43v4.83h2v1.35Zm3.83-3.92a1.1,1.1,0,1,1,1.06-1.07A1.08,1.08,0,0,1,217.76,244.94ZM217,259.13V247.51h1.48v11.62Z" transform="translate(0 -0.01)"/>
      <path class="cls-2" d="M223,248.86v10.27h-1.45V248.86h-1.25v-1.35h1.25v-3.3H223v3.3H225v1.35Z" transform="translate(0 -0.01)"/>
      <path class="cls-2" d="M230.7,249.88a2.72,2.72,0,0,0-2-1.2,1.45,1.45,0,0,0-1.43,1.54c0,2.26,3.75,2.67,3.75,5.82a3.14,3.14,0,0,1-3.12,3.28,3.54,3.54,0,0,1-2.16-.81v-1.72a3,3,0,0,0,2,1.15,1.7,1.7,0,0,0,1.69-1.8c0-2.28-3.74-3.06-3.74-5.87a2.81,2.81,0,0,1,2.88-2.94,3.51,3.51,0,0,1,2.08.75Z" transform="translate(0 -0.01)"/>
    </g>
  </g>
  <g id="hover-bubble-page">
    <line id="Linie_257-2-5" data-name="Linie 257-2" class="cls-1" x1="94.72" y1="361.96" x2="185.19" y2="361.96"/>
    <g>
      <path class="cls-2" d="M110.7,358.05c-4.06,0-4.29-6-4.29-8.89s.26-8.92,4.26-8.92,4.27,5.93,4.27,8.84S114.83,358.05,110.7,358.05Zm0-16.25c-2.71,0-2.66,5.49-2.66,7.33s0,7.36,2.66,7.36c2,0,2.31-2.55,2.44-4,.13-1.3.16-2.63.16-3.95C113.3,346.74,113.27,341.8,110.7,341.8Z" transform="translate(0 -0.01)"/>
      <path class="cls-2" d="M121.8,357.4a2.8,2.8,0,0,1-1.67.6c-2.72,0-3.35-3.72-3.35-5.8s.47-6.19,3.43-6.19a3.26,3.26,0,0,1,1.59.44v1.72a2.07,2.07,0,0,0-1.46-.81c-1.84,0-2,3.41-2,4.71s.24,4.55,2,4.55a2,2,0,0,0,1.48-1Z" transform="translate(0 -0.01)"/>
      <path class="cls-2" d="M128.19,357.4a2.77,2.77,0,0,1-1.66.6c-2.73,0-3.35-3.72-3.35-5.8s.46-6.19,3.43-6.19a3.22,3.22,0,0,1,1.58.44v1.72a2,2,0,0,0-1.45-.81c-1.85,0-2,3.41-2,4.71s.23,4.55,2,4.55a2,2,0,0,0,1.48-1Z" transform="translate(0 -0.01)"/>
      <path class="cls-2" d="M136.05,355a3,3,0,0,1-6,0v-8.79h1.46v7.88c0,1.2.05,2.55,1.61,2.55s1.51-1.56,1.51-2.7v-7.73h1.46Z" transform="translate(0 -0.01)"/>
      <path class="cls-2" d="M142.08,347.7c-2,0-2,1.56-2,3.07v7.05h-1.45V346.19h1.45v1.51a2.4,2.4,0,0,1,2-1.69Z" transform="translate(0 -0.01)"/>
      <path class="cls-2" d="M148.06,357.82v-.94a2.3,2.3,0,0,1-2,1.12c-2.65,0-2.73-3.72-2.73-5.77,0-2.37.08-6.22,2.86-6.22a2.15,2.15,0,0,1,1.85,1v-.78h1.48v11.63Zm-1.48-10.64c-1.69,0-1.72,3-1.72,4.14,0,1,0,1.87.08,2.8s.26,2.68,1.61,2.68a1.15,1.15,0,0,0,.94-.39c.72-.73.72-3.46.72-4.47C148.21,349.63,148.08,347.18,146.58,347.18Z" transform="translate(0 -0.01)"/>
      <path class="cls-2" d="M156.66,357.82v-8.45c0-.94,0-2.16-1.3-2.16A1.61,1.61,0,0,0,154,348a3.6,3.6,0,0,0-.39,2v7.83h-1.46V346.19h1.46v.94a3,3,0,0,1,2.26-1.12c1.95,0,2.26,1.61,2.26,3.2v8.61Z" transform="translate(0 -0.01)"/>
      <path class="cls-2" d="M165.29,357.4a2.77,2.77,0,0,1-1.66.6c-2.73,0-3.35-3.72-3.35-5.8s.47-6.19,3.43-6.19a3.22,3.22,0,0,1,1.58.44v1.72a2,2,0,0,0-1.45-.81c-1.85,0-2,3.41-2,4.71s.23,4.55,2,4.55a2,2,0,0,0,1.48-1Z" transform="translate(0 -0.01)"/>
      <path class="cls-2" d="M173,353.86c-.08,1.88-.65,4.14-2.94,4.14-3,0-3.38-3.72-3.38-6s.44-6,3.28-6,3.14,3.51,3.14,5.57c0,.23,0,.49,0,.72h-4.92v.26c0,1.17.19,4.06,1.85,4.06,1.3,0,1.48-1.77,1.51-2.76Zm-1.35-2.8c0-1-.18-3.7-1.67-3.7s-1.74,2.63-1.79,3.7Z" transform="translate(0 -0.01)"/>
      <path class="cls-2" d="M179.65,348.56a2.75,2.75,0,0,0-2-1.2,1.46,1.46,0,0,0-1.43,1.54c0,2.26,3.75,2.68,3.75,5.82a3.14,3.14,0,0,1-3.12,3.28,3.48,3.48,0,0,1-2.16-.81v-1.71a3,3,0,0,0,2,1.14,1.69,1.69,0,0,0,1.69-1.79c0-2.29-3.74-3.07-3.74-5.88a2.82,2.82,0,0,1,2.89-2.94,3.45,3.45,0,0,1,2.08.76Z" transform="translate(0 -0.01)"/>
    </g>
  </g>
  <g id="hover-country-page">
    <line id="Linie_257-2-6" data-name="Linie 257-2" class="cls-1" x1="58.4" y1="446.31" x2="164.77" y2="446.31"/>
    <g>
      <path class="cls-2" d="M75.81,442.16l-.65-3.56H71.49l-.65,3.56H69.12l3.44-17.34h1.5l3.46,17.34Zm-2.06-11.07a31.27,31.27,0,0,1-.49-4.09,97.58,97.58,0,0,1-1.51,10.2H74.9Z" transform="translate(0 -0.01)"/>
      <path class="cls-2" d="M83.42,441.75a2.82,2.82,0,0,1-1.66.59c-2.73,0-3.35-3.71-3.35-5.79s.46-6.19,3.43-6.19a3.12,3.12,0,0,1,1.58.44v1.72a2,2,0,0,0-1.45-.81c-1.85,0-2,3.41-2,4.71s.23,4.55,2,4.55a2,2,0,0,0,1.48-1Z" transform="translate(0 -0.01)"/>
      <path class="cls-2" d="M89.82,441.75a2.85,2.85,0,0,1-1.66.59c-2.73,0-3.36-3.71-3.36-5.79s.47-6.19,3.43-6.19a3.13,3.13,0,0,1,1.59.44v1.72a2.07,2.07,0,0,0-1.46-.81c-1.84,0-2,3.41-2,4.71s.24,4.55,2,4.55a2,2,0,0,0,1.48-1Z" transform="translate(0 -0.01)"/>
      <path class="cls-2" d="M97.51,438.21c-.07,1.87-.64,4.13-2.93,4.13-3,0-3.38-3.71-3.38-5.95s.44-6,3.27-6,3.15,3.51,3.15,5.56c0,.24,0,.5,0,.73H92.68v.26c0,1.17.18,4.06,1.85,4.06,1.3,0,1.48-1.77,1.5-2.76Zm-1.35-2.81c0-1-.18-3.69-1.66-3.69s-1.74,2.63-1.79,3.69Z" transform="translate(0 -0.01)"/>
      <path class="cls-2" d="M101.23,431.32a2.12,2.12,0,0,1,1.85-1c2.86,0,2.88,3.66,2.88,5.77,0,2.5-.07,6.21-2.73,6.21a2.45,2.45,0,0,1-2-1.11v5.61H99.78v-16.3h1.45Zm1.51.21c-1.51,0-1.64,2.44-1.64,4.76,0,1,0,3.74.73,4.47a1.18,1.18,0,0,0,.94.39c1.35,0,1.5-1.67,1.61-2.68s.08-1.82.08-2.73C104.46,434.57,104.43,431.53,102.74,431.53Z" transform="translate(0 -0.01)"/>
      <path class="cls-2" d="M110,431.89v10.27h-1.46V431.89h-1.24v-1.35h1.24v-3.3H110v3.3h2v1.35Z" transform="translate(0 -0.01)"/>
      <path class="cls-2" d="M117.72,442.16v-.93a2.29,2.29,0,0,1-2,1.11c-2.65,0-2.73-3.71-2.73-5.77,0-2.36.08-6.21,2.86-6.21a2.15,2.15,0,0,1,1.85,1v-.78h1.48v11.62Zm-1.49-10.63c-1.69,0-1.71,3-1.71,4.13,0,1,0,1.87.08,2.81s.26,2.68,1.61,2.68a1.16,1.16,0,0,0,.93-.39c.73-.73.73-3.46.73-4.47C117.87,434,117.74,431.53,116.23,431.53Z" transform="translate(0 -0.01)"/>
      <path class="cls-2" d="M126.32,442.16v-8.45c0-.93,0-2.16-1.3-2.16a1.65,1.65,0,0,0-1.38.76,3.6,3.6,0,0,0-.39,2v7.82H121.8V430.54h1.45v.93a3.09,3.09,0,0,1,2.27-1.11c2,0,2.26,1.61,2.26,3.2v8.6Z" transform="translate(0 -0.01)"/>
      <path class="cls-2" d="M135,441.75a2.82,2.82,0,0,1-1.66.59c-2.73,0-3.35-3.71-3.35-5.79s.46-6.19,3.43-6.19a3.12,3.12,0,0,1,1.58.44v1.72a2,2,0,0,0-1.45-.81c-1.85,0-2,3.41-2,4.71s.23,4.55,2,4.55a2,2,0,0,0,1.48-1Z" transform="translate(0 -0.01)"/>
      <path class="cls-2" d="M142.65,438.21c-.08,1.87-.65,4.13-2.94,4.13-3,0-3.38-3.71-3.38-5.95s.44-6,3.28-6,3.14,3.51,3.14,5.56c0,.24,0,.5,0,.73h-4.92v.26c0,1.17.19,4.06,1.85,4.06,1.3,0,1.48-1.77,1.51-2.76Zm-1.35-2.81c-.05-1-.18-3.69-1.67-3.69s-1.74,2.63-1.79,3.69Z" transform="translate(0 -0.01)"/>
      <path class="cls-2" d="M156.38,442.16l-.65-3.56h-3.67l-.65,3.56H149.7l3.43-17.34h1.5l3.46,17.34Zm-2.06-11.07a31.27,31.27,0,0,1-.49-4.09,97.58,97.58,0,0,1-1.51,10.2h3.15Z" transform="translate(0 -0.01)"/>
    </g>
  </g>
  <g id="hover-attribute-page">
    <line id="Linie_257-2-7" data-name="Linie 257-2" class="cls-1" x1="72.81" y1="560.74" x2="178.72" y2="560.74"/>
    <g>
      <path class="cls-2" d="M90.21,556.6,89.56,553H85.9l-.65,3.57H83.53L87,539.25h1.51l3.46,17.35Zm-2-11.08a29.5,29.5,0,0,1-.49-4.08,97.39,97.39,0,0,1-1.51,10.19H89.3Z" transform="translate(0 -0.01)"/>
      <path class="cls-2" d="M97.83,556.18a2.86,2.86,0,0,1-1.66.6c-2.73,0-3.36-3.72-3.36-5.8s.47-6.19,3.44-6.19a3.22,3.22,0,0,1,1.58.44V547a2.07,2.07,0,0,0-1.45-.81c-1.85,0-2,3.41-2,4.71s.23,4.55,2,4.55a2,2,0,0,0,1.48-1Z" transform="translate(0 -0.01)"/>
      <path class="cls-2" d="M104.23,556.18a2.86,2.86,0,0,1-1.67.6c-2.73,0-3.35-3.72-3.35-5.8s.47-6.19,3.43-6.19a3.26,3.26,0,0,1,1.59.44V547a2.07,2.07,0,0,0-1.46-.81c-1.84,0-2,3.41-2,4.71s.24,4.55,2,4.55a2,2,0,0,0,1.48-1Z" transform="translate(0 -0.01)"/>
      <path class="cls-2" d="M111.92,552.64c-.07,1.88-.65,4.14-2.93,4.14-3,0-3.38-3.72-3.38-6s.44-6,3.27-6,3.15,3.51,3.15,5.56c0,.24,0,.5,0,.73h-4.91v.26c0,1.17.18,4.06,1.84,4.06,1.3,0,1.49-1.77,1.51-2.76Zm-1.35-2.81c0-1-.18-3.69-1.66-3.69s-1.74,2.63-1.8,3.69Z" transform="translate(0 -0.01)"/>
      <path class="cls-2" d="M115.64,545.75a2.11,2.11,0,0,1,1.85-1c2.86,0,2.88,3.67,2.88,5.77,0,2.5-.08,6.22-2.73,6.22a2.42,2.42,0,0,1-2-1.12v5.61h-1.46V545h1.46Zm1.51.21c-1.51,0-1.64,2.44-1.64,4.76,0,1,0,3.74.73,4.47a1.14,1.14,0,0,0,.93.39c1.36,0,1.51-1.66,1.62-2.68s.08-1.82.08-2.73C118.87,549,118.84,546,117.15,546Z" transform="translate(0 -0.01)"/>
      <path class="cls-2" d="M124.43,546.32V556.6H123V546.32h-1.25V545H123v-3.3h1.46V545h1.95v1.35Z" transform="translate(0 -0.01)"/>
      <path class="cls-2" d="M132.12,556.6v-.94a2.29,2.29,0,0,1-2,1.12c-2.65,0-2.73-3.72-2.73-5.78,0-2.36.08-6.21,2.86-6.21a2.13,2.13,0,0,1,1.84,1V545h1.49V556.6ZM130.64,546c-1.69,0-1.71,3-1.71,4.14,0,1,0,1.87.07,2.8s.26,2.68,1.62,2.68a1.13,1.13,0,0,0,.93-.39c.73-.73.73-3.46.73-4.47C132.28,548.4,132.15,546,130.64,546Z" transform="translate(0 -0.01)"/>
      <path class="cls-2" d="M140.73,556.6v-8.46c0-.93,0-2.15-1.3-2.15a1.63,1.63,0,0,0-1.38.75,3.6,3.6,0,0,0-.39,2v7.83h-1.45V545h1.45v.94a3,3,0,0,1,2.26-1.12c2,0,2.27,1.61,2.27,3.2v8.61Z" transform="translate(0 -0.01)"/>
      <path class="cls-2" d="M149.36,556.18a2.86,2.86,0,0,1-1.66.6c-2.73,0-3.36-3.72-3.36-5.8s.47-6.19,3.44-6.19a3.22,3.22,0,0,1,1.58.44V547a2.07,2.07,0,0,0-1.45-.81c-1.85,0-2,3.41-2,4.71s.23,4.55,2,4.55a2,2,0,0,0,1.48-1Z" transform="translate(0 -0.01)"/>
      <path class="cls-2" d="M157.06,552.64c-.08,1.88-.65,4.14-2.94,4.14-3,0-3.38-3.72-3.38-6s.44-6,3.28-6,3.14,3.51,3.14,5.56c0,.24,0,.5,0,.73h-4.92v.26c0,1.17.18,4.06,1.85,4.06,1.3,0,1.48-1.77,1.51-2.76Zm-1.35-2.81c-.06-1-.19-3.69-1.67-3.69s-1.74,2.63-1.79,3.69Z" transform="translate(0 -0.01)"/>
      <path class="cls-2" d="M168,539.25a4.12,4.12,0,0,1,2.55.6c1,.78,1.32,2.6,1.32,3.82,0,1.77-.41,3.23-2.13,4,2.24.6,2.55,2.19,2.55,4.27a4.71,4.71,0,0,1-1.43,3.9,4.07,4.07,0,0,1-2.73.73h-2.65V539.25Zm-.05,7.67c2.1,0,2.29-1.45,2.29-3.17s-.08-3.09-2.14-3.09h-1v6.26Zm0,8.3c2.21,0,2.68-1.36,2.68-3.31,0-1.74-.52-3.56-2.6-3.56h-.94v6.87Z" transform="translate(0 -0.01)"/>
    </g>
  </g>
  <g id="Ebene_1" data-name="Ebene 1">
    <g id="Ebene_2" data-name="Ebene 2">
      <g id="Ebene_1-2" data-name="Ebene 1-2">
        <g class="cls-3">
          <circle class="cls-2" cx="44.5" cy="70.89" r="10.4"/>
          <circle class="cls-2" cx="25.8" cy="233.39" r="10.4"/>
          <circle class="cls-2" cx="49.9" cy="858.39" r="10.4"/>
          <circle class="cls-2" cx="122.17" cy="981.96" r="10.4" transform="translate(-867.08 1005.62) rotate(-84.28)"/>
          <circle class="cls-2" cx="19.9" cy="990.29" r="10.4" transform="translate(-970.51 1002.33) rotate(-89.55)"/>
          <circle class="cls-2" cx="49.9" cy="1037.89" r="10.4"/>
          <circle class="cls-2" cx="20.1" cy="1062.54" r="10.4" transform="translate(-9.32 0.21) rotate(-0.5)"/>
          <polygon class="cls-2" points="26.1 1081.69 21.1 1063.39 21.1 991.09 48.7 866.09 49.7 1038.59 51.7 1038.59 50.6 857.19 48.6 856.99 19.1 990.79 19.1 1063.69 24 1081.69 26.1 1081.69"/>
          <polygon class="cls-2" points="121.6 981.09 50.2 1037.79 0 1073.59 0 1076.09 51.4 1039.39 122.8 982.69 121.6 981.09"/>
          <polygon class="cls-2" points="51.7 1038.29 51.7 1038.19 0 954.29 0 958.19 49.8 1039.09 65.3 1081.69 67.4 1081.69 51.7 1038.29"/>
          <polygon class="cls-2" points="0 889.99 50.1 857.99 49.1 856.29 0 887.69 0 889.99"/>
          <polygon class="cls-2" points="123 981.29 50.5 856.79 0 723.79 0 729.39 48.7 857.59 121.3 982.39 121.4 982.49 194.1 1049.59 195.4 1048.09 123 981.29"/>
          <polygon class="cls-2" points="0 570.29 47.7 553.09 47 551.19 0 568.19 0 570.29"/>
          <polygon class="cls-2" points="0 413.39 0 415.49 45.9 431.79 46.5 429.89 0 413.39"/>
          <path class="cls-2" d="M116.8,158.9,43.2,65.5,24.8,232.3,0,252.8v2.6l25.6-21.1L81.3,347.8,0,299.9v2.3l81.5,48L0,389.3v2.2l85-40.7L27.2,233ZM44.7,70.6l69.3,88L27,230.5Z" transform="translate(0 -0.01)"/>
          <polygon class="cls-2" points="144 1081.99 187.1 1054.49 186 1052.79 140.3 1081.99 144 1081.99"/>
          <polygon class="cls-2" points="0 71.99 108.6 70.19 108.6 68.19 0 69.99 0 71.99"/>
        </g>
        <circle class="cls-4" cx="191.3" cy="1049.89" r="14.7"/>
      </g>
    </g>
    <polygon class="cls-2" points="174.5 0 171.5 0 94.8 68.8 114.1 158.7 83.6 249.1 83.6 249.3 82.4 345.6 45.1 430.5 45 430.7 60.4 549.7 0 890.9 0 900.41 62.4 549.9 47 431.1 84.3 346.2 84.4 346 85.6 249.6 116.1 159.1 116.2 158.8 97 69.5 174.5 0"/>
    <g>
      <circle class="cls-2" cx="102.7" cy="70.3" r="18.1"/>
      <circle class="cls-2" cx="114" cy="163.3" r="18.1"/>
      <circle class="cls-2" cx="82.3" cy="349.2" r="18.1"/>
      <circle class="cls-2" cx="46" cy="433.1" r="18.1"/>
      <circle class="cls-2" cx="86.8" cy="251.7" r="18.1"/>
      <circle class="cls-2" cx="61.1" cy="547.6" r="18.1"/>
      <circle class="cls-2" cx="44.3" cy="644.2" r="18.1"/>
    </g>
  </g>
</svg>
