<svg xmlns="http://www.w3.org/2000/svg" width="52" height="52" viewBox="0 0 52 52"><g transform="translate(-1734 -313)"><g transform="translate(1734 313)"><circle cx="26" cy="26" r="26" transform="translate(0 0)" fill="#e6e6e6"/><path d="M0,17.754a1.5,1.5,0,0,1-1.5-1.5V0A1.5,1.5,0,0,1,0-1.5,1.5,1.5,0,0,1,1.5,0V16.254A1.5,1.5,0,0,1,0,17.754Z" transform="translate(21.321 19.861)" fill="#e6e6e6"/><path d="M0,17.754a1.5,1.5,0,0,1-1.5-1.5V0A1.5,1.5,0,0,1,0-1.5,1.5,1.5,0,0,1,1.5,0V16.254A1.5,1.5,0,0,1,0,17.754Z" transform="translate(26.381 19.861)" fill="#e6e6e6"/><path d="M0,17.754a1.5,1.5,0,0,1-1.5-1.5V0A1.5,1.5,0,0,1,0-1.5,1.5,1.5,0,0,1,1.5,0V16.254A1.5,1.5,0,0,1,0,17.754Z" transform="translate(31.441 19.861)" fill="#e6e6e6"/><path d="M26.318,40.575c-.117,0-.233,0-.351,0a15.359,15.359,0,0,1-6.148-1.376,14.318,14.318,0,0,1-8.27-12.374A14.132,14.132,0,0,1,15.2,16.3l.2-.252A1.5,1.5,0,1,1,17.757,17.9l-.2.256c-1.732,2.2-3.1,3.947-3.008,8.6a11.384,11.384,0,0,0,11.484,10.81c7.239.157,11.331-5.8,11.507-11.479.172-5.564-3.345-11.3-11.59-11.579a1.5,1.5,0,0,1,.1-3c5.915.2,9.336,2.791,11.163,4.931a13.691,13.691,0,0,1,2.6,4.662,14.8,14.8,0,0,1,.726,5.078,15.773,15.773,0,0,1-3.811,9.75,13.428,13.428,0,0,1-4.551,3.41A14.01,14.01,0,0,1,26.318,40.575Z" fill="#3c3c3c"/><path d="M31.9,20.264a1.5,1.5,0,0,1-1.061-.439l-3.619-3.619L23.6,19.824A1.5,1.5,0,0,1,21.478,17.7l4.68-4.68a1.5,1.5,0,0,1,2.121,0l4.68,4.68A1.5,1.5,0,0,1,31.9,20.264Z" transform="matrix(0.899, 0.438, -0.438, 0.899, -1.048, -9.526)" fill="#3c3c3c"/></g></g></svg>