<svg id="Ebene_1" data-name="Ebene 1" xmlns="http://www.w3.org/2000/svg" width="1323.4" height="710.85" viewBox="0 0 1323.4 710.85"><defs><style>.cls-1{fill:aqua;}.cls-2{isolation:isolate;}</style></defs><g id="Ebene_2" data-name="Ebene 2"><g id="Ebene_1-2" data-name="Ebene 1-2"><polygon class="cls-1" points="1321.1 668.1 1242.3 668.1 1242.3 660.1 1313.1 660.1 1313.1 579.1 1321.1 579.1 1321.1 668.1"/><polygon class="cls-1" points="192.4 667.2 0.1 667.2 0.1 580.2 8.1 580.2 8.1 659.2 192.4 659.2 192.4 667.2"/><polygon class="cls-1" points="8 125.6 0 125.6 0 43.3 192.4 43.3 192.4 51.3 8 51.3 8 125.6"/><polygon class="cls-1" points="1323.4 125.6 1315.4 125.6 1315.4 51.3 1240.1 51.3 1240.1 43.3 1323.4 43.3 1323.4 125.6"/></g></g><g class="cls-2"><path class="cls-1" d="M51.05,7.78a6.28,6.28,0,0,1,3.72.8c2.09,1.25,2.51,4,2.51,6.26s-.45,4.53-2.2,5.89c-1.45,1.11-3.35,1.14-5.09,1.14V33.12H46.57V7.78ZM50.29,19c2.77,0,3.42-1.52,3.42-4,0-2.28-.61-4.26-3.27-4.26H50V19Z" transform="translate(-45.5 -5)"/><path class="cls-1" d="M61.81,25.25c0,1.49,0,5.44,2.16,5.44,1.67,0,1.94-2.05,1.94-3.31h2.92a8,8,0,0,1-.64,3.42,4.56,4.56,0,0,1-4.26,2.59c-4.78,0-5.2-5.06-5.2-8.71s.42-8.81,5.13-8.81S69,21.72,69,25.25Zm4-2.28c-.08-1.33-.08-4.44-2-4.44s-1.9,3.15-2,4.44Z" transform="translate(-45.5 -5)"/><path class="cls-1" d="M78.56,19A3.63,3.63,0,0,0,78,19c-2.58,0-3.11,1.55-3.11,3.83v10.3H71.76v-17h3.12v2.12c1-1.59,1.78-2.39,3.68-2.5Z" transform="translate(-45.5 -5)"/><path class="cls-1" d="M87.64,32.7a4.25,4.25,0,0,1-2.5.69c-4.52,0-5.06-5.25-5.06-8.67s.42-8.85,5.13-8.85a4.49,4.49,0,0,1,2.43.61v3.19a1.82,1.82,0,0,0-1.55-.8c-2.55,0-2.59,3.84-2.59,5.62s.08,5.93,2.55,5.93a2.33,2.33,0,0,0,1.59-.64Z" transform="translate(-45.5 -5)"/><path class="cls-1" d="M92.77,25.25c0,1.49,0,5.44,2.17,5.44,1.67,0,1.94-2.05,1.94-3.31H99.8a8,8,0,0,1-.64,3.42,4.56,4.56,0,0,1-4.26,2.59c-4.79,0-5.2-5.06-5.2-8.71s.41-8.81,5.13-8.81,5.09,5.85,5.09,9.38Zm4-2.28c-.08-1.33-.08-4.44-2-4.44s-1.9,3.15-2,4.44Z" transform="translate(-45.5 -5)"/><path class="cls-1" d="M104.17,13.17A2.13,2.13,0,1,1,106.26,11,2.12,2.12,0,0,1,104.17,13.17Zm-1.44,19.95v-17h3.12v17Z" transform="translate(-45.5 -5)"/><path class="cls-1" d="M114.47,33.12h-2.13l-4.59-17h3.38A87.18,87.18,0,0,1,113.41,29a30.62,30.62,0,0,0,.49-3.12c.5-3.26,1.29-6.49,2-9.72h3Z" transform="translate(-45.5 -5)"/><path class="cls-1" d="M123,25.25c0,1.49,0,5.44,2.17,5.44,1.67,0,1.93-2.05,1.93-3.31h2.93a8,8,0,0,1-.65,3.42,4.54,4.54,0,0,1-4.25,2.59c-4.79,0-5.21-5.06-5.21-8.71s.42-8.81,5.13-8.81,5.09,5.85,5.09,9.38ZM127,23c-.07-1.33-.07-4.44-2-4.44s-1.9,3.15-2,4.44Z" transform="translate(-45.5 -5)"/><path class="cls-1" d="M139.51,33.12V31c-.64,1.45-1.37,2.44-3.11,2.44-4,0-4.07-6.16-4.07-9s.08-8.55,4.14-8.55c1.6,0,2.36.84,3,2.2V5.42h3.16v27.7Zm.12-9.39c0-1.33-.08-5-2-5s-2.05,3.38-2.05,4.75v2.32c0,1.36.08,4.78,2.05,4.78s2-3.68,2-5Z" transform="translate(-45.5 -5)"/><path class="cls-1" d="M159.88,7.78c4.26,0,5.43,3,5.43,6.76a7.45,7.45,0,0,1-.95,4.14,3.76,3.76,0,0,1-2.24,1.56,5.69,5.69,0,0,1,2.24,1.33c1.11,1.18,1.33,3,1.33,4.6,0,4.1-1.44,6.95-6,6.95h-4.49V7.78ZM158.7,19C161.63,19,162,17,162,14.54c0-2-.61-4-3-4h-.57V19Zm-.23,11.24a5,5,0,0,0,2.13-.3c1.41-.65,1.56-2.51,1.56-3.84,0-2.77-.57-4.41-3.69-4.41Z" transform="translate(-45.5 -5)"/><path class="cls-1" d="M171.36,25.25c0,1.49,0,5.44,2.16,5.44,1.67,0,1.94-2.05,1.94-3.31h2.93a8.11,8.11,0,0,1-.65,3.42,4.55,4.55,0,0,1-4.26,2.59c-4.78,0-5.2-5.06-5.2-8.71s.42-8.81,5.13-8.81,5.09,5.85,5.09,9.38ZM175.31,23c-.08-1.33-.08-4.44-2-4.44s-1.9,3.15-2,4.44Z" transform="translate(-45.5 -5)"/><path class="cls-1" d="M188.23,33.12v-11c0-1.63-.08-3.49-1.83-3.49-2,0-2,2.09-2,3.53v11h-3.12v-17h3.12v2c.87-1.4,1.75-2.24,3.49-2.24,2.93,0,3.42,2.32,3.42,4.71V33.12Z" transform="translate(-45.5 -5)"/><path class="cls-1" d="M197.35,25.25c0,1.49,0,5.44,2.16,5.44,1.67,0,1.94-2.05,1.94-3.31h2.93a8.11,8.11,0,0,1-.65,3.42,4.55,4.55,0,0,1-4.25,2.59c-4.79,0-5.21-5.06-5.21-8.71s.42-8.81,5.13-8.81,5.09,5.85,5.09,9.38Zm4-2.28c-.08-1.33-.08-4.44-2-4.44s-1.9,3.15-2,4.44Z" transform="translate(-45.5 -5)"/><path class="cls-1" d="M213.61,8.77a2.74,2.74,0,0,0-1.33-.42c-1.33,0-1.4,1-1.44,2.09,0,.41,0,.83,0,1.25v4.45h2.66v2.5H210.8V33.12h-3.12V18.64h-1.59v-2.5h1.59V10.28c0-2.77.38-5.28,3.8-5.28a5.16,5.16,0,0,1,2.13.46Zm2.62,4.4A2.13,2.13,0,1,1,218.32,11,2.13,2.13,0,0,1,216.23,13.17Zm-1.44,19.95v-17h3.11v17Z" transform="translate(-45.5 -5)"/><path class="cls-1" d="M225,18.57V33.12h-3.11V18.57h-1.75V16.14h1.75V11.31H225v4.83h1.71v2.43Z" transform="translate(-45.5 -5)"/><path class="cls-1" d="M235.46,19.4a3.9,3.9,0,0,0-2.39-.83,2,2,0,0,0-2,1.9c0,2.77,5.25,3.08,5.25,7.9a4.66,4.66,0,0,1-4.87,5,4.51,4.51,0,0,1-2.77-.8v-3a4.08,4.08,0,0,0,2.58,1,2,2,0,0,0,2.17-2.12c0-3.08-5.32-3.42-5.32-8.06a4.38,4.38,0,0,1,4.56-4.63,5.48,5.48,0,0,1,2.81.72Z" transform="translate(-45.5 -5)"/></g><g class="cls-2"><path class="cls-1" d="M50.92,690.24a6.36,6.36,0,0,1,3.72.8c2.09,1.26,2.51,4,2.51,6.27s-.45,4.52-2.2,5.89c-1.45,1.1-3.35,1.14-5.09,1.14v11.25H46.44V690.24Zm-.76,11.17c2.77,0,3.42-1.52,3.42-4,0-2.28-.61-4.26-3.27-4.26h-.45v8.28Z" transform="translate(-45.5 -5)"/><path class="cls-1" d="M61.68,707.72c0,1.48,0,5.43,2.16,5.43,1.67,0,1.94-2,1.94-3.3H68.7a8,8,0,0,1-.64,3.42,4.54,4.54,0,0,1-4.26,2.58c-4.78,0-5.2-5.05-5.2-8.7s.42-8.81,5.13-8.81,5.09,5.85,5.09,9.38Zm3.95-2.28c-.08-1.33-.08-4.44-2-4.44s-1.9,3.15-2,4.44Z" transform="translate(-45.5 -5)"/><path class="cls-1" d="M78.43,701.49a2.73,2.73,0,0,0-.57,0c-2.58,0-3.11,1.56-3.11,3.84v10.3H71.63v-17h3.12v2.13c1-1.59,1.78-2.39,3.68-2.51Z" transform="translate(-45.5 -5)"/><path class="cls-1" d="M87.51,715.17a4.24,4.24,0,0,1-2.5.68c-4.52,0-5.06-5.24-5.06-8.66s.42-8.85,5.13-8.85a4.57,4.57,0,0,1,2.43.6v3.2a1.79,1.79,0,0,0-1.55-.8c-2.55,0-2.59,3.84-2.59,5.62s.08,5.93,2.55,5.93a2.29,2.29,0,0,0,1.59-.65Z" transform="translate(-45.5 -5)"/><path class="cls-1" d="M92.64,707.72c0,1.48,0,5.43,2.17,5.43,1.67,0,1.94-2,1.94-3.3h2.92a8,8,0,0,1-.64,3.42,4.55,4.55,0,0,1-4.26,2.58c-4.79,0-5.2-5.05-5.2-8.7s.41-8.81,5.13-8.81,5.09,5.85,5.09,9.38Zm4-2.28c-.08-1.33-.08-4.44-2-4.44s-1.9,3.15-2,4.44Z" transform="translate(-45.5 -5)"/><path class="cls-1" d="M104,695.64a2.13,2.13,0,1,1,2.09-2.13A2.12,2.12,0,0,1,104,695.64Zm-1.44,20v-17h3.12v17Z" transform="translate(-45.5 -5)"/><path class="cls-1" d="M114.34,715.59h-2.13l-4.59-17H111a87.65,87.65,0,0,1,2.28,12.84,30.43,30.43,0,0,0,.49-3.11c.5-3.27,1.29-6.5,2-9.73h3Z" transform="translate(-45.5 -5)"/><path class="cls-1" d="M122.89,707.72c0,1.48,0,5.43,2.17,5.43,1.67,0,1.94-2,1.94-3.3h2.92a8,8,0,0,1-.65,3.42,4.53,4.53,0,0,1-4.25,2.58c-4.79,0-5.21-5.05-5.21-8.7s.42-8.81,5.13-8.81,5.09,5.85,5.09,9.38Zm4-2.28c-.07-1.33-.07-4.44-2-4.44s-1.9,3.15-2,4.44Z" transform="translate(-45.5 -5)"/><path class="cls-1" d="M139.38,715.59v-2.17c-.64,1.44-1.37,2.43-3.11,2.43-4,0-4.07-6.15-4.07-9s.08-8.55,4.14-8.55c1.6,0,2.36.83,3,2.2V687.89h3.16v27.7Zm.12-9.39c0-1.33-.08-5-2-5s-2,3.38-2,4.75v2.31c0,1.37.08,4.79,2,4.79s2-3.69,2-5Z" transform="translate(-45.5 -5)"/><path class="cls-1" d="M163.17,715.59l-4.64-11.82v11.82h-3.42V690.24h4.53a5.53,5.53,0,0,1,3.68,1c1.71,1.3,2.17,3.65,2.17,5.66,0,2.47-.69,5.74-3.65,6.43l4.83,12.31Zm-4.64-14.1a3.7,3.7,0,0,0,2.47-.61,4.46,4.46,0,0,0,1.18-3.42,7.26,7.26,0,0,0-.68-3.34,2.4,2.4,0,0,0-2.4-1.06h-.57Z" transform="translate(-45.5 -5)"/><path class="cls-1" d="M170.58,695.64a2.13,2.13,0,1,1,2.09-2.13A2.13,2.13,0,0,1,170.58,695.64Zm-1.44,20v-17h3.11v17Z" transform="translate(-45.5 -5)"/><path class="cls-1" d="M182.36,701.87A3.91,3.91,0,0,0,180,701a2,2,0,0,0-2,1.9c0,2.78,5.25,3.08,5.25,7.91a4.65,4.65,0,0,1-4.87,5,4.51,4.51,0,0,1-2.77-.8v-3a4.14,4.14,0,0,0,2.58,1,2,2,0,0,0,2.17-2.13c0-3.07-5.32-3.42-5.32-8a4.39,4.39,0,0,1,4.56-4.64,5.58,5.58,0,0,1,2.81.72Z" transform="translate(-45.5 -5)"/><path class="cls-1" d="M193.26,715.59l-4.44-8.29v8.29H185.7v-27.7h3.12v18.05l4-7.34h3.53l-4.52,7.75,5.09,9.24Z" transform="translate(-45.5 -5)"/><path class="cls-1" d="M205,701.87a3.91,3.91,0,0,0-2.39-.84,2,2,0,0,0-2,1.9c0,2.78,5.25,3.08,5.25,7.91a4.65,4.65,0,0,1-4.87,5,4.51,4.51,0,0,1-2.77-.8v-3a4.14,4.14,0,0,0,2.58,1,2,2,0,0,0,2.17-2.13c0-3.07-5.32-3.42-5.32-8a4.39,4.39,0,0,1,4.56-4.64,5.58,5.58,0,0,1,2.81.72Z" transform="translate(-45.5 -5)"/></g></svg>