<?xml version="1.0" encoding="utf-8"?>
<!-- Generator: Adobe Illustrator 26.0.3, SVG Export Plug-In . SVG Version: 6.00 Build 0)  -->
<svg version="1.1" id="Ebene_1" xmlns="http://www.w3.org/2000/svg" xmlns:xlink="http://www.w3.org/1999/xlink" x="0px" y="0px"
	 viewBox="0 0 344.3 137.5" style="enable-background:new 0 0 344.3 137.5;" xml:space="preserve">
<style type="text/css">
	.st0{fill:none;stroke:#00FFFF;stroke-width:8;}
	.st1{fill:#FDE8E9;}
</style>
<g id="Gruppe_432">
	<g id="Gruppe_430">
		<g id="Gruppe_93">
			<path id="Pfad_50-2" class="st0" d="M340.3,48.3V4h-68.2"/>
			<path id="Pfad_51-2" class="st0" d="M340.3,89.1v44.3h-68.2"/>
			<path id="Pfad_52-2" class="st0" d="M4,48.3V4h68.2"/>
			<path id="Pfad_53-2" class="st0" d="M4,89.1v44.3h68.2"/>
		</g>
	</g>
</g>
<path class="st1" d="M31,45.2V27.9h1.6v17.3H31z"/>
<path class="st1" d="M40,45.2v-8.5c0-0.9,0-2.2-1.3-2.2c-0.6,0-1.1,0.3-1.4,0.8c-0.3,0.6-0.5,1.3-0.4,2v7.8h-1.5V33.6h1.5v0.9
	c0.6-0.7,1.4-1.1,2.3-1.1c2,0,2.3,1.6,2.3,3.2v8.6L40,45.2z"/>
<path class="st1" d="M48.8,44.8c-0.5,0.4-1.1,0.6-1.7,0.6c-2.8,0-3.4-3.7-3.4-5.8s0.5-6.2,3.5-6.2c0.6,0,1.1,0.2,1.6,0.4v1.7
	c-0.4-0.5-0.9-0.8-1.5-0.8c-1.9,0-2.1,3.4-2.1,4.7s0.2,4.5,2,4.5c0.6-0.1,1.2-0.4,1.5-1L48.8,44.8z"/>
<path class="st1" d="M50.6,45.2v-19h1.5v19H50.6z"/>
<path class="st1" d="M60.9,42.4c0,1.7-1.4,3.1-3.1,3.1c-1.7,0-3.1-1.4-3.1-3.1v-8.8h1.5v7.9c0,1.2,0.1,2.6,1.6,2.6s1.5-1.6,1.5-2.7
	v-7.7h1.5L60.9,42.4z"/>
<path class="st1" d="M67.9,45.2v-0.9c-0.4,0.7-1.2,1.1-2,1.1c-2.7,0-2.8-3.9-2.8-5.9c0-2.3,0-6.1,2.9-6.1c0.8,0,1.5,0.4,1.9,1v-8.1
	h1.5v19L67.9,45.2z M66.4,34.6c-1.7,0-1.7,3-1.7,4.1c0,1,0,1.9,0.1,2.8c0.1,0.9,0.2,2.7,1.6,2.7c0.4,0,0.7-0.1,1-0.4
	c0.7-0.7,0.7-3.4,0.7-4.4C68.1,37,67.9,34.6,66.4,34.6z"/>
<path class="st1" d="M78,41.3c-0.1,1.9-0.7,4.1-3,4.1c-3,0-3.4-3.7-3.4-6s0.4-6,3.3-6s3.2,3.5,3.2,5.6c0,0.2,0,0.5,0,0.7h-5V40
	c0,1.2,0.2,4.1,1.9,4.1c1.3,0,1.5-1.8,1.5-2.8L78,41.3z M76.6,38.5c0-1-0.2-3.7-1.7-3.7s-1.8,2.6-1.8,3.7H76.6z"/>
<path class="st1" d="M84.8,36c-0.5-0.7-1.2-1.1-2-1.2c-0.8,0-1.5,0.7-1.5,1.5c0,0,0,0,0,0.1c0,2.3,3.8,2.7,3.8,5.8
	c0.1,1.7-1.3,3.2-3,3.3c0,0-0.1,0-0.1,0c-0.8,0-1.6-0.3-2.2-0.8v-1.7c0.5,0.7,1.3,1.1,2.1,1.2c0.9,0,1.7-0.8,1.7-1.7
	c0,0,0-0.1,0-0.1c0-2.3-3.8-3.1-3.8-5.9c0-1.6,1.2-2.9,2.8-2.9c0,0,0.1,0,0.1,0c0.8,0,1.5,0.3,2.1,0.8V36z"/>
<path class="st1" d="M95,35v10.3h-1.5V35h-1.3v-1.3h1.3v-3.3H95v3.3h2V35H95z"/>
<path class="st1" d="M102.9,45.2v-8.5c0-0.9,0-2.2-1.3-2.2c-0.6,0-1.1,0.3-1.4,0.8c-0.3,0.6-0.5,1.3-0.4,2v7.8h-1.5v-19h1.5v8.3
	c0.6-0.6,1.4-1,2.3-1c1.9,0,2.3,1.3,2.3,3v8.8L102.9,45.2z"/>
<path class="st1" d="M112.7,41.3c-0.1,1.9-0.7,4.1-3,4.1c-3,0-3.4-3.7-3.4-6s0.4-6,3.3-6s3.2,3.5,3.2,5.6c0,0.2,0,0.5,0,0.7h-5V40
	c0,1.2,0.2,4.1,1.9,4.1c1.3,0,1.5-1.8,1.5-2.8L112.7,41.3z M111.4,38.5c0-1-0.2-3.7-1.7-3.7s-1.8,2.6-1.8,3.7H111.4z"/>
<path class="st1" d="M123.1,35v10.3h-1.5V35h-1.4v-1.3h1.4V29c0-1.5,0.4-3,2.2-3c0.5,0,0.9,0.1,1.3,0.3v1.6
	c-0.3-0.3-0.7-0.5-1.1-0.5c-0.9,0-0.9,0.8-0.9,1.4v4.8h2v1.3L123.1,35z"/>
<path class="st1" d="M131.1,45.2v-0.9c-0.4,0.7-1.2,1.1-2,1.1c-2.7,0-2.8-3.7-2.8-5.8c0-2.4,0.1-6.2,2.9-6.2c0.8,0,1.5,0.4,1.9,1
	v-0.8h1.5v11.6H131.1z M129.6,34.6c-1.7,0-1.7,3-1.7,4.1c0,1,0,1.9,0.1,2.8c0.1,0.9,0.3,2.7,1.6,2.7c0.4,0,0.7-0.1,1-0.4
	c0.7-0.7,0.7-3.5,0.7-4.5C131.2,37.1,131.1,34.6,129.6,34.6z"/>
<path class="st1" d="M139.9,44.8c-0.5,0.4-1.1,0.6-1.7,0.6c-2.8,0-3.4-3.7-3.4-5.8s0.5-6.2,3.5-6.2c0.6,0,1.1,0.2,1.6,0.4v1.7
	c-0.4-0.5-0.9-0.8-1.5-0.8c-1.9,0-2.1,3.4-2.1,4.7s0.2,4.5,2,4.5c0.6-0.1,1.2-0.4,1.5-1L139.9,44.8z"/>
<path class="st1" d="M143.7,35v10.3h-1.5V35h-1.3v-1.3h1.3v-3.3h1.5v3.3h2V35H143.7z"/>
<path class="st1" d="M150,45.4c-3,0-3.5-3.7-3.5-6s0.4-6,3.5-6s3.3,3.8,3.3,6.1S153,45.4,150,45.4z M150,34.8
	c-1.8,0-1.9,3.5-1.9,4.8s0.1,4.5,1.9,4.5s1.8-3.5,1.8-4.6S151.7,34.8,150,34.8L150,34.8z"/>
<path class="st1" d="M159,35.1c-2,0-2,1.6-2,3.1v7h-1.5V33.6h1.5v1.5c0.3-0.9,1.1-1.6,2-1.7L159,35.1z"/>
<path class="st1" d="M165.1,36c-0.5-0.7-1.2-1.1-2-1.2c-0.8,0-1.5,0.7-1.5,1.5c0,0,0,0,0,0.1c0,2.3,3.8,2.7,3.8,5.8
	c0.1,1.7-1.3,3.2-3,3.3c0,0-0.1,0-0.1,0c-0.8,0-1.6-0.3-2.2-0.8v-1.7c0.5,0.7,1.3,1.1,2.1,1.2c0.9,0,1.7-0.8,1.7-1.7
	c0,0,0-0.1,0-0.1c0-2.3-3.8-3.1-3.8-5.9c0-1.6,1.2-2.9,2.8-2.9c0,0,0.1,0,0.1,0c0.8,0,1.5,0.3,2.1,0.8V36z"/>
<path class="st1" d="M177.9,45.2v-0.9c-0.4,0.7-1.2,1.1-2,1.1c-2.7,0-2.8-3.7-2.8-5.8c0-2.4,0.1-6.2,2.9-6.2c0.8,0,1.5,0.4,1.9,1
	v-0.8h1.5v11.6H177.9z M176.4,34.6c-1.7,0-1.8,3-1.8,4.1c0,1,0,1.9,0.1,2.8c0.1,0.9,0.3,2.7,1.6,2.7c0.4,0,0.7-0.1,0.9-0.4
	c0.7-0.7,0.7-3.5,0.7-4.5C178.1,37.1,177.9,34.6,176.4,34.6z"/>
<path class="st1" d="M188.2,46.5c0,2.1-0.8,3.4-3.1,3.4c-2.1,0-3.1-1.3-3.1-3.2c0-0.1,0-0.3,0-0.4h1.5c0,1.2,0.1,2.3,1.6,2.3
	s1.5-1.1,1.5-2.3v-1.8c-0.5,0.6-1.2,0.9-1.9,0.8c-3,0-3-4-3-6.1c0-2,0.2-5.7,2.9-5.7c0.8,0,1.5,0.3,2,1v-0.8h1.5L188.2,46.5z
	 M185,34.6c-1.6,0-1.7,2.7-1.7,5.1c0,1.2,0,4.3,1.9,4.3c1.3,0,1.5-1.5,1.6-2.5s0.1-1.9,0.1-2.8C186.8,37.5,186.8,34.6,185,34.6
	L185,34.6z"/>
<path class="st1" d="M196.7,41.3c-0.1,1.9-0.7,4.1-3,4.1c-3,0-3.4-3.7-3.4-6s0.4-6,3.3-6c2.9,0,3.2,3.5,3.2,5.6c0,0.2,0,0.5,0,0.7
	h-5V40c0,1.2,0.2,4.1,1.9,4.1c1.3,0,1.5-1.8,1.5-2.8L196.7,41.3z M195.4,38.5c0-1-0.2-3.7-1.7-3.7s-1.8,2.6-1.8,3.7H195.4z"/>
<path class="st1" d="M199,48.9l-1.1-0.5l1.8-5.3l1.6,0.7L199,48.9z"/>
<path class="st1" d="M216,46.5c0,2.1-0.8,3.4-3.1,3.4c-2.1,0-3.1-1.3-3.1-3.2c0-0.1,0-0.3,0-0.4h1.5c0,1.2,0.1,2.3,1.6,2.3
	s1.6-1.1,1.6-2.2v-1.9c-0.5,0.5-1.2,0.9-1.9,0.8c-3,0-3-4-3-6.1c0-2,0.2-5.7,2.9-5.7c0.8,0,1.5,0.4,2,1v-0.8h1.5L216,46.5z
	 M212.8,34.6c-1.6,0-1.7,2.7-1.7,5.1c0,1.2,0,4.3,1.9,4.3c1.3,0,1.5-1.5,1.6-2.5s0.1-1.9,0.1-2.8C214.6,37.5,214.6,34.6,212.8,34.6
	L212.8,34.6z"/>
<path class="st1" d="M224.5,41.3c-0.1,1.9-0.7,4.1-3,4.1c-3,0-3.4-3.7-3.4-6s0.5-6,3.3-6s3.2,3.5,3.2,5.6c0,0.2,0,0.5,0,0.7h-5V40
	c0,1.2,0.2,4.1,1.9,4.1c1.3,0,1.5-1.8,1.5-2.8L224.5,41.3z M223.2,38.5c-0.1-1-0.2-3.7-1.7-3.7s-1.8,2.6-1.8,3.7H223.2z"/>
<path class="st1" d="M231.4,45.2v-8.5c0-0.9,0-2.2-1.3-2.2c-0.6,0-1.1,0.3-1.4,0.8c-0.3,0.6-0.5,1.3-0.4,2v7.8h-1.5V33.6h1.5v0.9
	c0.6-0.7,1.4-1.1,2.3-1.1c2,0,2.3,1.6,2.3,3.2v8.6H231.4z"/>
<path class="st1" d="M239.9,45.2v-0.9c-0.4,0.7-1.2,1.1-2,1.1c-2.7,0-2.8-3.9-2.8-5.9c0-2.3,0-6.1,2.9-6.1c0.8,0,1.5,0.4,1.9,1v-8.1
	h1.5v19L239.9,45.2z M238.4,34.6c-1.7,0-1.7,3-1.7,4.1c0,1,0,1.9,0.1,2.8c0.1,0.9,0.2,2.7,1.6,2.7c0.4,0,0.7-0.1,1-0.4
	c0.7-0.7,0.7-3.4,0.7-4.4C240.1,37,239.9,34.6,238.4,34.6z"/>
<path class="st1" d="M250,41.3c-0.1,1.9-0.7,4.1-3,4.1c-3,0-3.4-3.7-3.4-6s0.5-6,3.3-6s3.2,3.5,3.2,5.6c0,0.2,0,0.5,0,0.7h-5V40
	c0,1.2,0.2,4.1,1.9,4.1c1.3,0,1.5-1.8,1.5-2.8L250,41.3z M248.6,38.5c0-1-0.2-3.7-1.7-3.7s-1.8,2.6-1.8,3.7H248.6z"/>
<path class="st1" d="M255.8,35.1c-2,0-2,1.6-2,3.1v7h-1.5V33.6h1.5v1.5c0.3-0.9,1.1-1.6,2-1.7V35.1z"/>
<path class="st1" d="M257,48.9l-1.1-0.5l1.8-5.3l1.6,0.7L257,48.9z"/>
<path class="st1" d="M268.6,31.1c-0.6,0-1.1-0.5-1.1-1.1s0.5-1.1,1.1-1.1s1.1,0.5,1.1,1.1c0,0,0,0,0,0
	C269.7,30.6,269.2,31.1,268.6,31.1z M267.9,45.2V33.6h1.5v11.6H267.9z"/>
<path class="st1" d="M276.6,45.2v-8.5c0-0.9,0-2.2-1.3-2.2c-0.6,0-1.1,0.3-1.4,0.8c-0.3,0.6-0.5,1.3-0.4,2v7.8H272V33.6h1.5v0.9
	c0.6-0.7,1.4-1.1,2.3-1.1c2,0,2.3,1.6,2.3,3.2v8.6H276.6z"/>
<path class="st1" d="M285.4,44.8c-0.5,0.4-1.1,0.6-1.7,0.6c-2.8,0-3.4-3.7-3.4-5.8s0.5-6.2,3.5-6.2c0.6,0,1.1,0.2,1.6,0.4v1.7
	c-0.4-0.5-0.9-0.8-1.5-0.8c-1.9,0-2.1,3.4-2.1,4.7s0.2,4.5,2,4.5c0.6-0.1,1.2-0.4,1.5-1L285.4,44.8z"/>
<path class="st1" d="M290.2,45.4c-3,0-3.5-3.7-3.5-6s0.4-6,3.5-6s3.3,3.8,3.3,6.1S293.3,45.4,290.2,45.4z M290.2,34.8
	c-1.8,0-1.9,3.5-1.9,4.8s0.1,4.5,1.9,4.5s1.8-3.5,1.8-4.6S292,34.8,290.2,34.8L290.2,34.8z"/>
<path class="st1" d="M306.6,45.2h-1.5v-8.6c0-1-0.2-2-1.4-2c-1.7,0-1.8,1.9-1.8,3.2v7.4h-1.5v-8.6c0-0.9-0.1-2-1.2-2
	c-1.9,0-1.9,2.1-1.9,3.4v7.2h-1.5V33.6h1.5v1c0.6-0.7,1.4-1.1,2.3-1.1c0.9,0,1.8,0.5,2.2,1.3c0.5-0.8,1.4-1.3,2.4-1.3
	c1.9,0,2.4,1.2,2.4,2.9V45.2z"/>
<path class="st1" d="M315.2,41.3c-0.1,1.9-0.7,4.1-3,4.1c-3,0-3.4-3.7-3.4-6s0.5-6,3.3-6s3.2,3.5,3.2,5.6c0,0.2,0,0.5,0,0.7h-5V40
	c0,1.2,0.2,4.1,1.9,4.1c1.3,0,1.5-1.8,1.5-2.8L315.2,41.3z M313.8,38.5c0-1-0.2-3.7-1.7-3.7s-1.8,2.6-1.8,3.7H313.8z"/>
<path class="st1" d="M317.5,48.9l-1.1-0.5l1.8-5.3l1.6,0.7L317.5,48.9z"/>
<path class="st1" d="M36.8,72.5c-0.1,1.9-0.7,4.1-3,4.1c-3,0-3.4-3.7-3.4-5.9s0.4-6,3.3-6s3.2,3.5,3.2,5.6c0,0.2,0,0.5,0,0.7h-5v0.3
	c0,1.2,0.2,4.1,1.9,4.1c1.3,0,1.5-1.8,1.5-2.8L36.8,72.5z M35.5,69.7c0-1-0.2-3.7-1.7-3.7S32,68.6,32,69.7H35.5z"/>
<path class="st1" d="M41.1,66.2v10.3h-1.5V66.2h-1.3v-1.3h1.3v-3.3h1.5v3.3h2v1.3L41.1,66.2z"/>
<path class="st1" d="M49,76.5V68c0-0.9,0-2.2-1.3-2.2c-0.6,0-1.1,0.3-1.4,0.8c-0.3,0.6-0.5,1.3-0.4,2v7.9h-1.5v-19h1.5v8.3
	c0.6-0.7,1.4-1.1,2.3-1.1c1.9,0,2.3,1.3,2.3,3v8.8H49z"/>
<path class="st1" d="M57.7,76.5V68c0-0.9,0-2.2-1.3-2.2c-0.6,0-1.1,0.3-1.4,0.8c-0.3,0.6-0.5,1.3-0.4,2v7.9h-1.5V64.8h1.5v0.9
	c0.6-0.7,1.4-1.1,2.3-1.1c2,0,2.3,1.6,2.3,3.2v8.7H57.7z"/>
<path class="st1" d="M62.6,62.3c-0.6,0-1.1-0.5-1.1-1.1c0-0.6,0.5-1.1,1.1-1.1c0.6,0,1.1,0.5,1.1,1.1c0,0,0,0,0,0
	C63.7,61.8,63.2,62.3,62.6,62.3z M61.8,76.5V64.8h1.5v11.7H61.8z"/>
<path class="st1" d="M70.6,76c-0.5,0.4-1.1,0.6-1.7,0.6c-2.8,0-3.4-3.7-3.4-5.8s0.5-6.2,3.5-6.2c0.6,0,1.1,0.2,1.6,0.4v1.7
	c-0.4-0.5-0.9-0.8-1.5-0.8c-1.9,0-2.1,3.4-2.1,4.7s0.2,4.6,2,4.6c0.6-0.1,1.2-0.4,1.5-1L70.6,76z"/>
<path class="st1" d="M84.7,77.7c0,2.1-0.8,3.4-3.1,3.4c-2.1,0-3.1-1.3-3.1-3.2c0-0.1,0-0.3,0-0.4h1.5c0,1.2,0.1,2.3,1.6,2.3
	s1.5-1.1,1.5-2.3v-1.9c-0.5,0.5-1.2,0.9-1.9,0.8c-3,0-3-4-3-6.1c0-2,0.2-5.7,2.9-5.7c0.8,0,1.5,0.4,1.9,1v-0.8h1.5L84.7,77.7z
	 M81.6,65.8c-1.6,0-1.7,2.7-1.7,5.1c0,1.2,0,4.3,1.9,4.3c1.3,0,1.5-1.5,1.6-2.5s0.1-1.9,0.1-2.8C83.4,68.7,83.4,65.8,81.6,65.8z"/>
<path class="st1" d="M90.8,66.3c-2,0-2,1.6-2,3.1v7h-1.5V64.8h1.5v1.5c0.3-0.9,1.1-1.6,2-1.7V66.3z"/>
<path class="st1" d="M95.3,76.6c-3,0-3.5-3.7-3.5-6s0.4-6,3.5-6s3.3,3.8,3.3,6.1S98.4,76.6,95.3,76.6z M95.3,66
	c-1.8,0-1.9,3.5-1.9,4.8s0.1,4.5,1.9,4.5s1.8-3.5,1.8-4.6S97.1,66,95.3,66L95.3,66z"/>
<path class="st1" d="M107,73.6c-0.1,1.7-1.5,3-3.2,2.9c-1.6-0.1-2.8-1.3-2.9-2.9v-8.8h1.5v7.9c0,1.2,0,2.6,1.6,2.6s1.5-1.6,1.5-2.7
	v-7.7h1.5L107,73.6z"/>
<path class="st1" d="M111.1,65.6c0.4-0.6,1.1-1,1.9-1c2.9,0,2.9,3.7,2.9,5.8c0,2.5-0.1,6.2-2.8,6.2c-0.8,0-1.6-0.4-2-1.1v5.6h-1.5
	V64.8h1.5L111.1,65.6z M112.6,65.8c-1.5,0-1.7,2.4-1.7,4.8c0,1,0,3.7,0.7,4.5c0.3,0.3,0.6,0.4,1,0.4c1.4,0,1.5-1.7,1.6-2.7
	s0.1-1.8,0.1-2.7C114.4,68.9,114.4,65.8,112.6,65.8z"/>
<path class="st1" d="M118.1,80.1l-1.1-0.5l1.8-5.3l1.6,0.7L118.1,80.1z"/>
<path class="st1" d="M141.1,72.5c-0.1,1.9-0.7,4.1-3,4.1c-3,0-3.4-3.7-3.4-5.9s0.4-6,3.3-6s3.2,3.5,3.2,5.6c0,0.2,0,0.5,0,0.7h-5
	v0.3c0,1.2,0.2,4.1,1.9,4.1c1.3,0,1.5-1.8,1.5-2.8L141.1,72.5z M139.7,69.7c-0.1-1-0.2-3.7-1.7-3.7s-1.8,2.6-1.8,3.7H139.7z"/>
<path class="st1" d="M147.8,76.5v-1c-0.4,0.7-1.2,1.1-2,1.1c-2.7,0-2.8-3.9-2.8-5.9c0-2.3,0-6.1,2.9-6.1c0.8,0,1.5,0.4,1.9,1v-8.1
	h1.5v19H147.8z M146.2,65.9c-1.7,0-1.7,3-1.7,4.1c0,1,0,1.9,0.1,2.8s0.2,2.7,1.6,2.7c0.4,0,0.7-0.1,1-0.4c0.7-0.7,0.7-3.4,0.7-4.4
	C147.9,68.2,147.8,65.8,146.2,65.9L146.2,65.9z"/>
<path class="st1" d="M158,73.6c-0.1,1.7-1.5,3-3.2,2.9c-1.6-0.1-2.8-1.3-2.9-2.9v-8.8h1.5v7.9c0,1.2,0,2.6,1.6,2.6s1.5-1.6,1.5-2.7
	v-7.7h1.5L158,73.6z"/>
<path class="st1" d="M165.3,76c-0.5,0.4-1.1,0.6-1.7,0.6c-2.8,0-3.4-3.7-3.4-5.8s0.5-6.2,3.5-6.2c0.6,0,1.1,0.2,1.6,0.4v1.7
	c-0.4-0.5-0.9-0.8-1.5-0.8c-1.9,0-2.1,3.4-2.1,4.7s0.2,4.6,2,4.6c0.6-0.1,1.2-0.4,1.5-1L165.3,76z"/>
<path class="st1" d="M171.7,76.5v-1c-0.4,0.7-1.2,1.1-2,1.1c-2.7,0-2.8-3.7-2.8-5.8c0-2.4,0.1-6.2,2.9-6.2c0.8,0,1.5,0.4,1.9,1v-0.8
	h1.5v11.6H171.7z M170.2,65.9c-1.7,0-1.8,3-1.8,4.1c0,1,0,1.9,0.1,2.8s0.3,2.7,1.6,2.7c0.4,0,0.7-0.1,1-0.4c0.7-0.7,0.7-3.5,0.7-4.5
	C171.8,68.3,171.7,65.8,170.2,65.9L170.2,65.9z"/>
<path class="st1" d="M177.7,66.2v10.3h-1.5V66.2H175v-1.3h1.3v-3.3h1.5v3.3h2v1.3L177.7,66.2z"/>
<path class="st1" d="M181.8,62.3c-0.6,0-1.1-0.5-1.1-1.1s0.5-1.1,1.1-1.1c0.6,0,1.1,0.5,1.1,1.1c0,0,0,0,0,0
	C182.9,61.8,182.4,62.3,181.8,62.3z M181.1,76.5V64.8h1.5v11.7H181.1z"/>
<path class="st1" d="M188.2,76.6c-3,0-3.5-3.7-3.5-6s0.4-6,3.5-6s3.3,3.9,3.3,6.1S191.2,76.6,188.2,76.6z M188.2,66
	c-1.8,0-1.9,3.5-1.9,4.8s0.1,4.5,1.9,4.5s1.8-3.5,1.8-4.6S189.9,66,188.2,66L188.2,66z"/>
<path class="st1" d="M198.3,76.5V68c0-0.9,0-2.2-1.3-2.2c-0.6,0-1.1,0.3-1.4,0.8c-0.3,0.6-0.5,1.3-0.4,2v7.9h-1.5V64.8h1.5v0.9
	c0.6-0.7,1.4-1.1,2.3-1.1c2,0,2.3,1.6,2.3,3.2v8.7H198.3z"/>
<path class="st1" d="M202.4,80.1l-1.1-0.5l1.8-5.3l1.6,0.7L202.4,80.1z"/>
<path class="st1" d="M213.3,76.5v-19h1.5v19H213.3z"/>
<path class="st1" d="M218.2,62.3c-0.6,0-1.1-0.5-1.1-1.1c0-0.6,0.5-1.1,1.1-1.1c0.6,0,1.1,0.5,1.1,1.1c0,0,0,0,0,0
	C219.2,61.8,218.8,62.3,218.2,62.3z M217.4,76.5V64.8h1.5v11.7H217.4z"/>
<path class="st1" d="M224.7,76.5h-1.6l-2.7-11.6h1.5l1.6,6.9c0.2,0.8,0.3,1.7,0.4,2.5c0.1-0.8,0.3-1.6,0.4-2.4l1.5-7h1.5L224.7,76.5
	z"/>
<path class="st1" d="M229.6,62.3c-0.6,0-1.1-0.5-1.1-1.1s0.5-1.1,1.1-1.1c0.6,0,1.1,0.5,1.1,1.1c0,0,0,0,0,0
	C230.6,61.8,230.2,62.3,229.6,62.3z M228.8,76.5V64.8h1.5v11.7H228.8z"/>
<path class="st1" d="M237.5,76.5V68c0-0.9,0-2.2-1.3-2.2c-0.6,0-1.1,0.3-1.4,0.8c-0.3,0.6-0.5,1.3-0.4,2v7.9h-1.5V64.8h1.5v0.9
	c0.6-0.7,1.4-1.1,2.3-1.1c2,0,2.3,1.6,2.3,3.2v8.7H237.5z"/>
<path class="st1" d="M247.8,77.7c0,2.1-0.8,3.4-3.1,3.4c-2.1,0-3.1-1.3-3.1-3.2c0-0.1,0-0.3,0-0.4h1.5c0,1.2,0.1,2.3,1.6,2.3
	s1.5-1.1,1.5-2.3v-1.9c-0.5,0.5-1.2,0.9-1.9,0.8c-3,0-3-4-3-6.1c0-2,0.2-5.7,2.9-5.7c0.8,0,1.5,0.4,2,1v-0.8h1.5L247.8,77.7z
	 M244.6,65.8c-1.6,0-1.7,2.7-1.7,5.1c0,1.2,0,4.3,1.9,4.3c1.3,0,1.5-1.5,1.6-2.5s0.1-1.9,0.1-2.8C246.4,68.7,246.4,65.8,244.6,65.8
	L244.6,65.8z"/>
<path class="st1" d="M261,67.2c-0.5-0.7-1.2-1.1-2-1.2c-0.8,0-1.5,0.6-1.5,1.4c0,0,0,0.1,0,0.1c0,2.3,3.8,2.7,3.8,5.8
	c0.1,1.7-1.3,3.2-3,3.3c0,0-0.1,0-0.1,0c-0.8,0-1.6-0.3-2.2-0.8v-1.7c0.5,0.7,1.3,1.1,2.1,1.2c0.9,0,1.7-0.8,1.7-1.7
	c0,0,0-0.1,0-0.1c0-2.3-3.8-3.1-3.8-5.9c-0.1-1.6,1.2-2.9,2.7-2.9c0.1,0,0.1,0,0.2,0c0.8,0,1.5,0.3,2.1,0.8L261,67.2z"/>
<path class="st1" d="M264.6,65.6c0.4-0.6,1.1-1,1.9-1c2.9,0,2.9,3.7,2.9,5.8c0,2.5-0.1,6.2-2.8,6.2c-0.8,0-1.6-0.4-2-1.1v5.6h-1.5
	V64.8h1.5L264.6,65.6z M266.2,65.8c-1.5,0-1.7,2.4-1.7,4.8c0,1,0,3.7,0.7,4.5c0.2,0.3,0.6,0.4,1,0.4c1.4,0,1.5-1.7,1.6-2.7
	s0.1-1.8,0.1-2.7C267.9,68.9,267.9,65.8,266.2,65.8z"/>
<path class="st1" d="M276.1,76.5v-1c-0.4,0.7-1.2,1.1-2,1.1c-2.7,0-2.8-3.7-2.8-5.8c0-2.4,0.1-6.2,2.9-6.2c0.8,0,1.5,0.4,1.9,1v-0.8
	h1.5v11.6H276.1z M274.6,65.9c-1.7,0-1.8,3-1.8,4.1c0,1,0,1.9,0.1,2.8s0.3,2.7,1.6,2.7c0.4,0,0.7-0.1,1-0.4c0.8-0.7,0.8-3.5,0.8-4.5
	C276.3,68.3,276.1,65.8,274.6,65.9L274.6,65.9z"/>
<path class="st1" d="M284.9,76c-0.5,0.4-1.1,0.6-1.7,0.6c-2.8,0-3.4-3.7-3.4-5.8s0.5-6.2,3.5-6.2c0.6,0,1.1,0.2,1.6,0.4v1.7
	c-0.3-0.5-0.9-0.7-1.4-0.8c-1.9,0-2.1,3.4-2.1,4.7s0.2,4.6,2,4.6c0.6-0.1,1.2-0.4,1.5-1L284.9,76z"/>
<path class="st1" d="M292.8,72.5c-0.1,1.9-0.7,4.1-3,4.1c-3,0-3.4-3.7-3.4-5.9s0.5-6,3.3-6s3.2,3.5,3.2,5.6c0,0.2,0,0.5,0,0.7h-5
	v0.3c0,1.2,0.2,4.1,1.9,4.1c1.3,0,1.5-1.8,1.5-2.8L292.8,72.5z M291.4,69.7c0-1-0.2-3.7-1.7-3.7s-1.8,2.6-1.8,3.7H291.4z"/>
<path class="st1" d="M302,62.3c-0.6,0-1.1-0.5-1.1-1.1c0-0.6,0.5-1.1,1.1-1.1c0.6,0,1.1,0.5,1.1,1.1c0,0,0,0,0,0
	C303,61.8,302.6,62.3,302,62.3z M301.2,76.5V64.8h1.5v11.7H301.2z"/>
<path class="st1" d="M309.9,76.5V68c0-0.9,0-2.2-1.3-2.2c-0.6,0-1.1,0.3-1.4,0.8c-0.3,0.6-0.5,1.3-0.4,2v7.9h-1.5V64.8h1.5v0.9
	c0.6-0.7,1.4-1.1,2.3-1.1c2,0,2.3,1.6,2.3,3.2v8.7H309.9z"/>
<path class="st1" d="M34.4,97.5c-2,0-2,1.6-2,3.1v7h-1.5V96h1.5v1.5c0.3-0.9,1.1-1.6,2-1.7L34.4,97.5z"/>
<path class="st1" d="M42.1,104.8c0,1.7-1.4,3.1-3.1,3.1c-1.7,0-3.1-1.4-3.1-3.1V96h1.5v7.9c0,1.2,0.1,2.5,1.6,2.5s1.5-1.6,1.5-2.7
	V96h1.5L42.1,104.8z"/>
<path class="st1" d="M48.3,97.5c-2,0-2,1.6-2,3.1v7h-1.5V96h1.5v1.5c0.3-0.9,1.1-1.6,2-1.7V97.5z"/>
<path class="st1" d="M54.3,107.6v-0.9c-0.4,0.7-1.2,1.1-2,1.1c-2.7,0-2.8-3.7-2.8-5.8c0-2.4,0.1-6.2,2.9-6.2c0.8,0,1.5,0.4,1.9,1
	v-0.8h1.5v11.6L54.3,107.6z M52.8,97c-1.7,0-1.7,3-1.7,4.1c0,1,0,1.9,0.1,2.8s0.3,2.7,1.6,2.7c0.4,0,0.7-0.1,1-0.4
	c0.7-0.7,0.7-3.5,0.7-4.5C54.5,99.5,54.4,97,52.8,97z"/>
<path class="st1" d="M58.5,107.6v-19H60v19H58.5z"/>
<path class="st1" d="M71.8,107.8c-3,0-3.5-3.7-3.5-6s0.4-6,3.5-6s3.3,3.8,3.3,6.1S74.9,107.8,71.8,107.8z M71.8,97.2
	c-1.8,0-1.9,3.5-1.9,4.8s0.1,4.5,1.9,4.5s1.8-3.5,1.8-4.6S73.6,97.2,71.8,97.2L71.8,97.2z"/>
<path class="st1" d="M80.8,97.5c-2,0-2,1.6-2,3.1v7h-1.5V96h1.5v1.5c0.3-0.9,1.1-1.6,2-1.7V97.5z"/>
<path class="st1" d="M94.8,104.8c-0.1,1.7-1.5,3-3.2,2.9c-1.6-0.1-2.8-1.3-2.9-2.9V96h1.5v7.9c0,1.2,0,2.5,1.6,2.5s1.5-1.6,1.5-2.7
	V96h1.5L94.8,104.8z"/>
<path class="st1" d="M100.9,97.5c-2,0-2,1.6-2,3.1v7h-1.4V96H99v1.5c0.3-0.9,1.1-1.6,2-1.7L100.9,97.5z"/>
<path class="st1" d="M104.1,96.8c0.4-0.6,1.1-1,1.9-1c2.9,0,2.9,3.7,2.9,5.8c0,2.5-0.1,6.2-2.8,6.2c-0.8,0-1.6-0.4-2-1.1v0.9h-1.5
	v-19h1.5V96.8z M105.6,97c-1.5,0-1.7,2.4-1.7,4.8c0,1,0,3.7,0.7,4.5c0.2,0.3,0.6,0.4,0.9,0.4c1.4,0,1.5-1.7,1.6-2.7s0.1-1.8,0.1-2.7
	C107.4,100.1,107.3,97,105.6,97z"/>
<path class="st1" d="M115.6,107.6v-0.9c-0.4,0.7-1.2,1.1-2,1.1c-2.7,0-2.8-3.7-2.8-5.8c0-2.4,0.1-6.2,2.9-6.2c0.8,0,1.5,0.4,1.9,1
	v-0.8h1.5v11.6L115.6,107.6z M114.1,97c-1.7,0-1.8,3-1.8,4.1c0,1,0,1.9,0.1,2.8s0.3,2.7,1.6,2.7c0.4,0,0.7-0.1,0.9-0.4
	c0.7-0.7,0.7-3.5,0.7-4.5C115.7,99.5,115.6,97,114.1,97z"/>
<path class="st1" d="M124.3,107.6v-8.4c0-0.9,0-2.2-1.3-2.2c-0.6,0-1.1,0.3-1.4,0.8c-0.3,0.6-0.5,1.3-0.4,2v7.8h-1.5V96h1.5V97
	c0.6-0.7,1.4-1.1,2.3-1.1c2,0,2.3,1.6,2.3,3.2v8.6H124.3z"/>
<path class="st1" d="M139.1,107.6v-0.9c-0.4,0.7-1.2,1.1-2,1.1c-2.7,0-2.8-3.7-2.8-5.8c0-2.4,0.1-6.2,2.9-6.2c0.8,0,1.5,0.4,1.9,1
	v-0.8h1.5v11.6L139.1,107.6z M137.6,97c-1.7,0-1.8,3-1.8,4.1c0,1,0,1.9,0.1,2.8s0.3,2.7,1.6,2.7c0.4,0,0.7-0.1,0.9-0.4
	c0.8-0.7,0.8-3.5,0.8-4.5C139.3,99.5,139.1,97,137.6,97z"/>
<path class="st1" d="M146.8,97.5c-2,0-2,1.6-2,3.1v7h-1.5V96h1.5v1.5c0.3-0.9,1.1-1.6,2-1.7V97.5z"/>
<path class="st1" d="M154.2,103.7c-0.1,1.9-0.7,4.1-3,4.1c-3,0-3.4-3.7-3.4-6s0.4-6,3.3-6s3.2,3.5,3.2,5.6c0,0.2,0,0.5,0,0.7h-5v0.3
	c0,1.2,0.2,4.1,1.9,4.1c1.3,0,1.5-1.8,1.5-2.8L154.2,103.7z M152.9,100.9c-0.1-1-0.2-3.7-1.7-3.7s-1.8,2.6-1.8,3.7H152.9z"/>
<path class="st1" d="M161,107.6v-0.9c-0.4,0.7-1.2,1.1-2,1.1c-2.7,0-2.8-3.7-2.8-5.8c0-2.4,0.1-6.2,2.9-6.2c0.8,0,1.5,0.4,1.9,1
	v-0.8h1.4v11.6L161,107.6z M159.5,97c-1.7,0-1.8,3-1.8,4.1c0,1,0,1.9,0.1,2.8s0.3,2.7,1.6,2.7c0.4,0,0.7-0.1,0.9-0.4
	c0.7-0.7,0.7-3.5,0.7-4.5C161.2,99.5,161.1,97,159.5,97z"/>
</svg>
