<svg id="Ebene_1" data-name="Ebene 1" xmlns="http://www.w3.org/2000/svg" width="382.61" height="256.5" viewBox="0 0 382.61 256.5">
  <defs>
    <style>
      .cls-1 {
        fill: none;
        stroke: #c7f700;
        stroke-width: 8px;
      }

      .cls-2 {
        fill: #f6f6f6;
      }
    </style>
  </defs>
  <g id="Gruppe_432" data-name="Gruppe 432">
    <g id="Gruppe_430" data-name="Gruppe 430">
      <g id="Gruppe_93" data-name="Gruppe 93">
        <path id="Pfad_50-2" data-name="Pfad 50-2" class="cls-1" d="M378.61,89.09V4h-76" transform="translate(0 0)"/>
        <path id="Pfad_51-2" data-name="Pfad 51-2" class="cls-1" d="M378.61,167.39V252.5h-76" transform="translate(0 0)"/>
        <path id="Pfad_52-2" data-name="Pfad 52-2" class="cls-1" d="M4,89.09V4H80" transform="translate(0 0)"/>
        <path id="Pfad_53-2" data-name="Pfad 53-2" class="cls-1" d="M4,167.39V252.5H80" transform="translate(0 0)"/>
      </g>
    </g>
  </g>
  <path class="cls-2" d="M37,45.25l-4.1-8.47v8.47h-1.8V27.91h2.22a6.44,6.44,0,0,1,3,.49c1.59.84,1.91,2.55,1.91,4.16,0,2.4-.82,4.16-3.49,4.37l4.09,8.32ZM34,35.5c2.1,0,2.49-1.22,2.49-3,0-2-.42-3.07-2.67-3.07H33V35.5Z" transform="translate(0 0)"/>
  <path class="cls-2" d="M46.29,41.3c-.08,1.87-.66,4.13-3,4.13-3,0-3.44-3.71-3.44-6s.45-6,3.33-6,3.2,3.51,3.2,5.56v.73h-5V40c0,1.17.18,4.06,1.88,4.06,1.32,0,1.5-1.77,1.53-2.76Zm-1.38-2.8c0-1-.18-3.69-1.69-3.69S41.5,37.43,41.4,38.5Z" transform="translate(0 0)"/>
  <path class="cls-2" d="M48.59,45.25v-19h1.5v19Z" transform="translate(0 0)"/>
  <path class="cls-2" d="M53.5,31.06a1.1,1.1,0,1,1,1.08-1.12v0A1.09,1.09,0,0,1,53.5,31.06Zm-.77,14.19V33.63h1.51V45.25Z" transform="translate(0 0)"/>
  <path class="cls-2" d="M61.33,45.25v-.93a2.34,2.34,0,0,1-2,1.11c-2.7,0-2.77-3.71-2.77-5.77,0-2.36.07-6.21,2.9-6.21a2.19,2.19,0,0,1,1.88,1v-.78h1.51V45.25ZM59.82,34.62c-1.71,0-1.74,3-1.74,4.13s0,1.87.08,2.81.26,2.68,1.64,2.68a1.21,1.21,0,0,0,1-.39c.74-.73.74-3.46.74-4.47C61.5,37.06,61.36,34.62,59.82,34.62Z" transform="translate(0 0)"/>
  <path class="cls-2" d="M67,34.41a2.21,2.21,0,0,1,1.91-1c2.88,0,2.91,3.69,2.91,5.77,0,2.5-.08,6.21-2.78,6.21a2.49,2.49,0,0,1-2-1.11v.93H65.5v-19H67Zm1.54.21c-1.54,0-1.67,2.44-1.67,4.76,0,1,0,3.74.74,4.47a1.21,1.21,0,0,0,1,.39c1.38,0,1.54-1.67,1.64-2.68a25.62,25.62,0,0,0,.08-2.73C70.24,37.66,70.22,34.62,68.5,34.62Z" transform="translate(0 0)"/>
  <path class="cls-2" d="M74.71,31.06a1.1,1.1,0,1,1,1.08-1.12v0A1.09,1.09,0,0,1,74.71,31.06Zm-.77,14.19V33.63H75.5V45.25Z" transform="translate(0 0)"/>
  <path class="cls-2" d="M78.07,45.25v-19h1.51v19Z" transform="translate(0 0)"/>
  <path class="cls-2" d="M83,31.06A1.1,1.1,0,1,1,84,29.94v0A1.09,1.09,0,0,1,83,31.06Zm-.77,14.19V33.63H83.7V45.25Z" transform="translate(0 0)"/>
  <path class="cls-2" d="M88.25,35V45.25H86.77V35H85.5V33.63h1.27v-3.3h1.48v3.3h2V35Z" transform="translate(0 0)"/>
  <path class="cls-2" d="M94.14,49.93H92.56l1.32-5-2.8-11.31h1.5l1.48,6.45A26.2,26.2,0,0,1,94.62,43c.1-.73.29-1.43.47-2.18l1.72-7.18h1.56Z" transform="translate(0 0)"/>
  <path class="cls-2" d="M106.75,31.06A1.1,1.1,0,1,1,107.84,30v0A1.1,1.1,0,0,1,106.75,31.06ZM106,45.25V33.63h1.51V45.25Z" transform="translate(0 0)"/>
  <path class="cls-2" d="M114.58,36a2.8,2.8,0,0,0-2-1.2,1.45,1.45,0,0,0-1.45,1.47v.06c0,2.27,3.81,2.68,3.81,5.83a3.16,3.16,0,0,1-3,3.27h-.13a3.63,3.63,0,0,1-2.19-.8V42.91a3,3,0,0,0,2.09,1.15,1.7,1.7,0,0,0,1.72-1.7v-.1c0-2.29-3.81-3.07-3.81-5.87a2.84,2.84,0,0,1,2.79-2.89h.14a3.5,3.5,0,0,1,2.11.75Z" transform="translate(0 0)"/>
  <path class="cls-2" d="M125.87,45.43c-3,0-3.46-3.74-3.46-6s.42-6,3.46-6,3.31,3.82,3.31,6.06S128.91,45.43,125.87,45.43Zm0-10.63c-1.82,0-1.87,3.54-1.87,4.76s.07,4.5,1.87,4.5,1.8-3.46,1.8-4.63-.08-4.63-1.83-4.63Z" transform="translate(0 0)"/>
  <path class="cls-2" d="M136,45.25V36.8c0-.93,0-2.16-1.33-2.16a1.69,1.69,0,0,0-1.4.76,3.57,3.57,0,0,0-.39,2v7.82H131.4V33.63h1.48v.94a3.08,3.08,0,0,1,2.3-1.12c2,0,2.3,1.61,2.3,3.2v8.6Z" transform="translate(0 0)"/>
  <path class="cls-2" d="M146.1,41.3c-.08,1.87-.66,4.13-3,4.13-3,0-3.44-3.71-3.44-6s.45-6,3.33-6,3.2,3.51,3.2,5.56v.73h-5V40c0,1.17.18,4.06,1.88,4.06,1.32,0,1.5-1.77,1.53-2.76Zm-1.38-2.8c-.05-1-.18-3.69-1.69-3.69s-1.77,2.63-1.82,3.69Z" transform="translate(0 0)"/>
  <path class="cls-2" d="M157.57,45.43c-3,0-3.46-3.74-3.46-6s.42-6,3.46-6,3.31,3.82,3.31,6.06S160.61,45.43,157.57,45.43Zm0-10.63c-1.82,0-1.87,3.54-1.87,4.76s.08,4.5,1.87,4.5,1.8-3.46,1.8-4.63-.08-4.63-1.87-4.63Z" transform="translate(0 0)"/>
  <path class="cls-2" d="M165,35V45.25h-1.48V35H162.2V33.63h1.35V29c0-1.49.39-3,2.19-3a3.34,3.34,0,0,1,1.32.26v1.61a1.73,1.73,0,0,0-1.08-.52c-.87,0-.95.78-.95,1.43V33.6h2V35Z" transform="translate(0 0)"/>
  <path class="cls-2" d="M176.58,35V45.25H175.1V35h-1.27V33.63h1.27v-3.3h1.48v3.3h2V35Z" transform="translate(0 0)"/>
  <path class="cls-2" d="M184.5,45.25V36.8c0-.93,0-2.16-1.32-2.16a1.69,1.69,0,0,0-1.4.76,3.64,3.64,0,0,0-.4,2v7.82H179.9v-19h1.48v8.27a3.11,3.11,0,0,1,2.3-1.12c1.93,0,2.3,1.35,2.3,3v8.81Z" transform="translate(0 0)"/>
  <path class="cls-2" d="M192.13,35.14c-2,0-2,1.56-2,3.07v7h-1.48V33.63h1.48v1.51a2.41,2.41,0,0,1,2-1.69Z" transform="translate(0 0)"/>
  <path class="cls-2" d="M199.61,41.3c-.08,1.87-.66,4.13-3,4.13-3,0-3.44-3.71-3.44-6s.45-6,3.34-6,3.2,3.51,3.2,5.56v.73h-5V40c0,1.17.19,4.06,1.88,4.06,1.32,0,1.51-1.77,1.53-2.76Zm-1.38-2.8c0-1-.18-3.69-1.69-3.69s-1.77,2.63-1.82,3.69Z" transform="translate(0 0)"/>
  <path class="cls-2" d="M207.89,41.3c-.08,1.87-.67,4.13-3,4.13-3,0-3.44-3.71-3.44-6s.45-6,3.33-6S208,36.94,208,39v.73h-5V40c0,1.17.18,4.06,1.87,4.06,1.33,0,1.51-1.77,1.54-2.76Zm-1.39-2.8c-.05-1-.18-3.69-1.69-3.69S203,37.44,203,38.5Z" transform="translate(0 0)"/>
  <path class="cls-2" d="M218.28,35V45.25h-1.49V35H215.5V33.63h1.34V29c0-1.49.4-3,2.2-3a3.34,3.34,0,0,1,1.32.26v1.61a1.73,1.73,0,0,0-1.08-.52c-.87,0-1,.78-1,1.43V33.6h2V35Z" transform="translate(0 0)"/>
  <path class="cls-2" d="M226.23,45.25v-.93a2.3,2.3,0,0,1-2,1.11c-2.69,0-2.77-3.71-2.77-5.77,0-2.36.08-6.21,2.91-6.21a2.18,2.18,0,0,1,1.87,1v-.78h1.51V45.25Zm-1.5-10.63c-1.72,0-1.75,3-1.75,4.13s0,1.87.08,2.81.27,2.68,1.64,2.68a1.18,1.18,0,0,0,1-.39c.74-.73.74-3.46.74-4.47C226.39,37.06,226.26,34.62,224.73,34.62Z" transform="translate(0 0)"/>
  <path class="cls-2" d="M235,44.84a3,3,0,0,1-1.69.59c-2.78,0-3.41-3.71-3.41-5.79s.47-6.19,3.49-6.19a3.14,3.14,0,0,1,1.61.44v1.72a2.13,2.13,0,0,0-1.48-.81c-1.88,0-2.06,3.41-2.06,4.71s.23,4.55,2,4.55a2,2,0,0,0,1.51-1Z" transform="translate(0 0)"/>
  <path class="cls-2" d="M238.82,35V45.25h-1.48V35h-1.27V33.63h1.27v-3.3h1.48v3.3h2V35Z" transform="translate(0 0)"/>
  <path class="cls-2" d="M245.14,45.43c-3,0-3.47-3.74-3.47-6s.43-6,3.47-6,3.3,3.82,3.3,6.06S248.18,45.43,245.14,45.43Zm0-10.63c-1.82,0-1.88,3.54-1.88,4.76s.08,4.5,1.88,4.5,1.8-3.46,1.8-4.63-.08-4.63-1.83-4.63Z" transform="translate(0 0)"/>
  <path class="cls-2" d="M254.15,35.14c-2,0-2,1.56-2,3.07v7h-1.48V33.63h1.48v1.51a2.43,2.43,0,0,1,2-1.69Z" transform="translate(0 0)"/>
  <path class="cls-2" d="M260.29,36a2.8,2.8,0,0,0-2-1.2,1.45,1.45,0,0,0-1.45,1.47v.06c0,2.27,3.81,2.68,3.81,5.83a3.16,3.16,0,0,1-3,3.27h-.13a3.63,3.63,0,0,1-2.19-.8V42.91a3,3,0,0,0,2.09,1.15,1.71,1.71,0,0,0,1.71-1.71v-.09c0-2.29-3.8-3.07-3.8-5.87a2.83,2.83,0,0,1,2.77-2.89h.12a3.55,3.55,0,0,1,2.12.75Z" transform="translate(0 0)"/>
  <path class="cls-2" d="M270,34.41a2.21,2.21,0,0,1,1.91-1c2.88,0,2.91,3.69,2.91,5.77,0,2.5-.08,6.21-2.78,6.21a2.51,2.51,0,0,1-2-1.11v.93H268.6v-19h1.48Zm1.54.21c-1.54,0-1.67,2.44-1.67,4.76,0,1,0,3.74.74,4.47a1.21,1.21,0,0,0,1,.39c1.38,0,1.54-1.67,1.64-2.68a25.62,25.62,0,0,0,.08-2.73c-.05-1.17-.07-4.21-1.79-4.21Z" transform="translate(0 0)"/>
  <path class="cls-2" d="M283,41.3c-.08,1.87-.66,4.13-3,4.13-3,0-3.44-3.71-3.44-6s.45-6,3.33-6,3.2,3.51,3.2,5.56v.73h-5V40c0,1.17.18,4.06,1.88,4.06,1.32,0,1.5-1.77,1.53-2.76Zm-1.38-2.8c0-1-.18-3.69-1.69-3.69s-1.77,2.63-1.83,3.69Z" transform="translate(0 0)"/>
  <path class="cls-2" d="M289.93,45.25V36.8c0-.93,0-2.16-1.32-2.16a1.67,1.67,0,0,0-1.41.76,3.65,3.65,0,0,0-.39,2v7.82h-1.48v-19h1.48v8.27a3.08,3.08,0,0,1,2.3-1.12c1.93,0,2.3,1.35,2.3,3v8.81Z" transform="translate(0 0)"/>
  <path class="cls-2" d="M294.79,31.06A1.1,1.1,0,1,1,295.88,30v0A1.1,1.1,0,0,1,294.79,31.06ZM294,45.25V33.63h1.48V45.25Z" transform="translate(0 0)"/>
  <path class="cls-2" d="M302.75,45.25V36.8c0-.93,0-2.16-1.32-2.16a1.65,1.65,0,0,0-1.4.76,3.48,3.48,0,0,0-.4,2v7.82h-1.48V33.63h1.48v.94a3.08,3.08,0,0,1,2.3-1.12c2,0,2.3,1.61,2.3,3.2v8.6Z" transform="translate(0 0)"/>
  <path class="cls-2" d="M311.24,45.25v-.93a2.36,2.36,0,0,1-2,1.11c-2.72,0-2.78-3.87-2.78-5.9,0-2.26,0-6.08,2.94-6.08a2.19,2.19,0,0,1,1.88,1V26.3h1.48v19ZM309.7,34.62c-1.69,0-1.72,3-1.72,4.13s0,1.87.08,2.81.24,2.68,1.62,2.68a1.3,1.3,0,0,0,1-.39c.71-.7.71-3.43.71-4.4C311.37,37,311.24,34.62,309.7,34.62Z" transform="translate(0 0)"/>
  <path class="cls-2" d="M323.5,35V45.25H322V35H320.7V33.63H322v-3.3h1.53v3.3h2V35Z" transform="translate(0 0)"/>
  <path class="cls-2" d="M331.38,45.25V36.8c0-.93,0-2.16-1.32-2.16a1.69,1.69,0,0,0-1.4.76,3.64,3.64,0,0,0-.4,2v7.82h-1.48v-19h1.48v8.27a3.15,3.15,0,0,1,2.3-1.12c1.94,0,2.31,1.35,2.31,3v8.81Z" transform="translate(0 0)"/>
  <path class="cls-2" d="M341.19,41.3c-.08,1.87-.66,4.13-3,4.13-3,0-3.44-3.71-3.44-6s.45-6,3.33-6,3.2,3.51,3.2,5.56v.73h-5V40c0,1.17.18,4.06,1.87,4.06,1.32,0,1.51-1.77,1.54-2.76Zm-1.37-2.8c-.05-1-.19-3.69-1.69-3.69s-1.78,2.63-1.83,3.69Z" transform="translate(0 0)"/>
  <path class="cls-2" d="M35.34,67.2a2.8,2.8,0,0,0-2-1.2,1.46,1.46,0,0,0-1.49,1.43v.07c0,2.27,3.81,2.68,3.81,5.83a3.16,3.16,0,0,1-3,3.3H32.5a3.68,3.68,0,0,1-2.2-.8V74.11a3,3,0,0,0,2.09,1.15,1.71,1.71,0,0,0,1.71-1.71v0c0-2.29-3.81-3.07-3.81-5.87A2.84,2.84,0,0,1,33,64.69h.2a3.5,3.5,0,0,1,2.11.75Z" transform="translate(0 0)"/>
  <path class="cls-2" d="M43.59,73.62a3.07,3.07,0,0,1-6.13,0V64.83h1.48v7.88c0,1.19,0,2.55,1.64,2.55s1.53-1.56,1.53-2.71V64.83h1.48Z" transform="translate(0 0)"/>
  <path class="cls-2" d="M47.71,65.61a2.21,2.21,0,0,1,1.91-1c2.88,0,2.91,3.69,2.91,5.77,0,2.5-.08,6.21-2.78,6.21a2.51,2.51,0,0,1-2-1.11v1H46.27v-19h1.48Zm1.54.21c-1.54,0-1.67,2.44-1.67,4.76,0,1,0,3.74.74,4.47a1.21,1.21,0,0,0,1,.39c1.38,0,1.54-1.67,1.64-2.68A25.62,25.62,0,0,0,51,70C51,68.86,51,65.82,49.25,65.82Z" transform="translate(0 0)"/>
  <path class="cls-2" d="M55.5,62.26a1.1,1.1,0,1,1,1.11-1.09v0A1.11,1.11,0,0,1,55.5,62.26Zm-.77,18.87V64.83h1.54v16.3Z" transform="translate(0 0)"/>
  <path class="cls-2" d="M64.9,72.5c-.08,1.87-.66,4.13-3,4.13-3,0-3.43-3.71-3.43-5.95s.44-6,3.33-6S65,68.19,65,70.24V71H60v.26c0,1.17.19,4.06,1.88,4.06,1.32,0,1.51-1.77,1.53-2.76Zm-1.4-2.81c-.06-1-.19-3.69-1.7-3.69S60,68.63,60,69.69Z" transform="translate(0 0)"/>
  <path class="cls-2" d="M71.85,76a2.89,2.89,0,0,1-1.69.59c-2.77,0-3.41-3.71-3.41-5.79s.48-6.19,3.49-6.19a3.14,3.14,0,0,1,1.61.44v1.72A2.07,2.07,0,0,0,70.37,66c-1.87,0-2.06,3.41-2.06,4.71s.24,4.55,2,4.55a2,2,0,0,0,1.5-1Z" transform="translate(0 0)"/>
  <path class="cls-2" d="M75.63,66.18V76.5H74.15V66.18H72.88V64.83h1.27V61.5h1.48v3.3h2v1.35Z" transform="translate(0 0)"/>
  <path class="cls-2" d="M79.71,62.26a1.1,1.1,0,1,1,1.08-1.12v0A1.09,1.09,0,0,1,79.71,62.26ZM78.94,76.5V64.83H80.5V76.5Z" transform="translate(0 0)"/>
  <path class="cls-2" d="M86.24,76.5H84.62L81.93,64.88H83.5l1.56,6.94c.18.83.32,1.66.42,2.5.14-.81.27-1.64.43-2.45l1.45-7h1.53Z" transform="translate(0 0)"/>
  <path class="cls-2" d="M96.15,72.5c-.08,1.87-.66,4.13-3,4.13-3,0-3.43-3.71-3.43-5.95s.45-6,3.33-6,3.2,3.51,3.2,5.56V71h-5v.26c0,1.17.19,4.06,1.88,4.06,1.32,0,1.51-1.77,1.54-2.76Zm-1.37-2.81c-.06-1-.19-3.69-1.7-3.69s-1.77,2.63-1.82,3.69Z" transform="translate(0 0)"/>
  <path class="cls-2" d="M106.09,65.61a2.16,2.16,0,0,1,1.88-1c2.91,0,2.94,3.66,2.94,5.77,0,2.5-.08,6.21-2.78,6.21a2.49,2.49,0,0,1-2-1.11v5.61h-1.48V64.83h1.48Zm1.54.21c-1.54,0-1.67,2.44-1.67,4.76,0,1,0,3.74.74,4.47a1.21,1.21,0,0,0,1,.39c1.38,0,1.54-1.67,1.64-2.68a25.62,25.62,0,0,0,.08-2.73c0-1.17-.07-4.21-1.79-4.21Z" transform="translate(0 0)"/>
  <path class="cls-2" d="M119.08,72.5c-.08,1.87-.66,4.13-3,4.13-3,0-3.44-3.71-3.44-5.95s.45-6,3.33-6,3.2,3.51,3.2,5.56V71h-5v.26c0,1.17.18,4.06,1.87,4.06,1.33,0,1.51-1.77,1.54-2.76Zm-1.38-2.81c0-1-.18-3.69-1.69-3.69s-1.77,2.63-1.83,3.69Z" transform="translate(0 0)"/>
  <path class="cls-2" d="M124.87,66.34c-2,0-2,1.56-2,3.07v7h-1.48V64.83h1.48v1.51a2.41,2.41,0,0,1,2-1.69Z" transform="translate(0 0)"/>
  <path class="cls-2" d="M131,76a2.92,2.92,0,0,1-1.7.59c-2.77,0-3.41-3.71-3.41-5.79s.48-6.19,3.49-6.19a3.18,3.18,0,0,1,1.62.44v1.72A2.14,2.14,0,0,0,129.5,66c-1.87,0-2.06,3.41-2.06,4.71s.24,4.55,2,4.55a2,2,0,0,0,1.51-1Z" transform="translate(0 0)"/>
  <path class="cls-2" d="M138.85,72.5c-.08,1.87-.66,4.13-3,4.13-3,0-3.43-3.71-3.43-5.95s.45-6,3.33-6,3.2,3.51,3.2,5.56V71h-5v.26c0,1.17.19,4.06,1.88,4.06,1.32,0,1.51-1.77,1.53-2.76Zm-1.35-2.81c-.06-1-.19-3.69-1.69-3.69S134,68.63,134,69.69Z" transform="translate(0 0)"/>
  <path class="cls-2" d="M142.63,65.61a2.16,2.16,0,0,1,1.88-1c2.91,0,2.94,3.66,2.94,5.77,0,2.5-.08,6.21-2.78,6.21a2.49,2.49,0,0,1-2-1.11v5.61h-1.48V64.83h1.48Zm1.54.21c-1.54,0-1.67,2.44-1.67,4.76,0,1,0,3.74.74,4.47a1.18,1.18,0,0,0,.95.39c1.38,0,1.54-1.67,1.64-2.68a25.62,25.62,0,0,0,.08-2.73C145.91,68.86,145.88,65.82,144.17,65.82Z" transform="translate(0 0)"/>
  <path class="cls-2" d="M151.57,66.18V76.5h-1.48V66.18h-1.27V64.83h1.27V61.5h1.48v3.3h2v1.35Z" transform="translate(0 0)"/>
  <path class="cls-2" d="M155.64,62.26a1.1,1.1,0,1,1,1.08-1.12v0A1.09,1.09,0,0,1,155.64,62.26Zm-.77,14.24V64.83h1.51V76.5Z" transform="translate(0 0)"/>
  <path class="cls-2" d="M162,76.63c-3,0-3.46-3.74-3.46-6s.42-6,3.46-6,3.31,3.82,3.31,6.06S165.05,76.63,162,76.63ZM162,66c-1.83,0-1.88,3.54-1.88,4.76s.08,4.5,1.88,4.5,1.79-3.46,1.79-4.63S163.73,66,162,66Z" transform="translate(0 0)"/>
  <path class="cls-2" d="M172.14,76.5V68c0-.93,0-2.16-1.32-2.16a1.65,1.65,0,0,0-1.4.76,3.48,3.48,0,0,0-.4,2v7.9H167.5V64.83H169v.94a3.08,3.08,0,0,1,2.3-1.12c2,0,2.3,1.61,2.3,3.2V76.5Z" transform="translate(0 0)"/>
  <path class="cls-2" d="M185.44,76.63c-3,0-3.47-3.74-3.47-6s.43-6,3.47-6,3.3,3.82,3.3,6.06S188.5,76.63,185.44,76.63Zm0-10.63c-1.82,0-1.88,3.54-1.88,4.76s.08,4.5,1.88,4.5,1.8-3.46,1.8-4.63S187.16,66,185.41,66Z" transform="translate(0 0)"/>
  <path class="cls-2" d="M192.89,66.18V76.5h-1.48V66.18h-1.35V64.83h1.35V60.18c0-1.49.4-3,2.2-3a3.34,3.34,0,0,1,1.32.26v1.61a1.78,1.78,0,0,0-1.08-.52c-.88,0-1,.78-1,1.43V64.8h2v1.35Z" transform="translate(0 0)"/>
  <path class="cls-2" d="M204.29,60.59V66.7H208v1.48h-3.75V76.5h-1.64V59.11h5.61v1.48Z" transform="translate(0 0)"/>
  <path class="cls-2" d="M216.5,76.5,212.4,68V76.5h-1.79V59.11h2.22a6.44,6.44,0,0,1,3,.49c1.58.84,1.9,2.55,1.9,4.16,0,2.4-.82,4.16-3.49,4.37l4.1,8.32Zm-3-9.75c2.11,0,2.46-1.22,2.46-3,0-2-.43-3.07-2.67-3.07h-.88v6Z" transform="translate(0 0)"/>
  <path class="cls-2" d="M222.69,60.59V76.5h-1.64V60.59h-2.64V59.11h6.93v1.48Z" transform="translate(0 0)"/>
  <path class="cls-2" d="M230.39,67.2a2.8,2.8,0,0,0-2-1.2,1.46,1.46,0,0,0-1.49,1.43v.07c0,2.27,3.8,2.68,3.8,5.83a3.16,3.16,0,0,1-3,3.3h-.2a3.63,3.63,0,0,1-2.19-.8V74.11a3,3,0,0,0,2.08,1.15,1.7,1.7,0,0,0,1.72-1.7v-.1c0-2.29-3.8-3.07-3.8-5.87A2.83,2.83,0,0,1,228,64.65h.21a3.55,3.55,0,0,1,2.12.75Z" transform="translate(0 0)"/>
  <path class="cls-2" d="M233.5,76.63a1.17,1.17,0,1,1,.07,0Z" transform="translate(0 0)"/>
  <path class="cls-2" d="M246.33,60.59V76.5h-1.64V60.59H242V59.11H249v1.48Z" transform="translate(0 0)"/>
  <path class="cls-2" d="M254.34,76.5V68c0-.93,0-2.16-1.32-2.16a1.65,1.65,0,0,0-1.4.76,3.64,3.64,0,0,0-.4,2v7.9h-1.48v-19h1.48v8.27a3.08,3.08,0,0,1,2.3-1.12c1.93,0,2.3,1.35,2.3,3V76.5Z" transform="translate(0 0)"/>
  <path class="cls-2" d="M264.15,72.5c-.08,1.87-.66,4.13-3,4.13-3,0-3.44-3.71-3.44-5.95s.45-6,3.34-6,3.2,3.51,3.2,5.56V71h-5v.26c0,1.17.19,4.06,1.88,4.06,1.32,0,1.51-1.77,1.53-2.76Zm-1.37-2.81c-.06-1-.19-3.69-1.7-3.69s-1.77,2.63-1.82,3.69Z" transform="translate(0 0)"/>
  <path class="cls-2" d="M276.1,66.34c-2,0-2,1.56-2,3.07v7h-1.48V64.83h1.48v1.51a2.43,2.43,0,0,1,2-1.69Z" transform="translate(0 0)"/>
  <path class="cls-2" d="M283.58,72.5c-.08,1.87-.66,4.13-3,4.13-3,0-3.43-3.71-3.43-5.95s.45-6,3.33-6,3.2,3.51,3.2,5.56V71h-5v.26c0,1.17.19,4.06,1.88,4.06,1.32,0,1.51-1.77,1.54-2.76Zm-1.37-2.81c-.06-1-.19-3.69-1.69-3.69s-1.78,2.63-1.83,3.69Z" transform="translate(0 0)"/>
  <path class="cls-2" d="M285.88,76.5v-19h1.51v19Z" transform="translate(0 0)"/>
  <path class="cls-2" d="M290.77,62.26a1.1,1.1,0,1,1,1.09-1.11v0A1.1,1.1,0,0,1,290.77,62.26ZM290,76.5V64.83h1.49V76.5Z" transform="translate(0 0)"/>
  <path class="cls-2" d="M298.63,76.5v-1a2.36,2.36,0,0,1-2,1.11c-2.7,0-2.78-3.71-2.78-5.77,0-2.36.08-6.21,2.91-6.21a2.19,2.19,0,0,1,1.88,1v-.78h1.5V76.5Zm-1.51-10.63c-1.72,0-1.74,3-1.74,4.13s0,1.87.07,2.81.27,2.68,1.64,2.68a1.18,1.18,0,0,0,1-.39c.75-.73.75-3.46.75-4.47,0-2.37-.19-4.81-1.72-4.81Z" transform="translate(0 0)"/>
  <path class="cls-2" d="M304.26,65.61a2.21,2.21,0,0,1,1.9-1c2.88,0,2.91,3.69,2.91,5.77,0,2.5-.08,6.21-2.78,6.21a2.47,2.47,0,0,1-2-1.11v1h-1.48v-19h1.48Zm1.53.21c-1.53,0-1.66,2.44-1.66,4.76,0,1,0,3.74.74,4.47a1.18,1.18,0,0,0,.95.39c1.37,0,1.53-1.67,1.64-2.68a23.23,23.23,0,0,0,.08-2.73C307.5,68.86,307.5,65.82,305.79,65.82Z" transform="translate(0 0)"/>
  <path class="cls-2" d="M312,62.26a1.1,1.1,0,1,1,1.09-1.11v0A1.1,1.1,0,0,1,312,62.26Zm-.76,14.24V64.83h1.51V76.5Z" transform="translate(0 0)"/>
  <path class="cls-2" d="M315.36,76.5v-19h1.51v19Z" transform="translate(0 0)"/>
  <path class="cls-2" d="M320.25,62.26a1.1,1.1,0,1,1,1.09-1.11v0A1.1,1.1,0,0,1,320.25,62.26ZM319.5,76.5V64.83H321V76.5Z" transform="translate(0 0)"/>
  <path class="cls-2" d="M325.5,66.18V76.5H324V66.18h-1.27V64.83H324V61.5h1.48v3.3h2v1.35Z" transform="translate(0 0)"/>
  <path class="cls-2" d="M331.44,81.13h-1.59l1.32-5-2.8-11.31h1.51l1.48,6.45a26.17,26.17,0,0,1,.55,2.91c.11-.73.3-1.43.48-2.18l1.72-7.18h1.56Z" transform="translate(0 0)"/>
  <path class="cls-2" d="M346.32,76.63c-3,0-3.46-3.74-3.46-6s.42-6,3.46-6,3.31,3.82,3.31,6.06S349.36,76.63,346.32,76.63Zm0-10.63c-1.83,0-1.88,3.54-1.88,4.76s.08,4.5,1.88,4.5,1.79-3.46,1.79-4.63S348,66,346.3,66Z" transform="translate(0 0)"/>
  <path class="cls-2" d="M353.78,66.18V76.5H352.3V66.18H351V64.83h1.35V60.18c0-1.49.39-3,2.19-3a3.54,3.54,0,0,1,1.33.26v1.61a1.81,1.81,0,0,0-1.09-.52c-.87,0-1,.78-1,1.43V64.8h2v1.35Z" transform="translate(0 0)"/>
  <path class="cls-2" d="M32.64,91.79V97.9H36.4v1.48H32.64v8.27H31V90.31h5.61v1.48Z" transform="translate(0 0)"/>
  <path class="cls-2" d="M44.81,107.65l-4.1-8.47v8.47h-1.8V90.31h2.22a6.44,6.44,0,0,1,3,.49C45.72,91.64,46,93.35,46,95c0,2.39-.82,4.16-3.49,4.37l4.09,8.32Zm-3-9.75c2.12,0,2.46-1.22,2.46-3,0-2-.42-3.07-2.67-3.07h-.87v6.11Z" transform="translate(0 0)"/>
  <path class="cls-2" d="M51.05,91.79v15.86H49.41V91.79H46.76V90.31h6.93v1.48Z" transform="translate(0 0)"/>
  <path class="cls-2" d="M58.74,98.4a2.8,2.8,0,0,0-2-1.2,1.45,1.45,0,0,0-1.45,1.47v.06c0,2.27,3.81,2.68,3.81,5.83a3.16,3.16,0,0,1-3.05,3.27h-.13a3.63,3.63,0,0,1-2.19-.8v-1.72a3,3,0,0,0,2.09,1.15,1.7,1.7,0,0,0,1.72-1.7v-.1c0-2.29-3.81-3.07-3.81-5.87a2.84,2.84,0,0,1,2.74-2.94h.2a3.5,3.5,0,0,1,2.11.75Z" transform="translate(0 0)"/>
  <path class="cls-2" d="M67.76,93.5a1.1,1.1,0,1,1,1.08-1.12v.05A1.09,1.09,0,0,1,67.76,93.5ZM67,107.69V96H68.5v11.62Z" transform="translate(0 0)"/>
  <path class="cls-2" d="M75.58,98.4a2.8,2.8,0,0,0-2-1.2,1.46,1.46,0,0,0-1.46,1.46v.07c0,2.27,3.81,2.68,3.81,5.83a3.16,3.16,0,0,1-3.05,3.27h-.12a3.68,3.68,0,0,1-2.2-.8v-1.72a3,3,0,0,0,2.09,1.15,1.7,1.7,0,0,0,1.72-1.7v-.1c0-2.29-3.81-3.07-3.81-5.87a2.84,2.84,0,0,1,2.74-2.94h.2a3.5,3.5,0,0,1,2.11.75Z" transform="translate(0 0)"/>
  <path class="cls-2" d="M89.83,103.7c-.08,1.87-.66,4.13-3,4.13-3,0-3.44-3.71-3.44-6s.45-6,3.33-6,3.2,3.51,3.2,5.56v.73h-5v.26c0,1.17.18,4.06,1.87,4.06,1.33,0,1.51-1.77,1.54-2.76Zm-1.33-2.81c0-1-.19-3.69-1.69-3.69S85,99.83,85,100.89Z" transform="translate(0 0)"/>
  <path class="cls-2" d="M95.15,107.65H93.5L90.81,96h1.53L93.9,103c.18.83.32,1.66.42,2.5.14-.81.27-1.64.43-2.45l1.45-7h1.54Z" transform="translate(0 0)"/>
  <path class="cls-2" d="M103.61,107.65v-.93a2.36,2.36,0,0,1-2,1.11c-2.7,0-2.78-3.71-2.78-5.77,0-2.36.08-6.21,2.91-6.21a2.19,2.19,0,0,1,1.88,1v-.78h1.51v11.62ZM102.1,97c-1.72,0-1.74,3-1.74,4.13s0,1.87.08,2.81.26,2.68,1.63,2.68a1.22,1.22,0,0,0,1-.39c.74-.73.74-3.46.74-4.47C103.77,99.5,103.64,97,102.1,97Z" transform="translate(0 0)"/>
  <path class="cls-2" d="M107.76,107.65v-19h1.51v19Z" transform="translate(0 0)"/>
  <path class="cls-2" d="M118,104.82a3.07,3.07,0,0,1-6.13,0V96h1.48v7.88c0,1.19,0,2.55,1.64,2.55s1.53-1.56,1.53-2.71V96H118Z" transform="translate(0 0)"/>
  <path class="cls-2" d="M125.18,107.65v-.93a2.34,2.34,0,0,1-2,1.11c-2.69,0-2.77-3.71-2.77-5.77,0-2.36.08-6.21,2.91-6.21a2.2,2.2,0,0,1,1.87,1v-.78h1.51v11.62ZM123.68,97c-1.72,0-1.75,3-1.75,4.13s0,1.87.08,2.81.26,2.68,1.64,2.68a1.18,1.18,0,0,0,.95-.39c.74-.73.74-3.46.74-4.47C125.34,99.5,125.21,97,123.68,97Z" transform="translate(0 0)"/>
  <path class="cls-2" d="M131.26,97.38v10.27h-1.48V97.38H128.5V96h1.27v-3.3h1.48V96h2v1.35Z" transform="translate(0 0)"/>
  <path class="cls-2" d="M140.5,103.7c-.08,1.87-.66,4.13-3,4.13-3,0-3.44-3.71-3.44-6s.45-6,3.33-6,3.2,3.51,3.2,5.56v.73h-5v.26c0,1.17.19,4.06,1.88,4.06,1.32,0,1.5-1.77,1.53-2.76Zm-1.38-2.81c0-1-.18-3.69-1.69-3.69s-1.77,2.63-1.82,3.69Z" transform="translate(0 0)"/>
  <path class="cls-2" d="M147.18,107.65v-.93a2.36,2.36,0,0,1-2,1.11c-2.73,0-2.78-3.87-2.78-5.9,0-2.26,0-6.08,2.93-6.08a2.19,2.19,0,0,1,1.88,1V88.7h1.48v19ZM145.65,97c-1.69,0-1.72,3-1.72,4.13s0,1.87.08,2.81.24,2.68,1.61,2.68a1.26,1.26,0,0,0,1-.39c.71-.7.71-3.43.71-4.4C147.31,99.41,147.18,97,145.65,97Z" transform="translate(0 0)"/>
  <path class="cls-2" d="M160.5,107.83c-3,0-3.46-3.74-3.46-6s.42-6,3.46-6,3.31,3.82,3.31,6.06S163.5,107.83,160.5,107.83Zm0-10.63c-1.82,0-1.87,3.54-1.87,4.76s.08,4.5,1.87,4.5,1.8-3.46,1.8-4.63S162.2,97.2,160.5,97.2Z" transform="translate(0 0)"/>
  <path class="cls-2" d="M170.61,107.65V99.2c0-.93,0-2.16-1.32-2.16a1.67,1.67,0,0,0-1.41.76,3.57,3.57,0,0,0-.39,2v7.82H166V96h1.49V97a3.08,3.08,0,0,1,2.3-1.12c2,0,2.3,1.61,2.3,3.2v8.6Z" transform="translate(0 0)"/>
  <path class="cls-2" d="M185.39,107.65v-.93a2.36,2.36,0,0,1-2,1.11c-2.7,0-2.78-3.71-2.78-5.77,0-2.36.08-6.21,2.91-6.21a2.21,2.21,0,0,1,1.88,1v-.78h1.5v11.62ZM183.88,97c-1.72,0-1.75,3-1.75,4.13s0,1.87.08,2.81.27,2.68,1.64,2.68a1.18,1.18,0,0,0,1-.39c.74-.73.74-3.46.74-4.47C185.5,99.5,185.41,97,183.88,97Z" transform="translate(0 0)"/>
  <path class="cls-2" d="M200.17,98.4a2.8,2.8,0,0,0-2-1.2,1.45,1.45,0,0,0-1.45,1.47v.06c0,2.27,3.8,2.68,3.8,5.83a3.15,3.15,0,0,1-3,3.27h-.14a3.63,3.63,0,0,1-2.19-.8v-1.72a3,3,0,0,0,2,1.19,1.7,1.7,0,0,0,1.72-1.7v-.1c0-2.29-3.8-3.07-3.8-5.87a2.83,2.83,0,0,1,2.72-2.94h.21a3.62,3.62,0,0,1,2.12.75Z" transform="translate(0 0)"/>
  <path class="cls-2" d="M206.93,107.24a2.89,2.89,0,0,1-1.69.59c-2.78,0-3.41-3.71-3.41-5.79s.48-6.19,3.49-6.19a3.14,3.14,0,0,1,1.61.44V98a2.07,2.07,0,0,0-1.48-.81c-1.87,0-2.06,3.41-2.06,4.71s.24,4.55,2,4.55a2,2,0,0,0,1.5-1Z" transform="translate(0 0)"/>
  <path class="cls-2" d="M213.28,107.65v-.93a2.34,2.34,0,0,1-2,1.11c-2.7,0-2.78-3.71-2.78-5.77,0-2.36.08-6.21,2.91-6.21a2.19,2.19,0,0,1,1.88,1v-.78h1.51v11.62ZM211.77,97c-1.72,0-1.74,3-1.74,4.13s0,1.87.08,2.81.26,2.68,1.64,2.68a1.21,1.21,0,0,0,.95-.39c.74-.73.74-3.46.74-4.47C213.44,99.5,213.31,97,211.77,97Z" transform="translate(0 0)"/>
  <path class="cls-2" d="M217.43,107.65v-19h1.51v19Z" transform="translate(0 0)"/>
  <path class="cls-2" d="M227.56,103.7c-.08,1.87-.66,4.13-3,4.13-3,0-3.44-3.71-3.44-6s.45-6,3.33-6,3.2,3.51,3.2,5.56v.73h-5v.26c0,1.17.18,4.06,1.88,4.06,1.32,0,1.5-1.77,1.53-2.76Zm-1.38-2.81c-.05-1-.18-3.69-1.69-3.69s-1.77,2.63-1.82,3.69Z" transform="translate(0 0)"/>
  <path class="cls-2" d="M238,97.38v10.27H236.5V97.38h-1.35V96h1.35V91.38c0-1.49.39-3,2.19-3a3.34,3.34,0,0,1,1.32.26v1.61a1.73,1.73,0,0,0-1.08-.52c-.87,0-1,.78-1,1.43V96h2v1.35Z" transform="translate(0 0)"/>
  <path class="cls-2" d="M244.9,97.5c-2,0-2,1.56-2,3.07v7h-1.48V96h1.48V97.5a2.43,2.43,0,0,1,2-1.69Z" transform="translate(0 0)"/>
  <path class="cls-2" d="M249.5,107.83c-3,0-3.46-3.74-3.46-6s.42-6,3.46-6,3.3,3.82,3.3,6.06S252.5,107.83,249.5,107.83Zm0-10.63c-1.82,0-1.88,3.54-1.88,4.76s.08,4.5,1.88,4.5,1.8-3.46,1.8-4.63-.13-4.63-1.88-4.63Z" transform="translate(0 0)"/>
  <path class="cls-2" d="M265.76,107.65h-1.48v-8.6c0-1-.16-2-1.37-2-1.72,0-1.8,1.9-1.8,3.18v7.43H259.6V99.08c0-.86-.08-2-1.24-2-1.85,0-1.9,2.06-1.9,3.41v7.2H255V96h1.53v1a3.17,3.17,0,0,1,2.3-1.14A2.31,2.31,0,0,1,261,97.24a2.89,2.89,0,0,1,2.44-1.35c1.9,0,2.4,1.22,2.4,2.88Z" transform="translate(0 0)"/>
  <path class="cls-2" d="M274.57,107.65v-19h1.5v19Z" transform="translate(0 0)"/>
  <path class="cls-2" d="M284.69,103.7c-.08,1.87-.66,4.13-3,4.13-3,0-3.44-3.71-3.44-6s.45-6,3.33-6,3.2,3.51,3.2,5.56v.73h-5v.26c0,1.17.18,4.06,1.87,4.06,1.32,0,1.51-1.77,1.54-2.76Zm-1.37-2.81c-.05-1-.19-3.69-1.69-3.69s-1.78,2.63-1.83,3.69Z" transform="translate(0 0)"/>
  <path class="cls-2" d="M291.5,98.4a2.8,2.8,0,0,0-2-1.2A1.46,1.46,0,0,0,288,98.66v.07c0,2.27,3.81,2.68,3.81,5.83a3.16,3.16,0,0,1-3.05,3.27h-.12a3.68,3.68,0,0,1-2.2-.8v-1.72a3,3,0,0,0,2,1.19,1.7,1.7,0,0,0,1.72-1.7v-.1c0-2.29-3.81-3.07-3.81-5.87a2.84,2.84,0,0,1,2.74-2.94h.2a3.5,3.5,0,0,1,2.11.75Z" transform="translate(0 0)"/>
  <path class="cls-2" d="M298,98.4a2.72,2.72,0,0,0-2-1.2,1.47,1.47,0,0,0-1.46,1.48v0c0,2.27,3.81,2.68,3.81,5.83a3.15,3.15,0,0,1-3,3.27h-.14a3.68,3.68,0,0,1-2.2-.8v-1.72a3,3,0,0,0,2.09,1.15,1.7,1.7,0,0,0,1.72-1.7v-.1c0-2.29-3.81-3.07-3.81-5.87a2.84,2.84,0,0,1,2.74-2.94h.2a3.5,3.5,0,0,1,2.11.75Z" transform="translate(0 0)"/>
  <path class="cls-2" d="M308.25,97.38v10.27h-1.48V97.38H305.5V96h1.27v-3.3h1.48V96h2v1.35Z" transform="translate(0 0)"/>
  <path class="cls-2" d="M314.57,107.83c-3,0-3.46-3.74-3.46-6s.42-6,3.46-6,3.31,3.82,3.31,6.06S317.61,107.83,314.57,107.83Zm0-10.63c-1.82,0-1.87,3.54-1.87,4.76s.08,4.5,1.87,4.5,1.8-3.46,1.8-4.63-.08-4.63-1.87-4.63Z" transform="translate(0 0)"/>
  <path class="cls-2" d="M337,107.65h-1.48v-8.6c0-1-.15-2-1.37-2-1.72,0-1.8,1.9-1.8,3.18v7.43h-1.51V99.08c0-.86-.08-2-1.24-2-1.85,0-1.9,2.06-1.9,3.41v7.2h-1.48V96h1.48v1a3.17,3.17,0,0,1,2.3-1.14,2.33,2.33,0,0,1,2.17,1.35,2.86,2.86,0,0,1,2.43-1.35c1.9,0,2.4,1.22,2.4,2.88Z" transform="translate(0 0)"/>
  <path class="cls-2" d="M342.7,107.83c-3,0-3.46-3.74-3.46-6s.42-6,3.46-6,3.31,3.82,3.31,6.06S345.74,107.83,342.7,107.83Zm0-10.63c-1.83,0-1.88,3.54-1.88,4.76s.08,4.5,1.88,4.5,1.79-3.46,1.79-4.63-.07-4.63-1.81-4.63Z" transform="translate(0 0)"/>
  <path class="cls-2" d="M351.72,97.5c-2,0-2,1.56-2,3.07v7h-1.48V96h1.48V97.5a2.41,2.41,0,0,1,2-1.69Z" transform="translate(0 0)"/>
  <path class="cls-2" d="M359.2,103.7c-.08,1.87-.66,4.13-3,4.13-3,0-3.43-3.71-3.43-6s.44-6,3.33-6,3.2,3.51,3.2,5.56v.73h-5v.26c0,1.17.19,4.06,1.88,4.06,1.32,0,1.51-1.77,1.53-2.76Zm-1.37-2.81c-.06-1-.19-3.69-1.7-3.69s-1.77,2.63-1.82,3.69Z" transform="translate(0 0)"/>
  <path class="cls-2" d="M34.36,128.74c-2,0-2,1.56-2,3.07v7H30.87V127.23h1.48v1.51a2.43,2.43,0,0,1,2-1.69Z" transform="translate(0 0)"/>
  <path class="cls-2" d="M41.85,134.9c-.08,1.87-.67,4.13-3,4.13-3,0-3.44-3.72-3.44-5.95s.45-6,3.33-6,3.2,3.51,3.2,5.56v.73h-5v.26c0,1.17.18,4.05,1.87,4.05,1.33,0,1.51-1.76,1.54-2.75Zm-1.35-2.81c0-1-.18-3.69-1.69-3.69S37,131,37,132.09Z" transform="translate(0 0)"/>
  <path class="cls-2" d="M44.15,138.85V119.9h1.5v18.95Z" transform="translate(0 0)"/>
  <path class="cls-2" d="M49,124.65a1.09,1.09,0,1,1,1.08-1.1v0A1.07,1.07,0,0,1,49,124.65Zm-.77,14.2V127.23h1.51v11.62Z" transform="translate(0 0)"/>
  <path class="cls-2" d="M56.89,138.85v-.93a2.34,2.34,0,0,1-2,1.11c-2.7,0-2.78-3.72-2.78-5.77,0-2.37.08-6.21,2.91-6.21a2.19,2.19,0,0,1,1.88,1v-.78h1.51v11.62Zm-1.51-10.63c-1.72,0-1.74,3-1.74,4.13s0,1.87.08,2.81.26,2.68,1.64,2.68a1.21,1.21,0,0,0,1-.39c.74-.73.74-3.46.74-4.48C57.05,130.66,56.92,128.22,55.38,128.22Z" transform="translate(0 0)"/>
  <path class="cls-2" d="M62.5,128a2.21,2.21,0,0,1,1.91-1c2.88,0,2.9,3.69,2.9,5.77,0,2.49-.08,6.21-2.77,6.21a2.49,2.49,0,0,1-2-1.11v.93H61.06V119.9H62.5Zm1.54.21c-1.54,0-1.67,2.44-1.67,4.75,0,1,0,3.75.74,4.48a1.18,1.18,0,0,0,1,.39c1.38,0,1.54-1.67,1.64-2.68a25.62,25.62,0,0,0,.08-2.73c0-1.17-.06-4.21-1.77-4.21Z" transform="translate(0 0)"/>
  <path class="cls-2" d="M69.5,138.85V119.9H71v18.95Z" transform="translate(0 0)"/>
  <path class="cls-2" d="M79.65,134.9c-.07,1.87-.66,4.13-3,4.13-3,0-3.44-3.72-3.44-5.95s.45-6,3.33-6,3.2,3.51,3.2,5.56v.73h-5v.26c0,1.17.18,4.05,1.87,4.05,1.33,0,1.51-1.76,1.54-2.75Zm-1.37-2.81c0-1-.19-3.69-1.69-3.69s-1.77,2.62-1.83,3.69Z" transform="translate(0 0)"/>
  <path class="cls-2" d="M83,139a1.2,1.2,0,0,1-1.19-1.17A1.19,1.19,0,1,1,83,139Z" transform="translate(0 0)"/>
  <path class="cls-2" d="M36.66,170.05v-8.94h-4v8.94H31V152.71h1.64v6.91h4v-6.91H38.3v17.34Z" transform="translate(0 0)"/>
  <path class="cls-2" d="M44.07,170.23c-3,0-3.47-3.74-3.47-6s.43-6,3.47-6,3.3,3.82,3.3,6.06S47.11,170.23,44.07,170.23Zm0-10.63c-1.82,0-1.88,3.54-1.88,4.76s.08,4.49,1.88,4.49,1.8-3.45,1.8-4.62-.08-4.63-1.83-4.63Z" transform="translate(0 0)"/>
  <path class="cls-2" d="M52.61,170.05H51L48.3,158.43h1.53l1.56,6.94c.18.83.32,1.66.42,2.5.14-.81.27-1.64.43-2.45l1.45-7h1.53Z" transform="translate(0 0)"/>
  <path class="cls-2" d="M62.5,166.1c-.08,1.87-.66,4.13-3,4.13-3,0-3.43-3.71-3.43-5.95s.45-6,3.33-6,3.2,3.51,3.2,5.56v.73h-5v.26c0,1.17.19,4,1.88,4,1.32,0,1.51-1.76,1.53-2.75Zm-1.37-2.81c-.06-1-.19-3.69-1.7-3.69s-1.77,2.62-1.82,3.69Z" transform="translate(0 0)"/>
  <path class="cls-2" d="M68.31,159.94c-2,0-2,1.56-2,3.07v7H64.83V158.43h1.48v1.51a2.43,2.43,0,0,1,2-1.69Z" transform="translate(0 0)"/>
  <path class="cls-2" d="M79.15,170.23c-3,0-3.46-3.74-3.46-6s.42-6,3.46-6,3.31,3.82,3.31,6.06S82.19,170.23,79.15,170.23Zm0-10.63c-1.82,0-1.87,3.54-1.87,4.76s.08,4.49,1.87,4.49,1.8-3.45,1.8-4.62-.08-4.63-1.83-4.63Z" transform="translate(0 0)"/>
  <path class="cls-2" d="M87.69,170.05H86.08l-2.7-11.62h1.54l1.56,6.94c.18.83.31,1.66.42,2.5.13-.81.26-1.64.42-2.45l1.46-7h1.53Z" transform="translate(0 0)"/>
  <path class="cls-2" d="M97.61,166.1c-.08,1.87-.66,4.13-3,4.13-3,0-3.44-3.71-3.44-5.95s.45-6,3.33-6,3.2,3.51,3.2,5.56v.73h-5v.26c0,1.17.18,4,1.88,4,1.32,0,1.5-1.76,1.53-2.75Zm-1.38-2.81c0-1-.18-3.69-1.69-3.69s-1.77,2.62-1.82,3.69Z" transform="translate(0 0)"/>
  <path class="cls-2" d="M103.4,159.94c-2,0-2,1.56-2,3.07v7H99.92V158.43h1.48v1.51a2.41,2.41,0,0,1,2-1.69Z" transform="translate(0 0)"/>
  <path class="cls-2" d="M113.15,159.78v10.27h-1.48V159.78H110.4v-1.35h1.27v-3.3h1.48v3.3h2v1.35Z" transform="translate(0 0)"/>
  <path class="cls-2" d="M121.08,170.05V161.6c0-.94,0-2.16-1.32-2.16a1.69,1.69,0,0,0-1.4.76,3.48,3.48,0,0,0-.4,2V170H116.5V151H118v8.26a3.14,3.14,0,0,1,2.31-1.11c1.93,0,2.3,1.35,2.3,3V170Z" transform="translate(0 0)"/>
  <path class="cls-2" d="M130.9,166.1c-.08,1.87-.67,4.13-3,4.13-3,0-3.44-3.71-3.44-5.95s.45-6,3.33-6,3.2,3.51,3.2,5.56v.73h-5v.26c0,1.17.18,4,1.87,4,1.33,0,1.51-1.76,1.54-2.75Zm-1.4-2.81c-.05-1-.19-3.69-1.69-3.69s-1.77,2.62-1.83,3.69Z" transform="translate(0 0)"/>
  <path class="cls-2" d="M143.85,170.05v-.94a2.3,2.3,0,0,1-2,1.12c-2.7,0-2.78-3.71-2.78-5.77,0-2.36.08-6.21,2.91-6.21a2.19,2.19,0,0,1,1.88,1v-.78h1.51v11.62Zm-1.51-10.63c-1.72,0-1.74,3-1.74,4.13s0,1.87.08,2.81.26,2.68,1.64,2.68a1.21,1.21,0,0,0,1-.39c.74-.73.74-3.46.74-4.47-.05-2.32-.18-4.76-1.72-4.76Z" transform="translate(0 0)"/>
  <path class="cls-2" d="M151.5,159.94c-2,0-2,1.56-2,3.07v7H148V158.43h1.5v1.51a2.43,2.43,0,0,1,2-1.69Z" transform="translate(0 0)"/>
  <path class="cls-2" d="M159,166.1c-.08,1.87-.66,4.13-3,4.13-3.05,0-3.44-3.71-3.44-5.95s.45-6,3.33-6,3.2,3.51,3.2,5.56v.73h-5v.26c0,1.17.19,4,1.88,4,1.32,0,1.51-1.76,1.54-2.75Zm-1.37-2.81c-.06-1-.19-3.69-1.69-3.69s-1.78,2.62-1.83,3.69Z" transform="translate(0 0)"/>
  <path class="cls-2" d="M165.77,170.05v-.94a2.32,2.32,0,0,1-2,1.12c-2.7,0-2.78-3.71-2.78-5.77,0-2.36.08-6.21,2.91-6.21a2.19,2.19,0,0,1,1.88,1v-.78h1.51v11.62Zm-1.51-10.63c-1.72,0-1.74,3-1.74,4.13s0,1.87.07,2.81.27,2.68,1.64,2.68a1.22,1.22,0,0,0,1-.39c.74-.73.74-3.46.74-4.47,0-2.32-.18-4.76-1.71-4.76Z" transform="translate(0 0)"/>
  <path class="cls-2" d="M183.4,156.63a4,4,0,0,0-2.51-1.11,1.62,1.62,0,0,0-1.74,1.49v.2c0,3,5.29,2.93,5.29,7.77,0,3-1.83,5.36-5,5.36a5.49,5.49,0,0,1-3-.89v-3.27a4.66,4.66,0,0,0,2.59.93,1.88,1.88,0,0,0,2.05-1.69,1.77,1.77,0,0,0,0-.23,1.93,1.93,0,0,0-.18-.88,5.64,5.64,0,0,0-1.88-1.62c-2-1.35-3.25-2.6-3.25-5.12,0-2.73,1.61-5.12,4.6-5.12a5.88,5.88,0,0,1,3.09.83Z" transform="translate(0 0)"/>
  <path class="cls-2" d="M194.43,166.28a3.59,3.59,0,0,1-.56,2.21,4.35,4.35,0,0,1-3.62,1.8,4.26,4.26,0,0,1-3.62-1.82,3.58,3.58,0,0,1-.48-2v-8h3.35v7.15c0,.57,0,1.69.82,1.69,1,0,.82-1.56.82-2.18v-6.66h3.33Z" transform="translate(0 0)"/>
  <path class="cls-2" d="M199.85,159.86a2.47,2.47,0,0,1,2.22-1.64c2.78,0,3.17,3.95,3.17,6s-.47,6.09-3.2,6.09a2.54,2.54,0,0,1-2.19-1.57v1.33H196.5v-19h3.31Zm.87,1.27c-1,0-1.11,2.42-1.11,3.12s.08,3.12,1.14,3.12,1.16-2.39,1.16-3.12S201.83,161.13,200.72,161.13Z" transform="translate(0 0)"/>
  <path class="cls-2" d="M208.73,156.69a2.06,2.06,0,1,1,2.09-2.06,2.06,2.06,0,0,1-2.09,2.06Zm-1.66,18.72v-17h3.3v17Z" transform="translate(0 0)"/>
  <path class="cls-2" d="M220.37,166.05a5.24,5.24,0,0,1-1.27,3.33,3.38,3.38,0,0,1-2.57.91,3.7,3.7,0,0,1-2.83-1,6.41,6.41,0,0,1-1.61-4.71,7.46,7.46,0,0,1,1.72-5.25,3.69,3.69,0,0,1,2.7-1.07,3.49,3.49,0,0,1,2.53.94,6.38,6.38,0,0,1,1.54,4.52,8.74,8.74,0,0,1-.08,1.14h-5.24v.65a3.38,3.38,0,0,0,.47,2.06.91.91,0,0,0,.69.31,1,1,0,0,0,.66-.21,2.7,2.7,0,0,0,.5-1.58Zm-2.67-3.23a2.9,2.9,0,0,0-.53-1.89,1,1,0,0,0-.61-.24,1,1,0,0,0-.74.31,3.1,3.1,0,0,0-.5,1.82Z" transform="translate(0 0)"/>
  <path class="cls-2" d="M228.17,169.87a4.37,4.37,0,0,1-1.88.42c-3.18,0-4.31-3.28-4.31-5.91,0-2.83,1.08-6.19,4.52-6.19a4.19,4.19,0,0,1,1.67.34v2.86a1.29,1.29,0,0,0-.93-.39c-1.59,0-1.93,1.95-1.93,3.15s.26,3.09,1.88,3.09a1.72,1.72,0,0,0,1-.34Z" transform="translate(0 0)"/>
  <path class="cls-2" d="M233.93,161.13v8.92h-3.31v-8.92H229.5v-2.7h1.13v-3.3h3.31v3.3h1.35v2.7Z" transform="translate(0 0)"/>
  <path class="cls-2" d="M238.11,156.69a2.06,2.06,0,1,1,2.09-2.06,2.06,2.06,0,0,1-2.09,2.06Zm-1.67,13.36V158.43h3.31v11.62Z" transform="translate(0 0)"/>
  <path class="cls-2" d="M247.12,170.05h-3l-3.38-11.62H244c.55,2.18,1.16,4.37,1.61,6.58.08-.5.24-1,.35-1.43l1.21-5.15h3.44Z" transform="translate(0 0)"/>
  <path class="cls-2" d="M259.15,166.05a5.24,5.24,0,0,1-1.27,3.33,3.37,3.37,0,0,1-2.56.91,3.7,3.7,0,0,1-2.83-1,6.41,6.41,0,0,1-1.61-4.71,7.46,7.46,0,0,1,1.72-5.25,3.65,3.65,0,0,1,2.69-1.07,3.51,3.51,0,0,1,2.54.94,6.42,6.42,0,0,1,1.54,4.52,8.74,8.74,0,0,1-.08,1.14h-5.24a3.53,3.53,0,0,0,0,.65,3.38,3.38,0,0,0,.45,2,.88.88,0,0,0,.69.31,1,1,0,0,0,.66-.21,2.77,2.77,0,0,0,.5-1.58Zm-2.65-3.23a2.9,2.9,0,0,0-.53-1.89,1,1,0,0,0-1.34.07,3.18,3.18,0,0,0-.51,1.82Z" transform="translate(0 0)"/>
  <path class="cls-2" d="M271.82,152.71a5.48,5.48,0,0,1,3,.57,5.13,5.13,0,0,1,2.4,4.58c0,3.64-2.61,5.33-6.1,5.07v7.12h-3.49V152.71Zm-.53,7.33c1.59,0,2.43-.55,2.43-2.21,0-1.38-.47-2.34-2-2.34h-.6V160Z" transform="translate(0 0)"/>
  <path class="cls-2" d="M286.23,166.05a5.24,5.24,0,0,1-1.27,3.33,3.38,3.38,0,0,1-2.57.91,3.7,3.7,0,0,1-2.83-1,6.41,6.41,0,0,1-1.61-4.71,7.46,7.46,0,0,1,1.72-5.25,3.69,3.69,0,0,1,2.7-1.07,3.55,3.55,0,0,1,2.54.94,6.42,6.42,0,0,1,1.53,4.52,8.74,8.74,0,0,1-.08,1.14h-5.24v.65a3.38,3.38,0,0,0,.47,2.06.91.91,0,0,0,.69.31,1,1,0,0,0,.66-.21,2.7,2.7,0,0,0,.5-1.58Zm-2.67-3.23a2.9,2.9,0,0,0-.53-1.89,1,1,0,0,0-.61-.24,1.13,1.13,0,0,0-.74.31,3.17,3.17,0,0,0-.5,1.82Z" transform="translate(0 0)"/>
  <path class="cls-2" d="M294.21,161.16h-.47c-2,0-2.25,1.09-2.25,2.78v6.16h-3.31V158.43h3.32v1.43a3.63,3.63,0,0,1,2.72-1.85Z" transform="translate(0 0)"/>
  <path class="cls-2" d="M301.32,169.87a4.16,4.16,0,0,1-1.87.42c-3.18,0-4.31-3.28-4.31-5.91,0-2.83,1.08-6.19,4.52-6.19a4.11,4.11,0,0,1,1.66.34v2.86a1.23,1.23,0,0,0-.92-.39c-1.59,0-1.93,1.95-1.93,3.15s.26,3.09,1.88,3.09a1.65,1.65,0,0,0,1-.34Z" transform="translate(0 0)"/>
  <path class="cls-2" d="M310.82,166.05a5.24,5.24,0,0,1-1.27,3.33,3.38,3.38,0,0,1-2.57.91,3.7,3.7,0,0,1-2.83-1,6.38,6.38,0,0,1-1.65-4.79,7.46,7.46,0,0,1,1.72-5.25,3.69,3.69,0,0,1,2.7-1.07,3.55,3.55,0,0,1,2.54.94,6.42,6.42,0,0,1,1.53,4.52,8.74,8.74,0,0,1-.08,1.14h-5.24v.65a3.38,3.38,0,0,0,.47,2.06.91.91,0,0,0,.69.31,1,1,0,0,0,.66-.21A2.7,2.7,0,0,0,308,166Zm-2.67-3.23a2.9,2.9,0,0,0-.53-1.89,1,1,0,0,0-.61-.24,1,1,0,0,0-.74.31,3.1,3.1,0,0,0-.5,1.82Z" transform="translate(0 0)"/>
  <path class="cls-2" d="M316.08,159.86a2.45,2.45,0,0,1,2.22-1.64c2.78,0,3.17,3.95,3.17,6s-.47,6.09-3.2,6.09a2.54,2.54,0,0,1-2.19-1.57v6.69h-3.31v-17h3.31Zm.87,1.27c-1,0-1.11,2.42-1.11,3.12s.08,3.12,1.14,3.12,1.16-2.39,1.16-3.12-.08-3.12-1.19-3.12Z" transform="translate(0 0)"/>
  <path class="cls-2" d="M326.87,161.13v8.92h-3.31v-8.92h-1.14v-2.7h1.14v-3.3h3.31v3.3h1.34v2.7Z" transform="translate(0 0)"/>
  <path class="cls-2" d="M331,156.69a2.06,2.06,0,1,1,2.09-2.06,2.06,2.06,0,0,1-2.09,2.06Zm-1.66,13.36V158.43h3.3v11.62Z" transform="translate(0 0)"/>
  <path class="cls-2" d="M338.92,170.29c-3.38,0-4.49-3.23-4.49-6s1.11-6,4.49-6,4.44,3.15,4.44,6S342.41,170.29,338.92,170.29Zm0-9.16c-1.08,0-1.16,2.37-1.16,3.12s.08,3.12,1.16,3.12S340,165,340,164.25s-.08-3.12-1.11-3.12Z" transform="translate(0 0)"/>
  <path class="cls-2" d="M350.13,170.05v-7.12c0-.52,0-1.46-.79-1.46-.95,0-.9,1.2-.9,1.85v6.73h-3.31V158.43h3.31v1.82a3.17,3.17,0,0,1,2.8-2c2,0,2.2,1.87,2.2,3.43v8.4Z" transform="translate(0 0)"/>
  <path class="cls-2" d="M34.42,187.11v3.69h3.2v3.3h-3.2v7.15H30.93V183.91h7v3.2Z" transform="translate(0 0)"/>
  <path class="cls-2" d="M44.73,201.25v-1.32a2.56,2.56,0,0,1-2.23,1.57c-2.72,0-3.2-4.11-3.2-6.09s.4-6,3.18-6a2.47,2.47,0,0,1,2.22,1.64v-1.43H48v11.62Zm-.9-8.92c-1.09,0-1.16,2.39-1.16,3.12s.07,3.12,1.19,3.12S45,196.16,45,195.45,44.89,192.33,43.83,192.33Z" transform="translate(0 0)"/>
  <path class="cls-2" d="M56,201.07a4.37,4.37,0,0,1-1.88.42c-3.17,0-4.31-3.28-4.31-5.91,0-2.83,1.09-6.19,4.53-6.19a4.11,4.11,0,0,1,1.66.34v2.86a1.23,1.23,0,0,0-.92-.39c-1.59,0-1.93,2-1.93,3.15s.26,3.09,1.87,3.09a1.65,1.65,0,0,0,1-.34Z" transform="translate(0 0)"/>
  <path class="cls-2" d="M59.3,187.89a2.06,2.06,0,1,1,2.08-2.06,2.06,2.06,0,0,1-2.08,2.06Zm-1.67,13.36V189.63h3.31v11.62Z" transform="translate(0 0)"/>
  <path class="cls-2" d="M68.07,201.25v-1.32a2.51,2.51,0,0,1-2.19,1.56c-2.72,0-3.2-4.11-3.2-6.09s.4-6,3.17-6A2.45,2.45,0,0,1,68.07,191v-1.43h3.31v11.62Zm-.89-8.92c-1.09,0-1.17,2.39-1.17,3.12s.08,3.12,1.19,3.12,1.11-2.41,1.11-3.12S68.23,192.33,67.18,192.33Z" transform="translate(0 0)"/>
  <path class="cls-2" d="M73.5,201.25V182.3h3.31v18.95Z" transform="translate(0 0)"/>
  <path class="cls-2" d="M92,201.25l-3.1-8v8H85.39V183.91h3.78a6.94,6.94,0,0,1,3.84.83A5,5,0,0,1,95.1,189a4.77,4.77,0,0,1-2.52,4.42l3.07,7.88Zm-3.1-9.88h.58a2.14,2.14,0,0,0,2.26-2,1.7,1.7,0,0,0,0-.39c0-1.41-.63-2.37-2.17-2.37h-.66Z" transform="translate(0 0)"/>
  <path class="cls-2" d="M105.06,197.25a5.24,5.24,0,0,1-1.27,3.33,3.37,3.37,0,0,1-2.56.91,3.7,3.7,0,0,1-2.83-1,6.41,6.41,0,0,1-1.61-4.71,7.45,7.45,0,0,1,1.71-5.28,3.65,3.65,0,0,1,2.69-1.07,3.51,3.51,0,0,1,2.54.94,6.42,6.42,0,0,1,1.53,4.52,8.72,8.72,0,0,1-.07,1.14H100a3.64,3.64,0,0,0,0,.66,3.42,3.42,0,0,0,.48,2,.88.88,0,0,0,.69.31,1,1,0,0,0,.66-.21,2.77,2.77,0,0,0,.5-1.58ZM102.39,194a2.9,2.9,0,0,0-.53-1.89,1,1,0,0,0-1.34.07A3.18,3.18,0,0,0,100,194Z" transform="translate(0 0)"/>
  <path class="cls-2" d="M112.86,201.07a4.3,4.3,0,0,1-1.87.42c-3.18,0-4.32-3.28-4.32-5.91,0-2.83,1.09-6.19,4.53-6.19a4.11,4.11,0,0,1,1.66.34v2.86a1.23,1.23,0,0,0-.92-.39c-1.59,0-1.93,2-1.93,3.15s.26,3.09,1.87,3.09a1.65,1.65,0,0,0,1-.34Z" transform="translate(0 0)"/>
  <path class="cls-2" d="M118.6,201.5c-3.38,0-4.5-3.23-4.5-6s1.12-6,4.5-6,4.44,3.15,4.44,6S122.09,201.5,118.6,201.5Zm0-9.16c-1.08,0-1.16,2.37-1.16,3.12s.08,3.12,1.16,3.12,1.11-2.41,1.11-3.12-.08-3.13-1.11-3.13Z" transform="translate(0 0)"/>
  <path class="cls-2" d="M133.3,202a5.37,5.37,0,0,1-.34,2.21,4.32,4.32,0,0,1-4.23,2.42c-2.83,0-3.94-1.64-4.16-4h2.93c.06.57.27,1.4,1.22,1.4,1.24,0,1.27-1.58,1.27-2.47V199.8c-.53.85-1.09,1.69-2.22,1.69-2.67,0-3.31-4-3.31-5.93s.4-6.14,3.18-6.14A2.68,2.68,0,0,1,130,191v-1.4h3.33ZM129,192.33c-1.11,0-1.19,2.34-1.19,3.1s.08,3.09,1.19,3.09,1.14-2.39,1.14-3.09S130,192.33,129,192.33Z" transform="translate(0 0)"/>
  <path class="cls-2" d="M140.41,201.25v-7.12c0-.52,0-1.46-.79-1.46-1,0-.9,1.2-.9,1.85v6.73h-3.3V189.63h3.3v1.87a3.17,3.17,0,0,1,2.8-2c2,0,2.2,1.87,2.2,3.43v8.4Z" transform="translate(0 0)"/>
  <path class="cls-2" d="M147.55,187.89a2.06,2.06,0,1,1,2.09-2.06,2.06,2.06,0,0,1-2.09,2.06Zm-1.67,13.36V189.63h3.31v11.62Z" transform="translate(0 0)"/>
  <path class="cls-2" d="M154.9,192.33v8.92h-3.3v-8.92h-1.1v-2.7h1.14v-3.3h3.3v3.3h1.35v2.7Z" transform="translate(0 0)"/>
  <path class="cls-2" d="M159.08,187.89a2.06,2.06,0,1,1,2.09-2.06,2.06,2.06,0,0,1-2.09,2.06Zm-1.67,13.36V189.63h3.31v11.62Z" transform="translate(0 0)"/>
  <path class="cls-2" d="M167,201.5c-3.39,0-4.5-3.23-4.5-6s1.11-6,4.5-6,4.44,3.15,4.44,6S170.5,201.5,167,201.5Zm0-9.16c-1.09,0-1.17,2.37-1.17,3.12s.08,3.12,1.17,3.12,1.11-2.41,1.11-3.12-.08-3.13-1.11-3.13Z" transform="translate(0 0)"/>
  <path class="cls-2" d="M178.17,201.25v-7.12c0-.52,0-1.46-.79-1.46-1,0-.9,1.2-.9,1.85v6.73h-3.31V189.63h3.33v1.87a3.14,3.14,0,0,1,2.8-2c2,0,2.19,1.87,2.19,3.43v8.4Z" transform="translate(0 0)"/>
  <path class="cls-2" d="M194.91,187.08v14.17h-3.49V187.08h-2.73v-3.17h8.94v3.17Z" transform="translate(0 0)"/>
  <path class="cls-2" d="M206,197.25a5.24,5.24,0,0,1-1.27,3.33,3.38,3.38,0,0,1-2.57.91,3.7,3.7,0,0,1-2.83-1,6.41,6.41,0,0,1-1.61-4.71,7.44,7.44,0,0,1,1.72-5.28,3.69,3.69,0,0,1,2.7-1.07,3.55,3.55,0,0,1,2.54.94,6.42,6.42,0,0,1,1.53,4.52,8.74,8.74,0,0,1-.08,1.14h-5.24v.66a3.41,3.41,0,0,0,.47,2,.91.91,0,0,0,.69.31,1,1,0,0,0,.66-.21,2.71,2.71,0,0,0,.51-1.58ZM203.29,194a2.9,2.9,0,0,0-.53-1.89,1,1,0,0,0-.61-.24,1.13,1.13,0,0,0-.74.31,3.17,3.17,0,0,0-.5,1.82Z" transform="translate(0 0)"/>
  <path class="cls-2" d="M213.76,201.07a4.37,4.37,0,0,1-1.88.42c-3.17,0-4.31-3.28-4.31-5.91,0-2.83,1.08-6.19,4.52-6.19a4.19,4.19,0,0,1,1.67.34v2.86a1.29,1.29,0,0,0-.93-.39c-1.58,0-1.93,2-1.93,3.15s.27,3.09,1.88,3.09a1.72,1.72,0,0,0,1-.34Z" transform="translate(0 0)"/>
  <path class="cls-2" d="M220.34,201.25v-7.12c0-.52,0-1.46-.79-1.46-1,0-.9,1.2-.9,1.85v6.73h-3.31V182.3h3.31v9.2a3.17,3.17,0,0,1,2.8-2c2,0,2.2,1.87,2.2,3.43v8.4Z" transform="translate(0 0)"/>
  <path class="cls-2" d="M230.76,201.25v-7.12c0-.52,0-1.46-.8-1.46-1,0-.89,1.2-.89,1.85v6.73h-3.31V189.63h3.31v1.87a3.14,3.14,0,0,1,2.8-2c2,0,2.19,1.87,2.19,3.43v8.4Z" transform="translate(0 0)"/>
  <path class="cls-2" d="M240.33,201.5c-3.39,0-4.5-3.23-4.5-6s1.11-6,4.5-6,4.44,3.15,4.44,6S243.82,201.5,240.33,201.5Zm0-9.16c-1.08,0-1.16,2.37-1.16,3.12s.08,3.12,1.16,3.12,1.11-2.41,1.11-3.12-.08-3.13-1.11-3.13Z" transform="translate(0 0)"/>
  <path class="cls-2" d="M246.5,201.25V182.3h3.31v18.95Z" transform="translate(0 0)"/>
  <path class="cls-2" d="M256.11,201.5c-3.38,0-4.49-3.23-4.49-6s1.11-6,4.49-6,4.45,3.15,4.45,6S259.6,201.5,256.11,201.5Zm0-9.16c-1.08,0-1.16,2.37-1.16,3.12s.08,3.12,1.16,3.12,1.11-2.41,1.11-3.12-.08-3.13-1.11-3.13Z" transform="translate(0 0)"/>
  <path class="cls-2" d="M270.81,202a5.21,5.21,0,0,1-.34,2.21,4.3,4.3,0,0,1-4.23,2.42c-2.83,0-3.94-1.64-4.15-4H265c.05.57.26,1.4,1.21,1.4,1.25,0,1.27-1.58,1.27-2.47V199.8c-.53.85-1.08,1.69-2.22,1.69-2.67,0-3.3-4-3.3-5.93s.39-6.14,3.17-6.14a2.68,2.68,0,0,1,2.35,1.61v-1.4h3.33Zm-4.31-9.65c-1.11,0-1.19,2.34-1.19,3.1s.08,3.07,1.19,3.07,1.14-2.39,1.14-3.09S267.5,192.33,266.5,192.33Z" transform="translate(0 0)"/>
  <path class="cls-2" d="M274.65,187.89a2.06,2.06,0,1,1,2.09-2.06,2.06,2.06,0,0,1-2.09,2.06ZM273,201.25V189.63h3.31v11.62Z" transform="translate(0 0)"/>
  <path class="cls-2" d="M286.28,197.25a5.24,5.24,0,0,1-1.27,3.33,3.37,3.37,0,0,1-2.51.92,3.7,3.7,0,0,1-2.83-1,6.42,6.42,0,0,1-1.62-4.71,7.48,7.48,0,0,1,1.72-5.25,3.69,3.69,0,0,1,2.7-1.07,3.55,3.55,0,0,1,2.54.94,6.42,6.42,0,0,1,1.53,4.52,7.28,7.28,0,0,1-.08,1.14h-5.23a3.64,3.64,0,0,0,0,.66,3.42,3.42,0,0,0,.48,2,.88.88,0,0,0,.69.31,1,1,0,0,0,.66-.21,2.77,2.77,0,0,0,.5-1.58ZM283.61,194a2.9,2.9,0,0,0-.53-1.89,1,1,0,0,0-.61-.24,1.13,1.13,0,0,0-.74.31,3.17,3.17,0,0,0-.5,1.82Z" transform="translate(0 0)"/>
  <path class="cls-2" d="M293.76,192.77a2.3,2.3,0,0,0-1.56-.77.79.79,0,0,0-.84.74v.09c0,1.4,3.7,1.11,3.7,4.63a3.68,3.68,0,0,1-3.73,4,5.76,5.76,0,0,1-3.59-1.33l1.45-2.31a2.57,2.57,0,0,0,1.61.72,1,1,0,0,0,1.06-.94v-.06c0-1.45-3.86-1.25-3.86-4.76,0-2.23,1.82-3.43,3.94-3.43a5,5,0,0,1,3.15,1Z" transform="translate(0 0)"/>
  <path class="cls-2" d="M304.92,191v10.27h-1.48V191h-1.27v-1.35h1.27v-3.3h1.48v3.3h2V191Z" transform="translate(0 0)"/>
  <path class="cls-2" d="M311.24,201.43c-3,0-3.46-3.74-3.46-6s.42-6,3.46-6,3.31,3.82,3.31,6.06S314.28,201.43,311.24,201.43Zm0-10.63c-1.82,0-1.87,3.54-1.87,4.76s.08,4.5,1.87,4.5,1.8-3.46,1.8-4.63-.08-4.63-1.83-4.63Z" transform="translate(0 0)"/>
  <path class="cls-2" d="M329,202.5c0,2.1-.82,3.4-3.09,3.4-2.06,0-3.07-1.27-3.07-3.22a1.62,1.62,0,0,1,0-.44h1.51c0,1.16.13,2.28,1.61,2.28s1.51-1.14,1.51-2.26v-1.87a2.35,2.35,0,0,1-1.88.83c-3,0-3-3.95-3-6.06,0-1.95.22-5.74,2.94-5.74a2.35,2.35,0,0,1,2,1v-.8h1.5Zm-3.14-11.89c-1.59,0-1.72,2.68-1.72,5.1,0,1.25,0,4.32,1.85,4.32,1.32,0,1.51-1.54,1.59-2.5s.08-1.87.08-2.81c0-1.22,0-4.08-1.8-4.08Z" transform="translate(0 0)"/>
  <path class="cls-2" d="M337.6,197.3c-.08,1.87-.66,4.13-3,4.13-3,0-3.43-3.71-3.43-6s.44-6,3.33-6,3.2,3.51,3.2,5.56v.73h-5V196c0,1.17.19,4.06,1.88,4.06,1.32,0,1.51-1.77,1.53-2.76Zm-1.37-2.8c-.06-1-.19-3.69-1.7-3.69s-1.77,2.63-1.82,3.69Z" transform="translate(0 0)"/>
  <path class="cls-2" d="M341.83,191v10.27h-1.48V191h-1.27v-1.35h1.27v-3.3h1.48v3.3h2V191Z" transform="translate(0 0)"/>
  <path class="cls-2" d="M41.66,232.5H40.18v-8.6c0-1-.16-2-1.37-2-1.72,0-1.8,1.9-1.8,3.18v7.42H35.5v-8.58c0-.86-.08-2-1.24-2-1.85,0-1.91,2.06-1.91,3.41v7.17H30.87V220.83h1.48v1a3.17,3.17,0,0,1,2.3-1.14A2.3,2.3,0,0,1,36.82,222a2.86,2.86,0,0,1,2.43-1.35c1.91,0,2.41,1.22,2.41,2.88Z" transform="translate(0 0)"/>
  <path class="cls-2" d="M47.32,232.63c-3,0-3.47-3.74-3.47-6s.43-6,3.47-6,3.3,3.82,3.3,6.06S50.36,232.63,47.32,232.63Zm0-10.63c-1.82,0-1.88,3.54-1.88,4.76s.08,4.5,1.88,4.5,1.8-3.46,1.8-4.63S49,222,47.29,222Z" transform="translate(0 0)"/>
  <path class="cls-2" d="M56.33,222.34c-2,0-2,1.56-2,3.07v7H52.84V220.83h1.49v1.51a2.41,2.41,0,0,1,2-1.69Z" transform="translate(0 0)"/>
  <path class="cls-2" d="M63.82,228.5c-.08,1.87-.66,4.13-3,4.13-3,0-3.44-3.71-3.44-5.95s.45-6,3.33-6,3.2,3.51,3.2,5.56V227h-5v.26c0,1.17.18,4.06,1.88,4.06,1.32,0,1.5-1.77,1.53-2.76Zm-1.38-2.81c0-1-.18-3.69-1.69-3.69s-1.77,2.63-1.82,3.69Z" transform="translate(0 0)"/>
  <path class="cls-2" d="M73,218.26a1.11,1.11,0,0,1-1.11-1.07A1.09,1.09,0,0,1,73,216.07h0a1.1,1.1,0,0,1,1.08,1.12h0A1.09,1.09,0,0,1,73,218.26Zm-.77,14.24V220.83h1.51V232.5Z" transform="translate(0 0)"/>
  <path class="cls-2" d="M81,232.5V224c0-.94,0-2.16-1.33-2.16a1.69,1.69,0,0,0-1.4.76,3.57,3.57,0,0,0-.39,2v7.9H76.38V220.83h1.48v.94a3.08,3.08,0,0,1,2.3-1.12c2,0,2.3,1.61,2.3,3.2v8.65Z" transform="translate(0 0)"/>
  <path class="cls-2" d="M87,222.18V232.5H85.55V222.18H84.2v-1.35h1.35v-4.65c0-1.49.4-3,2.19-3a3.54,3.54,0,0,1,1.33.26v1.61a1.75,1.75,0,0,0-1.09-.52c-.87,0-1,.78-1,1.43v4.84h2v1.35Z" transform="translate(0 0)"/>
  <path class="cls-2" d="M93.5,232.63c-3,0-3.47-3.74-3.47-6s.42-6,3.47-6,3.3,3.82,3.3,6.06S96.5,232.63,93.5,232.63Zm0-10.63c-1.83,0-1.88,3.54-1.88,4.76s.08,4.5,1.88,4.5,1.8-3.46,1.8-4.63S95.17,222,93.43,222Z" transform="translate(0 0)"/>
  <path class="cls-2" d="M102.5,222.34c-2,0-2,1.56-2,3.07v7H99V220.83h1.48v1.51a2.43,2.43,0,0,1,2-1.69Z" transform="translate(0 0)"/>
  <path class="cls-2" d="M114.9,232.5h-1.48v-8.6c0-1-.16-2-1.38-2-1.71,0-1.79,1.9-1.79,3.18v7.42h-1.51v-8.58c0-.86-.08-2-1.24-2-1.86,0-1.91,2.06-1.91,3.41v7.17h-1.48V220.83h1.48v1a3.17,3.17,0,0,1,2.3-1.14,2.3,2.3,0,0,1,2.17,1.35,2.86,2.86,0,0,1,2.43-1.35c1.91,0,2.41,1.22,2.41,2.88Z" transform="translate(0 0)"/>
  <path class="cls-2" d="M122,232.5v-1a2.36,2.36,0,0,1-2,1.11c-2.7,0-2.78-3.71-2.78-5.77,0-2.36.08-6.21,2.91-6.21a2.19,2.19,0,0,1,1.88,1v-.78h1.45V232.5Zm-1.54-10.68c-1.72,0-1.74,3-1.74,4.13s0,1.87.07,2.81.27,2.68,1.64,2.68a1.22,1.22,0,0,0,1-.39c.74-.73.74-3.46.74-4.47C122.2,224.26,122.06,221.82,120.5,221.82Z" transform="translate(0 0)"/>
  <path class="cls-2" d="M128.12,222.18V232.5h-1.48V222.18h-1.27v-1.35h1.27V217.5h1.48v3.3h2v1.35Z" transform="translate(0 0)"/>
  <path class="cls-2" d="M132.19,218.26a1.11,1.11,0,0,1-1.11-1.07,1.09,1.09,0,0,1,1.06-1.12h.05a1.1,1.1,0,0,1,1.08,1.12h0A1.09,1.09,0,0,1,132.19,218.26Zm-.77,14.24V220.83h1.51V232.5Z" transform="translate(0 0)"/>
  <path class="cls-2" d="M138.56,232.63c-3,0-3.46-3.74-3.46-6s.42-6,3.46-6,3.31,3.82,3.31,6.06S141.6,232.63,138.56,232.63Zm0-10.63c-1.83,0-1.88,3.54-1.88,4.76s.08,4.5,1.88,4.5,1.79-3.46,1.79-4.63-.07-4.63-1.85-4.63Z" transform="translate(0 0)"/>
  <path class="cls-2" d="M148.69,232.5V224c0-.94,0-2.16-1.32-2.16a1.69,1.69,0,0,0-1.41.76,3.57,3.57,0,0,0-.39,2v7.9h-1.48V220.83h1.48v.94a3.08,3.08,0,0,1,2.3-1.12c2,0,2.3,1.61,2.3,3.2v8.65Z" transform="translate(0 0)"/>
  <path class="cls-2" d="M162,232.63c-3,0-3.47-3.74-3.47-6s.43-6,3.47-6,3.3,3.82,3.3,6.06S165,232.63,162,232.63ZM162,222c-1.82,0-1.88,3.54-1.88,4.76s.08,4.5,1.88,4.5,1.8-3.46,1.8-4.63S163.71,222,162,222Z" transform="translate(0 0)"/>
  <path class="cls-2" d="M172.12,232.5V224c0-.94,0-2.16-1.33-2.16a1.69,1.69,0,0,0-1.4.76,3.48,3.48,0,0,0-.4,2v7.9H167.5V220.83H169v.94a3.08,3.08,0,0,1,2.3-1.12c2,0,2.31,1.61,2.31,3.2v8.65Z" transform="translate(0 0)"/>
  <path class="cls-2" d="M184.33,222.18V232.5h-1.48V222.18h-1.27v-1.35h1.27V217.5h1.48v3.3h2v1.35Z" transform="translate(0 0)"/>
  <path class="cls-2" d="M192.26,232.5V224c0-.94,0-2.16-1.32-2.16a1.65,1.65,0,0,0-1.4.76,3.56,3.56,0,0,0-.4,2v7.9h-1.48v-19h1.48v8.27a3.08,3.08,0,0,1,2.3-1.12c1.93,0,2.3,1.35,2.3,3v8.85Z" transform="translate(0 0)"/>
  <path class="cls-2" d="M202.07,228.5c-.08,1.87-.66,4.13-3,4.13-3,0-3.43-3.71-3.43-5.95s.44-6,3.33-6,3.2,3.51,3.2,5.56V227h-5v.26c0,1.17.19,4.06,1.88,4.06,1.32,0,1.51-1.77,1.53-2.76Zm-1.37-2.81c-.06-1-.19-3.69-1.7-3.69s-1.77,2.63-1.82,3.69Z" transform="translate(0 0)"/>
  <path class="cls-2" d="M212.5,222.18V232.5H211V222.18h-1.35v-1.35H211v-4.65c0-1.49.4-3,2.19-3a3.4,3.4,0,0,1,1.29.32v1.61a1.75,1.75,0,0,0-1.09-.52c-.87,0-1,.78-1,1.43v4.84h2v1.35Z" transform="translate(0 0)"/>
  <path class="cls-2" d="M220.42,232.5v-1a2.36,2.36,0,0,1-2,1.11c-2.7,0-2.78-3.71-2.78-5.77,0-2.36.08-6.21,2.91-6.21a2.19,2.19,0,0,1,1.88,1v-.78h1.51V232.5Zm-1.51-10.63c-1.72,0-1.74,3-1.74,4.13s0,1.87.08,2.81.26,2.68,1.64,2.68a1.21,1.21,0,0,0,1-.39c.74-.73.74-3.46.74-4.47,0-2.37-.08-4.81-1.67-4.81Z" transform="translate(0 0)"/>
  <path class="cls-2" d="M229.22,232a2.89,2.89,0,0,1-1.69.59c-2.78,0-3.41-3.71-3.41-5.79s.48-6.19,3.49-6.19a3.14,3.14,0,0,1,1.61.44v1.72a2.07,2.07,0,0,0-1.48-.81c-1.87,0-2.06,3.41-2.06,4.71s.24,4.55,2,4.55a2,2,0,0,0,1.5-1Z" transform="translate(0 0)"/>
  <path class="cls-2" d="M233,222.18V232.5h-1.5V222.18h-1.27v-1.35h1.27V217.5H233v3.3h2v1.35Z" transform="translate(0 0)"/>
  <path class="cls-2" d="M239.32,232.63c-3,0-3.46-3.74-3.46-6s.42-6,3.46-6,3.31,3.82,3.31,6.06S242.36,232.63,239.32,232.63Zm0-10.63c-1.83,0-1.88,3.54-1.88,4.76s.08,4.5,1.88,4.5,1.79-3.46,1.79-4.63S241,222,239.3,222Z" transform="translate(0 0)"/>
  <path class="cls-2" d="M248.34,222.34c-2,0-2,1.56-2,3.07v7h-1.48V220.83h1.48v1.51a2.43,2.43,0,0,1,2-1.69Z" transform="translate(0 0)"/>
  <path class="cls-2" d="M254.5,223.19a2.79,2.79,0,0,0-2-1.19,1.47,1.47,0,0,0-1.46,1.48v.05c0,2.27,3.81,2.68,3.81,5.83a3.15,3.15,0,0,1-3,3.27h-.14a3.68,3.68,0,0,1-2.2-.8v-1.72a3,3,0,0,0,2.09,1.15,1.7,1.7,0,0,0,1.72-1.7v-.1c0-2.29-3.81-3.07-3.81-5.87a2.84,2.84,0,0,1,2.74-2.94h.2a3.5,3.5,0,0,1,2.11.75Z" transform="translate(0 0)"/>
  <path class="cls-2" d="M264.23,221.61a2.21,2.21,0,0,1,1.9-1c2.88,0,2.91,3.69,2.91,5.77,0,2.5-.08,6.21-2.78,6.21a2.47,2.47,0,0,1-2-1.11v1h-1.48v-19h1.48Zm1.53.21c-1.53,0-1.66,2.44-1.66,4.76,0,1,0,3.74.74,4.47a1.18,1.18,0,0,0,1,.39c1.37,0,1.53-1.67,1.64-2.68a23.23,23.23,0,0,0,.08-2.73C267.5,224.86,267.5,221.82,265.76,221.82Z" transform="translate(0 0)"/>
  <path class="cls-2" d="M277.21,228.5c-.08,1.87-.66,4.13-3,4.13-3,0-3.43-3.71-3.43-5.95s.45-6,3.33-6,3.2,3.51,3.2,5.56V227h-5v.26c0,1.17.19,4.06,1.88,4.06,1.32,0,1.51-1.77,1.53-2.76Zm-1.37-2.81c-.06-1-.19-3.69-1.7-3.69s-1.77,2.63-1.82,3.69Z" transform="translate(0 0)"/>
  <path class="cls-2" d="M284.11,232.5V224c0-.94,0-2.16-1.32-2.16a1.65,1.65,0,0,0-1.4.76,3.56,3.56,0,0,0-.4,2v7.9H279.5v-19H281v8.27a3.08,3.08,0,0,1,2.3-1.12c1.93,0,2.3,1.35,2.3,3v8.85Z" transform="translate(0 0)"/>
  <path class="cls-2" d="M289,218.26a1.11,1.11,0,0,1-1.11-1.07,1.09,1.09,0,0,1,1.06-1.12H289a1.1,1.1,0,0,1,0,2.19Zm-.77,14.24V220.83h1.51V232.5Z" transform="translate(0 0)"/>
  <path class="cls-2" d="M296.94,232.5V224c0-.94,0-2.16-1.33-2.16a1.69,1.69,0,0,0-1.4.76,3.48,3.48,0,0,0-.4,2v7.9h-1.48V220.83h1.48v.94a3.08,3.08,0,0,1,2.31-1.12c2,0,2.3,1.61,2.3,3.2v8.65Z" transform="translate(0 0)"/>
  <path class="cls-2" d="M305.42,232.5v-1a2.36,2.36,0,0,1-2,1.11c-2.73,0-2.78-3.87-2.78-5.9,0-2.26,0-6.08,2.93-6.08a2.19,2.19,0,0,1,1.88,1V213.5h1.48v19Zm-1.53-10.63c-1.69,0-1.72,3-1.72,4.13s0,1.87.08,2.81.24,2.68,1.61,2.68a1.25,1.25,0,0,0,1-.39c.71-.7.71-3.43.71-4.4,0-2.49-.15-4.88-1.68-4.88Z" transform="translate(0 0)"/>
  <path class="cls-2" d="M309.57,232.68a1.19,1.19,0,1,1,1.19-1.21,1.19,1.19,0,0,1-1.17,1.21Z" transform="translate(0 0)"/>
</svg>
