<svg id="Ebene_1" data-name="Ebene 1" xmlns="http://www.w3.org/2000/svg" width="344.31" height="137.5" viewBox="0 0 344.31 137.5">
  <defs>
    <style>
      .cls-1 {
        fill: none;
        stroke: aqua;
        stroke-width: 8px;
      }

      .cls-2 {
        fill: #f6f6f6;
      }
    </style>
  </defs>
  <g id="Gruppe_432" data-name="Gruppe 432">
    <g id="Gruppe_430" data-name="Gruppe 430">
      <g id="Gruppe_93" data-name="Gruppe 93">
        <path id="Pfad_50-2" data-name="Pfad 50-2" class="cls-1" d="M340.31,48.35V4h-68.2" transform="translate(0 0)"/>
        <path id="Pfad_51-2" data-name="Pfad 51-2" class="cls-1" d="M340.31,89.15V133.5h-68.2" transform="translate(0 0)"/>
        <path id="Pfad_52-2" data-name="Pfad 52-2" class="cls-1" d="M4,48.35V4H72.2" transform="translate(0 0)"/>
        <path id="Pfad_53-2" data-name="Pfad 53-2" class="cls-1" d="M4,89.15V133.5H72.2" transform="translate(0 0)"/>
      </g>
    </g>
  </g>
  <path class="cls-2" d="M31,45.25V27.91h1.64V45.25Z" transform="translate(0 0)"/>
  <path class="cls-2" d="M40,45.25V36.8c0-.93,0-2.16-1.32-2.16a1.69,1.69,0,0,0-1.4.76,3.48,3.48,0,0,0-.4,2v7.82H35.39V33.63h1.48v.94a3.13,3.13,0,0,1,2.3-1.07c2,0,2.31,1.61,2.31,3.2v8.6Z" transform="translate(0 0)"/>
  <path class="cls-2" d="M48.77,44.84a2.89,2.89,0,0,1-1.69.59c-2.78,0-3.41-3.71-3.41-5.79s.48-6.19,3.49-6.19a3.14,3.14,0,0,1,1.61.44v1.72a2.07,2.07,0,0,0-1.48-.81c-1.88,0-2.06,3.41-2.06,4.71s.24,4.55,2,4.55a2,2,0,0,0,1.5-1Z" transform="translate(0 0)"/>
  <path class="cls-2" d="M50.62,45.25v-19h1.51v19Z" transform="translate(0 0)"/>
  <path class="cls-2" d="M60.91,42.42a3.07,3.07,0,1,1-6.14,0V33.63h1.48V41.5c0,1.19.06,2.55,1.64,2.55s1.54-1.56,1.54-2.71V33.63h1.48Z" transform="translate(0 0)"/>
  <path class="cls-2" d="M67.91,45.25v-.93a2.36,2.36,0,0,1-2,1.11c-2.73,0-2.78-3.87-2.78-5.9,0-2.26,0-6.08,2.94-6.08a2.18,2.18,0,0,1,1.87,1V26.3h1.49v19ZM66.38,34.62c-1.69,0-1.72,3-1.72,4.13s0,1.87.08,2.81.24,2.68,1.61,2.68a1.25,1.25,0,0,0,1-.39c.72-.7.72-3.43.72-4.4C68.05,37,67.91,34.62,66.38,34.62Z" transform="translate(0 0)"/>
  <path class="cls-2" d="M78,41.3c-.07,1.87-.66,4.13-3,4.13-3,0-3.44-3.71-3.44-6s.45-6,3.33-6,3.2,3.51,3.2,5.56v.73h-5V40c0,1.17.18,4.06,1.87,4.06,1.33,0,1.51-1.77,1.54-2.76Zm-1.37-2.8c0-1-.19-3.69-1.69-3.69s-1.77,2.63-1.83,3.69Z" transform="translate(0 0)"/>
  <path class="cls-2" d="M84.78,36a2.8,2.8,0,0,0-2-1.2,1.46,1.46,0,0,0-1.46,1.46v.07c0,2.27,3.81,2.68,3.81,5.83a3.16,3.16,0,0,1-3,3.27H82a3.68,3.68,0,0,1-2.2-.8V42.91a3,3,0,0,0,2.09,1.15,1.7,1.7,0,0,0,1.72-1.7v-.1c0-2.29-3.81-3.07-3.81-5.87a2.84,2.84,0,0,1,2.79-2.89h.12a3.5,3.5,0,0,1,2.11.75Z" transform="translate(0 0)"/>
  <path class="cls-2" d="M95,35V45.25H93.5V35H92.23V33.63H93.5v-3.3H95v3.3h2V35Z" transform="translate(0 0)"/>
  <path class="cls-2" d="M102.92,45.25V36.8c0-.93,0-2.16-1.32-2.16a1.65,1.65,0,0,0-1.4.76,3.64,3.64,0,0,0-.4,2v7.82H98.32v-19H99.8v8.27a3.09,3.09,0,0,1,2.3-1c1.93,0,2.3,1.35,2.3,3v8.81Z" transform="translate(0 0)"/>
  <path class="cls-2" d="M112.73,41.3c-.08,1.87-.66,4.13-3,4.13-3,0-3.44-3.71-3.44-6s.45-6,3.34-6,3.2,3.51,3.2,5.56v.73h-5V40c0,1.17.19,4.06,1.88,4.06,1.32,0,1.51-1.77,1.53-2.76Zm-1.38-2.8c0-1-.18-3.69-1.69-3.69s-1.77,2.63-1.82,3.69Z" transform="translate(0 0)"/>
  <path class="cls-2" d="M123.12,35V45.25h-1.48V35h-1.35V33.63h1.35V29c0-1.49.4-3,2.19-3a3.54,3.54,0,0,1,1.33.26v1.61a1.75,1.75,0,0,0-1.09-.52c-.87,0-.95.78-.95,1.43V33.6h2V35Z" transform="translate(0 0)"/>
  <path class="cls-2" d="M131.08,45.25v-.93a2.36,2.36,0,0,1-2,1.11c-2.7,0-2.78-3.71-2.78-5.77,0-2.36.08-6.21,2.91-6.21a2.19,2.19,0,0,1,1.88,1v-.78h1.51V45.25Zm-1.51-10.63c-1.72,0-1.74,3-1.74,4.13s0,1.87.08,2.81.26,2.68,1.63,2.68a1.22,1.22,0,0,0,1-.39c.74-.73.74-3.46.74-4.47C131.24,37.06,131.1,34.62,129.57,34.62Z" transform="translate(0 0)"/>
  <path class="cls-2" d="M139.88,44.84a2.89,2.89,0,0,1-1.69.59c-2.78,0-3.41-3.71-3.41-5.79s.47-6.19,3.49-6.19a3.14,3.14,0,0,1,1.61.44v1.72a2.07,2.07,0,0,0-1.48-.81c-1.88,0-2.06,3.41-2.06,4.71s.24,4.55,2,4.55a2,2,0,0,0,1.5-1Z" transform="translate(0 0)"/>
  <path class="cls-2" d="M143.66,35V45.25h-1.48V35h-1.27V33.63h1.27v-3.3h1.48v3.3h2V35Z" transform="translate(0 0)"/>
  <path class="cls-2" d="M150,45.43c-3,0-3.46-3.74-3.46-6s.42-6,3.46-6,3.31,3.82,3.31,6.06S153,45.43,150,45.43Zm0-10.63c-1.83,0-1.88,3.54-1.88,4.76s.08,4.5,1.88,4.5,1.79-3.46,1.79-4.63S151.7,34.8,150,34.8Z" transform="translate(0 0)"/>
  <path class="cls-2" d="M159,35.14c-2,0-2,1.56-2,3.07v7h-1.5V33.63H157v1.51a2.41,2.41,0,0,1,2-1.69Z" transform="translate(0 0)"/>
  <path class="cls-2" d="M165.13,36a2.8,2.8,0,0,0-2-1.2,1.46,1.46,0,0,0-1.46,1.46v.07c0,2.27,3.81,2.68,3.81,5.83a3.16,3.16,0,0,1-3,3.27h-.12a3.68,3.68,0,0,1-2.2-.8V42.91a3,3,0,0,0,2.09,1.15,1.7,1.7,0,0,0,1.72-1.7v-.1c0-2.29-3.81-3.07-3.81-5.87a2.84,2.84,0,0,1,2.79-2.89H163a3.5,3.5,0,0,1,2.11.75Z" transform="translate(0 0)"/>
  <path class="cls-2" d="M177.9,45.25v-.93a2.34,2.34,0,0,1-2,1.11c-2.69,0-2.77-3.71-2.77-5.77,0-2.36.08-6.21,2.91-6.21a2.2,2.2,0,0,1,1.87,1v-.78h1.51V45.25Zm-1.5-10.63c-1.72,0-1.75,3-1.75,4.13s0,1.87.08,2.81.26,2.68,1.64,2.68a1.18,1.18,0,0,0,.95-.39c.74-.73.74-3.46.74-4.47C178.06,37.06,177.93,34.62,176.4,34.62Z" transform="translate(0 0)"/>
  <path class="cls-2" d="M188.16,46.5c0,2.1-.82,3.4-3.09,3.4-2.06,0-3.07-1.27-3.07-3.22a1.62,1.62,0,0,1,0-.44h1.5c0,1.17.14,2.28,1.62,2.28s1.5-1.14,1.5-2.26V44.42a2.31,2.31,0,0,1-1.87.83c-3,0-3-4-3-6.06s.21-5.74,2.94-5.74a2.33,2.33,0,0,1,2,1v-.81h1.51ZM185,34.61c-1.59,0-1.72,2.68-1.72,5.1,0,1.25,0,4.32,1.85,4.32,1.32,0,1.5-1.54,1.58-2.5s.08-1.87.08-2.81c0-1.22,0-4.08-1.79-4.08Z" transform="translate(0 0)"/>
  <path class="cls-2" d="M196.73,41.3c-.08,1.87-.66,4.13-3,4.13-3,0-3.44-3.71-3.44-6s.45-6,3.33-6,3.2,3.51,3.2,5.56v.73h-5V40c0,1.17.19,4.06,1.88,4.06,1.32,0,1.5-1.77,1.53-2.76Zm-1.38-2.8c0-1-.18-3.69-1.69-3.69s-1.77,2.63-1.82,3.69Z" transform="translate(0 0)"/>
  <path class="cls-2" d="M199,48.94l-1.14-.52,1.83-5.33,1.64.73Z" transform="translate(0 0)"/>
  <path class="cls-2" d="M216,46.5c0,2.1-.82,3.4-3.1,3.4-2.06,0-3.07-1.27-3.07-3.22a1.62,1.62,0,0,1,0-.44h1.51c0,1.17.13,2.28,1.61,2.28s1.57-1.11,1.57-2.23V44.42a2.35,2.35,0,0,1-1.88.83c-3,0-3-4-3-6.06s.21-5.74,2.93-5.74a2.35,2.35,0,0,1,2,1v-.81h1.51Zm-3.15-11.89c-1.59,0-1.72,2.68-1.72,5.1,0,1.25,0,4.32,1.85,4.32,1.32,0,1.51-1.54,1.59-2.5s.08-1.87.08-2.81c0-1.22,0-4.08-1.8-4.08Z" transform="translate(0 0)"/>
  <path class="cls-2" d="M224.5,41.3c-.08,1.87-.66,4.13-3,4.13-3,0-3.43-3.71-3.43-6s.45-6,3.33-6,3.2,3.51,3.2,5.56v.73h-5V40c0,1.17.19,4.06,1.88,4.06,1.32,0,1.51-1.77,1.54-2.76Zm-1.33-2.8c-.06-1-.19-3.69-1.7-3.69s-1.77,2.63-1.82,3.69Z" transform="translate(0 0)"/>
  <path class="cls-2" d="M231.44,45.25V36.8c0-.93,0-2.16-1.32-2.16a1.69,1.69,0,0,0-1.4.76,3.48,3.48,0,0,0-.4,2v7.82h-1.48V33.63h1.48v.94a3.11,3.11,0,0,1,2.3-1.12c2,0,2.3,1.61,2.3,3.2v8.6Z" transform="translate(0 0)"/>
  <path class="cls-2" d="M239.93,45.25v-.93a2.36,2.36,0,0,1-2,1.11c-2.72,0-2.77-3.87-2.77-5.9,0-2.26,0-6.08,2.93-6.08a2.19,2.19,0,0,1,1.88,1V26.3h1.48v19ZM238.4,34.62c-1.7,0-1.72,3-1.72,4.13s0,1.87.08,2.81.23,2.68,1.61,2.68a1.26,1.26,0,0,0,1-.39c.71-.7.71-3.43.71-4.4C240.06,37,239.93,34.62,238.4,34.62Z" transform="translate(0 0)"/>
  <path class="cls-2" d="M250,41.3c-.08,1.87-.66,4.13-3,4.13-3,0-3.44-3.71-3.44-6s.45-6,3.34-6,3.2,3.51,3.2,5.56v.73h-5V40c0,1.17.19,4.06,1.88,4.06,1.32,0,1.51-1.77,1.53-2.76Zm-1.38-2.8c0-1-.18-3.69-1.69-3.69s-1.77,2.63-1.82,3.69Z" transform="translate(0 0)"/>
  <path class="cls-2" d="M255.82,35.14c-2,0-2,1.56-2,3.07v7h-1.48V33.63h1.48v1.51a2.43,2.43,0,0,1,2-1.69Z" transform="translate(0 0)"/>
  <path class="cls-2" d="M257,48.94l-1.14-.52,1.82-5.33,1.64.73Z" transform="translate(0 0)"/>
  <path class="cls-2" d="M268.64,31.06A1.1,1.1,0,1,1,269.73,30v0A1.1,1.1,0,0,1,268.64,31.06Zm-.76,14.19V33.63h1.5V45.25Z" transform="translate(0 0)"/>
  <path class="cls-2" d="M276.6,45.25V36.8c0-.93,0-2.16-1.32-2.16a1.65,1.65,0,0,0-1.4.76,3.48,3.48,0,0,0-.4,2v7.82H272V33.63h1.5v.94a3.11,3.11,0,0,1,2.3-1.12c2,0,2.3,1.61,2.3,3.2v8.6Z" transform="translate(0 0)"/>
  <path class="cls-2" d="M285.38,44.84a3,3,0,0,1-1.69.59c-2.78,0-3.41-3.71-3.41-5.79s.47-6.19,3.49-6.19a3.14,3.14,0,0,1,1.61.44v1.72a2.13,2.13,0,0,0-1.48-.81c-1.88,0-2.06,3.41-2.06,4.71s.23,4.55,2,4.55a2,2,0,0,0,1.51-1Z" transform="translate(0 0)"/>
  <path class="cls-2" d="M290.24,45.43c-3,0-3.46-3.74-3.46-6s.42-6,3.46-6,3.31,3.82,3.31,6.06S293.29,45.43,290.24,45.43Zm0-10.63c-1.83,0-1.88,3.54-1.88,4.76s.08,4.5,1.88,4.5,1.8-3.46,1.8-4.63-.08-4.63-1.82-4.63Z" transform="translate(0 0)"/>
  <path class="cls-2" d="M306.56,45.25h-1.48v-8.6c0-1-.16-2-1.38-2-1.72,0-1.8,1.9-1.8,3.18v7.43h-1.5V36.67c0-.86-.08-2-1.25-2-1.85,0-1.9,2.06-1.9,3.41v7.2h-1.48V33.63h1.48v1a3.17,3.17,0,0,1,2.3-1.14,2.3,2.3,0,0,1,2.17,1.35,2.88,2.88,0,0,1,2.43-1.34c1.91,0,2.41,1.22,2.41,2.88Z" transform="translate(0 0)"/>
  <path class="cls-2" d="M315.18,41.3c-.08,1.87-.66,4.13-3,4.13-3,0-3.44-3.71-3.44-6s.45-6,3.33-6,3.2,3.51,3.2,5.56v.73h-5V40c0,1.17.18,4.06,1.88,4.06,1.32,0,1.5-1.77,1.53-2.76Zm-1.38-2.8c-.05-1-.18-3.69-1.69-3.69s-1.77,2.63-1.82,3.69Z" transform="translate(0 0)"/>
  <path class="cls-2" d="M317.5,48.94l-1.14-.52,1.83-5.33,1.64.73Z" transform="translate(0 0)"/>
  <path class="cls-2" d="M36.85,72.5c-.08,1.87-.66,4.13-3,4.13-3,0-3.44-3.71-3.44-5.95s.45-6,3.33-6,3.2,3.51,3.2,5.56V71h-5v.26c0,1.17.19,4.06,1.88,4.06,1.32,0,1.5-1.77,1.53-2.76ZM35.5,69.69c0-1-.18-3.69-1.69-3.69S32,68.63,32,69.69Z" transform="translate(0 0)"/>
  <path class="cls-2" d="M41.08,66.18V76.5H39.6V66.18H38.33V64.83H39.6V61.5h1.48v3.3h2v1.35Z" transform="translate(0 0)"/>
  <path class="cls-2" d="M49,76.5V68c0-.93,0-2.16-1.32-2.16a1.65,1.65,0,0,0-1.4.76,3.64,3.64,0,0,0-.4,2v7.9H44.41v-19h1.48v8.27a3.11,3.11,0,0,1,2.3-1.12c1.93,0,2.3,1.35,2.3,3V76.5Z" transform="translate(0 0)"/>
  <path class="cls-2" d="M57.74,76.5V68c0-.93,0-2.16-1.33-2.16a1.69,1.69,0,0,0-1.4.76,3.57,3.57,0,0,0-.39,2v7.9H53.13V64.83h1.49v.94a3.08,3.08,0,0,1,2.3-1.12c2,0,2.3,1.61,2.3,3.2V76.5Z" transform="translate(0 0)"/>
  <path class="cls-2" d="M62.6,62.26a1.1,1.1,0,1,1,1.08-1.12v0A1.09,1.09,0,0,1,62.6,62.26ZM61.83,76.5V64.83h1.51V76.5Z" transform="translate(0 0)"/>
  <path class="cls-2" d="M70.61,76a2.89,2.89,0,0,1-1.69.59c-2.78,0-3.41-3.71-3.41-5.79S66,64.65,69,64.65a3.14,3.14,0,0,1,1.61.44v1.72A2.13,2.13,0,0,0,69.13,66c-1.88,0-2.06,3.41-2.06,4.71s.24,4.55,2,4.55a2,2,0,0,0,1.51-1Z" transform="translate(0 0)"/>
  <path class="cls-2" d="M84.73,77.73c0,2.1-.82,3.4-3.09,3.4-2.07,0-3.07-1.27-3.07-3.22a1.62,1.62,0,0,1,0-.44h1.5c0,1.17.13,2.28,1.62,2.28s1.5-1.14,1.5-2.26V75.62a2.34,2.34,0,0,1-1.87.83c-3,0-3-4-3-6.06s.21-5.74,2.94-5.74a2.36,2.36,0,0,1,1.95,1v-.81h1.51ZM81.58,65.84c-1.58,0-1.72,2.68-1.72,5.1,0,1.25,0,4.32,1.86,4.32,1.32,0,1.5-1.54,1.58-2.5s.08-1.87.08-2.81C83.38,68.73,83.38,65.84,81.58,65.84Z" transform="translate(0 0)"/>
  <path class="cls-2" d="M90.78,66.34c-2,0-2,1.56-2,3.07v7H87.29V64.83h1.49v1.51a2.41,2.41,0,0,1,2-1.69Z" transform="translate(0 0)"/>
  <path class="cls-2" d="M95.33,76.63c-3,0-3.46-3.74-3.46-6s.42-6,3.46-6,3.31,3.82,3.31,6.06S98.37,76.63,95.33,76.63Zm0-10.63c-1.83,0-1.88,3.54-1.88,4.76s.08,4.5,1.88,4.5,1.79-3.46,1.79-4.63S97.05,66,95.31,66Z" transform="translate(0 0)"/>
  <path class="cls-2" d="M107,73.62a3.07,3.07,0,0,1-6.13,0V64.83h1.48v7.88c0,1.19,0,2.55,1.64,2.55s1.52-1.56,1.52-2.71V64.83H107Z" transform="translate(0 0)"/>
  <path class="cls-2" d="M111.12,65.61a2.13,2.13,0,0,1,1.87-1c2.91,0,2.94,3.66,2.94,5.77,0,2.5-.08,6.21-2.78,6.21a2.47,2.47,0,0,1-2-1.11v5.61h-1.48V64.83h1.48Zm1.53.21c-1.53,0-1.67,2.44-1.67,4.76,0,1,0,3.74.74,4.47a1.22,1.22,0,0,0,1,.39c1.37,0,1.53-1.67,1.64-2.68a23.23,23.23,0,0,0,.08-2.73C114.4,68.86,114.37,65.82,112.65,65.82Z" transform="translate(0 0)"/>
  <path class="cls-2" d="M118.1,80.14,117,79.62l1.82-5.33,1.64.73Z" transform="translate(0 0)"/>
  <path class="cls-2" d="M134.1,72.5c-.08,1.87-.66,4.13-3,4.13-3,0-3.44-3.71-3.44-5.95s.45-6,3.33-6,3.21,3.51,3.21,5.56V71h-5v.26c0,1.17.19,4.06,1.88,4.06,1.32,0,1.51-1.77,1.53-2.76Zm-1.38-2.81c-.05-1-.18-3.69-1.69-3.69s-1.77,2.63-1.82,3.69Z" transform="translate(0 0)"/>
  <path class="cls-2" d="M140.76,76.5v-1a2.36,2.36,0,0,1-2,1.11c-2.73,0-2.78-3.87-2.78-5.9,0-2.26,0-6.08,2.93-6.08a2.19,2.19,0,0,1,1.88,1V57.5h1.48v19Zm-1.53-10.63c-1.69,0-1.72,3-1.72,4.13s0,1.87.08,2.81.24,2.68,1.61,2.68a1.25,1.25,0,0,0,1-.39c.71-.7.71-3.43.71-4.4,0-2.49-.15-4.88-1.68-4.88Z" transform="translate(0 0)"/>
  <path class="cls-2" d="M151,73.62a3.07,3.07,0,0,1-6.13,0V64.83h1.48v7.88c0,1.19,0,2.55,1.64,2.55s1.49-1.56,1.49-2.71V64.83H151Z" transform="translate(0 0)"/>
  <path class="cls-2" d="M158.32,76a3,3,0,0,1-1.69.59c-2.78,0-3.42-3.71-3.42-5.79s.48-6.19,3.5-6.19a3.14,3.14,0,0,1,1.61.44v1.72a2.13,2.13,0,0,0-1.48-.81c-1.88,0-2.07,3.41-2.07,4.71s.24,4.55,2,4.55a2,2,0,0,0,1.51-1Z" transform="translate(0 0)"/>
  <path class="cls-2" d="M164.66,76.5v-1a2.34,2.34,0,0,1-2,1.11c-2.69,0-2.77-3.71-2.77-5.77,0-2.36.08-6.21,2.91-6.21a2.2,2.2,0,0,1,1.87,1v-.78h1.51V76.5Zm-1.5-10.63c-1.72,0-1.75,3-1.75,4.13s0,1.87.08,2.81.26,2.68,1.64,2.68a1.18,1.18,0,0,0,1-.39c.74-.73.74-3.46.74-4.47-.05-2.37-.18-4.81-1.71-4.81Z" transform="translate(0 0)"/>
  <path class="cls-2" d="M170.74,66.18V76.5h-1.48V66.18H168V64.83h1.27V61.5h1.48v3.3h2v1.35Z" transform="translate(0 0)"/>
  <path class="cls-2" d="M174.82,62.26a1.1,1.1,0,1,1,1.08-1.12v0A1.09,1.09,0,0,1,174.82,62.26Zm-.77,14.24V64.83h1.51V76.5Z" transform="translate(0 0)"/>
  <path class="cls-2" d="M181.19,76.63c-3,0-3.47-3.74-3.47-6s.43-6,3.47-6,3.31,3.87,3.31,6.08S184.23,76.63,181.19,76.63Zm0-10.63c-1.82,0-1.88,3.54-1.88,4.76s.08,4.5,1.88,4.5,1.8-3.46,1.8-4.63S182.91,66,181.16,66Z" transform="translate(0 0)"/>
  <path class="cls-2" d="M191.31,76.5V68c0-.93,0-2.16-1.32-2.16a1.69,1.69,0,0,0-1.4.76,3.48,3.48,0,0,0-.4,2v7.9h-1.48V64.83h1.48v.94a3.13,3.13,0,0,1,2.31-1.12c2,0,2.3,1.61,2.3,3.2V76.5Z" transform="translate(0 0)"/>
  <path class="cls-2" d="M195.41,80.14l-1.14-.52,1.83-5.33,1.64.73Z" transform="translate(0 0)"/>
  <path class="cls-2" d="M206.28,76.5v-19h1.51v19Z" transform="translate(0 0)"/>
  <path class="cls-2" d="M211.17,62.26a1.1,1.1,0,1,1,1.08-1.12v0A1.09,1.09,0,0,1,211.17,62.26ZM210.4,76.5V64.83h1.51V76.5Z" transform="translate(0 0)"/>
  <path class="cls-2" d="M217.7,76.5h-1.61l-2.7-11.62h1.53l1.58,6.89c.19.83.32,1.67.43,2.5.13-.81.26-1.64.42-2.45l1.45-7h1.54Z" transform="translate(0 0)"/>
  <path class="cls-2" d="M222.56,62.26a1.1,1.1,0,1,1,1.09-1.11v0A1.1,1.1,0,0,1,222.56,62.26ZM221.8,76.5V64.83h1.5V76.5Z" transform="translate(0 0)"/>
  <path class="cls-2" d="M230.5,76.5V68c0-.93,0-2.16-1.32-2.16a1.69,1.69,0,0,0-1.4.76,3.48,3.48,0,0,0-.4,2v7.9H225.9V64.83h1.48v.94a3.15,3.15,0,0,1,2.3-1.12c2,0,2.3,1.61,2.3,3.2V76.5Z" transform="translate(0 0)"/>
  <path class="cls-2" d="M240.76,77.73c0,2.1-.82,3.4-3.1,3.4-2.06,0-3.07-1.27-3.07-3.22a1.62,1.62,0,0,1,0-.44h1.51c0,1.17.13,2.28,1.61,2.28s1.51-1.14,1.51-2.26V75.62a2.35,2.35,0,0,1-1.88.83c-3,0-3-4-3-6.06s.21-5.74,2.93-5.74a2.35,2.35,0,0,1,2,1v-.81h1.51Zm-3.15-11.89c-1.59,0-1.72,2.68-1.72,5.1,0,1.25,0,4.32,1.85,4.32,1.32,0,1.51-1.54,1.59-2.5s.08-1.87.08-2.81c0-1.22,0-4.11-1.8-4.11Z" transform="translate(0 0)"/>
  <path class="cls-2" d="M254,67.2a2.8,2.8,0,0,0-2-1.2,1.46,1.46,0,0,0-1.53,1.39v.11c0,2.27,3.81,2.68,3.81,5.83a3.16,3.16,0,0,1-3.05,3.27h-.13a3.63,3.63,0,0,1-2.19-.8V74.11A3,3,0,0,0,251,75.26a1.72,1.72,0,0,0,1.72-1.72v-.08c0-2.29-3.81-3.07-3.81-5.87a2.83,2.83,0,0,1,2.72-2.94h.21a3.55,3.55,0,0,1,2.12.75Z" transform="translate(0 0)"/>
  <path class="cls-2" d="M257.62,65.61a2.16,2.16,0,0,1,1.88-1c2.91,0,2.94,3.66,2.94,5.77,0,2.5-.08,6.21-2.78,6.21a2.51,2.51,0,0,1-2-1.11v5.61h-1.48V64.83h1.48Zm1.54.21c-1.54,0-1.67,2.44-1.67,4.76,0,1,0,3.74.74,4.47a1.21,1.21,0,0,0,.95.39c1.38,0,1.54-1.67,1.64-2.68A25.62,25.62,0,0,0,260.9,70C260.9,68.86,260.88,65.82,259.16,65.82Z" transform="translate(0 0)"/>
  <path class="cls-2" d="M269.13,76.5v-1a2.36,2.36,0,0,1-2,1.11c-2.7,0-2.78-3.71-2.78-5.77,0-2.36.08-6.21,2.91-6.21a2.21,2.21,0,0,1,1.88,1v-.78h1.5V76.5Zm-1.51-10.63c-1.72,0-1.75,3-1.75,4.13s0,1.87.08,2.81.27,2.68,1.64,2.68a1.18,1.18,0,0,0,1-.39c.75-.73.75-3.46.75-4.47,0-2.37-.19-4.81-1.72-4.81Z" transform="translate(0 0)"/>
  <path class="cls-2" d="M277.93,76a3,3,0,0,1-1.69.59c-2.78,0-3.41-3.71-3.41-5.79s.47-6.19,3.49-6.19a3.14,3.14,0,0,1,1.61.44v1.72A2.13,2.13,0,0,0,276.5,66c-1.88,0-2.06,3.41-2.06,4.71s.23,4.55,2,4.55a2,2,0,0,0,1.51-1Z" transform="translate(0 0)"/>
  <path class="cls-2" d="M285.76,72.5c-.08,1.87-.66,4.13-3,4.13-3,0-3.44-3.71-3.44-5.95s.45-6,3.33-6,3.2,3.51,3.2,5.56V71h-5v.26c0,1.17.18,4.06,1.88,4.06,1.32,0,1.5-1.77,1.53-2.76Zm-1.38-2.81c-.05-1-.18-3.69-1.69-3.69s-1.77,2.63-1.83,3.69Z" transform="translate(0 0)"/>
  <path class="cls-2" d="M295,62.26A1.1,1.1,0,1,1,296,61.14v0A1.09,1.09,0,0,1,295,62.26Zm-.77,14.24V64.83h1.51V76.5Z" transform="translate(0 0)"/>
  <path class="cls-2" d="M302.92,76.5V68c0-.93,0-2.16-1.33-2.16a1.69,1.69,0,0,0-1.4.76,3.48,3.48,0,0,0-.4,2v7.9h-1.48V64.83h1.48v.94a3.13,3.13,0,0,1,2.31-1.12c2,0,2.3,1.61,2.3,3.2V76.5Z" transform="translate(0 0)"/>
  <path class="cls-2" d="M34.36,97.5c-2,0-2,1.56-2,3.07v7H30.87V96h1.48V97.5a2.43,2.43,0,0,1,2-1.69Z" transform="translate(0 0)"/>
  <path class="cls-2" d="M42.14,104.82a3.07,3.07,0,0,1-6.14,0V96h1.5v7.88c0,1.19.06,2.55,1.64,2.55s1.54-1.56,1.54-2.71V96h1.48Z" transform="translate(0 0)"/>
  <path class="cls-2" d="M48.27,97.5c-2,0-2,1.56-2,3.07v7H44.79V96h1.48V97.5a2.43,2.43,0,0,1,2-1.69Z" transform="translate(0 0)"/>
  <path class="cls-2" d="M54.35,107.65v-.93a2.34,2.34,0,0,1-2,1.11c-2.69,0-2.77-3.71-2.77-5.77,0-2.36.08-6.21,2.9-6.21a2.19,2.19,0,0,1,1.88,1v-.78h1.51v11.62ZM52.84,97c-1.71,0-1.74,3-1.74,4.13s0,1.87.08,2.81.26,2.68,1.64,2.68a1.21,1.21,0,0,0,1-.39c.74-.73.74-3.46.74-4.47C54.5,99.5,54.38,97,52.84,97Z" transform="translate(0 0)"/>
  <path class="cls-2" d="M58.5,107.65v-19H60v19Z" transform="translate(0 0)"/>
  <path class="cls-2" d="M71.83,107.83c-3,0-3.47-3.74-3.47-6s.43-6,3.47-6,3.3,3.82,3.3,6.06S74.87,107.83,71.83,107.83Zm0-10.63C70,97.2,70,100.74,70,102s.08,4.5,1.88,4.5,1.8-3.46,1.8-4.63-.08-4.63-1.83-4.63Z" transform="translate(0 0)"/>
  <path class="cls-2" d="M80.84,97.5c-2,0-2,1.56-2,3.07v7H77.36V96h1.48V97.5a2.43,2.43,0,0,1,2-1.69Z" transform="translate(0 0)"/>
  <path class="cls-2" d="M94.8,104.82a3.07,3.07,0,0,1-6.13,0V96h1.48v7.88c0,1.19,0,2.55,1.64,2.55s1.53-1.56,1.53-2.71V96H94.8Z" transform="translate(0 0)"/>
  <path class="cls-2" d="M100.94,97.5c-2,0-2,1.56-2,3.07v7H97.5V96H99V97.5a2.41,2.41,0,0,1,2-1.69Z" transform="translate(0 0)"/>
  <path class="cls-2" d="M104.08,96.81a2.21,2.21,0,0,1,1.91-1c2.88,0,2.91,3.69,2.91,5.77,0,2.5-.08,6.21-2.78,6.21a2.49,2.49,0,0,1-2-1.11v.93H102.6v-19h1.48Zm1.54.21c-1.54,0-1.67,2.44-1.67,4.76,0,1,0,3.74.74,4.47a1.21,1.21,0,0,0,1,.39c1.38,0,1.54-1.67,1.64-2.68a25.62,25.62,0,0,0,.08-2.73C107.36,100.06,107.34,97,105.62,97Z" transform="translate(0 0)"/>
  <path class="cls-2" d="M115.59,107.65v-.93a2.36,2.36,0,0,1-2,1.11c-2.7,0-2.78-3.71-2.78-5.77,0-2.36.08-6.21,2.91-6.21a2.21,2.21,0,0,1,1.88,1v-.78h1.5v11.62ZM114.08,97c-1.72,0-1.75,3-1.75,4.13s0,1.87.08,2.81.27,2.68,1.64,2.68a1.18,1.18,0,0,0,1-.39c.74-.73.74-3.46.74-4.47C115.74,99.5,115.61,97,114.08,97Z" transform="translate(0 0)"/>
  <path class="cls-2" d="M124.34,107.65V99.2c0-.93,0-2.16-1.32-2.16a1.67,1.67,0,0,0-1.41.76,3.57,3.57,0,0,0-.39,2v7.82h-1.48V96h1.48V97a3.08,3.08,0,0,1,2.3-1.12c2,0,2.3,1.61,2.3,3.2v8.6Z" transform="translate(0 0)"/>
  <path class="cls-2" d="M139.12,107.65v-.93a2.36,2.36,0,0,1-2,1.11c-2.7,0-2.78-3.71-2.78-5.77,0-2.36.08-6.21,2.91-6.21a2.21,2.21,0,0,1,1.88,1v-.78h1.5v11.62ZM137.61,97c-1.72,0-1.75,3-1.75,4.13s0,1.87.08,2.81.27,2.68,1.64,2.68a1.18,1.18,0,0,0,.95-.39c.75-.73.75-3.46.75-4.47C139.28,99.5,139.14,97,137.61,97Z" transform="translate(0 0)"/>
  <path class="cls-2" d="M146.76,97.5c-2,0-2,1.56-2,3.07v7h-1.48V96h1.48V97.5a2.41,2.41,0,0,1,2-1.69Z" transform="translate(0 0)"/>
  <path class="cls-2" d="M154.24,103.7c-.08,1.87-.66,4.13-3,4.13-3,0-3.43-3.71-3.43-6s.44-6,3.33-6,3.2,3.51,3.2,5.56v.73h-5v.26c0,1.17.19,4.06,1.88,4.06,1.32,0,1.51-1.77,1.53-2.76Zm-1.37-2.81c-.06-1-.19-3.69-1.7-3.69s-1.77,2.63-1.82,3.69Z" transform="translate(0 0)"/>
  <path class="cls-2" d="M161,107.65v-.93a2.36,2.36,0,0,1-2,1.11c-2.7,0-2.78-3.71-2.78-5.77,0-2.36.08-6.21,2.91-6.21a2.21,2.21,0,0,1,1.88,1v-.78h1.45v11.62ZM159.5,97c-1.72,0-1.75,3-1.75,4.13s0,1.87.08,2.81.27,2.68,1.64,2.68a1.18,1.18,0,0,0,.95-.39c.74-.73.74-3.46.74-4.47C161.19,99.5,161.06,97,159.5,97Z" transform="translate(0 0)"/>
</svg>
