<svg id="Ebene_1" data-name="Ebene 1" xmlns="http://www.w3.org/2000/svg" width="398.95" height="233.39" viewBox="0 0 398.95 233.39">
  <defs>
    <style>
      .cls-1 {
        fill: none;
        stroke: #c7f700;
        stroke-width: 8px;
      }

      .cls-2 {
        fill: #f6f6f6;
      }
    </style>
  </defs>
  <g id="Gruppe_432" data-name="Gruppe 432">
    <g id="Gruppe_430" data-name="Gruppe 430">
      <g id="Gruppe_93" data-name="Gruppe 93">
        <path id="Pfad_50-2" data-name="Pfad 50-2" class="cls-1" d="M395,81.18V4H315.66" transform="translate(0 0)"/>
        <path id="Pfad_51-2" data-name="Pfad 51-2" class="cls-1" d="M395,152.21v77.18H315.66" transform="translate(0 0)"/>
        <path id="Pfad_52-2" data-name="Pfad 52-2" class="cls-1" d="M4,81.18V4H83.28" transform="translate(0 0)"/>
        <path id="Pfad_53-2" data-name="Pfad 53-2" class="cls-1" d="M4,152.21v77.18H83.28" transform="translate(0 0)"/>
      </g>
    </g>
  </g>
  <g>
    <path class="cls-2" d="M36.8,47.78l-4-8.47v8.47H31V30.44h2.18a6.2,6.2,0,0,1,3,.49c1.56.83,1.88,2.55,1.88,4.16,0,2.39-.81,4.16-3.44,4.37l4,8.32Zm-3-9.75c2.08,0,2.42-1.22,2.42-3,0-2-.41-3.07-2.62-3.07h-.86V38Z" transform="translate(0 0)"/>
    <path class="cls-2" d="M41.27,33.58a1.09,1.09,0,1,1,1.06-1.06A1.06,1.06,0,0,1,41.27,33.58Zm-.75,14.2V36.16H42V47.78Z" transform="translate(0 0)"/>
    <path class="cls-2" d="M49,38.52a2.76,2.76,0,0,0-2-1.19,1.45,1.45,0,0,0-1.43,1.53c0,2.26,3.75,2.68,3.75,5.83A3.13,3.13,0,0,1,46.16,48a3.53,3.53,0,0,1-2.16-.8V45.44a3,3,0,0,0,2,1.15,1.7,1.7,0,0,0,1.69-1.8c0-2.29-3.74-3.07-3.74-5.88A2.8,2.8,0,0,1,46.89,36a3.46,3.46,0,0,1,2.08.75Z" transform="translate(0 0)"/>
    <path class="cls-2" d="M56.11,47.78,52.5,42.22v5.56H51v-19H52.5V40.89l2.91-4.73h1.64l-3.33,5.2L58,47.78Z" transform="translate(0 0)"/>
    <path class="cls-2" d="M63,38.52a2.74,2.74,0,0,0-2-1.19,1.45,1.45,0,0,0-1.43,1.53c0,2.26,3.74,2.68,3.74,5.83A3.13,3.13,0,0,1,60.14,48a3.5,3.5,0,0,1-2.15-.8V45.44a3,3,0,0,0,2,1.15,1.7,1.7,0,0,0,1.69-1.8c0-2.29-3.74-3.07-3.74-5.88A2.8,2.8,0,0,1,60.87,36a3.44,3.44,0,0,1,2.08.75Z" transform="translate(0 0)"/>
    <path class="cls-2" d="M75.51,47.78v-.93a2.29,2.29,0,0,1-2,1.11c-2.65,0-2.73-3.72-2.73-5.77,0-2.37.08-6.21,2.86-6.21a2.13,2.13,0,0,1,1.85,1v-.78H77V47.78ZM74,37.15c-1.69,0-1.72,3-1.72,4.13,0,1,0,1.87.08,2.81s.26,2.68,1.61,2.68a1.18,1.18,0,0,0,.94-.39c.73-.73.73-3.46.73-4.48C75.67,39.59,75.54,37.15,74,37.15Z" transform="translate(0 0)"/>
    <path class="cls-2" d="M84.12,47.78V39.33c0-.94,0-2.16-1.3-2.16a1.63,1.63,0,0,0-1.38.76,3.59,3.59,0,0,0-.39,2v7.83H79.59V36.16h1.46v.93A3,3,0,0,1,83.31,36c2,0,2.26,1.61,2.26,3.19v8.61Z" transform="translate(0 0)"/>
    <path class="cls-2" d="M92.46,47.78v-.93a2.33,2.33,0,0,1-2,1.11c-2.68,0-2.73-3.87-2.73-5.9,0-2.26,0-6.08,2.89-6.08a2.13,2.13,0,0,1,1.84,1V28.83h1.46v19ZM91,37.15c-1.66,0-1.69,3-1.69,4.13,0,1,0,1.87.08,2.81s.24,2.68,1.59,2.68a1.22,1.22,0,0,0,1-.39c.7-.7.7-3.44.7-4.4C92.59,39.54,92.46,37.15,91,37.15Z" transform="translate(0 0)"/>
    <path class="cls-2" d="M104,36.94a2.16,2.16,0,0,1,1.87-1c2.84,0,2.86,3.69,2.86,5.77,0,2.49-.07,6.21-2.73,6.21a2.44,2.44,0,0,1-2-1.11v.93h-1.46v-19H104Zm1.51.21c-1.51,0-1.64,2.44-1.64,4.75,0,1,0,3.75.73,4.48a1.17,1.17,0,0,0,.93.39c1.36,0,1.51-1.67,1.62-2.68s.08-1.82.08-2.73C107.26,40.19,107.23,37.15,105.54,37.15Z" transform="translate(0 0)"/>
    <path class="cls-2" d="M116.8,43.83c-.08,1.87-.65,4.13-2.94,4.13-3,0-3.38-3.72-3.38-6s.44-6,3.27-6,3.15,3.51,3.15,5.56c0,.23,0,.5,0,.73H112v.26c0,1.17.18,4.06,1.85,4.06,1.3,0,1.48-1.77,1.5-2.76ZM115.44,41c0-1-.18-3.69-1.66-3.69S112,40,112,41Z" transform="translate(0 0)"/>
    <path class="cls-2" d="M123.58,47.78V39.33c0-.94,0-2.16-1.3-2.16a1.65,1.65,0,0,0-1.38.76,3.59,3.59,0,0,0-.39,2v7.83h-1.45V36.16h1.45v.93A3.06,3.06,0,0,1,122.78,36c2,0,2.26,1.61,2.26,3.19v8.61Z" transform="translate(0 0)"/>
    <path class="cls-2" d="M133.51,43.83c-.07,1.87-.65,4.13-2.93,4.13-3,0-3.38-3.72-3.38-6s.44-6,3.27-6,3.15,3.51,3.15,5.56c0,.23,0,.5,0,.73h-4.91v.26c0,1.17.18,4.06,1.84,4.06,1.3,0,1.49-1.77,1.51-2.76ZM132.16,41c0-1-.18-3.69-1.66-3.69S128.76,40,128.7,41Z" transform="translate(0 0)"/>
    <path class="cls-2" d="M137.67,37.51V47.78h-1.45V37.51h-1.33V36.16h1.33V31.5c0-1.48.39-3,2.16-3a3.28,3.28,0,0,1,1.3.26v1.61a1.75,1.75,0,0,0-1.07-.52c-.86,0-.94.78-.94,1.43v4.84h2v1.35Zm3.83-3.93a1.09,1.09,0,1,1,1.06-1.06A1.07,1.07,0,0,1,141.5,33.58Zm-.76,14.2V36.16h1.48V47.78Z" transform="translate(0 0)"/>
    <path class="cls-2" d="M146.77,37.51V47.78h-1.45V37.51h-1.25V36.16h1.25v-3.3h1.45v3.3h1.95v1.35Z" transform="translate(0 0)"/>
    <path class="cls-2" d="M154.44,38.52a2.74,2.74,0,0,0-2-1.19A1.45,1.45,0,0,0,151,38.86c0,2.26,3.75,2.68,3.75,5.83A3.13,3.13,0,0,1,151.64,48a3.53,3.53,0,0,1-2.16-.8V45.44a3,3,0,0,0,2.05,1.15,1.7,1.7,0,0,0,1.69-1.8c0-2.29-3.74-3.07-3.74-5.88A2.8,2.8,0,0,1,152.36,36a3.44,3.44,0,0,1,2.08.75Z" transform="translate(0 0)"/>
    <path class="cls-2" d="M167,38.52a2.76,2.76,0,0,0-2-1.19,1.45,1.45,0,0,0-1.43,1.53c0,2.26,3.75,2.68,3.75,5.83A3.13,3.13,0,0,1,164.17,48a3.53,3.53,0,0,1-2.16-.8V45.44a3,3,0,0,0,2.05,1.15,1.7,1.7,0,0,0,1.69-1.8c0-2.29-3.74-3.07-3.74-5.88A2.8,2.8,0,0,1,164.9,36a3.46,3.46,0,0,1,2.08.75Z" transform="translate(0 0)"/>
    <path class="cls-2" d="M175.09,45a3,3,0,0,1-6,0V36.16h1.46V44c0,1.19.05,2.55,1.61,2.55s1.51-1.57,1.51-2.71V36.16h1.46Z" transform="translate(0 0)"/>
    <path class="cls-2" d="M188.29,47.78h-1.45V39.17c0-1-.16-2-1.35-2-1.69,0-1.77,1.9-1.77,3.18v7.43h-1.48V39.2c0-.86-.08-2-1.23-2-1.82,0-1.87,2.06-1.87,3.41v7.2h-1.45V36.16h1.45v1A3.12,3.12,0,0,1,181.4,36a2.29,2.29,0,0,1,2.14,1.35A2.81,2.81,0,0,1,185.93,36c1.87,0,2.36,1.22,2.36,2.88Z" transform="translate(0 0)"/>
    <path class="cls-2" d="M203,45a3,3,0,0,1-6,0V36.16h1.46V44c0,1.19.05,2.55,1.61,2.55s1.51-1.57,1.51-2.71V36.16H203Z" transform="translate(0 0)"/>
    <path class="cls-2" d="M207,36.94a2.1,2.1,0,0,1,1.85-1c2.86,0,2.88,3.66,2.88,5.77,0,2.49-.08,6.21-2.73,6.21a2.42,2.42,0,0,1-2-1.11v5.61h-1.46V36.16H207Zm1.51.21c-1.51,0-1.64,2.44-1.64,4.75,0,1,0,3.75.73,4.48a1.16,1.16,0,0,0,.93.39c1.36,0,1.51-1.67,1.62-2.68s.07-1.82.07-2.73C210.26,40.19,210.24,37.15,208.55,37.15Z" transform="translate(0 0)"/>
    <path class="cls-2" d="M221.88,37.51V47.78h-1.45V37.51h-1.25V36.16h1.25v-3.3h1.45v3.3h2v1.35Z" transform="translate(0 0)"/>
    <path class="cls-2" d="M228.1,48c-3,0-3.41-3.74-3.41-6s.42-6,3.41-6,3.25,3.82,3.25,6.06S231.09,48,228.1,48Zm0-10.63c-1.79,0-1.84,3.53-1.84,4.76s.07,4.5,1.84,4.5,1.77-3.46,1.77-4.63S229.79,37.33,228.07,37.33Z" transform="translate(0 0)"/>
    <path class="cls-2" d="M241.49,37.51V47.78H240V37.51h-1.25V36.16H240v-3.3h1.46v3.3h1.95v1.35Z" transform="translate(0 0)"/>
    <path class="cls-2" d="M249.29,47.78V39.33c0-.94,0-2.16-1.3-2.16a1.64,1.64,0,0,0-1.38.76,3.62,3.62,0,0,0-.39,2v7.83h-1.46v-19h1.46v8.26A3,3,0,0,1,248.48,36c1.9,0,2.26,1.35,2.26,3v8.81Z" transform="translate(0 0)"/>
    <path class="cls-2" d="M258.93,43.83C258.86,45.7,258.28,48,256,48c-3,0-3.38-3.72-3.38-6s.44-6,3.27-6S259,39.49,259,41.54c0,.23,0,.5,0,.73H254.1v.26c0,1.17.18,4.06,1.84,4.06,1.3,0,1.49-1.77,1.51-2.76ZM257.58,41c-.05-1-.18-3.69-1.66-3.69S254.18,40,254.12,41Z" transform="translate(0 0)"/>
    <path class="cls-2" d="M270.37,47.78h-1.58l-2.66-11.62h1.51l1.54,6.94c.18.83.31,1.67.41,2.5.13-.81.26-1.64.42-2.45l1.43-7H273Z" transform="translate(0 0)"/>
    <path class="cls-2" d="M278.69,47.78v-.93a2.28,2.28,0,0,1-2,1.11c-2.66,0-2.73-3.72-2.73-5.77,0-2.37.07-6.21,2.86-6.21a2.13,2.13,0,0,1,1.84,1v-.78h1.48V47.78Zm-1.48-10.63c-1.69,0-1.71,3-1.71,4.13,0,1,0,1.87.07,2.81s.26,2.68,1.61,2.68a1.16,1.16,0,0,0,.94-.39c.73-.73.73-3.46.73-4.48C278.85,39.59,278.72,37.15,277.21,37.15Z" transform="translate(0 0)"/>
    <path class="cls-2" d="M286.21,37.67c-1.95,0-2,1.56-2,3.06v7.05h-1.46V36.16h1.46v1.51a2.4,2.4,0,0,1,2-1.69Z" transform="translate(0 0)"/>
    <path class="cls-2" d="M288.57,33.58a1.09,1.09,0,1,1,0-2.18,1.1,1.1,0,0,1,1.07,1.12A1.07,1.07,0,0,1,288.57,33.58Zm-.75,14.2V36.16h1.48V47.78Z" transform="translate(0 0)"/>
    <path class="cls-2" d="M296.29,47.78v-.93a2.27,2.27,0,0,1-2,1.11c-2.65,0-2.73-3.72-2.73-5.77,0-2.37.08-6.21,2.86-6.21a2.12,2.12,0,0,1,1.84,1v-.78h1.49V47.78Zm-1.48-10.63c-1.69,0-1.71,3-1.71,4.13,0,1,0,1.87.08,2.81s.26,2.68,1.61,2.68a1.16,1.16,0,0,0,.93-.39c.73-.73.73-3.46.73-4.48C296.45,39.59,296.32,37.15,294.81,37.15Z" transform="translate(0 0)"/>
    <path class="cls-2" d="M301.83,36.94a2.16,2.16,0,0,1,1.88-1c2.83,0,2.86,3.69,2.86,5.77,0,2.49-.08,6.21-2.74,6.21a2.45,2.45,0,0,1-2-1.11v.93h-1.45v-19h1.45Zm1.51.21c-1.51,0-1.64,2.44-1.64,4.75,0,1,0,3.75.73,4.48a1.18,1.18,0,0,0,.94.39c1.35,0,1.51-1.67,1.61-2.68s.08-1.82.08-2.73C305.06,40.19,305,37.15,303.34,37.15Z" transform="translate(0 0)"/>
    <path class="cls-2" d="M308.72,47.78v-19h1.49v19Z" transform="translate(0 0)"/>
    <path class="cls-2" d="M318.68,43.83C318.6,45.7,318,48,315.74,48c-3,0-3.38-3.72-3.38-6s.44-6,3.28-6,3.15,3.51,3.15,5.56c0,.23,0,.5,0,.73h-4.92v.26c0,1.17.19,4.06,1.85,4.06,1.3,0,1.48-1.77,1.51-2.76ZM317.33,41c-.05-1-.18-3.69-1.66-3.69S313.92,40,313.87,41Z" transform="translate(0 0)"/>
    <path class="cls-2" d="M39.24,78.62a4.52,4.52,0,0,1-2.36.54,5.31,5.31,0,0,1-4.11-1.56c-1.22-1.22-2.34-3.35-2.34-7,0-1.74.21-5.07,2.49-7.38a5.7,5.7,0,0,1,4.16-1.74,5.1,5.1,0,0,1,2.16.49v3.54a2.75,2.75,0,0,0-1.9-.76,2.61,2.61,0,0,0-1.9.78c-.93.94-1.42,2.73-1.42,5,0,.44,0,3.2,1.22,4.55a2.5,2.5,0,0,0,1.95.83A3,3,0,0,0,39.24,75Z" transform="translate(0 0)"/>
    <path class="cls-2" d="M45.22,79.22c-3.33,0-4.42-3.23-4.42-6s1.09-6,4.42-6,4.37,3.15,4.37,6S48.65,79.22,45.22,79.22Zm0-9.16c-1.07,0-1.14,2.37-1.14,3.12s.07,3.12,1.14,3.12,1.09-2.42,1.09-3.12S46.23,70.06,45.22,70.06Z" transform="translate(0 0)"/>
    <path class="cls-2" d="M56.24,79V71.86c0-.52,0-1.46-.78-1.46-.93,0-.88,1.2-.88,1.85V79H51.33V67.36h3.25v1.82a3.11,3.11,0,0,1,2.76-2c2,0,2.15,1.87,2.15,3.43V79Z" transform="translate(0 0)"/>
    <path class="cls-2" d="M67,70.5a2.24,2.24,0,0,0-1.53-.78.8.8,0,0,0-.84.84c0,1.4,3.64,1.11,3.64,4.62,0,2.21-1.32,4-3.66,4a5.72,5.72,0,0,1-3.54-1.33l1.43-2.32a2.5,2.5,0,0,0,1.59.73,1,1,0,0,0,1-1c0-1.46-3.8-1.25-3.8-4.76,0-2.23,1.8-3.43,3.88-3.43a4.9,4.9,0,0,1,3.09,1Z" transform="translate(0 0)"/>
    <path class="cls-2" d="M77.54,75a5.31,5.31,0,0,1-1.25,3.33,3.28,3.28,0,0,1-2.52.91,3.59,3.59,0,0,1-2.78-1,6.44,6.44,0,0,1-1.59-4.71,7.53,7.53,0,0,1,1.69-5.25,3.59,3.59,0,0,1,2.65-1.07,3.47,3.47,0,0,1,2.5.94,6.49,6.49,0,0,1,1.51,4.52,9.12,9.12,0,0,1-.08,1.14H72.52a4.43,4.43,0,0,0,0,.65A3.48,3.48,0,0,0,73,76.46a.87.87,0,0,0,.68.31,1,1,0,0,0,.65-.21A2.75,2.75,0,0,0,74.78,75Zm-2.63-3.23a2.94,2.94,0,0,0-.52-1.9,1,1,0,0,0-.6-.23,1,1,0,0,0-.72.31,3.18,3.18,0,0,0-.5,1.82Z" transform="translate(0 0)"/>
    <path class="cls-2" d="M84.43,84.34V77.65a2.5,2.5,0,0,1-2.16,1.57c-2.68,0-3.15-4.11-3.15-6.09s.39-6,3.12-6a2.44,2.44,0,0,1,2.19,1.64V67.36h3.25v17Zm-.89-14.28c-1.06,0-1.14,2.39-1.14,3.12s.08,3.12,1.17,3.12,1.09-2.42,1.09-3.12S84.58,70.06,83.54,70.06Z" transform="translate(0 0)"/>
    <path class="cls-2" d="M97.9,75.21a3.64,3.64,0,0,1-.55,2.21,4.24,4.24,0,0,1-3.56,1.8,4.16,4.16,0,0,1-3.56-1.83,3.55,3.55,0,0,1-.47-2v-8H93v7.15c0,.57,0,1.69.8,1.69,1,0,.81-1.56.81-2.18V67.36H97.9Z" transform="translate(0 0)"/>
    <path class="cls-2" d="M107.75,75a5.31,5.31,0,0,1-1.25,3.33,3.27,3.27,0,0,1-2.52.91,3.59,3.59,0,0,1-2.78-1,6.44,6.44,0,0,1-1.59-4.71,7.58,7.58,0,0,1,1.69-5.25A3.59,3.59,0,0,1,104,67.15a3.47,3.47,0,0,1,2.5.94A6.49,6.49,0,0,1,108,72.61a9.12,9.12,0,0,1-.08,1.14h-5.15c0,.19,0,.42,0,.65a3.49,3.49,0,0,0,.46,2.06.89.89,0,0,0,.68.31,1,1,0,0,0,.65-.21A2.75,2.75,0,0,0,105,75Zm-2.63-3.23a2.94,2.94,0,0,0-.52-1.9,1,1,0,0,0-.59-.23,1,1,0,0,0-.73.31,3.18,3.18,0,0,0-.5,1.82Z" transform="translate(0 0)"/>
    <path class="cls-2" d="M114.59,79V71.86c0-.52,0-1.46-.78-1.46-.94,0-.89,1.2-.89,1.85V79h-3.25V67.36h3.25v1.82a3.13,3.13,0,0,1,2.76-2c2,0,2.16,1.87,2.16,3.43V79Z" transform="translate(0 0)"/>
    <path class="cls-2" d="M125.66,78.8a4.1,4.1,0,0,1-1.84.42c-3.12,0-4.24-3.28-4.24-5.91,0-2.83,1.07-6.19,4.45-6.19a4,4,0,0,1,1.63.34v2.86a1.21,1.21,0,0,0-.91-.39c-1.56,0-1.89,1.95-1.89,3.15s.26,3.09,1.84,3.09a1.63,1.63,0,0,0,1-.34Z" transform="translate(0 0)"/>
    <path class="cls-2" d="M135,75a5.31,5.31,0,0,1-1.25,3.33,3.28,3.28,0,0,1-2.52.91,3.63,3.63,0,0,1-2.79-1,6.49,6.49,0,0,1-1.58-4.71,7.53,7.53,0,0,1,1.69-5.25,3.59,3.59,0,0,1,2.65-1.07,3.47,3.47,0,0,1,2.5.94,6.49,6.49,0,0,1,1.51,4.52,9.12,9.12,0,0,1-.08,1.14H130a4.43,4.43,0,0,0,0,.65,3.48,3.48,0,0,0,.47,2.06.87.87,0,0,0,.68.31,1,1,0,0,0,.65-.21,2.75,2.75,0,0,0,.49-1.58Zm-2.63-3.23a2.94,2.94,0,0,0-.52-1.9,1,1,0,0,0-.6-.23,1.08,1.08,0,0,0-.73.31,3.26,3.26,0,0,0-.49,1.82Z" transform="translate(0 0)"/>
    <path class="cls-2" d="M142.35,70.5a2.22,2.22,0,0,0-1.53-.78.8.8,0,0,0-.83.84c0,1.4,3.64,1.11,3.64,4.62,0,2.21-1.33,4-3.67,4a5.69,5.69,0,0,1-3.53-1.33l1.43-2.32a2.48,2.48,0,0,0,1.58.73,1,1,0,0,0,1-1c0-1.46-3.79-1.25-3.79-4.76,0-2.23,1.79-3.43,3.87-3.43a4.88,4.88,0,0,1,3.09,1Z" transform="translate(0 0)"/>
    <path class="cls-2" d="M146.36,79.16A1.19,1.19,0,0,1,145.19,78a1.17,1.17,0,1,1,1.17,1.17Z" transform="translate(0 0)"/>
    <path class="cls-2" d="M158.24,61.64c3.48,0,4.39,1.53,4.39,4.81,0,3-1.17,4.24-4.21,4.24h-.65V79h-1.61V61.64Zm.6,7.56c2,0,2.16-1.43,2.16-3.06,0-1.82-.37-3-2.45-3h-.78V69.2Z" transform="translate(0 0)"/>
    <path class="cls-2" d="M169.65,75c-.07,1.87-.65,4.13-2.93,4.13-3,0-3.38-3.72-3.38-6s.44-6,3.27-6,3.15,3.51,3.15,5.56c0,.23,0,.49,0,.73h-4.91v.26c0,1.17.18,4,1.84,4,1.3,0,1.49-1.76,1.51-2.75Zm-1.35-2.81c-.05-1-.18-3.69-1.66-3.69s-1.74,2.62-1.8,3.69Z" transform="translate(0 0)"/>
    <path class="cls-2" d="M175.35,68.87c-1.95,0-2,1.56-2,3.06v7h-1.45V67.36h1.45v1.51a2.4,2.4,0,0,1,2-1.69Z" transform="translate(0 0)"/>
    <path class="cls-2" d="M181.4,78.56a2.77,2.77,0,0,1-1.66.6c-2.73,0-3.35-3.72-3.35-5.8s.46-6.18,3.43-6.18a3.12,3.12,0,0,1,1.58.44v1.71a2.05,2.05,0,0,0-1.45-.8c-1.85,0-2,3.4-2,4.7s.23,4.55,2,4.55a2,2,0,0,0,1.48-1Z" transform="translate(0 0)"/>
    <path class="cls-2" d="M189.1,75c-.08,1.87-.65,4.13-2.94,4.13-3,0-3.38-3.72-3.38-6s.45-6,3.28-6,3.15,3.51,3.15,5.56c0,.23,0,.49,0,.73h-4.91v.26c0,1.17.18,4,1.84,4,1.3,0,1.48-1.76,1.51-2.75Zm-1.35-2.81c-.05-1-.18-3.69-1.66-3.69s-1.75,2.62-1.8,3.69Z" transform="translate(0 0)"/>
    <path class="cls-2" d="M192.09,64.78a1.09,1.09,0,1,1,0-2.18,1.1,1.1,0,0,1,1.07,1.12A1.07,1.07,0,0,1,192.09,64.78ZM191.34,79V67.36h1.48V79Z" transform="translate(0 0)"/>
    <path class="cls-2" d="M198.51,79h-1.58l-2.66-11.62h1.51l1.54,6.94c.18.83.31,1.66.41,2.5.13-.81.26-1.64.42-2.45l1.43-7h1.51Z" transform="translate(0 0)"/>
    <path class="cls-2" d="M208.26,75c-.08,1.87-.65,4.13-2.94,4.13-3,0-3.38-3.72-3.38-6s.45-6,3.28-6,3.15,3.51,3.15,5.56c0,.23,0,.49,0,.73h-4.91v.26c0,1.17.18,4,1.84,4,1.3,0,1.48-1.76,1.51-2.75Zm-1.35-2.81c0-1-.18-3.69-1.66-3.69s-1.75,2.62-1.8,3.69Z" transform="translate(0 0)"/>
    <path class="cls-2" d="M214.81,79V78a2.31,2.31,0,0,1-2,1.12c-2.68,0-2.73-3.87-2.73-5.9,0-2.26,0-6.08,2.89-6.08a2.13,2.13,0,0,1,1.84,1V60h1.46V79Zm-1.5-10.63c-1.67,0-1.69,3-1.69,4.13,0,1,0,1.87.07,2.81s.24,2.68,1.59,2.68a1.22,1.22,0,0,0,1-.39c.7-.71.7-3.44.7-4.4C214.94,70.74,214.81,68.35,213.31,68.35Z" transform="translate(0 0)"/>
    <path class="cls-2" d="M228.36,68.87c-2,0-2,1.56-2,3.06v7h-1.45V67.36h1.45v1.51a2.4,2.4,0,0,1,2-1.69Z" transform="translate(0 0)"/>
    <path class="cls-2" d="M230.73,64.78a1.09,1.09,0,1,1,1.06-1.06A1.07,1.07,0,0,1,230.73,64.78ZM230,79V67.36h1.48V79Z" transform="translate(0 0)"/>
    <path class="cls-2" d="M238.42,69.72a2.74,2.74,0,0,0-2-1.19A1.45,1.45,0,0,0,235,70.06c0,2.26,3.74,2.68,3.74,5.83a3.13,3.13,0,0,1-3.12,3.27,3.5,3.5,0,0,1-2.15-.8V76.64a2.94,2.94,0,0,0,2,1.14A1.69,1.69,0,0,0,237.2,76c0-2.29-3.74-3.07-3.74-5.88a2.8,2.8,0,0,1,2.88-2.93,3.44,3.44,0,0,1,2.08.75Z" transform="translate(0 0)"/>
    <path class="cls-2" d="M245.57,79,242,73.42V79H240.5V60H242V72.09l2.91-4.73h1.64l-3.33,5.2L247.42,79Z" transform="translate(0 0)"/>
    <path class="cls-2" d="M252.41,69.72a2.74,2.74,0,0,0-2-1.19A1.45,1.45,0,0,0,249,70.06c0,2.26,3.74,2.68,3.74,5.83a3.13,3.13,0,0,1-3.12,3.27,3.55,3.55,0,0,1-2.16-.8V76.64a3,3,0,0,0,2.06,1.14A1.69,1.69,0,0,0,251.19,76c0-2.29-3.75-3.07-3.75-5.88a2.81,2.81,0,0,1,2.89-2.93,3.44,3.44,0,0,1,2.08.75Z" transform="translate(0 0)"/>
    <path class="cls-2" d="M265,79V78a2.28,2.28,0,0,1-2,1.12c-2.65,0-2.73-3.72-2.73-5.77,0-2.37.08-6.21,2.86-6.21a2.15,2.15,0,0,1,1.85,1v-.78h1.48V79Zm-1.49-10.63c-1.69,0-1.71,3-1.71,4.13,0,1,0,1.87.08,2.81s.26,2.68,1.61,2.68a1.16,1.16,0,0,0,.93-.39c.73-.73.73-3.46.73-4.48C265.12,70.79,265,68.35,263.48,68.35Z" transform="translate(0 0)"/>
    <path class="cls-2" d="M273.57,79V70.53c0-.94,0-2.16-1.3-2.16a1.65,1.65,0,0,0-1.38.76,3.59,3.59,0,0,0-.39,2V79h-1.45V67.36h1.45v.93a3.06,3.06,0,0,1,2.27-1.11c2,0,2.26,1.61,2.26,3.19V79Z" transform="translate(0 0)"/>
    <path class="cls-2" d="M281.92,79V78a2.31,2.31,0,0,1-2,1.12c-2.68,0-2.73-3.87-2.73-5.9,0-2.26,0-6.08,2.88-6.08a2.15,2.15,0,0,1,1.85,1V60h1.45V79Zm-1.51-10.63c-1.66,0-1.69,3-1.69,4.13,0,1,0,1.87.08,2.81S279,78,280.38,78a1.24,1.24,0,0,0,1-.39c.7-.71.7-3.44.7-4.4C282.05,70.74,281.92,68.35,280.41,68.35Z" transform="translate(0 0)"/>
    <path class="cls-2" d="M293.49,68.14a2.15,2.15,0,0,1,1.87-1c2.83,0,2.86,3.69,2.86,5.77,0,2.49-.08,6.21-2.73,6.21a2.41,2.41,0,0,1-2-1.12V79H292V60h1.46Zm1.51.21c-1.51,0-1.64,2.44-1.64,4.75,0,1,0,3.75.73,4.48A1.16,1.16,0,0,0,295,78c1.35,0,1.51-1.67,1.61-2.68s.08-1.82.08-2.73C296.71,71.39,296.69,68.35,295,68.35Z" transform="translate(0 0)"/>
    <path class="cls-2" d="M306.25,75c-.07,1.87-.65,4.13-2.93,4.13-3,0-3.38-3.72-3.38-6s.44-6,3.27-6,3.15,3.51,3.15,5.56c0,.23,0,.49,0,.73h-4.91v.26c0,1.17.18,4,1.84,4,1.3,0,1.49-1.76,1.51-2.75Zm-1.35-2.81c0-1-.18-3.69-1.66-3.69s-1.74,2.62-1.8,3.69Z" transform="translate(0 0)"/>
    <path class="cls-2" d="M313,79V70.53c0-.94,0-2.16-1.3-2.16a1.64,1.64,0,0,0-1.38.76,3.59,3.59,0,0,0-.39,2V79h-1.46V67.36H310v.93a3,3,0,0,1,2.26-1.11c1.95,0,2.27,1.61,2.27,3.19V79Z" transform="translate(0 0)"/>
    <path class="cls-2" d="M323,75c-.08,1.87-.65,4.13-2.94,4.13-3,0-3.38-3.72-3.38-6s.44-6,3.28-6,3.15,3.51,3.15,5.56c0,.23,0,.49,0,.73h-4.92v.26c0,1.17.19,4,1.85,4,1.3,0,1.48-1.76,1.51-2.75Zm-1.35-2.81c-.05-1-.18-3.69-1.66-3.69s-1.75,2.62-1.8,3.69Z" transform="translate(0 0)"/>
    <path class="cls-2" d="M327.13,68.71V79h-1.46V68.71h-1.32V67.36h1.32V62.7c0-1.48.39-3,2.16-3a3.25,3.25,0,0,1,1.3.26v1.61a1.73,1.73,0,0,0-1.06-.52c-.86,0-.94.78-.94,1.43v4.84h2v1.35ZM331,64.78a1.09,1.09,0,1,1,0-2.18A1.1,1.1,0,0,1,332,63.72,1.07,1.07,0,0,1,331,64.78ZM330.2,79V67.36h1.48V79Z" transform="translate(0 0)"/>
    <path class="cls-2" d="M336.23,68.71V79h-1.46V68.71h-1.24V67.36h1.24v-3.3h1.46v3.3h1.95v1.35Z" transform="translate(0 0)"/>
    <path class="cls-2" d="M343.9,69.72a2.74,2.74,0,0,0-2-1.19,1.45,1.45,0,0,0-1.43,1.53c0,2.26,3.74,2.68,3.74,5.83a3.13,3.13,0,0,1-3.12,3.27,3.55,3.55,0,0,1-2.16-.8V76.64A3,3,0,0,0,341,77.78,1.69,1.69,0,0,0,342.68,76c0-2.29-3.75-3.07-3.75-5.88a2.81,2.81,0,0,1,2.89-2.93,3.44,3.44,0,0,1,2.08.75Z" transform="translate(0 0)"/>
    <path class="cls-2" d="M35.19,110.18v-.93a2.31,2.31,0,0,1-2,1.11c-2.65,0-2.73-3.72-2.73-5.77,0-2.37.08-6.21,2.86-6.21a2.16,2.16,0,0,1,1.85,1v-.78h1.48v11.62ZM33.7,99.55c-1.69,0-1.71,3-1.71,4.13,0,1,0,1.87.07,2.81s.26,2.68,1.62,2.68a1.16,1.16,0,0,0,.93-.39c.73-.73.73-3.46.73-4.47C35.34,102,35.21,99.55,33.7,99.55Z" transform="translate(0 0)"/>
    <path class="cls-2" d="M42.7,100.07c-2,0-2,1.56-2,3.07v7H39.27V98.56h1.45v1.51a2.4,2.4,0,0,1,2-1.69Z" transform="translate(0 0)"/>
    <path class="cls-2" d="M50.06,106.23c-.08,1.87-.65,4.13-2.94,4.13-3,0-3.38-3.72-3.38-6s.44-6,3.27-6,3.15,3.51,3.15,5.56c0,.24,0,.49,0,.73H45.22v.26c0,1.17.18,4,1.85,4,1.3,0,1.48-1.76,1.5-2.75Zm-1.36-2.81c-.05-1-.18-3.69-1.66-3.69s-1.74,2.62-1.79,3.69Z" transform="translate(0 0)"/>
    <path class="cls-2" d="M60.27,99.91v10.27H58.82V99.91H57.49V98.56h1.33V93.9c0-1.48.39-3,2.16-3a3.28,3.28,0,0,1,1.3.26v1.61a1.75,1.75,0,0,0-1.07-.52c-.86,0-.94.78-.94,1.43v4.84h2v1.35Z" transform="translate(0 0)"/>
    <path class="cls-2" d="M66.59,110.36c-3,0-3.4-3.74-3.4-6s.41-6,3.4-6,3.25,3.82,3.25,6.05S69.58,110.36,66.59,110.36Zm0-10.63c-1.8,0-1.85,3.54-1.85,4.76S64.8,109,66.57,109s1.76-3.45,1.76-4.62S68.28,99.73,66.57,99.73Z" transform="translate(0 0)"/>
    <path class="cls-2" d="M75.46,100.07c-1.95,0-2,1.56-2,3.07v7H72V98.56h1.45v1.51a2.4,2.4,0,0,1,2-1.69Z" transform="translate(0 0)"/>
    <path class="cls-2" d="M89,106.23c-.08,1.87-.65,4.13-2.94,4.13-3,0-3.38-3.72-3.38-6s.44-6,3.28-6,3.14,3.51,3.14,5.56c0,.24,0,.49,0,.73H84.19v.26c0,1.17.19,4,1.85,4,1.3,0,1.48-1.76,1.51-2.75Zm-1.35-2.81c-.05-1-.18-3.69-1.67-3.69s-1.74,2.62-1.79,3.69Z" transform="translate(0 0)"/>
    <path class="cls-2" d="M95.43,110.18l-1.28-3.3a14.42,14.42,0,0,1-.57-1.72,10.45,10.45,0,0,1-.52,1.74l-1.25,3.28H90.17l2.65-6-2.36-5.67h1.61a39.83,39.83,0,0,1,1.64,4.91,27,27,0,0,1,1.72-4.91h1.63l-2.6,5.67,2.6,6Z" transform="translate(0 0)"/>
    <path class="cls-2" d="M102.76,110.18v-.93a2.29,2.29,0,0,1-2,1.11c-2.65,0-2.73-3.72-2.73-5.77,0-2.37.08-6.21,2.86-6.21a2.15,2.15,0,0,1,1.85,1v-.78h1.48v11.62Zm-1.49-10.63c-1.69,0-1.71,3-1.71,4.13,0,1,0,1.87.08,2.81s.26,2.68,1.61,2.68a1.19,1.19,0,0,0,.94-.39c.72-.73.72-3.46.72-4.47C102.91,102,102.78,99.55,101.27,99.55Z" transform="translate(0 0)"/>
    <path class="cls-2" d="M117.45,110.18H116v-8.61c0-1-.16-2-1.35-2-1.69,0-1.77,1.9-1.77,3.17v7.44h-1.48V101.6c0-.86-.08-2-1.22-2-1.82,0-1.88,2.06-1.88,3.41v7.2h-1.45V98.56h1.45v1a3.12,3.12,0,0,1,2.27-1.14,2.28,2.28,0,0,1,2.13,1.35,2.81,2.81,0,0,1,2.39-1.35c1.87,0,2.37,1.22,2.37,2.88Z" transform="translate(0 0)"/>
    <path class="cls-2" d="M121.42,99.34a2.12,2.12,0,0,1,1.85-1c2.86,0,2.89,3.66,2.89,5.77,0,2.49-.08,6.21-2.73,6.21a2.45,2.45,0,0,1-2-1.11v5.61H120V98.56h1.45Zm1.51.21c-1.51,0-1.64,2.44-1.64,4.76,0,1,0,3.74.73,4.47a1.18,1.18,0,0,0,.94.39c1.35,0,1.51-1.67,1.61-2.68s.08-1.82.08-2.73C124.65,102.59,124.62,99.55,122.93,99.55Z" transform="translate(0 0)"/>
    <path class="cls-2" d="M128.31,110.18v-19h1.49v19Z" transform="translate(0 0)"/>
    <path class="cls-2" d="M138.27,106.23c-.07,1.87-.65,4.13-2.93,4.13-3,0-3.38-3.72-3.38-6s.44-6,3.27-6,3.15,3.51,3.15,5.56c0,.24,0,.49,0,.73h-4.91v.26c0,1.17.18,4,1.84,4,1.3,0,1.49-1.76,1.51-2.75Zm-1.35-2.81c0-1-.18-3.69-1.66-3.69s-1.74,2.62-1.8,3.69Z" transform="translate(0 0)"/>
    <path class="cls-2" d="M150.88,110.18v-.93a2.33,2.33,0,0,1-2,1.11c-2.68,0-2.73-3.87-2.73-5.9,0-2.26,0-6.08,2.89-6.08a2.13,2.13,0,0,1,1.84,1V91.23h1.46v19Zm-1.51-10.63c-1.66,0-1.69,3-1.69,4.13,0,1,0,1.87.08,2.81s.24,2.68,1.59,2.68a1.22,1.22,0,0,0,1-.39c.7-.71.7-3.43.7-4.4C151,101.94,150.88,99.55,149.37,99.55Z" transform="translate(0 0)"/>
    <path class="cls-2" d="M155.67,96a1.09,1.09,0,1,1,1.06-1.06A1.07,1.07,0,0,1,155.67,96Zm-.76,14.2V98.56h1.48v11.62Z" transform="translate(0 0)"/>
    <path class="cls-2" d="M163.36,100.93a2.72,2.72,0,0,0-2-1.2,1.45,1.45,0,0,0-1.43,1.53c0,2.26,3.74,2.68,3.74,5.83a3.13,3.13,0,0,1-3.12,3.27,3.5,3.5,0,0,1-2.15-.8v-1.72a2.94,2.94,0,0,0,2,1.14,1.69,1.69,0,0,0,1.69-1.79c0-2.29-3.74-3.07-3.74-5.88a2.8,2.8,0,0,1,2.88-2.93,3.44,3.44,0,0,1,2.08.75Z" transform="translate(0 0)"/>
    <path class="cls-2" d="M170,109.77a2.85,2.85,0,0,1-1.67.59c-2.73,0-3.35-3.72-3.35-5.8s.47-6.18,3.43-6.18a3.15,3.15,0,0,1,1.59.44v1.71a2.09,2.09,0,0,0-1.46-.8c-1.84,0-2,3.41-2,4.7s.24,4.55,2,4.55a2,2,0,0,0,1.48-1Z" transform="translate(0 0)"/>
    <path class="cls-2" d="M175.27,100.07c-2,0-2,1.56-2,3.07v7h-1.45V98.56h1.45v1.51a2.41,2.41,0,0,1,2-1.69Z" transform="translate(0 0)"/>
    <path class="cls-2" d="M177.64,96a1.09,1.09,0,1,1,1.06-1.06A1.07,1.07,0,0,1,177.64,96Zm-.76,14.2V98.56h1.48v11.62Z" transform="translate(0 0)"/>
    <path class="cls-2" d="M191.55,110.18h-1.46v-8.61c0-1-.16-2-1.35-2-1.69,0-1.77,1.9-1.77,3.17v7.44h-1.48V101.6c0-.86-.08-2-1.22-2-1.82,0-1.88,2.06-1.88,3.41v7.2h-1.45V98.56h1.45v1a3.12,3.12,0,0,1,2.27-1.14,2.28,2.28,0,0,1,2.13,1.35,2.81,2.81,0,0,1,2.39-1.35c1.87,0,2.37,1.22,2.37,2.88Z" transform="translate(0 0)"/>
    <path class="cls-2" d="M194.87,96a1.09,1.09,0,1,1,0-2.18,1.1,1.1,0,0,1,1.07,1.12A1.07,1.07,0,0,1,194.87,96Zm-.75,14.2V98.56h1.48v11.62Z" transform="translate(0 0)"/>
    <path class="cls-2" d="M202.7,110.18v-8.45c0-.94,0-2.16-1.3-2.16a1.64,1.64,0,0,0-1.38.76,3.59,3.59,0,0,0-.39,2v7.83h-1.45V98.56h1.45v.93a3.05,3.05,0,0,1,2.26-1.11c2,0,2.27,1.61,2.27,3.19v8.61Z" transform="translate(0 0)"/>
    <path class="cls-2" d="M211.17,110.18v-.93a2.28,2.28,0,0,1-2,1.11c-2.65,0-2.73-3.72-2.73-5.77,0-2.37.08-6.21,2.86-6.21a2.13,2.13,0,0,1,1.84,1v-.78h1.49v11.62Zm-1.48-10.63c-1.69,0-1.71,3-1.71,4.13,0,1,0,1.87.07,2.81s.26,2.68,1.62,2.68a1.16,1.16,0,0,0,.93-.39c.73-.73.73-3.46.73-4.47C211.33,102,211.2,99.55,209.69,99.55Z" transform="translate(0 0)"/>
    <path class="cls-2" d="M217.15,99.91v10.27H215.7V99.91h-1.25V98.56h1.25v-3.3h1.45v3.3h1.95v1.35Z" transform="translate(0 0)"/>
    <path class="cls-2" d="M221.16,96a1.09,1.09,0,1,1,1.06-1.06A1.06,1.06,0,0,1,221.16,96Zm-.76,14.2V98.56h1.49v11.62Z" transform="translate(0 0)"/>
    <path class="cls-2" d="M227.42,110.36c-3,0-3.4-3.74-3.4-6s.41-6,3.4-6,3.25,3.82,3.25,6.05S230.41,110.36,227.42,110.36Zm0-10.63c-1.8,0-1.85,3.54-1.85,4.76s.08,4.49,1.85,4.49,1.77-3.45,1.77-4.62S229.11,99.73,227.4,99.73Z" transform="translate(0 0)"/>
    <path class="cls-2" d="M237.38,110.18v-8.45c0-.94,0-2.16-1.3-2.16a1.65,1.65,0,0,0-1.38.76,3.59,3.59,0,0,0-.39,2v7.83h-1.45V98.56h1.45v.93a3.09,3.09,0,0,1,2.27-1.11c1.95,0,2.26,1.61,2.26,3.19v8.61Z" transform="translate(0 0)"/>
    <path class="cls-2" d="M251.92,110.18v-.93a2.29,2.29,0,0,1-2,1.11c-2.65,0-2.73-3.72-2.73-5.77,0-2.37.08-6.21,2.86-6.21a2.15,2.15,0,0,1,1.85,1v-.78h1.48v11.62Zm-1.49-10.63c-1.69,0-1.71,3-1.71,4.13,0,1,0,1.87.07,2.81s.27,2.68,1.62,2.68a1.16,1.16,0,0,0,.93-.39c.73-.73.73-3.46.73-4.47C252.07,102,251.94,99.55,250.43,99.55Z" transform="translate(0 0)"/>
    <path class="cls-2" d="M260.52,110.18v-8.45c0-.94,0-2.16-1.3-2.16a1.65,1.65,0,0,0-1.38.76,3.59,3.59,0,0,0-.39,2v7.83H256V98.56h1.45v.93a3.09,3.09,0,0,1,2.27-1.11c1.95,0,2.26,1.61,2.26,3.19v8.61Z" transform="translate(0 0)"/>
    <path class="cls-2" d="M268.87,110.18v-.93a2.34,2.34,0,0,1-2,1.11c-2.67,0-2.73-3.87-2.73-5.9,0-2.26,0-6.08,2.89-6.08a2.15,2.15,0,0,1,1.85,1V91.23h1.45v19Zm-1.51-10.63c-1.67,0-1.69,3-1.69,4.13,0,1,0,1.87.08,2.81s.23,2.68,1.58,2.68a1.22,1.22,0,0,0,1-.39c.71-.71.71-3.43.71-4.4C269,101.94,268.87,99.55,267.36,99.55Z" transform="translate(0 0)"/>
    <path class="cls-2" d="M284.86,106.23c-.08,1.87-.65,4.13-2.94,4.13-3,0-3.38-3.72-3.38-6s.44-6,3.27-6,3.15,3.51,3.15,5.56c0,.24,0,.49,0,.73H280v.26c0,1.17.18,4,1.85,4,1.3,0,1.48-1.76,1.51-2.75Zm-1.36-2.81c-.05-1-.18-3.69-1.66-3.69s-1.74,2.62-1.79,3.69Z" transform="translate(0 0)"/>
    <path class="cls-2" d="M289,99.91v10.27h-1.46V99.91h-1.33V98.56h1.33V93.9c0-1.48.39-3,2.16-3a3.28,3.28,0,0,1,1.3.26v1.61a1.73,1.73,0,0,0-1.07-.52c-.86,0-.93.78-.93,1.43v4.84h2v1.35Z" transform="translate(0 0)"/>
    <path class="cls-2" d="M294.32,99.91v10.27h-1.46V99.91h-1.32V98.56h1.32V93.9c0-1.48.39-3,2.16-3a3.25,3.25,0,0,1,1.3.26v1.61a1.73,1.73,0,0,0-1.06-.52c-.86,0-.94.78-.94,1.43v4.84h2v1.35ZM298.14,96a1.09,1.09,0,1,1,0-2.18,1.1,1.1,0,0,1,1.07,1.12A1.07,1.07,0,0,1,298.14,96Zm-.75,14.2V98.56h1.48v11.62Z" transform="translate(0 0)"/>
    <path class="cls-2" d="M306.1,109.77a2.85,2.85,0,0,1-1.67.59c-2.73,0-3.35-3.72-3.35-5.8s.47-6.18,3.43-6.18a3.15,3.15,0,0,1,1.59.44v1.71a2.09,2.09,0,0,0-1.46-.8c-1.84,0-2,3.41-2,4.7s.24,4.55,2,4.55a2,2,0,0,0,1.48-1Z" transform="translate(0 0)"/>
    <path class="cls-2" d="M308.65,96a1.09,1.09,0,1,1,1.06-1.06A1.07,1.07,0,0,1,308.65,96Zm-.76,14.2V98.56h1.48v11.62Z" transform="translate(0 0)"/>
    <path class="cls-2" d="M317.82,106.23c-.07,1.87-.65,4.13-2.93,4.13-3,0-3.38-3.72-3.38-6s.44-6,3.27-6,3.15,3.51,3.15,5.56c0,.24,0,.49,0,.73H313v.26c0,1.17.18,4,1.84,4,1.3,0,1.49-1.76,1.51-2.75Zm-1.35-2.81c-.05-1-.18-3.69-1.66-3.69s-1.74,2.62-1.8,3.69Z" transform="translate(0 0)"/>
    <path class="cls-2" d="M324.61,110.18v-8.45c0-.94,0-2.16-1.3-2.16a1.64,1.64,0,0,0-1.38.76,3.59,3.59,0,0,0-.39,2v7.83h-1.46V98.56h1.46v.93a3.05,3.05,0,0,1,2.26-1.11c1.95,0,2.27,1.61,2.27,3.19v8.61Z" transform="translate(0 0)"/>
    <path class="cls-2" d="M333.24,109.77a2.85,2.85,0,0,1-1.66.59c-2.73,0-3.36-3.72-3.36-5.8s.47-6.18,3.43-6.18a3.13,3.13,0,0,1,1.59.44v1.71a2.09,2.09,0,0,0-1.46-.8c-1.84,0-2,3.41-2,4.7s.23,4.55,2,4.55a2,2,0,0,0,1.48-1Z" transform="translate(0 0)"/>
    <path class="cls-2" d="M337.37,114.86h-1.56l1.3-5-2.75-11.31h1.48L337.3,105c.23,1,.41,1.95.54,2.91.11-.73.29-1.43.47-2.19L340,98.56h1.53Z" transform="translate(0 0)"/>
    <path class="cls-2" d="M343.3,110.36a1.2,1.2,0,0,1-1.17-1.17,1.17,1.17,0,1,1,1.17,1.17Z" transform="translate(0 0)"/>
    <path class="cls-2" d="M36.46,141.38v-8.94h-4v8.94H30.9V124h1.61V131h4V124h1.61v17.34Z" transform="translate(0 0)"/>
    <path class="cls-2" d="M43.74,141.56c-3,0-3.41-3.74-3.41-6s.42-6,3.41-6S47,133.4,47,135.64,46.73,141.56,43.74,141.56Zm0-10.63c-1.79,0-1.84,3.54-1.84,4.76s.07,4.49,1.84,4.49,1.77-3.45,1.77-4.62S45.43,130.93,43.71,130.93Z" transform="translate(0 0)"/>
    <path class="cls-2" d="M52.14,141.38H50.55L47.9,129.76h1.51l1.53,6.94c.18.83.31,1.66.42,2.5.13-.81.26-1.64.41-2.45l1.43-7h1.51Z" transform="translate(0 0)"/>
    <path class="cls-2" d="M61.89,137.43c-.08,1.87-.65,4.13-2.94,4.13-3,0-3.38-3.71-3.38-5.95s.44-6,3.27-6S62,133.09,62,135.14c0,.24,0,.5,0,.73H57.05v.26c0,1.17.18,4.05,1.85,4.05,1.3,0,1.48-1.76,1.5-2.75Zm-1.36-2.81c-.05-1-.18-3.69-1.66-3.69s-1.74,2.63-1.79,3.69Z" transform="translate(0 0)"/>
    <path class="cls-2" d="M67.58,131.27c-2,0-2,1.56-2,3.07v7H64.15V129.76H65.6v1.51a2.41,2.41,0,0,1,2-1.69Z" transform="translate(0 0)"/>
    <path class="cls-2" d="M78.24,141.56c-3,0-3.41-3.74-3.41-6s.42-6,3.41-6,3.25,3.82,3.25,6.06S81.23,141.56,78.24,141.56Zm0-10.63c-1.79,0-1.84,3.54-1.84,4.76s.08,4.49,1.84,4.49S80,136.73,80,135.56,79.93,130.93,78.21,130.93Z" transform="translate(0 0)"/>
    <path class="cls-2" d="M86.64,141.38H85.05L82.4,129.76h1.51l1.53,6.94c.18.83.31,1.66.42,2.5.13-.81.26-1.64.41-2.45l1.43-7h1.51Z" transform="translate(0 0)"/>
    <path class="cls-2" d="M96.39,137.43c-.08,1.87-.65,4.13-2.94,4.13-3,0-3.38-3.71-3.38-5.95s.44-6,3.28-6,3.14,3.51,3.14,5.56c0,.24,0,.5,0,.73H91.55v.26c0,1.17.18,4.05,1.85,4.05,1.3,0,1.48-1.76,1.51-2.75ZM95,134.62c-.06-1-.19-3.69-1.67-3.69s-1.74,2.63-1.79,3.69Z" transform="translate(0 0)"/>
    <path class="cls-2" d="M102.08,131.27c-2,0-2,1.56-2,3.07v7H98.65V129.76h1.45v1.51a2.42,2.42,0,0,1,2-1.69Z" transform="translate(0 0)"/>
    <path class="cls-2" d="M111.68,131.11v10.27h-1.46V131.11H109v-1.35h1.25v-3.3h1.46v3.3h1.95v1.35Z" transform="translate(0 0)"/>
    <path class="cls-2" d="M119.48,141.38v-8.45c0-.94,0-2.16-1.3-2.16a1.63,1.63,0,0,0-1.38.76,3.64,3.64,0,0,0-.39,2v7.82H115V122.43h1.46v8.26a3,3,0,0,1,2.26-1.11c1.9,0,2.26,1.35,2.26,3v8.81Z" transform="translate(0 0)"/>
    <path class="cls-2" d="M129.12,137.43c-.08,1.87-.65,4.13-2.94,4.13-3,0-3.38-3.71-3.38-5.95s.44-6,3.28-6,3.15,3.51,3.15,5.56c0,.24,0,.5,0,.73h-4.92v.26c0,1.17.19,4.05,1.85,4.05,1.3,0,1.48-1.76,1.51-2.75Zm-1.35-2.81c0-1-.18-3.69-1.67-3.69s-1.74,2.63-1.79,3.69Z" transform="translate(0 0)"/>
    <path class="cls-2" d="M141.86,141.38v-.94a2.28,2.28,0,0,1-2,1.12c-2.65,0-2.73-3.71-2.73-5.77,0-2.36.08-6.21,2.86-6.21a2.13,2.13,0,0,1,1.85,1v-.78h1.48v11.62Zm-1.48-10.63c-1.69,0-1.72,3-1.72,4.13,0,1,0,1.87.08,2.81s.26,2.68,1.61,2.68a1.18,1.18,0,0,0,.94-.39c.73-.73.73-3.46.73-4.47C142,133.19,141.89,130.75,140.38,130.75Z" transform="translate(0 0)"/>
    <path class="cls-2" d="M149.37,131.27c-2,0-2,1.56-2,3.07v7h-1.46V129.76h1.46v1.51a2.4,2.4,0,0,1,2-1.69Z" transform="translate(0 0)"/>
    <path class="cls-2" d="M156.73,137.43c-.08,1.87-.65,4.13-2.94,4.13-3,0-3.38-3.71-3.38-5.95s.45-6,3.28-6,3.15,3.51,3.15,5.56c0,.24,0,.5,0,.73H151.9v.26c0,1.17.18,4.05,1.84,4.05,1.3,0,1.48-1.76,1.51-2.75Zm-1.35-2.81c0-1-.18-3.69-1.66-3.69s-1.75,2.63-1.8,3.69Z" transform="translate(0 0)"/>
    <path class="cls-2" d="M163.41,141.38v-.94a2.27,2.27,0,0,1-2,1.12c-2.65,0-2.73-3.71-2.73-5.77,0-2.36.08-6.21,2.86-6.21a2.13,2.13,0,0,1,1.84,1v-.78h1.49v11.62Zm-1.48-10.63c-1.69,0-1.71,3-1.71,4.13,0,1,0,1.87.07,2.81s.26,2.68,1.62,2.68a1.16,1.16,0,0,0,.93-.39c.73-.73.73-3.46.73-4.47C163.57,133.19,163.44,130.75,161.93,130.75Z" transform="translate(0 0)"/>
    <path class="cls-2" d="M180.76,128a3.94,3.94,0,0,0-2.47-1.11,1.61,1.61,0,0,0-1.72,1.69c0,3,5.2,2.93,5.2,7.77,0,3-1.79,5.36-4.94,5.36a5.27,5.27,0,0,1-3-.89v-3.27a4.57,4.57,0,0,0,2.55.93,1.87,1.87,0,0,0,2-1.92,2.05,2.05,0,0,0-.19-.88,5.42,5.42,0,0,0-1.84-1.62c-1.95-1.35-3.2-2.6-3.2-5.12,0-2.73,1.59-5.12,4.52-5.12a5.76,5.76,0,0,1,3,.83Z" transform="translate(0 0)"/>
    <path class="cls-2" d="M191.6,137.61a3.64,3.64,0,0,1-.55,2.21,4.24,4.24,0,0,1-3.56,1.8,4.17,4.17,0,0,1-3.56-1.82,3.6,3.6,0,0,1-.47-2v-8h3.25v7.15c0,.57,0,1.69.8,1.69,1,0,.81-1.56.81-2.18v-6.66h3.28Z" transform="translate(0 0)"/>
    <path class="cls-2" d="M196.93,131.19a2.42,2.42,0,0,1,2.18-1.64c2.73,0,3.12,3.95,3.12,6s-.47,6.09-3.15,6.09a2.48,2.48,0,0,1-2.15-1.56v1.32h-3.25V122.43h3.25Zm.85,1.27c-1,0-1.09,2.42-1.09,3.12s.08,3.12,1.12,3.12,1.14-2.39,1.14-3.12S198.88,132.46,197.78,132.46Z" transform="translate(0 0)"/>
    <path class="cls-2" d="M205.66,128a2.06,2.06,0,1,1,2.06-2.06A2,2,0,0,1,205.66,128ZM204,146.74v-17h3.25v17Z" transform="translate(0 0)"/>
    <path class="cls-2" d="M217.1,137.38a5.25,5.25,0,0,1-1.25,3.33,3.27,3.27,0,0,1-2.52.91,3.59,3.59,0,0,1-2.78-1,6.48,6.48,0,0,1-1.59-4.71,7.58,7.58,0,0,1,1.69-5.25,3.59,3.59,0,0,1,2.66-1.07,3.42,3.42,0,0,1,2.49.94,6.5,6.5,0,0,1,1.51,4.52,8.86,8.86,0,0,1-.08,1.14h-5.15c0,.19,0,.42,0,.66a3.4,3.4,0,0,0,.47,2.05.85.85,0,0,0,.67.31,1,1,0,0,0,.65-.21,2.76,2.76,0,0,0,.5-1.58Zm-2.62-3.23a3,3,0,0,0-.52-1.89,1,1,0,0,0-.6-.24,1,1,0,0,0-.73.31,3.18,3.18,0,0,0-.49,1.82Z" transform="translate(0 0)"/>
    <path class="cls-2" d="M224.77,141.2a4.1,4.1,0,0,1-1.84.42c-3.12,0-4.24-3.28-4.24-5.91,0-2.83,1.06-6.19,4.44-6.19a4,4,0,0,1,1.64.34v2.86a1.21,1.21,0,0,0-.91-.39c-1.56,0-1.9,1.95-1.9,3.15s.26,3.09,1.85,3.09a1.63,1.63,0,0,0,1-.34Z" transform="translate(0 0)"/>
    <path class="cls-2" d="M230.44,132.46v8.92h-3.25v-8.92h-1.12v-2.7h1.12v-3.3h3.25v3.3h1.33v2.7Z" transform="translate(0 0)"/>
    <path class="cls-2" d="M234.55,128a2.06,2.06,0,1,1,2-2.06A2,2,0,0,1,234.55,128Zm-1.64,13.36V129.76h3.25v11.62Z" transform="translate(0 0)"/>
    <path class="cls-2" d="M243.41,141.38h-3l-3.33-11.62h3.2c.55,2.18,1.15,4.37,1.59,6.58.08-.5.23-1,.34-1.43l1.19-5.15h3.38Z" transform="translate(0 0)"/>
    <path class="cls-2" d="M255.24,137.38a5.3,5.3,0,0,1-1.24,3.33,3.3,3.3,0,0,1-2.53.91,3.61,3.61,0,0,1-2.78-1,6.48,6.48,0,0,1-1.59-4.71,7.58,7.58,0,0,1,1.69-5.25,3.61,3.61,0,0,1,2.66-1.07,3.42,3.42,0,0,1,2.49.94,6.46,6.46,0,0,1,1.51,4.52,8.86,8.86,0,0,1-.08,1.14h-5.15c0,.19,0,.42,0,.66a3.4,3.4,0,0,0,.47,2.05.85.85,0,0,0,.67.31A1,1,0,0,0,252,139a2.76,2.76,0,0,0,.5-1.58Zm-2.62-3.23a3,3,0,0,0-.52-1.89,1,1,0,0,0-.6-.24,1,1,0,0,0-.73.31,3.18,3.18,0,0,0-.49,1.82Z" transform="translate(0 0)"/>
    <path class="cls-2" d="M267.7,124a5.3,5.3,0,0,1,2.91.57,5.16,5.16,0,0,1,2.36,4.58c0,3.64-2.57,5.33-6,5.07v7.12h-3.43V124Zm-.52,7.33c1.56,0,2.39-.55,2.39-2.21,0-1.38-.47-2.34-2-2.34H267v4.55Z" transform="translate(0 0)"/>
    <path class="cls-2" d="M281.87,137.38a5.31,5.31,0,0,1-1.25,3.33,3.28,3.28,0,0,1-2.52.91,3.62,3.62,0,0,1-2.79-1,6.49,6.49,0,0,1-1.58-4.71,7.53,7.53,0,0,1,1.69-5.25,3.59,3.59,0,0,1,2.65-1.07,3.47,3.47,0,0,1,2.5.94,6.5,6.5,0,0,1,1.5,4.52,8.83,8.83,0,0,1-.07,1.14h-5.15a4.51,4.51,0,0,0,0,.66,3.47,3.47,0,0,0,.47,2.05.87.87,0,0,0,.68.31,1,1,0,0,0,.65-.21,2.82,2.82,0,0,0,.49-1.58Zm-2.63-3.23a3,3,0,0,0-.52-1.89,1,1,0,0,0-.6-.24,1.08,1.08,0,0,0-.73.31,3.26,3.26,0,0,0-.49,1.82Z" transform="translate(0 0)"/>
    <path class="cls-2" d="M289.72,132.49a2.5,2.5,0,0,0-.47-.05c-1.95,0-2.21,1.09-2.21,2.78v6.16h-3.25V129.76H287v1.43a3.57,3.57,0,0,1,2.68-1.85Z" transform="translate(0 0)"/>
    <path class="cls-2" d="M296.71,141.2a4.1,4.1,0,0,1-1.84.42c-3.12,0-4.24-3.28-4.24-5.91,0-2.83,1.06-6.19,4.44-6.19a4,4,0,0,1,1.64.34v2.86a1.21,1.21,0,0,0-.91-.39c-1.56,0-1.9,1.95-1.9,3.15s.26,3.09,1.85,3.09a1.63,1.63,0,0,0,1-.34Z" transform="translate(0 0)"/>
    <path class="cls-2" d="M306.05,137.38a5.31,5.31,0,0,1-1.25,3.33,3.28,3.28,0,0,1-2.52.91,3.62,3.62,0,0,1-2.79-1,6.49,6.49,0,0,1-1.58-4.71,7.53,7.53,0,0,1,1.69-5.25,3.59,3.59,0,0,1,2.65-1.07,3.47,3.47,0,0,1,2.5.94,6.5,6.5,0,0,1,1.5,4.52,8.83,8.83,0,0,1-.07,1.14H301a4.51,4.51,0,0,0,0,.66,3.47,3.47,0,0,0,.47,2.05.87.87,0,0,0,.68.31,1,1,0,0,0,.65-.21,2.82,2.82,0,0,0,.49-1.58Zm-2.63-3.23a3,3,0,0,0-.52-1.89,1,1,0,0,0-.6-.24,1.08,1.08,0,0,0-.73.31,3.26,3.26,0,0,0-.49,1.82Z" transform="translate(0 0)"/>
    <path class="cls-2" d="M311.22,131.19a2.43,2.43,0,0,1,2.18-1.64c2.73,0,3.12,3.95,3.12,6s-.47,6.09-3.14,6.09a2.51,2.51,0,0,1-2.16-1.56v6.68H308v-17h3.25Zm.86,1.27c-1,0-1.1,2.42-1.1,3.12s.08,3.12,1.12,3.12,1.15-2.39,1.15-3.12S313.17,132.46,312.08,132.46Z" transform="translate(0 0)"/>
    <path class="cls-2" d="M321.83,132.46v8.92h-3.25v-8.92h-1.12v-2.7h1.12v-3.3h3.25v3.3h1.32v2.7Z" transform="translate(0 0)"/>
    <path class="cls-2" d="M325.94,128A2.06,2.06,0,1,1,328,126,2,2,0,0,1,325.94,128Zm-1.64,13.36V129.76h3.25v11.62Z" transform="translate(0 0)"/>
    <path class="cls-2" d="M333.68,141.62c-3.33,0-4.42-3.23-4.42-6s1.09-6,4.42-6,4.37,3.15,4.37,6S337.12,141.62,333.68,141.62Zm0-9.16c-1.06,0-1.14,2.37-1.14,3.12s.08,3.12,1.14,3.12,1.09-2.42,1.09-3.12S334.7,132.46,333.68,132.46Z" transform="translate(0 0)"/>
    <path class="cls-2" d="M344.71,141.38v-7.12c0-.52,0-1.46-.78-1.46-.94,0-.89,1.2-.89,1.85v6.73h-3.25V129.76H343v1.82a3.13,3.13,0,0,1,2.76-2c2,0,2.16,1.87,2.16,3.43v8.4Z" transform="translate(0 0)"/>
    <path class="cls-2" d="M34.25,158.44v3.69H37.4v3.3H34.25v7.15H30.82V155.24h6.91v3.2Z" transform="translate(0 0)"/>
    <path class="cls-2" d="M44.39,172.58v-1.32a2.51,2.51,0,0,1-2.16,1.56c-2.68,0-3.14-4.11-3.14-6.09s.39-6,3.12-6a2.44,2.44,0,0,1,2.18,1.64V161h3.25v11.62Zm-.88-8.92c-1.07,0-1.15,2.4-1.15,3.12s.08,3.12,1.17,3.12,1.09-2.41,1.09-3.12S44.55,163.66,43.51,163.66Z" transform="translate(0 0)"/>
    <path class="cls-2" d="M55.47,172.4a4.31,4.31,0,0,1-1.85.42c-3.12,0-4.24-3.28-4.24-5.91,0-2.83,1.07-6.19,4.45-6.19a4.05,4.05,0,0,1,1.64.34v2.86a1.23,1.23,0,0,0-.91-.39c-1.56,0-1.9,1.95-1.9,3.15s.26,3.09,1.84,3.09a1.68,1.68,0,0,0,1-.34Z" transform="translate(0 0)"/>
    <path class="cls-2" d="M58.72,159.22a2.06,2.06,0,1,1,2.05-2.06A2,2,0,0,1,58.72,159.22Zm-1.64,13.36V161h3.25v11.62Z" transform="translate(0 0)"/>
    <path class="cls-2" d="M67.35,172.58v-1.32a2.51,2.51,0,0,1-2.16,1.56c-2.68,0-3.15-4.11-3.15-6.09s.39-6,3.12-6a2.44,2.44,0,0,1,2.19,1.64V161H70.6v11.62Zm-.89-8.92c-1.06,0-1.14,2.4-1.14,3.12s.08,3.12,1.17,3.12,1.09-2.41,1.09-3.12S67.5,163.66,66.46,163.66Z" transform="translate(0 0)"/>
    <path class="cls-2" d="M72.68,172.58v-19h3.25v19Z" transform="translate(0 0)"/>
    <path class="cls-2" d="M90.85,172.58l-3-8v8H84.38V155.24h3.71a6.73,6.73,0,0,1,3.77.83,5,5,0,0,1,2.06,4.21,4.78,4.78,0,0,1-2.47,4.42l3,7.88Zm-3-9.88a3.63,3.63,0,0,0,.57,0,2.14,2.14,0,0,0,2.21-2.42c0-1.41-.62-2.37-2.13-2.37h-.65Z" transform="translate(0 0)"/>
    <path class="cls-2" d="M103.72,168.58a5.31,5.31,0,0,1-1.25,3.33,3.27,3.27,0,0,1-2.52.91,3.59,3.59,0,0,1-2.78-1,6.44,6.44,0,0,1-1.59-4.71,7.58,7.58,0,0,1,1.69-5.25,3.59,3.59,0,0,1,2.65-1.07,3.47,3.47,0,0,1,2.5.94,6.5,6.5,0,0,1,1.51,4.52,8.86,8.86,0,0,1-.08,1.14H98.7c0,.19,0,.42,0,.66a3.47,3.47,0,0,0,.46,2.05.89.89,0,0,0,.68.31,1,1,0,0,0,.65-.21,2.75,2.75,0,0,0,.49-1.58Zm-2.63-3.23a2.89,2.89,0,0,0-.52-1.89.94.94,0,0,0-.59-.24,1,1,0,0,0-.73.31,3.18,3.18,0,0,0-.5,1.82Z" transform="translate(0 0)"/>
    <path class="cls-2" d="M111.39,172.4a4.24,4.24,0,0,1-1.85.42c-3.12,0-4.23-3.28-4.23-5.91,0-2.83,1.06-6.19,4.44-6.19a4,4,0,0,1,1.64.34v2.86a1.23,1.23,0,0,0-.91-.39c-1.56,0-1.9,1.95-1.9,3.15s.26,3.09,1.85,3.09a1.65,1.65,0,0,0,1-.34Z" transform="translate(0 0)"/>
    <path class="cls-2" d="M117,172.82c-3.33,0-4.42-3.23-4.42-6s1.09-6,4.42-6,4.37,3.15,4.37,6S120.46,172.82,117,172.82Zm0-9.16c-1.06,0-1.14,2.37-1.14,3.12s.08,3.12,1.14,3.12,1.09-2.41,1.09-3.12S118.05,163.66,117,163.66Z" transform="translate(0 0)"/>
    <path class="cls-2" d="M131.49,173.31a5.34,5.34,0,0,1-.34,2.21,4.22,4.22,0,0,1-4.16,2.42c-2.78,0-3.88-1.64-4.08-4h2.86c0,.57.26,1.4,1.19,1.4,1.23,0,1.25-1.58,1.25-2.47v-1.71c-.52.85-1.06,1.69-2.18,1.69-2.63,0-3.25-4-3.25-5.93s.39-6.14,3.12-6.14a2.63,2.63,0,0,1,2.31,1.61V161h3.28Zm-4.24-9.65c-1.09,0-1.17,2.34-1.17,3.1s.08,3.09,1.17,3.09,1.12-2.39,1.12-3.09S128.26,163.66,127.25,163.66Z" transform="translate(0 0)"/>
    <path class="cls-2" d="M138.48,172.58v-7.12c0-.52,0-1.46-.78-1.46-.93,0-.88,1.2-.88,1.85v6.73h-3.25V161h3.25v1.82a3.11,3.11,0,0,1,2.75-2c2,0,2.16,1.87,2.16,3.43v8.4Z" transform="translate(0 0)"/>
    <path class="cls-2" d="M145.5,159.22a2.06,2.06,0,1,1,2.05-2.06A2,2,0,0,1,145.5,159.22Zm-1.64,13.36V161h3.25v11.62Z" transform="translate(0 0)"/>
    <path class="cls-2" d="M152.73,163.66v8.92h-3.25v-8.92h-1.12V161h1.12v-3.3h3.25V161h1.33v2.7Z" transform="translate(0 0)"/>
    <path class="cls-2" d="M156.84,159.22a2.06,2.06,0,1,1,2-2.06A2,2,0,0,1,156.84,159.22Zm-1.64,13.36V161h3.25v11.62Z" transform="translate(0 0)"/>
    <path class="cls-2" d="M164.58,172.82c-3.32,0-4.42-3.23-4.42-6s1.1-6,4.42-6,4.37,3.15,4.37,6S168,172.82,164.58,172.82Zm0-9.16c-1.06,0-1.14,2.37-1.14,3.12s.08,3.12,1.14,3.12,1.1-2.41,1.1-3.12S165.6,163.66,164.58,163.66Z" transform="translate(0 0)"/>
    <path class="cls-2" d="M175.61,172.58v-7.12c0-.52,0-1.46-.78-1.46-.94,0-.89,1.2-.89,1.85v6.73h-3.25V161h3.25v1.82a3.13,3.13,0,0,1,2.76-2c2,0,2.16,1.87,2.16,3.43v8.4Z" transform="translate(0 0)"/>
    <path class="cls-2" d="M192.07,158.41v14.17h-3.44V158.41H186v-3.17h8.78v3.17Z" transform="translate(0 0)"/>
    <path class="cls-2" d="M202.93,168.58a5.3,5.3,0,0,1-1.24,3.33,3.29,3.29,0,0,1-2.53.91,3.61,3.61,0,0,1-2.78-1,6.49,6.49,0,0,1-1.58-4.71,7.53,7.53,0,0,1,1.69-5.25,3.59,3.59,0,0,1,2.65-1.07,3.42,3.42,0,0,1,2.49.94,6.46,6.46,0,0,1,1.51,4.52,7.37,7.37,0,0,1-.08,1.14h-5.14a4.51,4.51,0,0,0,0,.66,3.4,3.4,0,0,0,.47,2.05.85.85,0,0,0,.67.31,1,1,0,0,0,.65-.21,2.76,2.76,0,0,0,.5-1.58Zm-2.62-3.23a3,3,0,0,0-.52-1.89,1,1,0,0,0-.6-.24,1,1,0,0,0-.73.31,3.18,3.18,0,0,0-.49,1.82Z" transform="translate(0 0)"/>
    <path class="cls-2" d="M210.6,172.4a4.23,4.23,0,0,1-1.84.42c-3.12,0-4.24-3.28-4.24-5.91,0-2.83,1.07-6.19,4.45-6.19a4,4,0,0,1,1.63.34v2.86a1.21,1.21,0,0,0-.91-.39c-1.56,0-1.89,1.95-1.89,3.15s.26,3.09,1.84,3.09a1.63,1.63,0,0,0,1-.34Z" transform="translate(0 0)"/>
    <path class="cls-2" d="M217.08,172.58v-7.12c0-.52,0-1.46-.78-1.46-.94,0-.89,1.2-.89,1.85v6.73h-3.25v-19h3.25v9.15a3.13,3.13,0,0,1,2.76-2c2,0,2.16,1.87,2.16,3.43v8.4Z" transform="translate(0 0)"/>
    <path class="cls-2" d="M227.32,172.58v-7.12c0-.52,0-1.46-.78-1.46-.93,0-.88,1.2-.88,1.85v6.73h-3.25V161h3.25v1.82a3.11,3.11,0,0,1,2.75-2c2,0,2.16,1.87,2.16,3.43v8.4Z" transform="translate(0 0)"/>
    <path class="cls-2" d="M236.73,172.82c-3.33,0-4.42-3.23-4.42-6s1.09-6,4.42-6,4.37,3.15,4.37,6S240.17,172.82,236.73,172.82Zm0-9.16c-1.06,0-1.14,2.37-1.14,3.12s.08,3.12,1.14,3.12,1.09-2.41,1.09-3.12S237.75,163.66,236.73,163.66Z" transform="translate(0 0)"/>
    <path class="cls-2" d="M242.84,172.58v-19h3.25v19Z" transform="translate(0 0)"/>
    <path class="cls-2" d="M252.25,172.82c-3.32,0-4.42-3.23-4.42-6s1.1-6,4.42-6,4.37,3.15,4.37,6S255.69,172.82,252.25,172.82Zm0-9.16c-1.06,0-1.14,2.37-1.14,3.12s.08,3.12,1.14,3.12,1.1-2.41,1.1-3.12S253.27,163.66,252.25,163.66Z" transform="translate(0 0)"/>
    <path class="cls-2" d="M266.71,173.31a5.34,5.34,0,0,1-.34,2.21,4.22,4.22,0,0,1-4.16,2.42c-2.78,0-3.87-1.64-4.08-4H261c.05.57.26,1.4,1.2,1.4,1.22,0,1.24-1.58,1.24-2.47v-1.71c-.52.85-1.06,1.69-2.18,1.69-2.63,0-3.25-4-3.25-5.93s.39-6.14,3.12-6.14a2.63,2.63,0,0,1,2.31,1.61V161h3.28Zm-4.24-9.65c-1.09,0-1.17,2.34-1.17,3.1s.08,3.09,1.17,3.09,1.12-2.39,1.12-3.09S263.49,163.66,262.47,163.66Z" transform="translate(0 0)"/>
    <path class="cls-2" d="M270.48,159.22a2.06,2.06,0,1,1,2-2.06A2,2,0,0,1,270.48,159.22Zm-1.64,13.36V161h3.25v11.62Z" transform="translate(0 0)"/>
    <path class="cls-2" d="M281.92,168.58a5.31,5.31,0,0,1-1.25,3.33,3.27,3.27,0,0,1-2.52.91,3.59,3.59,0,0,1-2.78-1,6.44,6.44,0,0,1-1.59-4.71,7.58,7.58,0,0,1,1.69-5.25,3.59,3.59,0,0,1,2.65-1.07,3.47,3.47,0,0,1,2.5.94,6.5,6.5,0,0,1,1.51,4.52,8.86,8.86,0,0,1-.08,1.14H276.9c0,.19,0,.42,0,.66a3.47,3.47,0,0,0,.46,2.05.89.89,0,0,0,.68.31,1,1,0,0,0,.65-.21,2.75,2.75,0,0,0,.49-1.58Zm-2.63-3.23a2.89,2.89,0,0,0-.52-1.89.94.94,0,0,0-.59-.24,1,1,0,0,0-.73.31,3.18,3.18,0,0,0-.5,1.82Z" transform="translate(0 0)"/>
    <path class="cls-2" d="M289.28,164.1a2.23,2.23,0,0,0-1.54-.77.79.79,0,0,0-.83.83c0,1.4,3.64,1.11,3.64,4.63,0,2.21-1.32,4-3.66,4a5.64,5.64,0,0,1-3.54-1.33l1.43-2.31a2.49,2.49,0,0,0,1.59.72,1,1,0,0,0,1-1c0-1.45-3.8-1.25-3.8-4.76,0-2.23,1.79-3.43,3.87-3.43a4.91,4.91,0,0,1,3.1,1Z" transform="translate(0 0)"/>
    <path class="cls-2" d="M32.66,193.51v10.27H31.21V193.51H30v-1.35h1.25v-3.3h1.45v3.3h2v1.35Z" transform="translate(0 0)"/>
    <path class="cls-2" d="M38.88,204c-3,0-3.41-3.74-3.41-6s.42-6,3.41-6,3.25,3.82,3.25,6.05S41.87,204,38.88,204Zm0-10.63c-1.79,0-1.85,3.53-1.85,4.76s.08,4.49,1.85,4.49,1.77-3.45,1.77-4.62S40.57,193.33,38.85,193.33Z" transform="translate(0 0)"/>
    <path class="cls-2" d="M56.38,205.06c0,2.1-.81,3.4-3.05,3.4-2,0-3-1.27-3-3.22a3.24,3.24,0,0,1,0-.45h1.48c0,1.17.13,2.29,1.59,2.29s1.48-1.14,1.48-2.26V203a2.29,2.29,0,0,1-1.84.83c-2.94,0-3-3.95-3-6.06,0-1.95.21-5.74,2.89-5.74a2.29,2.29,0,0,1,1.92,1v-.8h1.49Zm-3.1-11.89c-1.56,0-1.69,2.68-1.69,5.1,0,1.25,0,4.31,1.82,4.31,1.3,0,1.48-1.53,1.56-2.49s.08-1.87.08-2.81C55.05,196.06,55.05,193.17,53.28,193.17Z" transform="translate(0 0)"/>
    <path class="cls-2" d="M64.8,199.83c-.08,1.87-.65,4.13-2.94,4.13-3,0-3.38-3.72-3.38-6s.44-6,3.28-6,3.14,3.51,3.14,5.56c0,.23,0,.49,0,.73H60v.26c0,1.17.19,4.05,1.85,4.05,1.3,0,1.48-1.76,1.51-2.75ZM63.45,197c-.05-1-.18-3.69-1.67-3.69S60,196,60,197Z" transform="translate(0 0)"/>
    <path class="cls-2" d="M69,193.51v10.27H67.5V193.51H66.25v-1.35H67.5v-3.3H69v3.3h2v1.35Z" transform="translate(0 0)"/>
    <path class="cls-2" d="M88.9,203.78H87.44v-8.61c0-1-.15-2-1.35-2-1.69,0-1.77,1.9-1.77,3.17v7.44H82.84V195.2c0-.86-.08-2-1.22-2-1.82,0-1.87,2.06-1.87,3.41v7.2H78.29V192.16h1.46v1A3.08,3.08,0,0,1,82,192a2.27,2.27,0,0,1,2.13,1.35A2.82,2.82,0,0,1,86.53,192c1.88,0,2.37,1.22,2.37,2.88Z" transform="translate(0 0)"/>
    <path class="cls-2" d="M94.46,204c-3,0-3.4-3.74-3.4-6s.41-6,3.4-6,3.25,3.82,3.25,6.05S97.45,204,94.46,204Zm0-10.63c-1.8,0-1.85,3.53-1.85,4.76s.08,4.49,1.85,4.49,1.77-3.45,1.77-4.62S96.15,193.33,94.44,193.33Z" transform="translate(0 0)"/>
    <path class="cls-2" d="M103.33,193.67c-2,0-2,1.56-2,3.06v7.05H99.9V192.16h1.45v1.51a2.4,2.4,0,0,1,2-1.69Z" transform="translate(0 0)"/>
    <path class="cls-2" d="M110.69,199.83c-.08,1.87-.65,4.13-2.94,4.13-3,0-3.38-3.72-3.38-6s.44-6,3.28-6,3.14,3.51,3.14,5.56c0,.23,0,.49,0,.73h-4.92v.26c0,1.17.18,4.05,1.85,4.05,1.3,0,1.48-1.76,1.51-2.75ZM109.34,197c-.06-1-.19-3.69-1.67-3.69s-1.74,2.62-1.79,3.69Z" transform="translate(0 0)"/>
    <path class="cls-2" d="M119.73,189.58a1.09,1.09,0,1,1,1.07-1.06A1.07,1.07,0,0,1,119.73,189.58Zm-.75,14.2V192.16h1.48v11.62Z" transform="translate(0 0)"/>
    <path class="cls-2" d="M127.56,203.78v-8.45c0-.94,0-2.16-1.3-2.16a1.65,1.65,0,0,0-1.38.76,3.59,3.59,0,0,0-.39,2v7.83H123V192.16h1.45v.93a3,3,0,0,1,2.27-1.11c2,0,2.26,1.61,2.26,3.19v8.61Z" transform="translate(0 0)"/>
    <path class="cls-2" d="M133.51,193.51v10.27h-1.45V193.51h-1.33v-1.35h1.33V187.5c0-1.48.39-3,2.16-3a3.28,3.28,0,0,1,1.3.26v1.61a1.75,1.75,0,0,0-1.07-.52c-.86,0-.94.78-.94,1.43v4.84h2v1.35Z" transform="translate(0 0)"/>
    <path class="cls-2" d="M139.83,204c-3,0-3.4-3.74-3.4-6s.41-6,3.4-6,3.25,3.82,3.25,6.05S142.82,204,139.83,204Zm0-10.63c-1.8,0-1.85,3.53-1.85,4.76s.08,4.49,1.85,4.49,1.76-3.45,1.76-4.62S141.52,193.33,139.81,193.33Z" transform="translate(0 0)"/>
    <path class="cls-2" d="M148.7,193.67c-1.95,0-2,1.56-2,3.06v7.05h-1.45V192.16h1.45v1.51a2.4,2.4,0,0,1,2-1.69Z" transform="translate(0 0)"/>
    <path class="cls-2" d="M160.92,203.78h-1.46v-8.61c0-1-.15-2-1.35-2-1.69,0-1.77,1.9-1.77,3.17v7.44h-1.48V195.2c0-.86-.08-2-1.22-2-1.82,0-1.87,2.06-1.87,3.41v7.2h-1.46V192.16h1.46v1A3.08,3.08,0,0,1,154,192a2.27,2.27,0,0,1,2.13,1.35,2.81,2.81,0,0,1,2.39-1.35c1.87,0,2.37,1.22,2.37,2.88Z" transform="translate(0 0)"/>
    <path class="cls-2" d="M167.94,203.78v-.93a2.29,2.29,0,0,1-2,1.11c-2.65,0-2.73-3.72-2.73-5.77,0-2.37.08-6.21,2.86-6.21a2.15,2.15,0,0,1,1.85,1v-.78h1.48v11.62Zm-1.48-10.63c-1.69,0-1.72,3-1.72,4.13,0,1,0,1.87.08,2.81s.26,2.68,1.61,2.68a1.18,1.18,0,0,0,.94-.39c.72-.73.72-3.46.72-4.48C168.09,195.59,168,193.15,166.46,193.15Z" transform="translate(0 0)"/>
    <path class="cls-2" d="M173.92,193.51v10.27h-1.46V193.51h-1.25v-1.35h1.25v-3.3h1.46v3.3h2v1.35Z" transform="translate(0 0)"/>
    <path class="cls-2" d="M177.92,189.58a1.09,1.09,0,1,1,0-2.18,1.1,1.1,0,0,1,1.07,1.12A1.07,1.07,0,0,1,177.92,189.58Zm-.75,14.2V192.16h1.48v11.62Z" transform="translate(0 0)"/>
    <path class="cls-2" d="M184.19,204c-3,0-3.41-3.74-3.41-6s.42-6,3.41-6,3.25,3.82,3.25,6.05S187.18,204,184.19,204Zm0-10.63c-1.79,0-1.85,3.53-1.85,4.76s.08,4.49,1.85,4.49,1.77-3.45,1.77-4.62S185.88,193.33,184.16,193.33Z" transform="translate(0 0)"/>
    <path class="cls-2" d="M194.15,203.78v-8.45c0-.94,0-2.16-1.3-2.16a1.63,1.63,0,0,0-1.38.76,3.59,3.59,0,0,0-.39,2v7.83h-1.46V192.16h1.46v.93a3,3,0,0,1,2.26-1.11c1.95,0,2.26,1.61,2.26,3.19v8.61Z" transform="translate(0 0)"/>
    <path class="cls-2" d="M207.22,204c-3,0-3.4-3.74-3.4-6s.41-6,3.4-6,3.25,3.82,3.25,6.05S210.21,204,207.22,204Zm0-10.63c-1.8,0-1.85,3.53-1.85,4.76s.08,4.49,1.85,4.49S209,199.13,209,198,208.91,193.33,207.2,193.33Z" transform="translate(0 0)"/>
    <path class="cls-2" d="M217.18,203.78v-8.45c0-.94,0-2.16-1.3-2.16a1.64,1.64,0,0,0-1.38.76,3.59,3.59,0,0,0-.39,2v7.83h-1.45V192.16h1.45v.93a3,3,0,0,1,2.27-1.11c1.94,0,2.26,1.61,2.26,3.19v8.61Z" transform="translate(0 0)"/>
    <path class="cls-2" d="M229.19,193.51v10.27h-1.45V193.51h-1.25v-1.35h1.25v-3.3h1.45v3.3h1.95v1.35Z" transform="translate(0 0)"/>
    <path class="cls-2" d="M237,203.78v-8.45c0-.94,0-2.16-1.3-2.16a1.65,1.65,0,0,0-1.38.76,3.62,3.62,0,0,0-.39,2v7.83h-1.45V184.83h1.45v8.26a3.06,3.06,0,0,1,2.27-1.11c1.89,0,2.26,1.35,2.26,3v8.81Z" transform="translate(0 0)"/>
    <path class="cls-2" d="M246.64,199.83c-.08,1.87-.65,4.13-2.94,4.13-3,0-3.38-3.72-3.38-6s.44-6,3.27-6,3.15,3.51,3.15,5.56c0,.23,0,.49,0,.73H241.8v.26c0,1.17.18,4.05,1.85,4.05,1.3,0,1.48-1.76,1.51-2.75ZM245.29,197c-.06-1-.19-3.69-1.67-3.69s-1.74,2.62-1.79,3.69Z" transform="translate(0 0)"/>
    <path class="cls-2" d="M256.85,193.51v10.27H255.4V193.51h-1.33v-1.35h1.33V187.5c0-1.48.39-3,2.16-3a3.28,3.28,0,0,1,1.3.26v1.61a1.75,1.75,0,0,0-1.07-.52c-.86,0-.94.78-.94,1.43v4.84h2v1.35Z" transform="translate(0 0)"/>
    <path class="cls-2" d="M264.68,203.78v-.93a2.29,2.29,0,0,1-2,1.11c-2.65,0-2.73-3.72-2.73-5.77,0-2.37.08-6.21,2.86-6.21a2.13,2.13,0,0,1,1.85,1v-.78h1.48v11.62Zm-1.48-10.63c-1.69,0-1.72,3-1.72,4.13,0,1,0,1.87.08,2.81s.26,2.68,1.61,2.68a1.18,1.18,0,0,0,.94-.39c.73-.73.73-3.46.73-4.48C264.84,195.59,264.71,193.15,263.2,193.15Z" transform="translate(0 0)"/>
    <path class="cls-2" d="M273.34,203.36a2.8,2.8,0,0,1-1.67.6c-2.73,0-3.35-3.72-3.35-5.8s.47-6.18,3.43-6.18a3.15,3.15,0,0,1,1.59.44v1.71a2.09,2.09,0,0,0-1.46-.8c-1.84,0-2,3.4-2,4.7s.24,4.55,2,4.55a2,2,0,0,0,1.48-1Z" transform="translate(0 0)"/>
    <path class="cls-2" d="M277.06,193.51v10.27H275.6V193.51h-1.25v-1.35h1.25v-3.3h1.46v3.3H279v1.35Z" transform="translate(0 0)"/>
    <path class="cls-2" d="M283.27,204c-3,0-3.41-3.74-3.41-6s.42-6,3.41-6,3.25,3.82,3.25,6.05S286.26,204,283.27,204Zm0-10.63c-1.79,0-1.84,3.53-1.84,4.76s.08,4.49,1.84,4.49S285,199.13,285,198,285,193.33,283.24,193.33Z" transform="translate(0 0)"/>
    <path class="cls-2" d="M292.14,193.67c-1.95,0-2,1.56-2,3.06v7.05H288.7V192.16h1.46v1.51a2.4,2.4,0,0,1,2-1.69Z" transform="translate(0 0)"/>
    <path class="cls-2" d="M298.17,194.52a2.74,2.74,0,0,0-2-1.19,1.45,1.45,0,0,0-1.43,1.53c0,2.26,3.74,2.68,3.74,5.83a3.13,3.13,0,0,1-3.12,3.27,3.55,3.55,0,0,1-2.16-.8v-1.72a2.94,2.94,0,0,0,2.06,1.14,1.69,1.69,0,0,0,1.69-1.79c0-2.29-3.75-3.07-3.75-5.88a2.81,2.81,0,0,1,2.89-2.93,3.44,3.44,0,0,1,2.08.75Z" transform="translate(0 0)"/>
    <path class="cls-2" d="M307.76,192.94a2.16,2.16,0,0,1,1.87-1c2.84,0,2.86,3.69,2.86,5.77,0,2.49-.07,6.21-2.73,6.21a2.44,2.44,0,0,1-2-1.11v.93H306.3V184.83h1.46Zm1.51.21c-1.51,0-1.64,2.44-1.64,4.75,0,1,0,3.75.73,4.48a1.17,1.17,0,0,0,.93.39c1.36,0,1.51-1.67,1.62-2.68s.08-1.82.08-2.73C311,196.19,311,193.15,309.27,193.15Z" transform="translate(0 0)"/>
    <path class="cls-2" d="M320.53,199.83c-.08,1.87-.65,4.13-2.94,4.13-3,0-3.38-3.72-3.38-6s.44-6,3.27-6,3.15,3.51,3.15,5.56c0,.23,0,.49,0,.73h-4.91v.26c0,1.17.18,4.05,1.85,4.05,1.3,0,1.48-1.76,1.5-2.75ZM319.17,197c-.05-1-.18-3.69-1.66-3.69s-1.74,2.62-1.79,3.69Z" transform="translate(0 0)"/>
    <path class="cls-2" d="M327.31,203.78v-8.45c0-.94,0-2.16-1.3-2.16a1.65,1.65,0,0,0-1.38.76,3.62,3.62,0,0,0-.39,2v7.83h-1.45V184.83h1.45v8.26a3.06,3.06,0,0,1,2.27-1.11c1.89,0,2.26,1.35,2.26,3v8.81Z" transform="translate(0 0)"/>
    <path class="cls-2" d="M332.1,189.58a1.09,1.09,0,1,1,1.06-1.06A1.07,1.07,0,0,1,332.1,189.58Zm-.76,14.2V192.16h1.48v11.62Z" transform="translate(0 0)"/>
    <path class="cls-2" d="M339.92,203.78v-8.45c0-.94,0-2.16-1.3-2.16a1.62,1.62,0,0,0-1.37.76,3.51,3.51,0,0,0-.4,2v7.83H335.4V192.16h1.45v.93a3.06,3.06,0,0,1,2.27-1.11c1.95,0,2.26,1.61,2.26,3.19v8.61Z" transform="translate(0 0)"/>
    <path class="cls-2" d="M348.27,203.78v-.93a2.33,2.33,0,0,1-2,1.11c-2.68,0-2.73-3.87-2.73-5.9,0-2.26,0-6.08,2.88-6.08a2.15,2.15,0,0,1,1.85,1v-8.11h1.45v18.95Zm-1.51-10.63c-1.66,0-1.69,3-1.69,4.13,0,1,0,1.87.08,2.81s.23,2.68,1.58,2.68a1.24,1.24,0,0,0,1-.39c.7-.71.7-3.44.7-4.4C348.4,195.54,348.27,193.15,346.76,193.15Z" transform="translate(0 0)"/>
    <path class="cls-2" d="M353.31,204a1.2,1.2,0,0,1-1.17-1.17,1.17,1.17,0,1,1,1.17,1.17Z" transform="translate(0 0)"/>
  </g>
</svg>
