<svg id="Ebene_1" data-name="Ebene 1" xmlns="http://www.w3.org/2000/svg" width="344.31" height="284.05" viewBox="0 0 344.31 284.05"><defs><style>.cls-1{fill:none;stroke:aqua;stroke-width:8px;}.cls-2{fill:#fde8e9;}</style></defs><g id="Gruppe_432" data-name="Gruppe 432"><g id="Gruppe_430" data-name="Gruppe 430"><g id="Gruppe_93" data-name="Gruppe 93"><path id="Pfad_50-2" data-name="Pfad 50-2" class="cls-1" d="M399.81,121V26.5h-68.2" transform="translate(-59.5 -22.5)"/><path id="Pfad_51-2" data-name="Pfad 51-2" class="cls-1" d="M399.81,208v94.53h-68.2" transform="translate(-59.5 -22.5)"/><path id="Pfad_52-2" data-name="Pfad 52-2" class="cls-1" d="M63.5,121V26.5h68.2" transform="translate(-59.5 -22.5)"/><path id="Pfad_53-2" data-name="Pfad 53-2" class="cls-1" d="M63.5,208v94.53h68.2" transform="translate(-59.5 -22.5)"/></g></g></g><path class="cls-2" d="M90.5,67.75V50.41h1.64V67.75Z" transform="translate(-59.5 -22.5)"/><path class="cls-2" d="M99.49,67.75V59.3c0-.93,0-2.16-1.32-2.16a1.68,1.68,0,0,0-1.4.76,3.53,3.53,0,0,0-.4,2v7.82H94.89V56.13h1.48v.94A3.13,3.13,0,0,1,98.67,56c2,0,2.31,1.61,2.31,3.2v8.6Z" transform="translate(-59.5 -22.5)"/><path class="cls-2" d="M108.27,67.34a2.91,2.91,0,0,1-1.69.59c-2.78,0-3.41-3.71-3.41-5.79s.48-6.19,3.49-6.19a3.22,3.22,0,0,1,1.61.44v1.72a2.09,2.09,0,0,0-1.48-.81c-1.88,0-2.06,3.41-2.06,4.71s.24,4.55,2,4.55a2,2,0,0,0,1.5-1Z" transform="translate(-59.5 -22.5)"/><path class="cls-2" d="M110.12,67.75v-19h1.51v19Z" transform="translate(-59.5 -22.5)"/><path class="cls-2" d="M120.41,64.92a3.07,3.07,0,0,1-6.14,0V56.13h1.48V64c0,1.19.06,2.55,1.64,2.55s1.54-1.56,1.54-2.71V56.13h1.48Z" transform="translate(-59.5 -22.5)"/><path class="cls-2" d="M127.41,67.75v-.93a2.36,2.36,0,0,1-2,1.11c-2.73,0-2.78-3.87-2.78-5.9,0-2.26,0-6.08,2.94-6.08a2.17,2.17,0,0,1,1.87,1V48.8h1.49v19Zm-1.53-10.63c-1.69,0-1.72,3-1.72,4.13,0,1,0,1.87.08,2.81s.24,2.68,1.61,2.68a1.25,1.25,0,0,0,1-.39c.72-.7.72-3.43.72-4.4C127.55,59.51,127.41,57.12,125.88,57.12Z" transform="translate(-59.5 -22.5)"/><path class="cls-2" d="M137.51,63.8c-.07,1.87-.66,4.13-3,4.13-3,0-3.44-3.71-3.44-6s.45-6,3.33-6,3.2,3.51,3.2,5.56c0,.24,0,.5,0,.73h-5v.26c0,1.17.18,4.06,1.87,4.06,1.33,0,1.51-1.77,1.54-2.76ZM136.14,61c0-1-.19-3.69-1.69-3.69s-1.77,2.63-1.83,3.69Z" transform="translate(-59.5 -22.5)"/><path class="cls-2" d="M144.28,58.5a2.78,2.78,0,0,0-2-1.2,1.46,1.46,0,0,0-1.46,1.53c0,2.27,3.81,2.68,3.81,5.83a3.16,3.16,0,0,1-3.17,3.27,3.64,3.64,0,0,1-2.2-.8V65.41a3,3,0,0,0,2.09,1.15,1.71,1.71,0,0,0,1.72-1.8c0-2.29-3.81-3.07-3.81-5.87A2.84,2.84,0,0,1,142.17,56a3.53,3.53,0,0,1,2.11.75Z" transform="translate(-59.5 -22.5)"/><path class="cls-2" d="M154.49,57.48V67.75H153V57.48h-1.27V56.13H153v-3.3h1.48v3.3h2v1.35Z" transform="translate(-59.5 -22.5)"/><path class="cls-2" d="M165.86,67.75h-1.54c-.5-3.22-1.08-6.45-1.5-9.67-.11.62-.14,1.2-.24,1.82l-1.3,7.85h-1.53l-2.38-11.62h1.51l1.32,7c.16.8.26,1.63.34,2.44.06-.78.21-1.59.35-2.39l1.19-7.1h1.53c.5,3.15,1.11,6.32,1.48,9.49.13-.81.24-1.64.4-2.47l1.45-7h1.51Z" transform="translate(-59.5 -22.5)"/><path class="cls-2" d="M172.84,67.93c-3,0-3.47-3.74-3.47-6s.43-6,3.47-6,3.3,3.82,3.3,6.06S175.88,67.93,172.84,67.93Zm0-10.63c-1.82,0-1.88,3.54-1.88,4.76s.08,4.5,1.88,4.5,1.8-3.46,1.8-4.63S174.56,57.3,172.81,57.3Z" transform="translate(-59.5 -22.5)"/><path class="cls-2" d="M186.45,57.48V67.75H185V57.48h-1.35V56.13H185V51.48c0-1.49.4-3,2.2-3a3.34,3.34,0,0,1,1.32.26v1.61a1.78,1.78,0,0,0-1.08-.52c-.88,0-1,.78-1,1.43v4.84h2v1.35Z" transform="translate(-59.5 -22.5)"/><path class="cls-2" d="M194.41,67.75v-.93a2.33,2.33,0,0,1-2,1.11c-2.69,0-2.77-3.71-2.77-5.77,0-2.36.08-6.21,2.91-6.21a2.18,2.18,0,0,1,1.87,1v-.78h1.51V67.75Zm-1.5-10.63c-1.72,0-1.75,3-1.75,4.13,0,1,0,1.87.08,2.81s.26,2.68,1.64,2.68a1.18,1.18,0,0,0,1-.39c.74-.73.74-3.46.74-4.47C194.57,59.56,194.44,57.12,192.91,57.12Z" transform="translate(-59.5 -22.5)"/><path class="cls-2" d="M203.22,67.34a2.94,2.94,0,0,1-1.7.59c-2.77,0-3.41-3.71-3.41-5.79S198.59,56,201.6,56a3.26,3.26,0,0,1,1.62.44v1.72a2.13,2.13,0,0,0-1.48-.81c-1.88,0-2.07,3.41-2.07,4.71s.24,4.55,2,4.55a2,2,0,0,0,1.51-1Z" transform="translate(-59.5 -22.5)"/><path class="cls-2" d="M207,57.48V67.75h-1.48V57.48h-1.27V56.13h1.27v-3.3H207v3.3h2v1.35Z" transform="translate(-59.5 -22.5)"/><path class="cls-2" d="M213.32,67.93c-3,0-3.47-3.74-3.47-6s.43-6,3.47-6,3.3,3.82,3.3,6.06S216.36,67.93,213.32,67.93Zm0-10.63c-1.83,0-1.88,3.54-1.88,4.76s.08,4.5,1.88,4.5,1.8-3.46,1.8-4.63S215,57.3,213.29,57.3Z" transform="translate(-59.5 -22.5)"/><path class="cls-2" d="M222.33,57.64c-2,0-2,1.56-2,3.07v7h-1.48V56.13h1.48v1.51a2.43,2.43,0,0,1,2-1.69Z" transform="translate(-59.5 -22.5)"/><path class="cls-2" d="M228.47,58.5a2.78,2.78,0,0,0-2-1.2A1.46,1.46,0,0,0,225,58.83c0,2.27,3.8,2.68,3.8,5.83a3.15,3.15,0,0,1-3.17,3.27,3.61,3.61,0,0,1-2.19-.8V65.41a3,3,0,0,0,2.08,1.15,1.71,1.71,0,0,0,1.72-1.8c0-2.29-3.8-3.07-3.8-5.87A2.83,2.83,0,0,1,226.35,56a3.56,3.56,0,0,1,2.12.75Z" transform="translate(-59.5 -22.5)"/><path class="cls-2" d="M231.59,67.93a1.2,1.2,0,0,1-1.19-1.17,1.19,1.19,0,1,1,1.19,1.17Z" transform="translate(-59.5 -22.5)"/><path class="cls-2" d="M243.19,51.89V58H247v1.48h-3.76v8.27h-1.64V50.41h5.61v1.48Z" transform="translate(-59.5 -22.5)"/><path class="cls-2" d="M249.56,53.56a1.1,1.1,0,1,1,1.09-1.07A1.09,1.09,0,0,1,249.56,53.56Zm-.76,14.19V56.13h1.5V67.75Z" transform="translate(-59.5 -22.5)"/><path class="cls-2" d="M256.41,57.64c-2,0-2,1.56-2,3.07v7h-1.48V56.13h1.48v1.51a2.43,2.43,0,0,1,2-1.69Z" transform="translate(-59.5 -22.5)"/><path class="cls-2" d="M262.55,58.5a2.78,2.78,0,0,0-2-1.2,1.46,1.46,0,0,0-1.45,1.53c0,2.27,3.8,2.68,3.8,5.83a3.15,3.15,0,0,1-3.17,3.27,3.61,3.61,0,0,1-2.19-.8V65.41a3,3,0,0,0,2.08,1.15,1.71,1.71,0,0,0,1.72-1.8c0-2.29-3.8-3.07-3.8-5.87A2.83,2.83,0,0,1,260.43,56a3.56,3.56,0,0,1,2.12.75Z" transform="translate(-59.5 -22.5)"/><path class="cls-2" d="M266.59,57.48V67.75h-1.48V57.48h-1.27V56.13h1.27v-3.3h1.48v3.3h2v1.35Z" transform="translate(-59.5 -22.5)"/><path class="cls-2" d="M269.9,71.44l-1.14-.52,1.82-5.33,1.64.73Z" transform="translate(-59.5 -22.5)"/><path class="cls-2" d="M282.69,57.48V67.75h-1.48V57.48h-1.27V56.13h1.27v-3.3h1.48v3.3h2v1.35Z" transform="translate(-59.5 -22.5)"/><path class="cls-2" d="M290.62,67.75V59.3c0-.93,0-2.16-1.32-2.16a1.68,1.68,0,0,0-1.4.76,3.57,3.57,0,0,0-.4,2v7.82H286v-19h1.48v8.27A3.13,3.13,0,0,1,289.81,56c1.93,0,2.3,1.35,2.3,3v8.81Z" transform="translate(-59.5 -22.5)"/><path class="cls-2" d="M300.44,63.8c-.08,1.87-.67,4.13-3,4.13-3,0-3.44-3.71-3.44-6s.45-6,3.33-6,3.2,3.51,3.2,5.56c0,.24,0,.5,0,.73h-5v.26c0,1.17.18,4.06,1.87,4.06,1.33,0,1.51-1.77,1.54-2.76ZM299.06,61c-.05-1-.18-3.69-1.69-3.69s-1.77,2.63-1.83,3.69Z" transform="translate(-59.5 -22.5)"/><path class="cls-2" d="M310.83,57.48V67.75h-1.49V57.48h-1.27V56.13h1.27v-3.3h1.49v3.3h2v1.35Z" transform="translate(-59.5 -22.5)"/><path class="cls-2" d="M316.72,72.43h-1.59l1.33-5-2.81-11.31h1.51l1.48,6.45c.24,1,.42,2,.56,2.91.1-.73.29-1.43.47-2.18l1.72-7.18H321Z" transform="translate(-59.5 -22.5)"/><path class="cls-2" d="M323.91,56.91a2.15,2.15,0,0,1,1.88-1c2.91,0,2.93,3.66,2.93,5.77,0,2.5-.08,6.21-2.77,6.21a2.49,2.49,0,0,1-2-1.11v5.61h-1.48V56.13h1.48Zm1.54.21c-1.54,0-1.67,2.44-1.67,4.76,0,1,0,3.74.74,4.47a1.2,1.2,0,0,0,1,.39c1.38,0,1.53-1.67,1.64-2.68s.08-1.82.08-2.73C327.19,60.16,327.16,57.12,325.45,57.12Z" transform="translate(-59.5 -22.5)"/><path class="cls-2" d="M336.89,63.8c-.08,1.87-.66,4.13-3,4.13-3,0-3.44-3.71-3.44-6s.45-6,3.33-6,3.2,3.51,3.2,5.56c0,.24,0,.5,0,.73h-5v.26c0,1.17.18,4.06,1.87,4.06,1.32,0,1.51-1.77,1.54-2.76ZM335.52,61c0-1-.19-3.69-1.69-3.69S332.05,59.93,332,61Z" transform="translate(-59.5 -22.5)"/><path class="cls-2" d="M348.37,67.93c-3,0-3.47-3.74-3.47-6s.43-6,3.47-6,3.3,3.82,3.3,6.06S351.41,67.93,348.37,67.93Zm0-10.63c-1.82,0-1.88,3.54-1.88,4.76s.08,4.5,1.88,4.5,1.8-3.46,1.8-4.63S350.09,57.3,348.34,57.3Z" transform="translate(-59.5 -22.5)"/><path class="cls-2" d="M355.83,57.48V67.75h-1.49V57.48H353V56.13h1.34V51.48c0-1.49.4-3,2.2-3a3.34,3.34,0,0,1,1.32.26v1.61a1.78,1.78,0,0,0-1.08-.52c-.88,0-.95.78-.95,1.43v4.84h2v1.35Z" transform="translate(-59.5 -22.5)"/><path class="cls-2" d="M93.39,99.13c-3,0-3.47-3.74-3.47-6s.43-6,3.47-6,3.3,3.82,3.3,6.06S96.43,99.13,93.39,99.13Zm0-10.63c-1.82,0-1.88,3.54-1.88,4.76s.08,4.5,1.88,4.5,1.8-3.46,1.8-4.63S95.11,88.5,93.36,88.5Z" transform="translate(-59.5 -22.5)"/><path class="cls-2" d="M103.57,98.54a2.94,2.94,0,0,1-1.7.59c-2.77,0-3.41-3.71-3.41-5.79s.48-6.19,3.49-6.19a3.26,3.26,0,0,1,1.62.44v1.72a2.13,2.13,0,0,0-1.48-.81c-1.88,0-2.07,3.41-2.07,4.71s.24,4.55,2,4.55a2,2,0,0,0,1.51-1Z" transform="translate(-59.5 -22.5)"/><path class="cls-2" d="M110.07,98.54a2.93,2.93,0,0,1-1.69.59c-2.78,0-3.41-3.71-3.41-5.79s.47-6.19,3.49-6.19a3.22,3.22,0,0,1,1.61.44v1.72a2.11,2.11,0,0,0-1.48-.81c-1.88,0-2.06,3.41-2.06,4.71s.24,4.55,2,4.55a2,2,0,0,0,1.51-1Z" transform="translate(-59.5 -22.5)"/><path class="cls-2" d="M116.42,99V98a2.34,2.34,0,0,1-2,1.11c-2.7,0-2.78-3.71-2.78-5.77,0-2.36.08-6.21,2.91-6.21a2.2,2.2,0,0,1,1.88,1v-.78h1.5V99Zm-1.51-10.63c-1.72,0-1.75,3-1.75,4.13,0,1,0,1.87.08,2.81s.27,2.68,1.64,2.68a1.18,1.18,0,0,0,1-.39c.74-.73.74-3.46.74-4.47C116.57,90.76,116.44,88.32,114.91,88.32Z" transform="translate(-59.5 -22.5)"/><path class="cls-2" d="M125,89.7a2.78,2.78,0,0,0-2-1.2A1.47,1.47,0,0,0,121.54,90c0,2.27,3.81,2.68,3.81,5.83a3.15,3.15,0,0,1-3.17,3.27,3.67,3.67,0,0,1-2.2-.8V96.61a3.06,3.06,0,0,0,2.09,1.15,1.71,1.71,0,0,0,1.72-1.8c0-2.29-3.81-3.07-3.81-5.87a2.84,2.84,0,0,1,2.94-2.94,3.58,3.58,0,0,1,2.12.75Z" transform="translate(-59.5 -22.5)"/><path class="cls-2" d="M127.89,84.76A1.1,1.1,0,1,1,129,83.69,1.08,1.08,0,0,1,127.89,84.76ZM127.12,99V87.33h1.51V99Z" transform="translate(-59.5 -22.5)"/><path class="cls-2" d="M134.26,99.13c-3,0-3.46-3.74-3.46-6s.42-6,3.46-6,3.31,3.82,3.31,6.06S137.3,99.13,134.26,99.13Zm0-10.63c-1.83,0-1.88,3.54-1.88,4.76s.08,4.5,1.88,4.5S136,94.3,136,93.13,136,88.5,134.24,88.5Z" transform="translate(-59.5 -22.5)"/><path class="cls-2" d="M144.39,99V90.5c0-.93,0-2.16-1.32-2.16a1.66,1.66,0,0,0-1.4.76,3.53,3.53,0,0,0-.4,2V99h-1.48V87.33h1.48v.94a3.1,3.1,0,0,1,2.3-1.12c2,0,2.3,1.61,2.3,3.2V99Z" transform="translate(-59.5 -22.5)"/><path class="cls-2" d="M153,89.7a2.78,2.78,0,0,0-2-1.2A1.46,1.46,0,0,0,149.49,90c0,2.27,3.81,2.68,3.81,5.83a3.16,3.16,0,0,1-3.17,3.27,3.64,3.64,0,0,1-2.2-.8V96.61A3,3,0,0,0,150,97.76a1.71,1.71,0,0,0,1.72-1.8c0-2.29-3.81-3.07-3.81-5.87a2.84,2.84,0,0,1,2.94-2.94,3.53,3.53,0,0,1,2.11.75Z" transform="translate(-59.5 -22.5)"/><path class="cls-2" d="M162,84.76a1.1,1.1,0,1,1,1.08-1.07A1.08,1.08,0,0,1,162,84.76ZM161.23,99V87.33h1.51V99Z" transform="translate(-59.5 -22.5)"/><path class="cls-2" d="M170,99V90.5c0-.93,0-2.16-1.33-2.16a1.68,1.68,0,0,0-1.4.76,3.6,3.6,0,0,0-.39,2V99h-1.49V87.33h1.49v.94a3.1,3.1,0,0,1,2.3-1.12c2,0,2.3,1.61,2.3,3.2V99Z" transform="translate(-59.5 -22.5)"/><path class="cls-2" d="M187.67,99h-1.53c-.51-3.22-1.09-6.45-1.51-9.67-.11.62-.13,1.2-.24,1.82L183.1,99h-1.54l-2.38-11.62h1.51l1.32,7c.16.8.27,1.63.35,2.44,0-.78.21-1.59.34-2.39l1.19-7.1h1.53c.51,3.15,1.11,6.32,1.48,9.49.14-.81.24-1.64.4-2.47l1.45-7h1.51Z" transform="translate(-59.5 -22.5)"/><path class="cls-2" d="M196.45,99V90.5c0-.93,0-2.16-1.32-2.16a1.69,1.69,0,0,0-1.41.76,3.65,3.65,0,0,0-.39,2V99h-1.48V80h1.48v8.27a3.1,3.1,0,0,1,2.3-1.12c1.93,0,2.3,1.35,2.3,3V99Z" transform="translate(-59.5 -22.5)"/><path class="cls-2" d="M201.31,84.76a1.1,1.1,0,1,1,1.09-1.07A1.09,1.09,0,0,1,201.31,84.76ZM200.55,99V87.33h1.5V99Z" transform="translate(-59.5 -22.5)"/><path class="cls-2" d="M209.33,98.54a3,3,0,0,1-1.7.59c-2.77,0-3.41-3.71-3.41-5.79s.48-6.19,3.49-6.19a3.26,3.26,0,0,1,1.62.44v1.72a2.13,2.13,0,0,0-1.49-.81c-1.87,0-2.06,3.41-2.06,4.71s.24,4.55,2,4.55a2,2,0,0,0,1.51-1Z" transform="translate(-59.5 -22.5)"/><path class="cls-2" d="M215.67,99V90.5c0-.93,0-2.16-1.32-2.16a1.66,1.66,0,0,0-1.4.76,3.57,3.57,0,0,0-.4,2V99h-1.48V80h1.48v8.27a3.1,3.1,0,0,1,2.3-1.12c1.93,0,2.3,1.35,2.3,3V99Z" transform="translate(-59.5 -22.5)"/><path class="cls-2" d="M230.61,98.54a2.93,2.93,0,0,1-1.69.59c-2.78,0-3.42-3.71-3.42-5.79s.48-6.19,3.5-6.19a3.22,3.22,0,0,1,1.61.44v1.72a2.11,2.11,0,0,0-1.48-.81c-1.88,0-2.07,3.41-2.07,4.71s.24,4.55,2,4.55a2,2,0,0,0,1.51-1Z" transform="translate(-59.5 -22.5)"/><path class="cls-2" d="M233.2,84.76a1.1,1.1,0,1,1,1.08-1.07A1.08,1.08,0,0,1,233.2,84.76ZM232.43,99V87.33h1.51V99Z" transform="translate(-59.5 -22.5)"/><path class="cls-2" d="M238.49,88.68V99H237V88.68h-1.27V87.33H237V84h1.48v3.3h2v1.35Z" transform="translate(-59.5 -22.5)"/><path class="cls-2" d="M242.56,84.76a1.1,1.1,0,1,1,1.08-1.07A1.08,1.08,0,0,1,242.56,84.76ZM241.79,99V87.33h1.51V99Z" transform="translate(-59.5 -22.5)"/><path class="cls-2" d="M250.57,98.54a2.93,2.93,0,0,1-1.69.59c-2.78,0-3.41-3.71-3.41-5.79s.47-6.19,3.49-6.19a3.22,3.22,0,0,1,1.61.44v1.72a2.11,2.11,0,0,0-1.48-.81c-1.88,0-2.06,3.41-2.06,4.71s.23,4.55,2,4.55a2,2,0,0,0,1.51-1Z" transform="translate(-59.5 -22.5)"/><path class="cls-2" d="M258.4,95c-.08,1.87-.66,4.13-3,4.13-3,0-3.44-3.71-3.44-5.95s.45-6,3.33-6,3.2,3.51,3.2,5.56c0,.24,0,.5,0,.73h-5v.26c0,1.17.18,4.06,1.88,4.06,1.32,0,1.5-1.77,1.53-2.76ZM257,92.19c0-1-.18-3.69-1.69-3.69s-1.77,2.63-1.83,3.69Z" transform="translate(-59.5 -22.5)"/><path class="cls-2" d="M265.3,99V90.5c0-.93,0-2.16-1.33-2.16a1.68,1.68,0,0,0-1.4.76,3.6,3.6,0,0,0-.39,2V99H260.7V87.33h1.48v.94a3.1,3.1,0,0,1,2.3-1.12c2,0,2.3,1.61,2.3,3.2V99Z" transform="translate(-59.5 -22.5)"/><path class="cls-2" d="M273.89,89.7a2.78,2.78,0,0,0-2-1.2A1.46,1.46,0,0,0,270.4,90c0,2.27,3.81,2.68,3.81,5.83A3.16,3.16,0,0,1,271,99.13a3.61,3.61,0,0,1-2.19-.8V96.61a3,3,0,0,0,2.09,1.15,1.72,1.72,0,0,0,1.72-1.8c0-2.29-3.81-3.07-3.81-5.87a2.83,2.83,0,0,1,2.93-2.94,3.53,3.53,0,0,1,2.12.75Z" transform="translate(-59.5 -22.5)"/><path class="cls-2" d="M285.21,88.76a2.46,2.46,0,0,1,2.22-1.64c2.77,0,3.17,3.95,3.17,6s-.48,6.09-3.2,6.09a2.52,2.52,0,0,1-2.19-1.56v6.68H281.9v-17h3.31Zm.87,1.27c-1,0-1.11,2.42-1.11,3.12s.08,3.12,1.13,3.12,1.17-2.39,1.17-3.12S287.19,90,286.08,90Z" transform="translate(-59.5 -22.5)"/><path class="cls-2" d="M300.28,95A5.27,5.27,0,0,1,299,98.28a3.37,3.37,0,0,1-2.57.91,3.7,3.7,0,0,1-2.83-1A6.4,6.4,0,0,1,292,93.44a7.45,7.45,0,0,1,1.72-5.25,3.68,3.68,0,0,1,2.7-1.07,3.51,3.51,0,0,1,2.53.94,6.43,6.43,0,0,1,1.54,4.52,9.14,9.14,0,0,1-.08,1.15h-5.24a6.43,6.43,0,0,0,0,.65,3.4,3.4,0,0,0,.47,2.05.89.89,0,0,0,.69.31,1.06,1.06,0,0,0,.66-.21,2.69,2.69,0,0,0,.5-1.58Zm-2.67-3.23a2.89,2.89,0,0,0-.53-1.89,1,1,0,0,0-.61-.24,1.07,1.07,0,0,0-.74.31,3.11,3.11,0,0,0-.5,1.82Z" transform="translate(-59.5 -22.5)"/><path class="cls-2" d="M308.26,90.06a2.59,2.59,0,0,0-.47,0c-2,0-2.25,1.09-2.25,2.78V99h-3.31V87.33h3.31v1.43a3.62,3.62,0,0,1,2.72-1.85Z" transform="translate(-59.5 -22.5)"/><path class="cls-2" d="M315.37,98.77a4.22,4.22,0,0,1-1.87.42c-3.18,0-4.31-3.28-4.31-5.91,0-2.83,1.08-6.18,4.52-6.18a4.1,4.1,0,0,1,1.66.33v2.86a1.23,1.23,0,0,0-.92-.39c-1.59,0-1.93,1.95-1.93,3.15s.26,3.09,1.87,3.09a1.75,1.75,0,0,0,1-.33Z" transform="translate(-59.5 -22.5)"/><path class="cls-2" d="M324.87,95a5.27,5.27,0,0,1-1.27,3.33,3.37,3.37,0,0,1-2.57.91,3.7,3.7,0,0,1-2.83-1,6.4,6.4,0,0,1-1.61-4.71,7.45,7.45,0,0,1,1.72-5.25A3.68,3.68,0,0,1,321,87.12a3.52,3.52,0,0,1,2.54.94,6.43,6.43,0,0,1,1.54,4.52,9.14,9.14,0,0,1-.08,1.15h-5.24a6.43,6.43,0,0,0,0,.65,3.4,3.4,0,0,0,.47,2.05.89.89,0,0,0,.69.31,1.06,1.06,0,0,0,.66-.21,2.69,2.69,0,0,0,.5-1.58Zm-2.67-3.23a2.89,2.89,0,0,0-.53-1.89,1,1,0,0,0-.61-.24,1.07,1.07,0,0,0-.74.31,3.11,3.11,0,0,0-.5,1.82Z" transform="translate(-59.5 -22.5)"/><path class="cls-2" d="M328.54,85.59a2.06,2.06,0,1,1,2.09-2.06A2.06,2.06,0,0,1,328.54,85.59ZM326.87,99V87.33h3.31V99Z" transform="translate(-59.5 -22.5)"/><path class="cls-2" d="M337.56,99h-3.05l-3.38-11.62h3.25c.56,2.18,1.17,4.37,1.62,6.58.07-.5.23-1,.34-1.43l1.22-5.15H341Z" transform="translate(-59.5 -22.5)"/><path class="cls-2" d="M349.59,95a5.27,5.27,0,0,1-1.27,3.33,3.37,3.37,0,0,1-2.57.91,3.7,3.7,0,0,1-2.83-1,6.4,6.4,0,0,1-1.61-4.71A7.45,7.45,0,0,1,343,88.19a3.68,3.68,0,0,1,2.7-1.07,3.51,3.51,0,0,1,2.53.94,6.39,6.39,0,0,1,1.54,4.52,9.14,9.14,0,0,1-.08,1.15h-5.24a6.43,6.43,0,0,0,0,.65,3.4,3.4,0,0,0,.47,2.05.91.91,0,0,0,.69.31,1.06,1.06,0,0,0,.66-.21,2.69,2.69,0,0,0,.5-1.58Zm-2.67-3.23a2.89,2.89,0,0,0-.53-1.89,1,1,0,0,0-.61-.24,1.07,1.07,0,0,0-.74.31,3.11,3.11,0,0,0-.5,1.82Z" transform="translate(-59.5 -22.5)"/><path class="cls-2" d="M356.59,99V97.63a2.52,2.52,0,0,1-2.19,1.56c-2.73,0-3.2-4.11-3.2-6.09s.39-6,3.17-6a2.46,2.46,0,0,1,2.22,1.64V80h3.31V99Zm-.9-8.92c-1.08,0-1.16,2.4-1.16,3.12s.08,3.12,1.19,3.12,1.11-2.41,1.11-3.12S356.75,90,355.69,90Z" transform="translate(-59.5 -22.5)"/><path class="cls-2" d="M371.79,90V99h-3.3V90h-1.14v-2.7h1.14V84h3.3v3.3h1.35V90Z" transform="translate(-59.5 -22.5)"/><path class="cls-2" d="M378.4,99.19c-3.38,0-4.49-3.23-4.49-6s1.11-6,4.49-6,4.45,3.15,4.45,6S381.9,99.19,378.4,99.19Zm0-9.16c-1.08,0-1.16,2.37-1.16,3.12s.08,3.12,1.16,3.12,1.12-2.41,1.12-3.12S379.44,90,378.4,90Z" transform="translate(-59.5 -22.5)"/><path class="cls-2" d="M93.41,120a2.48,2.48,0,0,1,2.22-1.64c2.78,0,3.18,4,3.18,6s-.48,6.09-3.2,6.09a2.55,2.55,0,0,1-2.2-1.56v1.32h-3.3v-19h3.3Zm.88,1.27c-1,0-1.11,2.42-1.11,3.12s.07,3.12,1.13,3.12,1.17-2.39,1.17-3.12S95.4,121.23,94.29,121.23Z" transform="translate(-59.5 -22.5)"/><path class="cls-2" d="M108.48,126.15a5.2,5.2,0,0,1-1.26,3.33,3.37,3.37,0,0,1-2.57.91,3.7,3.7,0,0,1-2.83-1,6.4,6.4,0,0,1-1.61-4.71,7.45,7.45,0,0,1,1.72-5.25,3.68,3.68,0,0,1,2.69-1.07,3.53,3.53,0,0,1,2.54.94,6.43,6.43,0,0,1,1.54,4.52,9.14,9.14,0,0,1-.08,1.15h-5.24a4.3,4.3,0,0,0,0,.65,3.39,3.39,0,0,0,.48,2,.89.89,0,0,0,.69.31,1.06,1.06,0,0,0,.66-.21,2.69,2.69,0,0,0,.5-1.58Zm-2.67-3.23a2.89,2.89,0,0,0-.52-1.89,1,1,0,0,0-.61-.24,1.07,1.07,0,0,0-.74.31,3.11,3.11,0,0,0-.51,1.82Z" transform="translate(-59.5 -22.5)"/><path class="cls-2" d="M124.51,126.15a5.27,5.27,0,0,1-1.27,3.33,3.37,3.37,0,0,1-2.57.91,3.7,3.7,0,0,1-2.83-1,6.4,6.4,0,0,1-1.61-4.71,7.45,7.45,0,0,1,1.72-5.25,3.68,3.68,0,0,1,2.7-1.07,3.51,3.51,0,0,1,2.53.94,6.39,6.39,0,0,1,1.54,4.52,9.14,9.14,0,0,1-.08,1.15H119.4a6.43,6.43,0,0,0,0,.65,3.4,3.4,0,0,0,.47,2,.91.91,0,0,0,.69.31,1.06,1.06,0,0,0,.66-.21,2.69,2.69,0,0,0,.5-1.58Zm-2.67-3.23a2.89,2.89,0,0,0-.53-1.89,1,1,0,0,0-.61-.24,1.07,1.07,0,0,0-.74.31,3.11,3.11,0,0,0-.5,1.82Z" transform="translate(-59.5 -22.5)"/><path class="cls-2" d="M132.2,130.15l-1.08-2a7.7,7.7,0,0,1-.64-1.48,12,12,0,0,1-.69,1.56l-1.08,2h-3.38l3.38-6.24-2.94-5.38h3.42l.63,1.22a9,9,0,0,1,.66,1.69,6.9,6.9,0,0,1,.72-1.77l.6-1.14h3.41l-3,5.38,3.49,6.24Z" transform="translate(-59.5 -22.5)"/><path class="cls-2" d="M140,120a2.46,2.46,0,0,1,2.22-1.64c2.77,0,3.17,4,3.17,6s-.47,6.09-3.2,6.09a2.52,2.52,0,0,1-2.19-1.56v6.68h-3.31v-17H140Zm.87,1.27c-1,0-1.11,2.42-1.11,3.12s.08,3.12,1.14,3.12,1.16-2.39,1.16-3.12S141.93,121.23,140.82,121.23Z" transform="translate(-59.5 -22.5)"/><path class="cls-2" d="M151.26,130.39c-3.38,0-4.49-3.23-4.49-6s1.11-6,4.49-6,4.45,3.15,4.45,6S154.75,130.39,151.26,130.39Zm0-9.16c-1.08,0-1.16,2.37-1.16,3.12s.08,3.12,1.16,3.12,1.11-2.41,1.11-3.12S152.29,121.23,151.26,121.23Z" transform="translate(-59.5 -22.5)"/><path class="cls-2" d="M163,121.68a2.25,2.25,0,0,0-1.56-.78.79.79,0,0,0-.84.83c0,1.4,3.7,1.12,3.7,4.63,0,2.21-1.35,4-3.73,4a5.82,5.82,0,0,1-3.6-1.33l1.46-2.31a2.54,2.54,0,0,0,1.61.72,1,1,0,0,0,1.06-1c0-1.45-3.86-1.25-3.86-4.76,0-2.23,1.82-3.43,3.94-3.43a5.07,5.07,0,0,1,3.15,1Z" transform="translate(-59.5 -22.5)"/><path class="cls-2" d="M173.71,126.15a5.21,5.21,0,0,1-1.27,3.33,3.36,3.36,0,0,1-2.56.91,3.7,3.7,0,0,1-2.83-1,6.4,6.4,0,0,1-1.62-4.71,7.5,7.5,0,0,1,1.72-5.25,3.7,3.7,0,0,1,2.7-1.07,3.55,3.55,0,0,1,2.54.94,6.42,6.42,0,0,1,1.53,4.52,7.59,7.59,0,0,1-.08,1.15h-5.23a4.3,4.3,0,0,0,0,.65,3.39,3.39,0,0,0,.48,2,.88.88,0,0,0,.69.31,1.06,1.06,0,0,0,.66-.21,2.76,2.76,0,0,0,.5-1.58ZM171,122.92a2.89,2.89,0,0,0-.53-1.89,1,1,0,0,0-.61-.24,1.09,1.09,0,0,0-.74.31,3.18,3.18,0,0,0-.5,1.82Z" transform="translate(-59.5 -22.5)"/><path class="cls-2" d="M180.72,130.15v-1.32a2.55,2.55,0,0,1-2.2,1.56c-2.72,0-3.2-4.11-3.2-6.09s.4-6,3.18-6a2.48,2.48,0,0,1,2.22,1.64V111.2H184v19Zm-.9-8.92c-1.09,0-1.17,2.4-1.17,3.12s.08,3.12,1.19,3.12,1.12-2.41,1.12-3.12S180.88,121.23,179.82,121.23Z" transform="translate(-59.5 -22.5)"/><path class="cls-2" d="M194.49,119.88v10.27H193V119.88h-1.27v-1.35H193v-3.3h1.48v3.3h2v1.35Z" transform="translate(-59.5 -22.5)"/><path class="cls-2" d="M200.81,130.33c-3,0-3.46-3.74-3.46-6s.42-6,3.46-6,3.31,3.82,3.31,6.06S203.85,130.33,200.81,130.33Zm0-10.63c-1.83,0-1.88,3.54-1.88,4.76s.08,4.5,1.88,4.5,1.79-3.46,1.79-4.63S202.53,119.7,200.79,119.7Z" transform="translate(-59.5 -22.5)"/><path class="cls-2" d="M214.27,114.29v6.11H218v1.48h-3.75v8.27h-1.64V112.81h5.61v1.48Z" transform="translate(-59.5 -22.5)"/><path class="cls-2" d="M226.43,130.15l-4.1-8.47v8.47h-1.79V112.81h2.22a6.42,6.42,0,0,1,3,.49c1.58.84,1.9,2.55,1.9,4.16,0,2.39-.82,4.16-3.49,4.37l4.1,8.32Zm-3-9.75c2.11,0,2.46-1.22,2.46-3,0-2-.43-3.07-2.67-3.07h-.88v6.11Z" transform="translate(-59.5 -22.5)"/><path class="cls-2" d="M232.67,114.29v15.86H231V114.29h-2.64v-1.48h6.93v1.48Z" transform="translate(-59.5 -22.5)"/><path class="cls-2" d="M240.37,120.9a2.78,2.78,0,0,0-2-1.2,1.46,1.46,0,0,0-1.45,1.53c0,2.27,3.8,2.68,3.8,5.83a3.15,3.15,0,0,1-3.17,3.27,3.67,3.67,0,0,1-2.2-.8v-1.72A3.06,3.06,0,0,0,237.4,129a1.71,1.71,0,0,0,1.72-1.8c0-2.29-3.81-3.07-3.81-5.87a2.84,2.84,0,0,1,2.94-2.94,3.58,3.58,0,0,1,2.12.75Z" transform="translate(-59.5 -22.5)"/><path class="cls-2" d="M242.45,133.84l-1.13-.52,1.82-5.33,1.64.73Z" transform="translate(-59.5 -22.5)"/><path class="cls-2" d="M259.3,126.2c-.08,1.87-.66,4.13-3,4.13-3,0-3.44-3.71-3.44-6s.45-6,3.33-6,3.2,3.51,3.2,5.56c0,.24,0,.5,0,.73h-5v.26c0,1.17.18,4.06,1.88,4.06,1.32,0,1.5-1.77,1.53-2.76Zm-1.38-2.81c-.05-1-.18-3.69-1.69-3.69s-1.77,2.63-1.83,3.69Z" transform="translate(-59.5 -22.5)"/><path class="cls-2" d="M262.6,130.33a1.21,1.21,0,0,1-1.19-1.17,1.19,1.19,0,1,1,1.19,1.17Z" transform="translate(-59.5 -22.5)"/><path class="cls-2" d="M272.38,131.43c0,2.1-.82,3.4-3.09,3.4-2.06,0-3.07-1.27-3.07-3.22a2,2,0,0,1,0-.44h1.51c0,1.17.13,2.28,1.61,2.28s1.51-1.14,1.51-2.26v-1.87a2.36,2.36,0,0,1-1.88.83c-3,0-3-4-3-6.06,0-2,.22-5.74,2.94-5.74a2.33,2.33,0,0,1,2,1v-.81h1.5Zm-3.14-11.89c-1.59,0-1.72,2.68-1.72,5.1,0,1.25,0,4.32,1.85,4.32,1.32,0,1.51-1.54,1.59-2.5s.08-1.87.08-2.81C271,122.43,271,119.54,269.24,119.54Z" transform="translate(-59.5 -22.5)"/><path class="cls-2" d="M276,130.33a1.21,1.21,0,0,1-1.19-1.17,1.19,1.19,0,1,1,1.19,1.17Z" transform="translate(-59.5 -22.5)"/><path class="cls-2" d="M279.68,133.84l-1.14-.52,1.83-5.33,1.64.73Z" transform="translate(-59.5 -22.5)"/><path class="cls-2" d="M298,130.15h-1.54c-.5-3.22-1.08-6.45-1.5-9.67-.11.62-.14,1.2-.24,1.82l-1.3,7.85h-1.53l-2.38-11.62H291l1.32,7c.16.8.26,1.63.34,2.44,0-.78.21-1.59.34-2.39l1.2-7.1h1.53c.5,3.15,1.11,6.32,1.48,9.49.13-.81.24-1.64.4-2.47l1.45-7h1.51Z" transform="translate(-59.5 -22.5)"/><path class="cls-2" d="M306.75,130.15V121.7c0-.93,0-2.16-1.32-2.16a1.68,1.68,0,0,0-1.4.76,3.57,3.57,0,0,0-.4,2v7.82h-1.48v-19h1.48v8.27a3.13,3.13,0,0,1,2.3-1.12c1.94,0,2.31,1.35,2.31,3v8.81Z" transform="translate(-59.5 -22.5)"/><path class="cls-2" d="M311.62,116a1.1,1.1,0,1,1,1.08-1.07A1.08,1.08,0,0,1,311.62,116Zm-.77,14.19V118.53h1.51v11.62Z" transform="translate(-59.5 -22.5)"/><path class="cls-2" d="M315,130.15v-19h1.5v19Z" transform="translate(-59.5 -22.5)"/><path class="cls-2" d="M325.1,126.2c-.08,1.87-.66,4.13-3,4.13-3,0-3.44-3.71-3.44-6s.45-6,3.33-6,3.2,3.51,3.2,5.56c0,.24,0,.5,0,.73h-5v.26c0,1.17.18,4.06,1.87,4.06,1.32,0,1.51-1.77,1.54-2.76Zm-1.37-2.81c-.05-1-.19-3.69-1.69-3.69s-1.78,2.63-1.83,3.69Z" transform="translate(-59.5 -22.5)"/><path class="cls-2" d="M94.84,152.1a2.78,2.78,0,0,0-2-1.2,1.46,1.46,0,0,0-1.46,1.53c0,2.26,3.81,2.68,3.81,5.83A3.16,3.16,0,0,1,92,161.53a3.64,3.64,0,0,1-2.2-.8V159a3,3,0,0,0,2.09,1.14,1.7,1.7,0,0,0,1.72-1.79c0-2.29-3.81-3.07-3.81-5.88a2.83,2.83,0,0,1,2.94-2.93,3.53,3.53,0,0,1,2.11.75Z" transform="translate(-59.5 -22.5)"/><path class="cls-2" d="M107.75,161.35h-1.49v-8.61c0-1-.15-2-1.37-2-1.72,0-1.8,1.9-1.8,3.17v7.44h-1.51v-8.58c0-.86-.08-2-1.24-2-1.85,0-1.9,2.06-1.9,3.41v7.2H97V149.73h1.48v1a3.17,3.17,0,0,1,2.3-1.14,2.32,2.32,0,0,1,2.17,1.35,2.87,2.87,0,0,1,2.43-1.35c1.9,0,2.41,1.22,2.41,2.88Z" transform="translate(-59.5 -22.5)"/><path class="cls-2" d="M114.88,161.35v-.93a2.33,2.33,0,0,1-2,1.11c-2.69,0-2.77-3.72-2.77-5.77,0-2.37.08-6.21,2.91-6.21a2.18,2.18,0,0,1,1.87,1v-.78h1.51v11.62Zm-1.5-10.63c-1.72,0-1.75,3-1.75,4.13,0,1,0,1.87.08,2.81s.26,2.68,1.64,2.68a1.18,1.18,0,0,0,1-.39c.74-.73.74-3.46.74-4.48C115,153.16,114.91,150.72,113.38,150.72Z" transform="translate(-59.5 -22.5)"/><path class="cls-2" d="M122.52,151.24c-2,0-2,1.56-2,3.07v7H119V149.73h1.48v1.51a2.43,2.43,0,0,1,2-1.69Z" transform="translate(-59.5 -22.5)"/><path class="cls-2" d="M126.52,151.08v10.27H125V151.08h-1.26v-1.35H125v-3.3h1.49v3.3h2v1.35Z" transform="translate(-59.5 -22.5)"/><path class="cls-2" d="M131.33,150.51a2.15,2.15,0,0,1,1.88-1c2.9,0,2.93,3.66,2.93,5.77,0,2.49-.08,6.21-2.78,6.21a2.47,2.47,0,0,1-2-1.11V166h-1.48v-16.3h1.48Zm1.53.21c-1.53,0-1.66,2.44-1.66,4.75,0,1,0,3.75.74,4.48a1.18,1.18,0,0,0,.95.39c1.37,0,1.53-1.67,1.64-2.68s.08-1.82.08-2.73C134.61,153.76,134.58,150.72,132.86,150.72Z" transform="translate(-59.5 -22.5)"/><path class="cls-2" d="M142.94,161.35V152.9c0-.94,0-2.16-1.33-2.16a1.68,1.68,0,0,0-1.4.76,3.64,3.64,0,0,0-.39,2v7.83h-1.49V142.4h1.49v8.26a3.12,3.12,0,0,1,2.3-1.11c1.93,0,2.3,1.35,2.3,3v8.81Z" transform="translate(-59.5 -22.5)"/><path class="cls-2" d="M149.76,161.53c-3,0-3.47-3.74-3.47-6s.43-6,3.47-6,3.3,3.82,3.3,6S152.8,161.53,149.76,161.53Zm0-10.63c-1.82,0-1.88,3.53-1.88,4.76s.08,4.49,1.88,4.49,1.8-3.45,1.8-4.62S151.48,150.9,149.73,150.9Z" transform="translate(-59.5 -22.5)"/><path class="cls-2" d="M159.88,161.35V152.9c0-.94,0-2.16-1.32-2.16a1.68,1.68,0,0,0-1.4.76,3.51,3.51,0,0,0-.4,2v7.83h-1.48V149.73h1.48v.93a3.14,3.14,0,0,1,2.3-1.11c2,0,2.3,1.61,2.3,3.19v8.61Z" transform="translate(-59.5 -22.5)"/><path class="cls-2" d="M170,157.4c-.08,1.87-.66,4.13-3,4.13-3.05,0-3.44-3.72-3.44-5.95s.45-6,3.33-6,3.2,3.51,3.2,5.56c0,.24,0,.49,0,.73h-5v.26c0,1.17.19,4.05,1.88,4.05,1.32,0,1.51-1.76,1.54-2.75Zm-1.37-2.81c-.05-1-.19-3.69-1.69-3.69s-1.78,2.62-1.83,3.69Z" transform="translate(-59.5 -22.5)"/><path class="cls-2" d="M184.58,158.52a3.07,3.07,0,0,1-6.14,0v-8.79h1.48v7.88c0,1.19.06,2.54,1.64,2.54s1.54-1.55,1.54-2.7v-7.72h1.48Z" transform="translate(-59.5 -22.5)"/><path class="cls-2" d="M191.69,152.1a2.78,2.78,0,0,0-2-1.2,1.46,1.46,0,0,0-1.45,1.53c0,2.26,3.81,2.68,3.81,5.83a3.16,3.16,0,0,1-3.18,3.27,3.61,3.61,0,0,1-2.19-.8V159a3,3,0,0,0,2.09,1.14,1.7,1.7,0,0,0,1.72-1.79c0-2.29-3.81-3.07-3.81-5.88a2.83,2.83,0,0,1,2.93-2.93,3.53,3.53,0,0,1,2.12.75Z" transform="translate(-59.5 -22.5)"/><path class="cls-2" d="M198.3,161.35v-.93a2.33,2.33,0,0,1-2,1.11c-2.7,0-2.78-3.72-2.78-5.77,0-2.37.08-6.21,2.91-6.21a2.19,2.19,0,0,1,1.88,1v-.78h1.51v11.62Zm-1.51-10.63c-1.72,0-1.74,3-1.74,4.13,0,1,0,1.87.08,2.81s.26,2.68,1.64,2.68a1.21,1.21,0,0,0,.95-.39c.74-.73.74-3.46.74-4.48C198.46,153.16,198.33,150.72,196.79,150.72Z" transform="translate(-59.5 -22.5)"/><path class="cls-2" d="M208.56,162.63c0,2.1-.82,3.4-3.1,3.4-2.06,0-3.06-1.27-3.06-3.22a3.24,3.24,0,0,1,0-.45h1.51c0,1.17.13,2.29,1.61,2.29s1.51-1.14,1.51-2.26v-1.87a2.35,2.35,0,0,1-1.88.83c-3,0-3-3.95-3-6.06,0-1.95.21-5.74,2.93-5.74a2.35,2.35,0,0,1,2,1v-.8h1.51Zm-3.15-11.89c-1.58,0-1.72,2.68-1.72,5.1,0,1.25,0,4.31,1.85,4.31,1.33,0,1.51-1.53,1.59-2.49s.08-1.87.08-2.81C207.21,153.63,207.21,150.74,205.41,150.74Z" transform="translate(-59.5 -22.5)"/><path class="cls-2" d="M217.12,157.4c-.08,1.87-.66,4.13-3,4.13-3,0-3.44-3.72-3.44-5.95s.45-6,3.33-6,3.2,3.51,3.2,5.56c0,.24,0,.49,0,.73h-5v.26c0,1.17.18,4.05,1.87,4.05,1.33,0,1.51-1.76,1.54-2.75Zm-1.37-2.81c-.05-1-.19-3.69-1.69-3.69s-1.77,2.62-1.83,3.69Z" transform="translate(-59.5 -22.5)"/><path class="cls-2" d="M220.43,161.53a1.2,1.2,0,0,1-1.19-1.17,1.19,1.19,0,1,1,1.19,1.17Z" transform="translate(-59.5 -22.5)"/><path class="cls-2" d="M236.29,146.74a3.28,3.28,0,0,0-2.61-1.41,2.62,2.62,0,0,0-2.54,2.84c0,4,6,3.74,6,8.55a4.63,4.63,0,0,1-4.42,4.89,4.84,4.84,0,0,1-2.78-.91v-2.08a4,4,0,0,0,2.86,1.4,2.83,2.83,0,0,0,2.67-3.09c0-4-6-3.69-6-8.55,0-2.37,1.48-4.61,4.07-4.61a4.53,4.53,0,0,1,2.75.94Z" transform="translate(-59.5 -22.5)"/><path class="cls-2" d="M244.86,157.4c-.08,1.87-.66,4.13-3,4.13-3,0-3.44-3.72-3.44-5.95s.45-6,3.34-6,3.2,3.51,3.2,5.56c0,.24,0,.49,0,.73h-5v.26c0,1.17.19,4.05,1.88,4.05,1.32,0,1.51-1.76,1.53-2.75Zm-1.38-2.81c0-1-.18-3.69-1.69-3.69s-1.77,2.62-1.82,3.69Z" transform="translate(-59.5 -22.5)"/><path class="cls-2" d="M251.81,160.93a2.85,2.85,0,0,1-1.69.6c-2.78,0-3.41-3.72-3.41-5.8s.48-6.18,3.49-6.18a3.2,3.2,0,0,1,1.61.44v1.71a2.11,2.11,0,0,0-1.48-.8c-1.87,0-2.06,3.41-2.06,4.7s.24,4.55,2,4.55a2,2,0,0,0,1.5-1Z" transform="translate(-59.5 -22.5)"/><path class="cls-2" d="M256.68,161.53c-3,0-3.47-3.74-3.47-6s.43-6,3.47-6,3.3,3.82,3.3,6S259.72,161.53,256.68,161.53Zm0-10.63c-1.82,0-1.88,3.53-1.88,4.76s.08,4.49,1.88,4.49,1.8-3.45,1.8-4.62S258.4,150.9,256.65,150.9Z" transform="translate(-59.5 -22.5)"/><path class="cls-2" d="M266.8,161.35V152.9c0-.94,0-2.16-1.32-2.16a1.68,1.68,0,0,0-1.4.76,3.51,3.51,0,0,0-.4,2v7.83H262.2V149.73h1.48v.93a3.16,3.16,0,0,1,2.3-1.11c2,0,2.31,1.61,2.31,3.19v8.61Z" transform="translate(-59.5 -22.5)"/><path class="cls-2" d="M275.29,161.35v-.93a2.38,2.38,0,0,1-2,1.11c-2.72,0-2.77-3.87-2.77-5.9,0-2.26,0-6.08,2.93-6.08a2.19,2.19,0,0,1,1.88,1V142.4h1.48v18.95Zm-1.53-10.63c-1.7,0-1.72,3-1.72,4.13,0,1,0,1.87.08,2.81s.24,2.68,1.61,2.68a1.26,1.26,0,0,0,1-.39c.71-.71.71-3.43.71-4.4C275.42,153.11,275.29,150.72,273.76,150.72Z" transform="translate(-59.5 -22.5)"/><path class="cls-2" d="M279.39,165l-1.14-.52,1.83-5.33,1.64.73Z" transform="translate(-59.5 -22.5)"/><path class="cls-2" d="M292.19,151.08v10.27H290.7V151.08h-1.27v-1.35h1.27v-3.3h1.49v3.3h2v1.35Z" transform="translate(-59.5 -22.5)"/><path class="cls-2" d="M300.12,161.35V152.9c0-.94,0-2.16-1.32-2.16a1.68,1.68,0,0,0-1.41.76,3.64,3.64,0,0,0-.39,2v7.83h-1.48V142.4H297v8.26a3.12,3.12,0,0,1,2.3-1.11c1.93,0,2.3,1.35,2.3,3v8.81Z" transform="translate(-59.5 -22.5)"/><path class="cls-2" d="M309.93,157.4c-.08,1.87-.66,4.13-3,4.13-3,0-3.44-3.72-3.44-5.95s.45-6,3.33-6,3.2,3.51,3.2,5.56c0,.24,0,.49,0,.73h-5v.26c0,1.17.18,4.05,1.88,4.05,1.32,0,1.5-1.76,1.53-2.75Zm-1.38-2.81c-.05-1-.18-3.69-1.69-3.69s-1.77,2.62-1.82,3.69Z" transform="translate(-59.5 -22.5)"/><path class="cls-2" d="M320.32,151.08v10.27h-1.48V151.08h-1.35v-1.35h1.35v-4.66c0-1.48.39-3,2.19-3a3.34,3.34,0,0,1,1.32.26V144a1.75,1.75,0,0,0-1.08-.52c-.87,0-.95.78-.95,1.43v4.84h2v1.35Z" transform="translate(-59.5 -22.5)"/><path class="cls-2" d="M327.27,151.24c-2,0-2,1.56-2,3.07v7h-1.48V149.73h1.48v1.51a2.43,2.43,0,0,1,2-1.69Z" transform="translate(-59.5 -22.5)"/><path class="cls-2" d="M334.75,157.4c-.08,1.87-.66,4.13-3,4.13-3,0-3.44-3.72-3.44-5.95s.45-6,3.33-6,3.2,3.51,3.2,5.56c0,.24,0,.49,0,.73h-5v.26c0,1.17.19,4.05,1.88,4.05,1.32,0,1.51-1.76,1.54-2.75Zm-1.37-2.81c-.05-1-.19-3.69-1.69-3.69s-1.78,2.62-1.83,3.69Z" transform="translate(-59.5 -22.5)"/><path class="cls-2" d="M341.55,166v-5.61a2.34,2.34,0,0,1-2,1.11c-2.7,0-2.78-3.72-2.78-5.77,0-2.39,0-6.21,2.91-6.21a2.19,2.19,0,0,1,1.88,1v-.78h1.51V166ZM340,150.72c-1.72,0-1.74,3-1.74,4.13,0,1,0,1.87.08,2.81s.26,2.68,1.63,2.68a1.22,1.22,0,0,0,1-.39c.74-.73.74-3.46.74-4.48C341.71,153,341.55,150.72,340,150.72Z" transform="translate(-59.5 -22.5)"/><path class="cls-2" d="M351.75,158.52a3.07,3.07,0,0,1-6.13,0v-8.79h1.48v7.88c0,1.19,0,2.54,1.64,2.54s1.53-1.55,1.53-2.7v-7.72h1.48Z" transform="translate(-59.5 -22.5)"/><path class="cls-2" d="M360.37,157.4c-.08,1.87-.66,4.13-3,4.13-3.05,0-3.44-3.72-3.44-5.95s.45-6,3.33-6,3.2,3.51,3.2,5.56c0,.24,0,.49,0,.73h-5v.26c0,1.17.18,4.05,1.87,4.05,1.32,0,1.51-1.76,1.54-2.75ZM359,154.59c-.05-1-.19-3.69-1.69-3.69s-1.78,2.62-1.83,3.69Z" transform="translate(-59.5 -22.5)"/><path class="cls-2" d="M367.27,161.35V152.9c0-.94,0-2.16-1.32-2.16a1.68,1.68,0,0,0-1.4.76,3.51,3.51,0,0,0-.4,2v7.83h-1.48V149.73h1.48v.93a3.16,3.16,0,0,1,2.3-1.11c2,0,2.3,1.61,2.3,3.19v8.61Z" transform="translate(-59.5 -22.5)"/><path class="cls-2" d="M376.05,160.93a2.85,2.85,0,0,1-1.69.6c-2.78,0-3.41-3.72-3.41-5.8s.47-6.18,3.49-6.18a3.2,3.2,0,0,1,1.61.44v1.71a2.11,2.11,0,0,0-1.48-.8c-1.88,0-2.06,3.41-2.06,4.7s.24,4.55,2,4.55a2,2,0,0,0,1.51-1Z" transform="translate(-59.5 -22.5)"/><path class="cls-2" d="M380.26,166h-1.59l1.32-5-2.8-11.31h1.51l1.48,6.45c.23,1,.42,1.95.55,2.91.11-.73.29-1.43.48-2.19l1.72-7.17h1.56Z" transform="translate(-59.5 -22.5)"/><path class="cls-2" d="M93.39,192.73c-3,0-3.47-3.74-3.47-6s.43-6,3.47-6,3.3,3.82,3.3,6.06S96.43,192.73,93.39,192.73Zm0-10.63c-1.82,0-1.88,3.54-1.88,4.76s.08,4.49,1.88,4.49,1.8-3.45,1.8-4.62S95.11,182.1,93.36,182.1Z" transform="translate(-59.5 -22.5)"/><path class="cls-2" d="M100.84,182.28v10.27H99.36V182.28H98v-1.35h1.35v-4.66c0-1.48.4-3,2.2-3a3.34,3.34,0,0,1,1.32.26v1.61a1.78,1.78,0,0,0-1.09-.52c-.87,0-1,.78-1,1.43v4.84h2v1.35Z" transform="translate(-59.5 -22.5)"/><path class="cls-2" d="M112.24,176.69v6.11H116v1.48h-3.75v8.27H110.6V175.21h5.61v1.48Z" transform="translate(-59.5 -22.5)"/><path class="cls-2" d="M124.4,192.55l-4.1-8.48v8.48h-1.8V175.21h2.23a6.42,6.42,0,0,1,3,.49c1.58.83,1.9,2.55,1.9,4.16,0,2.4-.82,4.16-3.49,4.37l4.1,8.32Zm-3-9.75c2.11,0,2.46-1.22,2.46-3,0-2-.43-3.07-2.67-3.07h-.88v6.11Z" transform="translate(-59.5 -22.5)"/><path class="cls-2" d="M130.64,176.69v15.86H129V176.69h-2.64v-1.48h6.93v1.48Z" transform="translate(-59.5 -22.5)"/><path class="cls-2" d="M138.33,183.29a2.76,2.76,0,0,0-2-1.19,1.47,1.47,0,0,0-1.46,1.53c0,2.26,3.81,2.68,3.81,5.83a3.15,3.15,0,0,1-3.17,3.27,3.67,3.67,0,0,1-2.2-.8v-1.72a3,3,0,0,0,2.09,1.14,1.7,1.7,0,0,0,1.72-1.79c0-2.29-3.81-3.07-3.81-5.88a2.83,2.83,0,0,1,2.94-2.93,3.53,3.53,0,0,1,2.11.75Z" transform="translate(-59.5 -22.5)"/><path class="cls-2" d="M154.62,188.78a3.64,3.64,0,0,1-.55,2.21,4.36,4.36,0,0,1-3.63,1.8,4.28,4.28,0,0,1-3.62-1.82,3.52,3.52,0,0,1-.47-2v-8h3.3v7.15c0,.57,0,1.69.82,1.69,1,0,.82-1.56.82-2.18v-6.66h3.33Z" transform="translate(-59.5 -22.5)"/><path class="cls-2" d="M162.26,184.07a2.29,2.29,0,0,0-1.56-.78.8.8,0,0,0-.84.84c0,1.4,3.7,1.11,3.7,4.63,0,2.21-1.35,4-3.73,4a5.8,5.8,0,0,1-3.6-1.33l1.46-2.32a2.55,2.55,0,0,0,1.61.73,1,1,0,0,0,1.06-1c0-1.46-3.86-1.25-3.86-4.76,0-2.23,1.82-3.43,3.94-3.43a5,5,0,0,1,3.14,1Z" transform="translate(-59.5 -22.5)"/><path class="cls-2" d="M173,188.55a5.27,5.27,0,0,1-1.27,3.33,3.36,3.36,0,0,1-2.56.91,3.7,3.7,0,0,1-2.83-1,6.4,6.4,0,0,1-1.62-4.71,7.5,7.5,0,0,1,1.72-5.25,3.7,3.7,0,0,1,2.7-1.07,3.55,3.55,0,0,1,2.54.94,6.42,6.42,0,0,1,1.53,4.52,7.46,7.46,0,0,1-.08,1.14h-5.23a4.43,4.43,0,0,0,0,.65,3.41,3.41,0,0,0,.48,2.06.87.87,0,0,0,.68.31,1.07,1.07,0,0,0,.67-.21,2.76,2.76,0,0,0,.5-1.58Zm-2.67-3.23a2.89,2.89,0,0,0-.53-1.89,1,1,0,0,0-.61-.24,1.09,1.09,0,0,0-.74.31,3.18,3.18,0,0,0-.5,1.82Z" transform="translate(-59.5 -22.5)"/><path class="cls-2" d="M182.81,179.19a2.06,2.06,0,1,1,2.08-2.06A2.06,2.06,0,0,1,182.81,179.19Zm-1.67,13.36V180.93h3.31v11.62Z" transform="translate(-59.5 -22.5)"/><path class="cls-2" d="M191.53,192.55v-7.12c0-.52,0-1.46-.79-1.46-1,0-.9,1.2-.9,1.85v6.73h-3.31V180.93h3.31v1.82a3.17,3.17,0,0,1,2.8-2c2,0,2.2,1.87,2.2,3.43v8.4Z" transform="translate(-59.5 -22.5)"/><path class="cls-2" d="M206.42,182.36a2.46,2.46,0,0,1,2.22-1.64c2.77,0,3.17,3.95,3.17,6s-.48,6.09-3.2,6.09a2.52,2.52,0,0,1-2.19-1.57v6.69h-3.31v-17h3.31Zm.87,1.27c-1,0-1.11,2.42-1.11,3.12s.08,3.12,1.14,3.12,1.16-2.39,1.16-3.12S208.4,183.63,207.29,183.63Z" transform="translate(-59.5 -22.5)"/><path class="cls-2" d="M219.61,183.66a2.61,2.61,0,0,0-.48,0c-2,0-2.24,1.09-2.24,2.78v6.16h-3.31V180.93h3.31v1.43a3.62,3.62,0,0,1,2.72-1.85Z" transform="translate(-59.5 -22.5)"/><path class="cls-2" d="M222.65,179.19a2.06,2.06,0,1,1,2.09-2.06A2.06,2.06,0,0,1,222.65,179.19ZM221,192.55V180.93h3.31v11.62Z" transform="translate(-59.5 -22.5)"/><path class="cls-2" d="M231.67,192.55h-3l-3.39-11.62h3.25c.56,2.18,1.17,4.37,1.62,6.58.08-.5.23-1,.34-1.43l1.22-5.15h3.43Z" transform="translate(-59.5 -22.5)"/><path class="cls-2" d="M241,192.55v-1.33a2.54,2.54,0,0,1-2.2,1.57c-2.72,0-3.2-4.11-3.2-6.09s.4-6,3.18-6a2.48,2.48,0,0,1,2.22,1.64v-1.43h3.3v11.62Zm-.9-8.92c-1.09,0-1.17,2.39-1.17,3.12s.08,3.12,1.19,3.12,1.12-2.42,1.12-3.12S241.11,183.63,240.05,183.63Z" transform="translate(-59.5 -22.5)"/><path class="cls-2" d="M250,183.63v8.92h-3.31v-8.92h-1.13v-2.7h1.13v-3.3H250v3.3h1.35v2.7Z" transform="translate(-59.5 -22.5)"/><path class="cls-2" d="M260.35,188.55a5.2,5.2,0,0,1-1.26,3.33,3.37,3.37,0,0,1-2.57.91,3.7,3.7,0,0,1-2.83-1,6.4,6.4,0,0,1-1.61-4.71,7.45,7.45,0,0,1,1.72-5.25,3.68,3.68,0,0,1,2.69-1.07,3.53,3.53,0,0,1,2.54.94,6.43,6.43,0,0,1,1.54,4.52,9,9,0,0,1-.08,1.14h-5.24a4.43,4.43,0,0,0,0,.65,3.41,3.41,0,0,0,.48,2.06.89.89,0,0,0,.69.31,1.06,1.06,0,0,0,.66-.21,2.69,2.69,0,0,0,.5-1.58Zm-2.67-3.23a2.89,2.89,0,0,0-.52-1.89,1,1,0,0,0-.61-.24,1.07,1.07,0,0,0-.74.31,3.11,3.11,0,0,0-.51,1.82Z" transform="translate(-59.5 -22.5)"/><path class="cls-2" d="M274.31,192.37a4.22,4.22,0,0,1-1.87.42c-3.18,0-4.31-3.28-4.31-5.91,0-2.83,1.08-6.19,4.52-6.19a4.11,4.11,0,0,1,1.66.34v2.86a1.23,1.23,0,0,0-.92-.39c-1.59,0-1.93,1.95-1.93,3.15s.26,3.09,1.88,3.09a1.68,1.68,0,0,0,1-.34Z" transform="translate(-59.5 -22.5)"/><path class="cls-2" d="M280.05,192.79c-3.38,0-4.49-3.23-4.49-6s1.11-6,4.49-6,4.44,3.15,4.44,6S283.54,192.79,280.05,192.79Zm0-9.16c-1.08,0-1.16,2.37-1.16,3.12s.08,3.12,1.16,3.12,1.11-2.42,1.11-3.12S281.08,183.63,280.05,183.63Z" transform="translate(-59.5 -22.5)"/><path class="cls-2" d="M291.26,192.55v-7.12c0-.52,0-1.46-.79-1.46-1,0-.9,1.2-.9,1.85v6.73h-3.31V180.93h3.31v1.82a3.17,3.17,0,0,1,2.8-2c2,0,2.2,1.87,2.2,3.43v8.4Z" transform="translate(-59.5 -22.5)"/><path class="cls-2" d="M300.3,183.63v8.92H297v-8.92h-1.14v-2.7H297v-3.3h3.3v3.3h1.35v2.7Z" transform="translate(-59.5 -22.5)"/><path class="cls-2" d="M310.67,188.55a5.27,5.27,0,0,1-1.27,3.33,3.37,3.37,0,0,1-2.57.91,3.68,3.68,0,0,1-2.82-1,6.4,6.4,0,0,1-1.62-4.71,7.5,7.5,0,0,1,1.72-5.25,3.68,3.68,0,0,1,2.7-1.07,3.55,3.55,0,0,1,2.54.94,6.42,6.42,0,0,1,1.53,4.52,9,9,0,0,1-.08,1.14h-5.23a4.43,4.43,0,0,0,0,.65A3.41,3.41,0,0,0,306,190a.87.87,0,0,0,.68.31,1,1,0,0,0,.66-.21,2.77,2.77,0,0,0,.51-1.58ZM308,185.32a2.89,2.89,0,0,0-.53-1.89,1,1,0,0,0-.61-.24,1.09,1.09,0,0,0-.74.31,3.18,3.18,0,0,0-.5,1.82Z" transform="translate(-59.5 -22.5)"/><path class="cls-2" d="M318.36,192.55l-1.08-2a7.7,7.7,0,0,1-.64-1.48,14.3,14.3,0,0,1-.68,1.56l-1.09,2h-3.38l3.38-6.24-2.93-5.38h3.41l.63,1.22a8.38,8.38,0,0,1,.66,1.69,6.9,6.9,0,0,1,.72-1.77l.61-1.14h3.41l-3,5.38,3.49,6.24Z" transform="translate(-59.5 -22.5)"/><path class="cls-2" d="M326.43,183.63v8.92h-3.31v-8.92H322v-2.7h1.14v-3.3h3.31v3.3h1.35v2.7Z" transform="translate(-59.5 -22.5)"/><path class="cls-2" d="M339.8,192.55v-.94a2.31,2.31,0,0,1-2,1.12c-2.69,0-2.77-3.71-2.77-5.77,0-2.36.08-6.21,2.91-6.21a2.17,2.17,0,0,1,1.87,1v-.78h1.51v11.62Zm-1.5-10.63c-1.72,0-1.75,3-1.75,4.13,0,1,0,1.87.08,2.81s.27,2.68,1.64,2.68a1.18,1.18,0,0,0,1-.39c.74-.73.74-3.46.74-4.47C340,184.36,339.83,181.92,338.3,181.92Z" transform="translate(-59.5 -22.5)"/><path class="cls-2" d="M348.56,192.55V184.1c0-.94,0-2.16-1.32-2.16a1.68,1.68,0,0,0-1.41.76,3.59,3.59,0,0,0-.39,2v7.83H344V180.93h1.48v.93a3.09,3.09,0,0,1,2.3-1.11c2,0,2.3,1.61,2.3,3.19v8.61Z" transform="translate(-59.5 -22.5)"/><path class="cls-2" d="M357,192.55v-.94a2.36,2.36,0,0,1-2,1.12c-2.73,0-2.78-3.87-2.78-5.9,0-2.26,0-6.08,2.94-6.08a2.18,2.18,0,0,1,1.87,1V173.6h1.48v19Zm-1.53-10.63c-1.69,0-1.72,3-1.72,4.13,0,1,0,1.87.08,2.81s.24,2.68,1.61,2.68a1.25,1.25,0,0,0,1-.39c.72-.71.72-3.43.72-4.4C357.18,184.31,357,181.92,355.51,181.92Z" transform="translate(-59.5 -22.5)"/><path class="cls-2" d="M92.3,213.48v10.27H90.82V213.48H89.47v-1.35h1.35v-4.66c0-1.48.4-3,2.2-3a3.34,3.34,0,0,1,1.32.26v1.61a1.78,1.78,0,0,0-1.09-.52c-.87,0-1,.78-1,1.43v4.84h2v1.35Z" transform="translate(-59.5 -22.5)"/><path class="cls-2" d="M99.26,213.64c-2,0-2,1.56-2,3.07v7H95.77V212.13h1.48v1.51a2.42,2.42,0,0,1,2-1.69Z" transform="translate(-59.5 -22.5)"/><path class="cls-2" d="M106.74,219.8c-.08,1.87-.66,4.13-3,4.13-3,0-3.44-3.71-3.44-6s.45-6,3.34-6,3.2,3.51,3.2,5.56c0,.24,0,.5,0,.73h-5v.26c0,1.17.19,4.06,1.88,4.06,1.32,0,1.51-1.77,1.53-2.76ZM105.36,217c0-1-.18-3.69-1.69-3.69s-1.77,2.63-1.82,3.69Z" transform="translate(-59.5 -22.5)"/><path class="cls-2" d="M113.53,228.43v-5.61a2.32,2.32,0,0,1-2,1.11c-2.69,0-2.77-3.71-2.77-5.77,0-2.39,0-6.21,2.91-6.21a2.17,2.17,0,0,1,1.87,1v-.78H115v16.3ZM112,213.12c-1.72,0-1.75,3-1.75,4.13,0,1,0,1.87.08,2.81s.27,2.68,1.64,2.68a1.18,1.18,0,0,0,1-.39c.74-.73.74-3.46.74-4.47C113.69,215.43,113.53,213.12,112,213.12Z" transform="translate(-59.5 -22.5)"/><path class="cls-2" d="M123.74,220.92a3.07,3.07,0,0,1-6.13,0v-8.79h1.48V220c0,1.19,0,2.55,1.64,2.55s1.53-1.56,1.53-2.71v-7.72h1.48Z" transform="translate(-59.5 -22.5)"/><path class="cls-2" d="M132.36,219.8c-.08,1.87-.66,4.13-3,4.13-3,0-3.44-3.71-3.44-6s.45-6,3.34-6,3.2,3.51,3.2,5.56c0,.24,0,.5,0,.73h-5v.26c0,1.17.19,4.06,1.88,4.06,1.32,0,1.51-1.77,1.53-2.76ZM131,217c0-1-.18-3.69-1.69-3.69s-1.77,2.63-1.82,3.69Z" transform="translate(-59.5 -22.5)"/><path class="cls-2" d="M139.26,223.75V215.3c0-.94,0-2.16-1.32-2.16a1.66,1.66,0,0,0-1.4.76,3.53,3.53,0,0,0-.4,2v7.82h-1.48V212.13h1.48v.93a3.14,3.14,0,0,1,2.3-1.11c2,0,2.3,1.61,2.3,3.19v8.61Z" transform="translate(-59.5 -22.5)"/><path class="cls-2" d="M148,223.34a2.93,2.93,0,0,1-1.69.59c-2.78,0-3.42-3.71-3.42-5.79s.48-6.19,3.49-6.19a3.23,3.23,0,0,1,1.62.44v1.71a2.13,2.13,0,0,0-1.48-.8c-1.88,0-2.07,3.41-2.07,4.71s.24,4.55,2,4.55a2,2,0,0,0,1.51-1Z" transform="translate(-59.5 -22.5)"/><path class="cls-2" d="M152.24,228.43h-1.59l1.33-5-2.81-11.31h1.51l1.48,6.45c.24,1,.42,1.95.56,2.91.1-.73.29-1.43.47-2.18l1.72-7.18h1.56Z" transform="translate(-59.5 -22.5)"/><path class="cls-2" d="M167.13,223.93c-3,0-3.47-3.74-3.47-6s.43-6,3.47-6,3.3,3.82,3.3,6.06S170.17,223.93,167.13,223.93Zm0-10.63c-1.82,0-1.88,3.54-1.88,4.76s.08,4.5,1.88,4.5,1.8-3.46,1.8-4.63S168.85,213.3,167.1,213.3Z" transform="translate(-59.5 -22.5)"/><path class="cls-2" d="M174.58,213.48v10.27H173.1V213.48h-1.35v-1.35h1.35v-4.66c0-1.48.4-3,2.2-3a3.34,3.34,0,0,1,1.32.26v1.61a1.78,1.78,0,0,0-1.09-.52c-.87,0-.95.78-.95,1.43v4.84h2v1.35Z" transform="translate(-59.5 -22.5)"/><path class="cls-2" d="M187.22,223.93c-3,0-3.46-3.74-3.46-6s.42-6,3.46-6,3.31,3.82,3.31,6.06S190.26,223.93,187.22,223.93Zm0-10.63c-1.82,0-1.87,3.54-1.87,4.76s.08,4.5,1.87,4.5,1.8-3.46,1.8-4.63S188.94,213.3,187.19,213.3Z" transform="translate(-59.5 -22.5)"/><path class="cls-2" d="M197.4,223.34a2.93,2.93,0,0,1-1.69.59c-2.78,0-3.41-3.71-3.41-5.79s.47-6.19,3.49-6.19a3.22,3.22,0,0,1,1.61.44v1.71a2.13,2.13,0,0,0-1.48-.8c-1.88,0-2.06,3.41-2.06,4.71s.23,4.55,2,4.55a2,2,0,0,0,1.51-1Z" transform="translate(-59.5 -22.5)"/><path class="cls-2" d="M203.9,223.34a2.91,2.91,0,0,1-1.69.59c-2.78,0-3.41-3.71-3.41-5.79s.48-6.19,3.49-6.19a3.2,3.2,0,0,1,1.61.44v1.71a2.11,2.11,0,0,0-1.48-.8c-1.87,0-2.06,3.41-2.06,4.71s.24,4.55,2,4.55a2,2,0,0,0,1.5-1Z" transform="translate(-59.5 -22.5)"/><path class="cls-2" d="M210.25,223.75v-.93a2.33,2.33,0,0,1-2,1.11c-2.7,0-2.78-3.71-2.78-5.77,0-2.36.08-6.21,2.91-6.21a2.19,2.19,0,0,1,1.88,1v-.78h1.51v11.62Zm-1.51-10.63c-1.72,0-1.74,3-1.74,4.13,0,1,0,1.87.08,2.81s.26,2.68,1.64,2.68a1.21,1.21,0,0,0,.95-.39c.74-.73.74-3.46.74-4.47C210.41,215.56,210.28,213.12,208.74,213.12Z" transform="translate(-59.5 -22.5)"/><path class="cls-2" d="M218.87,214.5a2.78,2.78,0,0,0-2-1.2,1.46,1.46,0,0,0-1.45,1.53c0,2.27,3.81,2.68,3.81,5.83a3.16,3.16,0,0,1-3.18,3.27,3.61,3.61,0,0,1-2.19-.8v-1.72a3,3,0,0,0,2.09,1.15,1.71,1.71,0,0,0,1.71-1.8c0-2.29-3.8-3.07-3.8-5.87a2.83,2.83,0,0,1,2.93-2.94,3.53,3.53,0,0,1,2.12.75Z" transform="translate(-59.5 -22.5)"/><path class="cls-2" d="M221.72,209.56a1.11,1.11,0,0,1-1.11-1.07,1.1,1.1,0,0,1,1.11-1.12,1.11,1.11,0,0,1,1.09,1.12A1.09,1.09,0,0,1,221.72,209.56ZM221,223.75V212.13h1.5v11.62Z" transform="translate(-59.5 -22.5)"/><path class="cls-2" d="M228.1,223.93c-3,0-3.47-3.74-3.47-6s.42-6,3.47-6,3.3,3.82,3.3,6.06S231.14,223.93,228.1,223.93Zm0-10.63c-1.83,0-1.88,3.54-1.88,4.76s.08,4.5,1.88,4.5,1.8-3.46,1.8-4.63S229.81,213.3,228.07,213.3Z" transform="translate(-59.5 -22.5)"/><path class="cls-2" d="M238.22,223.75V215.3c0-.94,0-2.16-1.32-2.16a1.68,1.68,0,0,0-1.4.76,3.53,3.53,0,0,0-.4,2v7.82h-1.48V212.13h1.48v.93a3.14,3.14,0,0,1,2.3-1.11c2,0,2.3,1.61,2.3,3.19v8.61Z" transform="translate(-59.5 -22.5)"/><path class="cls-2" d="M246.82,214.5a2.78,2.78,0,0,0-2-1.2,1.46,1.46,0,0,0-1.45,1.53c0,2.27,3.8,2.68,3.8,5.83a3.15,3.15,0,0,1-3.17,3.27,3.67,3.67,0,0,1-2.2-.8v-1.72a3.06,3.06,0,0,0,2.09,1.15,1.71,1.71,0,0,0,1.72-1.8c0-2.29-3.81-3.07-3.81-5.87A2.84,2.84,0,0,1,244.7,212a3.58,3.58,0,0,1,2.12.75Z" transform="translate(-59.5 -22.5)"/><path class="cls-2" d="M255.83,209.56a1.1,1.1,0,1,1,1.08-1.07A1.08,1.08,0,0,1,255.83,209.56Zm-.77,14.19V212.13h1.51v11.62Z" transform="translate(-59.5 -22.5)"/><path class="cls-2" d="M263.79,223.75V215.3c0-.94,0-2.16-1.32-2.16a1.66,1.66,0,0,0-1.4.76,3.53,3.53,0,0,0-.4,2v7.82h-1.48V212.13h1.48v.93A3.12,3.12,0,0,1,263,212c2,0,2.3,1.61,2.3,3.19v8.61Z" transform="translate(-59.5 -22.5)"/><path class="cls-2" d="M281.5,223.75H280c-.5-3.22-1.08-6.45-1.51-9.67-.1.62-.13,1.19-.24,1.82l-1.29,7.85H275.4L273,212.13h1.5l1.32,7.05c.16.8.27,1.63.35,2.44.05-.78.21-1.59.34-2.39l1.19-7.1h1.54c.5,3.14,1.11,6.32,1.48,9.49.13-.81.23-1.64.39-2.47l1.46-7h1.51Z" transform="translate(-59.5 -22.5)"/><path class="cls-2" d="M290.28,223.75V215.3c0-.94,0-2.16-1.32-2.16a1.66,1.66,0,0,0-1.4.76,3.57,3.57,0,0,0-.4,2v7.82h-1.48V204.8h1.48v8.26a3.14,3.14,0,0,1,2.3-1.11c1.93,0,2.3,1.35,2.3,3v8.81Z" transform="translate(-59.5 -22.5)"/><path class="cls-2" d="M295.15,209.56a1.11,1.11,0,0,1-1.11-1.07,1.09,1.09,0,0,1,1.11-1.12,1.11,1.11,0,0,1,1.08,1.12A1.09,1.09,0,0,1,295.15,209.56Zm-.77,14.19V212.13h1.51v11.62Z" transform="translate(-59.5 -22.5)"/><path class="cls-2" d="M303.16,223.34a2.93,2.93,0,0,1-1.69.59c-2.78,0-3.42-3.71-3.42-5.79s.48-6.19,3.49-6.19a3.23,3.23,0,0,1,1.62.44v1.71a2.13,2.13,0,0,0-1.48-.8c-1.88,0-2.07,3.41-2.07,4.71s.24,4.55,2,4.55a2,2,0,0,0,1.51-1Z" transform="translate(-59.5 -22.5)"/><path class="cls-2" d="M309.5,223.75V215.3c0-.94,0-2.16-1.32-2.16a1.68,1.68,0,0,0-1.4.76,3.57,3.57,0,0,0-.4,2v7.82H304.9V204.8h1.48v8.26a3.14,3.14,0,0,1,2.3-1.11c1.93,0,2.3,1.35,2.3,3v8.81Z" transform="translate(-59.5 -22.5)"/><path class="cls-2" d="M324.44,223.34a2.93,2.93,0,0,1-1.69.59c-2.78,0-3.41-3.71-3.41-5.79s.47-6.19,3.49-6.19a3.22,3.22,0,0,1,1.61.44v1.71a2.13,2.13,0,0,0-1.48-.8c-1.88,0-2.06,3.41-2.06,4.71s.24,4.55,2,4.55a2,2,0,0,0,1.51-1Z" transform="translate(-59.5 -22.5)"/><path class="cls-2" d="M327,209.56a1.1,1.1,0,1,1,1.09-1.07A1.09,1.09,0,0,1,327,209.56Zm-.77,14.19V212.13h1.51v11.62Z" transform="translate(-59.5 -22.5)"/><path class="cls-2" d="M332.32,213.48v10.27h-1.48V213.48h-1.27v-1.35h1.27v-3.3h1.48v3.3h2v1.35Z" transform="translate(-59.5 -22.5)"/><path class="cls-2" d="M336.39,209.56a1.1,1.1,0,1,1,1.09-1.07A1.09,1.09,0,0,1,336.39,209.56Zm-.77,14.19V212.13h1.51v11.62Z" transform="translate(-59.5 -22.5)"/><path class="cls-2" d="M340.7,222.4h4v1.35h-6.13l4.65-10.27h-4v-1.35h6.29Z" transform="translate(-59.5 -22.5)"/><path class="cls-2" d="M352.89,219.8c-.08,1.87-.66,4.13-3,4.13-3,0-3.44-3.71-3.44-6s.45-6,3.34-6,3.2,3.51,3.2,5.56c0,.24,0,.5,0,.73h-5v.26c0,1.17.19,4.06,1.88,4.06,1.32,0,1.51-1.77,1.53-2.76ZM351.52,217c-.06-1-.19-3.69-1.7-3.69s-1.77,2.63-1.82,3.69Z" transform="translate(-59.5 -22.5)"/><path class="cls-2" d="M359.79,223.75V215.3c0-.94,0-2.16-1.32-2.16a1.66,1.66,0,0,0-1.4.76,3.53,3.53,0,0,0-.4,2v7.82h-1.48V212.13h1.48v.93A3.12,3.12,0,0,1,359,212c2,0,2.3,1.61,2.3,3.19v8.61Z" transform="translate(-59.5 -22.5)"/><path class="cls-2" d="M368.38,214.5a2.76,2.76,0,0,0-2-1.2,1.47,1.47,0,0,0-1.46,1.53c0,2.27,3.81,2.68,3.81,5.83a3.15,3.15,0,0,1-3.17,3.27,3.64,3.64,0,0,1-2.2-.8v-1.72a3.06,3.06,0,0,0,2.09,1.15,1.71,1.71,0,0,0,1.72-1.8c0-2.29-3.81-3.07-3.81-5.87a2.84,2.84,0,0,1,2.94-2.94,3.53,3.53,0,0,1,2.11.75Z" transform="translate(-59.5 -22.5)"/><path class="cls-2" d="M91.85,244.11a2.16,2.16,0,0,1,1.88-1c2.91,0,2.94,3.66,2.94,5.77,0,2.5-.08,6.21-2.78,6.21a2.49,2.49,0,0,1-2-1.11v5.61H90.37v-16.3h1.48Zm1.54.21c-1.54,0-1.67,2.44-1.67,4.76,0,1,0,3.74.74,4.47a1.21,1.21,0,0,0,1,.39c1.38,0,1.54-1.67,1.64-2.68s.08-1.82.08-2.73C95.13,247.36,95.11,244.32,93.39,244.32Z" transform="translate(-59.5 -22.5)"/><path class="cls-2" d="M104.84,251c-.08,1.87-.67,4.13-3,4.13-3,0-3.44-3.71-3.44-5.95s.45-6,3.33-6,3.2,3.51,3.2,5.56c0,.24,0,.5,0,.73h-5v.26c0,1.17.18,4.06,1.87,4.06,1.33,0,1.51-1.77,1.54-2.76Zm-1.38-2.81c0-1-.18-3.69-1.69-3.69s-1.77,2.63-1.83,3.69Z" transform="translate(-59.5 -22.5)"/><path class="cls-2" d="M110.63,244.84c-2,0-2,1.56-2,3.07v7h-1.48V243.33h1.48v1.51a2.41,2.41,0,0,1,2-1.69Z" transform="translate(-59.5 -22.5)"/><path class="cls-2" d="M116.79,254.54a2.94,2.94,0,0,1-1.7.59c-2.77,0-3.41-3.71-3.41-5.79s.48-6.19,3.49-6.19a3.26,3.26,0,0,1,1.62.44v1.72a2.13,2.13,0,0,0-1.48-.81c-1.88,0-2.07,3.41-2.07,4.71s.24,4.55,2,4.55a2,2,0,0,0,1.51-1Z" transform="translate(-59.5 -22.5)"/><path class="cls-2" d="M124.61,251c-.08,1.87-.66,4.13-3,4.13-3,0-3.43-3.71-3.43-5.95s.45-6,3.33-6,3.2,3.51,3.2,5.56c0,.24,0,.5,0,.73h-5v.26c0,1.17.19,4.06,1.88,4.06,1.32,0,1.51-1.77,1.53-2.76Zm-1.37-2.81c-.06-1-.19-3.69-1.7-3.69s-1.77,2.63-1.82,3.69Z" transform="translate(-59.5 -22.5)"/><path class="cls-2" d="M127.65,240.76a1.1,1.1,0,1,1,1.09-1.07A1.09,1.09,0,0,1,127.65,240.76ZM126.89,255V243.33h1.5V255Z" transform="translate(-59.5 -22.5)"/><path class="cls-2" d="M134.18,255h-1.61l-2.7-11.62h1.54l1.56,6.94c.18.83.31,1.66.42,2.5.13-.81.26-1.64.42-2.45l1.46-7h1.53Z" transform="translate(-59.5 -22.5)"/><path class="cls-2" d="M144.1,251c-.08,1.87-.66,4.13-3,4.13-3,0-3.44-3.71-3.44-5.95s.45-6,3.33-6,3.2,3.51,3.2,5.56c0,.24,0,.5,0,.73h-5v.26c0,1.17.19,4.06,1.88,4.06,1.32,0,1.5-1.77,1.53-2.76Zm-1.38-2.81c-.05-1-.18-3.69-1.69-3.69s-1.77,2.63-1.82,3.69Z" transform="translate(-59.5 -22.5)"/><path class="cls-2" d="M150.76,255V254a2.38,2.38,0,0,1-2,1.11c-2.73,0-2.78-3.87-2.78-5.9,0-2.26,0-6.08,2.93-6.08a2.19,2.19,0,0,1,1.88,1V236h1.48V255Zm-1.53-10.63c-1.69,0-1.72,3-1.72,4.13,0,1,0,1.87.08,2.81s.24,2.68,1.61,2.68a1.25,1.25,0,0,0,1-.39c.71-.7.71-3.43.71-4.4C150.89,246.71,150.76,244.32,149.23,244.32Z" transform="translate(-59.5 -22.5)"/><path class="cls-2" d="M163,244.68V255h-1.49V244.68h-1.26v-1.35h1.26V240H163v3.3h2v1.35Z" transform="translate(-59.5 -22.5)"/><path class="cls-2" d="M169.3,255.13c-3.05,0-3.47-3.74-3.47-6s.42-6,3.47-6,3.3,3.82,3.3,6.06S172.34,255.13,169.3,255.13Zm0-10.63c-1.83,0-1.88,3.54-1.88,4.76s.08,4.5,1.88,4.5,1.8-3.46,1.8-4.63S171,244.5,169.27,244.5Z" transform="translate(-59.5 -22.5)"/><path class="cls-2" d="M182.46,244.11a2.2,2.2,0,0,1,1.91-1c2.88,0,2.91,3.69,2.91,5.77,0,2.5-.08,6.21-2.78,6.21a2.49,2.49,0,0,1-2-1.11V255H181V236h1.48Zm1.54.21c-1.54,0-1.67,2.44-1.67,4.76,0,1,0,3.74.74,4.47a1.2,1.2,0,0,0,1,.39c1.38,0,1.54-1.67,1.64-2.68s.08-1.82.08-2.73C185.74,247.36,185.71,244.32,184,244.32Z" transform="translate(-59.5 -22.5)"/><path class="cls-2" d="M195.45,251c-.08,1.87-.67,4.13-3,4.13-3,0-3.44-3.71-3.44-5.95s.45-6,3.33-6,3.2,3.51,3.2,5.56c0,.24,0,.5,0,.73h-5v.26c0,1.17.18,4.06,1.87,4.06,1.33,0,1.51-1.77,1.54-2.76Zm-1.38-2.81c0-1-.19-3.69-1.69-3.69s-1.77,2.63-1.83,3.69Z" transform="translate(-59.5 -22.5)"/><path class="cls-2" d="M209.88,251c-.08,1.87-.66,4.13-3,4.13-3,0-3.43-3.71-3.43-5.95s.44-6,3.33-6,3.2,3.51,3.2,5.56c0,.24,0,.5,0,.73h-5v.26c0,1.17.19,4.06,1.88,4.06,1.32,0,1.51-1.77,1.53-2.76Zm-1.37-2.81c-.06-1-.19-3.69-1.7-3.69s-1.77,2.63-1.82,3.69Z" transform="translate(-59.5 -22.5)"/><path class="cls-2" d="M216.38,255l-1.29-3.3a13.92,13.92,0,0,1-.58-1.72,11.66,11.66,0,0,1-.53,1.75L212.71,255H211l2.7-5.95-2.41-5.67H213a40,40,0,0,1,1.67,4.91,27.06,27.06,0,0,1,1.74-4.91h1.67L215.41,249l2.64,5.95Z" transform="translate(-59.5 -22.5)"/><path class="cls-2" d="M221,244.11a2.15,2.15,0,0,1,1.88-1c2.9,0,2.93,3.66,2.93,5.77,0,2.5-.08,6.21-2.78,6.21a2.47,2.47,0,0,1-2-1.11v5.61h-1.48v-16.3H221Zm1.53.21c-1.53,0-1.66,2.44-1.66,4.76,0,1,0,3.74.74,4.47a1.18,1.18,0,0,0,.95.39c1.37,0,1.53-1.67,1.64-2.68s.08-1.82.08-2.73C224.32,247.36,224.29,244.32,222.57,244.32Z" transform="translate(-59.5 -22.5)"/><path class="cls-2" d="M231.06,255.13c-3,0-3.47-3.74-3.47-6s.43-6,3.47-6,3.3,3.82,3.3,6.06S234.1,255.13,231.06,255.13Zm0-10.63c-1.82,0-1.88,3.54-1.88,4.76s.08,4.5,1.88,4.5,1.8-3.46,1.8-4.63S232.78,244.5,231,244.5Z" transform="translate(-59.5 -22.5)"/><path class="cls-2" d="M241.05,245.69a2.8,2.8,0,0,0-2-1.19,1.46,1.46,0,0,0-1.46,1.53c0,2.27,3.81,2.68,3.81,5.83a3.16,3.16,0,0,1-3.17,3.27,3.64,3.64,0,0,1-2.2-.8v-1.72a3,3,0,0,0,2.09,1.15,1.71,1.71,0,0,0,1.72-1.8c0-2.29-3.81-3.07-3.81-5.87a2.84,2.84,0,0,1,2.94-2.94,3.53,3.53,0,0,1,2.11.75Z" transform="translate(-59.5 -22.5)"/><path class="cls-2" d="M249.14,251c-.08,1.87-.66,4.13-3,4.13-3,0-3.44-3.71-3.44-5.95s.45-6,3.33-6,3.2,3.51,3.2,5.56c0,.24,0,.5,0,.73h-5v.26c0,1.17.19,4.06,1.88,4.06,1.32,0,1.51-1.77,1.54-2.76Zm-1.37-2.81c-.06-1-.19-3.69-1.69-3.69s-1.78,2.63-1.83,3.69Z" transform="translate(-59.5 -22.5)"/><path class="cls-2" d="M255.81,255V254a2.38,2.38,0,0,1-2,1.11c-2.72,0-2.78-3.87-2.78-5.9,0-2.26,0-6.08,2.94-6.08a2.2,2.2,0,0,1,1.88,1V236h1.48V255Zm-1.54-10.63c-1.69,0-1.72,3-1.72,4.13,0,1,0,1.87.08,2.81s.24,2.68,1.62,2.68a1.24,1.24,0,0,0,1-.39c.72-.7.72-3.43.72-4.4C255.94,246.71,255.81,244.32,254.27,244.32Z" transform="translate(-59.5 -22.5)"/><path class="cls-2" d="M268,244.68V255h-1.48V244.68h-1.27v-1.35h1.27V240H268v3.3h2v1.35Z" transform="translate(-59.5 -22.5)"/><path class="cls-2" d="M274.34,255.13c-3,0-3.46-3.74-3.46-6s.42-6,3.46-6,3.31,3.82,3.31,6.06S277.38,255.13,274.34,255.13Zm0-10.63c-1.82,0-1.87,3.54-1.87,4.76s.07,4.5,1.87,4.5,1.8-3.46,1.8-4.63S276.06,244.5,274.31,244.5Z" transform="translate(-59.5 -22.5)"/><path class="cls-2" d="M287.8,239.09v6.11h3.75v1.48H287.8V255h-1.64V237.61h5.6v1.48Z" transform="translate(-59.5 -22.5)"/><path class="cls-2" d="M300,255l-4.1-8.48V255h-1.8V237.61h2.23a6.42,6.42,0,0,1,3,.49c1.58.83,1.9,2.55,1.9,4.16,0,2.4-.82,4.16-3.49,4.37l4.1,8.32Zm-3-9.75c2.11,0,2.46-1.22,2.46-3,0-2-.43-3.07-2.68-3.07h-.87v6.11Z" transform="translate(-59.5 -22.5)"/><path class="cls-2" d="M306.2,239.09V255h-1.64V239.09h-2.64v-1.48h6.92v1.48Z" transform="translate(-59.5 -22.5)"/><path class="cls-2" d="M313.89,245.69a2.76,2.76,0,0,0-2-1.19A1.47,1.47,0,0,0,310.4,246c0,2.27,3.81,2.68,3.81,5.83a3.15,3.15,0,0,1-3.17,3.27,3.67,3.67,0,0,1-2.2-.8v-1.72a3.06,3.06,0,0,0,2.09,1.15,1.71,1.71,0,0,0,1.72-1.8c0-2.29-3.81-3.07-3.81-5.87a2.84,2.84,0,0,1,2.94-2.94,3.53,3.53,0,0,1,2.11.75Z" transform="translate(-59.5 -22.5)"/><path class="cls-2" d="M322.91,240.76a1.11,1.11,0,0,1-1.11-1.07,1.09,1.09,0,0,1,1.11-1.12,1.1,1.1,0,0,1,1.08,1.12A1.08,1.08,0,0,1,322.91,240.76ZM322.14,255V243.33h1.51V255Z" transform="translate(-59.5 -22.5)"/><path class="cls-2" d="M330.87,255V246.5c0-.94,0-2.16-1.32-2.16a1.69,1.69,0,0,0-1.41.76,3.6,3.6,0,0,0-.39,2V255h-1.48V243.33h1.48v.94a3.06,3.06,0,0,1,2.3-1.12c2,0,2.3,1.61,2.3,3.2V255Z" transform="translate(-59.5 -22.5)"/><path class="cls-2" d="M342.63,244.11a2.16,2.16,0,0,1,1.88-1c2.91,0,2.94,3.66,2.94,5.77,0,2.5-.08,6.21-2.78,6.21a2.49,2.49,0,0,1-2-1.11v5.61h-1.48v-16.3h1.48Zm1.54.21c-1.54,0-1.67,2.44-1.67,4.76,0,1,0,3.74.74,4.47a1.21,1.21,0,0,0,.95.39c1.38,0,1.54-1.67,1.64-2.68s.08-1.82.08-2.73C345.91,247.36,345.89,244.32,344.17,244.32Z" transform="translate(-59.5 -22.5)"/><path class="cls-2" d="M355.77,252.12a3.07,3.07,0,0,1-6.13,0v-8.79h1.48v7.88c0,1.19.05,2.55,1.64,2.55s1.53-1.56,1.53-2.71v-7.72h1.48Z" transform="translate(-59.5 -22.5)"/><path class="cls-2" d="M359.9,244.11a2.2,2.2,0,0,1,1.9-1c2.88,0,2.91,3.69,2.91,5.77,0,2.5-.08,6.21-2.78,6.21a2.47,2.47,0,0,1-2-1.11V255h-1.48V236h1.48Zm1.53.21c-1.53,0-1.66,2.44-1.66,4.76,0,1,0,3.74.74,4.47a1.18,1.18,0,0,0,.95.39c1.37,0,1.53-1.67,1.64-2.68s.08-1.82.08-2.73C363.18,247.36,363.15,244.32,361.43,244.32Z" transform="translate(-59.5 -22.5)"/><path class="cls-2" d="M366.91,255V236h1.5V255Z" transform="translate(-59.5 -22.5)"/><path class="cls-2" d="M371.8,240.76a1.11,1.11,0,0,1-1.11-1.07,1.09,1.09,0,0,1,1.11-1.12,1.11,1.11,0,0,1,1.08,1.12A1.09,1.09,0,0,1,371.8,240.76ZM371,255V243.33h1.51V255Z" transform="translate(-59.5 -22.5)"/><path class="cls-2" d="M379.81,254.54a2.93,2.93,0,0,1-1.69.59c-2.78,0-3.41-3.71-3.41-5.79s.47-6.19,3.49-6.19a3.22,3.22,0,0,1,1.61.44v1.72a2.11,2.11,0,0,0-1.48-.81c-1.88,0-2.07,3.41-2.07,4.71s.24,4.55,2,4.55a2,2,0,0,0,1.51-1Z" transform="translate(-59.5 -22.5)"/><path class="cls-2" d="M93.39,286.33c-3,0-3.47-3.74-3.47-6s.43-6,3.47-6,3.3,3.82,3.3,6.06S96.43,286.33,93.39,286.33Zm0-10.63c-1.82,0-1.88,3.54-1.88,4.76s.08,4.5,1.88,4.5,1.8-3.46,1.8-4.63S95.11,275.7,93.36,275.7Z" transform="translate(-59.5 -22.5)"/><path class="cls-2" d="M103.57,285.74a2.94,2.94,0,0,1-1.7.59c-2.77,0-3.41-3.71-3.41-5.79s.48-6.19,3.49-6.19a3.26,3.26,0,0,1,1.62.44v1.72a2.13,2.13,0,0,0-1.48-.81c-1.88,0-2.07,3.41-2.07,4.71s.24,4.55,2,4.55a2,2,0,0,0,1.51-1Z" transform="translate(-59.5 -22.5)"/><path class="cls-2" d="M110.07,285.74a2.93,2.93,0,0,1-1.69.59c-2.78,0-3.41-3.71-3.41-5.79s.47-6.19,3.49-6.19a3.22,3.22,0,0,1,1.61.44v1.72a2.11,2.11,0,0,0-1.48-.81c-1.88,0-2.06,3.41-2.06,4.71s.24,4.55,2,4.55a2,2,0,0,0,1.51-1Z" transform="translate(-59.5 -22.5)"/><path class="cls-2" d="M116.42,286.15v-.93a2.34,2.34,0,0,1-2,1.11c-2.7,0-2.78-3.71-2.78-5.77,0-2.36.08-6.21,2.91-6.21a2.2,2.2,0,0,1,1.88,1v-.78h1.5v11.62Zm-1.51-10.63c-1.72,0-1.75,3-1.75,4.13,0,1,0,1.87.08,2.81s.27,2.68,1.64,2.68a1.18,1.18,0,0,0,1-.39c.74-.73.74-3.46.74-4.47C116.57,278,116.44,275.52,114.91,275.52Z" transform="translate(-59.5 -22.5)"/><path class="cls-2" d="M125,276.9a2.78,2.78,0,0,0-2-1.2,1.47,1.47,0,0,0-1.46,1.53c0,2.27,3.81,2.68,3.81,5.83a3.15,3.15,0,0,1-3.17,3.27,3.67,3.67,0,0,1-2.2-.8v-1.72a3.06,3.06,0,0,0,2.09,1.15,1.71,1.71,0,0,0,1.72-1.8c0-2.29-3.81-3.07-3.81-5.87a2.84,2.84,0,0,1,2.94-2.94,3.58,3.58,0,0,1,2.12.75Z" transform="translate(-59.5 -22.5)"/><path class="cls-2" d="M127.89,272a1.1,1.1,0,1,1,1.08-1.07A1.08,1.08,0,0,1,127.89,272Zm-.77,14.19V274.53h1.51v11.62Z" transform="translate(-59.5 -22.5)"/><path class="cls-2" d="M134.26,286.33c-3,0-3.46-3.74-3.46-6s.42-6,3.46-6,3.31,3.82,3.31,6.06S137.3,286.33,134.26,286.33Zm0-10.63c-1.83,0-1.88,3.54-1.88,4.76s.08,4.5,1.88,4.5,1.79-3.46,1.79-4.63S136,275.7,134.24,275.7Z" transform="translate(-59.5 -22.5)"/><path class="cls-2" d="M144.39,286.15V277.7c0-.93,0-2.16-1.32-2.16a1.66,1.66,0,0,0-1.4.76,3.53,3.53,0,0,0-.4,2v7.82h-1.48V274.53h1.48v.94a3.1,3.1,0,0,1,2.3-1.12c2,0,2.3,1.61,2.3,3.2v8.6Z" transform="translate(-59.5 -22.5)"/><path class="cls-2" d="M153,276.9a2.78,2.78,0,0,0-2-1.2,1.46,1.46,0,0,0-1.46,1.53c0,2.27,3.81,2.68,3.81,5.83a3.16,3.16,0,0,1-3.17,3.27,3.64,3.64,0,0,1-2.2-.8v-1.72A3,3,0,0,0,150,285a1.71,1.71,0,0,0,1.72-1.8c0-2.29-3.81-3.07-3.81-5.87a2.84,2.84,0,0,1,2.94-2.94,3.53,3.53,0,0,1,2.11.75Z" transform="translate(-59.5 -22.5)"/><path class="cls-2" d="M156.1,286.33a1.21,1.21,0,0,1-1.19-1.17,1.19,1.19,0,1,1,1.19,1.17Z" transform="translate(-59.5 -22.5)"/></svg>