<svg id="Ebene_1" data-name="Ebene 1" xmlns="http://www.w3.org/2000/svg" width="405.07" height="288.13" viewBox="0 0 405.07 288.13">
  <defs>
    <style>
      .cls-1 {
        fill: none;
        stroke: #c7f700;
        stroke-width: 8px;
      }

      .cls-2 {
        fill: #f6f6f6;
      }
    </style>
  </defs>
  <g id="Gruppe_432" data-name="Gruppe 432">
    <g id="Gruppe_430" data-name="Gruppe 430">
      <g id="Gruppe_93" data-name="Gruppe 93">
        <path id="Pfad_50-2" data-name="Pfad 50-2" class="cls-1" d="M401.07,99.93V4H320.55" transform="translate(0 0)"/>
        <path id="Pfad_51-2" data-name="Pfad 51-2" class="cls-1" d="M401.07,188.2v95.93H320.55" transform="translate(0 0)"/>
        <path id="Pfad_52-2" data-name="Pfad 52-2" class="cls-1" d="M4,99.93V4H84.5" transform="translate(0 0)"/>
        <path id="Pfad_53-2" data-name="Pfad 53-2" class="cls-1" d="M4,188.2v95.93H84.5" transform="translate(0 0)"/>
      </g>
    </g>
  </g>
  <path class="cls-2" d="M37,45.25l-4.1-8.47v8.47h-1.8V27.91h2.22a6.44,6.44,0,0,1,3,.49c1.59.84,1.91,2.55,1.91,4.16,0,2.4-.82,4.16-3.49,4.37l4.09,8.32ZM34,35.5c2.1,0,2.49-1.22,2.49-3,0-2-.42-3.07-2.67-3.07H33V35.5Z" transform="translate(0 0)"/>
  <path class="cls-2" d="M41.55,31.06A1.1,1.1,0,1,1,42.64,30v0A1.1,1.1,0,0,1,41.55,31.06Zm-.76,14.19V33.63h1.5V45.25Z" transform="translate(0 0)"/>
  <path class="cls-2" d="M49.38,36a2.8,2.8,0,0,0-2-1.2,1.45,1.45,0,0,0-1.45,1.47v.06c0,2.27,3.81,2.68,3.81,5.83a3.16,3.16,0,0,1-3.05,3.27H46.5a3.63,3.63,0,0,1-2.19-.8V42.91a3,3,0,0,0,2.09,1.15,1.7,1.7,0,0,0,1.72-1.7v-.1c0-2.29-3.81-3.07-3.81-5.87A2.84,2.84,0,0,1,47.1,33.5h.17a3.5,3.5,0,0,1,2.11.75Z" transform="translate(0 0)"/>
  <path class="cls-2" d="M56.65,45.25,53,39.69v5.56H51.5v-19H53V38.36l3-4.73h1.66l-3.38,5.2,4.24,6.42Z" transform="translate(0 0)"/>
  <path class="cls-2" d="M63.61,36a2.8,2.8,0,0,0-2-1.2,1.45,1.45,0,0,0-1.45,1.47v.06c0,2.27,3.8,2.68,3.8,5.83a3.15,3.15,0,0,1-3,3.27h-.14a3.68,3.68,0,0,1-2.2-.8V42.91a3,3,0,0,0,2.09,1.15,1.7,1.7,0,0,0,1.72-1.7v-.1c0-2.29-3.81-3.07-3.81-5.87a2.84,2.84,0,0,1,2.79-2.89h.12a3.62,3.62,0,0,1,2.12.75Z" transform="translate(0 0)"/>
  <path class="cls-2" d="M76.38,45.25v-.93a2.36,2.36,0,0,1-2,1.11c-2.7,0-2.78-3.71-2.78-5.77,0-2.36.08-6.21,2.91-6.21a2.21,2.21,0,0,1,1.88,1v-.78h1.5V45.25ZM74.87,34.62c-1.72,0-1.75,3-1.75,4.13s0,1.87.08,2.81.27,2.68,1.64,2.68a1.18,1.18,0,0,0,1-.39c.74-.73.74-3.46.74-4.47,0-2.32-.13-4.76-1.66-4.76Z" transform="translate(0 0)"/>
  <path class="cls-2" d="M85.13,45.25V36.8c0-.93,0-2.16-1.32-2.16a1.67,1.67,0,0,0-1.41.76,3.57,3.57,0,0,0-.39,2v7.82H80.5V33.63H82v.94a3.08,3.08,0,0,1,2.3-1.12c2,0,2.3,1.61,2.3,3.2v8.6Z" transform="translate(0 0)"/>
  <path class="cls-2" d="M93.61,45.25v-.93a2.36,2.36,0,0,1-2,1.11c-2.73,0-2.78-3.87-2.78-5.9,0-2.26,0-6.08,2.94-6.08a2.18,2.18,0,0,1,1.87,1V26.3h1.49v19ZM92.08,34.62c-1.69,0-1.72,3-1.72,4.13s0,1.87.08,2.81.24,2.68,1.61,2.68a1.25,1.25,0,0,0,1-.39c.72-.7.72-3.43.72-4.4C93.75,37,93.61,34.62,92.08,34.62Z" transform="translate(0 0)"/>
  <path class="cls-2" d="M105.38,34.41a2.21,2.21,0,0,1,1.9-1c2.89,0,2.91,3.69,2.91,5.77,0,2.5-.08,6.21-2.77,6.21a2.49,2.49,0,0,1-2-1.11v.93H103.9v-19h1.48Zm1.53.21c-1.53,0-1.66,2.44-1.66,4.76,0,1,0,3.74.74,4.47a1.18,1.18,0,0,0,1,.39c1.37,0,1.53-1.67,1.64-2.68a23.23,23.23,0,0,0,.08-2.73C108.66,37.66,108.63,34.62,106.91,34.62Z" transform="translate(0 0)"/>
  <path class="cls-2" d="M118.36,41.3c-.08,1.87-.66,4.13-3,4.13-3,0-3.43-3.71-3.43-6s.45-6,3.33-6,3.2,3.51,3.2,5.56v.73h-5V40c0,1.17.19,4.06,1.88,4.06,1.32,0,1.51-1.77,1.54-2.76ZM117,38.5c-.06-1-.19-3.69-1.7-3.69s-1.79,2.62-1.79,3.69Z" transform="translate(0 0)"/>
  <path class="cls-2" d="M125.26,45.25V36.8c0-.93,0-2.16-1.32-2.16a1.69,1.69,0,0,0-1.4.76,3.48,3.48,0,0,0-.4,2v7.82h-1.48V33.63h1.48v.94a3.11,3.11,0,0,1,2.3-1.12c2,0,2.3,1.61,2.3,3.2v8.6Z" transform="translate(0 0)"/>
  <path class="cls-2" d="M135.36,41.3c-.08,1.87-.66,4.13-3,4.13-3,0-3.44-3.71-3.44-6s.45-6,3.33-6,3.2,3.51,3.2,5.56v.73h-5V40c0,1.17.19,4.06,1.88,4.06,1.32,0,1.51-1.77,1.54-2.76ZM134,38.5c-.06-1-.19-3.69-1.7-3.69s-1.79,2.62-1.79,3.69Z" transform="translate(0 0)"/>
  <path class="cls-2" d="M139.59,35V45.25h-1.48V35h-1.35V33.63h1.35V29c0-1.49.4-3,2.2-3a3.34,3.34,0,0,1,1.32.26v1.61a1.75,1.75,0,0,0-1.09-.52c-.87,0-.95.78-.95,1.43V33.6h2V35Zm3.91-3.92a1.1,1.1,0,1,1,1.08-1.12v0A1.09,1.09,0,0,1,143.5,31.06Zm-.77,14.19V33.63h1.51V45.25Z" transform="translate(0 0)"/>
  <path class="cls-2" d="M148.85,35V45.25h-1.48V35H146.1V33.63h1.27v-3.3h1.48v3.3h2V35Z" transform="translate(0 0)"/>
  <path class="cls-2" d="M156.65,36a2.8,2.8,0,0,0-2-1.2,1.45,1.45,0,0,0-1.45,1.47v.06c0,2.27,3.8,2.68,3.8,5.83a3.15,3.15,0,0,1-3,3.27h-.14a3.63,3.63,0,0,1-2.19-.8V42.91a3,3,0,0,0,2.08,1.15,1.7,1.7,0,0,0,1.72-1.7v-.1c0-2.29-3.8-3.07-3.8-5.87a2.83,2.83,0,0,1,2.77-2.89h.09a3.55,3.55,0,0,1,2.12.75Z" transform="translate(0 0)"/>
  <path class="cls-2" d="M169.39,36a2.8,2.8,0,0,0-2-1.2,1.45,1.45,0,0,0-1.45,1.47v.06c0,2.27,3.81,2.68,3.81,5.83a3.16,3.16,0,0,1-3.05,3.27h-.2a3.63,3.63,0,0,1-2.19-.8V42.91a3,3,0,0,0,2.09,1.15,1.7,1.7,0,0,0,1.72-1.7v-.1c0-2.29-3.81-3.07-3.81-5.87a2.84,2.84,0,0,1,2.79-2.89h.17a3.55,3.55,0,0,1,2.12.75Z" transform="translate(0 0)"/>
  <path class="cls-2" d="M177.64,42.42a3.07,3.07,0,1,1-6.14,0V33.63H173V41.5c0,1.19,0,2.55,1.63,2.55s1.54-1.56,1.54-2.71V33.63h1.48Z" transform="translate(0 0)"/>
  <path class="cls-2" d="M191.07,45.25h-1.48v-8.6c0-1-.16-2-1.38-2-1.71,0-1.79,1.9-1.79,3.18v7.43h-1.51V36.67c0-.86-.08-2-1.24-2-1.85,0-1.91,2.06-1.91,3.41v7.2h-1.48V33.63h1.48v1a3.17,3.17,0,0,1,2.3-1.14,2.3,2.3,0,0,1,2.17,1.35,2.88,2.88,0,0,1,2.44-1.34c1.9,0,2.4,1.22,2.4,2.88Z" transform="translate(0 0)"/>
  <path class="cls-2" d="M206,42.42a3.07,3.07,0,0,1-6.14,0V33.63h1.48V41.5c0,1.19.06,2.55,1.64,2.55s1.51-1.55,1.51-2.7V33.63H206Z" transform="translate(0 0)"/>
  <path class="cls-2" d="M210.13,34.41a2.16,2.16,0,0,1,1.88-1c2.91,0,2.94,3.66,2.94,5.77,0,2.5-.08,6.21-2.78,6.21a2.49,2.49,0,0,1-2-1.11v5.61h-1.48V33.63h1.48Zm1.54.21c-1.54,0-1.67,2.44-1.67,4.76,0,1,0,3.74.74,4.47a1.21,1.21,0,0,0,.95.39c1.38,0,1.54-1.67,1.64-2.68a25.62,25.62,0,0,0,.08-2.73C213.41,37.66,213.39,34.62,211.67,34.62Z" transform="translate(0 0)"/>
  <path class="cls-2" d="M225.23,35V45.25h-1.48V35H222.5V33.63h1.27v-3.3h1.48v3.3h2V35Z" transform="translate(0 0)"/>
  <path class="cls-2" d="M231.55,45.43c-3,0-3.47-3.74-3.47-6s.43-6,3.47-6,3.3,3.82,3.3,6.06S234.59,45.43,231.55,45.43Zm0-10.63c-1.82,0-1.88,3.54-1.88,4.76s.08,4.5,1.88,4.5,1.8-3.46,1.8-4.63-.08-4.63-1.85-4.63Z" transform="translate(0 0)"/>
  <path class="cls-2" d="M245.17,35V45.25h-1.49V35h-1.26V33.63h1.26v-3.3h1.49v3.3h2V35Z" transform="translate(0 0)"/>
  <path class="cls-2" d="M253.1,45.25V36.8c0-.93,0-2.16-1.32-2.16a1.67,1.67,0,0,0-1.41.76,3.65,3.65,0,0,0-.39,2v7.82H248.5v-19H250v8.27a3.08,3.08,0,0,1,2.3-1.12c1.93,0,2.3,1.35,2.3,3v8.81Z" transform="translate(0 0)"/>
  <path class="cls-2" d="M262.91,41.3c-.08,1.87-.66,4.13-3,4.13-3,0-3.44-3.71-3.44-6s.45-6,3.33-6S263,36.94,263,39v.73h-5V40c0,1.17.18,4.06,1.88,4.06,1.32,0,1.5-1.77,1.53-2.76Zm-1.41-2.8c0-1-.18-3.69-1.69-3.69S258,37.44,258,38.5Z" transform="translate(0 0)"/>
  <path class="cls-2" d="M274.5,45.25h-1.61l-2.7-11.62h1.53l1.56,6.94c.19.83.32,1.67.43,2.5.13-.81.26-1.64.42-2.45l1.45-7h1.54Z" transform="translate(0 0)"/>
  <path class="cls-2" d="M283,45.25v-.93a2.34,2.34,0,0,1-2,1.11c-2.7,0-2.78-3.71-2.78-5.77,0-2.36.08-6.21,2.91-6.21a2.19,2.19,0,0,1,1.88,1v-.78h1.49V45.25Zm-1.5-10.63c-1.72,0-1.74,3-1.74,4.13s0,1.87.08,2.81.26,2.68,1.64,2.68a1.21,1.21,0,0,0,.95-.39c.74-.73.74-3.46.74-4.47C283.16,37.06,283,34.62,281.5,34.62Z" transform="translate(0 0)"/>
  <path class="cls-2" d="M290.64,35.14c-2,0-2,1.56-2,3.07v7h-1.48V33.63h1.48v1.51a2.43,2.43,0,0,1,2-1.69Z" transform="translate(0 0)"/>
  <path class="cls-2" d="M293.05,31.06a1.1,1.1,0,1,1,1.08-1.12v0A1.09,1.09,0,0,1,293.05,31.06Zm-.77,14.19V33.63h1.51V45.25Z" transform="translate(0 0)"/>
  <path class="cls-2" d="M300.9,45.25v-.93a2.34,2.34,0,0,1-2,1.11c-2.7,0-2.78-3.71-2.78-5.77,0-2.36.08-6.21,2.91-6.21a2.19,2.19,0,0,1,1.88,1v-.78h1.51V45.25Zm-1.51-10.63c-1.72,0-1.74,3-1.74,4.13s0,1.87.08,2.81.26,2.68,1.64,2.68a1.21,1.21,0,0,0,.95-.39c.74-.73.74-3.46.74-4.47,0-2.32-.13-4.76-1.67-4.76Z" transform="translate(0 0)"/>
  <path class="cls-2" d="M306.5,34.41a2.21,2.21,0,0,1,1.91-1c2.88,0,2.9,3.69,2.9,5.77,0,2.5-.08,6.21-2.77,6.21a2.49,2.49,0,0,1-2-1.11v.93h-1.48v-19h1.44Zm1.54.21c-1.54,0-1.67,2.44-1.67,4.76,0,1,0,3.74.74,4.47a1.18,1.18,0,0,0,.95.39c1.38,0,1.53-1.67,1.64-2.68a23.23,23.23,0,0,0,.08-2.73c0-1.17,0-4.21-1.71-4.21Z" transform="translate(0 0)"/>
  <path class="cls-2" d="M313.5,45.25v-19H315v19Z" transform="translate(0 0)"/>
  <path class="cls-2" d="M323.67,41.3c-.08,1.87-.67,4.13-3,4.13-3,0-3.44-3.71-3.44-6s.45-6,3.33-6,3.2,3.51,3.2,5.56v.73h-5V40c0,1.17.18,4.06,1.87,4.06,1.33,0,1.51-1.77,1.54-2.76Zm-1.38-2.8c-.05-1-.18-3.69-1.69-3.69s-1.77,2.63-1.83,3.69Z" transform="translate(0 0)"/>
  <path class="cls-2" d="M39.5,76.09a4.67,4.67,0,0,1-2.4.54,5.47,5.47,0,0,1-4.18-1.56c-1.24-1.22-2.38-3.35-2.38-7,0-1.74.21-5.07,2.54-7.38A5.83,5.83,0,0,1,37.31,59a5.19,5.19,0,0,1,2.19.49V63a2.81,2.81,0,0,0-1.93-.76,2.68,2.68,0,0,0-1.93.78c-1,.94-1.45,2.73-1.45,5,0,.44,0,3.2,1.24,4.55a2.56,2.56,0,0,0,2,.83,3.07,3.07,0,0,0,2.07-.88Z" transform="translate(0 0)"/>
  <path class="cls-2" d="M45.57,76.69c-3.38,0-4.49-3.23-4.49-6s1.11-6,4.49-6,4.45,3.15,4.45,6S49.06,76.69,45.57,76.69Zm0-9.16c-1.08,0-1.16,2.37-1.16,3.12s.08,3.12,1.16,3.12,1.11-2.41,1.11-3.12-.08-3.15-1.11-3.15Z" transform="translate(0 0)"/>
  <path class="cls-2" d="M56.78,76.5V69.33c0-.52,0-1.46-.79-1.46-1,0-.9,1.2-.9,1.85V76.5h-3.3V64.83h3.3v1.82a3.17,3.17,0,0,1,2.81-2c2,0,2.19,1.87,2.19,3.43V76.5Z" transform="translate(0 0)"/>
  <path class="cls-2" d="M67.73,68a2.25,2.25,0,0,0-1.56-.78.8.8,0,0,0-.85.75V68c0,1.4,3.71,1.12,3.71,4.63a3.68,3.68,0,0,1-3.73,4,5.77,5.77,0,0,1-3.6-1.33L63.16,73a2.49,2.49,0,0,0,1.61.72,1,1,0,0,0,1.06-.94v-.06C65.83,71.29,62,71.49,62,68c0-2.23,1.82-3.43,3.94-3.43a5,5,0,0,1,3.14,1Z" transform="translate(0 0)"/>
  <path class="cls-2" d="M78.44,72.5a5.24,5.24,0,0,1-1.27,3.33,3.38,3.38,0,0,1-2.57.91,3.68,3.68,0,0,1-2.82-1A6.42,6.42,0,0,1,70.16,71a7.42,7.42,0,0,1,1.72-5.25,3.69,3.69,0,0,1,2.7-1.07,3.55,3.55,0,0,1,2.54.94,6.42,6.42,0,0,1,1.53,4.52,8.89,8.89,0,0,1-.08,1.15H73.34a3.53,3.53,0,0,0,0,.65,3.42,3.42,0,0,0,.47,2,.91.91,0,0,0,.69.31,1,1,0,0,0,.66-.21,2.71,2.71,0,0,0,.51-1.58Zm-2.67-3.23a2.9,2.9,0,0,0-.53-1.89,1,1,0,0,0-.61-.24,1.13,1.13,0,0,0-.74.31,3.17,3.17,0,0,0-.5,1.82Z" transform="translate(0 0)"/>
  <path class="cls-2" d="M85.44,81.81V75.13a2.51,2.51,0,0,1-2.19,1.56c-2.72,0-3.2-4.11-3.2-6.09s.4-6,3.17-6a2.45,2.45,0,0,1,2.22,1.64V64.83h3.31v17ZM84.55,67.5c-1.09,0-1.17,2.4-1.17,3.12s.08,3.12,1.19,3.12,1.11-2.41,1.11-3.12S85.6,67.5,84.55,67.5Z" transform="translate(0 0)"/>
  <path class="cls-2" d="M99.14,72.68a3.66,3.66,0,0,1-.55,2.21A4.37,4.37,0,0,1,95,76.69a4.26,4.26,0,0,1-3.62-1.82,3.5,3.5,0,0,1-.48-2v-8h3.31V72c0,.57,0,1.69.82,1.69,1,0,.82-1.56.82-2.18v-6.7h3.33Z" transform="translate(0 0)"/>
  <path class="cls-2" d="M109.16,72.5a5.24,5.24,0,0,1-1.27,3.33,3.37,3.37,0,0,1-2.56.91,3.7,3.7,0,0,1-2.83-1A6.41,6.41,0,0,1,100.89,71a7.48,7.48,0,0,1,1.71-5.25,3.69,3.69,0,0,1,2.7-1.07,3.55,3.55,0,0,1,2.54.94,6.42,6.42,0,0,1,1.53,4.52,7.41,7.41,0,0,1-.08,1.15h-5.23a3.53,3.53,0,0,0,0,.65,3.43,3.43,0,0,0,.48,2,.88.88,0,0,0,.69.31,1,1,0,0,0,.66-.21,2.77,2.77,0,0,0,.5-1.58Zm-2.66-3.28a2.9,2.9,0,0,0-.53-1.89,1,1,0,0,0-.61-.24,1.13,1.13,0,0,0-.74.31,3.17,3.17,0,0,0-.5,1.82Z" transform="translate(0 0)"/>
  <path class="cls-2" d="M116.12,76.5V69.33c0-.52,0-1.46-.8-1.46s-.9,1.2-.9,1.85V76.5h-3.3V64.83h3.3v1.82a3.17,3.17,0,0,1,2.81-2c2,0,2.19,1.87,2.19,3.43V76.5Z" transform="translate(0 0)"/>
  <path class="cls-2" d="M127.38,76.27a4.23,4.23,0,0,1-1.88.42c-3.17,0-4.31-3.28-4.31-5.91,0-2.83,1.08-6.18,4.52-6.18a4,4,0,0,1,1.67.33v2.86a1.29,1.29,0,0,0-.93-.39c-1.58,0-1.93,1.95-1.93,3.15s.27,3.09,1.88,3.09a1.78,1.78,0,0,0,1-.33Z" transform="translate(0 0)"/>
  <path class="cls-2" d="M136.87,72.5a5.24,5.24,0,0,1-1.27,3.33,3.37,3.37,0,0,1-2.56.91,3.7,3.7,0,0,1-2.83-1A6.42,6.42,0,0,1,128.59,71a7.48,7.48,0,0,1,1.72-5.25,3.69,3.69,0,0,1,2.7-1.07,3.55,3.55,0,0,1,2.54.94,6.42,6.42,0,0,1,1.53,4.52,7.41,7.41,0,0,1-.08,1.15h-5.23a3.53,3.53,0,0,0,0,.65,3.43,3.43,0,0,0,.48,2,.89.89,0,0,0,.68.31,1.07,1.07,0,0,0,.67-.21,2.77,2.77,0,0,0,.5-1.58Zm-2.67-3.23a2.9,2.9,0,0,0-.53-1.89,1,1,0,0,0-.61-.24,1.13,1.13,0,0,0-.74.31,3.17,3.17,0,0,0-.5,1.82Z" transform="translate(0 0)"/>
  <path class="cls-2" d="M144.35,68a2.25,2.25,0,0,0-1.56-.78.79.79,0,0,0-.84.74V68c0,1.4,3.7,1.12,3.7,4.63a3.68,3.68,0,0,1-3.73,4,5.77,5.77,0,0,1-3.6-1.33L139.78,73a2.55,2.55,0,0,0,1.61.72,1,1,0,0,0,1.06-.94v-.06c0-1.45-3.86-1.25-3.86-4.76,0-2.23,1.82-3.43,3.94-3.43a5,5,0,0,1,3.14,1Z" transform="translate(0 0)"/>
  <path class="cls-2" d="M147.39,80.14l-1.14-.52,1.83-5.33,1.64.73Z" transform="translate(0 0)"/>
  <path class="cls-2" d="M165.69,76.5h-1.53c-.51-3.22-1.09-6.45-1.51-9.67-.11.62-.13,1.2-.24,1.82l-1.3,7.85h-1.53L157.2,64.83h1.51l1.32,7c.16.8.26,1.63.34,2.44.06-.78.22-1.59.35-2.39l1.19-7.1h1.53c.5,3.15,1.11,6.32,1.48,9.49.13-.81.24-1.64.4-2.47l1.45-7h1.51Z" transform="translate(0 0)"/>
  <path class="cls-2" d="M174.5,76.5V68c0-.93,0-2.16-1.32-2.16a1.67,1.67,0,0,0-1.41.76,3.65,3.65,0,0,0-.39,2v7.9H169.9v-19h1.48v8.27a3.08,3.08,0,0,1,2.3-1.12c1.93,0,2.3,1.35,2.3,3V76.5Z" transform="translate(0 0)"/>
  <path class="cls-2" d="M179.33,62.26a1.1,1.1,0,1,1,1.09-1.11v0A1.1,1.1,0,0,1,179.33,62.26Zm-.77,14.24V64.83h1.51V76.5Z" transform="translate(0 0)"/>
  <path class="cls-2" d="M187.34,76a2.89,2.89,0,0,1-1.69.59c-2.78,0-3.41-3.71-3.41-5.79s.47-6.19,3.49-6.19a3.14,3.14,0,0,1,1.61.44v1.72a2.07,2.07,0,0,0-1.48-.81c-1.88,0-2.06,3.41-2.06,4.71s.24,4.55,2,4.55a2,2,0,0,0,1.51-1Z" transform="translate(0 0)"/>
  <path class="cls-2" d="M193.69,76.5V68c0-.93,0-2.16-1.32-2.16a1.67,1.67,0,0,0-1.41.76,3.65,3.65,0,0,0-.39,2v7.9h-1.48v-19h1.48v8.27a3.08,3.08,0,0,1,2.3-1.12c1.93,0,2.3,1.35,2.3,3V76.5Z" transform="translate(0 0)"/>
  <path class="cls-2" d="M204.71,62.26a1.1,1.1,0,1,1,1.09-1.11v0A1.1,1.1,0,0,1,204.71,62.26ZM204,76.5V64.83h1.55V76.5Z" transform="translate(0 0)"/>
  <path class="cls-2" d="M212.5,67.2a2.8,2.8,0,0,0-2-1.2,1.46,1.46,0,0,0-1.45,1.47v0c0,2.27,3.81,2.68,3.81,5.83a3.16,3.16,0,0,1-3.05,3.27h-.13a3.63,3.63,0,0,1-2.19-.8V74.11a3,3,0,0,0,2.09,1.15,1.72,1.72,0,0,0,1.72-1.72v0c0-2.29-3.81-3.07-3.81-5.87a2.84,2.84,0,0,1,2.74-2.94h.19a3.55,3.55,0,0,1,2.12.75Z" transform="translate(0 0)"/>
  <path class="cls-2" d="M223.83,76.63c-3,0-3.46-3.74-3.46-6s.42-6,3.46-6,3.3,3.82,3.3,6.06S226.87,76.63,223.83,76.63Zm0-10.63C222,66,222,69.54,222,70.76s.08,4.5,1.88,4.5,1.8-3.46,1.8-4.63S225.55,66,223.8,66Z" transform="translate(0 0)"/>
  <path class="cls-2" d="M234,76.5V68c0-.93,0-2.16-1.33-2.16a1.69,1.69,0,0,0-1.4.76,3.48,3.48,0,0,0-.4,2v7.9h-1.48V64.83h1.48v.94a3.13,3.13,0,0,1,2.31-1.12c2,0,2.3,1.61,2.3,3.2V76.5Z" transform="translate(0 0)"/>
  <path class="cls-2" d="M244.06,72.5c-.08,1.87-.67,4.13-3,4.13-3,0-3.44-3.71-3.44-5.95s.45-6,3.33-6,3.2,3.51,3.2,5.56V71h-5v.26c0,1.17.18,4.06,1.87,4.06,1.33,0,1.51-1.77,1.54-2.76Zm-1.38-2.81c-.05-1-.18-3.69-1.69-3.69s-1.77,2.63-1.83,3.69Z" transform="translate(0 0)"/>
  <path class="cls-2" d="M255.5,76.63c-3,0-3.46-3.74-3.46-6s.42-6,3.46-6,3.3,3.82,3.3,6.06S258.57,76.63,255.5,76.63Zm0-10.63c-1.82,0-1.88,3.54-1.88,4.76s.08,4.5,1.88,4.5,1.8-3.46,1.8-4.63S257.25,66,255.5,66Z" transform="translate(0 0)"/>
  <path class="cls-2" d="M263,66.18V76.5H261.5V66.18h-1.34V64.83h1.34V60.18c0-1.49.4-3,2.2-3a3.34,3.34,0,0,1,1.32.26v1.61a1.73,1.73,0,0,0-1.08-.52c-.87,0-.95.78-.95,1.43V64.8h2v1.35Z" transform="translate(0 0)"/>
  <path class="cls-2" d="M274.5,66.18V76.5H273V66.18h-1.27V64.83H273V61.5h1.48v3.3h2v1.35Z" transform="translate(0 0)"/>
  <path class="cls-2" d="M282.5,76.5V68c0-.93,0-2.16-1.32-2.16a1.65,1.65,0,0,0-1.4.76,3.64,3.64,0,0,0-.4,2v7.9H277.9v-19h1.48v8.27a3.11,3.11,0,0,1,2.3-1.12c1.93,0,2.3,1.35,2.3,3V76.5Z" transform="translate(0 0)"/>
  <path class="cls-2" d="M290.09,66.34c-2,0-2,1.56-2,3.07v7H286.6V64.83h1.48v1.51a2.41,2.41,0,0,1,2-1.69Z" transform="translate(0 0)"/>
  <path class="cls-2" d="M297.57,72.5c-.08,1.87-.66,4.13-3,4.13-3,0-3.44-3.71-3.44-5.95s.45-6,3.33-6,3.2,3.51,3.2,5.56V71h-5v.26c0,1.17.19,4.06,1.88,4.06,1.32,0,1.51-1.77,1.53-2.76Zm-1.38-2.81c-.05-1-.18-3.69-1.69-3.69s-1.77,2.63-1.82,3.69Z" transform="translate(0 0)"/>
  <path class="cls-2" d="M305.84,72.5c-.08,1.87-.66,4.13-3,4.13-3,0-3.44-3.71-3.44-5.95s.45-6,3.33-6,3.2,3.51,3.2,5.56V71h-5v.26c0,1.17.18,4.06,1.87,4.06,1.32,0,1.51-1.77,1.54-2.76Zm-1.34-2.81c-.05-1-.19-3.69-1.69-3.69S301,68.63,301,69.69Z" transform="translate(0 0)"/>
  <path class="cls-2" d="M316.23,66.18V76.5h-1.48V66.18H313.4V64.83h1.35V60.18c0-1.49.4-3,2.2-3a3.34,3.34,0,0,1,1.32.26v1.61a1.78,1.78,0,0,0-1.08-.52c-.88,0-1,.78-1,1.43V64.8h2v1.35Z" transform="translate(0 0)"/>
  <path class="cls-2" d="M324.19,76.5v-1a2.34,2.34,0,0,1-2,1.11c-2.69,0-2.77-3.71-2.77-5.77,0-2.36.08-6.21,2.91-6.21a2.2,2.2,0,0,1,1.87,1v-.78h1.51V76.5Zm-1.5-10.63c-1.72,0-1.75,3-1.75,4.13s0,1.87.08,2.81.26,2.68,1.64,2.68a1.18,1.18,0,0,0,.95-.39c.74-.73.74-3.46.74-4.47,0-2.37-.13-4.81-1.66-4.81Z" transform="translate(0 0)"/>
  <path class="cls-2" d="M333,76a3,3,0,0,1-1.69.59c-2.78,0-3.42-3.71-3.42-5.79s.48-6.19,3.49-6.19a3.18,3.18,0,0,1,1.62.44v1.72a2.13,2.13,0,0,0-1.5-.81c-1.88,0-2.07,3.41-2.07,4.71s.24,4.55,2,4.55a2,2,0,0,0,1.51-1Z" transform="translate(0 0)"/>
  <path class="cls-2" d="M336.78,66.18V76.5H335.3V66.18H334V64.83h1.27V61.5h1.48v3.3h2v1.35Z" transform="translate(0 0)"/>
  <path class="cls-2" d="M343.1,76.63c-3,0-3.47-3.74-3.47-6s.43-6,3.47-6,3.3,3.82,3.3,6.06S346.14,76.63,343.1,76.63Zm0-10.63c-1.82,0-1.88,3.54-1.88,4.76s.08,4.5,1.88,4.5,1.8-3.46,1.8-4.63S344.82,66,343.07,66Z" transform="translate(0 0)"/>
  <path class="cls-2" d="M352.11,66.34c-2,0-2,1.56-2,3.07v7h-1.48V64.83h1.48v1.51a2.43,2.43,0,0,1,2-1.69Z" transform="translate(0 0)"/>
  <path class="cls-2" d="M358.25,67.2a2.8,2.8,0,0,0-2-1.2,1.46,1.46,0,0,0-1.49,1.43v.07c0,2.27,3.8,2.68,3.8,5.83a3.15,3.15,0,0,1-3,3.27h-.14a3.63,3.63,0,0,1-2.19-.8V74.11a3,3,0,0,0,2.09,1.15A1.71,1.71,0,0,0,357,73.55v0c0-2.29-3.8-3.07-3.8-5.87a2.83,2.83,0,0,1,2.72-2.94h.21a3.55,3.55,0,0,1,2.12.75Z" transform="translate(0 0)"/>
  <path class="cls-2" d="M32.35,96.81a2.21,2.21,0,0,1,1.91-1c2.88,0,2.91,3.69,2.91,5.77,0,2.5-.08,6.21-2.78,6.21a2.49,2.49,0,0,1-2-1.11v.93H30.87v-19h1.48Zm1.54.21c-1.54,0-1.67,2.44-1.67,4.76,0,1,0,3.74.74,4.47a1.21,1.21,0,0,0,1,.39c1.38,0,1.54-1.67,1.64-2.68a25.62,25.62,0,0,0,.08-2.73C35.63,100.06,35.61,97,33.89,97Z" transform="translate(0 0)"/>
  <path class="cls-2" d="M45.34,103.7c-.08,1.87-.67,4.13-3,4.13-3,0-3.44-3.71-3.44-6s.45-6,3.33-6,3.2,3.51,3.2,5.56v.73h-5v.26c0,1.17.18,4.06,1.87,4.06,1.33,0,1.51-1.77,1.54-2.76ZM44,100.89c0-1-.18-3.69-1.69-3.69s-1.77,2.63-1.83,3.69Z" transform="translate(0 0)"/>
  <path class="cls-2" d="M52.24,107.65V99.2c0-.93,0-2.16-1.33-2.16a1.69,1.69,0,0,0-1.4.76,3.65,3.65,0,0,0-.39,2v7.82H47.64v-19h1.48v8.27a3.08,3.08,0,0,1,2.3-1.12c1.93,0,2.3,1.35,2.3,3v8.81Z" transform="translate(0 0)"/>
  <path class="cls-2" d="M57.1,93.5a1.1,1.1,0,1,1,1.09-1.11v0A1.1,1.1,0,0,1,57.1,93.5Zm-.77,14.19V96h1.51v11.62Z" transform="translate(0 0)"/>
  <path class="cls-2" d="M65.06,107.65V99.2c0-.93,0-2.16-1.32-2.16a1.65,1.65,0,0,0-1.4.76,3.48,3.48,0,0,0-.4,2v7.82H60.5V96H62V97a3.08,3.08,0,0,1,2.3-1.12c2,0,2.3,1.61,2.3,3.2v8.6Z" transform="translate(0 0)"/>
  <path class="cls-2" d="M73.55,107.65v-.93a2.36,2.36,0,0,1-2,1.11c-2.72,0-2.78-3.87-2.78-5.9,0-2.26,0-6.08,2.94-6.08a2.19,2.19,0,0,1,1.88,1V88.7h1.48v19ZM72,97c-1.69,0-1.72,3-1.72,4.13s0,1.87.08,2.81.24,2.68,1.62,2.68a1.25,1.25,0,0,0,1-.39c.72-.7.72-3.43.72-4.4,0-2.44-.16-4.83-1.7-4.83Z" transform="translate(0 0)"/>
  <path class="cls-2" d="M85.76,97.38v10.27H84.28V97.38H83V96h1.27v-3.3h1.48V96h2v1.35Z" transform="translate(0 0)"/>
  <path class="cls-2" d="M93.69,107.65V99.2c0-.93,0-2.16-1.32-2.16a1.69,1.69,0,0,0-1.4.76,3.64,3.64,0,0,0-.4,2v7.82H89.09v-19h1.48v8.27a3.11,3.11,0,0,1,2.3-1.12c1.93,0,2.3,1.35,2.3,3v8.81Z" transform="translate(0 0)"/>
  <path class="cls-2" d="M103.5,103.7c-.08,1.87-.66,4.13-3,4.13-3,0-3.43-3.71-3.43-6s.45-6,3.33-6,3.2,3.51,3.2,5.56v.73h-5v.26c0,1.17.19,4.06,1.88,4.06,1.32,0,1.51-1.77,1.54-2.76Zm-1.37-2.81c0-1-.19-3.69-1.69-3.69s-1.78,2.63-1.83,3.69Z" transform="translate(0 0)"/>
  <path class="cls-2" d="M116.43,98.4a2.8,2.8,0,0,0-2-1.2A1.46,1.46,0,0,0,113,98.66v.07c0,2.27,3.81,2.68,3.81,5.83a3.16,3.16,0,0,1-3,3.27h-.12a3.68,3.68,0,0,1-2.2-.8v-1.72a3,3,0,0,0,2.09,1.19,1.7,1.7,0,0,0,1.72-1.7v-.1c0-2.29-3.81-3.07-3.81-5.87a2.84,2.84,0,0,1,2.74-2.94h.2a3.5,3.5,0,0,1,2.11.75Z" transform="translate(0 0)"/>
  <path class="cls-2" d="M124.68,104.82a3.07,3.07,0,0,1-6.13,0V96H120v7.88c0,1.19,0,2.55,1.64,2.55s1.53-1.56,1.53-2.71V96h1.48Z" transform="translate(0 0)"/>
  <path class="cls-2" d="M128.8,96.81a2.21,2.21,0,0,1,1.91-1c2.88,0,2.91,3.69,2.91,5.77,0,2.5-.08,6.21-2.78,6.21a2.51,2.51,0,0,1-2-1.11v.93h-1.48v-19h1.48Zm1.54.21c-1.54,0-1.67,2.44-1.67,4.76,0,1,0,3.74.74,4.47a1.22,1.22,0,0,0,1,.39c1.37,0,1.53-1.67,1.63-2.68a25.62,25.62,0,0,0,.08-2.73C132.08,100.06,132.06,97,130.34,97Z" transform="translate(0 0)"/>
  <path class="cls-2" d="M136.63,93.5a1.1,1.1,0,1,1,1.11-1.09v0A1.11,1.11,0,0,1,136.63,93.5Zm-.77,18.87V96.07h1.54v16.3Z" transform="translate(0 0)"/>
  <path class="cls-2" d="M146,103.7c-.08,1.87-.66,4.13-3,4.13-3,0-3.43-3.71-3.43-6s.44-6,3.33-6,3.2,3.51,3.2,5.56v.73h-5v.26c0,1.17.19,4.06,1.88,4.06,1.32,0,1.51-1.77,1.53-2.76Zm-1.37-2.81c-.06-1-.19-3.69-1.7-3.69s-1.77,2.63-1.82,3.69Z" transform="translate(0 0)"/>
  <path class="cls-2" d="M153,107.24a3,3,0,0,1-1.7.59c-2.77,0-3.41-3.71-3.41-5.79s.48-6.19,3.49-6.19a3.18,3.18,0,0,1,1.62.44V98a2.13,2.13,0,0,0-1.49-.81c-1.87,0-2.06,3.41-2.06,4.71s.24,4.55,2,4.55a2,2,0,0,0,1.51-1Z" transform="translate(0 0)"/>
  <path class="cls-2" d="M156.73,97.38v10.27h-1.49V97.38H154V96h1.27v-3.3h1.49V96h2v1.35Z" transform="translate(0 0)"/>
  <path class="cls-2" d="M160.8,93.5a1.1,1.1,0,1,1,1.08-1.12v.05A1.09,1.09,0,0,1,160.8,93.5ZM160,107.69V96h1.47v11.62Z" transform="translate(0 0)"/>
  <path class="cls-2" d="M167.33,107.65h-1.62L163,96h1.53l1.56,6.94c.17.84.3,1.68.39,2.53.14-.81.27-1.64.43-2.45l1.45-7h1.54Z" transform="translate(0 0)"/>
  <path class="cls-2" d="M177.24,103.7c-.08,1.87-.66,4.13-3,4.13-3,0-3.43-3.71-3.43-6s.45-6,3.33-6,3.2,3.51,3.2,5.56v.73h-5v.26c0,1.17.19,4.06,1.88,4.06,1.32,0,1.51-1.77,1.54-2.76Zm-1.37-2.81c-.06-1-.19-3.69-1.69-3.69s-1.78,2.63-1.83,3.69Z" transform="translate(0 0)"/>
  <path class="cls-2" d="M187.18,96.81a2.16,2.16,0,0,1,1.88-1c2.91,0,2.94,3.66,2.94,5.77,0,2.5-.08,6.21-2.78,6.21a2.49,2.49,0,0,1-2-1.11v5.61H185.7V96h1.48Zm1.54.21c-1.54,0-1.67,2.44-1.67,4.76,0,1,0,3.74.74,4.47a1.21,1.21,0,0,0,1,.39c1.38,0,1.54-1.67,1.64-2.68a25.62,25.62,0,0,0,.08-2.73c0-1.17-.07-4.21-1.79-4.21Z" transform="translate(0 0)"/>
  <path class="cls-2" d="M200.17,103.7c-.08,1.87-.67,4.13-3,4.13-3,0-3.44-3.71-3.44-6s.45-6,3.33-6,3.2,3.51,3.2,5.56v.73h-5v.26c0,1.17.18,4.06,1.87,4.06,1.33,0,1.51-1.77,1.54-2.76Zm-1.38-2.81c0-1-.18-3.69-1.69-3.69s-1.77,2.63-1.83,3.69Z" transform="translate(0 0)"/>
  <path class="cls-2" d="M206,97.5c-2,0-2,1.56-2,3.07v7H202.5V96H204V97.5a2.41,2.41,0,0,1,2-1.69Z" transform="translate(0 0)"/>
  <path class="cls-2" d="M212.12,107.24a3,3,0,0,1-1.7.59c-2.77,0-3.41-3.71-3.41-5.79s.48-6.19,3.49-6.19a3.18,3.18,0,0,1,1.62.44V98a2.13,2.13,0,0,0-1.49-.81c-1.87,0-2.06,3.41-2.06,4.71s.24,4.55,2,4.55a2,2,0,0,0,1.51-1Z" transform="translate(0 0)"/>
  <path class="cls-2" d="M219.94,103.7c-.08,1.87-.66,4.13-3,4.13-3,0-3.43-3.71-3.43-6s.45-6,3.33-6,3.2,3.51,3.2,5.56v.73h-5v.26c0,1.17.19,4.06,1.88,4.06,1.32,0,1.51-1.77,1.53-2.76Zm-1.37-2.81c-.06-1-.19-3.69-1.69-3.69s-1.78,2.63-1.83,3.69Z" transform="translate(0 0)"/>
  <path class="cls-2" d="M223.72,96.81a2.16,2.16,0,0,1,1.88-1c2.91,0,2.94,3.66,2.94,5.77,0,2.5-.08,6.21-2.78,6.21a2.49,2.49,0,0,1-2-1.11v5.61h-1.48V96h1.48Zm1.54.21c-1.54,0-1.67,2.44-1.67,4.76,0,1,0,3.74.74,4.47a1.18,1.18,0,0,0,.95.39c1.38,0,1.54-1.67,1.64-2.68a25.62,25.62,0,0,0,.08-2.73C227,100.06,227,97,225.26,97Z" transform="translate(0 0)"/>
  <path class="cls-2" d="M232.66,97.38v10.27h-1.48V97.38h-1.27V96h1.27v-3.3h1.48V96h2v1.35Z" transform="translate(0 0)"/>
  <path class="cls-2" d="M236.73,93.5a1.1,1.1,0,1,1,1.08-1.12v.05A1.09,1.09,0,0,1,236.73,93.5ZM236,107.69V96h1.54v11.62Z" transform="translate(0 0)"/>
  <path class="cls-2" d="M243.1,107.83c-3,0-3.46-3.74-3.46-6s.42-6,3.46-6,3.31,3.82,3.31,6.06S246.14,107.83,243.1,107.83Zm0-10.63c-1.83,0-1.88,3.54-1.88,4.76s.08,4.5,1.88,4.5,1.8-3.46,1.8-4.63-.08-4.63-1.82-4.63Z" transform="translate(0 0)"/>
  <path class="cls-2" d="M253.23,107.65V99.2c0-.93,0-2.16-1.32-2.16a1.65,1.65,0,0,0-1.4.76,3.48,3.48,0,0,0-.4,2v7.82h-1.48V96h1.48V97a3.08,3.08,0,0,1,2.3-1.12c2,0,2.3,1.61,2.3,3.2v8.6Z" transform="translate(0 0)"/>
  <path class="cls-2" d="M266.5,107.83c-3,0-3.47-3.74-3.47-6s.43-6,3.47-6,3.3,3.82,3.3,6.06S269.57,107.83,266.5,107.83Zm0-10.63c-1.82,0-1.88,3.54-1.88,4.76s.08,4.5,1.88,4.5,1.8-3.46,1.8-4.63S268.25,97.2,266.5,97.2Z" transform="translate(0 0)"/>
  <path class="cls-2" d="M274,97.38v10.27H272.5V97.38h-1.35V96h1.35V91.38c0-1.49.4-3,2.2-3a3.34,3.34,0,0,1,1.32.26v1.61a1.78,1.78,0,0,0-1.08-.52c-.88,0-1,.78-1,1.43V96h2v1.35Z" transform="translate(0 0)"/>
  <path class="cls-2" d="M285.38,91.79V97.9h3.75v1.48h-3.75v8.27h-1.64V90.31h5.61v1.48Z" transform="translate(0 0)"/>
  <path class="cls-2" d="M297.5,107.65l-4.1-8.47v8.47h-1.79V90.31h2.22a6.44,6.44,0,0,1,3,.49c1.59.84,1.9,2.55,1.9,4.16,0,2.39-.82,4.16-3.49,4.37l4.1,8.32Zm-3-9.75c2.11,0,2.46-1.22,2.46-3,0-2-.43-3.07-2.67-3.07h-.88v6.11Z" transform="translate(0 0)"/>
  <path class="cls-2" d="M303.78,91.79v15.86h-1.64V91.79H299.5V90.31h6.93v1.48Z" transform="translate(0 0)"/>
  <path class="cls-2" d="M311.5,98.4a2.8,2.8,0,0,0-2-1.2,1.45,1.45,0,0,0-1.45,1.47v.06c0,2.27,3.8,2.68,3.8,5.83a3.15,3.15,0,0,1-3,3.27h-.14a3.63,3.63,0,0,1-2.19-.8v-1.72a3,3,0,0,0,2,1.19,1.7,1.7,0,0,0,1.72-1.7v-.1c0-2.29-3.8-3.07-3.8-5.87a2.83,2.83,0,0,1,2.72-2.94h.21a3.55,3.55,0,0,1,2.12.75Z" transform="translate(0 0)"/>
  <path class="cls-2" d="M314.6,107.83a1.2,1.2,0,0,1-1.19-1.17,1.19,1.19,0,1,1,1.21,1.17Z" transform="translate(0 0)"/>
  <path class="cls-2" d="M33.12,121.5c3.54,0,4.47,1.53,4.47,4.81,0,3-1.19,4.24-4.28,4.24h-.67v8.29H31V121.5Zm.61,7.56c2.06,0,2.19-1.43,2.19-3.06,0-1.82-.37-3-2.48-3h-.8v6.08Z" transform="translate(0 0)"/>
  <path class="cls-2" d="M44.73,134.9c-.08,1.87-.66,4.13-3,4.13-3,0-3.44-3.72-3.44-5.95s.45-6,3.33-6,3.2,3.51,3.2,5.56v.73h-5v.26c0,1.17.18,4.05,1.88,4.05,1.32,0,1.5-1.76,1.53-2.75Zm-1.38-2.81c0-1-.18-3.69-1.69-3.69s-1.77,2.62-1.82,3.69Z" transform="translate(0 0)"/>
  <path class="cls-2" d="M50.5,128.74c-2,0-2,1.56-2,3.07v7H47V127.23H48.5v1.51a2.41,2.41,0,0,1,2-1.69Z" transform="translate(0 0)"/>
  <path class="cls-2" d="M56.68,138.43A3,3,0,0,1,55,139c-2.78,0-3.42-3.72-3.42-5.8s.48-6.18,3.5-6.18a3.14,3.14,0,0,1,1.61.44v1.71a2.11,2.11,0,0,0-1.48-.8c-1.88,0-2.07,3.41-2.07,4.7s.24,4.55,2,4.55a2,2,0,0,0,1.51-1Z" transform="translate(0 0)"/>
  <path class="cls-2" d="M64.5,134.9c-.07,1.87-.66,4.13-3,4.13-3,0-3.44-3.72-3.44-5.95s.45-6,3.33-6,3.2,3.51,3.2,5.56v.73h-5v.26c0,1.17.18,4.05,1.87,4.05,1.33,0,1.51-1.76,1.54-2.75Zm-1.37-2.81c0-1-.19-3.69-1.69-3.69s-1.77,2.62-1.83,3.69Z" transform="translate(0 0)"/>
  <path class="cls-2" d="M67.5,124.65a1.09,1.09,0,1,1,1.09-1.09v0A1.08,1.08,0,0,1,67.5,124.65Zm-.76,14.2V127.23h1.51v11.62Z" transform="translate(0 0)"/>
  <path class="cls-2" d="M74.08,138.85H72.5l-2.69-11.62h1.53l1.56,6.94c.18.83.32,1.67.42,2.5.13-.81.27-1.64.43-2.45l1.45-7h1.53Z" transform="translate(0 0)"/>
  <path class="cls-2" d="M84,134.9c-.08,1.87-.66,4.13-3,4.13-3,0-3.44-3.72-3.44-5.95s.45-6,3.34-6,3.2,3.51,3.2,5.56v.73h-5v.26c0,1.17.19,4.05,1.88,4.05,1.32,0,1.51-1.76,1.53-2.75Zm-1.37-2.81c-.06-1-.19-3.69-1.7-3.69s-1.77,2.62-1.82,3.69Z" transform="translate(0 0)"/>
  <path class="cls-2" d="M90.65,138.85v-.93a2.36,2.36,0,0,1-2,1.11c-2.73,0-2.78-3.87-2.78-5.9,0-2.26,0-6.08,2.94-6.08a2.2,2.2,0,0,1,1.87,1V119.9h1.48v18.95Zm-1.53-10.63c-1.69,0-1.72,3-1.72,4.13s0,1.87.08,2.81.24,2.68,1.61,2.68a1.25,1.25,0,0,0,1-.39c.72-.71.72-3.43.72-4.4C90.79,130.61,90.65,128.22,89.12,128.22Z" transform="translate(0 0)"/>
  <path class="cls-2" d="M104.43,128.74c-2,0-2,1.56-2,3.07v7H101V127.23h1.48v1.51a2.41,2.41,0,0,1,2-1.69Z" transform="translate(0 0)"/>
  <path class="cls-2" d="M106.83,124.65a1.09,1.09,0,1,1,1.09-1.09v0A1.08,1.08,0,0,1,106.83,124.65Zm-.76,14.2V127.23h1.5v11.62Z" transform="translate(0 0)"/>
  <path class="cls-2" d="M114.66,129.6a2.8,2.8,0,0,0-2-1.2,1.45,1.45,0,0,0-1.45,1.47v.06c0,2.26,3.81,2.68,3.81,5.83a3.16,3.16,0,0,1-3,3.27h-.13a3.63,3.63,0,0,1-2.19-.8V136.5a3,3,0,0,0,2.09,1.14,1.7,1.7,0,0,0,1.72-1.68v-.11c0-2.29-3.81-3.07-3.81-5.88a2.83,2.83,0,0,1,2.73-2.93h.2a3.55,3.55,0,0,1,2.12.75Z" transform="translate(0 0)"/>
  <path class="cls-2" d="M121.93,138.85l-3.67-5.56v5.56h-1.49V119.9h1.49V132l3-4.73h1.66l-3.38,5.2,4.31,6.42Z" transform="translate(0 0)"/>
  <path class="cls-2" d="M128.88,129.6a2.72,2.72,0,0,0-2-1.2,1.47,1.47,0,0,0-1.46,1.48v.05c0,2.26,3.81,2.68,3.81,5.83a3.15,3.15,0,0,1-3,3.27h-.14a3.68,3.68,0,0,1-2.2-.8V136.5a3,3,0,0,0,2.09,1.14,1.7,1.7,0,0,0,1.72-1.68v-.11c0-2.29-3.81-3.07-3.81-5.88a2.83,2.83,0,0,1,2.73-2.93h.21a3.5,3.5,0,0,1,2.11.75Z" transform="translate(0 0)"/>
  <path class="cls-2" d="M141.66,138.85v-.93a2.36,2.36,0,0,1-2,1.11c-2.7,0-2.78-3.72-2.78-5.77,0-2.37.08-6.21,2.91-6.21a2.21,2.21,0,0,1,1.88,1v-.78h1.5v11.62Zm-1.51-10.63c-1.72,0-1.75,3-1.75,4.13s0,1.87.08,2.81.27,2.68,1.64,2.68a1.18,1.18,0,0,0,.95-.39c.74-.73.74-3.46.74-4.48,0-2.31-.13-4.75-1.66-4.75Z" transform="translate(0 0)"/>
  <path class="cls-2" d="M150.41,138.85V130.4c0-.94,0-2.16-1.33-2.16a1.69,1.69,0,0,0-1.4.76,3.55,3.55,0,0,0-.39,2v7.83h-1.48v-11.6h1.48v.93a3.1,3.1,0,0,1,2.3-1.11c2,0,2.3,1.61,2.3,3.19v8.61Z" transform="translate(0 0)"/>
  <path class="cls-2" d="M158.89,138.85v-.93a2.36,2.36,0,0,1-2,1.11c-2.73,0-2.78-3.87-2.78-5.9,0-2.26,0-6.08,2.94-6.08a2.2,2.2,0,0,1,1.87,1V119.9h1.48v18.95Zm-1.53-10.63c-1.69,0-1.72,3-1.72,4.13s0,1.87.08,2.81.24,2.68,1.61,2.68a1.25,1.25,0,0,0,1-.39c.72-.71.72-3.43.72-4.4C159,130.61,158.89,128.22,157.36,128.22Z" transform="translate(0 0)"/>
  <path class="cls-2" d="M170.66,128a2.21,2.21,0,0,1,1.9-1c2.89,0,2.91,3.69,2.91,5.77,0,2.49-.08,6.21-2.77,6.21a2.49,2.49,0,0,1-2-1.11v.93h-1.48V119.9h1.48Zm1.53.21c-1.53,0-1.66,2.44-1.66,4.75,0,1,0,3.75.74,4.48a1.18,1.18,0,0,0,.95.39c1.37,0,1.53-1.67,1.64-2.68a23.23,23.23,0,0,0,.08-2.73C173.94,131.26,173.91,128.22,172.19,128.22Z" transform="translate(0 0)"/>
  <path class="cls-2" d="M183.64,134.9c-.08,1.87-.66,4.13-3,4.13-3,0-3.43-3.72-3.43-5.95s.45-6,3.33-6,3.2,3.51,3.2,5.56v.73h-5v.26c0,1.17.19,4.05,1.88,4.05,1.32,0,1.51-1.76,1.53-2.75Zm-1.37-2.81c-.06-1-.19-3.69-1.7-3.69s-1.77,2.62-1.82,3.69Z" transform="translate(0 0)"/>
  <path class="cls-2" d="M190.5,138.85V130.4c0-.94,0-2.16-1.32-2.16a1.69,1.69,0,0,0-1.4.76,3.48,3.48,0,0,0-.4,2v7.83H185.9v-11.6h1.48v.93a3.14,3.14,0,0,1,2.3-1.11c2,0,2.3,1.61,2.3,3.19v8.61Z" transform="translate(0 0)"/>
  <path class="cls-2" d="M200.64,134.9c-.08,1.87-.66,4.13-3,4.13-3,0-3.43-3.72-3.43-5.95s.45-6,3.33-6,3.2,3.51,3.2,5.56v.73h-5v.26c0,1.17.19,4.05,1.88,4.05,1.32,0,1.51-1.76,1.53-2.75Zm-1.37-2.81c-.06-1-.19-3.69-1.7-3.69s-1.77,2.62-1.82,3.69Z" transform="translate(0 0)"/>
  <path class="cls-2" d="M204.87,128.58v10.27h-1.48V128.58H202v-1.35h1.35v-4.66c0-1.48.4-3,2.2-3a3.53,3.53,0,0,1,1.32.26v1.67a1.75,1.75,0,0,0-1.09-.52c-.87,0-.95.78-.95,1.43v4.84h2v1.35Zm3.89-3.93a1.09,1.09,0,1,1,1.08-1.1v0a1.07,1.07,0,0,1-1.08,1.06Zm-.77,14.2V127.23h1.51v11.62Z" transform="translate(0 0)"/>
  <path class="cls-2" d="M214.13,128.58v10.27h-1.49V128.58h-1.26v-1.35h1.26v-3.3h1.49v3.3h2v1.35Z" transform="translate(0 0)"/>
  <path class="cls-2" d="M221.93,129.6a2.8,2.8,0,0,0-2-1.2,1.45,1.45,0,0,0-1.45,1.47v.06c0,2.26,3.8,2.68,3.8,5.83a3.15,3.15,0,0,1-3,3.27h-.14a3.63,3.63,0,0,1-2.19-.8V136.5a3,3,0,0,0,2.08,1.14,1.7,1.7,0,0,0,1.72-1.68v-.11c0-2.29-3.8-3.07-3.8-5.88a2.83,2.83,0,0,1,2.73-2.93h.2a3.62,3.62,0,0,1,2.12.75Z" transform="translate(0 0)"/>
  <path class="cls-2" d="M234.7,138.85v-.93a2.36,2.36,0,0,1-2,1.11c-2.7,0-2.78-3.72-2.78-5.77,0-2.37.08-6.21,2.91-6.21a2.21,2.21,0,0,1,1.88,1v-.78h1.5v11.62Zm-1.51-10.63c-1.72,0-1.75,3-1.75,4.13s0,1.87.08,2.81.27,2.68,1.64,2.68a1.18,1.18,0,0,0,1-.39c.74-.73.74-3.46.74-4.48C234.85,130.66,234.72,128.22,233.19,128.22Z" transform="translate(0 0)"/>
  <path class="cls-2" d="M242.34,128.74c-2,0-2,1.56-2,3.07v7h-1.48V127.23h1.48v1.51a2.41,2.41,0,0,1,2-1.69Z" transform="translate(0 0)"/>
  <path class="cls-2" d="M249.82,134.9c-.08,1.87-.66,4.13-3,4.13-3,0-3.44-3.72-3.44-5.95s.45-6,3.34-6,3.2,3.51,3.2,5.56v.73h-5v.26c0,1.17.19,4.05,1.88,4.05,1.32,0,1.51-1.76,1.53-2.75Zm-1.32-2.81c-.06-1-.19-3.69-1.7-3.69S245,131,245,132.09Z" transform="translate(0 0)"/>
  <path class="cls-2" d="M260.21,128.58v10.27h-1.48V128.58h-1.35v-1.35h1.35v-4.66c0-1.48.39-3,2.19-3a3.54,3.54,0,0,1,1.33.26v1.67a1.81,1.81,0,0,0-1.09-.52c-.87,0-1,.78-1,1.43v4.84h2v1.35Z" transform="translate(0 0)"/>
  <path class="cls-2" d="M266.63,139c-3,0-3.46-3.74-3.46-6s.42-6,3.46-6,3.31,3.82,3.31,6S269.68,139,266.63,139Zm0-10.63c-1.83,0-1.88,3.53-1.88,4.76s.08,4.49,1.88,4.49,1.8-3.45,1.8-4.62-.08-4.63-1.82-4.63Z" transform="translate(0 0)"/>
  <path class="cls-2" d="M275.65,128.74c-2,0-2,1.56-2,3.07v7h-1.48V127.23h1.48v1.51a2.43,2.43,0,0,1,2-1.69Z" transform="translate(0 0)"/>
  <path class="cls-2" d="M289.5,134.9c-.08,1.87-.66,4.13-3,4.13-3,0-3.43-3.72-3.43-5.95s.45-6,3.33-6,3.2,3.51,3.2,5.56v.73h-5v.26c0,1.17.19,4.05,1.88,4.05,1.32,0,1.51-1.76,1.54-2.75Zm-1.37-2.81c-.06-1-.19-3.69-1.7-3.69s-1.77,2.62-1.82,3.69Z" transform="translate(0 0)"/>
  <path class="cls-2" d="M296,138.85l-1.3-3.3a15.12,15.12,0,0,1-.58-1.72,12,12,0,0,1-.53,1.74l-1.27,3.28h-1.66l2.69-5.95-2.4-5.67h1.59a38.89,38.89,0,0,1,1.67,4.91,26.57,26.57,0,0,1,1.75-4.91h1.66l-2.64,5.67,2.64,5.95Z" transform="translate(0 0)"/>
  <path class="cls-2" d="M303.41,138.85v-.93a2.34,2.34,0,0,1-2,1.11c-2.69,0-2.77-3.72-2.77-5.77,0-2.37.08-6.21,2.91-6.21a2.2,2.2,0,0,1,1.87,1v-.78h1.51v11.62Zm-1.5-10.63c-1.72,0-1.75,3-1.75,4.13s0,1.87.08,2.81.26,2.68,1.64,2.68a1.18,1.18,0,0,0,.95-.39c.74-.73.74-3.46.74-4.48C303.57,130.66,303.44,128.22,301.91,128.22Z" transform="translate(0 0)"/>
  <path class="cls-2" d="M318.35,138.85h-1.48v-8.61c0-1-.16-2-1.37-2-1.72,0-1.8,1.9-1.8,3.17v7.44h-1.51v-8.58c0-.86-.08-2-1.24-2-1.85,0-1.91,2.06-1.91,3.41v7.2h-1.48V127.23H309v1a3.17,3.17,0,0,1,2.3-1.14,2.31,2.31,0,0,1,2.16,1.31,2.89,2.89,0,0,1,2.44-1.35c1.9,0,2.4,1.22,2.4,2.88Z" transform="translate(0 0)"/>
  <path class="cls-2" d="M322.4,128a2.13,2.13,0,0,1,1.87-1c2.91,0,2.94,3.66,2.94,5.77,0,2.49-.08,6.21-2.78,6.21a2.47,2.47,0,0,1-2-1.11v5.62H321V127.2h1.48Zm1.53.21c-1.53,0-1.67,2.44-1.67,4.75,0,1,0,3.75.74,4.48a1.22,1.22,0,0,0,1,.39c1.37,0,1.53-1.67,1.64-2.68a23.15,23.15,0,0,0,.07-2.73C325.67,131.26,325.65,128.22,323.93,128.22Z" transform="translate(0 0)"/>
  <path class="cls-2" d="M329.4,138.85V119.9h1.51v18.95Z" transform="translate(0 0)"/>
  <path class="cls-2" d="M339.5,134.9c-.08,1.87-.66,4.13-3,4.13-3,0-3.44-3.72-3.44-5.95s.45-6,3.34-6,3.2,3.51,3.2,5.56v.73h-5v.26c0,1.17.19,4.05,1.88,4.05,1.32,0,1.51-1.76,1.53-2.75Zm-1.38-2.81c0-1-.18-3.69-1.69-3.69s-1.77,2.62-1.82,3.69Z" transform="translate(0 0)"/>
  <path class="cls-2" d="M35.66,170.05v-1.33a2.55,2.55,0,0,1-2.2,1.57c-2.72,0-3.2-4.11-3.2-6.09s.4-6,3.18-6a2.47,2.47,0,0,1,2.22,1.64V151.1H39v19Zm-.9-8.92c-1.08,0-1.16,2.39-1.16,3.12s.08,3.12,1.19,3.12,1.11-2.42,1.11-3.12S35.82,161.13,34.76,161.13Z" transform="translate(0 0)"/>
  <path class="cls-2" d="M42.8,156.69a2.06,2.06,0,1,1,2.09-2.06,2.06,2.06,0,0,1-2.09,2.06Zm-1.67,13.36V158.43h3.31v11.62Z" transform="translate(0 0)"/>
  <path class="cls-2" d="M52.05,161.57a2.27,2.27,0,0,0-1.56-.78.8.8,0,0,0-.84.76v.08c0,1.4,3.7,1.11,3.7,4.63a3.68,3.68,0,0,1-3.73,4,5.77,5.77,0,0,1-3.6-1.33l1.46-2.32a2.51,2.51,0,0,0,1.61.73,1,1,0,0,0,1.06-.94v-.06c0-1.46-3.86-1.25-3.86-4.76,0-2.23,1.82-3.43,3.94-3.43a5,5,0,0,1,3.14,1Z" transform="translate(0 0)"/>
  <path class="cls-2" d="M60.7,169.87a4.23,4.23,0,0,1-1.88.42c-3.17,0-4.31-3.28-4.31-5.91,0-2.83,1.08-6.19,4.52-6.19a4.19,4.19,0,0,1,1.67.34v2.86a1.29,1.29,0,0,0-.93-.39c-1.58,0-1.93,1.95-1.93,3.15s.27,3.09,1.88,3.09a1.72,1.72,0,0,0,1-.34Z" transform="translate(0 0)"/>
  <path class="cls-2" d="M68.31,161.16h-.47c-2,0-2.25,1.09-2.25,2.78v6.16H62.28V158.43h3.31v1.43A3.63,3.63,0,0,1,68.31,158Z" transform="translate(0 0)"/>
  <path class="cls-2" d="M71.35,156.69a2.06,2.06,0,1,1,2.09-2.06,2.06,2.06,0,0,1-2.09,2.06Zm-1.66,13.36V158.43H73v11.62Z" transform="translate(0 0)"/>
  <path class="cls-2" d="M85.08,170.05v-7c0-.54-.06-1.64-.85-1.64-1,0-.85,1.38-.85,2V170h-3.3v-7.2c0-.52,0-1.35-.77-1.35-.92,0-.92,1.11-.92,1.77V170H75.08V158.43h3.31v1.87a3.41,3.41,0,0,1,2.93-2.08c1.27,0,1.8.88,2.06,2a3.43,3.43,0,0,1,2.81-2c1.9,0,2.19,1.69,2.19,3.2v8.63Z" transform="translate(0 0)"/>
  <path class="cls-2" d="M92.19,156.69a2.06,2.06,0,1,1,2.09-2.06,2.06,2.06,0,0,1-2.09,2.06ZM90.5,170.05V158.43h3.31v11.62Z" transform="translate(0 0)"/>
  <path class="cls-2" d="M100.91,170.05v-7.12c0-.52,0-1.46-.79-1.46-1,0-.9,1.2-.9,1.85v6.73H95.91V158.43h3.31v1.82a3.17,3.17,0,0,1,2.8-2c2,0,2.2,1.87,2.2,3.43v8.4Z" transform="translate(0 0)"/>
  <path class="cls-2" d="M111.38,170.05v-1.33a2.54,2.54,0,0,1-2.19,1.57c-2.73,0-3.2-4.11-3.2-6.09s.39-6,3.17-6a2.47,2.47,0,0,1,2.22,1.64v-1.43h3.31V170Zm-.9-8.92c-1.08,0-1.16,2.39-1.16,3.12s.08,3.12,1.19,3.12,1.11-2.42,1.11-3.12-.12-3.12-1.12-3.12Z" transform="translate(0 0)"/>
  <path class="cls-2" d="M120.42,161.13v8.92h-3.3v-8.92H116v-2.7h1.14v-3.3h3.3v3.3h1.35v2.7Z" transform="translate(0 0)"/>
  <path class="cls-2" d="M124.6,156.69a2.06,2.06,0,1,1,2.09-2.06,2.06,2.06,0,0,1-2.09,2.06Zm-1.66,13.36V158.43h3.3v11.62Z" transform="translate(0 0)"/>
  <path class="cls-2" d="M132.5,170.29c-3.38,0-4.49-3.23-4.49-6s1.11-6,4.49-6,4.44,3.15,4.44,6S136,170.29,132.5,170.29Zm0-9.16c-1.08,0-1.16,2.37-1.16,3.12s.08,3.12,1.16,3.12,1.11-2.42,1.11-3.12-.11-3.12-1.11-3.12Z" transform="translate(0 0)"/>
  <path class="cls-2" d="M143.69,170.05v-7.12c0-.52,0-1.46-.79-1.46-1,0-.9,1.2-.9,1.85v6.73h-3.31V158.43H142v1.82a3.17,3.17,0,0,1,2.8-2c2,0,2.2,1.87,2.2,3.43v8.4Z" transform="translate(0 0)"/>
  <path class="cls-2" d="M160,170.05v-.94a2.3,2.3,0,0,1-2,1.12c-2.7,0-2.77-3.71-2.77-5.77,0-2.36.07-6.21,2.9-6.21a2.19,2.19,0,0,1,1.88,1v-.78h1.46v11.62Zm-1.53-10.63c-1.71,0-1.74,3-1.74,4.13s0,1.87.08,2.81.26,2.68,1.64,2.68a1.18,1.18,0,0,0,1-.39c.74-.73.74-3.46.74-4.47C160.19,161.86,160.06,159.42,158.5,159.42Z" transform="translate(0 0)"/>
  <path class="cls-2" d="M168.78,170.05V161.6c0-.94,0-2.16-1.32-2.16a1.69,1.69,0,0,0-1.4.76,3.48,3.48,0,0,0-.4,2V170h-1.48v-11.6h1.48v.93a3.1,3.1,0,0,1,2.3-1.11c2,0,2.3,1.61,2.3,3.19v8.61Z" transform="translate(0 0)"/>
  <path class="cls-2" d="M177.27,170.05v-.94a2.37,2.37,0,0,1-2,1.12c-2.72,0-2.77-3.87-2.77-5.9,0-2.26,0-6.08,2.93-6.08a2.19,2.19,0,0,1,1.88,1V151.1h1.48v19Zm-1.53-10.63c-1.7,0-1.72,3-1.72,4.13s0,1.87.08,2.81.23,2.68,1.61,2.68a1.26,1.26,0,0,0,1-.39c.71-.71.71-3.43.71-4.4C177.4,161.81,177.27,159.42,175.74,159.42Z" transform="translate(0 0)"/>
  <path class="cls-2" d="M193.5,166.1c-.08,1.87-.66,4.13-3,4.13-3,0-3.43-3.71-3.43-5.95s.44-6,3.33-6,3.2,3.51,3.2,5.56v.73h-5v.26c0,1.17.19,4,1.88,4,1.32,0,1.51-1.76,1.53-2.75Zm-1.37-2.81c-.06-1-.19-3.69-1.7-3.69s-1.77,2.62-1.82,3.69Z" transform="translate(0 0)"/>
  <path class="cls-2" d="M197.76,159.78v10.27h-1.48V159.78h-1.35v-1.35h1.35v-4.66c0-1.48.4-3,2.19-3a3.54,3.54,0,0,1,1.33.26v1.61a1.75,1.75,0,0,0-1.09-.52c-.87,0-1,.78-1,1.43v4.84h2v1.35Z" transform="translate(0 0)"/>
  <path class="cls-2" d="M203.15,159.78v10.27h-1.48V159.78h-1.35v-1.35h1.35v-4.66c0-1.48.4-3,2.2-3a3.34,3.34,0,0,1,1.32.26v1.61a1.78,1.78,0,0,0-1.08-.52c-.88,0-1,.78-1,1.43v4.84h2v1.35Zm3.89-3.93a1.09,1.09,0,1,1,1.08-1.1v0a1.07,1.07,0,0,1-1.08,1.06Zm-.77,14.2V158.43h1.51v11.62Z" transform="translate(0 0)"/>
  <path class="cls-2" d="M215.13,169.64a2.89,2.89,0,0,1-1.69.59c-2.78,0-3.41-3.71-3.41-5.8s.47-6.18,3.49-6.18a3.14,3.14,0,0,1,1.61.44v1.71a2.11,2.11,0,0,0-1.48-.8c-1.88,0-2.06,3.41-2.06,4.71s.24,4.54,2,4.54a2,2,0,0,0,1.51-1Z" transform="translate(0 0)"/>
  <path class="cls-2" d="M217.72,155.85a1.09,1.09,0,0,1,0-2.18h0a1.11,1.11,0,0,1,1.09,1.12A1.08,1.08,0,0,1,217.72,155.85Zm-.76,14.2V158.43h1.54v11.62Z" transform="translate(0 0)"/>
  <path class="cls-2" d="M227.06,166.1c-.08,1.87-.66,4.13-3,4.13-3,0-3.44-3.71-3.44-5.95s.45-6,3.33-6,3.2,3.51,3.2,5.56v.73h-5v.26c0,1.17.18,4,1.88,4,1.32,0,1.5-1.76,1.53-2.75Zm-1.38-2.81c-.05-1-.18-3.69-1.69-3.69s-1.77,2.62-1.83,3.69Z" transform="translate(0 0)"/>
  <path class="cls-2" d="M234,170.05V161.6c0-.94,0-2.16-1.33-2.16a1.69,1.69,0,0,0-1.4.76,3.55,3.55,0,0,0-.39,2V170h-1.48v-11.6h1.48v.93a3.1,3.1,0,0,1,2.3-1.11c2,0,2.3,1.61,2.3,3.19v8.61Z" transform="translate(0 0)"/>
  <path class="cls-2" d="M242.73,169.64a2.89,2.89,0,0,1-1.69.59c-2.78,0-3.41-3.71-3.41-5.8s.48-6.18,3.49-6.18a3.14,3.14,0,0,1,1.61.44v1.71a2.11,2.11,0,0,0-1.48-.8c-1.87,0-2.06,3.41-2.06,4.71s.24,4.54,2,4.54a2,2,0,0,0,1.5-1Z" transform="translate(0 0)"/>
  <path class="cls-2" d="M246.94,174.73h-1.59l1.32-5-2.8-11.31h1.51l1.48,6.45a26.17,26.17,0,0,1,.55,2.91c.11-.73.29-1.43.48-2.19l1.72-7.17h1.56Z" transform="translate(0 0)"/>
  <path class="cls-2" d="M253,170.23a1.2,1.2,0,0,1-1.19-1.17,1.19,1.19,0,1,1,1.21,1.17Z" transform="translate(0 0)"/>
  <path class="cls-2" d="M36.66,201.25v-8.94h-4v8.94H31V183.91h1.64v6.91h4v-6.91H38.3v17.34Z" transform="translate(0 0)"/>
  <path class="cls-2" d="M44.07,201.43c-3,0-3.47-3.74-3.47-6s.43-6,3.47-6,3.3,3.82,3.3,6.06S47.11,201.43,44.07,201.43Zm0-10.63c-1.82,0-1.88,3.54-1.88,4.76s.08,4.5,1.88,4.5,1.8-3.46,1.8-4.63-.08-4.63-1.83-4.63Z" transform="translate(0 0)"/>
  <path class="cls-2" d="M52.61,201.25H51L48.3,189.63h1.53l1.56,6.94c.18.83.32,1.66.42,2.5.14-.81.27-1.64.43-2.45l1.45-7h1.53Z" transform="translate(0 0)"/>
  <path class="cls-2" d="M62.5,197.3c-.08,1.87-.66,4.13-3,4.13-3,0-3.43-3.71-3.43-6s.45-6,3.33-6,3.2,3.51,3.2,5.56v.73h-5V196c0,1.17.19,4.06,1.88,4.06,1.32,0,1.51-1.77,1.53-2.76Zm-1.35-2.8c-.06-1-.19-3.69-1.7-3.69s-1.77,2.63-1.82,3.69Z" transform="translate(0 0)"/>
  <path class="cls-2" d="M68.31,191.14c-2,0-2,1.56-2,3.07v7H64.83V189.63h1.48v1.51a2.43,2.43,0,0,1,2-1.69Z" transform="translate(0 0)"/>
  <path class="cls-2" d="M79.15,201.43c-3,0-3.46-3.74-3.46-6s.42-6,3.46-6,3.35,3.84,3.35,6.07S82.19,201.43,79.15,201.43Zm0-10.63c-1.82,0-1.87,3.54-1.87,4.76s.08,4.5,1.87,4.5,1.8-3.46,1.8-4.63-.08-4.63-1.83-4.63Z" transform="translate(0 0)"/>
  <path class="cls-2" d="M87.69,201.25H86.08l-2.7-11.62h1.54l1.56,6.94c.18.83.31,1.67.42,2.5.13-.81.26-1.64.42-2.45l1.46-7h1.53Z" transform="translate(0 0)"/>
  <path class="cls-2" d="M97.61,197.3c-.08,1.87-.66,4.13-3,4.13-3,0-3.44-3.71-3.44-6s.45-6,3.33-6,3.2,3.51,3.2,5.56v.73h-5V196c0,1.17.18,4.06,1.88,4.06,1.32,0,1.5-1.77,1.53-2.76Zm-1.38-2.8c0-1-.18-3.69-1.69-3.69s-1.77,2.63-1.82,3.69Z" transform="translate(0 0)"/>
  <path class="cls-2" d="M103.4,191.14c-2,0-2,1.56-2,3.07v7H99.92V189.63h1.48v1.51a2.41,2.41,0,0,1,2-1.69Z" transform="translate(0 0)"/>
  <path class="cls-2" d="M113.15,191v10.27h-1.48V191H110.4v-1.35h1.27v-3.3h1.48v3.3h2V191Z" transform="translate(0 0)"/>
  <path class="cls-2" d="M121.08,201.25V192.8c0-.94,0-2.16-1.32-2.16a1.69,1.69,0,0,0-1.4.76,3.64,3.64,0,0,0-.4,2v7.82H116.5V182.3H118v8.26a3.18,3.18,0,0,1,2.31-1.11c1.93,0,2.3,1.35,2.3,3v8.81Z" transform="translate(0 0)"/>
  <path class="cls-2" d="M130.9,197.3c-.08,1.87-.67,4.13-3,4.13-3,0-3.44-3.71-3.44-6s.45-6,3.33-6,3.2,3.51,3.2,5.56v.73h-5V196c0,1.17.18,4.06,1.87,4.06,1.33,0,1.51-1.77,1.54-2.76Zm-1.4-2.8c-.05-1-.19-3.69-1.69-3.69S126,193.44,126,194.5Z" transform="translate(0 0)"/>
  <path class="cls-2" d="M143.85,201.25v-.93a2.34,2.34,0,0,1-2,1.11c-2.7,0-2.78-3.71-2.78-5.77,0-2.36.08-6.21,2.91-6.21a2.19,2.19,0,0,1,1.88,1v-.78h1.51v11.62Zm-1.51-10.63c-1.72,0-1.74,3-1.74,4.13s0,1.87.08,2.81.26,2.68,1.64,2.68a1.21,1.21,0,0,0,1-.39c.74-.73.74-3.46.74-4.47-.05-2.32-.18-4.76-1.72-4.76Z" transform="translate(0 0)"/>
  <path class="cls-2" d="M151.5,191.14c-2,0-2,1.56-2,3.07v7H148V189.63h1.5v1.51a2.43,2.43,0,0,1,2-1.69Z" transform="translate(0 0)"/>
  <path class="cls-2" d="M159,197.3c-.08,1.87-.66,4.13-3,4.13-3.05,0-3.44-3.71-3.44-6s.45-6,3.33-6,3.2,3.51,3.2,5.56v.73h-5V196c0,1.17.19,4.06,1.88,4.06,1.32,0,1.51-1.77,1.54-2.76Zm-1.37-2.8c-.06-1-.19-3.69-1.69-3.69s-1.78,2.63-1.83,3.69Z" transform="translate(0 0)"/>
  <path class="cls-2" d="M165.77,201.25v-.93a2.36,2.36,0,0,1-2,1.11c-2.7,0-2.78-3.71-2.78-5.77,0-2.36.08-6.21,2.91-6.21a2.19,2.19,0,0,1,1.88,1v-.78h1.51v11.62Zm-1.51-10.63c-1.72,0-1.74,3-1.74,4.13s0,1.87.07,2.81.27,2.68,1.64,2.68a1.22,1.22,0,0,0,1-.39c.74-.73.74-3.46.74-4.47,0-2.32-.18-4.76-1.71-4.76Z" transform="translate(0 0)"/>
  <path class="cls-2" d="M183.4,187.84a4,4,0,0,0-2.51-1.12,1.62,1.62,0,0,0-1.74,1.49v.2c0,3,5.29,2.94,5.29,7.77,0,3-1.83,5.36-5,5.36a5.49,5.49,0,0,1-3-.89v-3.27a4.66,4.66,0,0,0,2.59.93,1.88,1.88,0,0,0,2.05-1.69,1.77,1.77,0,0,0,0-.23,1.93,1.93,0,0,0-.18-.88,5.64,5.64,0,0,0-1.88-1.62c-2-1.35-3.25-2.6-3.25-5.12,0-2.73,1.61-5.12,4.6-5.12a5.88,5.88,0,0,1,3.09.83Z" transform="translate(0 0)"/>
  <path class="cls-2" d="M194.43,197.5a3.59,3.59,0,0,1-.56,2.21,4.35,4.35,0,0,1-3.62,1.8,4.26,4.26,0,0,1-3.62-1.82,3.5,3.5,0,0,1-.48-2v-8h3.35v7.15c0,.57,0,1.69.82,1.69,1,0,.82-1.56.82-2.18v-6.66h3.33Z" transform="translate(0 0)"/>
  <path class="cls-2" d="M199.85,191.06a2.47,2.47,0,0,1,2.22-1.64c2.78,0,3.17,4,3.17,6s-.47,6.09-3.2,6.09a2.53,2.53,0,0,1-2.19-1.56v1.32H196.5v-19h3.31Zm.87,1.27c-1,0-1.11,2.42-1.11,3.12s.08,3.12,1.14,3.12,1.16-2.39,1.16-3.12S201.83,192.33,200.72,192.33Z" transform="translate(0 0)"/>
  <path class="cls-2" d="M208.73,187.89a2.06,2.06,0,1,1,2.09-2.06,2.06,2.06,0,0,1-2.09,2.06Zm-1.66,18.72v-17h3.3v17Z" transform="translate(0 0)"/>
  <path class="cls-2" d="M220.37,197.25a5.24,5.24,0,0,1-1.27,3.33,3.38,3.38,0,0,1-2.6.92,3.7,3.7,0,0,1-2.83-1,6.41,6.41,0,0,1-1.61-4.71,7.46,7.46,0,0,1,1.72-5.25,3.69,3.69,0,0,1,2.7-1.07,3.49,3.49,0,0,1,2.53.94,6.38,6.38,0,0,1,1.54,4.52,8.74,8.74,0,0,1-.08,1.14h-5.24v.66a3.41,3.41,0,0,0,.47,2,.91.91,0,0,0,.69.31,1,1,0,0,0,.66-.21,2.7,2.7,0,0,0,.5-1.58ZM217.7,194a2.9,2.9,0,0,0-.53-1.89,1,1,0,0,0-.61-.24,1,1,0,0,0-.74.31,3.1,3.1,0,0,0-.5,1.82Z" transform="translate(0 0)"/>
  <path class="cls-2" d="M228.17,201.07a4.37,4.37,0,0,1-1.88.42c-3.18,0-4.31-3.28-4.31-5.91,0-2.83,1.08-6.19,4.52-6.19a4.19,4.19,0,0,1,1.67.34v2.86a1.29,1.29,0,0,0-.93-.39c-1.59,0-1.93,2-1.93,3.15s.26,3.09,1.88,3.09a1.72,1.72,0,0,0,1-.34Z" transform="translate(0 0)"/>
  <path class="cls-2" d="M233.93,192.33v8.92h-3.31v-8.92H229.5v-2.7h1.13v-3.3h3.31v3.3h1.35v2.7Z" transform="translate(0 0)"/>
  <path class="cls-2" d="M238.11,187.89a2.06,2.06,0,1,1,2.09-2.06,2.06,2.06,0,0,1-2.09,2.06Zm-1.67,13.36V189.63h3.31v11.62Z" transform="translate(0 0)"/>
  <path class="cls-2" d="M247.12,201.25h-3l-3.38-11.62H244c.55,2.18,1.16,4.37,1.61,6.58.08-.5.24-1,.35-1.43l1.21-5.15h3.44Z" transform="translate(0 0)"/>
  <path class="cls-2" d="M259.15,197.25a5.24,5.24,0,0,1-1.27,3.33,3.37,3.37,0,0,1-2.56.91,3.7,3.7,0,0,1-2.83-1,6.41,6.41,0,0,1-1.61-4.71,7.44,7.44,0,0,1,1.72-5.28,3.65,3.65,0,0,1,2.69-1.07,3.51,3.51,0,0,1,2.54.94,6.42,6.42,0,0,1,1.54,4.52,8.74,8.74,0,0,1-.08,1.14h-5.24a3.64,3.64,0,0,0,0,.66,3.42,3.42,0,0,0,.48,2,.88.88,0,0,0,.69.31,1,1,0,0,0,.66-.21,2.77,2.77,0,0,0,.5-1.58ZM256.5,194a2.9,2.9,0,0,0-.53-1.89,1,1,0,0,0-1.34.07,3.18,3.18,0,0,0-.51,1.82Z" transform="translate(0 0)"/>
  <path class="cls-2" d="M271.82,183.91a5.48,5.48,0,0,1,3,.57,5.13,5.13,0,0,1,2.4,4.58c0,3.64-2.61,5.33-6.1,5.07v7.12h-3.49V183.91Zm-.53,7.33c1.59,0,2.43-.55,2.43-2.21,0-1.38-.47-2.34-2-2.34h-.6v4.55Z" transform="translate(0 0)"/>
  <path class="cls-2" d="M286.23,197.25a5.24,5.24,0,0,1-1.27,3.33,3.38,3.38,0,0,1-2.57.91,3.7,3.7,0,0,1-2.83-1,6.41,6.41,0,0,1-1.61-4.71,7.46,7.46,0,0,1,1.72-5.25,3.69,3.69,0,0,1,2.7-1.07,3.55,3.55,0,0,1,2.54.94,6.42,6.42,0,0,1,1.53,4.52,8.74,8.74,0,0,1-.08,1.14h-5.24v.66a3.41,3.41,0,0,0,.47,2,.91.91,0,0,0,.69.31,1,1,0,0,0,.66-.21,2.7,2.7,0,0,0,.5-1.58ZM283.56,194a2.9,2.9,0,0,0-.53-1.89,1,1,0,0,0-.61-.24,1.13,1.13,0,0,0-.74.31,3.17,3.17,0,0,0-.5,1.82Z" transform="translate(0 0)"/>
  <path class="cls-2" d="M294.21,192.36a2.42,2.42,0,0,0-.47-.05c-2,0-2.25,1.09-2.25,2.78v6.16h-3.31V189.63h3.32v1.43a3.63,3.63,0,0,1,2.72-1.85Z" transform="translate(0 0)"/>
  <path class="cls-2" d="M301.32,201.07a4.42,4.42,0,0,1-1.82.43c-3.18,0-4.31-3.28-4.31-5.91,0-2.83,1.08-6.19,4.52-6.19a4.11,4.11,0,0,1,1.66.34v2.86a1.23,1.23,0,0,0-.92-.39c-1.59,0-1.93,2-1.93,3.15s.26,3.09,1.88,3.09a1.65,1.65,0,0,0,1-.34Z" transform="translate(0 0)"/>
  <path class="cls-2" d="M310.82,197.25a5.24,5.24,0,0,1-1.27,3.33,3.38,3.38,0,0,1-2.57.91,3.7,3.7,0,0,1-2.83-1,6.41,6.41,0,0,1-1.61-4.71,7.46,7.46,0,0,1,1.72-5.25,3.69,3.69,0,0,1,2.7-1.07,3.55,3.55,0,0,1,2.54.94,6.42,6.42,0,0,1,1.53,4.52,8.74,8.74,0,0,1-.08,1.14h-5.24v.66a3.41,3.41,0,0,0,.47,2,.91.91,0,0,0,.69.31,1,1,0,0,0,.66-.21,2.7,2.7,0,0,0,.5-1.58ZM308.15,194a2.9,2.9,0,0,0-.53-1.89,1,1,0,0,0-.61-.24,1,1,0,0,0-.74.31,3.1,3.1,0,0,0-.5,1.82Z" transform="translate(0 0)"/>
  <path class="cls-2" d="M316.08,191.06a2.45,2.45,0,0,1,2.22-1.64c2.78,0,3.17,4,3.17,6s-.47,6.09-3.2,6.09a2.51,2.51,0,0,1-2.19-1.56v6.68h-3.31v-17h3.31Zm.87,1.27c-1,0-1.11,2.42-1.11,3.12s.08,3.12,1.14,3.12,1.16-2.39,1.16-3.12-.08-3.12-1.19-3.12Z" transform="translate(0 0)"/>
  <path class="cls-2" d="M326.87,192.33v8.92h-3.31v-8.92h-1.14v-2.7h1.14v-3.3h3.31v3.3h1.34v2.7Z" transform="translate(0 0)"/>
  <path class="cls-2" d="M331,187.89a2.06,2.06,0,1,1,2.09-2.06,2.06,2.06,0,0,1-2.09,2.06Zm-1.66,13.36V189.63h3.3v11.62Z" transform="translate(0 0)"/>
  <path class="cls-2" d="M338.92,201.5c-3.38,0-4.49-3.23-4.49-6s1.11-6,4.49-6,4.44,3.15,4.44,6S342.41,201.5,338.92,201.5Zm0-9.16c-1.08,0-1.16,2.37-1.16,3.12s.08,3.12,1.16,3.12,1.11-2.41,1.11-3.12-.08-3.13-1.11-3.13Z" transform="translate(0 0)"/>
  <path class="cls-2" d="M350.13,201.25v-7.12c0-.52,0-1.46-.79-1.46-.95,0-.9,1.2-.9,1.85v6.73h-3.31V189.63h3.31v1.87a3.17,3.17,0,0,1,2.8-2c2,0,2.2,1.87,2.2,3.43v8.4Z" transform="translate(0 0)"/>
  <path class="cls-2" d="M34.42,218.31V222h3.2v3.3h-3.2v7.2H30.93V215.11h7v3.2Z" transform="translate(0 0)"/>
  <path class="cls-2" d="M44.73,232.5v-1.32a2.55,2.55,0,0,1-2.2,1.56c-2.72,0-3.2-4.11-3.2-6.09s.4-6,3.18-6a2.47,2.47,0,0,1,2.22,1.64v-1.43H48V232.5Zm-.9-8.92c-1.09,0-1.16,2.4-1.16,3.12s.07,3.12,1.19,3.12S45,227.4,45,226.7s-.08-3.2-1.14-3.2Z" transform="translate(0 0)"/>
  <path class="cls-2" d="M56,232.27a4.23,4.23,0,0,1-1.88.42c-3.17,0-4.31-3.28-4.31-5.91,0-2.83,1.09-6.18,4.53-6.18a4.1,4.1,0,0,1,1.66.33v2.86a1.23,1.23,0,0,0-.92-.39c-1.59,0-1.93,1.95-1.93,3.15s.26,3.09,1.87,3.09a1.71,1.71,0,0,0,1-.33Z" transform="translate(0 0)"/>
  <path class="cls-2" d="M59.3,219.09A2.06,2.06,0,1,1,61.38,217a2.06,2.06,0,0,1-2.08,2.06ZM57.63,232.5V220.83h3.31V232.5Z" transform="translate(0 0)"/>
  <path class="cls-2" d="M68.07,232.5v-1.32a2.51,2.51,0,0,1-2.19,1.56c-2.72,0-3.2-4.11-3.2-6.09s.4-6,3.17-6a2.45,2.45,0,0,1,2.22,1.64v-1.43h3.31V232.5Zm-.89-8.92c-1.09,0-1.17,2.4-1.17,3.12s.08,3.12,1.19,3.12,1.11-2.42,1.11-3.12-.08-3.2-1.13-3.2Z" transform="translate(0 0)"/>
  <path class="cls-2" d="M73.5,232.5v-19h3.31v19Z" transform="translate(0 0)"/>
  <path class="cls-2" d="M92,232.5l-3.1-8v8H85.39V215.11h3.78a6.94,6.94,0,0,1,3.84.83,5,5,0,0,1,2.09,4.21,4.77,4.77,0,0,1-2.52,4.42l3.07,7.88Zm-3.1-9.88h.58a2.14,2.14,0,0,0,2.26-2,1.7,1.7,0,0,0,0-.39c0-1.41-.63-2.37-2.17-2.37h-.66Z" transform="translate(0 0)"/>
  <path class="cls-2" d="M105.06,228.5a5.24,5.24,0,0,1-1.27,3.33,3.37,3.37,0,0,1-2.56.91,3.7,3.7,0,0,1-2.83-1A6.41,6.41,0,0,1,96.79,227a7.46,7.46,0,0,1,1.72-5.25,3.65,3.65,0,0,1,2.69-1.07,3.51,3.51,0,0,1,2.54.94,6.42,6.42,0,0,1,1.53,4.52,8.72,8.72,0,0,1-.07,1.14H100a3.64,3.64,0,0,0,0,.66,3.43,3.43,0,0,0,.48,2.05.88.88,0,0,0,.69.31,1,1,0,0,0,.66-.21,2.77,2.77,0,0,0,.5-1.58Zm-2.67-3.23a2.9,2.9,0,0,0-.53-1.89,1,1,0,0,0-1.34.07,3.18,3.18,0,0,0-.51,1.82Z" transform="translate(0 0)"/>
  <path class="cls-2" d="M112.86,232.27a4.16,4.16,0,0,1-1.87.42c-3.18,0-4.32-3.28-4.32-5.91,0-2.83,1.09-6.18,4.53-6.18a4.1,4.1,0,0,1,1.66.33v2.86a1.23,1.23,0,0,0-.92-.39c-1.59,0-1.93,1.95-1.93,3.15s.26,3.09,1.87,3.09a1.71,1.71,0,0,0,1-.33Z" transform="translate(0 0)"/>
  <path class="cls-2" d="M118.6,232.69c-3.38,0-4.5-3.23-4.5-6s1.12-6,4.5-6,4.44,3.15,4.44,6S122.09,232.69,118.6,232.69Zm0-9.16c-1.08,0-1.16,2.37-1.16,3.12s.08,3.12,1.16,3.12,1.11-2.42,1.11-3.12-.08-3.15-1.11-3.15Z" transform="translate(0 0)"/>
  <path class="cls-2" d="M133.3,233.18a5.37,5.37,0,0,1-.34,2.21,4.32,4.32,0,0,1-4.23,2.42c-2.83,0-3.94-1.64-4.16-4h2.93c.06.57.27,1.4,1.22,1.4,1.24,0,1.27-1.58,1.27-2.47V231c-.53.85-1.09,1.69-2.22,1.69-2.67,0-3.31-4-3.31-5.93s.4-6.14,3.18-6.14a2.68,2.68,0,0,1,2.35,1.61v-1.4h3.33ZM129,223.5c-1.11,0-1.19,2.34-1.19,3.1s.08,3.09,1.19,3.09,1.14-2.39,1.14-3.09S130,223.5,129,223.5Z" transform="translate(0 0)"/>
  <path class="cls-2" d="M140.41,232.5v-7.12c0-.52,0-1.46-.79-1.46-1,0-.9,1.2-.9,1.85v6.73h-3.3V220.83h3.3v1.82a3.17,3.17,0,0,1,2.8-2c2,0,2.2,1.87,2.2,3.43v8.42Z" transform="translate(0 0)"/>
  <path class="cls-2" d="M147.55,219.09a2.06,2.06,0,1,1,2.09-2.06,2.06,2.06,0,0,1-2.09,2.06Zm-1.67,13.41V220.83h3.31V232.5Z" transform="translate(0 0)"/>
  <path class="cls-2" d="M154.9,223.5v9h-3.3v-9h-1.1v-2.7h1.14v-3.3h3.3v3.3h1.35v2.7Z" transform="translate(0 0)"/>
  <path class="cls-2" d="M159.08,219.09a2.06,2.06,0,1,1,2.09-2.06,2.06,2.06,0,0,1-2.09,2.06Zm-1.67,13.41V220.83h3.31V232.5Z" transform="translate(0 0)"/>
  <path class="cls-2" d="M167,232.69c-3.39,0-4.5-3.23-4.5-6s1.11-6,4.5-6,4.44,3.15,4.44,6S170.5,232.69,167,232.69Zm0-9.16c-1.09,0-1.17,2.37-1.17,3.12s.08,3.12,1.17,3.12,1.11-2.42,1.11-3.12S168,223.5,167,223.5Z" transform="translate(0 0)"/>
  <path class="cls-2" d="M178.17,232.5v-7.12c0-.52,0-1.46-.79-1.46-1,0-.9,1.2-.9,1.85v6.73h-3.31V220.83h3.33v1.82a3.14,3.14,0,0,1,2.8-2c2,0,2.19,1.87,2.19,3.43v8.42Z" transform="translate(0 0)"/>
  <path class="cls-2" d="M194.91,218.28V232.5h-3.49V218.28h-2.73v-3.17h8.94v3.17Z" transform="translate(0 0)"/>
  <path class="cls-2" d="M206,228.5a5.24,5.24,0,0,1-1.27,3.33,3.38,3.38,0,0,1-2.57.91,3.7,3.7,0,0,1-2.83-1,6.41,6.41,0,0,1-1.61-4.71,7.46,7.46,0,0,1,1.72-5.25,3.69,3.69,0,0,1,2.7-1.07,3.55,3.55,0,0,1,2.54.94,6.42,6.42,0,0,1,1.53,4.52,8.74,8.74,0,0,1-.08,1.14h-5.24V228a3.42,3.42,0,0,0,.47,2.05.91.91,0,0,0,.69.31,1,1,0,0,0,.66-.21,2.71,2.71,0,0,0,.51-1.58Zm-2.67-3.23a2.9,2.9,0,0,0-.53-1.89,1,1,0,0,0-.61-.24,1.13,1.13,0,0,0-.74.31,3.17,3.17,0,0,0-.5,1.82Z" transform="translate(0 0)"/>
  <path class="cls-2" d="M213.76,232.27a4.23,4.23,0,0,1-1.88.42c-3.17,0-4.31-3.28-4.31-5.91,0-2.83,1.08-6.18,4.52-6.18a4,4,0,0,1,1.67.33v2.86a1.29,1.29,0,0,0-.93-.39c-1.58,0-1.93,1.95-1.93,3.15s.27,3.09,1.88,3.09a1.78,1.78,0,0,0,1-.33Z" transform="translate(0 0)"/>
  <path class="cls-2" d="M220.34,232.5v-7.12c0-.52,0-1.46-.79-1.46-1,0-.9,1.2-.9,1.85v6.73h-3.31v-19h3.31v9.15a3.17,3.17,0,0,1,2.8-2c2,0,2.2,1.87,2.2,3.43v8.42Z" transform="translate(0 0)"/>
  <path class="cls-2" d="M230.76,232.5v-7.12c0-.52,0-1.46-.8-1.46-1,0-.89,1.2-.89,1.85v6.73h-3.31V220.83h3.31v1.82a3.14,3.14,0,0,1,2.8-2c2,0,2.19,1.87,2.19,3.43v8.42Z" transform="translate(0 0)"/>
  <path class="cls-2" d="M240.33,232.69c-3.39,0-4.5-3.23-4.5-6s1.11-6,4.5-6,4.44,3.15,4.44,6S243.82,232.69,240.33,232.69Zm0-9.16c-1.08,0-1.16,2.37-1.16,3.12s.08,3.12,1.16,3.12,1.11-2.42,1.11-3.12-.08-3.15-1.11-3.15Z" transform="translate(0 0)"/>
  <path class="cls-2" d="M246.5,232.5v-19h3.31v19Z" transform="translate(0 0)"/>
  <path class="cls-2" d="M256.11,232.69c-3.38,0-4.49-3.23-4.49-6s1.11-6,4.49-6,4.45,3.15,4.45,6S259.6,232.69,256.11,232.69Zm0-9.16c-1.08,0-1.16,2.37-1.16,3.12s.08,3.12,1.16,3.12,1.11-2.42,1.11-3.12-.08-3.15-1.11-3.15Z" transform="translate(0 0)"/>
  <path class="cls-2" d="M270.81,233.18a5.21,5.21,0,0,1-.34,2.21,4.3,4.3,0,0,1-4.23,2.42c-2.83,0-3.94-1.64-4.15-4H265c.05.57.26,1.4,1.21,1.4,1.25,0,1.27-1.58,1.27-2.47V231c-.53.85-1.08,1.69-2.22,1.69-2.67,0-3.3-4-3.3-5.93s.39-6.14,3.17-6.14a2.68,2.68,0,0,1,2.35,1.61v-1.4h3.33Zm-4.31-9.68c-1.11,0-1.19,2.34-1.19,3.1s.08,3.09,1.19,3.09,1.14-2.39,1.14-3.09S267.5,223.5,266.5,223.5Z" transform="translate(0 0)"/>
  <path class="cls-2" d="M274.65,219.09a2.06,2.06,0,1,1,2.09-2.06,2.06,2.06,0,0,1-2.09,2.06ZM273,232.5V220.83h3.31V232.5Z" transform="translate(0 0)"/>
  <path class="cls-2" d="M286.28,228.5a5.24,5.24,0,0,1-1.27,3.33,3.37,3.37,0,0,1-2.56.91,3.7,3.7,0,0,1-2.83-1A6.42,6.42,0,0,1,278,227a7.48,7.48,0,0,1,1.72-5.25,3.69,3.69,0,0,1,2.7-1.07,3.55,3.55,0,0,1,2.54.94,6.42,6.42,0,0,1,1.53,4.52,7.28,7.28,0,0,1-.08,1.14h-5.23a3.64,3.64,0,0,0,0,.66,3.43,3.43,0,0,0,.48,2.05.88.88,0,0,0,.69.31,1,1,0,0,0,.66-.21,2.76,2.76,0,0,0,.49-1.62Zm-2.67-3.23a2.9,2.9,0,0,0-.53-1.89,1,1,0,0,0-.61-.24,1.13,1.13,0,0,0-.74.31,3.17,3.17,0,0,0-.5,1.82Z" transform="translate(0 0)"/>
  <path class="cls-2" d="M293.76,224a2.27,2.27,0,0,0-1.56-.78.8.8,0,0,0-.84.76V224c0,1.4,3.7,1.11,3.7,4.63a3.68,3.68,0,0,1-3.73,4,5.76,5.76,0,0,1-3.59-1.33l1.45-2.31a2.65,2.65,0,0,0,1.61.72,1,1,0,0,0,1.06-.94v-.06c0-1.46-3.86-1.25-3.86-4.76,0-2.23,1.82-3.43,3.94-3.43a5,5,0,0,1,3.15,1Z" transform="translate(0 0)"/>
  <path class="cls-2" d="M304.92,222.18V232.5h-1.48V222.18h-1.27v-1.35h1.27V217.5h1.48v3.3h2v1.35Z" transform="translate(0 0)"/>
  <path class="cls-2" d="M311.24,232.63c-3,0-3.46-3.74-3.46-6s.42-6,3.46-6,3.31,3.82,3.31,6.06S314.28,232.63,311.24,232.63Zm0-10.63c-1.82,0-1.87,3.54-1.87,4.76s.08,4.5,1.87,4.5,1.8-3.46,1.8-4.63S313,222,311.21,222Z" transform="translate(0 0)"/>
  <path class="cls-2" d="M329,233.73c0,2.1-.82,3.4-3.09,3.4-2.06,0-3.07-1.27-3.07-3.22a1.62,1.62,0,0,1,0-.44h1.51c0,1.17.13,2.28,1.61,2.28s1.51-1.14,1.51-2.25v-1.87a2.35,2.35,0,0,1-1.88.83c-3,0-3-4-3-6.06,0-2,.22-5.74,2.94-5.74a2.33,2.33,0,0,1,2,1v-.81h1.5Zm-3.14-11.89c-1.59,0-1.72,2.68-1.72,5.1,0,1.25,0,4.32,1.85,4.32,1.32,0,1.51-1.54,1.59-2.5s.08-1.87.08-2.81c0-1.22,0-4.11-1.8-4.11Z" transform="translate(0 0)"/>
  <path class="cls-2" d="M337.6,228.5c-.08,1.87-.66,4.13-3,4.13-3,0-3.43-3.71-3.43-5.95s.44-6,3.33-6,3.2,3.51,3.2,5.56V227h-5v.26c0,1.17.19,4.06,1.88,4.06,1.32,0,1.51-1.77,1.53-2.76Zm-1.37-2.81c-.06-1-.19-3.69-1.7-3.69s-1.77,2.63-1.82,3.69Z" transform="translate(0 0)"/>
  <path class="cls-2" d="M341.83,222.18V232.5h-1.48V222.18h-1.27v-1.35h1.27V217.5h1.48v3.3h2v1.35Z" transform="translate(0 0)"/>
  <path class="cls-2" d="M362.11,232.5h-1.48v-8.6c0-1-.16-2-1.38-2-1.71,0-1.79,1.9-1.79,3.18v7.42H356v-8.58c0-.86-.08-2-1.24-2-1.85,0-1.91,2.06-1.91,3.41v7.17h-1.48V220.83h1.48v1a3.17,3.17,0,0,1,2.3-1.14,2.3,2.3,0,0,1,2.17,1.35,2.89,2.89,0,0,1,2.44-1.35c1.9,0,2.4,1.22,2.4,2.88Z" transform="translate(0 0)"/>
  <path class="cls-2" d="M367.77,232.63c-3,0-3.47-3.74-3.47-6s.43-6,3.47-6,3.3,3.82,3.3,6.06S370.81,232.63,367.77,232.63Zm0-10.63c-1.82,0-1.88,3.54-1.88,4.76s.08,4.5,1.88,4.5,1.8-3.46,1.8-4.63-.07-4.63-1.83-4.63Z" transform="translate(0 0)"/>
  <path class="cls-2" d="M376.78,222.34c-2,0-2,1.56-2,3.07v7H373.3V220.83h1.48v1.51a2.43,2.43,0,0,1,2-1.69Z" transform="translate(0 0)"/>
  <path class="cls-2" d="M384.27,228.5c-.08,1.87-.66,4.13-3,4.13-3,0-3.44-3.71-3.44-5.95s.45-6,3.33-6,3.2,3.51,3.2,5.56V227h-5v.26c0,1.17.18,4.06,1.88,4.06,1.32,0,1.5-1.77,1.53-2.76Zm-1.38-2.81c-.05-1-.18-3.69-1.69-3.69s-1.77,2.63-1.82,3.69Z" transform="translate(0 0)"/>
  <path class="cls-2" d="M31.61,249.5a1.1,1.1,0,1,1,1.09-1.11v0A1.1,1.1,0,0,1,31.61,249.5Zm-.76,14.19V252h1.5v11.62Z" transform="translate(0 0)"/>
  <path class="cls-2" d="M39.57,263.65V255.2c0-.93,0-2.16-1.32-2.16a1.65,1.65,0,0,0-1.4.76,3.48,3.48,0,0,0-.4,2v7.82H35V252H36.5V253a3.11,3.11,0,0,1,2.3-1.12c2,0,2.3,1.61,2.3,3.2v8.6Z" transform="translate(0 0)"/>
  <path class="cls-2" d="M45.63,253.38v10.27H44.15V253.38H42.8V252h1.35v-4.65c0-1.49.39-3,2.19-3a3.34,3.34,0,0,1,1.32.26v1.61a1.78,1.78,0,0,0-1.08-.52c-.87,0-1,.78-1,1.43V252h2v1.35Z" transform="translate(0 0)"/>
  <path class="cls-2" d="M52.05,263.83c-3,0-3.46-3.74-3.46-6s.42-6,3.46-6,3.31,3.82,3.31,6.06S55.09,263.83,52.05,263.83Zm0-10.63c-1.82,0-1.87,3.54-1.87,4.76s.08,4.5,1.87,4.5,1.8-3.46,1.8-4.63-.08-4.63-1.83-4.63Z" transform="translate(0 0)"/>
  <path class="cls-2" d="M61.07,253.5c-2,0-2,1.56-2,3.07v7H57.59V252h1.48v1.47a2.41,2.41,0,0,1,2-1.69Z" transform="translate(0 0)"/>
  <path class="cls-2" d="M73.5,263.65H72v-8.6c0-1-.15-2-1.37-2-1.72,0-1.8,1.9-1.8,3.18v7.43H67.33v-8.58c0-.86-.08-2-1.24-2-1.85,0-1.9,2.06-1.9,3.41v7.2H62.71V252h1.48v1a3.17,3.17,0,0,1,2.3-1.14,2.33,2.33,0,0,1,2.17,1.35,2.86,2.86,0,0,1,2.43-1.35c1.9,0,2.41,1.22,2.41,2.88Z" transform="translate(0 0)"/>
  <path class="cls-2" d="M80.63,263.65v-.93a2.34,2.34,0,0,1-2,1.11c-2.69,0-2.77-3.71-2.77-5.77,0-2.36.08-6.21,2.91-6.21a2.2,2.2,0,0,1,1.87,1v-.78h1.51v11.62ZM79.13,253c-1.72,0-1.75,3-1.75,4.13s0,1.87.08,2.81.26,2.68,1.64,2.68a1.18,1.18,0,0,0,1-.39c.74-.73.74-3.46.74-4.47C80.79,255.5,80.66,253,79.13,253Z" transform="translate(0 0)"/>
  <path class="cls-2" d="M86.71,253.38v10.27H85.23V253.38H84V252h1.27v-3.3h1.48V252h2v1.35Z" transform="translate(0 0)"/>
  <path class="cls-2" d="M90.79,249.5a1.1,1.1,0,1,1,1.08-1.12v.05A1.09,1.09,0,0,1,90.79,249.5ZM90,263.69V252H91.5v11.62Z" transform="translate(0 0)"/>
  <path class="cls-2" d="M97.16,263.83c-3,0-3.47-3.74-3.47-6s.43-6,3.47-6,3.3,3.82,3.3,6.06S100.2,263.83,97.16,263.83Zm0-10.63c-1.82,0-1.88,3.54-1.88,4.76s.08,4.5,1.88,4.5S99,259,99,257.83s-.08-4.63-1.83-4.63Z" transform="translate(0 0)"/>
  <path class="cls-2" d="M107.28,263.65V255.2c0-.93,0-2.16-1.32-2.16a1.69,1.69,0,0,0-1.4.76,3.48,3.48,0,0,0-.4,2v7.82h-1.48V252h1.48V253a3.15,3.15,0,0,1,2.3-1.12c2,0,2.31,1.61,2.31,3.2v8.6Z" transform="translate(0 0)"/>
  <path class="cls-2" d="M120.58,263.83c-3,0-3.46-3.74-3.46-6s.42-6,3.46-6,3.31,3.82,3.31,6.06S123.62,263.83,120.58,263.83Zm0-10.63c-1.83,0-1.88,3.54-1.88,4.76s.08,4.5,1.88,4.5,1.79-3.46,1.79-4.63-.07-4.63-1.81-4.63Z" transform="translate(0 0)"/>
  <path class="cls-2" d="M130.71,263.65V255.2c0-.93,0-2.16-1.32-2.16a1.65,1.65,0,0,0-1.4.76,3.48,3.48,0,0,0-.4,2v7.82h-1.48V252h1.48V253a3.08,3.08,0,0,1,2.3-1.12c2,0,2.3,1.61,2.3,3.2v8.6Z" transform="translate(0 0)"/>
  <path class="cls-2" d="M142.92,253.38v10.27h-1.48V253.38h-1.27V252h1.27v-3.3h1.48V252h2v1.35Z" transform="translate(0 0)"/>
  <path class="cls-2" d="M150.86,263.65V255.2c0-.93,0-2.16-1.33-2.16a1.69,1.69,0,0,0-1.4.76,3.65,3.65,0,0,0-.39,2v7.82h-1.49V244.7h1.49V253a3.08,3.08,0,0,1,2.3-1.12c1.93,0,2.3,1.35,2.3,3v8.81Z" transform="translate(0 0)"/>
  <path class="cls-2" d="M160.67,259.7c-.08,1.87-.67,4.13-3,4.13-3,0-3.44-3.71-3.44-5.95s.45-6,3.33-6,3.2,3.51,3.2,5.56v.73h-5v.26c0,1.17.18,4.06,1.87,4.06,1.33,0,1.51-1.77,1.54-2.76Zm-1.38-2.81c0-1-.18-3.69-1.69-3.69s-1.77,2.63-1.83,3.69Z" transform="translate(0 0)"/>
  <path class="cls-2" d="M171.06,253.38v10.27h-1.49V253.38h-1.34V252h1.34v-4.65c0-1.49.4-3,2.2-3a3.34,3.34,0,0,1,1.32.26v1.61a1.78,1.78,0,0,0-1.08-.52c-.88,0-.95.78-.95,1.43V252h2v1.35Z" transform="translate(0 0)"/>
  <path class="cls-2" d="M179,263.65v-.93a2.3,2.3,0,0,1-2,1.11c-2.69,0-2.77-3.71-2.77-5.77,0-2.36.08-6.21,2.91-6.21a2.18,2.18,0,0,1,1.87,1v-.78h1.48v11.62ZM177.5,253c-1.72,0-1.75,3-1.75,4.13s0,1.87.08,2.81.27,2.68,1.64,2.68a1.18,1.18,0,0,0,1-.39c.74-.73.74-3.46.74-4.47C179.17,255.5,179,253,177.5,253Z" transform="translate(0 0)"/>
  <path class="cls-2" d="M187.82,263.24a3,3,0,0,1-1.69.59c-2.78,0-3.41-3.71-3.41-5.79s.47-6.19,3.49-6.19a3.14,3.14,0,0,1,1.61.44V254a2.13,2.13,0,0,0-1.48-.81c-1.88,0-2.06,3.41-2.06,4.71s.23,4.55,2,4.55a2,2,0,0,0,1.51-1Z" transform="translate(0 0)"/>
  <path class="cls-2" d="M191.6,253.38v10.27h-1.48V253.38h-1.27V252h1.27v-3.3h1.48V252h2v1.35Z" transform="translate(0 0)"/>
  <path class="cls-2" d="M197.92,263.83c-3,0-3.46-3.74-3.46-6s.42-6,3.46-6,3.3,3.82,3.3,6.06S201,263.83,197.92,263.83Zm0-10.63c-1.82,0-1.88,3.54-1.88,4.76s.08,4.5,1.88,4.5,1.8-3.46,1.8-4.63-.08-4.63-1.83-4.63Z" transform="translate(0 0)"/>
  <path class="cls-2" d="M206.93,253.5c-2,0-2,1.56-2,3.07v7h-1.48V252h1.48v1.47a2.43,2.43,0,0,1,2-1.69Z" transform="translate(0 0)"/>
  <path class="cls-2" d="M213.07,254.4a2.8,2.8,0,0,0-2-1.2,1.45,1.45,0,0,0-1.45,1.47v.06c0,2.27,3.81,2.68,3.81,5.83a3.16,3.16,0,0,1-3.05,3.27h-.13a3.63,3.63,0,0,1-2.19-.8v-1.72a3,3,0,0,0,2.09,1.15,1.72,1.72,0,0,0,1.72-1.72v-.08c0-2.29-3.81-3.07-3.81-5.87a2.83,2.83,0,0,1,2.72-2.94H211a3.55,3.55,0,0,1,2.12.75Z" transform="translate(0 0)"/>
  <path class="cls-2" d="M222.82,252.81a2.21,2.21,0,0,1,1.91-1c2.88,0,2.91,3.69,2.91,5.77,0,2.5-.08,6.21-2.78,6.21a2.51,2.51,0,0,1-2-1.11v.93h-1.48V244.7h1.48Zm1.54.21c-1.54,0-1.67,2.44-1.67,4.76,0,1,0,3.74.74,4.47a1.21,1.21,0,0,0,.95.39c1.38,0,1.54-1.67,1.64-2.68a25.62,25.62,0,0,0,.08-2.73c0-1.17,0-4.21-1.74-4.21Z" transform="translate(0 0)"/>
  <path class="cls-2" d="M235.81,259.7c-.08,1.87-.66,4.13-3,4.13-3,0-3.44-3.71-3.44-5.95s.45-6,3.33-6,3.2,3.51,3.2,5.56v.73h-5v.26c0,1.17.18,4.06,1.88,4.06,1.32,0,1.5-1.77,1.53-2.76Zm-1.38-2.81c-.05-1-.18-3.69-1.69-3.69s-1.77,2.63-1.82,3.69Z" transform="translate(0 0)"/>
  <path class="cls-2" d="M242.71,263.65V255.2c0-.93,0-2.16-1.32-2.16a1.67,1.67,0,0,0-1.41.76,3.65,3.65,0,0,0-.39,2v7.82h-1.48V244.7h1.48V253a3.08,3.08,0,0,1,2.3-1.12c1.93,0,2.3,1.35,2.3,3v8.81Z" transform="translate(0 0)"/>
  <path class="cls-2" d="M247.57,249.5a1.1,1.1,0,1,1,1.09-1.11v0A1.1,1.1,0,0,1,247.57,249.5Zm-.77,14.19V252h1.51v11.62Z" transform="translate(0 0)"/>
  <path class="cls-2" d="M255.5,263.65V255.2c0-.93,0-2.16-1.32-2.16a1.65,1.65,0,0,0-1.4.76,3.48,3.48,0,0,0-.4,2v7.82H250.9V252h1.48V253a3.11,3.11,0,0,1,2.3-1.12c2,0,2.3,1.61,2.3,3.2v8.6Z" transform="translate(0 0)"/>
  <path class="cls-2" d="M264,263.65v-.93a2.36,2.36,0,0,1-2,1.11c-2.72,0-2.77-3.87-2.77-5.9,0-2.26,0-6.08,2.93-6.08a2.19,2.19,0,0,1,1.88,1V244.7h1.44v18.95ZM262.5,253c-1.69,0-1.72,3-1.72,4.13s0,1.87.08,2.81.24,2.68,1.62,2.68a1.3,1.3,0,0,0,1-.39c.71-.7.71-3.43.71-4.4C264.15,255.41,264,253,262.5,253Z" transform="translate(0 0)"/>
  <path class="cls-2" d="M269.15,263.83a1.2,1.2,0,0,1-1.19-1.17,1.19,1.19,0,1,1,1.21,1.17Z" transform="translate(0 0)"/>
</svg>
