<svg id="Ebene_1" data-name="Ebene 1" xmlns="http://www.w3.org/2000/svg" width="399.5" height="256.5" viewBox="0 0 399.5 256.5">
  <defs>
    <style>
      .cls-1 {
        fill: none;
        stroke: #c7f700;
        stroke-width: 8px;
      }

      .cls-2 {
        fill: #f6f6f6;
      }
    </style>
  </defs>
  <g id="Gruppe_432" data-name="Gruppe 432">
    <g id="Gruppe_430" data-name="Gruppe 430">
      <g id="Gruppe_93" data-name="Gruppe 93">
        <path id="Pfad_50-2" data-name="Pfad 50-2" class="cls-1" d="M395.5,89.09V4H316.07" transform="translate(0 0)"/>
        <path id="Pfad_51-2" data-name="Pfad 51-2" class="cls-1" d="M395.5,167.39V252.5H316.07" transform="translate(0 0)"/>
        <path id="Pfad_52-2" data-name="Pfad 52-2" class="cls-1" d="M4,89.09V4H83.39" transform="translate(0 0)"/>
        <path id="Pfad_53-2" data-name="Pfad 53-2" class="cls-1" d="M4,167.39V252.5H83.39" transform="translate(0 0)"/>
      </g>
    </g>
  </g>
  <path class="cls-2" d="M38.41,40.68a9.16,9.16,0,0,1-.24,2.39,3.69,3.69,0,0,1-6.93,0A8.23,8.23,0,0,1,31,40.65V27.91h1.64v13c0,1.46.19,3.05,2.07,3.05,2.3,0,2.06-2.42,2.06-4V28h1.64Z" transform="translate(0 0)"/>
  <path class="cls-2" d="M45.65,36a2.8,2.8,0,0,0-2-1.2,1.46,1.46,0,0,0-1.46,1.46v.07C42.19,38.6,46,39,46,42.16a3.16,3.16,0,0,1-3,3.27h-.12a3.68,3.68,0,0,1-2.2-.8V42.91a3,3,0,0,0,2.09,1.15,1.7,1.7,0,0,0,1.72-1.7v-.1c0-2.29-3.81-3.07-3.81-5.87a2.84,2.84,0,0,1,2.79-2.89h.08a3.5,3.5,0,0,1,2.11.75Z" transform="translate(0 0)"/>
  <path class="cls-2" d="M53.74,41.3c-.08,1.87-.66,4.13-3,4.13-3.05,0-3.44-3.71-3.44-6s.45-6,3.33-6,3.2,3.51,3.2,5.56v.73h-5V40c0,1.17.18,4.06,1.87,4.06,1.32,0,1.51-1.77,1.54-2.76Zm-1.37-2.8c0-1-.19-3.69-1.69-3.69s-1.78,2.63-1.83,3.69Z" transform="translate(0 0)"/>
  <path class="cls-2" d="M58,35V45.25H56.5V35H55.15V33.63H56.5V29c0-1.49.4-3,2.2-3a3.34,3.34,0,0,1,1.32.26v1.61a1.78,1.78,0,0,0-1.08-.52c-.88,0-1,.78-1,1.43V33.6h2V35Z" transform="translate(0 0)"/>
  <path class="cls-2" d="M67.57,42.42a3.07,3.07,0,0,1-6.13,0V33.63h1.48V41.5c0,1.19,0,2.55,1.64,2.55s1.53-1.56,1.53-2.71V33.63h1.48Z" transform="translate(0 0)"/>
  <path class="cls-2" d="M70.21,45.25v-19h1.51v19Z" transform="translate(0 0)"/>
  <path class="cls-2" d="M79,45.25V36.8c0-.93,0-2.16-1.33-2.16a1.69,1.69,0,0,0-1.4.76,3.57,3.57,0,0,0-.39,2v7.82H74.37V33.63h1.48v.94a3.08,3.08,0,0,1,2.3-1.12c2,0,2.3,1.61,2.3,3.2v8.6Z" transform="translate(0 0)"/>
  <path class="cls-2" d="M89.07,41.3c-.08,1.87-.66,4.13-3,4.13-3,0-3.44-3.71-3.44-6s.45-6,3.33-6,3.2,3.51,3.2,5.56v.73h-5V40c0,1.17.18,4.06,1.88,4.06,1.32,0,1.5-1.77,1.53-2.76Zm-1.38-2.8c0-1-.18-3.69-1.69-3.69s-1.77,2.63-1.83,3.69Z" transform="translate(0 0)"/>
  <path class="cls-2" d="M95.83,36a2.72,2.72,0,0,0-2-1.2,1.47,1.47,0,0,0-1.46,1.48v0c0,2.27,3.81,2.68,3.81,5.83a3.15,3.15,0,0,1-3,3.27H93a3.68,3.68,0,0,1-2.2-.8V42.91a3,3,0,0,0,2.09,1.15,1.7,1.7,0,0,0,1.72-1.7v-.1c0-2.29-3.81-3.07-3.81-5.87A2.84,2.84,0,0,1,93.6,33.5h.12a3.5,3.5,0,0,1,2.11.75Z" transform="translate(0 0)"/>
  <path class="cls-2" d="M102.42,36a2.8,2.8,0,0,0-2-1.2A1.45,1.45,0,0,0,99,36.27v.06c0,2.27,3.81,2.68,3.81,5.83a3.16,3.16,0,0,1-3,3.27H99.6a3.63,3.63,0,0,1-2.19-.8V42.91a3,3,0,0,0,2.09,1.15,1.72,1.72,0,0,0,1.72-1.72v-.08c0-2.29-3.81-3.07-3.81-5.87a2.83,2.83,0,0,1,2.77-2.89h.12a3.55,3.55,0,0,1,2.12.75Z" transform="translate(0 0)"/>
  <path class="cls-2" d="M111.43,31.06a1.1,1.1,0,1,1,1.07-1.13V30A1.08,1.08,0,0,1,111.43,31.06Zm-.76,14.19V33.63h1.5V45.25Z" transform="translate(0 0)"/>
  <path class="cls-2" d="M119.26,36a2.8,2.8,0,0,0-2-1.2,1.45,1.45,0,0,0-1.45,1.47v.06c0,2.27,3.81,2.68,3.81,5.83a3.16,3.16,0,0,1-3.05,3.27h-.13a3.63,3.63,0,0,1-2.19-.8V42.91a3,3,0,0,0,2.09,1.15,1.7,1.7,0,0,0,1.72-1.7v-.1c0-2.29-3.81-3.07-3.81-5.87A2.84,2.84,0,0,1,117,33.5h.1a3.55,3.55,0,0,1,2.12.75Z" transform="translate(0 0)"/>
  <path class="cls-2" d="M130.55,45.43c-3,0-3.46-3.74-3.46-6s.42-6,3.46-6,3.31,3.82,3.31,6.06S133.59,45.43,130.55,45.43Zm0-10.63c-1.82,0-1.87,3.54-1.87,4.76s.07,4.5,1.87,4.5,1.8-3.46,1.8-4.63-.08-4.63-1.85-4.63Z" transform="translate(0 0)"/>
  <path class="cls-2" d="M140.68,45.25V36.8c0-.93,0-2.16-1.33-2.16a1.69,1.69,0,0,0-1.4.76,3.57,3.57,0,0,0-.39,2v7.82h-1.48V33.63h1.48v.94a3.08,3.08,0,0,1,2.3-1.12c2,0,2.3,1.61,2.3,3.2v8.6Z" transform="translate(0 0)"/>
  <path class="cls-2" d="M150.78,41.3c-.08,1.87-.66,4.13-3,4.13-3,0-3.44-3.71-3.44-6s.45-6,3.33-6,3.2,3.51,3.2,5.56v.73h-5V40c0,1.17.18,4.06,1.88,4.06,1.32,0,1.5-1.77,1.53-2.76Zm-1.38-2.8c-.05-1-.18-3.69-1.69-3.69s-1.77,2.63-1.83,3.69Z" transform="translate(0 0)"/>
  <path class="cls-2" d="M162.25,45.43c-3,0-3.46-3.74-3.46-6s.42-6,3.46-6,3.31,3.82,3.31,6.06S165.29,45.43,162.25,45.43Zm0-10.63c-1.82,0-1.87,3.54-1.87,4.76s.08,4.5,1.87,4.5,1.8-3.46,1.8-4.63-.08-4.63-1.83-4.63Z" transform="translate(0 0)"/>
  <path class="cls-2" d="M169.71,35V45.25h-1.48V35h-1.35V33.63h1.35V29c0-1.49.39-3,2.19-3a3.34,3.34,0,0,1,1.32.26v1.61a1.73,1.73,0,0,0-1.08-.52c-.87,0-.95.78-.95,1.43V33.6h2V35Z" transform="translate(0 0)"/>
  <path class="cls-2" d="M181.26,35V45.25h-1.48V35H178.5V33.63h1.27v-3.3h1.48v3.3h2V35Z" transform="translate(0 0)"/>
  <path class="cls-2" d="M189.19,45.25V36.8c0-.93,0-2.16-1.32-2.16a1.69,1.69,0,0,0-1.4.76,3.64,3.64,0,0,0-.4,2v7.82h-1.48v-19h1.48v8.27a3.11,3.11,0,0,1,2.3-1.12c1.93,0,2.3,1.35,2.3,3v8.81Z" transform="translate(0 0)"/>
  <path class="cls-2" d="M196.81,35.14c-2,0-2,1.56-2,3.07v7h-1.48V33.63h1.48v1.51a2.41,2.41,0,0,1,2-1.69Z" transform="translate(0 0)"/>
  <path class="cls-2" d="M204.29,41.3c-.08,1.87-.66,4.13-3,4.13-3,0-3.44-3.71-3.44-6s.45-6,3.34-6,3.2,3.51,3.2,5.56v.73h-5V40c0,1.17.19,4.06,1.88,4.06,1.32,0,1.51-1.77,1.53-2.76Zm-1.38-2.8c0-1-.18-3.69-1.69-3.69s-1.72,2.62-1.82,3.69Z" transform="translate(0 0)"/>
  <path class="cls-2" d="M212.57,41.3c-.08,1.87-.67,4.13-3,4.13-3,0-3.44-3.71-3.44-6s.45-6,3.33-6,3.2,3.51,3.2,5.56v.73h-5V40c0,1.17.18,4.06,1.87,4.06,1.33,0,1.51-1.77,1.54-2.76Zm-1.38-2.8c-.05-1-.19-3.69-1.69-3.69s-1.77,2.63-1.83,3.69Z" transform="translate(0 0)"/>
  <path class="cls-2" d="M223,35V45.25H221.5V35h-1.35V33.63h1.35V29c0-1.49.4-3,2.2-3a3.34,3.34,0,0,1,1.32.26v1.61a1.78,1.78,0,0,0-1.08-.52c-.88,0-1,.78-1,1.43V33.6h2V35Z" transform="translate(0 0)"/>
  <path class="cls-2" d="M230.91,45.25v-.93a2.3,2.3,0,0,1-2,1.11c-2.69,0-2.77-3.71-2.77-5.77,0-2.36.08-6.21,2.91-6.21a2.18,2.18,0,0,1,1.87,1v-.78h1.51V45.25Zm-1.5-10.63c-1.72,0-1.75,3-1.75,4.13s0,1.87.08,2.81.27,2.68,1.64,2.68a1.18,1.18,0,0,0,1-.39c.74-.73.74-3.46.74-4.47C231.07,37.06,230.94,34.62,229.41,34.62Z" transform="translate(0 0)"/>
  <path class="cls-2" d="M239.72,44.84a3,3,0,0,1-1.69.59c-2.78,0-3.41-3.71-3.41-5.79s.47-6.19,3.49-6.19a3.14,3.14,0,0,1,1.61.44v1.72a2.13,2.13,0,0,0-1.48-.81c-1.88,0-2.07,3.41-2.07,4.71s.24,4.55,2,4.55a2,2,0,0,0,1.51-1Z" transform="translate(0 0)"/>
  <path class="cls-2" d="M243.5,35V45.25H242V35h-1.27V33.63H242v-3.3h1.48v3.3h2V35Z" transform="translate(0 0)"/>
  <path class="cls-2" d="M249.82,45.43c-3,0-3.47-3.74-3.47-6s.43-6,3.47-6,3.3,3.82,3.3,6.06S252.86,45.43,249.82,45.43Zm0-10.63c-1.82,0-1.88,3.54-1.88,4.76s.08,4.5,1.88,4.5,1.8-3.46,1.8-4.63-.12-4.63-1.83-4.63Z" transform="translate(0 0)"/>
  <path class="cls-2" d="M258.83,35.14c-2,0-2,1.56-2,3.07v7h-1.48V33.63h1.48v1.51a2.43,2.43,0,0,1,2-1.69Z" transform="translate(0 0)"/>
  <path class="cls-2" d="M265,36a2.8,2.8,0,0,0-2-1.2,1.45,1.45,0,0,0-1.47,1.45v.08c0,2.27,3.81,2.68,3.81,5.83a3.16,3.16,0,0,1-3.05,3.27h-.13a3.63,3.63,0,0,1-2.19-.8V42.91A3,3,0,0,0,262,44.06a1.71,1.71,0,0,0,1.71-1.71v-.09c0-2.29-3.8-3.07-3.8-5.87a2.83,2.83,0,0,1,2.77-2.89h.14a3.55,3.55,0,0,1,2.12.75Z" transform="translate(0 0)"/>
  <path class="cls-2" d="M274.72,34.41a2.21,2.21,0,0,1,1.91-1c2.87.09,2.87,3.73,2.87,5.81,0,2.5-.08,6.21-2.78,6.21a2.49,2.49,0,0,1-2-1.11v.93h-1.48v-19h1.48Zm1.54.21c-1.54,0-1.67,2.44-1.67,4.76,0,1,0,3.74.74,4.47a1.21,1.21,0,0,0,.95.39c1.38,0,1.54-1.67,1.64-2.68a25.62,25.62,0,0,0,.08-2.73C278,37.66,278,34.62,276.26,34.62Z" transform="translate(0 0)"/>
  <path class="cls-2" d="M287.71,41.3c-.08,1.87-.66,4.13-3,4.13-3,0-3.44-3.71-3.44-6s.45-6,3.33-6,3.2,3.51,3.2,5.56v.73h-5V40c0,1.17.18,4.06,1.88,4.06,1.32,0,1.5-1.77,1.53-2.76Zm-1.38-2.8c-.05-1-.18-3.69-1.69-3.69s-1.77,2.63-1.83,3.69Z" transform="translate(0 0)"/>
  <path class="cls-2" d="M294.61,45.25V36.8c0-.93,0-2.16-1.32-2.16a1.67,1.67,0,0,0-1.41.76,3.65,3.65,0,0,0-.39,2v7.82H290v-19h1.49v8.27a3.08,3.08,0,0,1,2.3-1.12c1.93,0,2.3,1.35,2.3,3v8.81Z" transform="translate(0 0)"/>
  <path class="cls-2" d="M299.5,31.06a1.1,1.1,0,1,1,1.08-1.12v0A1.09,1.09,0,0,1,299.5,31.06Zm-.77,14.19V33.63h1.51V45.25Z" transform="translate(0 0)"/>
  <path class="cls-2" d="M307.43,45.25V36.8c0-.93,0-2.16-1.32-2.16a1.65,1.65,0,0,0-1.4.76,3.48,3.48,0,0,0-.4,2v7.82h-1.48V33.63h1.48v.94a3.08,3.08,0,0,1,2.3-1.12c2,0,2.3,1.61,2.3,3.2v8.6Z" transform="translate(0 0)"/>
  <path class="cls-2" d="M315.92,45.25v-.93a2.36,2.36,0,0,1-2,1.11c-2.72,0-2.78-3.87-2.78-5.9,0-2.26,0-6.08,2.94-6.08a2.19,2.19,0,0,1,1.88,1V26.3h1.48v19Zm-1.54-10.63c-1.69,0-1.72,3-1.72,4.13s0,1.87.08,2.81.24,2.68,1.62,2.68a1.25,1.25,0,0,0,1-.39c.72-.7.72-3.43.72-4.4C316.05,37,315.92,34.62,314.38,34.62Z" transform="translate(0 0)"/>
  <path class="cls-2" d="M328.13,35V45.25h-1.48V35h-1.27V33.63h1.27v-3.3h1.48v3.3h2V35Z" transform="translate(0 0)"/>
  <path class="cls-2" d="M336.06,45.25V36.8c0-.93,0-2.16-1.32-2.16a1.69,1.69,0,0,0-1.4.76,3.64,3.64,0,0,0-.4,2v7.82H331.5v-19H333v8.27a3.15,3.15,0,0,1,2.3-1.12c1.93,0,2.3,1.35,2.3,3v8.81Z" transform="translate(0 0)"/>
  <path class="cls-2" d="M345.87,41.3c-.08,1.87-.66,4.13-3,4.13-3.05,0-3.44-3.71-3.44-6s.45-6,3.33-6S346,36.94,346,39v.73h-5V40c0,1.17.18,4.06,1.87,4.06,1.32,0,1.51-1.77,1.54-2.76Zm-1.37-2.8c-.05-1-.19-3.69-1.69-3.69S341,37.44,341,38.5Z" transform="translate(0 0)"/>
  <path class="cls-2" d="M35.34,67.2a2.8,2.8,0,0,0-2-1.2,1.46,1.46,0,0,0-1.49,1.43v.07c0,2.27,3.81,2.68,3.81,5.83a3.16,3.16,0,0,1-3,3.3H32.5a3.68,3.68,0,0,1-2.2-.8V74.11a3,3,0,0,0,2.09,1.15,1.71,1.71,0,0,0,1.71-1.71v0c0-2.29-3.81-3.07-3.81-5.87A2.84,2.84,0,0,1,33,64.69h.2a3.5,3.5,0,0,1,2.11.75Z" transform="translate(0 0)"/>
  <path class="cls-2" d="M43.59,73.62a3.07,3.07,0,0,1-6.13,0V64.83h1.48v7.88c0,1.19,0,2.55,1.64,2.55s1.53-1.56,1.53-2.71V64.83h1.48Z" transform="translate(0 0)"/>
  <path class="cls-2" d="M47.71,65.61a2.21,2.21,0,0,1,1.91-1c2.88,0,2.91,3.69,2.91,5.77,0,2.5-.08,6.21-2.78,6.21a2.51,2.51,0,0,1-2-1.11v1H46.27v-19h1.48Zm1.54.21c-1.54,0-1.67,2.44-1.67,4.76,0,1,0,3.74.74,4.47a1.21,1.21,0,0,0,1,.39c1.38,0,1.54-1.67,1.64-2.68A25.62,25.62,0,0,0,51,70C51,68.86,51,65.82,49.25,65.82Z" transform="translate(0 0)"/>
  <path class="cls-2" d="M55.5,62.26a1.1,1.1,0,1,1,1.11-1.09v0A1.11,1.11,0,0,1,55.5,62.26Zm-.77,18.87V64.83h1.54v16.3Z" transform="translate(0 0)"/>
  <path class="cls-2" d="M64.9,72.5c-.08,1.87-.66,4.13-3,4.13-3,0-3.43-3.71-3.43-5.95s.44-6,3.33-6S65,68.19,65,70.24V71H60v.26c0,1.17.19,4.06,1.88,4.06,1.32,0,1.51-1.77,1.53-2.76Zm-1.4-2.81c-.06-1-.19-3.69-1.7-3.69S60,68.63,60,69.69Z" transform="translate(0 0)"/>
  <path class="cls-2" d="M71.85,76a2.89,2.89,0,0,1-1.69.59c-2.77,0-3.41-3.71-3.41-5.79s.48-6.19,3.49-6.19a3.14,3.14,0,0,1,1.61.44v1.72A2.07,2.07,0,0,0,70.37,66c-1.87,0-2.06,3.41-2.06,4.71s.24,4.55,2,4.55a2,2,0,0,0,1.5-1Z" transform="translate(0 0)"/>
  <path class="cls-2" d="M75.63,66.18V76.5H74.15V66.18H72.88V64.83h1.27V61.5h1.48v3.3h2v1.35Z" transform="translate(0 0)"/>
  <path class="cls-2" d="M79.71,62.26a1.1,1.1,0,1,1,1.08-1.12v0A1.09,1.09,0,0,1,79.71,62.26ZM78.94,76.5V64.83H80.5V76.5Z" transform="translate(0 0)"/>
  <path class="cls-2" d="M86.24,76.5H84.62L81.93,64.88H83.5l1.56,6.94c.18.83.32,1.66.42,2.5.14-.81.27-1.64.43-2.45l1.45-7h1.53Z" transform="translate(0 0)"/>
  <path class="cls-2" d="M96.15,72.5c-.08,1.87-.66,4.13-3,4.13-3,0-3.43-3.71-3.43-5.95s.45-6,3.33-6,3.2,3.51,3.2,5.56V71h-5v.26c0,1.17.19,4.06,1.88,4.06,1.32,0,1.51-1.77,1.54-2.76Zm-1.37-2.81c-.06-1-.19-3.69-1.7-3.69s-1.77,2.63-1.82,3.69Z" transform="translate(0 0)"/>
  <path class="cls-2" d="M106.09,65.61a2.16,2.16,0,0,1,1.88-1c2.91,0,2.94,3.66,2.94,5.77,0,2.5-.08,6.21-2.78,6.21a2.49,2.49,0,0,1-2-1.11v5.61h-1.48V64.83h1.48Zm1.54.21c-1.54,0-1.67,2.44-1.67,4.76,0,1,0,3.74.74,4.47a1.21,1.21,0,0,0,1,.39c1.38,0,1.54-1.67,1.64-2.68a25.62,25.62,0,0,0,.08-2.73c0-1.17-.07-4.21-1.79-4.21Z" transform="translate(0 0)"/>
  <path class="cls-2" d="M119.08,72.5c-.08,1.87-.66,4.13-3,4.13-3,0-3.44-3.71-3.44-5.95s.45-6,3.33-6,3.2,3.51,3.2,5.56V71h-5v.26c0,1.17.18,4.06,1.87,4.06,1.33,0,1.51-1.77,1.54-2.76Zm-1.38-2.81c0-1-.18-3.69-1.69-3.69s-1.77,2.63-1.83,3.69Z" transform="translate(0 0)"/>
  <path class="cls-2" d="M124.87,66.34c-2,0-2,1.56-2,3.07v7h-1.48V64.83h1.48v1.51a2.41,2.41,0,0,1,2-1.69Z" transform="translate(0 0)"/>
  <path class="cls-2" d="M131,76a2.92,2.92,0,0,1-1.7.59c-2.77,0-3.41-3.71-3.41-5.79s.48-6.19,3.49-6.19a3.18,3.18,0,0,1,1.62.44v1.72A2.14,2.14,0,0,0,129.5,66c-1.87,0-2.06,3.41-2.06,4.71s.24,4.55,2,4.55a2,2,0,0,0,1.51-1Z" transform="translate(0 0)"/>
  <path class="cls-2" d="M138.85,72.5c-.08,1.87-.66,4.13-3,4.13-3,0-3.43-3.71-3.43-5.95s.45-6,3.33-6,3.2,3.51,3.2,5.56V71h-5v.26c0,1.17.19,4.06,1.88,4.06,1.32,0,1.51-1.77,1.53-2.76Zm-1.35-2.81c-.06-1-.19-3.69-1.69-3.69S134,68.63,134,69.69Z" transform="translate(0 0)"/>
  <path class="cls-2" d="M142.63,65.61a2.16,2.16,0,0,1,1.88-1c2.91,0,2.94,3.66,2.94,5.77,0,2.5-.08,6.21-2.78,6.21a2.49,2.49,0,0,1-2-1.11v5.61h-1.48V64.83h1.48Zm1.54.21c-1.54,0-1.67,2.44-1.67,4.76,0,1,0,3.74.74,4.47a1.18,1.18,0,0,0,.95.39c1.38,0,1.54-1.67,1.64-2.68a25.62,25.62,0,0,0,.08-2.73C145.91,68.86,145.88,65.82,144.17,65.82Z" transform="translate(0 0)"/>
  <path class="cls-2" d="M151.57,66.18V76.5h-1.48V66.18h-1.27V64.83h1.27V61.5h1.48v3.3h2v1.35Z" transform="translate(0 0)"/>
  <path class="cls-2" d="M155.64,62.26a1.1,1.1,0,1,1,1.08-1.12v0A1.09,1.09,0,0,1,155.64,62.26Zm-.77,14.24V64.83h1.51V76.5Z" transform="translate(0 0)"/>
  <path class="cls-2" d="M162,76.63c-3,0-3.46-3.74-3.46-6s.42-6,3.46-6,3.31,3.82,3.31,6.06S165.05,76.63,162,76.63ZM162,66c-1.83,0-1.88,3.54-1.88,4.76s.08,4.5,1.88,4.5,1.79-3.46,1.79-4.63S163.73,66,162,66Z" transform="translate(0 0)"/>
  <path class="cls-2" d="M172.14,76.5V68c0-.93,0-2.16-1.32-2.16a1.65,1.65,0,0,0-1.4.76,3.48,3.48,0,0,0-.4,2v7.9H167.5V64.83H169v.94a3.08,3.08,0,0,1,2.3-1.12c2,0,2.3,1.61,2.3,3.2V76.5Z" transform="translate(0 0)"/>
  <path class="cls-2" d="M185.44,76.63c-3,0-3.47-3.74-3.47-6s.43-6,3.47-6,3.3,3.82,3.3,6.06S188.5,76.63,185.44,76.63Zm0-10.63c-1.82,0-1.88,3.54-1.88,4.76s.08,4.5,1.88,4.5,1.8-3.46,1.8-4.63S187.16,66,185.41,66Z" transform="translate(0 0)"/>
  <path class="cls-2" d="M192.89,66.18V76.5h-1.48V66.18h-1.35V64.83h1.35V60.18c0-1.49.4-3,2.2-3a3.34,3.34,0,0,1,1.32.26v1.61a1.78,1.78,0,0,0-1.08-.52c-.88,0-1,.78-1,1.43V64.8h2v1.35Z" transform="translate(0 0)"/>
  <path class="cls-2" d="M204.29,60.59V66.7H208v1.48h-3.75V76.5h-1.64V59.11h5.61v1.48Z" transform="translate(0 0)"/>
  <path class="cls-2" d="M216.5,76.5,212.4,68V76.5h-1.79V59.11h2.22a6.44,6.44,0,0,1,3,.49c1.58.84,1.9,2.55,1.9,4.16,0,2.4-.82,4.16-3.49,4.37l4.1,8.32Zm-3-9.75c2.11,0,2.46-1.22,2.46-3,0-2-.43-3.07-2.67-3.07h-.88v6Z" transform="translate(0 0)"/>
  <path class="cls-2" d="M222.69,60.59V76.5h-1.64V60.59h-2.64V59.11h6.93v1.48Z" transform="translate(0 0)"/>
  <path class="cls-2" d="M230.39,67.2a2.8,2.8,0,0,0-2-1.2,1.46,1.46,0,0,0-1.49,1.43v.07c0,2.27,3.8,2.68,3.8,5.83a3.16,3.16,0,0,1-3,3.3h-.2a3.63,3.63,0,0,1-2.19-.8V74.11a3,3,0,0,0,2.08,1.15,1.7,1.7,0,0,0,1.72-1.7v-.1c0-2.29-3.8-3.07-3.8-5.87A2.83,2.83,0,0,1,228,64.65h.21a3.55,3.55,0,0,1,2.12.75Z" transform="translate(0 0)"/>
  <path class="cls-2" d="M233.5,76.63a1.17,1.17,0,1,1,.07,0Z" transform="translate(0 0)"/>
  <path class="cls-2" d="M246.33,60.59V76.5h-1.64V60.59H242V59.11H249v1.48Z" transform="translate(0 0)"/>
  <path class="cls-2" d="M254.34,76.5V68c0-.93,0-2.16-1.32-2.16a1.65,1.65,0,0,0-1.4.76,3.64,3.64,0,0,0-.4,2v7.9h-1.48v-19h1.48v8.27a3.08,3.08,0,0,1,2.3-1.12c1.93,0,2.3,1.35,2.3,3V76.5Z" transform="translate(0 0)"/>
  <path class="cls-2" d="M264.15,72.5c-.08,1.87-.66,4.13-3,4.13-3,0-3.44-3.71-3.44-5.95s.45-6,3.34-6,3.2,3.51,3.2,5.56V71h-5v.26c0,1.17.19,4.06,1.88,4.06,1.32,0,1.51-1.77,1.53-2.76Zm-1.37-2.81c-.06-1-.19-3.69-1.7-3.69s-1.77,2.63-1.82,3.69Z" transform="translate(0 0)"/>
  <path class="cls-2" d="M267.19,62.26a1.1,1.1,0,1,1,1.08-1.12v0A1.09,1.09,0,0,1,267.19,62.26Zm-.77,14.24V64.83h1.51V76.5Z" transform="translate(0 0)"/>
  <path class="cls-2" d="M274,66.34c-2,0-2,1.56-2,3.07v7h-1.48V64.83H272v1.51a2.41,2.41,0,0,1,2-1.69Z" transform="translate(0 0)"/>
  <path class="cls-2" d="M288,73.62a3.07,3.07,0,0,1-6.14,0h0V64.83h1.48v7.88c0,1.19.06,2.55,1.64,2.55s1.52-1.56,1.52-2.71V64.83H288Z" transform="translate(0 0)"/>
  <path class="cls-2" d="M295.11,67.2a2.8,2.8,0,0,0-2-1.2,1.46,1.46,0,0,0-1.49,1.43v.07c0,2.27,3.81,2.68,3.81,5.83a3.16,3.16,0,0,1-3.05,3.27h-.13a3.63,3.63,0,0,1-2.19-.8V74.11a3,3,0,0,0,2.09,1.15,1.7,1.7,0,0,0,1.72-1.7v-.1c0-2.29-3.81-3.07-3.81-5.87a2.84,2.84,0,0,1,2.74-2.94h.2a3.5,3.5,0,0,1,2.11.75Z" transform="translate(0 0)"/>
  <path class="cls-2" d="M303.2,72.5c-.08,1.87-.66,4.13-3,4.13-3,0-3.43-3.71-3.43-5.95s.44-6,3.33-6,3.2,3.51,3.2,5.56V71h-5v.26c0,1.17.19,4.06,1.88,4.06,1.32,0,1.51-1.77,1.53-2.76Zm-1.37-2.81c-.06-1-.19-3.69-1.7-3.69s-1.77,2.63-1.82,3.69Z" transform="translate(0 0)"/>
  <path class="cls-2" d="M307.43,66.18V76.5H306V66.18H304.6V64.83H306V60.18c0-1.49.4-3,2.19-3a3.39,3.39,0,0,1,1.36.32v1.61a1.75,1.75,0,0,0-1.09-.52c-.87,0-1,.78-1,1.43v4.84h2v1.35Z" transform="translate(0 0)"/>
  <path class="cls-2" d="M317,73.62a3.07,3.07,0,0,1-6.14,0h0V64.83h1.48v7.88c0,1.19.06,2.55,1.64,2.55s1.54-1.56,1.54-2.71V64.83H317Z" transform="translate(0 0)"/>
  <path class="cls-2" d="M319.67,76.5v-19h1.51v19Z" transform="translate(0 0)"/>
  <path class="cls-2" d="M328.42,76.5V68c0-.93,0-2.16-1.32-2.16a1.69,1.69,0,0,0-1.4.76,3.48,3.48,0,0,0-.4,2v7.9h-1.48V64.83h1.48v.94a3.15,3.15,0,0,1,2.3-1.12c2,0,2.31,1.61,2.31,3.2V76.5Z" transform="translate(0 0)"/>
  <path class="cls-2" d="M338.5,72.5c-.08,1.87-.66,4.13-3,4.13-3,0-3.44-3.71-3.44-5.95s.45-6,3.33-6,3.2,3.51,3.2,5.56V71h-5v.26c0,1.17.18,4.06,1.87,4.06,1.32,0,1.51-1.77,1.54-2.76Zm-1.37-2.81c0-1-.19-3.69-1.69-3.69s-1.78,2.63-1.83,3.69Z" transform="translate(0 0)"/>
  <path class="cls-2" d="M345.29,67.2a2.8,2.8,0,0,0-2-1.2,1.46,1.46,0,0,0-1.49,1.43v.07c0,2.27,3.81,2.68,3.81,5.83a3.16,3.16,0,0,1-3.05,3.27h-.12a3.68,3.68,0,0,1-2.2-.8V74.11a3,3,0,0,0,2.09,1.15,1.7,1.7,0,0,0,1.72-1.7v-.1c0-2.29-3.81-3.07-3.81-5.87A2.84,2.84,0,0,1,343,64.65h.2a3.5,3.5,0,0,1,2.11.75Z" transform="translate(0 0)"/>
  <path class="cls-2" d="M351.88,67.2a2.8,2.8,0,0,0-2-1.2,1.47,1.47,0,0,0-1.5,1.44v.06c0,2.27,3.81,2.68,3.81,5.83a3.15,3.15,0,0,1-3,3.27H349a3.68,3.68,0,0,1-2.2-.8V74.11a3,3,0,0,0,2.09,1.15,1.7,1.7,0,0,0,1.72-1.7v-.1c0-2.29-3.81-3.07-3.81-5.87a2.84,2.84,0,0,1,2.74-2.94h.2a3.62,3.62,0,0,1,2.12.75Z" transform="translate(0 0)"/>
  <path class="cls-2" d="M360.89,62.26A1.1,1.1,0,1,1,362,61.14v0A1.09,1.09,0,0,1,360.89,62.26Zm-.77,14.24V64.83h1.51V76.5Z" transform="translate(0 0)"/>
  <path class="cls-2" d="M368.72,67.2a2.8,2.8,0,0,0-2-1.2,1.46,1.46,0,0,0-1.49,1.43v.07c0,2.27,3.81,2.68,3.81,5.83A3.16,3.16,0,0,1,366,76.6h-.13a3.63,3.63,0,0,1-2.19-.8V74.11a3,3,0,0,0,2.09,1.15,1.71,1.71,0,0,0,1.74-1.68V73.5c0-2.29-3.8-3.07-3.8-5.87a2.83,2.83,0,0,1,2.72-2.94h.21a3.55,3.55,0,0,1,2.12.75Z" transform="translate(0 0)"/>
  <path class="cls-2" d="M36.85,103.7c-.08,1.87-.66,4.13-3,4.13-3,0-3.44-3.71-3.44-6s.45-6,3.33-6,3.2,3.51,3.2,5.56v.73h-5v.26c0,1.17.19,4.06,1.88,4.06,1.32,0,1.5-1.77,1.53-2.76Zm-1.35-2.81c0-1-.18-3.69-1.69-3.69S32,99.83,32,100.89Z" transform="translate(0 0)"/>
  <path class="cls-2" d="M42.16,107.65H40.55L37.85,96h1.54L41,103c.18.83.31,1.67.42,2.5.13-.81.26-1.64.42-2.45l1.46-7h1.53Z" transform="translate(0 0)"/>
  <path class="cls-2" d="M50.62,107.65v-.93a2.34,2.34,0,0,1-2,1.11c-2.69,0-2.77-3.71-2.77-5.77,0-2.36.08-6.21,2.91-6.21a2.2,2.2,0,0,1,1.87,1v-.78h1.51v11.62ZM49.12,97c-1.72,0-1.75,3-1.75,4.13s0,1.87.08,2.81.26,2.68,1.64,2.68a1.18,1.18,0,0,0,1-.39c.74-.73.74-3.46.74-4.47C50.78,99.5,50.65,97,49.12,97Z" transform="translate(0 0)"/>
  <path class="cls-2" d="M54.77,107.65v-19h1.51v19Z" transform="translate(0 0)"/>
  <path class="cls-2" d="M65.06,104.82a3.07,3.07,0,0,1-6.14,0V96h1.49v7.88c0,1.19,0,2.55,1.63,2.55s1.54-1.56,1.54-2.71V96h1.48Z" transform="translate(0 0)"/>
  <path class="cls-2" d="M72.2,107.65v-.93a2.36,2.36,0,0,1-2,1.11c-2.7,0-2.78-3.71-2.78-5.77,0-2.36.08-6.21,2.91-6.21a2.19,2.19,0,0,1,1.88,1v-.78h1.51v11.62ZM70.69,97C69,97,69,100,69,101.15S69,103,69,104s.27,2.68,1.64,2.68a1.22,1.22,0,0,0,1-.39c.74-.73.74-3.46.74-4.47C72.36,99.5,72.22,97,70.69,97Z" transform="translate(0 0)"/>
  <path class="cls-2" d="M78.28,97.38v10.27H76.8V97.38H75.5V96h1.27v-3.3h1.48V96h2v1.35Z" transform="translate(0 0)"/>
  <path class="cls-2" d="M87.5,103.7c-.08,1.87-.66,4.13-3,4.13-3,0-3.43-3.71-3.43-6s.45-6,3.33-6,3.2,3.51,3.2,5.56v.73h-5v.26c0,1.17.19,4.06,1.88,4.06,1.32,0,1.51-1.77,1.54-2.76Zm-1.37-2.81c0-1-.19-3.69-1.69-3.69s-1.78,2.63-1.83,3.69Z" transform="translate(0 0)"/>
  <path class="cls-2" d="M94.2,107.65v-.93a2.38,2.38,0,0,1-2,1.11c-2.72,0-2.78-3.87-2.78-5.9,0-2.26,0-6.08,2.94-6.08a2.21,2.21,0,0,1,1.88,1V88.7h1.48v19ZM92.66,97c-1.69,0-1.72,3-1.72,4.13s0,1.87.08,2.81.24,2.68,1.62,2.68a1.25,1.25,0,0,0,1-.39c.72-.7.72-3.43.72-4.4C94.33,99.41,94.2,97,92.66,97Z" transform="translate(0 0)"/>
  <path class="cls-2" d="M106,96.81a2.21,2.21,0,0,1,1.91-1c2.88,0,2.9,3.69,2.9,5.77,0,2.5-.08,6.21-2.77,6.21a2.49,2.49,0,0,1-2-1.11v.93h-1.5v-19H106Zm1.54.21c-1.54,0-1.67,2.44-1.67,4.76,0,1,0,3.74.74,4.47a1.18,1.18,0,0,0,1,.39c1.38,0,1.54-1.67,1.64-2.68a25.62,25.62,0,0,0,.08-2.73C109.24,100.06,109.21,97,107.5,97Z" transform="translate(0 0)"/>
  <path class="cls-2" d="M117.5,107.65v-.93a2.34,2.34,0,0,1-2,1.11c-2.69,0-2.77-3.71-2.77-5.77,0-2.36.08-6.21,2.91-6.21a2.2,2.2,0,0,1,1.87,1v-.78H119v11.62ZM116,97c-1.72,0-1.75,3-1.75,4.13s0,1.87.08,2.81.26,2.68,1.64,2.68a1.18,1.18,0,0,0,1-.39c.74-.73.74-3.46.74-4.47,0-2.28-.16-4.76-1.7-4.76Z" transform="translate(0 0)"/>
  <path class="cls-2" d="M126.08,98.4a2.8,2.8,0,0,0-2-1.2,1.46,1.46,0,0,0-1.46,1.46v.07c0,2.27,3.81,2.68,3.81,5.83a3.16,3.16,0,0,1-3.05,3.27h-.12a3.68,3.68,0,0,1-2.2-.8v-1.72a3,3,0,0,0,2.09,1.15,1.7,1.7,0,0,0,1.72-1.7v-.1c0-2.29-3.81-3.07-3.81-5.87a2.84,2.84,0,0,1,2.74-2.94h.2a3.5,3.5,0,0,1,2.11.75Z" transform="translate(0 0)"/>
  <path class="cls-2" d="M134.17,103.7c-.08,1.87-.66,4.13-3,4.13-3,0-3.44-3.71-3.44-6s.45-6,3.33-6,3.2,3.51,3.2,5.56v.73h-5v.26c0,1.17.19,4.06,1.88,4.06,1.32,0,1.51-1.77,1.54-2.76Zm-1.37-2.81c-.05-1-.19-3.69-1.69-3.69s-1.78,2.63-1.83,3.69Z" transform="translate(0 0)"/>
  <path class="cls-2" d="M140.84,107.65v-.93a2.36,2.36,0,0,1-2,1.11c-2.72,0-2.78-3.87-2.78-5.9,0-2.26,0-6.08,2.94-6.08a2.21,2.21,0,0,1,1.88,1V88.7h1.48v19ZM139.3,97c-1.69,0-1.72,3-1.72,4.13s0,1.87.08,2.81.24,2.68,1.62,2.68a1.25,1.25,0,0,0,1-.39c.72-.7.72-3.43.72-4.4C141,99.41,140.84,97,139.3,97Z" transform="translate(0 0)"/>
  <path class="cls-2" d="M154.13,107.83c-3,0-3.46-3.74-3.46-6s.42-6,3.46-6,3.31,3.82,3.31,6.06S157.18,107.83,154.13,107.83Zm0-10.63c-1.83,0-1.88,3.54-1.88,4.76s.08,4.5,1.88,4.5,1.8-3.46,1.8-4.63-.08-4.63-1.82-4.63Z" transform="translate(0 0)"/>
  <path class="cls-2" d="M164.26,107.65V99.2c0-.93,0-2.16-1.32-2.16a1.65,1.65,0,0,0-1.4.76,3.48,3.48,0,0,0-.4,2v7.82h-1.48V96h1.48V97a3.11,3.11,0,0,1,2.3-1.12c2,0,2.3,1.61,2.3,3.2v8.6Z" transform="translate(0 0)"/>
  <path class="cls-2" d="M182,107.65h-1.54c-.5-3.22-1.08-6.45-1.51-9.67-.1.62-.13,1.2-.23,1.82l-1.3,7.85h-1.53L173.5,96H175l1.33,7c.16.8.26,1.63.34,2.44.05-.78.21-1.59.34-2.39L178.2,96h1.54c.5,3.15,1.11,6.32,1.48,9.49.13-.81.24-1.64.4-2.47l1.45-7h1.51Z" transform="translate(0 0)"/>
  <path class="cls-2" d="M190.75,107.65V99.2c0-.93,0-2.16-1.32-2.16a1.69,1.69,0,0,0-1.4.76,3.64,3.64,0,0,0-.4,2v7.82h-1.48v-19h1.48v8.27a3.11,3.11,0,0,1,2.3-1.12c1.93,0,2.3,1.35,2.3,3v8.81Z" transform="translate(0 0)"/>
  <path class="cls-2" d="M195.62,93.5a1.1,1.1,0,1,1,1.08-1.12v.05A1.09,1.09,0,0,1,195.62,93.5Zm-.77,14.19V96h1.51v11.62Z" transform="translate(0 0)"/>
  <path class="cls-2" d="M203.63,107.24a3,3,0,0,1-1.69.59c-2.78,0-3.41-3.71-3.41-5.79s.47-6.19,3.49-6.19a3.14,3.14,0,0,1,1.61.44V98a2.13,2.13,0,0,0-1.48-.81c-1.88,0-2.06,3.41-2.06,4.71s.23,4.55,2,4.55a2,2,0,0,0,1.51-1Z" transform="translate(0 0)"/>
  <path class="cls-2" d="M210,107.65V99.2c0-.93,0-2.16-1.32-2.16a1.69,1.69,0,0,0-1.4.76,3.64,3.64,0,0,0-.4,2v7.82h-1.48v-19h1.48v8.27a3.13,3.13,0,0,1,2.31-1.12c1.93,0,2.3,1.35,2.3,3v8.81Z" transform="translate(0 0)"/>
  <path class="cls-2" d="M223.27,107.83c-3,0-3.46-3.74-3.46-6s.42-6,3.46-6,3.31,3.82,3.31,6.06S226.31,107.83,223.27,107.83Zm0-10.63c-1.83,0-1.88,3.54-1.88,4.76s.08,4.5,1.88,4.5,1.79-3.46,1.79-4.63-.07-4.63-1.81-4.63Z" transform="translate(0 0)"/>
  <path class="cls-2" d="M233.5,107.24a2.89,2.89,0,0,1-1.69.59c-2.78,0-3.41-3.71-3.41-5.79s.48-6.19,3.49-6.19a3.14,3.14,0,0,1,1.61.44V98A2.07,2.07,0,0,0,232,97.2c-1.88,0-2.06,3.41-2.06,4.71s.24,4.55,2,4.55a2,2,0,0,0,1.5-1Z" transform="translate(0 0)"/>
  <path class="cls-2" d="M240,107.24a3,3,0,0,1-1.69.59c-2.78,0-3.42-3.71-3.42-5.79s.48-6.19,3.49-6.19a3.18,3.18,0,0,1,1.62.44V98a2.13,2.13,0,0,0-1.48-.81c-1.88,0-2.07,3.41-2.07,4.71s.24,4.55,2,4.55a2,2,0,0,0,1.51-1Z" transform="translate(0 0)"/>
  <path class="cls-2" d="M246.3,107.65v-.93a2.34,2.34,0,0,1-2,1.11c-2.69,0-2.77-3.71-2.77-5.77,0-2.36.08-6.21,2.91-6.21a2.2,2.2,0,0,1,1.87,1v-.78h1.51v11.62ZM244.8,97c-1.72,0-1.75,3-1.75,4.13s0,1.87.08,2.81.26,2.68,1.64,2.68a1.18,1.18,0,0,0,1-.39c.74-.73.74-3.46.74-4.47C246.5,99.5,246.33,97,244.8,97Z" transform="translate(0 0)"/>
  <path class="cls-2" d="M254.92,98.4a2.8,2.8,0,0,0-2-1.2,1.46,1.46,0,0,0-1.46,1.46v.07c0,2.27,3.81,2.68,3.81,5.83a3.16,3.16,0,0,1-3.05,3.27h-.12a3.68,3.68,0,0,1-2.2-.8v-1.72a3,3,0,0,0,2.09,1.15,1.7,1.7,0,0,0,1.72-1.7v-.1c0-2.29-3.81-3.07-3.81-5.87a2.84,2.84,0,0,1,2.74-2.94h.2a3.5,3.5,0,0,1,2.11.75Z" transform="translate(0 0)"/>
  <path class="cls-2" d="M257.78,93.5a1.1,1.1,0,1,1,1.08-1.12v.05A1.09,1.09,0,0,1,257.78,93.5ZM257,107.69V96h1.49v11.62Z" transform="translate(0 0)"/>
  <path class="cls-2" d="M264.15,107.83c-3,0-3.46-3.74-3.46-6s.42-6,3.46-6,3.31,3.82,3.31,6.06S267.19,107.83,264.15,107.83Zm0-10.63c-1.82,0-1.87,3.54-1.87,4.76s.07,4.5,1.87,4.5,1.8-3.46,1.8-4.63-.08-4.63-1.83-4.63Z" transform="translate(0 0)"/>
  <path class="cls-2" d="M274.28,107.65V99.2c0-.93,0-2.16-1.33-2.16a1.69,1.69,0,0,0-1.4.76,3.57,3.57,0,0,0-.39,2v7.82h-1.49V96h1.49V97a3.08,3.08,0,0,1,2.3-1.12c2,0,2.3,1.61,2.3,3.2v8.6Z" transform="translate(0 0)"/>
  <path class="cls-2" d="M282.87,98.4a2.8,2.8,0,0,0-2-1.2,1.45,1.45,0,0,0-1.45,1.47v.06c0,2.27,3.81,2.68,3.81,5.83a3.16,3.16,0,0,1-3.05,3.27h-.13a3.63,3.63,0,0,1-2.19-.8v-1.72a3,3,0,0,0,2.09,1.15,1.72,1.72,0,0,0,1.72-1.72v-.08c0-2.29-3.81-3.07-3.81-5.87a2.84,2.84,0,0,1,2.74-2.94h.19a3.55,3.55,0,0,1,2.12.75Z" transform="translate(0 0)"/>
  <path class="cls-2" d="M293.07,97.38v10.27h-1.48V97.38h-1.27V96h1.27v-3.3h1.48V96h2v1.35Z" transform="translate(0 0)"/>
  <path class="cls-2" d="M301,107.65V99.2c0-.93,0-2.16-1.33-2.16a1.69,1.69,0,0,0-1.4.76,3.65,3.65,0,0,0-.39,2v7.82h-1.48v-19h1.48v8.27a3.08,3.08,0,0,1,2.3-1.12c1.93,0,2.3,1.35,2.3,3v8.81Z" transform="translate(0 0)"/>
  <path class="cls-2" d="M310.82,103.7c-.08,1.87-.66,4.13-3,4.13-3,0-3.44-3.71-3.44-6s.45-6,3.33-6,3.2,3.51,3.2,5.56v.73h-5v.26c0,1.17.18,4.06,1.88,4.06,1.32,0,1.5-1.77,1.53-2.76Zm-1.38-2.81c-.05-1-.18-3.69-1.69-3.69s-1.77,2.63-1.83,3.69Z" transform="translate(0 0)"/>
  <path class="cls-2" d="M314.86,112.33h-1.59l1.33-5L311.79,96h1.51l1.48,6.45c.24,1,.42,2,.56,2.91.1-.73.29-1.43.47-2.18L317.53,96h1.56Z" transform="translate(0 0)"/>
  <path class="cls-2" d="M331.23,107.65v-.93a2.36,2.36,0,0,1-2,1.11c-2.7,0-2.78-3.71-2.78-5.77,0-2.36.08-6.21,2.91-6.21a2.19,2.19,0,0,1,1.88,1v-.78h1.5v11.62ZM329.72,97c-1.72,0-1.75,3-1.75,4.13s0,1.87.08,2.81.27,2.68,1.64,2.68a1.18,1.18,0,0,0,.95-.39c.75-.73.75-3.46.75-4.47C331.39,99.5,331.25,97,329.72,97Z" transform="translate(0 0)"/>
  <path class="cls-2" d="M338.87,97.5c-2,0-2,1.56-2,3.07v7h-1.48V96h1.48V97.5a2.41,2.41,0,0,1,2-1.69Z" transform="translate(0 0)"/>
  <path class="cls-2" d="M346.35,103.7c-.08,1.87-.66,4.13-3,4.13-3,0-3.44-3.71-3.44-6s.45-6,3.34-6,3.2,3.51,3.2,5.56v.73h-5v.26c0,1.17.19,4.06,1.88,4.06,1.32,0,1.51-1.77,1.53-2.76ZM345,100.89c-.05-1-.18-3.69-1.69-3.69s-1.77,2.63-1.82,3.69Z" transform="translate(0 0)"/>
  <path class="cls-2" d="M32.35,128a2.16,2.16,0,0,1,1.88-1c2.91,0,2.94,3.66,2.94,5.77,0,2.49-.08,6.21-2.78,6.21a2.49,2.49,0,0,1-2-1.11v5.62H30.87V127.2h1.48Zm1.54.21c-1.54,0-1.67,2.44-1.67,4.75,0,1,0,3.75.74,4.48a1.21,1.21,0,0,0,1,.39c1.38,0,1.54-1.67,1.64-2.68a25.62,25.62,0,0,0,.08-2.73C35.63,131.26,35.61,128.22,33.89,128.22Z" transform="translate(0 0)"/>
  <path class="cls-2" d="M45.34,134.9c-.08,1.87-.67,4.13-3,4.13-3,0-3.44-3.72-3.44-5.95s.45-6,3.33-6,3.2,3.51,3.2,5.56v.73h-5v.26c0,1.17.18,4.05,1.87,4.05,1.33,0,1.51-1.76,1.54-2.75ZM44,132.09c0-1-.18-3.69-1.69-3.69s-1.77,2.62-1.83,3.69Z" transform="translate(0 0)"/>
  <path class="cls-2" d="M51.13,128.74c-2,0-2,1.56-2,3.07v7H47.65V127.23h1.48v1.51a2.41,2.41,0,0,1,2-1.69Z" transform="translate(0 0)"/>
  <path class="cls-2" d="M57.29,138.43a2.84,2.84,0,0,1-1.7.6c-2.77,0-3.41-3.72-3.41-5.8s.48-6.18,3.49-6.18a3.18,3.18,0,0,1,1.62.44v1.71a2.15,2.15,0,0,0-1.48-.8c-1.88,0-2.07,3.41-2.07,4.7s.24,4.55,2,4.55a2,2,0,0,0,1.51-1Z" transform="translate(0 0)"/>
  <path class="cls-2" d="M65.11,134.9c-.08,1.87-.66,4.13-3,4.13-3,0-3.43-3.72-3.43-5.95s.45-6,3.33-6,3.2,3.51,3.2,5.56v.73h-5v.26c0,1.17.19,4.05,1.88,4.05,1.32,0,1.51-1.76,1.53-2.75Zm-1.37-2.81c-.06-1-.19-3.69-1.7-3.69s-1.77,2.62-1.82,3.69Z" transform="translate(0 0)"/>
  <path class="cls-2" d="M68.15,124.65a1.09,1.09,0,0,1,0-2.18h0a1.11,1.11,0,0,1,1.09,1.12A1.08,1.08,0,0,1,68.15,124.65Zm-.76,14.2V127.23h1.5v11.62Z" transform="translate(0 0)"/>
  <path class="cls-2" d="M74.68,138.85H73.07l-2.7-11.62h1.54l1.56,6.94c.18.83.31,1.67.42,2.5.13-.81.26-1.64.42-2.45l1.46-7H77.3Z" transform="translate(0 0)"/>
  <path class="cls-2" d="M84.6,134.9c-.08,1.87-.66,4.13-3,4.13-3,0-3.44-3.72-3.44-5.95s.45-6,3.33-6,3.2,3.51,3.2,5.56v.73h-5v.26c0,1.17.19,4.05,1.88,4.05,1.32,0,1.5-1.76,1.53-2.75Zm-1.38-2.81c0-1-.18-3.69-1.69-3.69s-1.77,2.62-1.82,3.69Z" transform="translate(0 0)"/>
  <path class="cls-2" d="M91.26,138.85v-.93a2.36,2.36,0,0,1-2,1.11c-2.73,0-2.78-3.87-2.78-5.9,0-2.26,0-6.08,2.93-6.08a2.19,2.19,0,0,1,1.88,1V119.9h1.48v18.95Zm-1.53-10.63c-1.69,0-1.72,3-1.72,4.13s0,1.87.08,2.81.24,2.68,1.61,2.68a1.25,1.25,0,0,0,1-.39c.71-.71.71-3.43.71-4.4C91.39,130.61,91.26,128.22,89.73,128.22Z" transform="translate(0 0)"/>
  <path class="cls-2" d="M103.5,128.58v10.27H102V128.58h-1.26v-1.35H102v-3.3h1.49v3.3h2v1.35Z" transform="translate(0 0)"/>
  <path class="cls-2" d="M109.8,139c-3,0-3.47-3.74-3.47-6s.42-6,3.47-6,3.3,3.82,3.3,6S112.84,139,109.8,139Zm0-10.63c-1.83,0-1.88,3.53-1.88,4.76s.08,4.49,1.88,4.49,1.8-3.45,1.8-4.62-.1-4.63-1.83-4.63Z" transform="translate(0 0)"/>
  <path class="cls-2" d="M123,128a2.21,2.21,0,0,1,1.91-1c2.88,0,2.91,3.69,2.91,5.77,0,2.49-.08,6.21-2.78,6.21a2.49,2.49,0,0,1-2-1.11v.93h-1.5V119.9H123Zm1.54.21c-1.54,0-1.67,2.44-1.67,4.75,0,1,0,3.75.74,4.48a1.21,1.21,0,0,0,1,.39c1.38,0,1.54-1.67,1.64-2.68a25.62,25.62,0,0,0,.08-2.73C126.24,131.26,126.21,128.22,124.5,128.22Z" transform="translate(0 0)"/>
  <path class="cls-2" d="M136,134.9c-.08,1.87-.67,4.13-3,4.13-3,0-3.44-3.72-3.44-5.95s.45-6,3.33-6,3.2,3.51,3.2,5.56v.73h-5v.26c0,1.17.18,4.05,1.87,4.05,1.33,0,1.51-1.76,1.54-2.75Zm-1.38-2.81c0-1-.19-3.69-1.69-3.69s-1.77,2.62-1.83,3.69Z" transform="translate(0 0)"/>
  <path class="cls-2" d="M150.5,136a3.07,3.07,0,1,1-6.14,0v-8.79h1.48v7.88c0,1.19.06,2.54,1.64,2.54S149,136.1,149,135v-7.72h1.48Z" transform="translate(0 0)"/>
  <path class="cls-2" d="M157.65,129.6a2.8,2.8,0,0,0-2-1.2,1.45,1.45,0,0,0-1.45,1.47v.06c0,2.26,3.81,2.68,3.81,5.83a3.16,3.16,0,0,1-3,3.27h-.13a3.63,3.63,0,0,1-2.19-.8V136.5a3,3,0,0,0,2.09,1.14,1.7,1.7,0,0,0,1.72-1.68v-.11c0-2.29-3.81-3.07-3.81-5.88a2.83,2.83,0,0,1,2.73-2.93h.21a3.5,3.5,0,0,1,2.11.75Z" transform="translate(0 0)"/>
  <path class="cls-2" d="M165.74,134.9c-.08,1.87-.66,4.13-3,4.13-3,0-3.43-3.72-3.43-5.95s.45-6,3.33-6,3.2,3.51,3.2,5.56v.73h-5v.26c0,1.17.19,4.05,1.88,4.05,1.32,0,1.51-1.76,1.53-2.75Zm-1.37-2.81c-.06-1-.19-3.69-1.7-3.69s-1.77,2.62-1.82,3.69Z" transform="translate(0 0)"/>
  <path class="cls-2" d="M172.4,138.85v-.93a2.36,2.36,0,0,1-2,1.11c-2.73,0-2.78-3.87-2.78-5.9,0-2.26,0-6.08,2.94-6.08a2.18,2.18,0,0,1,1.87,1V119.9h1.48v18.95Zm-1.53-10.63c-1.69,0-1.72,3-1.72,4.13s0,1.87.08,2.81.24,2.68,1.61,2.68a1.25,1.25,0,0,0,1-.39c.72-.71.72-3.43.72-4.4C172.5,130.61,172.4,128.22,170.87,128.22Z" transform="translate(0 0)"/>
  <path class="cls-2" d="M177.5,139a1.21,1.21,0,0,1-1.19-1.17,1.19,1.19,0,1,1,1.21,1.17Z" transform="translate(0 0)"/>
  <path class="cls-2" d="M193.16,138.85v-8.94h-4v8.94H187.5V121.5h1.64v6.91h4V121.5h1.64v17.34Z" transform="translate(0 0)"/>
  <path class="cls-2" d="M200.56,139c-3,0-3.46-3.74-3.46-6s.42-6,3.46-6,3.31,3.82,3.31,6S203.6,139,200.56,139Zm0-10.63c-1.83,0-1.88,3.53-1.88,4.76s.08,4.49,1.88,4.49,1.79-3.45,1.79-4.62-.07-4.63-1.85-4.63Z" transform="translate(0 0)"/>
  <path class="cls-2" d="M209.1,138.85h-1.6l-2.7-11.62h1.54l1.56,6.94c.18.83.31,1.67.42,2.5.13-.81.26-1.64.42-2.45l1.46-7h1.53Z" transform="translate(0 0)"/>
  <path class="cls-2" d="M219,134.9c-.08,1.87-.66,4.13-3,4.13-3,0-3.44-3.72-3.44-5.95s.45-6,3.33-6,3.2,3.51,3.2,5.56v.73h-5v.26c0,1.17.19,4.05,1.88,4.05,1.32,0,1.5-1.76,1.53-2.75Zm-1.38-2.81c0-1-.18-3.69-1.69-3.69s-1.77,2.62-1.82,3.69Z" transform="translate(0 0)"/>
  <path class="cls-2" d="M224.81,128.74c-2,0-2,1.56-2,3.07v7h-1.48V127.23h1.48v1.51a2.41,2.41,0,0,1,2-1.69Z" transform="translate(0 0)"/>
  <path class="cls-2" d="M235.65,139c-3,0-3.47-3.74-3.47-6s.43-6,3.47-6,3.3,3.82,3.3,6S238.69,139,235.65,139Zm0-10.63c-1.82,0-1.88,3.53-1.88,4.76s.08,4.49,1.88,4.49,1.8-3.45,1.8-4.62-.08-4.63-1.83-4.63Z" transform="translate(0 0)"/>
  <path class="cls-2" d="M244.19,138.85h-1.61l-2.7-11.62h1.53l1.56,6.94c.18.83.32,1.66.42,2.5.14-.81.27-1.64.43-2.45l1.45-7h1.54Z" transform="translate(0 0)"/>
  <path class="cls-2" d="M254.1,134.9c-.08,1.87-.66,4.13-3,4.13-3,0-3.44-3.72-3.44-5.95s.45-6,3.33-6,3.2,3.51,3.2,5.56v.73h-5v.26c0,1.17.19,4.05,1.88,4.05,1.32,0,1.51-1.76,1.54-2.75Zm-1.37-2.81c-.06-1-.19-3.69-1.69-3.69s-1.78,2.62-1.83,3.69Z" transform="translate(0 0)"/>
  <path class="cls-2" d="M259.89,128.74c-2,0-2,1.56-2,3.07v7H256.4V127.23h1.48v1.51a2.43,2.43,0,0,1,2-1.69Z" transform="translate(0 0)"/>
  <path class="cls-2" d="M269.65,128.58v10.27h-1.48V128.58H266.9v-1.35h1.27v-3.3h1.48v3.3h2v1.35Z" transform="translate(0 0)"/>
  <path class="cls-2" d="M277.58,138.85V130.4c0-.94,0-2.16-1.32-2.16a1.65,1.65,0,0,0-1.4.76,3.56,3.56,0,0,0-.4,2v7.83H273V119.9h1.52v8.26a3.1,3.1,0,0,1,2.3-1.11c1.93,0,2.3,1.35,2.3,3v8.81Z" transform="translate(0 0)"/>
  <path class="cls-2" d="M287.39,134.9c-.08,1.87-.66,4.13-3,4.13-3,0-3.44-3.72-3.44-5.95s.45-6,3.34-6,3.2,3.51,3.2,5.56v.73h-5v.26c0,1.17.19,4.05,1.88,4.05,1.32,0,1.51-1.76,1.53-2.75ZM286,132.09c-.06-1-.19-3.69-1.7-3.69s-1.77,2.62-1.82,3.69Z" transform="translate(0 0)"/>
  <path class="cls-2" d="M300.34,138.85v-.93a2.3,2.3,0,0,1-2,1.11c-2.69,0-2.77-3.72-2.77-5.77,0-2.37.08-6.21,2.91-6.21a2.18,2.18,0,0,1,1.87,1v-.78h1.51v11.62Zm-1.5-10.63c-1.72,0-1.75,3-1.75,4.13s0,1.87.08,2.81.27,2.68,1.64,2.68a1.18,1.18,0,0,0,.95-.39c.74-.73.74-3.46.74-4.48C300.5,130.66,300.37,128.22,298.84,128.22Z" transform="translate(0 0)"/>
  <path class="cls-2" d="M308,128.74c-2,0-2,1.56-2,3.07v7H304.5V127.23H306v1.51a2.41,2.41,0,0,1,2-1.69Z" transform="translate(0 0)"/>
  <path class="cls-2" d="M315.5,134.9c-.08,1.87-.66,4.13-3,4.13-3,0-3.44-3.72-3.44-5.95s.45-6,3.34-6,3.2,3.51,3.2,5.56v.73h-5v.26c0,1.17.19,4.05,1.88,4.05,1.32,0,1.51-1.76,1.53-2.75Zm-1.38-2.81c0-1-.18-3.69-1.69-3.69s-1.77,2.62-1.82,3.69Z" transform="translate(0 0)"/>
  <path class="cls-2" d="M322.26,138.85v-.93a2.3,2.3,0,0,1-2,1.11c-2.69,0-2.77-3.72-2.77-5.77,0-2.37.08-6.21,2.91-6.21a2.18,2.18,0,0,1,1.87,1v-.78h1.51v11.62Zm-1.5-10.63c-1.72,0-1.75,3-1.75,4.13s0,1.87.08,2.81.27,2.68,1.64,2.68a1.18,1.18,0,0,0,.95-.39c.74-.73.74-3.46.74-4.48C322.42,130.66,322.29,128.22,320.76,128.22Z" transform="translate(0 0)"/>
  <path class="cls-2" d="M47.5,166.28a3.66,3.66,0,0,1-.55,2.21,4.35,4.35,0,0,1-3.62,1.8,4.27,4.27,0,0,1-3.63-1.79,3.59,3.59,0,0,1-.47-2v-8H42.5v7.15c0,.57,0,1.69.82,1.69,1,0,.82-1.56.82-2.18V158.5H47.5Z" transform="translate(0 0)"/>
  <path class="cls-2" d="M52.92,159.86a2.47,2.47,0,0,1,2.23-1.64c2.77,0,3.17,3.95,3.17,6s-.48,6.09-3.2,6.09a2.55,2.55,0,0,1-2.2-1.57v1.33h-3.3v-19h3.3Zm.88,1.27c-1,0-1.11,2.42-1.11,3.12s.08,3.12,1.13,3.12S55,165,55,164.25,54.91,161.13,53.8,161.13Z" transform="translate(0 0)"/>
  <path class="cls-2" d="M61.81,156.69a2.06,2.06,0,1,1,2.09-2.06,2.06,2.06,0,0,1-2.09,2.06Zm-1.67,18.72v-17H63.5v17Z" transform="translate(0 0)"/>
  <path class="cls-2" d="M73.44,166.05a5.24,5.24,0,0,1-1.27,3.33,3.37,3.37,0,0,1-2.56.91,3.7,3.7,0,0,1-2.83-1,6.42,6.42,0,0,1-1.62-4.71,7.48,7.48,0,0,1,1.72-5.25,3.69,3.69,0,0,1,2.7-1.07,3.55,3.55,0,0,1,2.54.94,6.42,6.42,0,0,1,1.53,4.52,7.28,7.28,0,0,1-.08,1.14H68.34a3.53,3.53,0,0,0,0,.65,3.46,3.46,0,0,0,.48,2.06.88.88,0,0,0,.69.31,1,1,0,0,0,.66-.21,2.77,2.77,0,0,0,.5-1.58Zm-2.67-3.23a2.9,2.9,0,0,0-.53-1.89,1,1,0,0,0-.61-.24,1.13,1.13,0,0,0-.74.31,3.17,3.17,0,0,0-.5,1.82Z" transform="translate(0 0)"/>
  <path class="cls-2" d="M81.24,169.87a4.23,4.23,0,0,1-1.88.42c-3.17,0-4.31-3.28-4.31-5.91,0-2.83,1.09-6.19,4.52-6.19a4.19,4.19,0,0,1,1.67.34v2.86a1.22,1.22,0,0,0-.93-.39c-1.58,0-1.93,1.95-1.93,3.15s.27,3.09,1.88,3.09a1.65,1.65,0,0,0,1-.34Z" transform="translate(0 0)"/>
  <path class="cls-2" d="M87,161.13v8.92H83.7v-8.92H82.56v-2.7H83.7v-3.3H87v3.3h1.35v2.7Z" transform="translate(0 0)"/>
  <path class="cls-2" d="M91.18,156.69a2.06,2.06,0,1,1,2.09-2.06,2.06,2.06,0,0,1-2.09,2.06ZM89.5,170.05V158.43h3.3v11.62Z" transform="translate(0 0)"/>
  <path class="cls-2" d="M100.2,170.05h-3l-3.39-11.62h3.25c.56,2.18,1.17,4.37,1.62,6.58.08-.5.24-1,.34-1.43l1.22-5.15h3.44Z" transform="translate(0 0)"/>
  <path class="cls-2" d="M112.23,166.05a5.24,5.24,0,0,1-1.27,3.33,3.38,3.38,0,0,1-2.57.91,3.7,3.7,0,0,1-2.83-1,6.41,6.41,0,0,1-1.61-4.71,7.42,7.42,0,0,1,1.72-5.25,3.69,3.69,0,0,1,2.7-1.07,3.55,3.55,0,0,1,2.54.94,6.42,6.42,0,0,1,1.53,4.52,8.74,8.74,0,0,1-.08,1.14h-5.24v.65a3.38,3.38,0,0,0,.47,2.06.91.91,0,0,0,.69.31,1,1,0,0,0,.66-.21,2.71,2.71,0,0,0,.51-1.58Zm-2.67-3.23a2.9,2.9,0,0,0-.53-1.89,1,1,0,0,0-.61-.24,1.13,1.13,0,0,0-.74.31,3.17,3.17,0,0,0-.5,1.82Z" transform="translate(0 0)"/>
  <path class="cls-2" d="M124.89,152.71a5.48,5.48,0,0,1,3,.57,5.14,5.14,0,0,1,2.41,4.58c0,3.64-2.62,5.33-6.11,5.07v7.12H120.7V152.71Zm-.53,7.33c1.59,0,2.44-.55,2.44-2.21,0-1.38-.48-2.34-2-2.34h-.61V160Z" transform="translate(0 0)"/>
  <path class="cls-2" d="M139.3,166.05a5.24,5.24,0,0,1-1.27,3.33,3.37,3.37,0,0,1-2.56.91,3.7,3.7,0,0,1-2.83-1,6.41,6.41,0,0,1-1.61-4.71,7.48,7.48,0,0,1,1.71-5.25,3.69,3.69,0,0,1,2.7-1.07,3.55,3.55,0,0,1,2.54.94,6.42,6.42,0,0,1,1.53,4.52,7.28,7.28,0,0,1-.08,1.14H134.2a3.53,3.53,0,0,0,0,.65,3.46,3.46,0,0,0,.48,2.06.88.88,0,0,0,.69.31,1,1,0,0,0,.66-.21,2.77,2.77,0,0,0,.5-1.58Zm-2.67-3.23a2.9,2.9,0,0,0-.53-1.89,1,1,0,0,0-.61-.24,1.13,1.13,0,0,0-.74.31,3.17,3.17,0,0,0-.5,1.82Z" transform="translate(0 0)"/>
  <path class="cls-2" d="M147.29,161.16h-.48c-2,0-2.25,1.09-2.25,2.78v6.16h-3.3V158.43h3.3v1.43a3.65,3.65,0,0,1,2.73-1.85Z" transform="translate(0 0)"/>
  <path class="cls-2" d="M154.4,169.87a4.23,4.23,0,0,1-1.88.42c-3.17,0-4.31-3.28-4.31-5.91,0-2.83,1.09-6.19,4.52-6.19a4.19,4.19,0,0,1,1.67.34v2.86a1.25,1.25,0,0,0-.93-.39c-1.58,0-1.93,1.95-1.93,3.15s.27,3.09,1.88,3.09a1.65,1.65,0,0,0,1-.34Z" transform="translate(0 0)"/>
  <path class="cls-2" d="M163.89,166.05a5.24,5.24,0,0,1-1.27,3.33,3.37,3.37,0,0,1-2.56.91,3.7,3.7,0,0,1-2.83-1,6.42,6.42,0,0,1-1.62-4.71,7.48,7.48,0,0,1,1.72-5.25,3.69,3.69,0,0,1,2.7-1.07,3.55,3.55,0,0,1,2.54.94,6.42,6.42,0,0,1,1.53,4.52,7.28,7.28,0,0,1-.08,1.14h-5.23a3.53,3.53,0,0,0,0,.65,3.46,3.46,0,0,0,.48,2.06.89.89,0,0,0,.68.31,1.07,1.07,0,0,0,.67-.21,2.77,2.77,0,0,0,.5-1.58Zm-2.67-3.23a2.9,2.9,0,0,0-.53-1.89,1,1,0,0,0-.61-.24,1.13,1.13,0,0,0-.74.31,3.17,3.17,0,0,0-.5,1.82Z" transform="translate(0 0)"/>
  <path class="cls-2" d="M169.15,159.86a2.48,2.48,0,0,1,2.22-1.64c2.78,0,3.18,3.95,3.18,6s-.48,6.09-3.2,6.09a2.55,2.55,0,0,1-2.2-1.57v6.69h-3.3v-17h3.3Zm.87,1.27c-1,0-1.11,2.42-1.11,3.12s.08,3.12,1.14,3.12,1.16-2.39,1.16-3.12-.07-3.12-1.19-3.12Z" transform="translate(0 0)"/>
  <path class="cls-2" d="M179.94,161.13v8.92h-3.31v-8.92H175.5v-2.7h1.13v-3.3h3.31v3.3h1.35v2.7Z" transform="translate(0 0)"/>
  <path class="cls-2" d="M184.12,156.69a2.06,2.06,0,1,1,2.09-2.06,2.06,2.06,0,0,1-2.09,2.06Zm-1.62,13.36V158.43h3.31v11.62Z" transform="translate(0 0)"/>
  <path class="cls-2" d="M192,170.29c-3.39,0-4.5-3.23-4.5-6s1.11-6,4.5-6,4.44,3.15,4.44,6S195.5,170.29,192,170.29Zm0-9.16c-1.09,0-1.17,2.37-1.17,3.12s.08,3.12,1.17,3.12,1.11-2.42,1.11-3.12-.08-3.12-1.11-3.12Z" transform="translate(0 0)"/>
  <path class="cls-2" d="M203.21,170.05v-7.12c0-.52,0-1.46-.8-1.46-1,0-.9,1.2-.9,1.85v6.73h-3.3V158.43h3.29v1.82a3.18,3.18,0,0,1,2.81-2c2,0,2.19,1.87,2.19,3.43v8.4Z" transform="translate(0 0)"/>
  <path class="cls-2" d="M218.59,155.91v3.69h3.2v3.3h-3.2v7.15H215.1V152.71h7v3.2Z" transform="translate(0 0)"/>
  <path class="cls-2" d="M228.91,170.05v-1.33a2.55,2.55,0,0,1-2.2,1.57c-2.72,0-3.2-4.11-3.2-6.09s.4-6,3.17-6a2.47,2.47,0,0,1,2.23,1.64v-1.43h3.3V170Zm-.9-8.92c-1.09,0-1.17,2.39-1.17,3.12s.08,3.12,1.19,3.12,1.11-2.42,1.11-3.12S229.07,161.13,228,161.13Z" transform="translate(0 0)"/>
  <path class="cls-2" d="M240.17,169.87a4.23,4.23,0,0,1-1.88.42c-3.17,0-4.31-3.28-4.31-5.91,0-2.83,1.09-6.19,4.52-6.19a4.19,4.19,0,0,1,1.67.34v2.86a1.23,1.23,0,0,0-.92-.39c-1.59,0-1.94,1.95-1.94,3.15s.27,3.09,1.88,3.09a1.65,1.65,0,0,0,1-.34Z" transform="translate(0 0)"/>
  <path class="cls-2" d="M243.5,156.69a2.06,2.06,0,1,1,2.09-2.06,2.06,2.06,0,0,1-2.09,2.06Zm-1.66,13.36V158.43h3.3v11.62Z" transform="translate(0 0)"/>
  <path class="cls-2" d="M252.25,170.05v-1.33a2.54,2.54,0,0,1-2.19,1.57c-2.73,0-3.2-4.11-3.2-6.09s.39-6,3.17-6a2.45,2.45,0,0,1,2.22,1.64v-1.43h3.31V170Zm-.9-8.92c-1.08,0-1.16,2.39-1.16,3.12s.08,3.12,1.19,3.12,1.11-2.42,1.11-3.12S252.41,161.13,251.35,161.13Z" transform="translate(0 0)"/>
  <path class="cls-2" d="M257.67,170.05v-19H261v19Z" transform="translate(0 0)"/>
  <path class="cls-2" d="M276.16,170.05l-3.1-8v8h-3.49V152.71h3.78a6.94,6.94,0,0,1,3.84.83,5,5,0,0,1,2.09,4.21,4.77,4.77,0,0,1-2.52,4.42l3.07,7.88Zm-3.1-9.88a5.61,5.61,0,0,0,.58,0,2.14,2.14,0,0,0,2.26-2,1.7,1.7,0,0,0,0-.39c0-1.41-.63-2.37-2.17-2.37h-.66Z" transform="translate(0 0)"/>
  <path class="cls-2" d="M289.24,166.05a5.24,5.24,0,0,1-1.27,3.33,3.37,3.37,0,0,1-2.56.91,3.7,3.7,0,0,1-2.83-1,6.41,6.41,0,0,1-1.61-4.71,7.48,7.48,0,0,1,1.71-5.25,3.69,3.69,0,0,1,2.7-1.07,3.51,3.51,0,0,1,2.54.94,6.42,6.42,0,0,1,1.53,4.52,8.72,8.72,0,0,1-.07,1.14h-5.24a3.53,3.53,0,0,0,0,.65,3.46,3.46,0,0,0,.48,2.06.88.88,0,0,0,.69.31,1,1,0,0,0,.66-.21,2.77,2.77,0,0,0,.5-1.58Zm-2.67-3.23a2.9,2.9,0,0,0-.53-1.89,1,1,0,0,0-.61-.24,1.13,1.13,0,0,0-.74.31,3.17,3.17,0,0,0-.5,1.82Z" transform="translate(0 0)"/>
  <path class="cls-2" d="M297,169.87a4.23,4.23,0,0,1-1.88.42c-3.17,0-4.31-3.28-4.31-5.91,0-2.83,1.09-6.19,4.53-6.19a4.11,4.11,0,0,1,1.66.34v2.86a1.23,1.23,0,0,0-.92-.39c-1.59,0-1.93,1.95-1.93,3.15s.26,3.09,1.87,3.09a1.65,1.65,0,0,0,1-.34Z" transform="translate(0 0)"/>
  <path class="cls-2" d="M302.78,170.29c-3.39,0-4.5-3.23-4.5-6s1.11-6,4.5-6,4.44,3.15,4.44,6S306.27,170.29,302.78,170.29Zm0-9.16c-1.09,0-1.16,2.37-1.16,3.12s.07,3.12,1.16,3.12,1.11-2.42,1.11-3.12-.08-3.12-1.11-3.12Z" transform="translate(0 0)"/>
  <path class="cls-2" d="M317.5,170.78a5.37,5.37,0,0,1-.34,2.21,4.32,4.32,0,0,1-4.23,2.42c-2.83,0-3.94-1.64-4.16-4h2.91c.06.57.27,1.4,1.22,1.4,1.24,0,1.27-1.59,1.27-2.47V168.6c-.53.85-1.09,1.69-2.22,1.69-2.67,0-3.31-4-3.31-5.93s.4-6.14,3.17-6.14a2.69,2.69,0,0,1,2.36,1.61v-1.4h3.33Zm-4.31-9.65c-1.11,0-1.19,2.34-1.19,3.1s.08,3.09,1.19,3.09,1.14-2.39,1.14-3.09-.13-3.1-1.16-3.1Z" transform="translate(0 0)"/>
  <path class="cls-2" d="M324.59,170.05v-7.12c0-.52,0-1.46-.79-1.46-.95,0-.9,1.2-.9,1.85v6.73h-3.31V158.43h3.31v1.82a3.17,3.17,0,0,1,2.8-2c2,0,2.2,1.87,2.2,3.43v8.4Z" transform="translate(0 0)"/>
  <path class="cls-2" d="M331.73,156.69a2.06,2.06,0,1,1,2.09-2.06,2.06,2.06,0,0,1-2.09,2.06Zm-1.67,13.36V158.43h3.31v11.62Z" transform="translate(0 0)"/>
  <path class="cls-2" d="M339.08,161.13v8.92h-3.3v-8.92h-1.14v-2.7h1.14v-3.3h3.3v3.3h1.35v2.7Z" transform="translate(0 0)"/>
  <path class="cls-2" d="M343.26,156.69a2.06,2.06,0,1,1,2.09-2.06,2.06,2.06,0,0,1-2.09,2.06Zm-1.67,13.36V158.43h3.31v11.62Z" transform="translate(0 0)"/>
  <path class="cls-2" d="M351.14,170.29c-3.39,0-4.5-3.23-4.5-6s1.11-6,4.5-6,4.44,3.15,4.44,6S354.63,170.29,351.14,170.29Zm0-9.16c-1.09,0-1.17,2.37-1.17,3.12s.08,3.12,1.17,3.12,1.11-2.42,1.11-3.12-.08-3.12-1.11-3.12Z" transform="translate(0 0)"/>
  <path class="cls-2" d="M362.35,170.05v-7.12c0-.52,0-1.46-.79-1.46-1,0-.9,1.2-.9,1.85v6.73h-3.31V158.43h3.31v1.82a3.14,3.14,0,0,1,2.8-2c2,0,2.19,1.87,2.19,3.43v8.4Z" transform="translate(0 0)"/>
  <path class="cls-2" d="M35.76,187.08v14.17H32.27V187.08H29.55v-3.17h9v3.17Z" transform="translate(0 0)"/>
  <path class="cls-2" d="M46.82,197.25a5.24,5.24,0,0,1-1.27,3.33,3.38,3.38,0,0,1-2.57.91,3.7,3.7,0,0,1-2.83-1,6.38,6.38,0,0,1-1.65-4.75,7.42,7.42,0,0,1,1.76-5.24,3.69,3.69,0,0,1,2.7-1.07,3.55,3.55,0,0,1,2.54.94A6.42,6.42,0,0,1,47,194.89,8.74,8.74,0,0,1,47,196H41.71v.66a3.41,3.41,0,0,0,.47,2,.91.91,0,0,0,.69.31,1,1,0,0,0,.66-.21,2.7,2.7,0,0,0,.5-1.58ZM44.15,194a2.9,2.9,0,0,0-.53-1.89,1,1,0,0,0-.61-.24,1,1,0,0,0-.74.31,3.17,3.17,0,0,0-.5,1.82Z" transform="translate(0 0)"/>
  <path class="cls-2" d="M54.62,201.07a4.37,4.37,0,0,1-1.88.42c-3.17,0-4.31-3.28-4.31-5.91,0-2.83,1.08-6.19,4.52-6.19a4.19,4.19,0,0,1,1.67.34v2.86a1.29,1.29,0,0,0-.93-.39c-1.59,0-1.93,2-1.93,3.15s.26,3.09,1.88,3.09a1.72,1.72,0,0,0,1-.34Z" transform="translate(0 0)"/>
  <path class="cls-2" d="M61.2,201.25v-7.12c0-.52,0-1.46-.79-1.46-1,0-.9,1.2-.9,1.85v6.73H56.2V182.3h3.3v9.2a3.17,3.17,0,0,1,2.8-2c2,0,2.19,1.87,2.19,3.43v8.4Z" transform="translate(0 0)"/>
  <path class="cls-2" d="M71.62,201.25v-7.12c0-.52,0-1.46-.8-1.46s-.9,1.2-.9,1.85v6.73h-3.3V189.63h3.3v1.87a3.18,3.18,0,0,1,2.81-2c2,0,2.19,1.87,2.19,3.43v8.4Z" transform="translate(0 0)"/>
  <path class="cls-2" d="M81.19,201.5c-3.39,0-4.5-3.23-4.5-6s1.11-6,4.5-6,4.44,3.15,4.44,6S84.68,201.5,81.19,201.5Zm0-9.16c-1.09,0-1.17,2.37-1.17,3.12s.08,3.12,1.17,3.12,1.11-2.41,1.11-3.12-.08-3.13-1.11-3.13Z" transform="translate(0 0)"/>
  <path class="cls-2" d="M87.4,201.25V182.3h3.31v18.95Z" transform="translate(0 0)"/>
  <path class="cls-2" d="M97,201.5c-3.38,0-4.49-3.23-4.49-6s1.11-6,4.49-6,4.45,3.15,4.45,6S100.5,201.5,97,201.5Zm0-9.16c-1.08,0-1.16,2.37-1.16,3.12s.08,3.12,1.16,3.12,1.11-2.41,1.11-3.12S98,192.33,97,192.33Z" transform="translate(0 0)"/>
  <path class="cls-2" d="M111.67,202a5.21,5.21,0,0,1-.34,2.21,4.3,4.3,0,0,1-4.23,2.42c-2.83,0-3.94-1.64-4.15-4h2.91a1.25,1.25,0,0,0,1.21,1.4c1.25,0,1.27-1.58,1.27-2.47V199.8c-.53.85-1.08,1.69-2.22,1.69-2.67,0-3.3-4-3.3-5.93s.39-6.14,3.17-6.14a2.68,2.68,0,0,1,2.35,1.61v-1.4h3.33Zm-4.31-9.65c-1.11,0-1.19,2.34-1.19,3.1s.08,3.09,1.19,3.09,1.14-2.39,1.14-3.09S108.4,192.33,107.36,192.33Z" transform="translate(0 0)"/>
  <path class="cls-2" d="M115.5,187.89a2.06,2.06,0,1,1,2.09-2.06,2.06,2.06,0,0,1-2.09,2.06Zm-1.67,13.36V189.63h3.31v11.62Z" transform="translate(0 0)"/>
  <path class="cls-2" d="M127.14,197.25a5.24,5.24,0,0,1-1.27,3.33,3.37,3.37,0,0,1-2.56.91,3.7,3.7,0,0,1-2.83-1,6.42,6.42,0,0,1-1.62-4.71,7.48,7.48,0,0,1,1.72-5.25,3.69,3.69,0,0,1,2.7-1.07,3.55,3.55,0,0,1,2.54.94,6.42,6.42,0,0,1,1.53,4.52,7.28,7.28,0,0,1-.08,1.14H122a3.64,3.64,0,0,0,0,.66,3.42,3.42,0,0,0,.48,2,.89.89,0,0,0,.68.31,1.07,1.07,0,0,0,.67-.21,2.77,2.77,0,0,0,.5-1.58ZM124.5,194a2.9,2.9,0,0,0-.53-1.89,1,1,0,0,0-.61-.24,1.13,1.13,0,0,0-.74.31,3.17,3.17,0,0,0-.5,1.82Z" transform="translate(0 0)"/>
  <path class="cls-2" d="M134.62,192.77a2.3,2.3,0,0,0-1.56-.77.79.79,0,0,0-.84.74v.09c0,1.4,3.7,1.11,3.7,4.63a3.68,3.68,0,0,1-3.73,4,5.79,5.79,0,0,1-3.6-1.33l1.46-2.31a2.55,2.55,0,0,0,1.61.72,1,1,0,0,0,1.06-.94v-.06c0-1.45-3.86-1.25-3.86-4.76,0-2.23,1.82-3.43,3.94-3.43a5,5,0,0,1,3.15,1Z" transform="translate(0 0)"/>
  <path class="cls-2" d="M145.78,191v10.27H144.3V191H143v-1.35h1.27v-3.3h1.48v3.3h2V191Z" transform="translate(0 0)"/>
  <path class="cls-2" d="M152.1,201.43c-3,0-3.46-3.74-3.46-6s.42-6,3.46-6,3.31,3.82,3.31,6.06S155.14,201.43,152.1,201.43Zm0-10.63c-1.82,0-1.87,3.54-1.87,4.76s.07,4.5,1.87,4.5,1.8-3.46,1.8-4.63-.08-4.63-1.83-4.63Z" transform="translate(0 0)"/>
  <path class="cls-2" d="M169.89,202.5c0,2.1-.82,3.4-3.09,3.4-2.06,0-3.07-1.27-3.07-3.22a1.62,1.62,0,0,1,0-.44h1.51c0,1.16.13,2.28,1.61,2.28s1.51-1.14,1.51-2.26v-1.87a2.35,2.35,0,0,1-1.88.83c-3,0-3-3.95-3-6.06,0-1.95.22-5.74,2.94-5.74a2.35,2.35,0,0,1,2,1v-.8h1.5Zm-3.14-11.89c-1.59,0-1.72,2.68-1.72,5.1,0,1.25,0,4.32,1.85,4.32,1.32,0,1.51-1.54,1.59-2.5s.07-1.87.07-2.81c0-1.22,0-4.08-1.79-4.08Z" transform="translate(0 0)"/>
  <path class="cls-2" d="M178.5,197.3c-.08,1.87-.66,4.13-3,4.13-3,0-3.44-3.71-3.44-6s.45-6,3.34-6,3.2,3.51,3.2,5.56v.73h-5V196c0,1.17.19,4.06,1.88,4.06,1.32,0,1.51-1.77,1.53-2.76Zm-1.42-2.8c-.05-1-.18-3.69-1.69-3.69s-1.77,2.63-1.82,3.69Z" transform="translate(0 0)"/>
  <path class="cls-2" d="M182.69,191v10.27h-1.48V191h-1.27v-1.35h1.27v-3.3h1.48v3.3h2V191Z" transform="translate(0 0)"/>
  <path class="cls-2" d="M203,201.25H201.5v-8.61c0-1-.16-2-1.38-2-1.72,0-1.79,1.9-1.79,3.17v7.44h-1.51v-8.58c0-.86-.08-2-1.24-2-1.86,0-1.91,2.06-1.91,3.41v7.2h-1.48V189.63h1.48v1a3.17,3.17,0,0,1,2.3-1.14,2.3,2.3,0,0,1,2.17,1.35,2.86,2.86,0,0,1,2.43-1.35c1.91,0,2.41,1.22,2.41,2.88Z" transform="translate(0 0)"/>
  <path class="cls-2" d="M208.63,201.43c-3,0-3.47-3.74-3.47-6s.43-6,3.47-6,3.3,3.82,3.3,6.06S211.67,201.43,208.63,201.43Zm0-10.63c-1.82,0-1.88,3.54-1.88,4.76s.08,4.5,1.88,4.5,1.8-3.46,1.8-4.63-.08-4.63-1.83-4.63Z" transform="translate(0 0)"/>
  <path class="cls-2" d="M217.64,191.14c-2,0-2,1.56-2,3.07v7h-1.48V189.63h1.48v1.51a2.43,2.43,0,0,1,2-1.69Z" transform="translate(0 0)"/>
  <path class="cls-2" d="M225.13,197.3c-.08,1.87-.67,4.13-3,4.13-3,0-3.44-3.71-3.44-6s.45-6,3.33-6,3.2,3.51,3.2,5.56v.73h-5V196c0,1.17.18,4.06,1.87,4.06,1.33,0,1.51-1.77,1.54-2.76Zm-1.38-2.8c-.05-1-.18-3.69-1.69-3.69s-1.77,2.63-1.83,3.69Z" transform="translate(0 0)"/>
  <path class="cls-2" d="M234.33,187.06a1.12,1.12,0,0,1-1.12-1.07,1.1,1.1,0,1,1,2.2,0h0A1.09,1.09,0,0,1,234.33,187.06Zm-.77,14.19V189.63h1.51v11.62Z" transform="translate(0 0)"/>
  <path class="cls-2" d="M242.29,201.25V192.8c0-.94,0-2.16-1.33-2.16a1.69,1.69,0,0,0-1.4.76,3.48,3.48,0,0,0-.4,2v7.82h-1.48V189.63h1.48v.93a3.17,3.17,0,0,1,2.34-1.06c2,0,2.31,1.61,2.31,3.19v8.61Z" transform="translate(0 0)"/>
  <path class="cls-2" d="M248.34,191v10.27h-1.48V191H245.5v-1.35h1.35V185c0-1.48.39-3,2.19-3a3.54,3.54,0,0,1,1.33.26v1.61a1.81,1.81,0,0,0-1.09-.52c-.87,0-1,.78-1,1.43v4.84h2v1.35Z" transform="translate(0 0)"/>
  <path class="cls-2" d="M254.76,201.43c-3,0-3.46-3.74-3.46-6s.42-6,3.46-6,3.31,3.82,3.31,6.06S257.8,201.43,254.76,201.43Zm0-10.63c-1.83,0-1.88,3.54-1.88,4.76s.08,4.5,1.88,4.5,1.8-3.46,1.8-4.63-.06-4.63-1.82-4.63Z" transform="translate(0 0)"/>
  <path class="cls-2" d="M263.78,191.14c-2,0-2,1.56-2,3.07v7H260.3V189.63h1.48v1.51a2.43,2.43,0,0,1,2-1.69Z" transform="translate(0 0)"/>
  <path class="cls-2" d="M276.21,201.25h-1.48v-8.61c0-1-.16-2-1.38-2-1.72,0-1.8,1.9-1.8,3.17v7.44h-1.5v-8.58c0-.86-.08-2-1.25-2-1.85,0-1.9,2.06-1.9,3.41v7.2h-1.48V189.63h1.48v1a3.17,3.17,0,0,1,2.3-1.14,2.3,2.3,0,0,1,2.17,1.35,2.88,2.88,0,0,1,2.43-1.34c1.91,0,2.41,1.22,2.41,2.88Z" transform="translate(0 0)"/>
  <path class="cls-2" d="M283.35,201.25v-.93a2.36,2.36,0,0,1-2,1.11c-2.7,0-2.78-3.71-2.78-5.77,0-2.36.08-6.21,2.91-6.21a2.21,2.21,0,0,1,1.88,1v-.78h1.5v11.62Zm-1.51-10.63c-1.72,0-1.75,3-1.75,4.13s0,1.87.08,2.81.27,2.68,1.64,2.68a1.18,1.18,0,0,0,.95-.39c.74-.73.74-3.46.74-4.47C283.5,193.06,283.37,190.62,281.84,190.62Z" transform="translate(0 0)"/>
  <path class="cls-2" d="M289.43,191v10.27H288V191h-1.27v-1.35H288v-3.3h1.48v3.3h2V191Z" transform="translate(0 0)"/>
  <path class="cls-2" d="M293.5,187.06a1.11,1.11,0,0,1-1.11-1.07,1.09,1.09,0,0,1,1.06-1.12h.05a1.1,1.1,0,0,1,1.08,1.12h0A1.09,1.09,0,0,1,293.5,187.06Zm-.77,14.19V189.63h1.51v11.62Z" transform="translate(0 0)"/>
  <path class="cls-2" d="M299.87,201.43c-3,0-3.46-3.74-3.46-6s.42-6,3.46-6,3.31,3.82,3.31,6.06S302.91,201.43,299.87,201.43Zm0-10.63c-1.82,0-1.87,3.54-1.87,4.76s.08,4.5,1.87,4.5,1.8-3.46,1.8-4.63-.08-4.63-1.83-4.63Z" transform="translate(0 0)"/>
  <path class="cls-2" d="M310,201.25V192.8c0-.94,0-2.16-1.32-2.16a1.67,1.67,0,0,0-1.41.76,3.57,3.57,0,0,0-.39,2v7.82H305.4V189.63h1.48v.93a3.1,3.1,0,0,1,2.3-1.11c2,0,2.3,1.61,2.3,3.19v8.61Z" transform="translate(0 0)"/>
  <path class="cls-2" d="M323.3,201.43c-3.05,0-3.47-3.74-3.47-6s.42-6,3.47-6,3.3,3.82,3.3,6.06S326.34,201.43,323.3,201.43Zm0-10.63c-1.83,0-1.88,3.54-1.88,4.76s.08,4.5,1.88,4.5,1.8-3.46,1.8-4.63-.09-4.63-1.83-4.63Z" transform="translate(0 0)"/>
  <path class="cls-2" d="M333.42,201.25V192.8c0-.94,0-2.16-1.32-2.16a1.65,1.65,0,0,0-1.4.76,3.48,3.48,0,0,0-.4,2v7.82h-1.48V189.63h1.48v.93a3.14,3.14,0,0,1,2.3-1.11c2,0,2.3,1.61,2.3,3.19v8.61Z" transform="translate(0 0)"/>
  <path class="cls-2" d="M345.64,191v10.27h-1.48V191h-1.27v-1.35h1.27v-3.3h1.48v3.3h2V191Z" transform="translate(0 0)"/>
  <path class="cls-2" d="M353.57,201.25V192.8c0-.94,0-2.16-1.32-2.16a1.69,1.69,0,0,0-1.41.76,3.65,3.65,0,0,0-.39,2v7.82H349V182.3h1.53v8.26a3.1,3.1,0,0,1,2.3-1.11c1.93,0,2.3,1.35,2.3,3v8.81Z" transform="translate(0 0)"/>
  <path class="cls-2" d="M363.38,197.3c-.08,1.87-.66,4.13-3,4.13-3,0-3.44-3.71-3.44-6s.45-6,3.33-6,3.2,3.51,3.2,5.56v.73h-5V196c0,1.17.19,4.06,1.88,4.06,1.32,0,1.5-1.77,1.53-2.76ZM362,194.5c-.05-1-.18-3.69-1.69-3.69s-1.81,2.62-1.81,3.69Z" transform="translate(0 0)"/>
  <path class="cls-2" d="M32.8,222.18V232.5H31.32V222.18H30v-1.35h1.35v-4.65c0-1.49.4-3,2.2-3a3.34,3.34,0,0,1,1.32.26v1.61a1.75,1.75,0,0,0-1.09-.52c-.87,0-1,.78-1,1.43v4.84h2v1.35Z" transform="translate(0 0)"/>
  <path class="cls-2" d="M40.76,232.5v-1a2.34,2.34,0,0,1-2,1.11c-2.7,0-2.77-3.71-2.77-5.77,0-2.36.07-6.21,2.9-6.21a2.19,2.19,0,0,1,1.88,1v-.78h1.51V232.5Zm-1.51-10.63c-1.71,0-1.74,3-1.74,4.13s0,1.87.08,2.81.26,2.68,1.64,2.68a1.21,1.21,0,0,0,1-.39c.74-.73.74-3.46.74-4.47,0-2.37-.18-4.81-1.72-4.81Z" transform="translate(0 0)"/>
  <path class="cls-2" d="M49.57,232a2.92,2.92,0,0,1-1.7.59c-2.77,0-3.41-3.71-3.41-5.79s.48-6.19,3.49-6.19a3.18,3.18,0,0,1,1.62.44v1.72a2.13,2.13,0,0,0-1.48-.81c-1.88,0-2.07,3.41-2.07,4.71s.24,4.55,2,4.55a2,2,0,0,0,1.51-1Z" transform="translate(0 0)"/>
  <path class="cls-2" d="M53.35,222.18V232.5H51.87V222.18H50.6v-1.35h1.27V217.5h1.48v3.3h2v1.35Z" transform="translate(0 0)"/>
  <path class="cls-2" d="M59.67,232.63c-3,0-3.47-3.74-3.47-6s.42-6,3.47-6,3.3,3.82,3.3,6.06S62.71,232.63,59.67,232.63Zm0-10.63c-1.83,0-1.88,3.54-1.88,4.76s.08,4.5,1.88,4.5,1.8-3.46,1.8-4.63S61.38,222,59.64,222Z" transform="translate(0 0)"/>
  <path class="cls-2" d="M68.68,222.34c-2,0-2,1.56-2,3.07v7H65.2V220.83h1.48v1.51a2.43,2.43,0,0,1,2-1.69Z" transform="translate(0 0)"/>
  <path class="cls-2" d="M74.82,223.19a2.79,2.79,0,0,0-2-1.19,1.45,1.45,0,0,0-1.45,1.47v.06c0,2.27,3.8,2.68,3.8,5.83a3.15,3.15,0,0,1-3,3.27H72a3.63,3.63,0,0,1-2.19-.8v-1.72a3,3,0,0,0,2.08,1.15,1.7,1.7,0,0,0,1.72-1.7v-.1c0-2.29-3.8-3.07-3.8-5.87a2.83,2.83,0,0,1,2.72-2.94h.21a3.62,3.62,0,0,1,2.12.75Z" transform="translate(0 0)"/>
  <path class="cls-2" d="M84.57,221.61a2.21,2.21,0,0,1,1.91-1c2.88,0,2.9,3.69,2.9,5.77,0,2.5-.07,6.21-2.77,6.21a2.49,2.49,0,0,1-2-1.11v1H83.13v-19h1.48Zm1.54.21c-1.54,0-1.67,2.44-1.67,4.76,0,1,0,3.74.74,4.47a1.18,1.18,0,0,0,.95.39c1.38,0,1.54-1.67,1.64-2.68a25.62,25.62,0,0,0,.08-2.73C87.85,224.86,87.82,221.82,86.11,221.82Z" transform="translate(0 0)"/>
  <path class="cls-2" d="M97.55,228.5c-.07,1.87-.66,4.13-3,4.13-3,0-3.44-3.71-3.44-5.95s.45-6,3.33-6,3.2,3.51,3.2,5.56V227h-5v.26c0,1.17.18,4.06,1.87,4.06,1.33,0,1.51-1.77,1.54-2.76Zm-1.37-2.81c-.05-1-.19-3.69-1.69-3.69s-1.77,2.63-1.83,3.69Z" transform="translate(0 0)"/>
  <path class="cls-2" d="M104.5,232.5V224c0-.94,0-2.16-1.32-2.16a1.69,1.69,0,0,0-1.4.76,3.56,3.56,0,0,0-.4,2v7.9H99.9v-19h1.48v8.27a3.08,3.08,0,0,1,2.3-1.12c1.94,0,2.31,1.35,2.31,3v8.85Z" transform="translate(0 0)"/>
  <path class="cls-2" d="M109.32,218.26a1.11,1.11,0,0,1-1.11-1.07,1.09,1.09,0,0,1,1.06-1.12h0a1.1,1.1,0,0,1,1.08,1.12h0A1.09,1.09,0,0,1,109.32,218.26Zm-.77,14.24V220.83h1.51V232.5Z" transform="translate(0 0)"/>
  <path class="cls-2" d="M117.28,232.5V224c0-.94,0-2.16-1.32-2.16a1.69,1.69,0,0,0-1.41.76,3.57,3.57,0,0,0-.39,2v7.9h-1.48V220.83h1.48v.94a3.08,3.08,0,0,1,2.3-1.12c2,0,2.3,1.61,2.3,3.2v8.65Z" transform="translate(0 0)"/>
  <path class="cls-2" d="M125.76,232.5v-1a2.36,2.36,0,0,1-2,1.11c-2.73,0-2.78-3.87-2.78-5.9,0-2.26,0-6.08,2.94-6.08a2.18,2.18,0,0,1,1.87,1V213.5h1.49v19Zm-1.53-10.63c-1.69,0-1.72,3-1.72,4.13s0,1.87.08,2.81.24,2.68,1.61,2.68a1.25,1.25,0,0,0,1-.39c.72-.7.72-3.43.72-4.4,0-2.49-.16-4.88-1.69-4.88Z" transform="translate(0 0)"/>
  <path class="cls-2" d="M130.89,232.63a1.21,1.21,0,0,1-1.19-1.13,1.19,1.19,0,1,1,1.21,1.17h0Z" transform="translate(0 0)"/>
  <path class="cls-2" d="M36.13,156.6a4,4,0,0,0-2.51-1.11A1.62,1.62,0,0,0,31.88,157v.2c0,3,5.29,2.93,5.29,7.77,0,3-1.83,5.36-5,5.36a5.49,5.49,0,0,1-3-.89v-3.27a4.66,4.66,0,0,0,2.59.93,1.88,1.88,0,0,0,2.05-1.69,1.77,1.77,0,0,0,0-.23,1.93,1.93,0,0,0-.18-.88,5.64,5.64,0,0,0-1.88-1.62c-2-1.35-3.25-2.6-3.25-5.12,0-2.73,1.61-5.12,4.6-5.12a5.88,5.88,0,0,1,3.09.83Z" transform="translate(0 0)"/>
</svg>
