<svg id="Ebene_1" data-name="Ebene 1" xmlns="http://www.w3.org/2000/svg" width="382.61" height="256.48" viewBox="0 0 382.61 256.48"><defs><style>.cls-1{fill:none;stroke:#c7f700;stroke-width:8px;}.cls-2{fill:#fde8e9;}</style></defs><g id="Gruppe_432" data-name="Gruppe 432"><g id="Gruppe_430" data-name="Gruppe 430"><g id="Gruppe_93" data-name="Gruppe 93"><path id="Pfad_50-2" data-name="Pfad 50-2" class="cls-1" d="M438.11,111.59V26.5h-76" transform="translate(-59.5 -22.5)"/><path id="Pfad_51-2" data-name="Pfad 51-2" class="cls-1" d="M438.11,189.89V275h-76" transform="translate(-59.5 -22.5)"/><path id="Pfad_52-2" data-name="Pfad 52-2" class="cls-1" d="M63.5,111.59V26.5h76" transform="translate(-59.5 -22.5)"/><path id="Pfad_53-2" data-name="Pfad 53-2" class="cls-1" d="M63.5,189.89V275h76" transform="translate(-59.5 -22.5)"/></g></g></g><path class="cls-2" d="M96.51,67.75l-4.1-8.47v8.47h-1.8V50.41h2.22a6.4,6.4,0,0,1,3,.49c1.59.84,1.91,2.55,1.91,4.16,0,2.4-.82,4.16-3.49,4.37l4.09,8.32Zm-3-9.75C95.61,58,96,56.78,96,55c0-2-.42-3.07-2.67-3.07h-.87V58Z" transform="translate(-59.5 -22.5)"/><path class="cls-2" d="M105.79,63.8c-.08,1.87-.66,4.13-3,4.13-3,0-3.44-3.71-3.44-6s.45-6,3.33-6,3.2,3.51,3.2,5.56c0,.24,0,.5,0,.73h-5v.26c0,1.17.18,4.06,1.88,4.06,1.32,0,1.5-1.77,1.53-2.76ZM104.41,61c0-1-.18-3.69-1.69-3.69S101,59.93,100.9,61Z" transform="translate(-59.5 -22.5)"/><path class="cls-2" d="M108.09,67.75v-19h1.5v19Z" transform="translate(-59.5 -22.5)"/><path class="cls-2" d="M113,53.56a1.1,1.1,0,1,1,1.08-1.07A1.08,1.08,0,0,1,113,53.56Zm-.77,14.19V56.13h1.51V67.75Z" transform="translate(-59.5 -22.5)"/><path class="cls-2" d="M120.83,67.75v-.93a2.33,2.33,0,0,1-2,1.11c-2.7,0-2.77-3.71-2.77-5.77,0-2.36.07-6.21,2.9-6.21a2.19,2.19,0,0,1,1.88,1v-.78h1.51V67.75Zm-1.51-10.63c-1.71,0-1.74,3-1.74,4.13,0,1,0,1.87.08,2.81s.26,2.68,1.64,2.68a1.2,1.2,0,0,0,1-.39c.74-.73.74-3.46.74-4.47C121,59.56,120.86,57.12,119.32,57.12Z" transform="translate(-59.5 -22.5)"/><path class="cls-2" d="M126.46,56.91a2.2,2.2,0,0,1,1.91-1c2.88,0,2.91,3.69,2.91,5.77,0,2.5-.08,6.21-2.78,6.21a2.49,2.49,0,0,1-2-1.11v.93H125v-19h1.48Zm1.54.21c-1.54,0-1.67,2.44-1.67,4.76,0,1,0,3.74.74,4.47a1.21,1.21,0,0,0,1,.39c1.38,0,1.54-1.67,1.64-2.68s.08-1.82.08-2.73C129.74,60.16,129.72,57.12,128,57.12Z" transform="translate(-59.5 -22.5)"/><path class="cls-2" d="M134.21,53.56a1.1,1.1,0,1,1,1.08-1.07A1.08,1.08,0,0,1,134.21,53.56Zm-.77,14.19V56.13H135V67.75Z" transform="translate(-59.5 -22.5)"/><path class="cls-2" d="M137.57,67.75v-19h1.51v19Z" transform="translate(-59.5 -22.5)"/><path class="cls-2" d="M142.46,53.56a1.1,1.1,0,1,1,1.08-1.07A1.08,1.08,0,0,1,142.46,53.56Zm-.77,14.19V56.13h1.51V67.75Z" transform="translate(-59.5 -22.5)"/><path class="cls-2" d="M147.75,57.48V67.75h-1.48V57.48H145V56.13h1.27v-3.3h1.48v3.3h2v1.35Z" transform="translate(-59.5 -22.5)"/><path class="cls-2" d="M153.64,72.43h-1.58l1.32-5-2.8-11.31h1.5l1.48,6.45a27.12,27.12,0,0,1,.56,2.91c.1-.73.29-1.43.47-2.18l1.72-7.18h1.56Z" transform="translate(-59.5 -22.5)"/><path class="cls-2" d="M166.25,53.56a1.1,1.1,0,1,1,1.09-1.07A1.09,1.09,0,0,1,166.25,53.56Zm-.76,14.19V56.13H167V67.75Z" transform="translate(-59.5 -22.5)"/><path class="cls-2" d="M174.08,58.5a2.78,2.78,0,0,0-2-1.2,1.46,1.46,0,0,0-1.45,1.53c0,2.27,3.81,2.68,3.81,5.83a3.16,3.16,0,0,1-3.18,3.27,3.61,3.61,0,0,1-2.19-.8V65.41a3,3,0,0,0,2.09,1.15,1.71,1.71,0,0,0,1.72-1.8c0-2.29-3.81-3.07-3.81-5.87A2.84,2.84,0,0,1,172,56a3.53,3.53,0,0,1,2.11.75Z" transform="translate(-59.5 -22.5)"/><path class="cls-2" d="M185.37,67.93c-3,0-3.46-3.74-3.46-6s.42-6,3.46-6,3.31,3.82,3.31,6.06S188.41,67.93,185.37,67.93Zm0-10.63c-1.82,0-1.87,3.54-1.87,4.76s.07,4.5,1.87,4.5,1.8-3.46,1.8-4.63S187.09,57.3,185.34,57.3Z" transform="translate(-59.5 -22.5)"/><path class="cls-2" d="M195.5,67.75V59.3c0-.93,0-2.16-1.33-2.16a1.68,1.68,0,0,0-1.4.76,3.6,3.6,0,0,0-.39,2v7.82H190.9V56.13h1.48v.94a3.1,3.1,0,0,1,2.3-1.12c2,0,2.3,1.61,2.3,3.2v8.6Z" transform="translate(-59.5 -22.5)"/><path class="cls-2" d="M205.6,63.8c-.08,1.87-.66,4.13-3,4.13-3,0-3.44-3.71-3.44-6s.45-6,3.33-6,3.2,3.51,3.2,5.56c0,.24,0,.5,0,.73h-5v.26c0,1.17.18,4.06,1.88,4.06,1.32,0,1.5-1.77,1.53-2.76ZM204.22,61c-.05-1-.18-3.69-1.69-3.69s-1.77,2.63-1.82,3.69Z" transform="translate(-59.5 -22.5)"/><path class="cls-2" d="M217.07,67.93c-3,0-3.46-3.74-3.46-6s.42-6,3.46-6,3.31,3.82,3.31,6.06S220.11,67.93,217.07,67.93Zm0-10.63c-1.82,0-1.87,3.54-1.87,4.76s.08,4.5,1.87,4.5,1.8-3.46,1.8-4.63S218.79,57.3,217,57.3Z" transform="translate(-59.5 -22.5)"/><path class="cls-2" d="M224.53,57.48V67.75h-1.48V57.48H221.7V56.13h1.35V51.48c0-1.49.39-3,2.19-3a3.34,3.34,0,0,1,1.32.26v1.61a1.75,1.75,0,0,0-1.08-.52c-.87,0-.95.78-.95,1.43v4.84h2v1.35Z" transform="translate(-59.5 -22.5)"/><path class="cls-2" d="M236.08,57.48V67.75H234.6V57.48h-1.27V56.13h1.27v-3.3h1.48v3.3h2v1.35Z" transform="translate(-59.5 -22.5)"/><path class="cls-2" d="M244,67.75V59.3c0-.93,0-2.16-1.32-2.16a1.68,1.68,0,0,0-1.4.76,3.57,3.57,0,0,0-.4,2v7.82h-1.48v-19h1.48v8.27a3.11,3.11,0,0,1,2.3-1.12c1.93,0,2.3,1.35,2.3,3v8.81Z" transform="translate(-59.5 -22.5)"/><path class="cls-2" d="M251.63,57.64c-2,0-2,1.56-2,3.07v7h-1.48V56.13h1.48v1.51a2.42,2.42,0,0,1,2-1.69Z" transform="translate(-59.5 -22.5)"/><path class="cls-2" d="M259.11,63.8c-.08,1.87-.66,4.13-3,4.13-3,0-3.44-3.71-3.44-6s.45-6,3.34-6,3.2,3.51,3.2,5.56c0,.24,0,.5,0,.73h-5v.26c0,1.17.19,4.06,1.88,4.06,1.32,0,1.51-1.77,1.53-2.76ZM257.73,61c-.05-1-.18-3.69-1.69-3.69s-1.77,2.63-1.82,3.69Z" transform="translate(-59.5 -22.5)"/><path class="cls-2" d="M267.39,63.8c-.08,1.87-.67,4.13-3,4.13-3,0-3.44-3.71-3.44-6s.45-6,3.33-6,3.2,3.51,3.2,5.56c0,.24,0,.5,0,.73h-5v.26c0,1.17.18,4.06,1.87,4.06,1.33,0,1.51-1.77,1.54-2.76ZM266,61c-.05-1-.18-3.69-1.69-3.69s-1.77,2.63-1.83,3.69Z" transform="translate(-59.5 -22.5)"/><path class="cls-2" d="M277.78,57.48V67.75h-1.49V57.48H275V56.13h1.34V51.48c0-1.49.4-3,2.2-3a3.34,3.34,0,0,1,1.32.26v1.61a1.75,1.75,0,0,0-1.08-.52c-.87,0-1,.78-1,1.43v4.84h2v1.35Z" transform="translate(-59.5 -22.5)"/><path class="cls-2" d="M285.73,67.75v-.93a2.32,2.32,0,0,1-2,1.11c-2.69,0-2.77-3.71-2.77-5.77,0-2.36.08-6.21,2.91-6.21a2.17,2.17,0,0,1,1.87,1v-.78h1.51V67.75Zm-1.5-10.63c-1.72,0-1.75,3-1.75,4.13,0,1,0,1.87.08,2.81s.27,2.68,1.64,2.68a1.18,1.18,0,0,0,.95-.39c.74-.73.74-3.46.74-4.47C285.89,59.56,285.76,57.12,284.23,57.12Z" transform="translate(-59.5 -22.5)"/><path class="cls-2" d="M294.54,67.34a2.93,2.93,0,0,1-1.69.59c-2.78,0-3.41-3.71-3.41-5.79s.47-6.19,3.49-6.19a3.22,3.22,0,0,1,1.61.44v1.72a2.11,2.11,0,0,0-1.48-.81c-1.88,0-2.06,3.41-2.06,4.71s.23,4.55,2,4.55a2,2,0,0,0,1.51-1Z" transform="translate(-59.5 -22.5)"/><path class="cls-2" d="M298.32,57.48V67.75h-1.48V57.48h-1.27V56.13h1.27v-3.3h1.48v3.3h2v1.35Z" transform="translate(-59.5 -22.5)"/><path class="cls-2" d="M304.64,67.93c-3,0-3.47-3.74-3.47-6s.43-6,3.47-6,3.3,3.82,3.3,6.06S307.68,67.93,304.64,67.93Zm0-10.63c-1.82,0-1.88,3.54-1.88,4.76s.08,4.5,1.88,4.5,1.8-3.46,1.8-4.63S306.36,57.3,304.61,57.3Z" transform="translate(-59.5 -22.5)"/><path class="cls-2" d="M313.65,57.64c-2,0-2,1.56-2,3.07v7h-1.48V56.13h1.48v1.51a2.43,2.43,0,0,1,2-1.69Z" transform="translate(-59.5 -22.5)"/><path class="cls-2" d="M319.79,58.5a2.78,2.78,0,0,0-2-1.2,1.46,1.46,0,0,0-1.45,1.53c0,2.27,3.81,2.68,3.81,5.83a3.16,3.16,0,0,1-3.18,3.27,3.61,3.61,0,0,1-2.19-.8V65.41a3,3,0,0,0,2.09,1.15,1.71,1.71,0,0,0,1.71-1.8c0-2.29-3.8-3.07-3.8-5.87A2.83,2.83,0,0,1,317.67,56a3.53,3.53,0,0,1,2.12.75Z" transform="translate(-59.5 -22.5)"/><path class="cls-2" d="M329.54,56.91a2.21,2.21,0,0,1,1.91-1c2.88,0,2.91,3.69,2.91,5.77,0,2.5-.08,6.21-2.78,6.21a2.51,2.51,0,0,1-2-1.11v.93h-1.48v-19h1.48Zm1.54.21c-1.54,0-1.67,2.44-1.67,4.76,0,1,0,3.74.74,4.47a1.21,1.21,0,0,0,1,.39c1.38,0,1.54-1.67,1.64-2.68s.08-1.82.08-2.73C332.82,60.16,332.8,57.12,331.08,57.12Z" transform="translate(-59.5 -22.5)"/><path class="cls-2" d="M342.53,63.8c-.08,1.87-.66,4.13-3,4.13-3,0-3.44-3.71-3.44-6s.45-6,3.33-6,3.2,3.51,3.2,5.56c0,.24,0,.5,0,.73h-5v.26c0,1.17.18,4.06,1.88,4.06,1.32,0,1.5-1.77,1.53-2.76ZM341.15,61c0-1-.18-3.69-1.69-3.69s-1.77,2.63-1.83,3.69Z" transform="translate(-59.5 -22.5)"/><path class="cls-2" d="M349.43,67.75V59.3c0-.93,0-2.16-1.32-2.16a1.68,1.68,0,0,0-1.41.76,3.65,3.65,0,0,0-.39,2v7.82h-1.48v-19h1.48v8.27a3.1,3.1,0,0,1,2.3-1.12c1.93,0,2.3,1.35,2.3,3v8.81Z" transform="translate(-59.5 -22.5)"/><path class="cls-2" d="M354.29,53.56a1.1,1.1,0,1,1,1.09-1.07A1.09,1.09,0,0,1,354.29,53.56Zm-.77,14.19V56.13H355V67.75Z" transform="translate(-59.5 -22.5)"/><path class="cls-2" d="M362.25,67.75V59.3c0-.93,0-2.16-1.32-2.16a1.66,1.66,0,0,0-1.4.76,3.53,3.53,0,0,0-.4,2v7.82h-1.48V56.13h1.48v.94a3.1,3.1,0,0,1,2.3-1.12c2,0,2.3,1.61,2.3,3.2v8.6Z" transform="translate(-59.5 -22.5)"/><path class="cls-2" d="M370.74,67.75v-.93a2.38,2.38,0,0,1-2,1.11c-2.72,0-2.78-3.87-2.78-5.9,0-2.26,0-6.08,2.94-6.08a2.19,2.19,0,0,1,1.88,1V48.8h1.48v19ZM369.2,57.12c-1.69,0-1.72,3-1.72,4.13,0,1,0,1.87.08,2.81s.24,2.68,1.62,2.68a1.27,1.27,0,0,0,1-.39c.71-.7.71-3.43.71-4.4C370.87,59.51,370.74,57.12,369.2,57.12Z" transform="translate(-59.5 -22.5)"/><path class="cls-2" d="M383,57.48V67.75h-1.48V57.48H380.2V56.13h1.27v-3.3H383v3.3h2v1.35Z" transform="translate(-59.5 -22.5)"/><path class="cls-2" d="M390.88,67.75V59.3c0-.93,0-2.16-1.32-2.16a1.68,1.68,0,0,0-1.4.76,3.57,3.57,0,0,0-.4,2v7.82h-1.48v-19h1.48v8.27a3.13,3.13,0,0,1,2.3-1.12c1.94,0,2.31,1.35,2.31,3v8.81Z" transform="translate(-59.5 -22.5)"/><path class="cls-2" d="M400.69,63.8c-.08,1.87-.66,4.13-3,4.13-3,0-3.44-3.71-3.44-6s.45-6,3.33-6,3.2,3.51,3.2,5.56c0,.24,0,.5,0,.73h-5v.26c0,1.17.18,4.06,1.87,4.06,1.32,0,1.51-1.77,1.54-2.76ZM399.32,61c-.05-1-.19-3.69-1.69-3.69s-1.78,2.63-1.83,3.69Z" transform="translate(-59.5 -22.5)"/><path class="cls-2" d="M94.84,89.7a2.78,2.78,0,0,0-2-1.2A1.46,1.46,0,0,0,91.35,90c0,2.27,3.81,2.68,3.81,5.83A3.16,3.16,0,0,1,92,99.13a3.64,3.64,0,0,1-2.2-.8V96.61a3,3,0,0,0,2.09,1.15A1.71,1.71,0,0,0,93.6,96c0-2.29-3.81-3.07-3.81-5.87a2.84,2.84,0,0,1,2.94-2.94,3.53,3.53,0,0,1,2.11.75Z" transform="translate(-59.5 -22.5)"/><path class="cls-2" d="M103.09,96.12a3.07,3.07,0,0,1-6.13,0V87.33h1.48v7.88c0,1.19,0,2.55,1.64,2.55s1.53-1.56,1.53-2.71V87.33h1.48Z" transform="translate(-59.5 -22.5)"/><path class="cls-2" d="M107.21,88.11a2.21,2.21,0,0,1,1.91-1c2.88,0,2.91,3.69,2.91,5.77,0,2.5-.08,6.21-2.78,6.21a2.51,2.51,0,0,1-2-1.11V99h-1.48V80h1.48Zm1.54.21c-1.54,0-1.67,2.44-1.67,4.76,0,1,0,3.74.74,4.47a1.21,1.21,0,0,0,1,.39c1.38,0,1.54-1.67,1.64-2.68s.08-1.82.08-2.73C110.49,91.36,110.47,88.32,108.75,88.32Z" transform="translate(-59.5 -22.5)"/><path class="cls-2" d="M115,84.76a1.1,1.1,0,1,1,1.11-1.07A1.11,1.11,0,0,1,115,84.76Zm-.77,18.87V87.33h1.54v16.3Z" transform="translate(-59.5 -22.5)"/><path class="cls-2" d="M124.4,95c-.08,1.87-.66,4.13-3,4.13-3,0-3.43-3.71-3.43-5.95s.44-6,3.33-6,3.2,3.51,3.2,5.56c0,.24,0,.5,0,.73h-5v.26c0,1.17.19,4.06,1.88,4.06,1.32,0,1.51-1.77,1.53-2.76ZM123,92.19c-.06-1-.19-3.69-1.7-3.69s-1.77,2.63-1.82,3.69Z" transform="translate(-59.5 -22.5)"/><path class="cls-2" d="M131.35,98.54a2.91,2.91,0,0,1-1.69.59c-2.77,0-3.41-3.71-3.41-5.79s.48-6.19,3.49-6.19a3.2,3.2,0,0,1,1.61.44v1.72a2.09,2.09,0,0,0-1.48-.81c-1.87,0-2.06,3.41-2.06,4.71s.24,4.55,2,4.55a2,2,0,0,0,1.5-1Z" transform="translate(-59.5 -22.5)"/><path class="cls-2" d="M135.13,88.68V99h-1.48V88.68h-1.27V87.33h1.27V84h1.48v3.3h2v1.35Z" transform="translate(-59.5 -22.5)"/><path class="cls-2" d="M139.21,84.76a1.1,1.1,0,1,1,1.08-1.07A1.09,1.09,0,0,1,139.21,84.76ZM138.44,99V87.33H140V99Z" transform="translate(-59.5 -22.5)"/><path class="cls-2" d="M145.74,99h-1.62l-2.69-11.62H143l1.56,6.94a24.15,24.15,0,0,1,.42,2.5c.14-.81.27-1.64.43-2.45l1.45-7h1.53Z" transform="translate(-59.5 -22.5)"/><path class="cls-2" d="M155.65,95c-.08,1.87-.66,4.13-3,4.13-3,0-3.43-3.71-3.43-5.95s.45-6,3.33-6,3.2,3.51,3.2,5.56c0,.24,0,.5,0,.73h-5v.26c0,1.17.19,4.06,1.88,4.06,1.32,0,1.51-1.77,1.54-2.76Zm-1.37-2.81c-.06-1-.19-3.69-1.7-3.69s-1.77,2.63-1.82,3.69Z" transform="translate(-59.5 -22.5)"/><path class="cls-2" d="M165.59,88.11a2.16,2.16,0,0,1,1.88-1c2.91,0,2.94,3.66,2.94,5.77,0,2.5-.08,6.21-2.78,6.21a2.49,2.49,0,0,1-2-1.11v5.61h-1.48V87.33h1.48Zm1.54.21c-1.54,0-1.67,2.44-1.67,4.76,0,1,0,3.74.74,4.47a1.21,1.21,0,0,0,1,.39c1.38,0,1.54-1.67,1.64-2.68s.08-1.82.08-2.73C168.87,91.36,168.85,88.32,167.13,88.32Z" transform="translate(-59.5 -22.5)"/><path class="cls-2" d="M178.58,95c-.08,1.87-.66,4.13-3,4.13-3,0-3.44-3.71-3.44-5.95s.45-6,3.33-6,3.2,3.51,3.2,5.56c0,.24,0,.5,0,.73h-5v.26c0,1.17.18,4.06,1.87,4.06,1.33,0,1.51-1.77,1.54-2.76Zm-1.38-2.81c0-1-.18-3.69-1.69-3.69s-1.77,2.63-1.83,3.69Z" transform="translate(-59.5 -22.5)"/><path class="cls-2" d="M184.37,88.84c-2,0-2,1.56-2,3.07v7h-1.48V87.33h1.48v1.51a2.41,2.41,0,0,1,2-1.69Z" transform="translate(-59.5 -22.5)"/><path class="cls-2" d="M190.53,98.54a2.94,2.94,0,0,1-1.7.59c-2.77,0-3.41-3.71-3.41-5.79s.48-6.19,3.49-6.19a3.26,3.26,0,0,1,1.62.44v1.72A2.13,2.13,0,0,0,189,88.5c-1.87,0-2.06,3.41-2.06,4.71s.24,4.55,2,4.55a2,2,0,0,0,1.51-1Z" transform="translate(-59.5 -22.5)"/><path class="cls-2" d="M198.35,95c-.08,1.87-.66,4.13-3,4.13-3,0-3.43-3.71-3.43-5.95s.45-6,3.33-6,3.2,3.51,3.2,5.56c0,.24,0,.5,0,.73h-5v.26c0,1.17.19,4.06,1.88,4.06,1.32,0,1.51-1.77,1.53-2.76ZM197,92.19c-.06-1-.19-3.69-1.69-3.69s-1.78,2.63-1.83,3.69Z" transform="translate(-59.5 -22.5)"/><path class="cls-2" d="M202.13,88.11a2.15,2.15,0,0,1,1.88-1c2.91,0,2.94,3.66,2.94,5.77,0,2.5-.08,6.21-2.78,6.21a2.49,2.49,0,0,1-2-1.11v5.61h-1.48V87.33h1.48Zm1.54.21c-1.54,0-1.67,2.44-1.67,4.76,0,1,0,3.74.74,4.47a1.2,1.2,0,0,0,.95.39c1.38,0,1.54-1.67,1.64-2.68s.08-1.82.08-2.73C205.41,91.36,205.38,88.32,203.67,88.32Z" transform="translate(-59.5 -22.5)"/><path class="cls-2" d="M211.07,88.68V99h-1.48V88.68h-1.27V87.33h1.27V84h1.48v3.3h2v1.35Z" transform="translate(-59.5 -22.5)"/><path class="cls-2" d="M215.14,84.76a1.1,1.1,0,1,1,1.08-1.07A1.08,1.08,0,0,1,215.14,84.76ZM214.37,99V87.33h1.51V99Z" transform="translate(-59.5 -22.5)"/><path class="cls-2" d="M221.51,99.13c-3,0-3.46-3.74-3.46-6s.42-6,3.46-6,3.31,3.82,3.31,6.06S224.55,99.13,221.51,99.13Zm0-10.63c-1.83,0-1.88,3.54-1.88,4.76s.08,4.5,1.88,4.5,1.79-3.46,1.79-4.63S223.23,88.5,221.49,88.5Z" transform="translate(-59.5 -22.5)"/><path class="cls-2" d="M231.64,99V90.5c0-.93,0-2.16-1.32-2.16a1.66,1.66,0,0,0-1.4.76,3.53,3.53,0,0,0-.4,2V99H227V87.33h1.48v.94a3.1,3.1,0,0,1,2.3-1.12c2,0,2.3,1.61,2.3,3.2V99Z" transform="translate(-59.5 -22.5)"/><path class="cls-2" d="M244.94,99.13c-3,0-3.47-3.74-3.47-6s.43-6,3.47-6,3.3,3.82,3.3,6.06S248,99.13,244.94,99.13Zm0-10.63c-1.82,0-1.88,3.54-1.88,4.76s.08,4.5,1.88,4.5,1.8-3.46,1.8-4.63S246.66,88.5,244.91,88.5Z" transform="translate(-59.5 -22.5)"/><path class="cls-2" d="M252.39,88.68V99h-1.48V88.68h-1.35V87.33h1.35V82.68c0-1.49.4-3,2.2-3a3.34,3.34,0,0,1,1.32.26v1.61a1.78,1.78,0,0,0-1.08-.52c-.88,0-1,.78-1,1.43v4.84h2v1.35Z" transform="translate(-59.5 -22.5)"/><path class="cls-2" d="M263.79,83.09V89.2h3.75v1.48h-3.75V99h-1.64V81.61h5.61v1.48Z" transform="translate(-59.5 -22.5)"/><path class="cls-2" d="M276,99l-4.1-8.47V99h-1.79V81.61h2.22a6.42,6.42,0,0,1,3,.49c1.58.84,1.9,2.55,1.9,4.16,0,2.4-.82,4.16-3.49,4.37l4.1,8.32Zm-3-9.75c2.11,0,2.46-1.22,2.46-3,0-2-.43-3.07-2.67-3.07h-.88V89.2Z" transform="translate(-59.5 -22.5)"/><path class="cls-2" d="M282.19,83.09V99h-1.64V83.09h-2.64V81.61h6.93v1.48Z" transform="translate(-59.5 -22.5)"/><path class="cls-2" d="M289.89,89.7a2.78,2.78,0,0,0-2-1.2A1.46,1.46,0,0,0,286.4,90c0,2.27,3.8,2.68,3.8,5.83A3.15,3.15,0,0,1,287,99.13a3.61,3.61,0,0,1-2.19-.8V96.61a3,3,0,0,0,2.08,1.15,1.71,1.71,0,0,0,1.72-1.8c0-2.29-3.8-3.07-3.8-5.87a2.83,2.83,0,0,1,2.93-2.94,3.56,3.56,0,0,1,2.12.75Z" transform="translate(-59.5 -22.5)"/><path class="cls-2" d="M293,99.13A1.2,1.2,0,0,1,291.82,98,1.19,1.19,0,1,1,293,99.13Z" transform="translate(-59.5 -22.5)"/><path class="cls-2" d="M305.83,83.09V99h-1.64V83.09h-2.65V81.61h6.93v1.48Z" transform="translate(-59.5 -22.5)"/><path class="cls-2" d="M313.84,99V90.5c0-.93,0-2.16-1.32-2.16a1.66,1.66,0,0,0-1.4.76,3.57,3.57,0,0,0-.4,2V99h-1.48V80h1.48v8.27a3.1,3.1,0,0,1,2.3-1.12c1.93,0,2.3,1.35,2.3,3V99Z" transform="translate(-59.5 -22.5)"/><path class="cls-2" d="M323.65,95c-.08,1.87-.66,4.13-3,4.13-3,0-3.44-3.71-3.44-5.95s.45-6,3.34-6,3.2,3.51,3.2,5.56c0,.24,0,.5,0,.73h-5v.26c0,1.17.19,4.06,1.88,4.06,1.32,0,1.51-1.77,1.53-2.76Zm-1.37-2.81c-.06-1-.19-3.69-1.7-3.69s-1.77,2.63-1.82,3.69Z" transform="translate(-59.5 -22.5)"/><path class="cls-2" d="M335.6,88.84c-2,0-2,1.56-2,3.07v7h-1.48V87.33h1.48v1.51a2.43,2.43,0,0,1,2-1.69Z" transform="translate(-59.5 -22.5)"/><path class="cls-2" d="M343.08,95c-.08,1.87-.66,4.13-3,4.13-3,0-3.43-3.71-3.43-5.95s.45-6,3.33-6,3.2,3.51,3.2,5.56c0,.24,0,.5,0,.73h-5v.26c0,1.17.19,4.06,1.88,4.06,1.32,0,1.51-1.77,1.54-2.76Zm-1.37-2.81c-.06-1-.19-3.69-1.69-3.69s-1.78,2.63-1.83,3.69Z" transform="translate(-59.5 -22.5)"/><path class="cls-2" d="M345.38,99V80h1.51V99Z" transform="translate(-59.5 -22.5)"/><path class="cls-2" d="M350.27,84.76a1.1,1.1,0,1,1,1.09-1.07A1.09,1.09,0,0,1,350.27,84.76ZM349.51,99V87.33H351V99Z" transform="translate(-59.5 -22.5)"/><path class="cls-2" d="M358.13,99V98a2.34,2.34,0,0,1-2,1.11c-2.7,0-2.78-3.71-2.78-5.77,0-2.36.08-6.21,2.91-6.21a2.19,2.19,0,0,1,1.88,1v-.78h1.5V99Zm-1.51-10.63c-1.72,0-1.74,3-1.74,4.13,0,1,0,1.87.07,2.81s.27,2.68,1.64,2.68a1.18,1.18,0,0,0,1-.39c.75-.73.75-3.46.75-4.47C358.29,90.76,358.15,88.32,356.62,88.32Z" transform="translate(-59.5 -22.5)"/><path class="cls-2" d="M363.76,88.11a2.2,2.2,0,0,1,1.9-1c2.88,0,2.91,3.69,2.91,5.77,0,2.5-.08,6.21-2.78,6.21a2.47,2.47,0,0,1-2-1.11V99h-1.48V80h1.48Zm1.53.21c-1.53,0-1.66,2.44-1.66,4.76,0,1,0,3.74.74,4.47a1.18,1.18,0,0,0,.95.39c1.37,0,1.53-1.67,1.64-2.68s.08-1.82.08-2.73C367,91.36,367,88.32,365.29,88.32Z" transform="translate(-59.5 -22.5)"/><path class="cls-2" d="M371.5,84.76a1.1,1.1,0,1,1,1.09-1.07A1.09,1.09,0,0,1,371.5,84.76ZM370.74,99V87.33h1.51V99Z" transform="translate(-59.5 -22.5)"/><path class="cls-2" d="M374.86,99V80h1.51V99Z" transform="translate(-59.5 -22.5)"/><path class="cls-2" d="M379.75,84.76a1.1,1.1,0,1,1,1.09-1.07A1.09,1.09,0,0,1,379.75,84.76ZM379,99V87.33h1.5V99Z" transform="translate(-59.5 -22.5)"/><path class="cls-2" d="M385,88.68V99h-1.48V88.68h-1.27V87.33h1.27V84H385v3.3h2v1.35Z" transform="translate(-59.5 -22.5)"/><path class="cls-2" d="M390.94,103.63h-1.59l1.32-5-2.8-11.31h1.51l1.48,6.45a27.07,27.07,0,0,1,.55,2.91c.11-.73.3-1.43.48-2.18l1.72-7.18h1.56Z" transform="translate(-59.5 -22.5)"/><path class="cls-2" d="M405.82,99.13c-3,0-3.46-3.74-3.46-6s.42-6,3.46-6,3.31,3.82,3.31,6.06S408.86,99.13,405.82,99.13Zm0-10.63c-1.83,0-1.88,3.54-1.88,4.76s.08,4.5,1.88,4.5,1.79-3.46,1.79-4.63S407.54,88.5,405.8,88.5Z" transform="translate(-59.5 -22.5)"/><path class="cls-2" d="M413.28,88.68V99H411.8V88.68h-1.35V87.33h1.35V82.68c0-1.49.39-3,2.19-3a3.43,3.43,0,0,1,1.33.26v1.61a1.8,1.8,0,0,0-1.09-.52c-.87,0-1,.78-1,1.43v4.84h2v1.35Z" transform="translate(-59.5 -22.5)"/><path class="cls-2" d="M92.14,114.29v6.11H95.9v1.48H92.14v8.27H90.5V112.81h5.61v1.48Z" transform="translate(-59.5 -22.5)"/><path class="cls-2" d="M104.31,130.15l-4.1-8.47v8.47h-1.8V112.81h2.22a6.4,6.4,0,0,1,3,.49c1.59.84,1.91,2.55,1.91,4.16,0,2.39-.82,4.16-3.49,4.37l4.09,8.32Zm-3-9.75c2.12,0,2.46-1.22,2.46-3,0-2-.42-3.07-2.67-3.07h-.87v6.11Z" transform="translate(-59.5 -22.5)"/><path class="cls-2" d="M110.55,114.29v15.86h-1.64V114.29h-2.65v-1.48h6.93v1.48Z" transform="translate(-59.5 -22.5)"/><path class="cls-2" d="M118.24,120.9a2.78,2.78,0,0,0-2-1.2,1.46,1.46,0,0,0-1.45,1.53c0,2.27,3.81,2.68,3.81,5.83a3.16,3.16,0,0,1-3.18,3.27,3.61,3.61,0,0,1-2.19-.8v-1.72a3,3,0,0,0,2.09,1.15,1.71,1.71,0,0,0,1.72-1.8c0-2.29-3.81-3.07-3.81-5.87a2.84,2.84,0,0,1,2.94-2.94,3.53,3.53,0,0,1,2.11.75Z" transform="translate(-59.5 -22.5)"/><path class="cls-2" d="M127.26,116a1.1,1.1,0,1,1,1.08-1.07A1.09,1.09,0,0,1,127.26,116Zm-.77,14.19V118.53H128v11.62Z" transform="translate(-59.5 -22.5)"/><path class="cls-2" d="M135.08,120.9a2.78,2.78,0,0,0-2-1.2,1.46,1.46,0,0,0-1.46,1.53c0,2.27,3.81,2.68,3.81,5.83a3.16,3.16,0,0,1-3.17,3.27,3.64,3.64,0,0,1-2.2-.8v-1.72a3,3,0,0,0,2.09,1.15,1.71,1.71,0,0,0,1.72-1.8c0-2.29-3.81-3.07-3.81-5.87a2.84,2.84,0,0,1,2.94-2.94,3.53,3.53,0,0,1,2.11.75Z" transform="translate(-59.5 -22.5)"/><path class="cls-2" d="M149.33,126.2c-.08,1.87-.66,4.13-3,4.13-3,0-3.44-3.71-3.44-6s.45-6,3.33-6,3.2,3.51,3.2,5.56c0,.24,0,.5,0,.73h-5v.26c0,1.17.18,4.06,1.87,4.06,1.33,0,1.51-1.77,1.54-2.76ZM148,123.39c-.05-1-.19-3.69-1.69-3.69s-1.77,2.63-1.83,3.69Z" transform="translate(-59.5 -22.5)"/><path class="cls-2" d="M154.65,130.15H153l-2.69-11.62h1.53l1.56,6.94a24.15,24.15,0,0,1,.42,2.5c.14-.81.27-1.64.43-2.45l1.45-7h1.54Z" transform="translate(-59.5 -22.5)"/><path class="cls-2" d="M163.11,130.15v-.93a2.34,2.34,0,0,1-2,1.11c-2.7,0-2.78-3.71-2.78-5.77,0-2.36.08-6.21,2.91-6.21a2.19,2.19,0,0,1,1.88,1v-.78h1.51v11.62Zm-1.51-10.63c-1.72,0-1.74,3-1.74,4.13,0,1,0,1.87.08,2.81s.26,2.68,1.63,2.68a1.22,1.22,0,0,0,1-.39c.74-.73.74-3.46.74-4.47C163.27,122,163.14,119.52,161.6,119.52Z" transform="translate(-59.5 -22.5)"/><path class="cls-2" d="M167.26,130.15v-19h1.51v19Z" transform="translate(-59.5 -22.5)"/><path class="cls-2" d="M177.54,127.32a3.07,3.07,0,0,1-6.13,0v-8.79h1.48v7.88c0,1.19.05,2.55,1.64,2.55s1.53-1.56,1.53-2.71v-7.72h1.48Z" transform="translate(-59.5 -22.5)"/><path class="cls-2" d="M184.68,130.15v-.93a2.33,2.33,0,0,1-2,1.11c-2.69,0-2.77-3.71-2.77-5.77,0-2.36.08-6.21,2.91-6.21a2.18,2.18,0,0,1,1.87,1v-.78h1.51v11.62Zm-1.5-10.63c-1.72,0-1.75,3-1.75,4.13,0,1,0,1.87.08,2.81s.26,2.68,1.64,2.68a1.18,1.18,0,0,0,.95-.39c.74-.73.74-3.46.74-4.47C184.84,122,184.71,119.52,183.18,119.52Z" transform="translate(-59.5 -22.5)"/><path class="cls-2" d="M190.76,119.88v10.27h-1.48V119.88H188v-1.35h1.27v-3.3h1.48v3.3h2v1.35Z" transform="translate(-59.5 -22.5)"/><path class="cls-2" d="M200,126.2c-.08,1.87-.66,4.13-3,4.13-3,0-3.44-3.71-3.44-6s.45-6,3.33-6,3.2,3.51,3.2,5.56c0,.24,0,.5,0,.73h-5v.26c0,1.17.19,4.06,1.88,4.06,1.32,0,1.5-1.77,1.53-2.76Zm-1.38-2.81c0-1-.18-3.69-1.69-3.69s-1.77,2.63-1.82,3.69Z" transform="translate(-59.5 -22.5)"/><path class="cls-2" d="M206.68,130.15v-.93a2.38,2.38,0,0,1-2,1.11c-2.73,0-2.78-3.87-2.78-5.9,0-2.26,0-6.08,2.93-6.08a2.19,2.19,0,0,1,1.88,1V111.2h1.48v19Zm-1.53-10.63c-1.69,0-1.72,3-1.72,4.13,0,1,0,1.87.08,2.81s.24,2.68,1.61,2.68a1.26,1.26,0,0,0,1-.39c.71-.7.71-3.43.71-4.4C206.81,121.91,206.68,119.52,205.15,119.52Z" transform="translate(-59.5 -22.5)"/><path class="cls-2" d="M220,130.33c-3,0-3.46-3.74-3.46-6s.42-6,3.46-6,3.31,3.82,3.31,6.06S223,130.33,220,130.33Zm0-10.63c-1.82,0-1.87,3.54-1.87,4.76s.08,4.5,1.87,4.5,1.8-3.46,1.8-4.63S221.7,119.7,220,119.7Z" transform="translate(-59.5 -22.5)"/><path class="cls-2" d="M230.11,130.15V121.7c0-.93,0-2.16-1.32-2.16a1.68,1.68,0,0,0-1.41.76,3.6,3.6,0,0,0-.39,2v7.82h-1.48V118.53H227v.94a3.1,3.1,0,0,1,2.3-1.12c2,0,2.3,1.61,2.3,3.2v8.6Z" transform="translate(-59.5 -22.5)"/><path class="cls-2" d="M244.89,130.15v-.93a2.34,2.34,0,0,1-2,1.11c-2.7,0-2.78-3.71-2.78-5.77,0-2.36.08-6.21,2.91-6.21a2.2,2.2,0,0,1,1.88,1v-.78h1.5v11.62Zm-1.51-10.63c-1.72,0-1.75,3-1.75,4.13,0,1,0,1.87.08,2.81s.27,2.68,1.64,2.68a1.18,1.18,0,0,0,1-.39c.74-.73.74-3.46.74-4.47C245,122,244.91,119.52,243.38,119.52Z" transform="translate(-59.5 -22.5)"/><path class="cls-2" d="M259.67,120.9a2.78,2.78,0,0,0-2-1.2,1.46,1.46,0,0,0-1.45,1.53c0,2.27,3.8,2.68,3.8,5.83a3.15,3.15,0,0,1-3.17,3.27,3.61,3.61,0,0,1-2.19-.8v-1.72A3,3,0,0,0,256.7,129a1.71,1.71,0,0,0,1.72-1.8c0-2.29-3.8-3.07-3.8-5.87a2.83,2.83,0,0,1,2.93-2.94,3.58,3.58,0,0,1,2.12.75Z" transform="translate(-59.5 -22.5)"/><path class="cls-2" d="M266.43,129.74a2.91,2.91,0,0,1-1.69.59c-2.78,0-3.41-3.71-3.41-5.79s.48-6.19,3.49-6.19a3.2,3.2,0,0,1,1.61.44v1.72a2.09,2.09,0,0,0-1.48-.81c-1.87,0-2.06,3.41-2.06,4.71s.24,4.55,2,4.55a2,2,0,0,0,1.5-1Z" transform="translate(-59.5 -22.5)"/><path class="cls-2" d="M272.78,130.15v-.93a2.33,2.33,0,0,1-2,1.11c-2.7,0-2.78-3.71-2.78-5.77,0-2.36.08-6.21,2.91-6.21a2.19,2.19,0,0,1,1.88,1v-.78h1.51v11.62Zm-1.51-10.63c-1.72,0-1.74,3-1.74,4.13,0,1,0,1.87.08,2.81s.26,2.68,1.64,2.68a1.21,1.21,0,0,0,.95-.39c.74-.73.74-3.46.74-4.47C272.94,122,272.81,119.52,271.27,119.52Z" transform="translate(-59.5 -22.5)"/><path class="cls-2" d="M276.93,130.15v-19h1.51v19Z" transform="translate(-59.5 -22.5)"/><path class="cls-2" d="M287.06,126.2c-.08,1.87-.66,4.13-3,4.13-3,0-3.44-3.71-3.44-6s.45-6,3.33-6,3.2,3.51,3.2,5.56c0,.24,0,.5,0,.73h-5v.26c0,1.17.18,4.06,1.88,4.06,1.32,0,1.5-1.77,1.53-2.76Zm-1.38-2.81c-.05-1-.18-3.69-1.69-3.69s-1.77,2.63-1.82,3.69Z" transform="translate(-59.5 -22.5)"/><path class="cls-2" d="M297.45,119.88v10.27H296V119.88h-1.35v-1.35H296v-4.65c0-1.49.39-3,2.19-3a3.34,3.34,0,0,1,1.32.26v1.61a1.75,1.75,0,0,0-1.08-.52c-.87,0-.95.78-.95,1.43v4.84h2v1.35Z" transform="translate(-59.5 -22.5)"/><path class="cls-2" d="M304.4,120c-2,0-2,1.56-2,3.07v7h-1.48V118.53h1.48V120a2.43,2.43,0,0,1,2-1.69Z" transform="translate(-59.5 -22.5)"/><path class="cls-2" d="M309,130.33c-3,0-3.46-3.74-3.46-6s.42-6,3.46-6,3.3,3.82,3.3,6.06S312,130.33,309,130.33Zm0-10.63c-1.82,0-1.88,3.54-1.88,4.76s.08,4.5,1.88,4.5,1.8-3.46,1.8-4.63S310.67,119.7,308.92,119.7Z" transform="translate(-59.5 -22.5)"/><path class="cls-2" d="M325.26,130.15h-1.48v-8.6c0-1-.16-2-1.37-2-1.72,0-1.8,1.9-1.8,3.18v7.43H319.1v-8.58c0-.86-.08-2-1.24-2-1.85,0-1.9,2.06-1.9,3.41v7.2h-1.49V118.53H316v1a3.15,3.15,0,0,1,2.3-1.14,2.31,2.31,0,0,1,2.16,1.35,2.9,2.9,0,0,1,2.44-1.35c1.9,0,2.4,1.22,2.4,2.88Z" transform="translate(-59.5 -22.5)"/><path class="cls-2" d="M334.07,130.15v-19h1.5v19Z" transform="translate(-59.5 -22.5)"/><path class="cls-2" d="M344.19,126.2c-.08,1.87-.66,4.13-3,4.13-3,0-3.44-3.71-3.44-6s.45-6,3.33-6,3.2,3.51,3.2,5.56c0,.24,0,.5,0,.73h-5v.26c0,1.17.18,4.06,1.87,4.06,1.32,0,1.51-1.77,1.54-2.76Zm-1.37-2.81c-.05-1-.19-3.69-1.69-3.69s-1.78,2.63-1.83,3.69Z" transform="translate(-59.5 -22.5)"/><path class="cls-2" d="M351,120.9a2.78,2.78,0,0,0-2-1.2,1.46,1.46,0,0,0-1.46,1.53c0,2.27,3.81,2.68,3.81,5.83a3.16,3.16,0,0,1-3.17,3.27,3.64,3.64,0,0,1-2.2-.8v-1.72A3,3,0,0,0,348,129a1.71,1.71,0,0,0,1.72-1.8c0-2.29-3.81-3.07-3.81-5.87a2.84,2.84,0,0,1,2.94-2.94,3.53,3.53,0,0,1,2.11.75Z" transform="translate(-59.5 -22.5)"/><path class="cls-2" d="M357.54,120.9a2.74,2.74,0,0,0-2-1.2,1.47,1.47,0,0,0-1.46,1.53c0,2.27,3.81,2.68,3.81,5.83a3.15,3.15,0,0,1-3.17,3.27,3.67,3.67,0,0,1-2.2-.8v-1.72a3.06,3.06,0,0,0,2.09,1.15,1.71,1.71,0,0,0,1.72-1.8c0-2.29-3.81-3.07-3.81-5.87a2.84,2.84,0,0,1,2.94-2.94,3.53,3.53,0,0,1,2.11.75Z" transform="translate(-59.5 -22.5)"/><path class="cls-2" d="M367.75,119.88v10.27h-1.48V119.88H365v-1.35h1.27v-3.3h1.48v3.3h2v1.35Z" transform="translate(-59.5 -22.5)"/><path class="cls-2" d="M374.07,130.33c-3,0-3.46-3.74-3.46-6s.42-6,3.46-6,3.31,3.82,3.31,6.06S377.11,130.33,374.07,130.33Zm0-10.63c-1.82,0-1.87,3.54-1.87,4.76s.08,4.5,1.87,4.5,1.8-3.46,1.8-4.63S375.79,119.7,374,119.7Z" transform="translate(-59.5 -22.5)"/><path class="cls-2" d="M396.54,130.15h-1.48v-8.6c0-1-.15-2-1.37-2-1.72,0-1.8,1.9-1.8,3.18v7.43h-1.51v-8.58c0-.86-.08-2-1.24-2-1.85,0-1.9,2.06-1.9,3.41v7.2h-1.48V118.53h1.48v1a3.15,3.15,0,0,1,2.3-1.14,2.32,2.32,0,0,1,2.17,1.35,2.87,2.87,0,0,1,2.43-1.35c1.9,0,2.4,1.22,2.4,2.88Z" transform="translate(-59.5 -22.5)"/><path class="cls-2" d="M402.2,130.33c-3,0-3.46-3.74-3.46-6s.42-6,3.46-6,3.31,3.82,3.31,6.06S405.24,130.33,402.2,130.33Zm0-10.63c-1.83,0-1.88,3.54-1.88,4.76s.08,4.5,1.88,4.5,1.79-3.46,1.79-4.63S403.92,119.7,402.18,119.7Z" transform="translate(-59.5 -22.5)"/><path class="cls-2" d="M411.22,120c-2,0-2,1.56-2,3.07v7h-1.48V118.53h1.48V120a2.42,2.42,0,0,1,2-1.69Z" transform="translate(-59.5 -22.5)"/><path class="cls-2" d="M418.7,126.2c-.08,1.87-.66,4.13-3,4.13-3,0-3.43-3.71-3.43-6s.44-6,3.33-6,3.2,3.51,3.2,5.56c0,.24,0,.5,0,.73h-5v.26c0,1.17.19,4.06,1.88,4.06,1.32,0,1.51-1.77,1.53-2.76Zm-1.37-2.81c-.06-1-.19-3.69-1.7-3.69s-1.77,2.63-1.82,3.69Z" transform="translate(-59.5 -22.5)"/><path class="cls-2" d="M93.86,151.24c-2,0-2,1.56-2,3.07v7H90.37V149.73h1.48v1.51a2.43,2.43,0,0,1,2-1.69Z" transform="translate(-59.5 -22.5)"/><path class="cls-2" d="M101.35,157.4c-.08,1.87-.67,4.13-3,4.13-3,0-3.44-3.72-3.44-5.95s.45-6,3.33-6,3.2,3.51,3.2,5.56c0,.24,0,.49,0,.73h-5v.26c0,1.17.18,4.05,1.87,4.05,1.33,0,1.51-1.76,1.54-2.75ZM100,154.59c0-1-.18-3.69-1.69-3.69s-1.77,2.62-1.83,3.69Z" transform="translate(-59.5 -22.5)"/><path class="cls-2" d="M103.65,161.35V142.4h1.5v18.95Z" transform="translate(-59.5 -22.5)"/><path class="cls-2" d="M108.54,147.15a1.09,1.09,0,1,1,1.08-1.06A1.07,1.07,0,0,1,108.54,147.15Zm-.77,14.2V149.73h1.51v11.62Z" transform="translate(-59.5 -22.5)"/><path class="cls-2" d="M116.39,161.35v-.93a2.33,2.33,0,0,1-2,1.11c-2.7,0-2.78-3.72-2.78-5.77,0-2.37.08-6.21,2.91-6.21a2.19,2.19,0,0,1,1.88,1v-.78h1.51v11.62Zm-1.51-10.63c-1.72,0-1.74,3-1.74,4.13,0,1,0,1.87.08,2.81s.26,2.68,1.64,2.68a1.21,1.21,0,0,0,1-.39c.74-.73.74-3.46.74-4.48C116.55,153.16,116.42,150.72,114.88,150.72Z" transform="translate(-59.5 -22.5)"/><path class="cls-2" d="M122,150.51a2.2,2.2,0,0,1,1.91-1c2.88,0,2.9,3.69,2.9,5.77,0,2.49-.08,6.21-2.77,6.21a2.49,2.49,0,0,1-2-1.11v.93h-1.48V142.4H122Zm1.54.21c-1.54,0-1.67,2.44-1.67,4.75,0,1,0,3.75.74,4.48a1.18,1.18,0,0,0,1,.39c1.38,0,1.54-1.67,1.64-2.68s.08-1.82.08-2.73C125.3,153.76,125.27,150.72,123.56,150.72Z" transform="translate(-59.5 -22.5)"/><path class="cls-2" d="M129,161.35V142.4h1.51v18.95Z" transform="translate(-59.5 -22.5)"/><path class="cls-2" d="M139.15,157.4c-.07,1.87-.66,4.13-3,4.13-3,0-3.44-3.72-3.44-5.95s.45-6,3.33-6,3.2,3.51,3.2,5.56c0,.24,0,.49,0,.73h-5v.26c0,1.17.18,4.05,1.87,4.05,1.33,0,1.51-1.76,1.54-2.75Zm-1.37-2.81c-.05-1-.19-3.69-1.69-3.69s-1.77,2.62-1.83,3.69Z" transform="translate(-59.5 -22.5)"/><path class="cls-2" d="M142.46,161.53a1.2,1.2,0,0,1-1.19-1.17,1.19,1.19,0,1,1,1.19,1.17Z" transform="translate(-59.5 -22.5)"/><path class="cls-2" d="M96.16,192.55v-8.94h-4v8.94H90.5V175.21h1.64v6.91h4v-6.91H97.8v17.34Z" transform="translate(-59.5 -22.5)"/><path class="cls-2" d="M103.57,192.73c-3,0-3.47-3.74-3.47-6s.43-6,3.47-6,3.3,3.82,3.3,6.06S106.61,192.73,103.57,192.73Zm0-10.63c-1.82,0-1.88,3.54-1.88,4.76s.08,4.49,1.88,4.49,1.8-3.45,1.8-4.62S105.29,182.1,103.54,182.1Z" transform="translate(-59.5 -22.5)"/><path class="cls-2" d="M112.11,192.55h-1.62l-2.69-11.62h1.53l1.56,6.94a23.71,23.71,0,0,1,.42,2.5c.14-.81.27-1.64.43-2.45l1.45-7h1.53Z" transform="translate(-59.5 -22.5)"/><path class="cls-2" d="M122,188.6c-.08,1.87-.66,4.13-3,4.13-3,0-3.43-3.71-3.43-5.95s.45-6,3.33-6,3.2,3.51,3.2,5.56c0,.24,0,.5,0,.73h-5v.26c0,1.17.19,4,1.88,4,1.32,0,1.51-1.76,1.53-2.75Zm-1.37-2.81c-.06-1-.19-3.69-1.7-3.69s-1.77,2.62-1.82,3.69Z" transform="translate(-59.5 -22.5)"/><path class="cls-2" d="M127.81,182.44c-2,0-2,1.56-2,3.07v7h-1.48V180.93h1.48v1.51a2.43,2.43,0,0,1,2-1.69Z" transform="translate(-59.5 -22.5)"/><path class="cls-2" d="M138.65,192.73c-3,0-3.46-3.74-3.46-6s.42-6,3.46-6,3.31,3.82,3.31,6.06S141.69,192.73,138.65,192.73Zm0-10.63c-1.82,0-1.87,3.54-1.87,4.76s.08,4.49,1.87,4.49,1.8-3.45,1.8-4.62S140.37,182.1,138.62,182.1Z" transform="translate(-59.5 -22.5)"/><path class="cls-2" d="M147.19,192.55h-1.61l-2.7-11.62h1.54l1.56,6.94c.18.83.31,1.66.42,2.5.13-.81.26-1.64.42-2.45l1.46-7h1.53Z" transform="translate(-59.5 -22.5)"/><path class="cls-2" d="M157.11,188.6c-.08,1.87-.66,4.13-3,4.13-3,0-3.44-3.71-3.44-5.95s.45-6,3.33-6,3.2,3.51,3.2,5.56c0,.24,0,.5,0,.73h-5v.26c0,1.17.18,4,1.88,4,1.32,0,1.5-1.76,1.53-2.75Zm-1.38-2.81c0-1-.18-3.69-1.69-3.69s-1.77,2.62-1.82,3.69Z" transform="translate(-59.5 -22.5)"/><path class="cls-2" d="M162.9,182.44c-2,0-2,1.56-2,3.07v7h-1.48V180.93h1.48v1.51a2.42,2.42,0,0,1,2-1.69Z" transform="translate(-59.5 -22.5)"/><path class="cls-2" d="M172.65,182.28v10.27h-1.48V182.28H169.9v-1.35h1.27v-3.3h1.48v3.3h2v1.35Z" transform="translate(-59.5 -22.5)"/><path class="cls-2" d="M180.58,192.55V184.1c0-.94,0-2.16-1.32-2.16a1.68,1.68,0,0,0-1.4.76,3.54,3.54,0,0,0-.4,2v7.83H176v-19h1.48v8.26a3.12,3.12,0,0,1,2.31-1.11c1.93,0,2.3,1.35,2.3,3v8.81Z" transform="translate(-59.5 -22.5)"/><path class="cls-2" d="M190.4,188.6c-.08,1.87-.67,4.13-3,4.13-3,0-3.44-3.71-3.44-5.95s.45-6,3.33-6,3.2,3.51,3.2,5.56c0,.24,0,.5,0,.73h-5v.26c0,1.17.18,4,1.87,4,1.33,0,1.51-1.76,1.54-2.75ZM189,185.79c-.05-1-.19-3.69-1.69-3.69s-1.77,2.62-1.83,3.69Z" transform="translate(-59.5 -22.5)"/><path class="cls-2" d="M203.35,192.55v-.94a2.32,2.32,0,0,1-2,1.12c-2.7,0-2.78-3.71-2.78-5.77,0-2.36.08-6.21,2.91-6.21a2.19,2.19,0,0,1,1.88,1v-.78h1.51v11.62Zm-1.51-10.63c-1.72,0-1.74,3-1.74,4.13,0,1,0,1.87.08,2.81s.26,2.68,1.64,2.68a1.21,1.21,0,0,0,1-.39c.74-.73.74-3.46.74-4.47C203.51,184.36,203.38,181.92,201.84,181.92Z" transform="translate(-59.5 -22.5)"/><path class="cls-2" d="M211,182.44c-2,0-2,1.56-2,3.07v7H207.5V180.93H209v1.51a2.43,2.43,0,0,1,2-1.69Z" transform="translate(-59.5 -22.5)"/><path class="cls-2" d="M218.47,188.6c-.08,1.87-.66,4.13-3,4.13-3.05,0-3.44-3.71-3.44-5.95s.45-6,3.33-6,3.2,3.51,3.2,5.56c0,.24,0,.5,0,.73h-5v.26c0,1.17.19,4,1.88,4,1.32,0,1.51-1.76,1.54-2.75Zm-1.37-2.81c-.06-1-.19-3.69-1.69-3.69s-1.78,2.62-1.83,3.69Z" transform="translate(-59.5 -22.5)"/><path class="cls-2" d="M225.27,192.55v-.94a2.33,2.33,0,0,1-2,1.12c-2.7,0-2.78-3.71-2.78-5.77,0-2.36.08-6.21,2.91-6.21a2.19,2.19,0,0,1,1.88,1v-.78h1.51v11.62Zm-1.51-10.63c-1.72,0-1.74,3-1.74,4.13,0,1,0,1.87.07,2.81s.27,2.68,1.64,2.68a1.22,1.22,0,0,0,1-.39c.74-.73.74-3.46.74-4.47C225.43,184.36,225.29,181.92,223.76,181.92Z" transform="translate(-59.5 -22.5)"/><path class="cls-2" d="M242.9,179.13a4,4,0,0,0-2.51-1.11,1.62,1.62,0,0,0-1.74,1.69c0,3,5.29,2.93,5.29,7.77,0,3-1.83,5.36-5,5.36a5.46,5.46,0,0,1-3-.89v-3.27a4.66,4.66,0,0,0,2.59.93,1.88,1.88,0,0,0,2.06-1.92,2,2,0,0,0-.18-.88,5.56,5.56,0,0,0-1.88-1.62c-2-1.35-3.25-2.6-3.25-5.12,0-2.73,1.61-5.12,4.6-5.12a5.88,5.88,0,0,1,3.09.83Z" transform="translate(-59.5 -22.5)"/><path class="cls-2" d="M253.93,188.78a3.58,3.58,0,0,1-.56,2.21,4.34,4.34,0,0,1-3.62,1.8,4.28,4.28,0,0,1-3.62-1.82,3.53,3.53,0,0,1-.48-2v-8H249v7.15c0,.57,0,1.69.82,1.69,1,0,.82-1.56.82-2.18v-6.66h3.33Z" transform="translate(-59.5 -22.5)"/><path class="cls-2" d="M259.35,182.36a2.47,2.47,0,0,1,2.22-1.64c2.78,0,3.17,3.95,3.17,6s-.47,6.09-3.2,6.09a2.53,2.53,0,0,1-2.19-1.57v1.33H256v-19h3.31Zm.87,1.27c-1,0-1.11,2.42-1.11,3.12s.08,3.12,1.14,3.12,1.16-2.39,1.16-3.12S261.33,183.63,260.22,183.63Z" transform="translate(-59.5 -22.5)"/><path class="cls-2" d="M268.23,179.19a2.06,2.06,0,1,1,2.09-2.06A2.06,2.06,0,0,1,268.23,179.19Zm-1.66,18.72v-17h3.3v17Z" transform="translate(-59.5 -22.5)"/><path class="cls-2" d="M279.87,188.55a5.27,5.27,0,0,1-1.27,3.33,3.37,3.37,0,0,1-2.57.91,3.7,3.7,0,0,1-2.83-1,6.4,6.4,0,0,1-1.61-4.71,7.45,7.45,0,0,1,1.72-5.25,3.68,3.68,0,0,1,2.7-1.07,3.51,3.51,0,0,1,2.53.94,6.39,6.39,0,0,1,1.54,4.52,9,9,0,0,1-.08,1.14h-5.24c0,.19,0,.42,0,.65a3.41,3.41,0,0,0,.47,2.06.91.91,0,0,0,.69.31,1,1,0,0,0,.66-.21,2.69,2.69,0,0,0,.5-1.58Zm-2.67-3.23a2.89,2.89,0,0,0-.53-1.89,1,1,0,0,0-.61-.24,1.07,1.07,0,0,0-.74.31,3.11,3.11,0,0,0-.5,1.82Z" transform="translate(-59.5 -22.5)"/><path class="cls-2" d="M287.67,192.37a4.29,4.29,0,0,1-1.88.42c-3.18,0-4.31-3.28-4.31-5.91,0-2.83,1.08-6.19,4.52-6.19a4.19,4.19,0,0,1,1.67.34v2.86a1.27,1.27,0,0,0-.93-.39c-1.59,0-1.93,1.95-1.93,3.15s.26,3.09,1.88,3.09a1.71,1.71,0,0,0,1-.34Z" transform="translate(-59.5 -22.5)"/><path class="cls-2" d="M293.43,183.63v8.92h-3.31v-8.92H289v-2.7h1.13v-3.3h3.31v3.3h1.35v2.7Z" transform="translate(-59.5 -22.5)"/><path class="cls-2" d="M297.61,179.19a2.06,2.06,0,1,1,2.09-2.06A2.06,2.06,0,0,1,297.61,179.19Zm-1.67,13.36V180.93h3.31v11.62Z" transform="translate(-59.5 -22.5)"/><path class="cls-2" d="M306.62,192.55h-3l-3.38-11.62h3.25c.55,2.18,1.16,4.37,1.61,6.58.08-.5.24-1,.35-1.43l1.21-5.15h3.44Z" transform="translate(-59.5 -22.5)"/><path class="cls-2" d="M318.65,188.55a5.21,5.21,0,0,1-1.27,3.33,3.35,3.35,0,0,1-2.56.91,3.7,3.7,0,0,1-2.83-1,6.4,6.4,0,0,1-1.61-4.71,7.45,7.45,0,0,1,1.72-5.25,3.66,3.66,0,0,1,2.69-1.07,3.53,3.53,0,0,1,2.54.94,6.43,6.43,0,0,1,1.54,4.52,9,9,0,0,1-.08,1.14h-5.24a4.43,4.43,0,0,0,0,.65A3.41,3.41,0,0,0,314,190a.88.88,0,0,0,.69.31,1.06,1.06,0,0,0,.66-.21,2.76,2.76,0,0,0,.5-1.58ZM316,185.32a2.89,2.89,0,0,0-.53-1.89,1,1,0,0,0-.6-.24,1,1,0,0,0-.74.31,3.11,3.11,0,0,0-.51,1.82Z" transform="translate(-59.5 -22.5)"/><path class="cls-2" d="M331.32,175.21a5.47,5.47,0,0,1,3,.57,5.13,5.13,0,0,1,2.4,4.58c0,3.64-2.61,5.33-6.1,5.07v7.12h-3.49V175.21Zm-.53,7.33c1.59,0,2.43-.55,2.43-2.21,0-1.38-.47-2.34-2-2.34h-.6v4.55Z" transform="translate(-59.5 -22.5)"/><path class="cls-2" d="M345.73,188.55a5.27,5.27,0,0,1-1.27,3.33,3.37,3.37,0,0,1-2.57.91,3.71,3.71,0,0,1-2.83-1,6.44,6.44,0,0,1-1.61-4.71,7.45,7.45,0,0,1,1.72-5.25,3.68,3.68,0,0,1,2.7-1.07,3.55,3.55,0,0,1,2.54.94,6.42,6.42,0,0,1,1.53,4.52,9,9,0,0,1-.08,1.14h-5.24c0,.19,0,.42,0,.65a3.41,3.41,0,0,0,.47,2.06.91.91,0,0,0,.69.31,1,1,0,0,0,.66-.21,2.69,2.69,0,0,0,.5-1.58Zm-2.67-3.23a2.89,2.89,0,0,0-.53-1.89,1,1,0,0,0-.61-.24,1.09,1.09,0,0,0-.74.31,3.18,3.18,0,0,0-.5,1.82Z" transform="translate(-59.5 -22.5)"/><path class="cls-2" d="M353.71,183.66a2.59,2.59,0,0,0-.47,0c-2,0-2.25,1.09-2.25,2.78v6.16h-3.31V180.93H351v1.43a3.62,3.62,0,0,1,2.72-1.85Z" transform="translate(-59.5 -22.5)"/><path class="cls-2" d="M360.82,192.37a4.22,4.22,0,0,1-1.87.42c-3.18,0-4.31-3.28-4.31-5.91,0-2.83,1.08-6.19,4.52-6.19a4.11,4.11,0,0,1,1.66.34v2.86a1.23,1.23,0,0,0-.92-.39c-1.59,0-1.93,1.95-1.93,3.15s.26,3.09,1.88,3.09a1.68,1.68,0,0,0,1-.34Z" transform="translate(-59.5 -22.5)"/><path class="cls-2" d="M370.32,188.55a5.27,5.27,0,0,1-1.27,3.33,3.37,3.37,0,0,1-2.57.91,3.7,3.7,0,0,1-2.83-1A6.4,6.4,0,0,1,362,187a7.45,7.45,0,0,1,1.72-5.25,3.68,3.68,0,0,1,2.7-1.07,3.55,3.55,0,0,1,2.54.94,6.42,6.42,0,0,1,1.53,4.52,9,9,0,0,1-.08,1.14h-5.24c0,.19,0,.42,0,.65a3.41,3.41,0,0,0,.47,2.06.91.91,0,0,0,.69.31,1,1,0,0,0,.66-.21,2.69,2.69,0,0,0,.5-1.58Zm-2.67-3.23a2.89,2.89,0,0,0-.53-1.89,1,1,0,0,0-.61-.24,1.07,1.07,0,0,0-.74.31,3.11,3.11,0,0,0-.5,1.82Z" transform="translate(-59.5 -22.5)"/><path class="cls-2" d="M375.58,182.36a2.46,2.46,0,0,1,2.22-1.64c2.78,0,3.17,3.95,3.17,6s-.47,6.09-3.2,6.09a2.52,2.52,0,0,1-2.19-1.57v6.69h-3.31v-17h3.31Zm.87,1.27c-1,0-1.11,2.42-1.11,3.12s.08,3.12,1.14,3.12,1.16-2.39,1.16-3.12S377.56,183.63,376.45,183.63Z" transform="translate(-59.5 -22.5)"/><path class="cls-2" d="M386.37,183.63v8.92h-3.31v-8.92h-1.14v-2.7h1.14v-3.3h3.31v3.3h1.34v2.7Z" transform="translate(-59.5 -22.5)"/><path class="cls-2" d="M390.54,179.19a2.06,2.06,0,1,1,2.09-2.06A2.06,2.06,0,0,1,390.54,179.19Zm-1.66,13.36V180.93h3.3v11.62Z" transform="translate(-59.5 -22.5)"/><path class="cls-2" d="M398.42,192.79c-3.38,0-4.49-3.23-4.49-6s1.11-6,4.49-6,4.44,3.15,4.44,6S401.91,192.79,398.42,192.79Zm0-9.16c-1.08,0-1.16,2.37-1.16,3.12s.08,3.12,1.16,3.12,1.11-2.42,1.11-3.12S399.45,183.63,398.42,183.63Z" transform="translate(-59.5 -22.5)"/><path class="cls-2" d="M409.63,192.55v-7.12c0-.52,0-1.46-.79-1.46-.95,0-.9,1.2-.9,1.85v6.73h-3.31V180.93h3.31v1.82a3.17,3.17,0,0,1,2.8-2c2,0,2.2,1.87,2.2,3.43v8.4Z" transform="translate(-59.5 -22.5)"/><path class="cls-2" d="M93.92,209.61v3.69h3.2v3.3h-3.2v7.15H90.43V206.41h7v3.2Z" transform="translate(-59.5 -22.5)"/><path class="cls-2" d="M104.23,223.75v-1.32A2.55,2.55,0,0,1,102,224c-2.72,0-3.2-4.11-3.2-6.09s.4-6,3.18-6a2.47,2.47,0,0,1,2.22,1.64v-1.43h3.3v11.62Zm-.9-8.92c-1.09,0-1.16,2.39-1.16,3.12s.07,3.12,1.19,3.12,1.11-2.41,1.11-3.12S104.39,214.83,103.33,214.83Z" transform="translate(-59.5 -22.5)"/><path class="cls-2" d="M115.49,223.57a4.37,4.37,0,0,1-1.88.42c-3.17,0-4.31-3.28-4.31-5.91,0-2.83,1.09-6.19,4.53-6.19a4.11,4.11,0,0,1,1.66.34v2.86a1.23,1.23,0,0,0-.92-.39c-1.59,0-1.93,2-1.93,3.15s.26,3.09,1.87,3.09a1.69,1.69,0,0,0,1-.34Z" transform="translate(-59.5 -22.5)"/><path class="cls-2" d="M118.8,210.39a2.06,2.06,0,1,1,2.08-2.06A2.06,2.06,0,0,1,118.8,210.39Zm-1.67,13.36V212.13h3.31v11.62Z" transform="translate(-59.5 -22.5)"/><path class="cls-2" d="M127.57,223.75v-1.32a2.52,2.52,0,0,1-2.19,1.56c-2.72,0-3.2-4.11-3.2-6.09s.4-6,3.17-6a2.46,2.46,0,0,1,2.22,1.64v-1.43h3.31v11.62Zm-.89-8.92c-1.09,0-1.17,2.39-1.17,3.12s.08,3.12,1.19,3.12,1.11-2.41,1.11-3.12S127.73,214.83,126.68,214.83Z" transform="translate(-59.5 -22.5)"/><path class="cls-2" d="M133,223.75V204.8h3.31v18.95Z" transform="translate(-59.5 -22.5)"/><path class="cls-2" d="M151.48,223.75l-3.1-8v8h-3.49V206.41h3.78a7,7,0,0,1,3.84.83,5,5,0,0,1,2.09,4.21,4.77,4.77,0,0,1-2.52,4.42l3.07,7.88Zm-3.1-9.88a3.82,3.82,0,0,0,.58,0,2.15,2.15,0,0,0,2.25-2.42c0-1.41-.63-2.37-2.17-2.37h-.66Z" transform="translate(-59.5 -22.5)"/><path class="cls-2" d="M164.56,219.75a5.21,5.21,0,0,1-1.27,3.33,3.35,3.35,0,0,1-2.56.91,3.7,3.7,0,0,1-2.83-1,6.4,6.4,0,0,1-1.61-4.71A7.45,7.45,0,0,1,158,213a3.66,3.66,0,0,1,2.69-1.07,3.53,3.53,0,0,1,2.54.94,6.42,6.42,0,0,1,1.53,4.52,8.83,8.83,0,0,1-.07,1.14h-5.24a4.51,4.51,0,0,0,0,.66,3.39,3.39,0,0,0,.48,2,.88.88,0,0,0,.69.31,1.06,1.06,0,0,0,.66-.21,2.76,2.76,0,0,0,.5-1.58Zm-2.67-3.23a2.89,2.89,0,0,0-.53-1.89,1,1,0,0,0-.6-.24,1,1,0,0,0-.74.31,3.11,3.11,0,0,0-.51,1.82Z" transform="translate(-59.5 -22.5)"/><path class="cls-2" d="M172.36,223.57a4.36,4.36,0,0,1-1.87.42c-3.18,0-4.32-3.28-4.32-5.91,0-2.83,1.09-6.19,4.53-6.19a4.11,4.11,0,0,1,1.66.34v2.86a1.23,1.23,0,0,0-.92-.39c-1.59,0-1.93,2-1.93,3.15s.26,3.09,1.87,3.09a1.69,1.69,0,0,0,1-.34Z" transform="translate(-59.5 -22.5)"/><path class="cls-2" d="M178.1,224c-3.38,0-4.5-3.23-4.5-6s1.12-6,4.5-6,4.44,3.15,4.44,6S181.59,224,178.1,224Zm0-9.16c-1.08,0-1.16,2.37-1.16,3.12s.08,3.12,1.16,3.12,1.11-2.41,1.11-3.12S179.13,214.83,178.1,214.83Z" transform="translate(-59.5 -22.5)"/><path class="cls-2" d="M192.8,224.48a5.37,5.37,0,0,1-.34,2.21,4.31,4.31,0,0,1-4.23,2.42c-2.83,0-3.94-1.64-4.16-4H187c.06.57.27,1.4,1.22,1.4,1.24,0,1.27-1.58,1.27-2.47V222.3c-.53.85-1.09,1.69-2.22,1.69-2.67,0-3.31-4-3.31-5.93s.4-6.14,3.18-6.14a2.69,2.69,0,0,1,2.35,1.61v-1.4h3.33Zm-4.31-9.65c-1.11,0-1.19,2.34-1.19,3.1s.08,3.09,1.19,3.09,1.14-2.39,1.14-3.09S189.52,214.83,188.49,214.83Z" transform="translate(-59.5 -22.5)"/><path class="cls-2" d="M199.91,223.75v-7.12c0-.52,0-1.46-.79-1.46-1,0-.9,1.2-.9,1.85v6.73h-3.3V212.13h3.3V214a3.17,3.17,0,0,1,2.8-2c2,0,2.2,1.87,2.2,3.43v8.4Z" transform="translate(-59.5 -22.5)"/><path class="cls-2" d="M207.05,210.39a2.06,2.06,0,1,1,2.09-2.06A2.06,2.06,0,0,1,207.05,210.39Zm-1.67,13.36V212.13h3.31v11.62Z" transform="translate(-59.5 -22.5)"/><path class="cls-2" d="M214.4,214.83v8.92h-3.3v-8.92H210v-2.7h1.14v-3.3h3.3v3.3h1.35v2.7Z" transform="translate(-59.5 -22.5)"/><path class="cls-2" d="M218.58,210.39a2.06,2.06,0,1,1,2.09-2.06A2.06,2.06,0,0,1,218.58,210.39Zm-1.67,13.36V212.13h3.31v11.62Z" transform="translate(-59.5 -22.5)"/><path class="cls-2" d="M226.46,224c-3.39,0-4.5-3.23-4.5-6s1.11-6,4.5-6,4.44,3.15,4.44,6S230,224,226.46,224Zm0-9.16c-1.09,0-1.17,2.37-1.17,3.12s.08,3.12,1.17,3.12,1.11-2.41,1.11-3.12S227.49,214.83,226.46,214.83Z" transform="translate(-59.5 -22.5)"/><path class="cls-2" d="M237.67,223.75v-7.12c0-.52,0-1.46-.79-1.46-1,0-.9,1.2-.9,1.85v6.73h-3.31V212.13H236V214a3.15,3.15,0,0,1,2.8-2c2,0,2.19,1.87,2.19,3.43v8.4Z" transform="translate(-59.5 -22.5)"/><path class="cls-2" d="M254.41,209.58v14.17h-3.49V209.58h-2.73v-3.17h8.94v3.17Z" transform="translate(-59.5 -22.5)"/><path class="cls-2" d="M265.46,219.75a5.27,5.27,0,0,1-1.27,3.33,3.37,3.37,0,0,1-2.57.91,3.71,3.71,0,0,1-2.83-1,6.44,6.44,0,0,1-1.61-4.71A7.45,7.45,0,0,1,258.9,213a3.68,3.68,0,0,1,2.7-1.07,3.55,3.55,0,0,1,2.54.94,6.42,6.42,0,0,1,1.53,4.52,8.86,8.86,0,0,1-.08,1.14h-5.24c0,.19,0,.42,0,.66a3.4,3.4,0,0,0,.47,2,.91.91,0,0,0,.69.31,1,1,0,0,0,.66-.21,2.77,2.77,0,0,0,.51-1.58Zm-2.67-3.23a2.89,2.89,0,0,0-.53-1.89,1,1,0,0,0-.61-.24,1.09,1.09,0,0,0-.74.31,3.18,3.18,0,0,0-.5,1.82Z" transform="translate(-59.5 -22.5)"/><path class="cls-2" d="M273.26,223.57a4.41,4.41,0,0,1-1.88.42c-3.17,0-4.31-3.28-4.31-5.91,0-2.83,1.08-6.19,4.52-6.19a4.12,4.12,0,0,1,1.67.34v2.86a1.27,1.27,0,0,0-.93-.39c-1.58,0-1.93,2-1.93,3.15s.27,3.09,1.88,3.09a1.71,1.71,0,0,0,1-.34Z" transform="translate(-59.5 -22.5)"/><path class="cls-2" d="M279.84,223.75v-7.12c0-.52,0-1.46-.79-1.46-.95,0-.9,1.2-.9,1.85v6.73h-3.31V204.8h3.31V214a3.17,3.17,0,0,1,2.8-2c2,0,2.2,1.87,2.2,3.43v8.4Z" transform="translate(-59.5 -22.5)"/><path class="cls-2" d="M290.26,223.75v-7.12c0-.52,0-1.46-.8-1.46-.95,0-.89,1.2-.89,1.85v6.73h-3.31V212.13h3.31V214a3.15,3.15,0,0,1,2.8-2c2,0,2.19,1.87,2.19,3.43v8.4Z" transform="translate(-59.5 -22.5)"/><path class="cls-2" d="M299.83,224c-3.39,0-4.5-3.23-4.5-6s1.11-6,4.5-6,4.44,3.15,4.44,6S303.32,224,299.83,224Zm0-9.16c-1.08,0-1.16,2.37-1.16,3.12s.08,3.12,1.16,3.12,1.11-2.41,1.11-3.12S300.86,214.83,299.83,214.83Z" transform="translate(-59.5 -22.5)"/><path class="cls-2" d="M306,223.75V204.8h3.31v18.95Z" transform="translate(-59.5 -22.5)"/><path class="cls-2" d="M315.61,224c-3.38,0-4.49-3.23-4.49-6s1.11-6,4.49-6,4.45,3.15,4.45,6S319.1,224,315.61,224Zm0-9.16c-1.08,0-1.16,2.37-1.16,3.12s.08,3.12,1.16,3.12,1.11-2.41,1.11-3.12S316.64,214.83,315.61,214.83Z" transform="translate(-59.5 -22.5)"/><path class="cls-2" d="M330.31,224.48a5.21,5.21,0,0,1-.34,2.21,4.3,4.3,0,0,1-4.23,2.42c-2.83,0-3.94-1.64-4.15-4h2.91c.05.57.26,1.4,1.21,1.4,1.25,0,1.27-1.58,1.27-2.47V222.3c-.53.85-1.08,1.69-2.22,1.69-2.67,0-3.3-4-3.3-5.93s.39-6.14,3.17-6.14a2.67,2.67,0,0,1,2.35,1.61v-1.4h3.33ZM326,214.83c-1.11,0-1.19,2.34-1.19,3.1S324.89,221,326,221s1.14-2.39,1.14-3.09S327,214.83,326,214.83Z" transform="translate(-59.5 -22.5)"/><path class="cls-2" d="M334.15,210.39a2.06,2.06,0,1,1,2.09-2.06A2.06,2.06,0,0,1,334.15,210.39Zm-1.67,13.36V212.13h3.31v11.62Z" transform="translate(-59.5 -22.5)"/><path class="cls-2" d="M345.78,219.75a5.27,5.27,0,0,1-1.27,3.33A3.36,3.36,0,0,1,342,224a3.7,3.7,0,0,1-2.83-1,6.4,6.4,0,0,1-1.62-4.71,7.5,7.5,0,0,1,1.72-5.25,3.7,3.7,0,0,1,2.7-1.07,3.55,3.55,0,0,1,2.54.94,6.42,6.42,0,0,1,1.53,4.52,7.37,7.37,0,0,1-.08,1.14h-5.23a4.51,4.51,0,0,0,0,.66,3.39,3.39,0,0,0,.48,2,.88.88,0,0,0,.69.31,1.06,1.06,0,0,0,.66-.21,2.76,2.76,0,0,0,.5-1.58Zm-2.67-3.23a2.89,2.89,0,0,0-.53-1.89,1,1,0,0,0-.61-.24,1.09,1.09,0,0,0-.74.31,3.18,3.18,0,0,0-.5,1.82Z" transform="translate(-59.5 -22.5)"/><path class="cls-2" d="M353.26,215.27a2.26,2.26,0,0,0-1.56-.77.79.79,0,0,0-.84.83c0,1.4,3.7,1.11,3.7,4.63,0,2.21-1.35,4-3.73,4a5.77,5.77,0,0,1-3.59-1.33l1.45-2.31a2.56,2.56,0,0,0,1.61.72,1,1,0,0,0,1.06-1c0-1.45-3.86-1.25-3.86-4.76,0-2.23,1.82-3.43,3.94-3.43a5.07,5.07,0,0,1,3.15,1Z" transform="translate(-59.5 -22.5)"/><path class="cls-2" d="M364.42,213.48v10.27h-1.48V213.48h-1.27v-1.35h1.27v-3.3h1.48v3.3h2v1.35Z" transform="translate(-59.5 -22.5)"/><path class="cls-2" d="M370.74,223.93c-3,0-3.46-3.74-3.46-6s.42-6,3.46-6,3.31,3.82,3.31,6.06S373.78,223.93,370.74,223.93Zm0-10.63c-1.82,0-1.87,3.54-1.87,4.76s.08,4.5,1.87,4.5,1.8-3.46,1.8-4.63S372.46,213.3,370.71,213.3Z" transform="translate(-59.5 -22.5)"/><path class="cls-2" d="M388.53,225c0,2.1-.82,3.4-3.09,3.4-2.06,0-3.07-1.27-3.07-3.22a2,2,0,0,1,0-.44h1.51c0,1.16.13,2.28,1.61,2.28s1.51-1.14,1.51-2.26v-1.87a2.36,2.36,0,0,1-1.88.83c-3,0-3-3.95-3-6.06,0-1.95.22-5.74,2.94-5.74a2.35,2.35,0,0,1,2,1v-.8h1.5Zm-3.14-11.89c-1.59,0-1.72,2.68-1.72,5.1,0,1.25,0,4.32,1.85,4.32,1.32,0,1.51-1.54,1.59-2.5s.08-1.87.08-2.81C387.19,216,387.19,213.14,385.39,213.14Z" transform="translate(-59.5 -22.5)"/><path class="cls-2" d="M397.1,219.8c-.08,1.87-.66,4.13-3,4.13-3,0-3.43-3.71-3.43-6s.44-6,3.33-6,3.2,3.51,3.2,5.56c0,.24,0,.5,0,.73h-5v.26c0,1.17.19,4.06,1.88,4.06,1.32,0,1.51-1.77,1.53-2.76ZM395.73,217c-.06-1-.19-3.69-1.7-3.69s-1.77,2.63-1.82,3.69Z" transform="translate(-59.5 -22.5)"/><path class="cls-2" d="M401.33,213.48v10.27h-1.48V213.48h-1.27v-1.35h1.27v-3.3h1.48v3.3h2v1.35Z" transform="translate(-59.5 -22.5)"/><path class="cls-2" d="M101.16,255H99.68v-8.6c0-1-.16-2-1.37-2-1.72,0-1.8,1.9-1.8,3.18V255H95v-8.58c0-.86-.08-2-1.24-2-1.85,0-1.91,2.06-1.91,3.41V255H90.37V243.33h1.48v1a3.19,3.19,0,0,1,2.3-1.14,2.31,2.31,0,0,1,2.17,1.35,2.88,2.88,0,0,1,2.43-1.35c1.91,0,2.41,1.22,2.41,2.88Z" transform="translate(-59.5 -22.5)"/><path class="cls-2" d="M106.82,255.13c-3,0-3.47-3.74-3.47-6s.43-6,3.47-6,3.3,3.82,3.3,6.06S109.86,255.13,106.82,255.13Zm0-10.63c-1.82,0-1.88,3.54-1.88,4.76s.08,4.5,1.88,4.5,1.8-3.46,1.8-4.63S108.54,244.5,106.79,244.5Z" transform="translate(-59.5 -22.5)"/><path class="cls-2" d="M115.83,244.84c-2,0-2,1.56-2,3.07v7h-1.49V243.33h1.49v1.51a2.41,2.41,0,0,1,2-1.69Z" transform="translate(-59.5 -22.5)"/><path class="cls-2" d="M123.32,251c-.08,1.87-.66,4.13-3,4.13-3,0-3.44-3.71-3.44-5.95s.45-6,3.33-6,3.2,3.51,3.2,5.56c0,.24,0,.5,0,.73h-5v.26c0,1.17.18,4.06,1.88,4.06,1.32,0,1.5-1.77,1.53-2.76Zm-1.38-2.81c0-1-.18-3.69-1.69-3.69s-1.77,2.63-1.82,3.69Z" transform="translate(-59.5 -22.5)"/><path class="cls-2" d="M132.52,240.76a1.11,1.11,0,0,1-1.11-1.07,1.09,1.09,0,0,1,1.11-1.12,1.1,1.1,0,0,1,1.08,1.12A1.08,1.08,0,0,1,132.52,240.76ZM131.75,255V243.33h1.51V255Z" transform="translate(-59.5 -22.5)"/><path class="cls-2" d="M140.48,255V246.5c0-.94,0-2.16-1.33-2.16a1.68,1.68,0,0,0-1.4.76,3.6,3.6,0,0,0-.39,2V255h-1.48V243.33h1.48v.94a3.06,3.06,0,0,1,2.3-1.12c2,0,2.3,1.61,2.3,3.2V255Z" transform="translate(-59.5 -22.5)"/><path class="cls-2" d="M146.53,244.68V255h-1.48V244.68H143.7v-1.35h1.35v-4.65c0-1.49.4-3,2.19-3a3.43,3.43,0,0,1,1.33.26v1.61a1.78,1.78,0,0,0-1.09-.52c-.87,0-.95.78-.95,1.43v4.84h2v1.35Z" transform="translate(-59.5 -22.5)"/><path class="cls-2" d="M153,255.13c-3.05,0-3.47-3.74-3.47-6s.42-6,3.47-6,3.3,3.82,3.3,6.06S156,255.13,153,255.13Zm0-10.63c-1.83,0-1.88,3.54-1.88,4.76s.08,4.5,1.88,4.5,1.8-3.46,1.8-4.63S154.67,244.5,152.93,244.5Z" transform="translate(-59.5 -22.5)"/><path class="cls-2" d="M162,244.84c-2,0-2,1.56-2,3.07v7h-1.48V243.33H160v1.51a2.43,2.43,0,0,1,2-1.69Z" transform="translate(-59.5 -22.5)"/><path class="cls-2" d="M174.4,255h-1.48v-8.6c0-1-.16-2-1.38-2-1.71,0-1.79,1.9-1.79,3.18V255h-1.51v-8.58c0-.86-.08-2-1.24-2-1.86,0-1.91,2.06-1.91,3.41V255h-1.48V243.33h1.48v1a3.19,3.19,0,0,1,2.3-1.14,2.31,2.31,0,0,1,2.17,1.35,2.88,2.88,0,0,1,2.43-1.35c1.91,0,2.41,1.22,2.41,2.88Z" transform="translate(-59.5 -22.5)"/><path class="cls-2" d="M181.54,255V254a2.34,2.34,0,0,1-2,1.11c-2.7,0-2.78-3.71-2.78-5.77,0-2.36.08-6.21,2.91-6.21a2.19,2.19,0,0,1,1.88,1v-.78H183V255ZM180,244.32c-1.72,0-1.74,3-1.74,4.13,0,1,0,1.87.07,2.81s.27,2.68,1.64,2.68a1.22,1.22,0,0,0,1-.39c.74-.73.74-3.46.74-4.47C181.7,246.76,181.56,244.32,180,244.32Z" transform="translate(-59.5 -22.5)"/><path class="cls-2" d="M187.62,244.68V255h-1.48V244.68h-1.27v-1.35h1.27V240h1.48v3.3h2v1.35Z" transform="translate(-59.5 -22.5)"/><path class="cls-2" d="M191.69,240.76a1.11,1.11,0,0,1-1.11-1.07,1.09,1.09,0,0,1,1.11-1.12,1.1,1.1,0,0,1,1.08,1.12A1.08,1.08,0,0,1,191.69,240.76ZM190.92,255V243.33h1.51V255Z" transform="translate(-59.5 -22.5)"/><path class="cls-2" d="M198.06,255.13c-3,0-3.46-3.74-3.46-6s.42-6,3.46-6,3.31,3.82,3.31,6.06S201.1,255.13,198.06,255.13Zm0-10.63c-1.83,0-1.88,3.54-1.88,4.76s.08,4.5,1.88,4.5,1.79-3.46,1.79-4.63S199.78,244.5,198,244.5Z" transform="translate(-59.5 -22.5)"/><path class="cls-2" d="M208.19,255V246.5c0-.94,0-2.16-1.32-2.16a1.69,1.69,0,0,0-1.41.76,3.6,3.6,0,0,0-.39,2V255h-1.48V243.33h1.48v.94a3.06,3.06,0,0,1,2.3-1.12c2,0,2.3,1.61,2.3,3.2V255Z" transform="translate(-59.5 -22.5)"/><path class="cls-2" d="M221.49,255.13c-3,0-3.47-3.74-3.47-6s.43-6,3.47-6,3.3,3.82,3.3,6.06S224.53,255.13,221.49,255.13Zm0-10.63c-1.82,0-1.88,3.54-1.88,4.76s.08,4.5,1.88,4.5,1.8-3.46,1.8-4.63S223.21,244.5,221.46,244.5Z" transform="translate(-59.5 -22.5)"/><path class="cls-2" d="M231.62,255V246.5c0-.94,0-2.16-1.33-2.16a1.68,1.68,0,0,0-1.4.76,3.53,3.53,0,0,0-.4,2V255H227V243.33h1.48v.94a3.09,3.09,0,0,1,2.3-1.12c2,0,2.31,1.61,2.31,3.2V255Z" transform="translate(-59.5 -22.5)"/><path class="cls-2" d="M243.83,244.68V255h-1.48V244.68h-1.27v-1.35h1.27V240h1.48v3.3h2v1.35Z" transform="translate(-59.5 -22.5)"/><path class="cls-2" d="M251.76,255V246.5c0-.94,0-2.16-1.32-2.16a1.66,1.66,0,0,0-1.4.76,3.56,3.56,0,0,0-.4,2V255h-1.48V236h1.48v8.27a3.08,3.08,0,0,1,2.3-1.12c1.93,0,2.3,1.35,2.3,3V255Z" transform="translate(-59.5 -22.5)"/><path class="cls-2" d="M261.57,251c-.08,1.87-.66,4.13-3,4.13-3,0-3.43-3.71-3.43-5.95s.44-6,3.33-6,3.2,3.51,3.2,5.56c0,.24,0,.5,0,.73h-5v.26c0,1.17.19,4.06,1.88,4.06,1.32,0,1.51-1.77,1.53-2.76Zm-1.37-2.81c-.06-1-.19-3.69-1.7-3.69s-1.77,2.63-1.82,3.69Z" transform="translate(-59.5 -22.5)"/><path class="cls-2" d="M272,244.68V255h-1.48V244.68h-1.35v-1.35h1.35v-4.65c0-1.49.4-3,2.19-3A3.43,3.43,0,0,1,274,236v1.61a1.78,1.78,0,0,0-1.09-.52c-.87,0-1,.78-1,1.43v4.84h2v1.35Z" transform="translate(-59.5 -22.5)"/><path class="cls-2" d="M279.92,255V254a2.34,2.34,0,0,1-2,1.11c-2.7,0-2.78-3.71-2.78-5.77,0-2.36.08-6.21,2.91-6.21a2.19,2.19,0,0,1,1.88,1v-.78h1.51V255Zm-1.51-10.63c-1.72,0-1.74,3-1.74,4.13,0,1,0,1.87.08,2.81s.26,2.68,1.64,2.68a1.21,1.21,0,0,0,.95-.39c.74-.73.74-3.46.74-4.47C280.08,246.76,280,244.32,278.41,244.32Z" transform="translate(-59.5 -22.5)"/><path class="cls-2" d="M288.72,254.54a2.91,2.91,0,0,1-1.69.59c-2.78,0-3.41-3.71-3.41-5.79s.48-6.19,3.49-6.19a3.2,3.2,0,0,1,1.61.44v1.72a2.09,2.09,0,0,0-1.48-.81c-1.87,0-2.06,3.41-2.06,4.71s.24,4.55,2,4.55a2,2,0,0,0,1.5-1Z" transform="translate(-59.5 -22.5)"/><path class="cls-2" d="M292.5,244.68V255H291V244.68h-1.27v-1.35H291V240h1.48v3.3h2v1.35Z" transform="translate(-59.5 -22.5)"/><path class="cls-2" d="M298.82,255.13c-3,0-3.46-3.74-3.46-6s.42-6,3.46-6,3.31,3.82,3.31,6.06S301.86,255.13,298.82,255.13Zm0-10.63c-1.83,0-1.88,3.54-1.88,4.76s.08,4.5,1.88,4.5,1.79-3.46,1.79-4.63S300.54,244.5,298.8,244.5Z" transform="translate(-59.5 -22.5)"/><path class="cls-2" d="M307.84,244.84c-2,0-2,1.56-2,3.07v7h-1.48V243.33h1.48v1.51a2.43,2.43,0,0,1,2-1.69Z" transform="translate(-59.5 -22.5)"/><path class="cls-2" d="M314,245.69a2.78,2.78,0,0,0-2-1.19,1.47,1.47,0,0,0-1.46,1.53c0,2.27,3.81,2.68,3.81,5.83a3.15,3.15,0,0,1-3.17,3.27,3.64,3.64,0,0,1-2.2-.8v-1.72a3,3,0,0,0,2.09,1.15,1.71,1.71,0,0,0,1.72-1.8c0-2.29-3.81-3.07-3.81-5.87a2.84,2.84,0,0,1,2.94-2.94,3.53,3.53,0,0,1,2.11.75Z" transform="translate(-59.5 -22.5)"/><path class="cls-2" d="M323.73,244.11a2.2,2.2,0,0,1,1.9-1c2.88,0,2.91,3.69,2.91,5.77,0,2.5-.08,6.21-2.78,6.21a2.47,2.47,0,0,1-2-1.11V255h-1.48V236h1.48Zm1.53.21c-1.53,0-1.66,2.44-1.66,4.76,0,1,0,3.74.74,4.47a1.18,1.18,0,0,0,1,.39c1.37,0,1.53-1.67,1.64-2.68s.08-1.82.08-2.73C327,247.36,327,244.32,325.26,244.32Z" transform="translate(-59.5 -22.5)"/><path class="cls-2" d="M336.71,251c-.08,1.87-.66,4.13-3,4.13-3,0-3.43-3.71-3.43-5.95s.45-6,3.33-6,3.2,3.51,3.2,5.56c0,.24,0,.5,0,.73h-5v.26c0,1.17.19,4.06,1.88,4.06,1.32,0,1.51-1.77,1.53-2.76Zm-1.37-2.81c-.06-1-.19-3.69-1.7-3.69s-1.77,2.63-1.82,3.69Z" transform="translate(-59.5 -22.5)"/><path class="cls-2" d="M343.61,255V246.5c0-.94,0-2.16-1.32-2.16a1.66,1.66,0,0,0-1.4.76,3.56,3.56,0,0,0-.4,2V255H339V236h1.48v8.27a3.08,3.08,0,0,1,2.3-1.12c1.93,0,2.3,1.35,2.3,3V255Z" transform="translate(-59.5 -22.5)"/><path class="cls-2" d="M348.48,240.76a1.11,1.11,0,0,1-1.11-1.07,1.09,1.09,0,0,1,1.11-1.12,1.11,1.11,0,0,1,1.08,1.12A1.09,1.09,0,0,1,348.48,240.76ZM347.71,255V243.33h1.51V255Z" transform="translate(-59.5 -22.5)"/><path class="cls-2" d="M356.44,255V246.5c0-.94,0-2.16-1.33-2.16a1.68,1.68,0,0,0-1.4.76,3.53,3.53,0,0,0-.4,2V255h-1.48V243.33h1.48v.94a3.1,3.1,0,0,1,2.31-1.12c2,0,2.3,1.61,2.3,3.2V255Z" transform="translate(-59.5 -22.5)"/><path class="cls-2" d="M364.92,255V254a2.38,2.38,0,0,1-2,1.11c-2.73,0-2.78-3.87-2.78-5.9,0-2.26,0-6.08,2.93-6.08a2.19,2.19,0,0,1,1.88,1V236h1.48V255Zm-1.53-10.63c-1.69,0-1.72,3-1.72,4.13,0,1,0,1.87.08,2.81s.24,2.68,1.61,2.68a1.25,1.25,0,0,0,1-.39c.71-.7.71-3.43.71-4.4C365.05,246.71,364.92,244.32,363.39,244.32Z" transform="translate(-59.5 -22.5)"/></svg>