<svg id="Ebene_1" data-name="Ebene 1" xmlns="http://www.w3.org/2000/svg" width="405.07" height="288.13" viewBox="0 0 405.07 288.13"><defs><style>.cls-1{fill:none;stroke:#c7f700;stroke-width:8px;}.cls-2{fill:#fde8e9;}</style></defs><g id="Gruppe_432" data-name="Gruppe 432"><g id="Gruppe_430" data-name="Gruppe 430"><g id="Gruppe_93" data-name="Gruppe 93"><path id="Pfad_50-2" data-name="Pfad 50-2" class="cls-1" d="M460.57,122.43V26.5H380.05" transform="translate(-59.5 -22.5)"/><path id="Pfad_51-2" data-name="Pfad 51-2" class="cls-1" d="M460.57,210.7v95.93H380.05" transform="translate(-59.5 -22.5)"/><path id="Pfad_52-2" data-name="Pfad 52-2" class="cls-1" d="M63.5,122.43V26.5H144" transform="translate(-59.5 -22.5)"/><path id="Pfad_53-2" data-name="Pfad 53-2" class="cls-1" d="M63.5,210.7v95.93H144" transform="translate(-59.5 -22.5)"/></g></g></g><path class="cls-2" d="M96.51,67.75l-4.1-8.47v8.47h-1.8V50.41h2.22a6.4,6.4,0,0,1,3,.49c1.59.84,1.91,2.55,1.91,4.16,0,2.4-.82,4.16-3.49,4.37l4.09,8.32Zm-3-9.75C95.61,58,96,56.78,96,55c0-2-.42-3.07-2.67-3.07h-.87V58Z" transform="translate(-59.5 -22.5)"/><path class="cls-2" d="M101.05,53.56a1.1,1.1,0,1,1,1.09-1.07A1.09,1.09,0,0,1,101.05,53.56Zm-.76,14.19V56.13h1.5V67.75Z" transform="translate(-59.5 -22.5)"/><path class="cls-2" d="M108.88,58.5a2.78,2.78,0,0,0-2-1.2,1.46,1.46,0,0,0-1.45,1.53c0,2.27,3.81,2.68,3.81,5.83A3.16,3.16,0,0,1,106,67.93a3.61,3.61,0,0,1-2.19-.8V65.41a3,3,0,0,0,2.09,1.15,1.71,1.71,0,0,0,1.72-1.8c0-2.29-3.81-3.07-3.81-5.87A2.84,2.84,0,0,1,106.77,56a3.53,3.53,0,0,1,2.11.75Z" transform="translate(-59.5 -22.5)"/><path class="cls-2" d="M116.15,67.75l-3.67-5.56v5.56H111v-19h1.48V60.86l3-4.73h1.66l-3.38,5.2L118,67.75Z" transform="translate(-59.5 -22.5)"/><path class="cls-2" d="M123.11,58.5a2.78,2.78,0,0,0-2-1.2,1.46,1.46,0,0,0-1.45,1.53c0,2.27,3.8,2.68,3.8,5.83a3.15,3.15,0,0,1-3.17,3.27,3.67,3.67,0,0,1-2.2-.8V65.41a3.06,3.06,0,0,0,2.09,1.15,1.71,1.71,0,0,0,1.72-1.8c0-2.29-3.81-3.07-3.81-5.87A2.84,2.84,0,0,1,121,56a3.58,3.58,0,0,1,2.12.75Z" transform="translate(-59.5 -22.5)"/><path class="cls-2" d="M135.88,67.75v-.93a2.34,2.34,0,0,1-2,1.11c-2.7,0-2.78-3.71-2.78-5.77,0-2.36.08-6.21,2.91-6.21a2.2,2.2,0,0,1,1.88,1v-.78h1.5V67.75Zm-1.51-10.63c-1.72,0-1.75,3-1.75,4.13,0,1,0,1.87.08,2.81s.27,2.68,1.64,2.68a1.18,1.18,0,0,0,.95-.39c.74-.73.74-3.46.74-4.47C136,59.56,135.9,57.12,134.37,57.12Z" transform="translate(-59.5 -22.5)"/><path class="cls-2" d="M144.63,67.75V59.3c0-.93,0-2.16-1.32-2.16a1.68,1.68,0,0,0-1.41.76,3.6,3.6,0,0,0-.39,2v7.82H140V56.13h1.48v.94a3.1,3.1,0,0,1,2.3-1.12c2,0,2.3,1.61,2.3,3.2v8.6Z" transform="translate(-59.5 -22.5)"/><path class="cls-2" d="M153.11,67.75v-.93a2.36,2.36,0,0,1-2,1.11c-2.73,0-2.78-3.87-2.78-5.9,0-2.26,0-6.08,2.94-6.08a2.17,2.17,0,0,1,1.87,1V48.8h1.49v19Zm-1.53-10.63c-1.69,0-1.72,3-1.72,4.13,0,1,0,1.87.08,2.81s.24,2.68,1.61,2.68a1.25,1.25,0,0,0,1-.39c.72-.7.72-3.43.72-4.4C153.25,59.51,153.11,57.12,151.58,57.12Z" transform="translate(-59.5 -22.5)"/><path class="cls-2" d="M164.88,56.91a2.2,2.2,0,0,1,1.9-1c2.89,0,2.91,3.69,2.91,5.77,0,2.5-.08,6.21-2.77,6.21a2.49,2.49,0,0,1-2-1.11v.93H163.4v-19h1.48Zm1.53.21c-1.53,0-1.66,2.44-1.66,4.76,0,1,0,3.74.74,4.47a1.18,1.18,0,0,0,.95.39c1.37,0,1.53-1.67,1.64-2.68s.08-1.82.08-2.73C168.16,60.16,168.13,57.12,166.41,57.12Z" transform="translate(-59.5 -22.5)"/><path class="cls-2" d="M177.86,63.8c-.08,1.87-.66,4.13-3,4.13-3,0-3.43-3.71-3.43-6s.45-6,3.33-6,3.2,3.51,3.2,5.56c0,.24,0,.5,0,.73h-5v.26c0,1.17.19,4.06,1.88,4.06,1.32,0,1.51-1.77,1.54-2.76ZM176.49,61c-.06-1-.19-3.69-1.7-3.69S173,59.93,173,61Z" transform="translate(-59.5 -22.5)"/><path class="cls-2" d="M184.76,67.75V59.3c0-.93,0-2.16-1.32-2.16a1.68,1.68,0,0,0-1.4.76,3.53,3.53,0,0,0-.4,2v7.82h-1.48V56.13h1.48v.94a3.11,3.11,0,0,1,2.3-1.12c2,0,2.3,1.61,2.3,3.2v8.6Z" transform="translate(-59.5 -22.5)"/><path class="cls-2" d="M194.86,63.8c-.08,1.87-.66,4.13-3,4.13-3,0-3.44-3.71-3.44-6s.45-6,3.33-6,3.2,3.51,3.2,5.56c0,.24,0,.5,0,.73h-5v.26c0,1.17.19,4.06,1.88,4.06,1.32,0,1.51-1.77,1.54-2.76ZM193.49,61c-.06-1-.19-3.69-1.7-3.69S190,59.93,190,61Z" transform="translate(-59.5 -22.5)"/><path class="cls-2" d="M199.09,57.48V67.75h-1.48V57.48h-1.35V56.13h1.35V51.48c0-1.49.4-3,2.2-3a3.34,3.34,0,0,1,1.32.26v1.61a1.78,1.78,0,0,0-1.09-.52c-.87,0-.95.78-.95,1.43v4.84h2v1.35ZM203,53.56a1.1,1.1,0,1,1,1.08-1.07A1.08,1.08,0,0,1,203,53.56Zm-.77,14.19V56.13h1.51V67.75Z" transform="translate(-59.5 -22.5)"/><path class="cls-2" d="M208.35,57.48V67.75h-1.48V57.48H205.6V56.13h1.27v-3.3h1.48v3.3h2v1.35Z" transform="translate(-59.5 -22.5)"/><path class="cls-2" d="M216.15,58.5a2.78,2.78,0,0,0-2-1.2,1.46,1.46,0,0,0-1.45,1.53c0,2.27,3.8,2.68,3.8,5.83a3.15,3.15,0,0,1-3.17,3.27,3.61,3.61,0,0,1-2.19-.8V65.41a3,3,0,0,0,2.08,1.15,1.71,1.71,0,0,0,1.72-1.8c0-2.29-3.8-3.07-3.8-5.87A2.83,2.83,0,0,1,214,56a3.56,3.56,0,0,1,2.12.75Z" transform="translate(-59.5 -22.5)"/><path class="cls-2" d="M228.89,58.5a2.78,2.78,0,0,0-2-1.2,1.46,1.46,0,0,0-1.45,1.53c0,2.27,3.81,2.68,3.81,5.83A3.16,3.16,0,0,1,226,67.93a3.61,3.61,0,0,1-2.19-.8V65.41a3,3,0,0,0,2.09,1.15,1.71,1.71,0,0,0,1.72-1.8c0-2.29-3.81-3.07-3.81-5.87A2.84,2.84,0,0,1,226.77,56a3.53,3.53,0,0,1,2.12.75Z" transform="translate(-59.5 -22.5)"/><path class="cls-2" d="M237.14,64.92a3.07,3.07,0,0,1-6.14,0V56.13h1.49V64c0,1.19,0,2.55,1.63,2.55s1.54-1.56,1.54-2.71V56.13h1.48Z" transform="translate(-59.5 -22.5)"/><path class="cls-2" d="M250.57,67.75h-1.48v-8.6c0-1-.16-2-1.38-2-1.71,0-1.79,1.9-1.79,3.18v7.43h-1.51V59.17c0-.86-.08-2-1.24-2-1.85,0-1.91,2.06-1.91,3.41v7.2h-1.48V56.13h1.48v1a3.19,3.19,0,0,1,2.3-1.14,2.31,2.31,0,0,1,2.17,1.35A2.88,2.88,0,0,1,248.17,56c1.9,0,2.4,1.22,2.4,2.88Z" transform="translate(-59.5 -22.5)"/><path class="cls-2" d="M265.51,64.92a3.07,3.07,0,0,1-6.14,0V56.13h1.48V64c0,1.19.06,2.55,1.64,2.55S264,65,264,63.85V56.13h1.48Z" transform="translate(-59.5 -22.5)"/><path class="cls-2" d="M269.63,56.91a2.16,2.16,0,0,1,1.88-1c2.91,0,2.94,3.66,2.94,5.77,0,2.5-.08,6.21-2.78,6.21a2.49,2.49,0,0,1-2-1.11v5.61h-1.48V56.13h1.48Zm1.54.21c-1.54,0-1.67,2.44-1.67,4.76,0,1,0,3.74.74,4.47a1.21,1.21,0,0,0,.95.39c1.38,0,1.54-1.67,1.64-2.68s.08-1.82.08-2.73C272.91,60.16,272.89,57.12,271.17,57.12Z" transform="translate(-59.5 -22.5)"/><path class="cls-2" d="M284.73,57.48V67.75h-1.48V57.48H282V56.13h1.27v-3.3h1.48v3.3h2v1.35Z" transform="translate(-59.5 -22.5)"/><path class="cls-2" d="M291.05,67.93c-3,0-3.47-3.74-3.47-6s.43-6,3.47-6,3.3,3.82,3.3,6.06S294.09,67.93,291.05,67.93Zm0-10.63c-1.82,0-1.88,3.54-1.88,4.76s.08,4.5,1.88,4.5,1.8-3.46,1.8-4.63S292.77,57.3,291,57.3Z" transform="translate(-59.5 -22.5)"/><path class="cls-2" d="M304.67,57.48V67.75h-1.49V57.48h-1.26V56.13h1.26v-3.3h1.49v3.3h2v1.35Z" transform="translate(-59.5 -22.5)"/><path class="cls-2" d="M312.6,67.75V59.3c0-.93,0-2.16-1.32-2.16a1.68,1.68,0,0,0-1.41.76,3.65,3.65,0,0,0-.39,2v7.82H308v-19h1.48v8.27a3.1,3.1,0,0,1,2.3-1.12c1.93,0,2.3,1.35,2.3,3v8.81Z" transform="translate(-59.5 -22.5)"/><path class="cls-2" d="M322.41,63.8c-.08,1.87-.66,4.13-3,4.13-3,0-3.44-3.71-3.44-6s.45-6,3.33-6,3.2,3.51,3.2,5.56c0,.24,0,.5,0,.73h-5v.26c0,1.17.18,4.06,1.88,4.06,1.32,0,1.5-1.77,1.53-2.76ZM321,61c0-1-.18-3.69-1.69-3.69s-1.77,2.63-1.83,3.69Z" transform="translate(-59.5 -22.5)"/><path class="cls-2" d="M334,67.75h-1.61l-2.7-11.62h1.53l1.56,6.94c.19.83.32,1.67.43,2.5.13-.81.26-1.64.42-2.45l1.45-7h1.54Z" transform="translate(-59.5 -22.5)"/><path class="cls-2" d="M342.5,67.75v-.93a2.33,2.33,0,0,1-2,1.11c-2.7,0-2.78-3.71-2.78-5.77,0-2.36.08-6.21,2.91-6.21a2.19,2.19,0,0,1,1.88,1v-.78H344V67.75ZM341,57.12c-1.72,0-1.74,3-1.74,4.13,0,1,0,1.87.08,2.81s.26,2.68,1.64,2.68a1.21,1.21,0,0,0,.95-.39c.74-.73.74-3.46.74-4.47C342.66,59.56,342.53,57.12,341,57.12Z" transform="translate(-59.5 -22.5)"/><path class="cls-2" d="M350.14,57.64c-2,0-2,1.56-2,3.07v7h-1.48V56.13h1.48v1.51a2.43,2.43,0,0,1,2-1.69Z" transform="translate(-59.5 -22.5)"/><path class="cls-2" d="M352.55,53.56a1.1,1.1,0,1,1,1.08-1.07A1.08,1.08,0,0,1,352.55,53.56Zm-.77,14.19V56.13h1.51V67.75Z" transform="translate(-59.5 -22.5)"/><path class="cls-2" d="M360.4,67.75v-.93a2.33,2.33,0,0,1-2,1.11c-2.7,0-2.78-3.71-2.78-5.77,0-2.36.08-6.21,2.91-6.21a2.19,2.19,0,0,1,1.88,1v-.78h1.51V67.75Zm-1.51-10.63c-1.72,0-1.74,3-1.74,4.13,0,1,0,1.87.08,2.81s.26,2.68,1.64,2.68a1.21,1.21,0,0,0,.95-.39c.74-.73.74-3.46.74-4.47C360.56,59.56,360.43,57.12,358.89,57.12Z" transform="translate(-59.5 -22.5)"/><path class="cls-2" d="M366,56.91a2.2,2.2,0,0,1,1.91-1c2.88,0,2.9,3.69,2.9,5.77,0,2.5-.08,6.21-2.77,6.21a2.49,2.49,0,0,1-2-1.11v.93h-1.48v-19H366Zm1.54.21c-1.54,0-1.67,2.44-1.67,4.76,0,1,0,3.74.74,4.47a1.2,1.2,0,0,0,.95.39c1.38,0,1.53-1.67,1.64-2.68s.08-1.82.08-2.73C369.31,60.16,369.28,57.12,367.57,57.12Z" transform="translate(-59.5 -22.5)"/><path class="cls-2" d="M373,67.75v-19h1.5v19Z" transform="translate(-59.5 -22.5)"/><path class="cls-2" d="M383.17,63.8c-.08,1.87-.67,4.13-3,4.13-3,0-3.44-3.71-3.44-6s.45-6,3.33-6,3.2,3.51,3.2,5.56c0,.24,0,.5,0,.73h-5v.26c0,1.17.18,4.06,1.87,4.06,1.33,0,1.51-1.77,1.54-2.76ZM381.79,61c-.05-1-.18-3.69-1.69-3.69s-1.77,2.63-1.83,3.69Z" transform="translate(-59.5 -22.5)"/><path class="cls-2" d="M99,98.59a4.65,4.65,0,0,1-2.4.54,5.44,5.44,0,0,1-4.18-1.56c-1.24-1.22-2.38-3.35-2.38-7,0-1.74.21-5.07,2.54-7.38a5.84,5.84,0,0,1,4.23-1.74,5.2,5.2,0,0,1,2.19.49v3.54a2.81,2.81,0,0,0-1.93-.76,2.67,2.67,0,0,0-1.93.78c-.95.94-1.45,2.73-1.45,5,0,.44,0,3.2,1.24,4.55a2.57,2.57,0,0,0,2,.83A3.08,3.08,0,0,0,99,95Z" transform="translate(-59.5 -22.5)"/><path class="cls-2" d="M105.07,99.19c-3.38,0-4.49-3.23-4.49-6s1.11-6,4.49-6,4.45,3.15,4.45,6S108.56,99.19,105.07,99.19Zm0-9.16c-1.08,0-1.16,2.37-1.16,3.12s.08,3.12,1.16,3.12,1.11-2.41,1.11-3.12S106.1,90,105.07,90Z" transform="translate(-59.5 -22.5)"/><path class="cls-2" d="M116.28,99V91.83c0-.52,0-1.46-.79-1.46-.95,0-.9,1.2-.9,1.85V99h-3.3V87.33h3.3v1.82a3.17,3.17,0,0,1,2.81-2c2,0,2.19,1.87,2.19,3.43V99Z" transform="translate(-59.5 -22.5)"/><path class="cls-2" d="M127.23,90.48a2.25,2.25,0,0,0-1.56-.78.8.8,0,0,0-.85.83c0,1.4,3.71,1.12,3.71,4.63,0,2.21-1.35,4-3.73,4a5.8,5.8,0,0,1-3.6-1.33l1.46-2.31a2.52,2.52,0,0,0,1.61.72,1,1,0,0,0,1.06-1c0-1.45-3.86-1.25-3.86-4.76,0-2.23,1.82-3.43,3.94-3.43a5,5,0,0,1,3.14,1Z" transform="translate(-59.5 -22.5)"/><path class="cls-2" d="M137.94,95a5.27,5.27,0,0,1-1.27,3.33,3.37,3.37,0,0,1-2.57.91,3.68,3.68,0,0,1-2.82-1,6.4,6.4,0,0,1-1.62-4.71,7.45,7.45,0,0,1,1.72-5.25,3.68,3.68,0,0,1,2.7-1.07,3.55,3.55,0,0,1,2.54.94,6.42,6.42,0,0,1,1.53,4.52,9.14,9.14,0,0,1-.08,1.15h-5.23a4.3,4.3,0,0,0,0,.65,3.4,3.4,0,0,0,.47,2.05.91.91,0,0,0,.69.31,1,1,0,0,0,.66-.21,2.77,2.77,0,0,0,.51-1.58Zm-2.67-3.23a2.89,2.89,0,0,0-.53-1.89,1,1,0,0,0-.61-.24,1.09,1.09,0,0,0-.74.31,3.18,3.18,0,0,0-.5,1.82Z" transform="translate(-59.5 -22.5)"/><path class="cls-2" d="M144.94,104.31V97.63a2.52,2.52,0,0,1-2.19,1.56c-2.72,0-3.2-4.11-3.2-6.09s.4-6,3.17-6a2.46,2.46,0,0,1,2.22,1.64V87.33h3.31v17ZM144.05,90c-1.09,0-1.17,2.4-1.17,3.12s.08,3.12,1.19,3.12,1.11-2.41,1.11-3.12S145.1,90,144.05,90Z" transform="translate(-59.5 -22.5)"/><path class="cls-2" d="M158.64,95.18a3.64,3.64,0,0,1-.55,2.21,4.37,4.37,0,0,1-3.63,1.8,4.28,4.28,0,0,1-3.62-1.82,3.51,3.51,0,0,1-.48-2v-8h3.31v7.15c0,.57,0,1.69.82,1.69,1,0,.82-1.56.82-2.18V87.33h3.33Z" transform="translate(-59.5 -22.5)"/><path class="cls-2" d="M168.66,95a5.21,5.21,0,0,1-1.27,3.33,3.36,3.36,0,0,1-2.56.91,3.7,3.7,0,0,1-2.83-1,6.4,6.4,0,0,1-1.61-4.71,7.49,7.49,0,0,1,1.71-5.25,3.7,3.7,0,0,1,2.7-1.07,3.55,3.55,0,0,1,2.54.94,6.42,6.42,0,0,1,1.53,4.52,7.59,7.59,0,0,1-.08,1.15h-5.23a4.3,4.3,0,0,0,0,.65,3.39,3.39,0,0,0,.48,2.05.88.88,0,0,0,.69.31,1.06,1.06,0,0,0,.66-.21,2.76,2.76,0,0,0,.5-1.58ZM166,91.72a2.89,2.89,0,0,0-.53-1.89,1,1,0,0,0-.61-.24,1.09,1.09,0,0,0-.74.31,3.18,3.18,0,0,0-.5,1.82Z" transform="translate(-59.5 -22.5)"/><path class="cls-2" d="M175.62,99V91.83c0-.52,0-1.46-.8-1.46-.95,0-.9,1.2-.9,1.85V99h-3.3V87.33h3.3v1.82a3.17,3.17,0,0,1,2.81-2c2,0,2.19,1.87,2.19,3.43V99Z" transform="translate(-59.5 -22.5)"/><path class="cls-2" d="M186.88,98.77a4.26,4.26,0,0,1-1.88.42c-3.17,0-4.31-3.28-4.31-5.91,0-2.83,1.08-6.18,4.52-6.18a4.12,4.12,0,0,1,1.67.33v2.86a1.27,1.27,0,0,0-.93-.39c-1.58,0-1.93,1.95-1.93,3.15s.27,3.09,1.88,3.09a1.77,1.77,0,0,0,1-.33Z" transform="translate(-59.5 -22.5)"/><path class="cls-2" d="M196.37,95a5.27,5.27,0,0,1-1.27,3.33,3.36,3.36,0,0,1-2.56.91,3.7,3.7,0,0,1-2.83-1,6.4,6.4,0,0,1-1.62-4.71,7.5,7.5,0,0,1,1.72-5.25,3.7,3.7,0,0,1,2.7-1.07,3.55,3.55,0,0,1,2.54.94,6.42,6.42,0,0,1,1.53,4.52,7.59,7.59,0,0,1-.08,1.15h-5.23a4.3,4.3,0,0,0,0,.65,3.39,3.39,0,0,0,.48,2.05.87.87,0,0,0,.68.31,1.07,1.07,0,0,0,.67-.21,2.76,2.76,0,0,0,.5-1.58Zm-2.67-3.23a2.89,2.89,0,0,0-.53-1.89,1,1,0,0,0-.61-.24,1.09,1.09,0,0,0-.74.31,3.18,3.18,0,0,0-.5,1.82Z" transform="translate(-59.5 -22.5)"/><path class="cls-2" d="M203.85,90.48a2.25,2.25,0,0,0-1.56-.78.79.79,0,0,0-.84.83c0,1.4,3.7,1.12,3.7,4.63,0,2.21-1.35,4-3.73,4a5.8,5.8,0,0,1-3.6-1.33l1.46-2.31a2.54,2.54,0,0,0,1.61.72,1,1,0,0,0,1.06-1c0-1.45-3.86-1.25-3.86-4.76,0-2.23,1.82-3.43,3.94-3.43a5,5,0,0,1,3.14,1Z" transform="translate(-59.5 -22.5)"/><path class="cls-2" d="M206.89,102.64l-1.14-.52,1.83-5.33,1.64.73Z" transform="translate(-59.5 -22.5)"/><path class="cls-2" d="M225.19,99h-1.53c-.51-3.22-1.09-6.45-1.51-9.67-.11.62-.13,1.2-.24,1.82L220.61,99h-1.53L216.7,87.33h1.51l1.32,7c.16.8.26,1.63.34,2.44.06-.78.22-1.59.35-2.39l1.19-7.1h1.53c.5,3.15,1.11,6.32,1.48,9.49.13-.81.24-1.64.4-2.47l1.45-7h1.51Z" transform="translate(-59.5 -22.5)"/><path class="cls-2" d="M234,99V90.5c0-.93,0-2.16-1.32-2.16a1.68,1.68,0,0,0-1.41.76,3.65,3.65,0,0,0-.39,2V99h-1.48V80h1.48v8.27a3.1,3.1,0,0,1,2.3-1.12c1.93,0,2.3,1.35,2.3,3V99Z" transform="translate(-59.5 -22.5)"/><path class="cls-2" d="M238.83,84.76a1.1,1.1,0,1,1,1.09-1.07A1.09,1.09,0,0,1,238.83,84.76ZM238.06,99V87.33h1.51V99Z" transform="translate(-59.5 -22.5)"/><path class="cls-2" d="M246.84,98.54a2.91,2.91,0,0,1-1.69.59c-2.78,0-3.41-3.71-3.41-5.79s.47-6.19,3.49-6.19a3.2,3.2,0,0,1,1.61.44v1.72a2.09,2.09,0,0,0-1.48-.81c-1.88,0-2.06,3.41-2.06,4.71s.24,4.55,2,4.55a2,2,0,0,0,1.51-1Z" transform="translate(-59.5 -22.5)"/><path class="cls-2" d="M253.19,99V90.5c0-.93,0-2.16-1.32-2.16a1.68,1.68,0,0,0-1.41.76,3.65,3.65,0,0,0-.39,2V99h-1.48V80h1.48v8.27a3.1,3.1,0,0,1,2.3-1.12c1.93,0,2.3,1.35,2.3,3V99Z" transform="translate(-59.5 -22.5)"/><path class="cls-2" d="M264.21,84.76a1.1,1.1,0,1,1,1.09-1.07A1.09,1.09,0,0,1,264.21,84.76ZM263.45,99V87.33H265V99Z" transform="translate(-59.5 -22.5)"/><path class="cls-2" d="M272,89.7a2.78,2.78,0,0,0-2-1.2A1.46,1.46,0,0,0,268.55,90c0,2.27,3.81,2.68,3.81,5.83a3.16,3.16,0,0,1-3.18,3.27,3.61,3.61,0,0,1-2.19-.8V96.61a3,3,0,0,0,2.09,1.15A1.72,1.72,0,0,0,270.8,96c0-2.29-3.81-3.07-3.81-5.87a2.84,2.84,0,0,1,2.93-2.94,3.53,3.53,0,0,1,2.12.75Z" transform="translate(-59.5 -22.5)"/><path class="cls-2" d="M283.33,99.13c-3,0-3.46-3.74-3.46-6s.42-6,3.46-6,3.3,3.82,3.3,6.06S286.37,99.13,283.33,99.13Zm0-10.63c-1.82,0-1.88,3.54-1.88,4.76s.08,4.5,1.88,4.5,1.8-3.46,1.8-4.63S285.05,88.5,283.3,88.5Z" transform="translate(-59.5 -22.5)"/><path class="cls-2" d="M293.46,99V90.5c0-.93,0-2.16-1.33-2.16a1.68,1.68,0,0,0-1.4.76,3.53,3.53,0,0,0-.4,2V99h-1.48V87.33h1.48v.94a3.13,3.13,0,0,1,2.31-1.12c2,0,2.3,1.61,2.3,3.2V99Z" transform="translate(-59.5 -22.5)"/><path class="cls-2" d="M303.56,95c-.08,1.87-.67,4.13-3,4.13-3,0-3.44-3.71-3.44-5.95s.45-6,3.33-6,3.2,3.51,3.2,5.56c0,.24,0,.5,0,.73h-5v.26c0,1.17.18,4.06,1.87,4.06,1.33,0,1.51-1.77,1.54-2.76Zm-1.38-2.81c-.05-1-.18-3.69-1.69-3.69s-1.77,2.63-1.83,3.69Z" transform="translate(-59.5 -22.5)"/><path class="cls-2" d="M315,99.13c-3,0-3.46-3.74-3.46-6s.42-6,3.46-6,3.3,3.82,3.3,6.06S318.07,99.13,315,99.13Zm0-10.63c-1.82,0-1.88,3.54-1.88,4.76s.08,4.5,1.88,4.5,1.8-3.46,1.8-4.63S316.75,88.5,315,88.5Z" transform="translate(-59.5 -22.5)"/><path class="cls-2" d="M322.49,88.68V99H321V88.68h-1.34V87.33H321V82.68c0-1.49.4-3,2.2-3a3.34,3.34,0,0,1,1.32.26v1.61a1.75,1.75,0,0,0-1.08-.52c-.87,0-.95.78-.95,1.43v4.84h2v1.35Z" transform="translate(-59.5 -22.5)"/><path class="cls-2" d="M334,88.68V99h-1.48V88.68h-1.27V87.33h1.27V84H334v3.3h2v1.35Z" transform="translate(-59.5 -22.5)"/><path class="cls-2" d="M342,99V90.5c0-.93,0-2.16-1.32-2.16a1.66,1.66,0,0,0-1.4.76,3.57,3.57,0,0,0-.4,2V99h-1.48V80h1.48v8.27a3.11,3.11,0,0,1,2.3-1.12c1.93,0,2.3,1.35,2.3,3V99Z" transform="translate(-59.5 -22.5)"/><path class="cls-2" d="M349.59,88.84c-2,0-2,1.56-2,3.07v7H346.1V87.33h1.48v1.51a2.41,2.41,0,0,1,2-1.69Z" transform="translate(-59.5 -22.5)"/><path class="cls-2" d="M357.07,95c-.08,1.87-.66,4.13-3,4.13-3,0-3.44-3.71-3.44-5.95s.45-6,3.33-6,3.2,3.51,3.2,5.56c0,.24,0,.5,0,.73h-5v.26c0,1.17.19,4.06,1.88,4.06,1.32,0,1.51-1.77,1.53-2.76Zm-1.38-2.81c-.05-1-.18-3.69-1.69-3.69s-1.77,2.63-1.82,3.69Z" transform="translate(-59.5 -22.5)"/><path class="cls-2" d="M365.34,95c-.08,1.87-.66,4.13-3,4.13-3,0-3.44-3.71-3.44-5.95s.45-6,3.33-6,3.2,3.51,3.2,5.56c0,.24,0,.5,0,.73h-5v.26c0,1.17.18,4.06,1.87,4.06,1.32,0,1.51-1.77,1.54-2.76ZM364,92.19c-.05-1-.19-3.69-1.69-3.69s-1.78,2.63-1.83,3.69Z" transform="translate(-59.5 -22.5)"/><path class="cls-2" d="M375.73,88.68V99h-1.48V88.68H372.9V87.33h1.35V82.68c0-1.49.4-3,2.2-3a3.34,3.34,0,0,1,1.32.26v1.61a1.78,1.78,0,0,0-1.08-.52c-.88,0-1,.78-1,1.43v4.84h2v1.35Z" transform="translate(-59.5 -22.5)"/><path class="cls-2" d="M383.69,99V98a2.33,2.33,0,0,1-2,1.11c-2.69,0-2.77-3.71-2.77-5.77,0-2.36.08-6.21,2.91-6.21a2.18,2.18,0,0,1,1.87,1v-.78h1.51V99Zm-1.5-10.63c-1.72,0-1.75,3-1.75,4.13,0,1,0,1.87.08,2.81s.26,2.68,1.64,2.68a1.18,1.18,0,0,0,.95-.39c.74-.73.74-3.46.74-4.47C383.85,90.76,383.72,88.32,382.19,88.32Z" transform="translate(-59.5 -22.5)"/><path class="cls-2" d="M392.5,98.54a2.93,2.93,0,0,1-1.69.59c-2.78,0-3.42-3.71-3.42-5.79s.48-6.19,3.49-6.19a3.23,3.23,0,0,1,1.62.44v1.72A2.13,2.13,0,0,0,391,88.5c-1.88,0-2.07,3.41-2.07,4.71s.24,4.55,2,4.55a2,2,0,0,0,1.51-1Z" transform="translate(-59.5 -22.5)"/><path class="cls-2" d="M396.28,88.68V99H394.8V88.68h-1.27V87.33h1.27V84h1.48v3.3h2v1.35Z" transform="translate(-59.5 -22.5)"/><path class="cls-2" d="M402.6,99.13c-3,0-3.47-3.74-3.47-6s.43-6,3.47-6,3.3,3.82,3.3,6.06S405.64,99.13,402.6,99.13Zm0-10.63c-1.82,0-1.88,3.54-1.88,4.76s.08,4.5,1.88,4.5,1.8-3.46,1.8-4.63S404.32,88.5,402.57,88.5Z" transform="translate(-59.5 -22.5)"/><path class="cls-2" d="M411.61,88.84c-2,0-2,1.56-2,3.07v7h-1.48V87.33h1.48v1.51a2.43,2.43,0,0,1,2-1.69Z" transform="translate(-59.5 -22.5)"/><path class="cls-2" d="M417.75,89.7a2.78,2.78,0,0,0-2-1.2A1.46,1.46,0,0,0,414.26,90c0,2.27,3.8,2.68,3.8,5.83a3.15,3.15,0,0,1-3.17,3.27,3.61,3.61,0,0,1-2.19-.8V96.61a3,3,0,0,0,2.09,1.15A1.71,1.71,0,0,0,416.5,96c0-2.29-3.8-3.07-3.8-5.87a2.83,2.83,0,0,1,2.93-2.94,3.56,3.56,0,0,1,2.12.75Z" transform="translate(-59.5 -22.5)"/><path class="cls-2" d="M91.85,119.31a2.2,2.2,0,0,1,1.91-1c2.88,0,2.91,3.69,2.91,5.77,0,2.5-.08,6.21-2.78,6.21a2.49,2.49,0,0,1-2-1.11v.93H90.37v-19h1.48Zm1.54.21c-1.54,0-1.67,2.44-1.67,4.76,0,1,0,3.74.74,4.47a1.21,1.21,0,0,0,1,.39c1.38,0,1.54-1.67,1.64-2.68s.08-1.82.08-2.73C95.13,122.56,95.11,119.52,93.39,119.52Z" transform="translate(-59.5 -22.5)"/><path class="cls-2" d="M104.84,126.2c-.08,1.87-.67,4.13-3,4.13-3,0-3.44-3.71-3.44-6s.45-6,3.33-6,3.2,3.51,3.2,5.56c0,.24,0,.5,0,.73h-5v.26c0,1.17.18,4.06,1.87,4.06,1.33,0,1.51-1.77,1.54-2.76Zm-1.38-2.81c0-1-.18-3.69-1.69-3.69s-1.77,2.63-1.83,3.69Z" transform="translate(-59.5 -22.5)"/><path class="cls-2" d="M111.74,130.15V121.7c0-.93,0-2.16-1.33-2.16a1.68,1.68,0,0,0-1.4.76,3.65,3.65,0,0,0-.39,2v7.82h-1.48v-19h1.48v8.27a3.1,3.1,0,0,1,2.3-1.12c1.93,0,2.3,1.35,2.3,3v8.81Z" transform="translate(-59.5 -22.5)"/><path class="cls-2" d="M116.6,116a1.1,1.1,0,1,1,1.09-1.07A1.09,1.09,0,0,1,116.6,116Zm-.77,14.19V118.53h1.51v11.62Z" transform="translate(-59.5 -22.5)"/><path class="cls-2" d="M124.56,130.15V121.7c0-.93,0-2.16-1.32-2.16a1.66,1.66,0,0,0-1.4.76,3.53,3.53,0,0,0-.4,2v7.82H120V118.53h1.48v.94a3.1,3.1,0,0,1,2.3-1.12c2,0,2.3,1.61,2.3,3.2v8.6Z" transform="translate(-59.5 -22.5)"/><path class="cls-2" d="M133.05,130.15v-.93a2.38,2.38,0,0,1-2,1.11c-2.72,0-2.78-3.87-2.78-5.9,0-2.26,0-6.08,2.94-6.08a2.19,2.19,0,0,1,1.88,1V111.2h1.48v19Zm-1.54-10.63c-1.69,0-1.72,3-1.72,4.13,0,1,0,1.87.08,2.81s.24,2.68,1.62,2.68a1.24,1.24,0,0,0,1-.39c.72-.7.72-3.43.72-4.4C133.18,121.91,133.05,119.52,131.51,119.52Z" transform="translate(-59.5 -22.5)"/><path class="cls-2" d="M145.26,119.88v10.27h-1.48V119.88h-1.27v-1.35h1.27v-3.3h1.48v3.3h2v1.35Z" transform="translate(-59.5 -22.5)"/><path class="cls-2" d="M153.19,130.15V121.7c0-.93,0-2.16-1.32-2.16a1.68,1.68,0,0,0-1.4.76,3.57,3.57,0,0,0-.4,2v7.82h-1.48v-19h1.48v8.27a3.11,3.11,0,0,1,2.3-1.12c1.93,0,2.3,1.35,2.3,3v8.81Z" transform="translate(-59.5 -22.5)"/><path class="cls-2" d="M163,126.2c-.08,1.87-.66,4.13-3,4.13-3,0-3.43-3.71-3.43-6s.45-6,3.33-6,3.2,3.51,3.2,5.56c0,.24,0,.5,0,.73h-5v.26c0,1.17.19,4.06,1.88,4.06,1.32,0,1.51-1.77,1.54-2.76Zm-1.37-2.81c0-1-.19-3.69-1.69-3.69s-1.78,2.63-1.83,3.69Z" transform="translate(-59.5 -22.5)"/><path class="cls-2" d="M175.93,120.9a2.78,2.78,0,0,0-2-1.2,1.46,1.46,0,0,0-1.46,1.53c0,2.27,3.81,2.68,3.81,5.83a3.16,3.16,0,0,1-3.17,3.27,3.64,3.64,0,0,1-2.2-.8v-1.72A3,3,0,0,0,173,129a1.71,1.71,0,0,0,1.72-1.8c0-2.29-3.81-3.07-3.81-5.87a2.84,2.84,0,0,1,2.94-2.94,3.53,3.53,0,0,1,2.11.75Z" transform="translate(-59.5 -22.5)"/><path class="cls-2" d="M184.18,127.32a3.07,3.07,0,0,1-6.13,0v-8.79h1.48v7.88c0,1.19.05,2.55,1.64,2.55s1.53-1.56,1.53-2.71v-7.72h1.48Z" transform="translate(-59.5 -22.5)"/><path class="cls-2" d="M188.3,119.31a2.21,2.21,0,0,1,1.91-1c2.88,0,2.91,3.69,2.91,5.77,0,2.5-.08,6.21-2.78,6.21a2.51,2.51,0,0,1-2-1.11v.93h-1.48v-19h1.48Zm1.54.21c-1.54,0-1.67,2.44-1.67,4.76,0,1,0,3.74.74,4.47a1.22,1.22,0,0,0,1,.39c1.37,0,1.53-1.67,1.63-2.68s.08-1.82.08-2.73C191.58,122.56,191.56,119.52,189.84,119.52Z" transform="translate(-59.5 -22.5)"/><path class="cls-2" d="M196.13,116a1.1,1.1,0,1,1,1.11-1.07A1.11,1.11,0,0,1,196.13,116Zm-.77,18.87v-16.3h1.54v16.3Z" transform="translate(-59.5 -22.5)"/><path class="cls-2" d="M205.49,126.2c-.08,1.87-.66,4.13-3,4.13-3,0-3.43-3.71-3.43-6s.44-6,3.33-6,3.2,3.51,3.2,5.56c0,.24,0,.5,0,.73h-5v.26c0,1.17.19,4.06,1.88,4.06,1.32,0,1.51-1.77,1.53-2.76Zm-1.37-2.81c-.06-1-.19-3.69-1.7-3.69s-1.77,2.63-1.82,3.69Z" transform="translate(-59.5 -22.5)"/><path class="cls-2" d="M212.45,129.74a3,3,0,0,1-1.7.59c-2.77,0-3.41-3.71-3.41-5.79s.48-6.19,3.49-6.19a3.26,3.26,0,0,1,1.62.44v1.72a2.13,2.13,0,0,0-1.49-.81c-1.87,0-2.06,3.41-2.06,4.71s.24,4.55,2,4.55a2,2,0,0,0,1.51-1Z" transform="translate(-59.5 -22.5)"/><path class="cls-2" d="M216.23,119.88v10.27h-1.49V119.88h-1.27v-1.35h1.27v-3.3h1.49v3.3h2v1.35Z" transform="translate(-59.5 -22.5)"/><path class="cls-2" d="M220.3,116a1.1,1.1,0,1,1,1.08-1.07A1.09,1.09,0,0,1,220.3,116Zm-.77,14.19V118.53H221v11.62Z" transform="translate(-59.5 -22.5)"/><path class="cls-2" d="M226.83,130.15h-1.62l-2.69-11.62h1.53l1.56,6.94A24.15,24.15,0,0,1,226,128c.14-.81.27-1.64.43-2.45l1.45-7h1.54Z" transform="translate(-59.5 -22.5)"/><path class="cls-2" d="M236.74,126.2c-.08,1.87-.66,4.13-3,4.13-3,0-3.43-3.71-3.43-6s.45-6,3.33-6,3.2,3.51,3.2,5.56c0,.24,0,.5,0,.73h-5v.26c0,1.17.19,4.06,1.88,4.06,1.32,0,1.51-1.77,1.54-2.76Zm-1.37-2.81c-.06-1-.19-3.69-1.69-3.69s-1.78,2.63-1.83,3.69Z" transform="translate(-59.5 -22.5)"/><path class="cls-2" d="M246.68,119.31a2.16,2.16,0,0,1,1.88-1c2.91,0,2.94,3.66,2.94,5.77,0,2.5-.08,6.21-2.78,6.21a2.49,2.49,0,0,1-2-1.11v5.61H245.2v-16.3h1.48Zm1.54.21c-1.54,0-1.67,2.44-1.67,4.76,0,1,0,3.74.74,4.47a1.21,1.21,0,0,0,1,.39c1.38,0,1.54-1.67,1.64-2.68s.08-1.82.08-2.73C250,122.56,249.94,119.52,248.22,119.52Z" transform="translate(-59.5 -22.5)"/><path class="cls-2" d="M259.67,126.2c-.08,1.87-.67,4.13-3,4.13-3,0-3.44-3.71-3.44-6s.45-6,3.33-6,3.2,3.51,3.2,5.56c0,.24,0,.5,0,.73h-5v.26c0,1.17.18,4.06,1.87,4.06,1.33,0,1.51-1.77,1.54-2.76Zm-1.38-2.81c-.05-1-.18-3.69-1.69-3.69s-1.77,2.63-1.83,3.69Z" transform="translate(-59.5 -22.5)"/><path class="cls-2" d="M265.46,120c-2,0-2,1.56-2,3.07v7H262V118.53h1.49V120a2.41,2.41,0,0,1,2-1.69Z" transform="translate(-59.5 -22.5)"/><path class="cls-2" d="M271.62,129.74a3,3,0,0,1-1.7.59c-2.77,0-3.41-3.71-3.41-5.79s.48-6.19,3.49-6.19a3.26,3.26,0,0,1,1.62.44v1.72a2.13,2.13,0,0,0-1.49-.81c-1.87,0-2.06,3.41-2.06,4.71s.24,4.55,2,4.55a2,2,0,0,0,1.51-1Z" transform="translate(-59.5 -22.5)"/><path class="cls-2" d="M279.44,126.2c-.08,1.87-.66,4.13-3,4.13-3,0-3.43-3.71-3.43-6s.45-6,3.33-6,3.2,3.51,3.2,5.56c0,.24,0,.5,0,.73h-5v.26c0,1.17.19,4.06,1.88,4.06,1.32,0,1.51-1.77,1.53-2.76Zm-1.37-2.81c-.06-1-.19-3.69-1.69-3.69s-1.78,2.63-1.83,3.69Z" transform="translate(-59.5 -22.5)"/><path class="cls-2" d="M283.22,119.31a2.15,2.15,0,0,1,1.88-1c2.91,0,2.94,3.66,2.94,5.77,0,2.5-.08,6.21-2.78,6.21a2.49,2.49,0,0,1-2-1.11v5.61h-1.48v-16.3h1.48Zm1.54.21c-1.54,0-1.67,2.44-1.67,4.76,0,1,0,3.74.74,4.47a1.2,1.2,0,0,0,.95.39c1.38,0,1.54-1.67,1.64-2.68s.08-1.82.08-2.73C286.5,122.56,286.47,119.52,284.76,119.52Z" transform="translate(-59.5 -22.5)"/><path class="cls-2" d="M292.16,119.88v10.27h-1.48V119.88h-1.27v-1.35h1.27v-3.3h1.48v3.3h2v1.35Z" transform="translate(-59.5 -22.5)"/><path class="cls-2" d="M296.23,116a1.1,1.1,0,1,1,1.08-1.07A1.08,1.08,0,0,1,296.23,116Zm-.77,14.19V118.53H297v11.62Z" transform="translate(-59.5 -22.5)"/><path class="cls-2" d="M302.6,130.33c-3,0-3.46-3.74-3.46-6s.42-6,3.46-6,3.31,3.82,3.31,6.06S305.64,130.33,302.6,130.33Zm0-10.63c-1.83,0-1.88,3.54-1.88,4.76s.08,4.5,1.88,4.5,1.8-3.46,1.8-4.63S304.32,119.7,302.58,119.7Z" transform="translate(-59.5 -22.5)"/><path class="cls-2" d="M312.73,130.15V121.7c0-.93,0-2.16-1.32-2.16a1.66,1.66,0,0,0-1.4.76,3.53,3.53,0,0,0-.4,2v7.82h-1.48V118.53h1.48v.94a3.1,3.1,0,0,1,2.3-1.12c2,0,2.3,1.61,2.3,3.2v8.6Z" transform="translate(-59.5 -22.5)"/><path class="cls-2" d="M326,130.33c-3,0-3.47-3.74-3.47-6s.43-6,3.47-6,3.3,3.82,3.3,6.06S329.07,130.33,326,130.33Zm0-10.63c-1.82,0-1.88,3.54-1.88,4.76s.08,4.5,1.88,4.5,1.8-3.46,1.8-4.63S327.75,119.7,326,119.7Z" transform="translate(-59.5 -22.5)"/><path class="cls-2" d="M333.48,119.88v10.27H332V119.88h-1.35v-1.35H332v-4.65c0-1.49.4-3,2.2-3a3.34,3.34,0,0,1,1.32.26v1.61a1.78,1.78,0,0,0-1.08-.52c-.88,0-1,.78-1,1.43v4.84h2v1.35Z" transform="translate(-59.5 -22.5)"/><path class="cls-2" d="M344.88,114.29v6.11h3.75v1.48h-3.75v8.27h-1.64V112.81h5.61v1.48Z" transform="translate(-59.5 -22.5)"/><path class="cls-2" d="M357,130.15l-4.1-8.47v8.47h-1.79V112.81h2.22a6.42,6.42,0,0,1,3,.49c1.59.84,1.9,2.55,1.9,4.16,0,2.39-.82,4.16-3.49,4.37l4.1,8.32Zm-3-9.75c2.11,0,2.46-1.22,2.46-3,0-2-.43-3.07-2.67-3.07h-.88v6.11Z" transform="translate(-59.5 -22.5)"/><path class="cls-2" d="M363.28,114.29v15.86h-1.64V114.29H359v-1.48h6.93v1.48Z" transform="translate(-59.5 -22.5)"/><path class="cls-2" d="M371,120.9a2.78,2.78,0,0,0-2-1.2,1.46,1.46,0,0,0-1.45,1.53c0,2.27,3.8,2.68,3.8,5.83a3.15,3.15,0,0,1-3.17,3.27,3.61,3.61,0,0,1-2.19-.8v-1.72A3,3,0,0,0,368,129a1.71,1.71,0,0,0,1.72-1.8c0-2.29-3.8-3.07-3.8-5.87a2.83,2.83,0,0,1,2.93-2.94,3.56,3.56,0,0,1,2.12.75Z" transform="translate(-59.5 -22.5)"/><path class="cls-2" d="M374.1,130.33a1.2,1.2,0,0,1-1.19-1.17,1.19,1.19,0,1,1,1.19,1.17Z" transform="translate(-59.5 -22.5)"/><path class="cls-2" d="M92.62,144c3.54,0,4.47,1.53,4.47,4.81,0,3-1.19,4.24-4.28,4.24h-.67v8.29H90.5V144Zm.61,7.56c2.06,0,2.19-1.43,2.19-3.06,0-1.82-.37-3-2.48-3h-.8v6.08Z" transform="translate(-59.5 -22.5)"/><path class="cls-2" d="M104.23,157.4c-.08,1.87-.66,4.13-3,4.13-3,0-3.44-3.72-3.44-5.95s.45-6,3.33-6,3.2,3.51,3.2,5.56c0,.24,0,.49,0,.73h-5v.26c0,1.17.18,4.05,1.88,4.05,1.32,0,1.5-1.76,1.53-2.75Zm-1.38-2.81c0-1-.18-3.69-1.69-3.69s-1.77,2.62-1.82,3.69Z" transform="translate(-59.5 -22.5)"/><path class="cls-2" d="M110,151.24c-2,0-2,1.56-2,3.07v7h-1.48V149.73H108v1.51a2.42,2.42,0,0,1,2-1.69Z" transform="translate(-59.5 -22.5)"/><path class="cls-2" d="M116.18,160.93a2.88,2.88,0,0,1-1.69.6c-2.78,0-3.42-3.72-3.42-5.8s.48-6.18,3.5-6.18a3.22,3.22,0,0,1,1.61.44v1.71a2.13,2.13,0,0,0-1.48-.8c-1.88,0-2.07,3.41-2.07,4.7s.24,4.55,2,4.55a2,2,0,0,0,1.51-1Z" transform="translate(-59.5 -22.5)"/><path class="cls-2" d="M124,157.4c-.07,1.87-.66,4.13-3,4.13-3,0-3.44-3.72-3.44-5.95s.45-6,3.33-6,3.2,3.51,3.2,5.56c0,.24,0,.49,0,.73h-5v.26c0,1.17.18,4.05,1.87,4.05,1.33,0,1.51-1.76,1.54-2.75Zm-1.37-2.81c0-1-.19-3.69-1.69-3.69s-1.77,2.62-1.83,3.69Z" transform="translate(-59.5 -22.5)"/><path class="cls-2" d="M127,147.15a1.09,1.09,0,1,1,1.09-1.06A1.08,1.08,0,0,1,127,147.15Zm-.76,14.2V149.73h1.51v11.62Z" transform="translate(-59.5 -22.5)"/><path class="cls-2" d="M133.58,161.35H132l-2.69-11.62h1.53l1.56,6.94c.18.83.32,1.67.42,2.5.13-.81.27-1.64.43-2.45l1.45-7h1.53Z" transform="translate(-59.5 -22.5)"/><path class="cls-2" d="M143.49,157.4c-.08,1.87-.66,4.13-3,4.13-3,0-3.44-3.72-3.44-5.95s.45-6,3.34-6,3.2,3.51,3.2,5.56c0,.24,0,.49,0,.73h-5v.26c0,1.17.19,4.05,1.88,4.05,1.32,0,1.51-1.76,1.53-2.75Zm-1.37-2.81c-.06-1-.19-3.69-1.7-3.69s-1.77,2.62-1.82,3.69Z" transform="translate(-59.5 -22.5)"/><path class="cls-2" d="M150.15,161.35v-.93a2.38,2.38,0,0,1-2,1.11c-2.73,0-2.78-3.87-2.78-5.9,0-2.26,0-6.08,2.94-6.08a2.18,2.18,0,0,1,1.87,1V142.4h1.48v18.95Zm-1.53-10.63c-1.69,0-1.72,3-1.72,4.13,0,1,0,1.87.08,2.81s.24,2.68,1.61,2.68a1.25,1.25,0,0,0,1-.39c.72-.71.72-3.43.72-4.4C150.29,153.11,150.15,150.72,148.62,150.72Z" transform="translate(-59.5 -22.5)"/><path class="cls-2" d="M163.93,151.24c-2,0-2,1.56-2,3.07v7h-1.48V149.73h1.48v1.51a2.42,2.42,0,0,1,2-1.69Z" transform="translate(-59.5 -22.5)"/><path class="cls-2" d="M166.33,147.15a1.09,1.09,0,1,1,1.09-1.06A1.08,1.08,0,0,1,166.33,147.15Zm-.76,14.2V149.73h1.5v11.62Z" transform="translate(-59.5 -22.5)"/><path class="cls-2" d="M174.16,152.1a2.78,2.78,0,0,0-2-1.2,1.46,1.46,0,0,0-1.45,1.53c0,2.26,3.81,2.68,3.81,5.83a3.16,3.16,0,0,1-3.18,3.27,3.61,3.61,0,0,1-2.19-.8V159a3,3,0,0,0,2.09,1.14,1.7,1.7,0,0,0,1.72-1.79c0-2.29-3.81-3.07-3.81-5.88a2.83,2.83,0,0,1,2.93-2.93,3.53,3.53,0,0,1,2.12.75Z" transform="translate(-59.5 -22.5)"/><path class="cls-2" d="M181.43,161.35l-3.67-5.56v5.56h-1.49V142.4h1.49v12.06l3-4.73h1.66l-3.38,5.2,4.31,6.42Z" transform="translate(-59.5 -22.5)"/><path class="cls-2" d="M188.38,152.1a2.74,2.74,0,0,0-2-1.2,1.47,1.47,0,0,0-1.46,1.53c0,2.26,3.81,2.68,3.81,5.83a3.15,3.15,0,0,1-3.17,3.27,3.67,3.67,0,0,1-2.2-.8V159a3,3,0,0,0,2.09,1.14,1.7,1.7,0,0,0,1.72-1.79c0-2.29-3.81-3.07-3.81-5.88a2.83,2.83,0,0,1,2.94-2.93,3.53,3.53,0,0,1,2.11.75Z" transform="translate(-59.5 -22.5)"/><path class="cls-2" d="M201.16,161.35v-.93a2.34,2.34,0,0,1-2,1.11c-2.7,0-2.78-3.72-2.78-5.77,0-2.37.08-6.21,2.91-6.21a2.2,2.2,0,0,1,1.88,1v-.78h1.5v11.62Zm-1.51-10.63c-1.72,0-1.75,3-1.75,4.13,0,1,0,1.87.08,2.81s.27,2.68,1.64,2.68a1.18,1.18,0,0,0,.95-.39c.74-.73.74-3.46.74-4.48C201.31,153.16,201.18,150.72,199.65,150.72Z" transform="translate(-59.5 -22.5)"/><path class="cls-2" d="M209.91,161.35V152.9c0-.94,0-2.16-1.33-2.16a1.68,1.68,0,0,0-1.4.76,3.59,3.59,0,0,0-.39,2v7.83h-1.48V149.73h1.48v.93a3.12,3.12,0,0,1,2.3-1.11c2,0,2.3,1.61,2.3,3.19v8.61Z" transform="translate(-59.5 -22.5)"/><path class="cls-2" d="M218.39,161.35v-.93a2.38,2.38,0,0,1-2,1.11c-2.73,0-2.78-3.87-2.78-5.9,0-2.26,0-6.08,2.94-6.08a2.18,2.18,0,0,1,1.87,1V142.4h1.48v18.95Zm-1.53-10.63c-1.69,0-1.72,3-1.72,4.13,0,1,0,1.87.08,2.81s.24,2.68,1.61,2.68a1.25,1.25,0,0,0,1-.39c.72-.71.72-3.43.72-4.4C218.53,153.11,218.39,150.72,216.86,150.72Z" transform="translate(-59.5 -22.5)"/><path class="cls-2" d="M230.16,150.51a2.2,2.2,0,0,1,1.9-1c2.89,0,2.91,3.69,2.91,5.77,0,2.49-.08,6.21-2.77,6.21a2.48,2.48,0,0,1-2-1.11v.93h-1.48V142.4h1.48Zm1.53.21c-1.53,0-1.66,2.44-1.66,4.75,0,1,0,3.75.74,4.48a1.18,1.18,0,0,0,.95.39c1.37,0,1.53-1.67,1.64-2.68s.08-1.82.08-2.73C233.44,153.76,233.41,150.72,231.69,150.72Z" transform="translate(-59.5 -22.5)"/><path class="cls-2" d="M243.14,157.4c-.08,1.87-.66,4.13-3,4.13-3,0-3.43-3.72-3.43-5.95s.45-6,3.33-6,3.2,3.51,3.2,5.56c0,.24,0,.49,0,.73h-5v.26c0,1.17.19,4.05,1.88,4.05,1.32,0,1.51-1.76,1.53-2.75Zm-1.37-2.81c-.06-1-.19-3.69-1.7-3.69s-1.77,2.62-1.82,3.69Z" transform="translate(-59.5 -22.5)"/><path class="cls-2" d="M250,161.35V152.9c0-.94,0-2.16-1.32-2.16a1.68,1.68,0,0,0-1.4.76,3.51,3.51,0,0,0-.4,2v7.83h-1.48V149.73h1.48v.93a3.14,3.14,0,0,1,2.3-1.11c2,0,2.3,1.61,2.3,3.19v8.61Z" transform="translate(-59.5 -22.5)"/><path class="cls-2" d="M260.14,157.4c-.08,1.87-.66,4.13-3,4.13-3,0-3.43-3.72-3.43-5.95s.45-6,3.33-6,3.2,3.51,3.2,5.56c0,.24,0,.49,0,.73h-5v.26c0,1.17.19,4.05,1.88,4.05,1.32,0,1.51-1.76,1.53-2.75Zm-1.37-2.81c-.06-1-.19-3.69-1.7-3.69s-1.77,2.62-1.82,3.69Z" transform="translate(-59.5 -22.5)"/><path class="cls-2" d="M264.37,151.08v10.27h-1.48V151.08h-1.35v-1.35h1.35v-4.66c0-1.48.4-3,2.2-3a3.38,3.38,0,0,1,1.32.26V144a1.78,1.78,0,0,0-1.09-.52c-.87,0-.95.78-.95,1.43v4.84h2v1.35Zm3.89-3.93a1.09,1.09,0,1,1,1.08-1.06A1.07,1.07,0,0,1,268.26,147.15Zm-.77,14.2V149.73H269v11.62Z" transform="translate(-59.5 -22.5)"/><path class="cls-2" d="M273.63,151.08v10.27h-1.49V151.08h-1.26v-1.35h1.26v-3.3h1.49v3.3h2v1.35Z" transform="translate(-59.5 -22.5)"/><path class="cls-2" d="M281.43,152.1a2.78,2.78,0,0,0-2-1.2,1.46,1.46,0,0,0-1.45,1.53c0,2.26,3.8,2.68,3.8,5.83a3.15,3.15,0,0,1-3.17,3.27,3.61,3.61,0,0,1-2.19-.8V159a3,3,0,0,0,2.08,1.14,1.7,1.7,0,0,0,1.72-1.79c0-2.29-3.8-3.07-3.8-5.88a2.83,2.83,0,0,1,2.93-2.93,3.58,3.58,0,0,1,2.12.75Z" transform="translate(-59.5 -22.5)"/><path class="cls-2" d="M294.2,161.35v-.93a2.34,2.34,0,0,1-2,1.11c-2.7,0-2.78-3.72-2.78-5.77,0-2.37.08-6.21,2.91-6.21a2.2,2.2,0,0,1,1.88,1v-.78h1.5v11.62Zm-1.51-10.63c-1.72,0-1.75,3-1.75,4.13,0,1,0,1.87.08,2.81s.27,2.68,1.64,2.68a1.18,1.18,0,0,0,.95-.39c.74-.73.74-3.46.74-4.48C294.35,153.16,294.22,150.72,292.69,150.72Z" transform="translate(-59.5 -22.5)"/><path class="cls-2" d="M301.84,151.24c-2,0-2,1.56-2,3.07v7h-1.48V149.73h1.48v1.51a2.42,2.42,0,0,1,2-1.69Z" transform="translate(-59.5 -22.5)"/><path class="cls-2" d="M309.32,157.4c-.08,1.87-.66,4.13-3,4.13-3,0-3.44-3.72-3.44-5.95s.45-6,3.34-6,3.2,3.51,3.2,5.56c0,.24,0,.49,0,.73h-5v.26c0,1.17.19,4.05,1.88,4.05,1.32,0,1.51-1.76,1.53-2.75ZM308,154.59c-.06-1-.19-3.69-1.7-3.69s-1.77,2.62-1.82,3.69Z" transform="translate(-59.5 -22.5)"/><path class="cls-2" d="M319.71,151.08v10.27h-1.48V151.08h-1.35v-1.35h1.35v-4.66c0-1.48.39-3,2.19-3a3.43,3.43,0,0,1,1.33.26V144a1.8,1.8,0,0,0-1.09-.52c-.87,0-1,.78-1,1.43v4.84h2v1.35Z" transform="translate(-59.5 -22.5)"/><path class="cls-2" d="M326.13,161.53c-3,0-3.46-3.74-3.46-6s.42-6,3.46-6,3.31,3.82,3.31,6S329.18,161.53,326.13,161.53Zm0-10.63c-1.83,0-1.88,3.53-1.88,4.76s.08,4.49,1.88,4.49,1.8-3.45,1.8-4.62S327.85,150.9,326.11,150.9Z" transform="translate(-59.5 -22.5)"/><path class="cls-2" d="M335.15,151.24c-2,0-2,1.56-2,3.07v7h-1.48V149.73h1.48v1.51a2.43,2.43,0,0,1,2-1.69Z" transform="translate(-59.5 -22.5)"/><path class="cls-2" d="M349,157.4c-.08,1.87-.66,4.13-3,4.13-3,0-3.43-3.72-3.43-5.95s.45-6,3.33-6,3.2,3.51,3.2,5.56c0,.24,0,.49,0,.73h-5v.26c0,1.17.19,4.05,1.88,4.05,1.32,0,1.51-1.76,1.54-2.75Zm-1.37-2.81c-.06-1-.19-3.69-1.7-3.69s-1.77,2.62-1.82,3.69Z" transform="translate(-59.5 -22.5)"/><path class="cls-2" d="M355.46,161.35l-1.3-3.3a14.5,14.5,0,0,1-.58-1.72,11.54,11.54,0,0,1-.53,1.74l-1.27,3.28h-1.66l2.69-5.95-2.4-5.67H352a38.35,38.35,0,0,1,1.67,4.91,26.36,26.36,0,0,1,1.75-4.91h1.66l-2.64,5.67,2.64,5.95Z" transform="translate(-59.5 -22.5)"/><path class="cls-2" d="M362.91,161.35v-.93a2.33,2.33,0,0,1-2,1.11c-2.69,0-2.77-3.72-2.77-5.77,0-2.37.08-6.21,2.91-6.21a2.18,2.18,0,0,1,1.87,1v-.78h1.51v11.62Zm-1.5-10.63c-1.72,0-1.75,3-1.75,4.13,0,1,0,1.87.08,2.81s.26,2.68,1.64,2.68a1.18,1.18,0,0,0,.95-.39c.74-.73.74-3.46.74-4.48C363.07,153.16,362.94,150.72,361.41,150.72Z" transform="translate(-59.5 -22.5)"/><path class="cls-2" d="M377.85,161.35h-1.48v-8.61c0-1-.16-2-1.37-2-1.72,0-1.8,1.9-1.8,3.17v7.44h-1.51v-8.58c0-.86-.08-2-1.24-2-1.85,0-1.91,2.06-1.91,3.41v7.2h-1.48V149.73h1.48v1a3.19,3.19,0,0,1,2.3-1.14A2.31,2.31,0,0,1,373,150.9a2.88,2.88,0,0,1,2.44-1.35c1.9,0,2.4,1.22,2.4,2.88Z" transform="translate(-59.5 -22.5)"/><path class="cls-2" d="M381.9,150.51a2.15,2.15,0,0,1,1.87-1c2.91,0,2.94,3.66,2.94,5.77,0,2.49-.08,6.21-2.78,6.21a2.47,2.47,0,0,1-2-1.11V166h-1.48v-16.3h1.48Zm1.53.21c-1.53,0-1.67,2.44-1.67,4.75,0,1,0,3.75.74,4.48a1.22,1.22,0,0,0,1,.39c1.37,0,1.53-1.67,1.64-2.68s.07-1.82.07-2.73C385.17,153.76,385.15,150.72,383.43,150.72Z" transform="translate(-59.5 -22.5)"/><path class="cls-2" d="M388.9,161.35V142.4h1.51v18.95Z" transform="translate(-59.5 -22.5)"/><path class="cls-2" d="M399,157.4c-.08,1.87-.66,4.13-3,4.13-3,0-3.44-3.72-3.44-5.95s.45-6,3.34-6,3.2,3.51,3.2,5.56c0,.24,0,.49,0,.73h-5v.26c0,1.17.19,4.05,1.88,4.05,1.32,0,1.51-1.76,1.53-2.75Zm-1.38-2.81c0-1-.18-3.69-1.69-3.69s-1.77,2.62-1.82,3.69Z" transform="translate(-59.5 -22.5)"/><path class="cls-2" d="M95.16,192.55v-1.33a2.54,2.54,0,0,1-2.2,1.57c-2.72,0-3.2-4.11-3.2-6.09s.4-6,3.18-6a2.47,2.47,0,0,1,2.22,1.64V173.6h3.3v19Zm-.9-8.92c-1.08,0-1.16,2.39-1.16,3.12s.08,3.12,1.19,3.12,1.11-2.42,1.11-3.12S95.32,183.63,94.26,183.63Z" transform="translate(-59.5 -22.5)"/><path class="cls-2" d="M102.3,179.19a2.06,2.06,0,1,1,2.09-2.06A2.06,2.06,0,0,1,102.3,179.19Zm-1.67,13.36V180.93h3.31v11.62Z" transform="translate(-59.5 -22.5)"/><path class="cls-2" d="M111.55,184.07a2.29,2.29,0,0,0-1.56-.78.8.8,0,0,0-.84.84c0,1.4,3.7,1.11,3.7,4.63,0,2.21-1.35,4-3.73,4a5.8,5.8,0,0,1-3.6-1.33l1.46-2.32a2.55,2.55,0,0,0,1.61.73,1,1,0,0,0,1.06-1c0-1.46-3.86-1.25-3.86-4.76,0-2.23,1.82-3.43,3.94-3.43a5,5,0,0,1,3.14,1Z" transform="translate(-59.5 -22.5)"/><path class="cls-2" d="M120.2,192.37a4.26,4.26,0,0,1-1.88.42c-3.17,0-4.31-3.28-4.31-5.91,0-2.83,1.08-6.19,4.52-6.19a4.12,4.12,0,0,1,1.67.34v2.86a1.27,1.27,0,0,0-.93-.39c-1.58,0-1.93,1.95-1.93,3.15s.27,3.09,1.88,3.09a1.71,1.71,0,0,0,1-.34Z" transform="translate(-59.5 -22.5)"/><path class="cls-2" d="M127.81,183.66a2.59,2.59,0,0,0-.47,0c-2,0-2.25,1.09-2.25,2.78v6.16h-3.31V180.93h3.31v1.43a3.62,3.62,0,0,1,2.72-1.85Z" transform="translate(-59.5 -22.5)"/><path class="cls-2" d="M130.85,179.19a2.06,2.06,0,1,1,2.09-2.06A2.06,2.06,0,0,1,130.85,179.19Zm-1.66,13.36V180.93h3.3v11.62Z" transform="translate(-59.5 -22.5)"/><path class="cls-2" d="M144.58,192.55v-7c0-.54-.06-1.64-.85-1.64-1,0-.85,1.38-.85,2v6.58h-3.3v-7.2c0-.52,0-1.35-.77-1.35-.92,0-.92,1.11-.92,1.77v6.78h-3.31V180.93h3.31v1.87a3.42,3.42,0,0,1,2.93-2.08c1.27,0,1.8.88,2.06,2a3.43,3.43,0,0,1,2.81-2c1.9,0,2.19,1.69,2.19,3.2v8.63Z" transform="translate(-59.5 -22.5)"/><path class="cls-2" d="M151.69,179.19a2.06,2.06,0,1,1,2.09-2.06A2.06,2.06,0,0,1,151.69,179.19ZM150,192.55V180.93h3.31v11.62Z" transform="translate(-59.5 -22.5)"/><path class="cls-2" d="M160.41,192.55v-7.12c0-.52,0-1.46-.79-1.46-1,0-.9,1.2-.9,1.85v6.73h-3.31V180.93h3.31v1.82a3.17,3.17,0,0,1,2.8-2c2,0,2.2,1.87,2.2,3.43v8.4Z" transform="translate(-59.5 -22.5)"/><path class="cls-2" d="M170.88,192.55v-1.33a2.53,2.53,0,0,1-2.19,1.57c-2.73,0-3.2-4.11-3.2-6.09s.39-6,3.17-6a2.47,2.47,0,0,1,2.22,1.64v-1.43h3.31v11.62Zm-.9-8.92c-1.08,0-1.16,2.39-1.16,3.12s.08,3.12,1.19,3.12,1.11-2.42,1.11-3.12S171,183.63,170,183.63Z" transform="translate(-59.5 -22.5)"/><path class="cls-2" d="M179.92,183.63v8.92h-3.3v-8.92h-1.14v-2.7h1.14v-3.3h3.3v3.3h1.35v2.7Z" transform="translate(-59.5 -22.5)"/><path class="cls-2" d="M184.1,179.19a2.06,2.06,0,1,1,2.09-2.06A2.06,2.06,0,0,1,184.1,179.19Zm-1.66,13.36V180.93h3.3v11.62Z" transform="translate(-59.5 -22.5)"/><path class="cls-2" d="M192,192.79c-3.38,0-4.49-3.23-4.49-6s1.11-6,4.49-6,4.44,3.15,4.44,6S195.47,192.79,192,192.79Zm0-9.16c-1.08,0-1.16,2.37-1.16,3.12s.08,3.12,1.16,3.12,1.11-2.42,1.11-3.12S193,183.63,192,183.63Z" transform="translate(-59.5 -22.5)"/><path class="cls-2" d="M203.19,192.55v-7.12c0-.52,0-1.46-.79-1.46-1,0-.9,1.2-.9,1.85v6.73h-3.31V180.93h3.31v1.82a3.17,3.17,0,0,1,2.8-2c2,0,2.2,1.87,2.2,3.43v8.4Z" transform="translate(-59.5 -22.5)"/><path class="cls-2" d="M219.53,192.55v-.94a2.32,2.32,0,0,1-2,1.12c-2.7,0-2.77-3.71-2.77-5.77,0-2.36.07-6.21,2.9-6.21a2.19,2.19,0,0,1,1.88,1v-.78H221v11.62ZM218,181.92c-1.71,0-1.74,3-1.74,4.13,0,1,0,1.87.08,2.81s.26,2.68,1.64,2.68a1.2,1.2,0,0,0,.95-.39c.74-.73.74-3.46.74-4.47C219.69,184.36,219.56,181.92,218,181.92Z" transform="translate(-59.5 -22.5)"/><path class="cls-2" d="M228.28,192.55V184.1c0-.94,0-2.16-1.32-2.16a1.68,1.68,0,0,0-1.4.76,3.51,3.51,0,0,0-.4,2v7.83h-1.48V180.93h1.48v.93a3.1,3.1,0,0,1,2.3-1.11c2,0,2.3,1.61,2.3,3.19v8.61Z" transform="translate(-59.5 -22.5)"/><path class="cls-2" d="M236.77,192.55v-.94a2.37,2.37,0,0,1-2,1.12c-2.72,0-2.77-3.87-2.77-5.9,0-2.26,0-6.08,2.93-6.08a2.19,2.19,0,0,1,1.88,1V173.6h1.48v19Zm-1.53-10.63c-1.7,0-1.72,3-1.72,4.13,0,1,0,1.87.08,2.81s.23,2.68,1.61,2.68a1.26,1.26,0,0,0,1-.39c.71-.71.71-3.43.71-4.4C236.9,184.31,236.77,181.92,235.24,181.92Z" transform="translate(-59.5 -22.5)"/><path class="cls-2" d="M253,188.6c-.08,1.87-.66,4.13-3,4.13-3,0-3.43-3.71-3.43-5.95s.44-6,3.33-6,3.2,3.51,3.2,5.56c0,.24,0,.5,0,.73h-5v.26c0,1.17.19,4,1.88,4,1.32,0,1.51-1.76,1.53-2.75Zm-1.37-2.81c-.06-1-.19-3.69-1.7-3.69s-1.77,2.62-1.82,3.69Z" transform="translate(-59.5 -22.5)"/><path class="cls-2" d="M257.26,182.28v10.27h-1.48V182.28h-1.35v-1.35h1.35v-4.66c0-1.48.4-3,2.19-3a3.43,3.43,0,0,1,1.33.26v1.61a1.78,1.78,0,0,0-1.09-.52c-.87,0-.95.78-.95,1.43v4.84h2v1.35Z" transform="translate(-59.5 -22.5)"/><path class="cls-2" d="M262.65,182.28v10.27h-1.48V182.28h-1.35v-1.35h1.35v-4.66c0-1.48.4-3,2.2-3a3.34,3.34,0,0,1,1.32.26v1.61a1.78,1.78,0,0,0-1.08-.52c-.88,0-1,.78-1,1.43v4.84h2v1.35Zm3.89-3.93a1.09,1.09,0,1,1,1.08-1.06A1.07,1.07,0,0,1,266.54,178.35Zm-.77,14.2V180.93h1.51v11.62Z" transform="translate(-59.5 -22.5)"/><path class="cls-2" d="M274.63,192.14a2.91,2.91,0,0,1-1.69.59c-2.78,0-3.41-3.71-3.41-5.8s.47-6.18,3.49-6.18a3.22,3.22,0,0,1,1.61.44v1.71a2.13,2.13,0,0,0-1.48-.8c-1.88,0-2.06,3.41-2.06,4.71s.24,4.54,2,4.54a2,2,0,0,0,1.51-1Z" transform="translate(-59.5 -22.5)"/><path class="cls-2" d="M277.22,178.35a1.09,1.09,0,1,1,0-2.18,1.11,1.11,0,0,1,1.09,1.12A1.08,1.08,0,0,1,277.22,178.35Zm-.76,14.2V180.93H278v11.62Z" transform="translate(-59.5 -22.5)"/><path class="cls-2" d="M286.56,188.6c-.08,1.87-.66,4.13-3,4.13-3,0-3.44-3.71-3.44-5.95s.45-6,3.33-6,3.2,3.51,3.2,5.56c0,.24,0,.5,0,.73h-5v.26c0,1.17.18,4,1.88,4,1.32,0,1.5-1.76,1.53-2.75Zm-1.38-2.81c-.05-1-.18-3.69-1.69-3.69s-1.77,2.62-1.83,3.69Z" transform="translate(-59.5 -22.5)"/><path class="cls-2" d="M293.46,192.55V184.1c0-.94,0-2.16-1.33-2.16a1.68,1.68,0,0,0-1.4.76,3.59,3.59,0,0,0-.39,2v7.83h-1.48V180.93h1.48v.93a3.09,3.09,0,0,1,2.3-1.11c2,0,2.3,1.61,2.3,3.19v8.61Z" transform="translate(-59.5 -22.5)"/><path class="cls-2" d="M302.23,192.14a2.91,2.91,0,0,1-1.69.59c-2.78,0-3.41-3.71-3.41-5.8s.48-6.18,3.49-6.18a3.2,3.2,0,0,1,1.61.44v1.71a2.11,2.11,0,0,0-1.48-.8c-1.87,0-2.06,3.41-2.06,4.71s.24,4.54,2,4.54a2,2,0,0,0,1.5-1Z" transform="translate(-59.5 -22.5)"/><path class="cls-2" d="M306.44,197.23h-1.59l1.32-5-2.8-11.31h1.51l1.48,6.45a27.07,27.07,0,0,1,.55,2.91c.11-.73.29-1.43.48-2.19l1.72-7.17h1.56Z" transform="translate(-59.5 -22.5)"/><path class="cls-2" d="M312.47,192.73a1.2,1.2,0,0,1-1.19-1.17,1.19,1.19,0,1,1,1.19,1.17Z" transform="translate(-59.5 -22.5)"/><path class="cls-2" d="M96.16,223.75v-8.94h-4v8.94H90.5V206.41h1.64v6.91h4v-6.91H97.8v17.34Z" transform="translate(-59.5 -22.5)"/><path class="cls-2" d="M103.57,223.93c-3,0-3.47-3.74-3.47-6s.43-6,3.47-6,3.3,3.82,3.3,6.06S106.61,223.93,103.57,223.93Zm0-10.63c-1.82,0-1.88,3.54-1.88,4.76s.08,4.5,1.88,4.5,1.8-3.46,1.8-4.63S105.29,213.3,103.54,213.3Z" transform="translate(-59.5 -22.5)"/><path class="cls-2" d="M112.11,223.75h-1.62l-2.69-11.62h1.53l1.56,6.94a24.15,24.15,0,0,1,.42,2.5c.14-.81.27-1.64.43-2.45l1.45-7h1.53Z" transform="translate(-59.5 -22.5)"/><path class="cls-2" d="M122,219.8c-.08,1.87-.66,4.13-3,4.13-3,0-3.43-3.71-3.43-6s.45-6,3.33-6,3.2,3.51,3.2,5.56c0,.24,0,.5,0,.73h-5v.26c0,1.17.19,4.06,1.88,4.06,1.32,0,1.51-1.77,1.53-2.76ZM120.65,217c-.06-1-.19-3.69-1.7-3.69s-1.77,2.63-1.82,3.69Z" transform="translate(-59.5 -22.5)"/><path class="cls-2" d="M127.81,213.64c-2,0-2,1.56-2,3.07v7h-1.48V212.13h1.48v1.51a2.43,2.43,0,0,1,2-1.69Z" transform="translate(-59.5 -22.5)"/><path class="cls-2" d="M138.65,223.93c-3,0-3.46-3.74-3.46-6s.42-6,3.46-6S142,215.77,142,218,141.69,223.93,138.65,223.93Zm0-10.63c-1.82,0-1.87,3.54-1.87,4.76s.08,4.5,1.87,4.5,1.8-3.46,1.8-4.63S140.37,213.3,138.62,213.3Z" transform="translate(-59.5 -22.5)"/><path class="cls-2" d="M147.19,223.75h-1.61l-2.7-11.62h1.54l1.56,6.94c.18.83.31,1.67.42,2.5.13-.81.26-1.64.42-2.45l1.46-7h1.53Z" transform="translate(-59.5 -22.5)"/><path class="cls-2" d="M157.11,219.8c-.08,1.87-.66,4.13-3,4.13-3,0-3.44-3.71-3.44-6s.45-6,3.33-6,3.2,3.51,3.2,5.56c0,.24,0,.5,0,.73h-5v.26c0,1.17.18,4.06,1.88,4.06,1.32,0,1.5-1.77,1.53-2.76ZM155.73,217c0-1-.18-3.69-1.69-3.69s-1.77,2.63-1.82,3.69Z" transform="translate(-59.5 -22.5)"/><path class="cls-2" d="M162.9,213.64c-2,0-2,1.56-2,3.07v7h-1.48V212.13h1.48v1.51a2.42,2.42,0,0,1,2-1.69Z" transform="translate(-59.5 -22.5)"/><path class="cls-2" d="M172.65,213.48v10.27h-1.48V213.48H169.9v-1.35h1.27v-3.3h1.48v3.3h2v1.35Z" transform="translate(-59.5 -22.5)"/><path class="cls-2" d="M180.58,223.75V215.3c0-.94,0-2.16-1.32-2.16a1.68,1.68,0,0,0-1.4.76,3.57,3.57,0,0,0-.4,2v7.82H176V204.8h1.48v8.26a3.16,3.16,0,0,1,2.31-1.11c1.93,0,2.3,1.35,2.3,3v8.81Z" transform="translate(-59.5 -22.5)"/><path class="cls-2" d="M190.4,219.8c-.08,1.87-.67,4.13-3,4.13-3,0-3.44-3.71-3.44-6s.45-6,3.33-6,3.2,3.51,3.2,5.56c0,.24,0,.5,0,.73h-5v.26c0,1.17.18,4.06,1.87,4.06,1.33,0,1.51-1.77,1.54-2.76ZM189,217c-.05-1-.19-3.69-1.69-3.69s-1.77,2.63-1.83,3.69Z" transform="translate(-59.5 -22.5)"/><path class="cls-2" d="M203.35,223.75v-.93a2.33,2.33,0,0,1-2,1.11c-2.7,0-2.78-3.71-2.78-5.77,0-2.36.08-6.21,2.91-6.21a2.19,2.19,0,0,1,1.88,1v-.78h1.51v11.62Zm-1.51-10.63c-1.72,0-1.74,3-1.74,4.13,0,1,0,1.87.08,2.81s.26,2.68,1.64,2.68a1.21,1.21,0,0,0,1-.39c.74-.73.74-3.46.74-4.47C203.51,215.56,203.38,213.12,201.84,213.12Z" transform="translate(-59.5 -22.5)"/><path class="cls-2" d="M211,213.64c-2,0-2,1.56-2,3.07v7H207.5V212.13H209v1.51a2.43,2.43,0,0,1,2-1.69Z" transform="translate(-59.5 -22.5)"/><path class="cls-2" d="M218.47,219.8c-.08,1.87-.66,4.13-3,4.13-3.05,0-3.44-3.71-3.44-6s.45-6,3.33-6,3.2,3.51,3.2,5.56c0,.24,0,.5,0,.73h-5v.26c0,1.17.19,4.06,1.88,4.06,1.32,0,1.51-1.77,1.54-2.76ZM217.1,217c-.06-1-.19-3.69-1.69-3.69s-1.78,2.63-1.83,3.69Z" transform="translate(-59.5 -22.5)"/><path class="cls-2" d="M225.27,223.75v-.93a2.34,2.34,0,0,1-2,1.11c-2.7,0-2.78-3.71-2.78-5.77,0-2.36.08-6.21,2.91-6.21a2.19,2.19,0,0,1,1.88,1v-.78h1.51v11.62Zm-1.51-10.63c-1.72,0-1.74,3-1.74,4.13,0,1,0,1.87.07,2.81s.27,2.68,1.64,2.68a1.22,1.22,0,0,0,1-.39c.74-.73.74-3.46.74-4.47C225.43,215.56,225.29,213.12,223.76,213.12Z" transform="translate(-59.5 -22.5)"/><path class="cls-2" d="M242.9,210.34a4,4,0,0,0-2.51-1.12,1.62,1.62,0,0,0-1.74,1.69c0,3,5.29,2.94,5.29,7.77,0,3-1.83,5.36-5,5.36a5.46,5.46,0,0,1-3-.89v-3.27a4.66,4.66,0,0,0,2.59.93,1.88,1.88,0,0,0,2.06-1.92,2,2,0,0,0-.18-.88,5.56,5.56,0,0,0-1.88-1.62c-2-1.35-3.25-2.6-3.25-5.12,0-2.73,1.61-5.12,4.6-5.12a5.88,5.88,0,0,1,3.09.83Z" transform="translate(-59.5 -22.5)"/><path class="cls-2" d="M253.93,220a3.58,3.58,0,0,1-.56,2.21,4.34,4.34,0,0,1-3.62,1.8,4.28,4.28,0,0,1-3.62-1.82,3.51,3.51,0,0,1-.48-2v-8H249v7.15c0,.57,0,1.69.82,1.69,1,0,.82-1.56.82-2.18v-6.66h3.33Z" transform="translate(-59.5 -22.5)"/><path class="cls-2" d="M259.35,213.56a2.47,2.47,0,0,1,2.22-1.64c2.78,0,3.17,4,3.17,6s-.47,6.09-3.2,6.09a2.54,2.54,0,0,1-2.19-1.56v1.32H256V204.8h3.31Zm.87,1.27c-1,0-1.11,2.42-1.11,3.12s.08,3.12,1.14,3.12,1.16-2.39,1.16-3.12S261.33,214.83,260.22,214.83Z" transform="translate(-59.5 -22.5)"/><path class="cls-2" d="M268.23,210.39a2.06,2.06,0,1,1,2.09-2.06A2.06,2.06,0,0,1,268.23,210.39Zm-1.66,18.72v-17h3.3v17Z" transform="translate(-59.5 -22.5)"/><path class="cls-2" d="M279.87,219.75a5.27,5.27,0,0,1-1.27,3.33A3.37,3.37,0,0,1,276,224a3.7,3.7,0,0,1-2.83-1,6.4,6.4,0,0,1-1.61-4.71,7.45,7.45,0,0,1,1.72-5.25,3.68,3.68,0,0,1,2.7-1.07,3.51,3.51,0,0,1,2.53.94,6.39,6.39,0,0,1,1.54,4.52,8.86,8.86,0,0,1-.08,1.14h-5.24c0,.19,0,.42,0,.66a3.4,3.4,0,0,0,.47,2,.91.91,0,0,0,.69.31,1,1,0,0,0,.66-.21,2.69,2.69,0,0,0,.5-1.58Zm-2.67-3.23a2.89,2.89,0,0,0-.53-1.89,1,1,0,0,0-.61-.24,1.07,1.07,0,0,0-.74.31,3.11,3.11,0,0,0-.5,1.82Z" transform="translate(-59.5 -22.5)"/><path class="cls-2" d="M287.67,223.57a4.44,4.44,0,0,1-1.88.42c-3.18,0-4.31-3.28-4.31-5.91,0-2.83,1.08-6.19,4.52-6.19a4.19,4.19,0,0,1,1.67.34v2.86a1.27,1.27,0,0,0-.93-.39c-1.59,0-1.93,2-1.93,3.15s.26,3.09,1.88,3.09a1.71,1.71,0,0,0,1-.34Z" transform="translate(-59.5 -22.5)"/><path class="cls-2" d="M293.43,214.83v8.92h-3.31v-8.92H289v-2.7h1.13v-3.3h3.31v3.3h1.35v2.7Z" transform="translate(-59.5 -22.5)"/><path class="cls-2" d="M297.61,210.39a2.06,2.06,0,1,1,2.09-2.06A2.06,2.06,0,0,1,297.61,210.39Zm-1.67,13.36V212.13h3.31v11.62Z" transform="translate(-59.5 -22.5)"/><path class="cls-2" d="M306.62,223.75h-3l-3.38-11.62h3.25c.55,2.18,1.16,4.37,1.61,6.58.08-.5.24-1,.35-1.43l1.21-5.15h3.44Z" transform="translate(-59.5 -22.5)"/><path class="cls-2" d="M318.65,219.75a5.21,5.21,0,0,1-1.27,3.33,3.35,3.35,0,0,1-2.56.91,3.7,3.7,0,0,1-2.83-1,6.4,6.4,0,0,1-1.61-4.71A7.45,7.45,0,0,1,312.1,213a3.66,3.66,0,0,1,2.69-1.07,3.53,3.53,0,0,1,2.54.94,6.43,6.43,0,0,1,1.54,4.52,8.86,8.86,0,0,1-.08,1.14h-5.24a4.51,4.51,0,0,0,0,.66,3.39,3.39,0,0,0,.48,2,.88.88,0,0,0,.69.31,1.06,1.06,0,0,0,.66-.21,2.76,2.76,0,0,0,.5-1.58ZM316,216.52a2.89,2.89,0,0,0-.53-1.89,1,1,0,0,0-.6-.24,1,1,0,0,0-.74.31,3.11,3.11,0,0,0-.51,1.82Z" transform="translate(-59.5 -22.5)"/><path class="cls-2" d="M331.32,206.41a5.47,5.47,0,0,1,3,.57,5.13,5.13,0,0,1,2.4,4.58c0,3.64-2.61,5.33-6.1,5.07v7.12h-3.49V206.41Zm-.53,7.33c1.59,0,2.43-.55,2.43-2.21,0-1.38-.47-2.34-2-2.34h-.6v4.55Z" transform="translate(-59.5 -22.5)"/><path class="cls-2" d="M345.73,219.75a5.27,5.27,0,0,1-1.27,3.33,3.37,3.37,0,0,1-2.57.91,3.71,3.71,0,0,1-2.83-1,6.44,6.44,0,0,1-1.61-4.71,7.45,7.45,0,0,1,1.72-5.25,3.68,3.68,0,0,1,2.7-1.07,3.55,3.55,0,0,1,2.54.94,6.42,6.42,0,0,1,1.53,4.52,8.86,8.86,0,0,1-.08,1.14h-5.24c0,.19,0,.42,0,.66a3.4,3.4,0,0,0,.47,2,.91.91,0,0,0,.69.31,1,1,0,0,0,.66-.21,2.69,2.69,0,0,0,.5-1.58Zm-2.67-3.23a2.89,2.89,0,0,0-.53-1.89,1,1,0,0,0-.61-.24,1.09,1.09,0,0,0-.74.31,3.18,3.18,0,0,0-.5,1.82Z" transform="translate(-59.5 -22.5)"/><path class="cls-2" d="M353.71,214.86a2.59,2.59,0,0,0-.47-.05c-2,0-2.25,1.09-2.25,2.78v6.16h-3.31V212.13H351v1.43a3.62,3.62,0,0,1,2.72-1.85Z" transform="translate(-59.5 -22.5)"/><path class="cls-2" d="M360.82,223.57A4.36,4.36,0,0,1,359,224c-3.18,0-4.31-3.28-4.31-5.91,0-2.83,1.08-6.19,4.52-6.19a4.11,4.11,0,0,1,1.66.34v2.86a1.23,1.23,0,0,0-.92-.39c-1.59,0-1.93,2-1.93,3.15s.26,3.09,1.88,3.09a1.68,1.68,0,0,0,1-.34Z" transform="translate(-59.5 -22.5)"/><path class="cls-2" d="M370.32,219.75a5.27,5.27,0,0,1-1.27,3.33,3.37,3.37,0,0,1-2.57.91,3.7,3.7,0,0,1-2.83-1,6.4,6.4,0,0,1-1.61-4.71,7.45,7.45,0,0,1,1.72-5.25,3.68,3.68,0,0,1,2.7-1.07,3.55,3.55,0,0,1,2.54.94,6.42,6.42,0,0,1,1.53,4.52,8.86,8.86,0,0,1-.08,1.14h-5.24c0,.19,0,.42,0,.66a3.4,3.4,0,0,0,.47,2,.91.91,0,0,0,.69.31,1,1,0,0,0,.66-.21,2.69,2.69,0,0,0,.5-1.58Zm-2.67-3.23a2.89,2.89,0,0,0-.53-1.89,1,1,0,0,0-.61-.24,1.07,1.07,0,0,0-.74.31,3.11,3.11,0,0,0-.5,1.82Z" transform="translate(-59.5 -22.5)"/><path class="cls-2" d="M375.58,213.56a2.46,2.46,0,0,1,2.22-1.64c2.78,0,3.17,4,3.17,6s-.47,6.09-3.2,6.09a2.52,2.52,0,0,1-2.19-1.56v6.68h-3.31v-17h3.31Zm.87,1.27c-1,0-1.11,2.42-1.11,3.12s.08,3.12,1.14,3.12,1.16-2.39,1.16-3.12S377.56,214.83,376.45,214.83Z" transform="translate(-59.5 -22.5)"/><path class="cls-2" d="M386.37,214.83v8.92h-3.31v-8.92h-1.14v-2.7h1.14v-3.3h3.31v3.3h1.34v2.7Z" transform="translate(-59.5 -22.5)"/><path class="cls-2" d="M390.54,210.39a2.06,2.06,0,1,1,2.09-2.06A2.06,2.06,0,0,1,390.54,210.39Zm-1.66,13.36V212.13h3.3v11.62Z" transform="translate(-59.5 -22.5)"/><path class="cls-2" d="M398.42,224c-3.38,0-4.49-3.23-4.49-6s1.11-6,4.49-6,4.44,3.15,4.44,6S401.91,224,398.42,224Zm0-9.16c-1.08,0-1.16,2.37-1.16,3.12s.08,3.12,1.16,3.12,1.11-2.41,1.11-3.12S399.45,214.83,398.42,214.83Z" transform="translate(-59.5 -22.5)"/><path class="cls-2" d="M409.63,223.75v-7.12c0-.52,0-1.46-.79-1.46-.95,0-.9,1.2-.9,1.85v6.73h-3.31V212.13h3.31V214a3.17,3.17,0,0,1,2.8-2c2,0,2.2,1.87,2.2,3.43v8.4Z" transform="translate(-59.5 -22.5)"/><path class="cls-2" d="M93.92,240.81v3.69h3.2v3.3h-3.2V255H90.43V237.61h7v3.2Z" transform="translate(-59.5 -22.5)"/><path class="cls-2" d="M104.23,255v-1.32a2.55,2.55,0,0,1-2.2,1.56c-2.72,0-3.2-4.11-3.2-6.09s.4-6,3.18-6a2.47,2.47,0,0,1,2.22,1.64v-1.43h3.3V255Zm-.9-8.92c-1.09,0-1.16,2.4-1.16,3.12s.07,3.12,1.19,3.12,1.11-2.42,1.11-3.12S104.39,246,103.33,246Z" transform="translate(-59.5 -22.5)"/><path class="cls-2" d="M115.49,254.77a4.23,4.23,0,0,1-1.88.42c-3.17,0-4.31-3.28-4.31-5.91,0-2.83,1.09-6.18,4.53-6.18a4.1,4.1,0,0,1,1.66.33v2.86a1.23,1.23,0,0,0-.92-.39c-1.59,0-1.93,1.95-1.93,3.15s.26,3.09,1.87,3.09a1.75,1.75,0,0,0,1-.33Z" transform="translate(-59.5 -22.5)"/><path class="cls-2" d="M118.8,241.59a2.06,2.06,0,1,1,2.08-2.06A2.06,2.06,0,0,1,118.8,241.59ZM117.13,255V243.33h3.31V255Z" transform="translate(-59.5 -22.5)"/><path class="cls-2" d="M127.57,255v-1.32a2.52,2.52,0,0,1-2.19,1.56c-2.72,0-3.2-4.11-3.2-6.09s.4-6,3.17-6a2.46,2.46,0,0,1,2.22,1.64v-1.43h3.31V255Zm-.89-8.92c-1.09,0-1.17,2.4-1.17,3.12s.08,3.12,1.19,3.12,1.11-2.42,1.11-3.12S127.73,246,126.68,246Z" transform="translate(-59.5 -22.5)"/><path class="cls-2" d="M133,255V236h3.31V255Z" transform="translate(-59.5 -22.5)"/><path class="cls-2" d="M151.48,255l-3.1-8v8h-3.49V237.61h3.78a7,7,0,0,1,3.84.83,5,5,0,0,1,2.09,4.21,4.77,4.77,0,0,1-2.52,4.42l3.07,7.88Zm-3.1-9.88a3.82,3.82,0,0,0,.58,0,2.15,2.15,0,0,0,2.25-2.42c0-1.41-.63-2.37-2.17-2.37h-.66Z" transform="translate(-59.5 -22.5)"/><path class="cls-2" d="M164.56,251a5.21,5.21,0,0,1-1.27,3.33,3.35,3.35,0,0,1-2.56.91,3.7,3.7,0,0,1-2.83-1,6.4,6.4,0,0,1-1.61-4.71,7.45,7.45,0,0,1,1.72-5.25,3.66,3.66,0,0,1,2.69-1.07,3.53,3.53,0,0,1,2.54.94,6.42,6.42,0,0,1,1.53,4.52,8.83,8.83,0,0,1-.07,1.14h-5.24a4.51,4.51,0,0,0,0,.66,3.39,3.39,0,0,0,.48,2.05.88.88,0,0,0,.69.31,1.06,1.06,0,0,0,.66-.21,2.76,2.76,0,0,0,.5-1.58Zm-2.67-3.23a2.89,2.89,0,0,0-.53-1.89,1,1,0,0,0-.6-.24,1,1,0,0,0-.74.31,3.11,3.11,0,0,0-.51,1.82Z" transform="translate(-59.5 -22.5)"/><path class="cls-2" d="M172.36,254.77a4.22,4.22,0,0,1-1.87.42c-3.18,0-4.32-3.28-4.32-5.91,0-2.83,1.09-6.18,4.53-6.18a4.1,4.1,0,0,1,1.66.33v2.86a1.23,1.23,0,0,0-.92-.39c-1.59,0-1.93,1.95-1.93,3.15s.26,3.09,1.87,3.09a1.75,1.75,0,0,0,1-.33Z" transform="translate(-59.5 -22.5)"/><path class="cls-2" d="M178.1,255.19c-3.38,0-4.5-3.23-4.5-6s1.12-6,4.5-6,4.44,3.15,4.44,6S181.59,255.19,178.1,255.19Zm0-9.16c-1.08,0-1.16,2.37-1.16,3.12s.08,3.12,1.16,3.12,1.11-2.42,1.11-3.12S179.13,246,178.1,246Z" transform="translate(-59.5 -22.5)"/><path class="cls-2" d="M192.8,255.68a5.34,5.34,0,0,1-.34,2.21,4.31,4.31,0,0,1-4.23,2.42c-2.83,0-3.94-1.64-4.16-4H187c.06.57.27,1.4,1.22,1.4,1.24,0,1.27-1.58,1.27-2.47V253.5c-.53.85-1.09,1.69-2.22,1.69-2.67,0-3.31-4-3.31-5.93s.4-6.14,3.18-6.14a2.69,2.69,0,0,1,2.35,1.61v-1.4h3.33ZM188.49,246c-1.11,0-1.19,2.34-1.19,3.1s.08,3.09,1.19,3.09,1.14-2.39,1.14-3.09S189.52,246,188.49,246Z" transform="translate(-59.5 -22.5)"/><path class="cls-2" d="M199.91,255v-7.12c0-.52,0-1.46-.79-1.46-1,0-.9,1.2-.9,1.85V255h-3.3V243.33h3.3v1.82a3.17,3.17,0,0,1,2.8-2c2,0,2.2,1.87,2.2,3.43V255Z" transform="translate(-59.5 -22.5)"/><path class="cls-2" d="M207.05,241.59a2.06,2.06,0,1,1,2.09-2.06A2.06,2.06,0,0,1,207.05,241.59ZM205.38,255V243.33h3.31V255Z" transform="translate(-59.5 -22.5)"/><path class="cls-2" d="M214.4,246V255h-3.3V246H210v-2.7h1.14V240h3.3v3.3h1.35V246Z" transform="translate(-59.5 -22.5)"/><path class="cls-2" d="M218.58,241.59a2.06,2.06,0,1,1,2.09-2.06A2.06,2.06,0,0,1,218.58,241.59ZM216.91,255V243.33h3.31V255Z" transform="translate(-59.5 -22.5)"/><path class="cls-2" d="M226.46,255.19c-3.39,0-4.5-3.23-4.5-6s1.11-6,4.5-6,4.44,3.15,4.44,6S230,255.19,226.46,255.19Zm0-9.16c-1.09,0-1.17,2.37-1.17,3.12s.08,3.12,1.17,3.12,1.11-2.42,1.11-3.12S227.49,246,226.46,246Z" transform="translate(-59.5 -22.5)"/><path class="cls-2" d="M237.67,255v-7.12c0-.52,0-1.46-.79-1.46-1,0-.9,1.2-.9,1.85V255h-3.31V243.33H236v1.82a3.15,3.15,0,0,1,2.8-2c2,0,2.19,1.87,2.19,3.43V255Z" transform="translate(-59.5 -22.5)"/><path class="cls-2" d="M254.41,240.78V255h-3.49V240.78h-2.73v-3.17h8.94v3.17Z" transform="translate(-59.5 -22.5)"/><path class="cls-2" d="M265.46,251a5.27,5.27,0,0,1-1.27,3.33,3.37,3.37,0,0,1-2.57.91,3.71,3.71,0,0,1-2.83-1,6.44,6.44,0,0,1-1.61-4.71,7.45,7.45,0,0,1,1.72-5.25,3.68,3.68,0,0,1,2.7-1.07,3.55,3.55,0,0,1,2.54.94,6.42,6.42,0,0,1,1.53,4.52,8.86,8.86,0,0,1-.08,1.14h-5.24c0,.19,0,.42,0,.66a3.4,3.4,0,0,0,.47,2.05.91.91,0,0,0,.69.31,1,1,0,0,0,.66-.21,2.77,2.77,0,0,0,.51-1.58Zm-2.67-3.23a2.89,2.89,0,0,0-.53-1.89,1,1,0,0,0-.61-.24,1.09,1.09,0,0,0-.74.31,3.18,3.18,0,0,0-.5,1.82Z" transform="translate(-59.5 -22.5)"/><path class="cls-2" d="M273.26,254.77a4.26,4.26,0,0,1-1.88.42c-3.17,0-4.31-3.28-4.31-5.91,0-2.83,1.08-6.18,4.52-6.18a4.12,4.12,0,0,1,1.67.33v2.86a1.27,1.27,0,0,0-.93-.39c-1.58,0-1.93,1.95-1.93,3.15s.27,3.09,1.88,3.09a1.77,1.77,0,0,0,1-.33Z" transform="translate(-59.5 -22.5)"/><path class="cls-2" d="M279.84,255v-7.12c0-.52,0-1.46-.79-1.46-.95,0-.9,1.2-.9,1.85V255h-3.31V236h3.31v9.15a3.17,3.17,0,0,1,2.8-2c2,0,2.2,1.87,2.2,3.43V255Z" transform="translate(-59.5 -22.5)"/><path class="cls-2" d="M290.26,255v-7.12c0-.52,0-1.46-.8-1.46-.95,0-.89,1.2-.89,1.85V255h-3.31V243.33h3.31v1.82a3.15,3.15,0,0,1,2.8-2c2,0,2.19,1.87,2.19,3.43V255Z" transform="translate(-59.5 -22.5)"/><path class="cls-2" d="M299.83,255.19c-3.39,0-4.5-3.23-4.5-6s1.11-6,4.5-6,4.44,3.15,4.44,6S303.32,255.19,299.83,255.19Zm0-9.16c-1.08,0-1.16,2.37-1.16,3.12s.08,3.12,1.16,3.12,1.11-2.42,1.11-3.12S300.86,246,299.83,246Z" transform="translate(-59.5 -22.5)"/><path class="cls-2" d="M306,255V236h3.31V255Z" transform="translate(-59.5 -22.5)"/><path class="cls-2" d="M315.61,255.19c-3.38,0-4.49-3.23-4.49-6s1.11-6,4.49-6,4.45,3.15,4.45,6S319.1,255.19,315.61,255.19Zm0-9.16c-1.08,0-1.16,2.37-1.16,3.12s.08,3.12,1.16,3.12,1.11-2.42,1.11-3.12S316.64,246,315.61,246Z" transform="translate(-59.5 -22.5)"/><path class="cls-2" d="M330.31,255.68a5.18,5.18,0,0,1-.34,2.21,4.3,4.3,0,0,1-4.23,2.42c-2.83,0-3.94-1.64-4.15-4h2.91c.05.57.26,1.4,1.21,1.4,1.25,0,1.27-1.58,1.27-2.47V253.5c-.53.85-1.08,1.69-2.22,1.69-2.67,0-3.3-4-3.3-5.93s.39-6.14,3.17-6.14a2.67,2.67,0,0,1,2.35,1.61v-1.4h3.33ZM326,246c-1.11,0-1.19,2.34-1.19,3.1s.08,3.09,1.19,3.09,1.14-2.39,1.14-3.09S327,246,326,246Z" transform="translate(-59.5 -22.5)"/><path class="cls-2" d="M334.15,241.59a2.06,2.06,0,1,1,2.09-2.06A2.06,2.06,0,0,1,334.15,241.59ZM332.48,255V243.33h3.31V255Z" transform="translate(-59.5 -22.5)"/><path class="cls-2" d="M345.78,251a5.27,5.27,0,0,1-1.27,3.33,3.36,3.36,0,0,1-2.56.91,3.7,3.7,0,0,1-2.83-1,6.4,6.4,0,0,1-1.62-4.71,7.5,7.5,0,0,1,1.72-5.25,3.7,3.7,0,0,1,2.7-1.07,3.55,3.55,0,0,1,2.54.94,6.42,6.42,0,0,1,1.53,4.52,7.37,7.37,0,0,1-.08,1.14h-5.23a4.51,4.51,0,0,0,0,.66,3.39,3.39,0,0,0,.48,2.05.88.88,0,0,0,.69.31,1.06,1.06,0,0,0,.66-.21A2.76,2.76,0,0,0,343,251Zm-2.67-3.23a2.89,2.89,0,0,0-.53-1.89,1,1,0,0,0-.61-.24,1.09,1.09,0,0,0-.74.31,3.18,3.18,0,0,0-.5,1.82Z" transform="translate(-59.5 -22.5)"/><path class="cls-2" d="M353.26,246.47a2.27,2.27,0,0,0-1.56-.78.8.8,0,0,0-.84.84c0,1.4,3.7,1.11,3.7,4.63,0,2.21-1.35,4-3.73,4a5.77,5.77,0,0,1-3.59-1.33l1.45-2.31a2.62,2.62,0,0,0,1.61.72,1,1,0,0,0,1.06-1c0-1.46-3.86-1.25-3.86-4.76,0-2.23,1.82-3.43,3.94-3.43a5.07,5.07,0,0,1,3.15,1Z" transform="translate(-59.5 -22.5)"/><path class="cls-2" d="M364.42,244.68V255h-1.48V244.68h-1.27v-1.35h1.27V240h1.48v3.3h2v1.35Z" transform="translate(-59.5 -22.5)"/><path class="cls-2" d="M370.74,255.13c-3,0-3.46-3.74-3.46-6s.42-6,3.46-6,3.31,3.82,3.31,6.06S373.78,255.13,370.74,255.13Zm0-10.63c-1.82,0-1.87,3.54-1.87,4.76s.08,4.5,1.87,4.5,1.8-3.46,1.8-4.63S372.46,244.5,370.71,244.5Z" transform="translate(-59.5 -22.5)"/><path class="cls-2" d="M388.53,256.23c0,2.1-.82,3.4-3.09,3.4-2.06,0-3.07-1.27-3.07-3.22a2,2,0,0,1,0-.44h1.51c0,1.17.13,2.28,1.61,2.28S387,257.11,387,256v-1.87a2.36,2.36,0,0,1-1.88.83c-3,0-3-3.95-3-6.06,0-1.95.22-5.74,2.94-5.74a2.33,2.33,0,0,1,2,1v-.81h1.5Zm-3.14-11.89c-1.59,0-1.72,2.68-1.72,5.1,0,1.25,0,4.32,1.85,4.32,1.32,0,1.51-1.54,1.59-2.5s.08-1.87.08-2.81C387.19,247.23,387.19,244.34,385.39,244.34Z" transform="translate(-59.5 -22.5)"/><path class="cls-2" d="M397.1,251c-.08,1.87-.66,4.13-3,4.13-3,0-3.43-3.71-3.43-5.95s.44-6,3.33-6,3.2,3.51,3.2,5.56c0,.24,0,.5,0,.73h-5v.26c0,1.17.19,4.06,1.88,4.06,1.32,0,1.51-1.77,1.53-2.76Zm-1.37-2.81c-.06-1-.19-3.69-1.7-3.69s-1.77,2.63-1.82,3.69Z" transform="translate(-59.5 -22.5)"/><path class="cls-2" d="M401.33,244.68V255h-1.48V244.68h-1.27v-1.35h1.27V240h1.48v3.3h2v1.35Z" transform="translate(-59.5 -22.5)"/><path class="cls-2" d="M421.61,255h-1.48v-8.6c0-1-.16-2-1.38-2-1.71,0-1.79,1.9-1.79,3.18V255h-1.51v-8.58c0-.86-.08-2-1.24-2-1.85,0-1.91,2.06-1.91,3.41V255h-1.48V243.33h1.48v1a3.19,3.19,0,0,1,2.3-1.14,2.31,2.31,0,0,1,2.17,1.35,2.88,2.88,0,0,1,2.44-1.35c1.9,0,2.4,1.22,2.4,2.88Z" transform="translate(-59.5 -22.5)"/><path class="cls-2" d="M427.27,255.13c-3,0-3.47-3.74-3.47-6s.43-6,3.47-6,3.3,3.82,3.3,6.06S430.31,255.13,427.27,255.13Zm0-10.63c-1.82,0-1.88,3.54-1.88,4.76s.08,4.5,1.88,4.5,1.8-3.46,1.8-4.63S429,244.5,427.24,244.5Z" transform="translate(-59.5 -22.5)"/><path class="cls-2" d="M436.28,244.84c-2,0-2,1.56-2,3.07v7h-1.48V243.33h1.48v1.51a2.43,2.43,0,0,1,2-1.69Z" transform="translate(-59.5 -22.5)"/><path class="cls-2" d="M443.77,251c-.08,1.87-.66,4.13-3,4.13-3,0-3.44-3.71-3.44-5.95s.45-6,3.33-6,3.2,3.51,3.2,5.56c0,.24,0,.5,0,.73h-5v.26c0,1.17.18,4.06,1.88,4.06,1.32,0,1.5-1.77,1.53-2.76Zm-1.38-2.81c-.05-1-.18-3.69-1.69-3.69s-1.77,2.63-1.82,3.69Z" transform="translate(-59.5 -22.5)"/><path class="cls-2" d="M91.11,272a1.1,1.1,0,1,1,1.09-1.07A1.09,1.09,0,0,1,91.11,272Zm-.76,14.19V274.53h1.5v11.62Z" transform="translate(-59.5 -22.5)"/><path class="cls-2" d="M99.07,286.15V277.7c0-.93,0-2.16-1.32-2.16a1.66,1.66,0,0,0-1.4.76,3.53,3.53,0,0,0-.4,2v7.82H94.47V274.53H96v.94a3.11,3.11,0,0,1,2.3-1.12c2,0,2.3,1.61,2.3,3.2v8.6Z" transform="translate(-59.5 -22.5)"/><path class="cls-2" d="M105.13,275.88v10.27h-1.48V275.88H102.3v-1.35h1.35v-4.65c0-1.49.39-3,2.19-3a3.34,3.34,0,0,1,1.32.26v1.61a1.78,1.78,0,0,0-1.08-.52c-.87,0-1,.78-1,1.43v4.84h2v1.35Z" transform="translate(-59.5 -22.5)"/><path class="cls-2" d="M111.55,286.33c-3,0-3.46-3.74-3.46-6s.42-6,3.46-6,3.31,3.82,3.31,6.06S114.59,286.33,111.55,286.33Zm0-10.63c-1.82,0-1.87,3.54-1.87,4.76s.08,4.5,1.87,4.5,1.8-3.46,1.8-4.63S113.27,275.7,111.52,275.7Z" transform="translate(-59.5 -22.5)"/><path class="cls-2" d="M120.57,276c-2,0-2,1.56-2,3.07v7h-1.48V274.53h1.48V276a2.42,2.42,0,0,1,2-1.69Z" transform="translate(-59.5 -22.5)"/><path class="cls-2" d="M133,286.15h-1.49v-8.6c0-1-.15-2-1.37-2-1.72,0-1.8,1.9-1.8,3.18v7.43h-1.51v-8.58c0-.86-.08-2-1.24-2-1.85,0-1.9,2.06-1.9,3.41v7.2h-1.48V274.53h1.48v1a3.17,3.17,0,0,1,2.3-1.14,2.32,2.32,0,0,1,2.17,1.35,2.87,2.87,0,0,1,2.43-1.35c1.9,0,2.41,1.22,2.41,2.88Z" transform="translate(-59.5 -22.5)"/><path class="cls-2" d="M140.13,286.15v-.93a2.33,2.33,0,0,1-2,1.11c-2.69,0-2.77-3.71-2.77-5.77,0-2.36.08-6.21,2.91-6.21a2.18,2.18,0,0,1,1.87,1v-.78h1.51v11.62Zm-1.5-10.63c-1.72,0-1.75,3-1.75,4.13,0,1,0,1.87.08,2.81s.26,2.68,1.64,2.68a1.18,1.18,0,0,0,1-.39c.74-.73.74-3.46.74-4.47C140.29,278,140.16,275.52,138.63,275.52Z" transform="translate(-59.5 -22.5)"/><path class="cls-2" d="M146.21,275.88v10.27h-1.48V275.88h-1.27v-1.35h1.27v-3.3h1.48v3.3h2v1.35Z" transform="translate(-59.5 -22.5)"/><path class="cls-2" d="M150.29,272a1.1,1.1,0,1,1,1.08-1.07A1.09,1.09,0,0,1,150.29,272Zm-.77,14.19V274.53H151v11.62Z" transform="translate(-59.5 -22.5)"/><path class="cls-2" d="M156.66,286.33c-3,0-3.47-3.74-3.47-6s.43-6,3.47-6,3.3,3.82,3.3,6.06S159.7,286.33,156.66,286.33Zm0-10.63c-1.82,0-1.88,3.54-1.88,4.76s.08,4.5,1.88,4.5,1.8-3.46,1.8-4.63S158.38,275.7,156.63,275.7Z" transform="translate(-59.5 -22.5)"/><path class="cls-2" d="M166.78,286.15V277.7c0-.93,0-2.16-1.32-2.16a1.68,1.68,0,0,0-1.4.76,3.53,3.53,0,0,0-.4,2v7.82h-1.48V274.53h1.48v.94a3.13,3.13,0,0,1,2.3-1.12c2,0,2.31,1.61,2.31,3.2v8.6Z" transform="translate(-59.5 -22.5)"/><path class="cls-2" d="M180.08,286.33c-3,0-3.46-3.74-3.46-6s.42-6,3.46-6,3.31,3.82,3.31,6.06S183.12,286.33,180.08,286.33Zm0-10.63c-1.83,0-1.88,3.54-1.88,4.76s.08,4.5,1.88,4.5,1.79-3.46,1.79-4.63S181.8,275.7,180.06,275.7Z" transform="translate(-59.5 -22.5)"/><path class="cls-2" d="M190.21,286.15V277.7c0-.93,0-2.16-1.32-2.16a1.66,1.66,0,0,0-1.4.76,3.53,3.53,0,0,0-.4,2v7.82h-1.48V274.53h1.48v.94a3.1,3.1,0,0,1,2.3-1.12c2,0,2.3,1.61,2.3,3.2v8.6Z" transform="translate(-59.5 -22.5)"/><path class="cls-2" d="M202.42,275.88v10.27h-1.48V275.88h-1.27v-1.35h1.27v-3.3h1.48v3.3h2v1.35Z" transform="translate(-59.5 -22.5)"/><path class="cls-2" d="M210.36,286.15V277.7c0-.93,0-2.16-1.33-2.16a1.68,1.68,0,0,0-1.4.76,3.65,3.65,0,0,0-.39,2v7.82h-1.49V267.2h1.49v8.27a3.1,3.1,0,0,1,2.3-1.12c1.93,0,2.3,1.35,2.3,3v8.81Z" transform="translate(-59.5 -22.5)"/><path class="cls-2" d="M220.17,282.2c-.08,1.87-.67,4.13-3,4.13-3,0-3.44-3.71-3.44-5.95s.45-6,3.33-6,3.2,3.51,3.2,5.56c0,.24,0,.5,0,.73h-5v.26c0,1.17.18,4.06,1.87,4.06,1.33,0,1.51-1.77,1.54-2.76Zm-1.38-2.81c0-1-.18-3.69-1.69-3.69s-1.77,2.63-1.83,3.69Z" transform="translate(-59.5 -22.5)"/><path class="cls-2" d="M230.56,275.88v10.27h-1.49V275.88h-1.34v-1.35h1.34v-4.65c0-1.49.4-3,2.2-3a3.34,3.34,0,0,1,1.32.26v1.61a1.78,1.78,0,0,0-1.08-.52c-.88,0-.95.78-.95,1.43v4.84h2v1.35Z" transform="translate(-59.5 -22.5)"/><path class="cls-2" d="M238.51,286.15v-.93a2.32,2.32,0,0,1-2,1.11c-2.69,0-2.77-3.71-2.77-5.77,0-2.36.08-6.21,2.91-6.21a2.17,2.17,0,0,1,1.87,1v-.78H240v11.62ZM237,275.52c-1.72,0-1.75,3-1.75,4.13,0,1,0,1.87.08,2.81s.27,2.68,1.64,2.68a1.18,1.18,0,0,0,1-.39c.74-.73.74-3.46.74-4.47C238.67,278,238.54,275.52,237,275.52Z" transform="translate(-59.5 -22.5)"/><path class="cls-2" d="M247.32,285.74a2.93,2.93,0,0,1-1.69.59c-2.78,0-3.41-3.71-3.41-5.79s.47-6.19,3.49-6.19a3.22,3.22,0,0,1,1.61.44v1.72a2.11,2.11,0,0,0-1.48-.81c-1.88,0-2.06,3.41-2.06,4.71s.23,4.55,2,4.55a2,2,0,0,0,1.51-1Z" transform="translate(-59.5 -22.5)"/><path class="cls-2" d="M251.1,275.88v10.27h-1.48V275.88h-1.27v-1.35h1.27v-3.3h1.48v3.3h2v1.35Z" transform="translate(-59.5 -22.5)"/><path class="cls-2" d="M257.42,286.33c-3,0-3.46-3.74-3.46-6s.42-6,3.46-6,3.3,3.82,3.3,6.06S260.46,286.33,257.42,286.33Zm0-10.63c-1.82,0-1.88,3.54-1.88,4.76s.08,4.5,1.88,4.5,1.8-3.46,1.8-4.63S259.14,275.7,257.39,275.7Z" transform="translate(-59.5 -22.5)"/><path class="cls-2" d="M266.43,276c-2,0-2,1.56-2,3.07v7h-1.48V274.53h1.48V276a2.43,2.43,0,0,1,2-1.69Z" transform="translate(-59.5 -22.5)"/><path class="cls-2" d="M272.57,276.9a2.78,2.78,0,0,0-2-1.2,1.46,1.46,0,0,0-1.45,1.53c0,2.27,3.81,2.68,3.81,5.83a3.16,3.16,0,0,1-3.18,3.27,3.61,3.61,0,0,1-2.19-.8v-1.72a3,3,0,0,0,2.09,1.15,1.72,1.72,0,0,0,1.72-1.8c0-2.29-3.81-3.07-3.81-5.87a2.83,2.83,0,0,1,2.93-2.94,3.53,3.53,0,0,1,2.12.75Z" transform="translate(-59.5 -22.5)"/><path class="cls-2" d="M282.32,275.31a2.21,2.21,0,0,1,1.91-1c2.88,0,2.91,3.69,2.91,5.77,0,2.5-.08,6.21-2.78,6.21a2.51,2.51,0,0,1-2-1.11v.93h-1.48V267.2h1.48Zm1.54.21c-1.54,0-1.67,2.44-1.67,4.76,0,1,0,3.74.74,4.47a1.21,1.21,0,0,0,.95.39c1.38,0,1.54-1.67,1.64-2.68s.08-1.82.08-2.73C285.6,278.56,285.58,275.52,283.86,275.52Z" transform="translate(-59.5 -22.5)"/><path class="cls-2" d="M295.31,282.2c-.08,1.87-.66,4.13-3,4.13-3,0-3.44-3.71-3.44-5.95s.45-6,3.33-6,3.2,3.51,3.2,5.56c0,.24,0,.5,0,.73h-5v.26c0,1.17.18,4.06,1.88,4.06,1.32,0,1.5-1.77,1.53-2.76Zm-1.38-2.81c-.05-1-.18-3.69-1.69-3.69s-1.77,2.63-1.82,3.69Z" transform="translate(-59.5 -22.5)"/><path class="cls-2" d="M302.21,286.15V277.7c0-.93,0-2.16-1.32-2.16a1.68,1.68,0,0,0-1.41.76,3.65,3.65,0,0,0-.39,2v7.82h-1.48V267.2h1.48v8.27a3.1,3.1,0,0,1,2.3-1.12c1.93,0,2.3,1.35,2.3,3v8.81Z" transform="translate(-59.5 -22.5)"/><path class="cls-2" d="M307.07,272a1.1,1.1,0,1,1,1.09-1.07A1.09,1.09,0,0,1,307.07,272Zm-.77,14.19V274.53h1.51v11.62Z" transform="translate(-59.5 -22.5)"/><path class="cls-2" d="M315,286.15V277.7c0-.93,0-2.16-1.32-2.16a1.66,1.66,0,0,0-1.4.76,3.53,3.53,0,0,0-.4,2v7.82h-1.48V274.53h1.48v.94a3.11,3.11,0,0,1,2.3-1.12c2,0,2.3,1.61,2.3,3.2v8.6Z" transform="translate(-59.5 -22.5)"/><path class="cls-2" d="M323.52,286.15v-.93a2.38,2.38,0,0,1-2,1.11c-2.72,0-2.77-3.87-2.77-5.9,0-2.26,0-6.08,2.93-6.08a2.19,2.19,0,0,1,1.88,1V267.2H325v18.95ZM322,275.52c-1.69,0-1.72,3-1.72,4.13,0,1,0,1.87.08,2.81s.24,2.68,1.62,2.68a1.27,1.27,0,0,0,1-.39c.71-.7.71-3.43.71-4.4C323.65,277.91,323.52,275.52,322,275.52Z" transform="translate(-59.5 -22.5)"/><path class="cls-2" d="M328.65,286.33a1.2,1.2,0,0,1-1.19-1.17,1.19,1.19,0,1,1,1.19,1.17Z" transform="translate(-59.5 -22.5)"/></svg>