<svg id="Ebene_1" data-name="Ebene 1" xmlns="http://www.w3.org/2000/svg" width="398.95" height="233.39" viewBox="0 0 398.95 233.39"><defs><style>.cls-1{fill:none;stroke:#c7f700;stroke-width:8px;}.cls-2{fill:#fde8e9;}</style></defs><g id="Gruppe_432" data-name="Gruppe 432"><g id="Gruppe_430" data-name="Gruppe 430"><g id="Gruppe_93" data-name="Gruppe 93"><path id="Pfad_50-2" data-name="Pfad 50-2" class="cls-1" d="M454.45,103.68V26.5H375.16" transform="translate(-59.5 -22.5)"/><path id="Pfad_51-2" data-name="Pfad 51-2" class="cls-1" d="M454.45,174.71v77.18H375.16" transform="translate(-59.5 -22.5)"/><path id="Pfad_52-2" data-name="Pfad 52-2" class="cls-1" d="M63.5,103.68V26.5h79.28" transform="translate(-59.5 -22.5)"/><path id="Pfad_53-2" data-name="Pfad 53-2" class="cls-1" d="M63.5,174.71v77.18h79.28" transform="translate(-59.5 -22.5)"/></g></g></g><path class="cls-2" d="M96.51,67.75l-4.1-8.47v8.47h-1.8V50.41h2.22a6.4,6.4,0,0,1,3,.49c1.59.84,1.91,2.55,1.91,4.16,0,2.4-.82,4.16-3.49,4.37l4.09,8.32Zm-3-9.75C95.61,58,96,56.78,96,55c0-2-.42-3.07-2.67-3.07h-.87V58Z" transform="translate(-59.5 -22.5)"/><path class="cls-2" d="M101.05,53.56a1.1,1.1,0,1,1,1.09-1.07A1.09,1.09,0,0,1,101.05,53.56Zm-.76,14.19V56.13h1.5V67.75Z" transform="translate(-59.5 -22.5)"/><path class="cls-2" d="M108.88,58.5a2.78,2.78,0,0,0-2-1.2,1.46,1.46,0,0,0-1.45,1.53c0,2.27,3.81,2.68,3.81,5.83A3.16,3.16,0,0,1,106,67.93a3.61,3.61,0,0,1-2.19-.8V65.41a3,3,0,0,0,2.09,1.15,1.71,1.71,0,0,0,1.72-1.8c0-2.29-3.81-3.07-3.81-5.87A2.84,2.84,0,0,1,106.77,56a3.53,3.53,0,0,1,2.11.75Z" transform="translate(-59.5 -22.5)"/><path class="cls-2" d="M116.15,67.75l-3.67-5.56v5.56H111v-19h1.48V60.86l3-4.73h1.66l-3.38,5.2L118,67.75Z" transform="translate(-59.5 -22.5)"/><path class="cls-2" d="M123.11,58.5a2.78,2.78,0,0,0-2-1.2,1.46,1.46,0,0,0-1.45,1.53c0,2.27,3.8,2.68,3.8,5.83a3.15,3.15,0,0,1-3.17,3.27,3.67,3.67,0,0,1-2.2-.8V65.41a3.06,3.06,0,0,0,2.09,1.15,1.71,1.71,0,0,0,1.72-1.8c0-2.29-3.81-3.07-3.81-5.87A2.84,2.84,0,0,1,121,56a3.58,3.58,0,0,1,2.12.75Z" transform="translate(-59.5 -22.5)"/><path class="cls-2" d="M135.88,67.75v-.93a2.34,2.34,0,0,1-2,1.11c-2.7,0-2.78-3.71-2.78-5.77,0-2.36.08-6.21,2.91-6.21a2.2,2.2,0,0,1,1.88,1v-.78h1.5V67.75Zm-1.51-10.63c-1.72,0-1.75,3-1.75,4.13,0,1,0,1.87.08,2.81s.27,2.68,1.64,2.68a1.18,1.18,0,0,0,.95-.39c.74-.73.74-3.46.74-4.47C136,59.56,135.9,57.12,134.37,57.12Z" transform="translate(-59.5 -22.5)"/><path class="cls-2" d="M144.63,67.75V59.3c0-.93,0-2.16-1.32-2.16a1.68,1.68,0,0,0-1.41.76,3.6,3.6,0,0,0-.39,2v7.82H140V56.13h1.48v.94a3.1,3.1,0,0,1,2.3-1.12c2,0,2.3,1.61,2.3,3.2v8.6Z" transform="translate(-59.5 -22.5)"/><path class="cls-2" d="M153.11,67.75v-.93a2.36,2.36,0,0,1-2,1.11c-2.73,0-2.78-3.87-2.78-5.9,0-2.26,0-6.08,2.94-6.08a2.17,2.17,0,0,1,1.87,1V48.8h1.49v19Zm-1.53-10.63c-1.69,0-1.72,3-1.72,4.13,0,1,0,1.87.08,2.81s.24,2.68,1.61,2.68a1.25,1.25,0,0,0,1-.39c.72-.7.72-3.43.72-4.4C153.25,59.51,153.11,57.12,151.58,57.12Z" transform="translate(-59.5 -22.5)"/><path class="cls-2" d="M164.88,56.91a2.2,2.2,0,0,1,1.9-1c2.89,0,2.91,3.69,2.91,5.77,0,2.5-.08,6.21-2.77,6.21a2.49,2.49,0,0,1-2-1.11v.93H163.4v-19h1.48Zm1.53.21c-1.53,0-1.66,2.44-1.66,4.76,0,1,0,3.74.74,4.47a1.18,1.18,0,0,0,.95.39c1.37,0,1.53-1.67,1.64-2.68s.08-1.82.08-2.73C168.16,60.16,168.13,57.12,166.41,57.12Z" transform="translate(-59.5 -22.5)"/><path class="cls-2" d="M177.86,63.8c-.08,1.87-.66,4.13-3,4.13-3,0-3.43-3.71-3.43-6s.45-6,3.33-6,3.2,3.51,3.2,5.56c0,.24,0,.5,0,.73h-5v.26c0,1.17.19,4.06,1.88,4.06,1.32,0,1.51-1.77,1.54-2.76ZM176.49,61c-.06-1-.19-3.69-1.7-3.69S173,59.93,173,61Z" transform="translate(-59.5 -22.5)"/><path class="cls-2" d="M184.76,67.75V59.3c0-.93,0-2.16-1.32-2.16a1.68,1.68,0,0,0-1.4.76,3.53,3.53,0,0,0-.4,2v7.82h-1.48V56.13h1.48v.94a3.11,3.11,0,0,1,2.3-1.12c2,0,2.3,1.61,2.3,3.2v8.6Z" transform="translate(-59.5 -22.5)"/><path class="cls-2" d="M194.86,63.8c-.08,1.87-.66,4.13-3,4.13-3,0-3.44-3.71-3.44-6s.45-6,3.33-6,3.2,3.51,3.2,5.56c0,.24,0,.5,0,.73h-5v.26c0,1.17.19,4.06,1.88,4.06,1.32,0,1.51-1.77,1.54-2.76ZM193.49,61c-.06-1-.19-3.69-1.7-3.69S190,59.93,190,61Z" transform="translate(-59.5 -22.5)"/><path class="cls-2" d="M199.09,57.48V67.75h-1.48V57.48h-1.35V56.13h1.35V51.48c0-1.49.4-3,2.2-3a3.34,3.34,0,0,1,1.32.26v1.61a1.78,1.78,0,0,0-1.09-.52c-.87,0-.95.78-.95,1.43v4.84h2v1.35ZM203,53.56a1.1,1.1,0,1,1,1.08-1.07A1.08,1.08,0,0,1,203,53.56Zm-.77,14.19V56.13h1.51V67.75Z" transform="translate(-59.5 -22.5)"/><path class="cls-2" d="M208.35,57.48V67.75h-1.48V57.48H205.6V56.13h1.27v-3.3h1.48v3.3h2v1.35Z" transform="translate(-59.5 -22.5)"/><path class="cls-2" d="M216.15,58.5a2.78,2.78,0,0,0-2-1.2,1.46,1.46,0,0,0-1.45,1.53c0,2.27,3.8,2.68,3.8,5.83a3.15,3.15,0,0,1-3.17,3.27,3.61,3.61,0,0,1-2.19-.8V65.41a3,3,0,0,0,2.08,1.15,1.71,1.71,0,0,0,1.72-1.8c0-2.29-3.8-3.07-3.8-5.87A2.83,2.83,0,0,1,214,56a3.56,3.56,0,0,1,2.12.75Z" transform="translate(-59.5 -22.5)"/><path class="cls-2" d="M228.89,58.5a2.78,2.78,0,0,0-2-1.2,1.46,1.46,0,0,0-1.45,1.53c0,2.27,3.81,2.68,3.81,5.83A3.16,3.16,0,0,1,226,67.93a3.61,3.61,0,0,1-2.19-.8V65.41a3,3,0,0,0,2.09,1.15,1.71,1.71,0,0,0,1.72-1.8c0-2.29-3.81-3.07-3.81-5.87A2.84,2.84,0,0,1,226.77,56a3.53,3.53,0,0,1,2.12.75Z" transform="translate(-59.5 -22.5)"/><path class="cls-2" d="M237.14,64.92a3.07,3.07,0,0,1-6.14,0V56.13h1.49V64c0,1.19,0,2.55,1.63,2.55s1.54-1.56,1.54-2.71V56.13h1.48Z" transform="translate(-59.5 -22.5)"/><path class="cls-2" d="M250.57,67.75h-1.48v-8.6c0-1-.16-2-1.38-2-1.71,0-1.79,1.9-1.79,3.18v7.43h-1.51V59.17c0-.86-.08-2-1.24-2-1.85,0-1.91,2.06-1.91,3.41v7.2h-1.48V56.13h1.48v1a3.19,3.19,0,0,1,2.3-1.14,2.31,2.31,0,0,1,2.17,1.35A2.88,2.88,0,0,1,248.17,56c1.9,0,2.4,1.22,2.4,2.88Z" transform="translate(-59.5 -22.5)"/><path class="cls-2" d="M265.51,64.92a3.07,3.07,0,0,1-6.14,0V56.13h1.48V64c0,1.19.06,2.55,1.64,2.55S264,65,264,63.85V56.13h1.48Z" transform="translate(-59.5 -22.5)"/><path class="cls-2" d="M269.63,56.91a2.16,2.16,0,0,1,1.88-1c2.91,0,2.94,3.66,2.94,5.77,0,2.5-.08,6.21-2.78,6.21a2.49,2.49,0,0,1-2-1.11v5.61h-1.48V56.13h1.48Zm1.54.21c-1.54,0-1.67,2.44-1.67,4.76,0,1,0,3.74.74,4.47a1.21,1.21,0,0,0,.95.39c1.38,0,1.54-1.67,1.64-2.68s.08-1.82.08-2.73C272.91,60.16,272.89,57.12,271.17,57.12Z" transform="translate(-59.5 -22.5)"/><path class="cls-2" d="M284.73,57.48V67.75h-1.48V57.48H282V56.13h1.27v-3.3h1.48v3.3h2v1.35Z" transform="translate(-59.5 -22.5)"/><path class="cls-2" d="M291.05,67.93c-3,0-3.47-3.74-3.47-6s.43-6,3.47-6,3.3,3.82,3.3,6.06S294.09,67.93,291.05,67.93Zm0-10.63c-1.82,0-1.88,3.54-1.88,4.76s.08,4.5,1.88,4.5,1.8-3.46,1.8-4.63S292.77,57.3,291,57.3Z" transform="translate(-59.5 -22.5)"/><path class="cls-2" d="M304.67,57.48V67.75h-1.49V57.48h-1.26V56.13h1.26v-3.3h1.49v3.3h2v1.35Z" transform="translate(-59.5 -22.5)"/><path class="cls-2" d="M312.6,67.75V59.3c0-.93,0-2.16-1.32-2.16a1.68,1.68,0,0,0-1.41.76,3.65,3.65,0,0,0-.39,2v7.82H308v-19h1.48v8.27a3.1,3.1,0,0,1,2.3-1.12c1.93,0,2.3,1.35,2.3,3v8.81Z" transform="translate(-59.5 -22.5)"/><path class="cls-2" d="M322.41,63.8c-.08,1.87-.66,4.13-3,4.13-3,0-3.44-3.71-3.44-6s.45-6,3.33-6,3.2,3.51,3.2,5.56c0,.24,0,.5,0,.73h-5v.26c0,1.17.18,4.06,1.88,4.06,1.32,0,1.5-1.77,1.53-2.76ZM321,61c0-1-.18-3.69-1.69-3.69s-1.77,2.63-1.83,3.69Z" transform="translate(-59.5 -22.5)"/><path class="cls-2" d="M334,67.75h-1.61l-2.7-11.62h1.53l1.56,6.94c.19.83.32,1.67.43,2.5.13-.81.26-1.64.42-2.45l1.45-7h1.54Z" transform="translate(-59.5 -22.5)"/><path class="cls-2" d="M342.5,67.75v-.93a2.33,2.33,0,0,1-2,1.11c-2.7,0-2.78-3.71-2.78-5.77,0-2.36.08-6.21,2.91-6.21a2.19,2.19,0,0,1,1.88,1v-.78H344V67.75ZM341,57.12c-1.72,0-1.74,3-1.74,4.13,0,1,0,1.87.08,2.81s.26,2.68,1.64,2.68a1.21,1.21,0,0,0,.95-.39c.74-.73.74-3.46.74-4.47C342.66,59.56,342.53,57.12,341,57.12Z" transform="translate(-59.5 -22.5)"/><path class="cls-2" d="M350.14,57.64c-2,0-2,1.56-2,3.07v7h-1.48V56.13h1.48v1.51a2.43,2.43,0,0,1,2-1.69Z" transform="translate(-59.5 -22.5)"/><path class="cls-2" d="M352.55,53.56a1.1,1.1,0,1,1,1.08-1.07A1.08,1.08,0,0,1,352.55,53.56Zm-.77,14.19V56.13h1.51V67.75Z" transform="translate(-59.5 -22.5)"/><path class="cls-2" d="M360.4,67.75v-.93a2.33,2.33,0,0,1-2,1.11c-2.7,0-2.78-3.71-2.78-5.77,0-2.36.08-6.21,2.91-6.21a2.19,2.19,0,0,1,1.88,1v-.78h1.51V67.75Zm-1.51-10.63c-1.72,0-1.74,3-1.74,4.13,0,1,0,1.87.08,2.81s.26,2.68,1.64,2.68a1.21,1.21,0,0,0,.95-.39c.74-.73.74-3.46.74-4.47C360.56,59.56,360.43,57.12,358.89,57.12Z" transform="translate(-59.5 -22.5)"/><path class="cls-2" d="M366,56.91a2.2,2.2,0,0,1,1.91-1c2.88,0,2.9,3.69,2.9,5.77,0,2.5-.08,6.21-2.77,6.21a2.49,2.49,0,0,1-2-1.11v.93h-1.48v-19H366Zm1.54.21c-1.54,0-1.67,2.44-1.67,4.76,0,1,0,3.74.74,4.47a1.2,1.2,0,0,0,.95.39c1.38,0,1.53-1.67,1.64-2.68s.08-1.82.08-2.73C369.31,60.16,369.28,57.12,367.57,57.12Z" transform="translate(-59.5 -22.5)"/><path class="cls-2" d="M373,67.75v-19h1.5v19Z" transform="translate(-59.5 -22.5)"/><path class="cls-2" d="M383.17,63.8c-.08,1.87-.67,4.13-3,4.13-3,0-3.44-3.71-3.44-6s.45-6,3.33-6,3.2,3.51,3.2,5.56c0,.24,0,.5,0,.73h-5v.26c0,1.17.18,4.06,1.87,4.06,1.33,0,1.51-1.77,1.54-2.76ZM381.79,61c-.05-1-.18-3.69-1.69-3.69s-1.77,2.63-1.83,3.69Z" transform="translate(-59.5 -22.5)"/><path class="cls-2" d="M99,98.59a4.65,4.65,0,0,1-2.4.54,5.44,5.44,0,0,1-4.18-1.56c-1.24-1.22-2.38-3.35-2.38-7,0-1.74.21-5.07,2.54-7.38a5.84,5.84,0,0,1,4.23-1.74,5.2,5.2,0,0,1,2.19.49v3.54a2.81,2.81,0,0,0-1.93-.76,2.67,2.67,0,0,0-1.93.78c-.95.94-1.45,2.73-1.45,5,0,.44,0,3.2,1.24,4.55a2.57,2.57,0,0,0,2,.83A3.08,3.08,0,0,0,99,95Z" transform="translate(-59.5 -22.5)"/><path class="cls-2" d="M105.07,99.19c-3.38,0-4.49-3.23-4.49-6s1.11-6,4.49-6,4.45,3.15,4.45,6S108.56,99.19,105.07,99.19Zm0-9.16c-1.08,0-1.16,2.37-1.16,3.12s.08,3.12,1.16,3.12,1.11-2.41,1.11-3.12S106.1,90,105.07,90Z" transform="translate(-59.5 -22.5)"/><path class="cls-2" d="M116.28,99V91.83c0-.52,0-1.46-.79-1.46-.95,0-.9,1.2-.9,1.85V99h-3.3V87.33h3.3v1.82a3.17,3.17,0,0,1,2.81-2c2,0,2.19,1.87,2.19,3.43V99Z" transform="translate(-59.5 -22.5)"/><path class="cls-2" d="M127.23,90.48a2.25,2.25,0,0,0-1.56-.78.8.8,0,0,0-.85.83c0,1.4,3.71,1.12,3.71,4.63,0,2.21-1.35,4-3.73,4a5.8,5.8,0,0,1-3.6-1.33l1.46-2.31a2.52,2.52,0,0,0,1.61.72,1,1,0,0,0,1.06-1c0-1.45-3.86-1.25-3.86-4.76,0-2.23,1.82-3.43,3.94-3.43a5,5,0,0,1,3.14,1Z" transform="translate(-59.5 -22.5)"/><path class="cls-2" d="M137.94,95a5.27,5.27,0,0,1-1.27,3.33,3.37,3.37,0,0,1-2.57.91,3.68,3.68,0,0,1-2.82-1,6.4,6.4,0,0,1-1.62-4.71,7.45,7.45,0,0,1,1.72-5.25,3.68,3.68,0,0,1,2.7-1.07,3.55,3.55,0,0,1,2.54.94,6.42,6.42,0,0,1,1.53,4.52,9.14,9.14,0,0,1-.08,1.15h-5.23a4.3,4.3,0,0,0,0,.65,3.4,3.4,0,0,0,.47,2.05.91.91,0,0,0,.69.31,1,1,0,0,0,.66-.21,2.77,2.77,0,0,0,.51-1.58Zm-2.67-3.23a2.89,2.89,0,0,0-.53-1.89,1,1,0,0,0-.61-.24,1.09,1.09,0,0,0-.74.31,3.18,3.18,0,0,0-.5,1.82Z" transform="translate(-59.5 -22.5)"/><path class="cls-2" d="M144.94,104.31V97.63a2.52,2.52,0,0,1-2.19,1.56c-2.72,0-3.2-4.11-3.2-6.09s.4-6,3.17-6a2.46,2.46,0,0,1,2.22,1.64V87.33h3.31v17ZM144.05,90c-1.09,0-1.17,2.4-1.17,3.12s.08,3.12,1.19,3.12,1.11-2.41,1.11-3.12S145.1,90,144.05,90Z" transform="translate(-59.5 -22.5)"/><path class="cls-2" d="M158.64,95.18a3.64,3.64,0,0,1-.55,2.21,4.37,4.37,0,0,1-3.63,1.8,4.28,4.28,0,0,1-3.62-1.82,3.51,3.51,0,0,1-.48-2v-8h3.31v7.15c0,.57,0,1.69.82,1.69,1,0,.82-1.56.82-2.18V87.33h3.33Z" transform="translate(-59.5 -22.5)"/><path class="cls-2" d="M168.66,95a5.21,5.21,0,0,1-1.27,3.33,3.36,3.36,0,0,1-2.56.91,3.7,3.7,0,0,1-2.83-1,6.4,6.4,0,0,1-1.61-4.71,7.49,7.49,0,0,1,1.71-5.25,3.7,3.7,0,0,1,2.7-1.07,3.55,3.55,0,0,1,2.54.94,6.42,6.42,0,0,1,1.53,4.52,7.59,7.59,0,0,1-.08,1.15h-5.23a4.3,4.3,0,0,0,0,.65,3.39,3.39,0,0,0,.48,2.05.88.88,0,0,0,.69.31,1.06,1.06,0,0,0,.66-.21,2.76,2.76,0,0,0,.5-1.58ZM166,91.72a2.89,2.89,0,0,0-.53-1.89,1,1,0,0,0-.61-.24,1.09,1.09,0,0,0-.74.31,3.18,3.18,0,0,0-.5,1.82Z" transform="translate(-59.5 -22.5)"/><path class="cls-2" d="M175.62,99V91.83c0-.52,0-1.46-.8-1.46-.95,0-.9,1.2-.9,1.85V99h-3.3V87.33h3.3v1.82a3.17,3.17,0,0,1,2.81-2c2,0,2.19,1.87,2.19,3.43V99Z" transform="translate(-59.5 -22.5)"/><path class="cls-2" d="M186.88,98.77a4.26,4.26,0,0,1-1.88.42c-3.17,0-4.31-3.28-4.31-5.91,0-2.83,1.08-6.18,4.52-6.18a4.12,4.12,0,0,1,1.67.33v2.86a1.27,1.27,0,0,0-.93-.39c-1.58,0-1.93,1.95-1.93,3.15s.27,3.09,1.88,3.09a1.77,1.77,0,0,0,1-.33Z" transform="translate(-59.5 -22.5)"/><path class="cls-2" d="M196.37,95a5.27,5.27,0,0,1-1.27,3.33,3.36,3.36,0,0,1-2.56.91,3.7,3.7,0,0,1-2.83-1,6.4,6.4,0,0,1-1.62-4.71,7.5,7.5,0,0,1,1.72-5.25,3.7,3.7,0,0,1,2.7-1.07,3.55,3.55,0,0,1,2.54.94,6.42,6.42,0,0,1,1.53,4.52,7.59,7.59,0,0,1-.08,1.15h-5.23a4.3,4.3,0,0,0,0,.65,3.39,3.39,0,0,0,.48,2.05.87.87,0,0,0,.68.31,1.07,1.07,0,0,0,.67-.21,2.76,2.76,0,0,0,.5-1.58Zm-2.67-3.23a2.89,2.89,0,0,0-.53-1.89,1,1,0,0,0-.61-.24,1.09,1.09,0,0,0-.74.31,3.18,3.18,0,0,0-.5,1.82Z" transform="translate(-59.5 -22.5)"/><path class="cls-2" d="M203.85,90.48a2.25,2.25,0,0,0-1.56-.78.79.79,0,0,0-.84.83c0,1.4,3.7,1.12,3.7,4.63,0,2.21-1.35,4-3.73,4a5.8,5.8,0,0,1-3.6-1.33l1.46-2.31a2.54,2.54,0,0,0,1.61.72,1,1,0,0,0,1.06-1c0-1.45-3.86-1.25-3.86-4.76,0-2.23,1.82-3.43,3.94-3.43a5,5,0,0,1,3.14,1Z" transform="translate(-59.5 -22.5)"/><path class="cls-2" d="M207.92,99.13A1.21,1.21,0,0,1,206.73,98a1.19,1.19,0,1,1,1.19,1.17Z" transform="translate(-59.5 -22.5)"/><path class="cls-2" d="M220,81.61c3.54,0,4.47,1.53,4.47,4.81,0,3-1.19,4.24-4.29,4.24h-.66V99h-1.64V81.61Zm.6,7.57c2.07,0,2.2-1.43,2.2-3.07,0-1.82-.37-3-2.49-3h-.79v6.09Z" transform="translate(-59.5 -22.5)"/><path class="cls-2" d="M231.61,95c-.08,1.87-.66,4.13-3,4.13-3,0-3.44-3.71-3.44-5.95s.45-6,3.33-6,3.2,3.51,3.2,5.56c0,.24,0,.5,0,.73h-5v.26c0,1.17.18,4.06,1.87,4.06,1.32,0,1.51-1.77,1.54-2.76Zm-1.37-2.81c-.05-1-.19-3.69-1.69-3.69s-1.78,2.63-1.83,3.69Z" transform="translate(-59.5 -22.5)"/><path class="cls-2" d="M237.4,88.84c-2,0-2,1.56-2,3.07v7h-1.48V87.33h1.48v1.51a2.43,2.43,0,0,1,2-1.69Z" transform="translate(-59.5 -22.5)"/><path class="cls-2" d="M243.56,98.54a2.91,2.91,0,0,1-1.69.59c-2.78,0-3.41-3.71-3.41-5.79s.48-6.19,3.49-6.19a3.2,3.2,0,0,1,1.61.44v1.72a2.09,2.09,0,0,0-1.48-.81c-1.87,0-2.06,3.41-2.06,4.71s.24,4.55,2,4.55a2,2,0,0,0,1.5-1Z" transform="translate(-59.5 -22.5)"/><path class="cls-2" d="M251.39,95c-.08,1.87-.66,4.13-3,4.13-3,0-3.44-3.71-3.44-5.95s.45-6,3.34-6,3.2,3.51,3.2,5.56c0,.24,0,.5,0,.73h-5v.26c0,1.17.19,4.06,1.88,4.06,1.32,0,1.51-1.77,1.53-2.76ZM250,92.19c-.06-1-.19-3.69-1.7-3.69s-1.77,2.63-1.82,3.69Z" transform="translate(-59.5 -22.5)"/><path class="cls-2" d="M254.43,84.76a1.1,1.1,0,1,1,1.08-1.07A1.08,1.08,0,0,1,254.43,84.76ZM253.66,99V87.33h1.51V99Z" transform="translate(-59.5 -22.5)"/><path class="cls-2" d="M261,99h-1.61l-2.7-11.62h1.53l1.57,6.94c.18.83.31,1.67.42,2.5.13-.81.26-1.64.42-2.45l1.45-7h1.54Z" transform="translate(-59.5 -22.5)"/><path class="cls-2" d="M270.88,95c-.08,1.87-.66,4.13-3,4.13-3,0-3.44-3.71-3.44-5.95s.45-6,3.33-6,3.2,3.51,3.2,5.56c0,.24,0,.5,0,.73h-5v.26c0,1.17.18,4.06,1.88,4.06,1.32,0,1.5-1.77,1.53-2.76Zm-1.38-2.81c-.05-1-.18-3.69-1.69-3.69S266,91.13,266,92.19Z" transform="translate(-59.5 -22.5)"/><path class="cls-2" d="M277.54,99V98a2.38,2.38,0,0,1-2,1.11c-2.72,0-2.77-3.87-2.77-5.9,0-2.26,0-6.08,2.93-6.08a2.19,2.19,0,0,1,1.88,1V80H279V99ZM276,88.32c-1.69,0-1.71,3-1.71,4.13,0,1,0,1.87.08,2.81s.23,2.68,1.61,2.68a1.26,1.26,0,0,0,1-.39c.71-.7.71-3.43.71-4.4C277.67,90.71,277.54,88.32,276,88.32Z" transform="translate(-59.5 -22.5)"/><path class="cls-2" d="M291.31,88.84c-2,0-2,1.56-2,3.07v7h-1.48V87.33h1.48v1.51a2.43,2.43,0,0,1,2-1.69Z" transform="translate(-59.5 -22.5)"/><path class="cls-2" d="M293.72,84.76a1.1,1.1,0,1,1,1.08-1.07A1.08,1.08,0,0,1,293.72,84.76ZM293,99V87.33h1.51V99Z" transform="translate(-59.5 -22.5)"/><path class="cls-2" d="M301.55,89.7a2.78,2.78,0,0,0-2-1.2A1.46,1.46,0,0,0,298.06,90c0,2.27,3.8,2.68,3.8,5.83a3.15,3.15,0,0,1-3.17,3.27,3.61,3.61,0,0,1-2.19-.8V96.61a3,3,0,0,0,2.08,1.15A1.71,1.71,0,0,0,300.3,96c0-2.29-3.8-3.07-3.8-5.87a2.83,2.83,0,0,1,2.93-2.94,3.58,3.58,0,0,1,2.12.75Z" transform="translate(-59.5 -22.5)"/><path class="cls-2" d="M308.82,99l-3.68-5.56V99h-1.48V80h1.48V92.06l3-4.73h1.67l-3.39,5.2L310.7,99Z" transform="translate(-59.5 -22.5)"/><path class="cls-2" d="M315.77,89.7a2.78,2.78,0,0,0-2-1.2A1.46,1.46,0,0,0,312.28,90c0,2.27,3.81,2.68,3.81,5.83a3.16,3.16,0,0,1-3.17,3.27,3.64,3.64,0,0,1-2.2-.8V96.61a3,3,0,0,0,2.09,1.15,1.71,1.71,0,0,0,1.72-1.8c0-2.29-3.81-3.07-3.81-5.87a2.84,2.84,0,0,1,2.94-2.94,3.53,3.53,0,0,1,2.11.75Z" transform="translate(-59.5 -22.5)"/><path class="cls-2" d="M328.54,99V98a2.33,2.33,0,0,1-2,1.11c-2.7,0-2.78-3.71-2.78-5.77,0-2.36.08-6.21,2.91-6.21a2.19,2.19,0,0,1,1.88,1v-.78h1.51V99ZM327,88.32c-1.71,0-1.74,3-1.74,4.13,0,1,0,1.87.08,2.81s.26,2.68,1.64,2.68a1.2,1.2,0,0,0,.95-.39c.74-.73.74-3.46.74-4.47C328.7,90.76,328.57,88.32,327,88.32Z" transform="translate(-59.5 -22.5)"/><path class="cls-2" d="M337.29,99V90.5c0-.93,0-2.16-1.32-2.16a1.68,1.68,0,0,0-1.4.76,3.53,3.53,0,0,0-.4,2V99h-1.48V87.33h1.48v.94a3.11,3.11,0,0,1,2.3-1.12c2,0,2.3,1.61,2.3,3.2V99Z" transform="translate(-59.5 -22.5)"/><path class="cls-2" d="M345.78,99V98a2.38,2.38,0,0,1-2,1.11c-2.72,0-2.77-3.87-2.77-5.9,0-2.26,0-6.08,2.93-6.08a2.19,2.19,0,0,1,1.88,1V80h1.48V99Zm-1.53-10.63c-1.7,0-1.72,3-1.72,4.13,0,1,0,1.87.08,2.81s.23,2.68,1.61,2.68a1.26,1.26,0,0,0,1-.39c.71-.7.71-3.43.71-4.4C345.91,90.71,345.78,88.32,344.25,88.32Z" transform="translate(-59.5 -22.5)"/><path class="cls-2" d="M357.54,88.11a2.21,2.21,0,0,1,1.91-1c2.88,0,2.91,3.69,2.91,5.77,0,2.5-.08,6.21-2.78,6.21a2.51,2.51,0,0,1-2-1.11V99h-1.48V80h1.48Zm1.54.21c-1.54,0-1.67,2.44-1.67,4.76,0,1,0,3.74.74,4.47a1.22,1.22,0,0,0,1,.39c1.37,0,1.53-1.67,1.64-2.68s.07-1.82.07-2.73C360.82,91.36,360.8,88.32,359.08,88.32Z" transform="translate(-59.5 -22.5)"/><path class="cls-2" d="M370.53,95c-.08,1.87-.66,4.13-3,4.13-3,0-3.44-3.71-3.44-5.95s.45-6,3.33-6,3.2,3.51,3.2,5.56c0,.24,0,.5,0,.73h-5v.26c0,1.17.18,4.06,1.88,4.06,1.32,0,1.5-1.77,1.53-2.76Zm-1.38-2.81c0-1-.18-3.69-1.69-3.69s-1.77,2.63-1.82,3.69Z" transform="translate(-59.5 -22.5)"/><path class="cls-2" d="M377.43,99V90.5c0-.93,0-2.16-1.32-2.16a1.69,1.69,0,0,0-1.41.76,3.6,3.6,0,0,0-.39,2V99h-1.48V87.33h1.48v.94a3.1,3.1,0,0,1,2.3-1.12c2,0,2.3,1.61,2.3,3.2V99Z" transform="translate(-59.5 -22.5)"/><path class="cls-2" d="M387.53,95c-.08,1.87-.66,4.13-3,4.13-3,0-3.44-3.71-3.44-5.95s.45-6,3.33-6,3.2,3.51,3.2,5.56c0,.24,0,.5,0,.73h-5v.26c0,1.17.18,4.06,1.88,4.06,1.32,0,1.5-1.77,1.53-2.76Zm-1.38-2.81c0-1-.18-3.69-1.69-3.69s-1.77,2.63-1.82,3.69Z" transform="translate(-59.5 -22.5)"/><path class="cls-2" d="M391.76,88.68V99h-1.48V88.68h-1.35V87.33h1.35V82.68c0-1.49.39-3,2.19-3a3.34,3.34,0,0,1,1.32.26v1.61a1.75,1.75,0,0,0-1.08-.52c-.87,0-.95.78-.95,1.43v4.84h2v1.35Zm3.88-3.92a1.1,1.1,0,1,1,1.09-1.07A1.09,1.09,0,0,1,395.64,84.76ZM394.88,99V87.33h1.5V99Z" transform="translate(-59.5 -22.5)"/><path class="cls-2" d="M401,88.68V99h-1.48V88.68h-1.27V87.33h1.27V84H401v3.3h2v1.35Z" transform="translate(-59.5 -22.5)"/><path class="cls-2" d="M408.81,89.7a2.78,2.78,0,0,0-2-1.2A1.46,1.46,0,0,0,405.32,90c0,2.27,3.81,2.68,3.81,5.83A3.16,3.16,0,0,1,406,99.13a3.64,3.64,0,0,1-2.2-.8V96.61a3,3,0,0,0,2.09,1.15,1.71,1.71,0,0,0,1.72-1.8c0-2.29-3.81-3.07-3.81-5.87a2.84,2.84,0,0,1,2.94-2.94,3.53,3.53,0,0,1,2.11.75Z" transform="translate(-59.5 -22.5)"/><path class="cls-2" d="M94.87,130.15v-.93a2.34,2.34,0,0,1-2,1.11c-2.7,0-2.78-3.71-2.78-5.77,0-2.36.08-6.21,2.91-6.21a2.19,2.19,0,0,1,1.88,1v-.78h1.51v11.62Zm-1.51-10.63c-1.72,0-1.74,3-1.74,4.13,0,1,0,1.87.07,2.81s.27,2.68,1.64,2.68a1.22,1.22,0,0,0,1-.39c.74-.73.74-3.46.74-4.47C95,122,94.89,119.52,93.36,119.52Z" transform="translate(-59.5 -22.5)"/><path class="cls-2" d="M102.51,120c-2,0-2,1.56-2,3.07v7H99V118.53h1.48V120a2.43,2.43,0,0,1,2-1.69Z" transform="translate(-59.5 -22.5)"/><path class="cls-2" d="M110,126.2c-.08,1.87-.66,4.13-3,4.13-3,0-3.43-3.71-3.43-6s.45-6,3.33-6,3.2,3.51,3.2,5.56c0,.24,0,.5,0,.73h-5v.26c0,1.17.19,4.06,1.88,4.06,1.32,0,1.51-1.77,1.53-2.76Zm-1.37-2.81c-.06-1-.19-3.69-1.7-3.69s-1.77,2.63-1.82,3.69Z" transform="translate(-59.5 -22.5)"/><path class="cls-2" d="M120.38,119.88v10.27H118.9V119.88h-1.35v-1.35h1.35v-4.65c0-1.49.4-3,2.2-3a3.41,3.41,0,0,1,1.32.26v1.61a1.78,1.78,0,0,0-1.09-.52c-.87,0-1,.78-1,1.43v4.84h2v1.35Z" transform="translate(-59.5 -22.5)"/><path class="cls-2" d="M126.81,130.33c-3,0-3.47-3.74-3.47-6s.43-6,3.47-6,3.3,3.82,3.3,6.06S129.85,130.33,126.81,130.33Zm0-10.63c-1.82,0-1.88,3.54-1.88,4.76s.08,4.5,1.88,4.5,1.8-3.46,1.8-4.63S128.53,119.7,126.78,119.7Z" transform="translate(-59.5 -22.5)"/><path class="cls-2" d="M135.82,120c-2,0-2,1.56-2,3.07v7h-1.48V118.53h1.48V120a2.43,2.43,0,0,1,2-1.69Z" transform="translate(-59.5 -22.5)"/><path class="cls-2" d="M149.62,126.2c-.08,1.87-.66,4.13-3,4.13-3,0-3.44-3.71-3.44-6s.45-6,3.33-6,3.2,3.51,3.2,5.56c0,.24,0,.5,0,.73h-5v.26c0,1.17.18,4.06,1.87,4.06,1.33,0,1.51-1.77,1.54-2.76Zm-1.37-2.81c-.05-1-.19-3.69-1.69-3.69s-1.77,2.63-1.83,3.69Z" transform="translate(-59.5 -22.5)"/><path class="cls-2" d="M156.13,130.15l-1.3-3.3a13.92,13.92,0,0,1-.58-1.72,10.6,10.6,0,0,1-.53,1.75l-1.27,3.27h-1.66l2.69-6-2.4-5.67h1.64a39.92,39.92,0,0,1,1.66,4.91,27.88,27.88,0,0,1,1.75-4.91h1.66l-2.64,5.67,2.64,6Z" transform="translate(-59.5 -22.5)"/><path class="cls-2" d="M163.58,130.15v-.93a2.32,2.32,0,0,1-2,1.11c-2.69,0-2.77-3.71-2.77-5.77,0-2.36.08-6.21,2.91-6.21a2.17,2.17,0,0,1,1.87,1v-.78h1.51v11.62Zm-1.5-10.63c-1.72,0-1.75,3-1.75,4.13,0,1,0,1.87.08,2.81s.27,2.68,1.64,2.68a1.18,1.18,0,0,0,.95-.39c.74-.73.74-3.46.74-4.47C163.74,122,163.61,119.52,162.08,119.52Z" transform="translate(-59.5 -22.5)"/><path class="cls-2" d="M178.52,130.15H177v-8.6c0-1-.16-2-1.37-2-1.72,0-1.8,1.9-1.8,3.18v7.43h-1.51v-8.58c0-.86-.08-2-1.24-2-1.85,0-1.9,2.06-1.9,3.41v7.2h-1.49V118.53h1.49v1a3.15,3.15,0,0,1,2.3-1.14,2.31,2.31,0,0,1,2.16,1.35,2.9,2.9,0,0,1,2.44-1.35c1.9,0,2.4,1.22,2.4,2.88Z" transform="translate(-59.5 -22.5)"/><path class="cls-2" d="M182.57,119.31a2.15,2.15,0,0,1,1.88-1c2.9,0,2.93,3.66,2.93,5.77,0,2.5-.08,6.21-2.78,6.21a2.47,2.47,0,0,1-2-1.11v5.61h-1.48v-16.3h1.48Zm1.53.21c-1.53,0-1.66,2.44-1.66,4.76,0,1,0,3.74.74,4.47a1.18,1.18,0,0,0,.95.39c1.37,0,1.53-1.67,1.64-2.68s.08-1.82.08-2.73C185.85,122.56,185.82,119.52,184.1,119.52Z" transform="translate(-59.5 -22.5)"/><path class="cls-2" d="M189.57,130.15v-19h1.51v19Z" transform="translate(-59.5 -22.5)"/><path class="cls-2" d="M199.7,126.2c-.08,1.87-.66,4.13-3,4.13-3,0-3.43-3.71-3.43-6s.45-6,3.33-6,3.2,3.51,3.2,5.56c0,.24,0,.5,0,.73h-5v.26c0,1.17.19,4.06,1.88,4.06,1.32,0,1.51-1.77,1.53-2.76Zm-1.37-2.81c-.06-1-.19-3.69-1.7-3.69s-1.77,2.63-1.82,3.69Z" transform="translate(-59.5 -22.5)"/><path class="cls-2" d="M213,130.15v-1.32a2.55,2.55,0,0,1-2.2,1.56c-2.72,0-3.2-4.11-3.2-6.09s.4-6,3.18-6A2.48,2.48,0,0,1,213,120V111.2h3.3v19Zm-.9-8.92c-1.09,0-1.17,2.4-1.17,3.12s.08,3.12,1.19,3.12,1.12-2.41,1.12-3.12S213.11,121.23,212.05,121.23Z" transform="translate(-59.5 -22.5)"/><path class="cls-2" d="M220.09,116.79a2.06,2.06,0,1,1,2.08-2.06A2.06,2.06,0,0,1,220.09,116.79Zm-1.67,13.36V118.53h3.31v11.62Z" transform="translate(-59.5 -22.5)"/><path class="cls-2" d="M229.34,121.68a2.25,2.25,0,0,0-1.56-.78.8.8,0,0,0-.85.83c0,1.4,3.71,1.12,3.71,4.63,0,2.21-1.35,4-3.73,4a5.8,5.8,0,0,1-3.6-1.33l1.46-2.31a2.52,2.52,0,0,0,1.61.72,1,1,0,0,0,1.06-1c0-1.45-3.86-1.25-3.86-4.76,0-2.23,1.82-3.43,3.94-3.43a5,5,0,0,1,3.14,1Z" transform="translate(-59.5 -22.5)"/><path class="cls-2" d="M238,130a4.29,4.29,0,0,1-1.88.42c-3.18,0-4.31-3.28-4.31-5.91,0-2.83,1.08-6.18,4.52-6.18a4.18,4.18,0,0,1,1.67.33v2.86a1.27,1.27,0,0,0-.93-.39c-1.59,0-1.93,2-1.93,3.15s.26,3.09,1.88,3.09a1.77,1.77,0,0,0,1-.33Z" transform="translate(-59.5 -22.5)"/><path class="cls-2" d="M245.6,121.26a2.61,2.61,0,0,0-.48-.05c-2,0-2.24,1.09-2.24,2.78v6.16h-3.31V118.53h3.31V120a3.62,3.62,0,0,1,2.72-1.85Z" transform="translate(-59.5 -22.5)"/><path class="cls-2" d="M248.64,116.79a2.06,2.06,0,1,1,2.09-2.06A2.06,2.06,0,0,1,248.64,116.79ZM247,130.15V118.53h3.31v11.62Z" transform="translate(-59.5 -22.5)"/><path class="cls-2" d="M262.36,130.15v-7c0-.54-.05-1.63-.84-1.63-1,0-.85,1.37-.85,2v6.58h-3.3V123c0-.52,0-1.35-.77-1.35-.93,0-.93,1.12-.93,1.77v6.78h-3.3V118.53h3.3v1.87a3.44,3.44,0,0,1,2.94-2.08c1.27,0,1.8.89,2.06,2a3.43,3.43,0,0,1,2.8-2c1.91,0,2.2,1.69,2.2,3.2v8.63Z" transform="translate(-59.5 -22.5)"/><path class="cls-2" d="M269.47,116.79a2.06,2.06,0,1,1,2.09-2.06A2.06,2.06,0,0,1,269.47,116.79Zm-1.66,13.36V118.53h3.3v11.62Z" transform="translate(-59.5 -22.5)"/><path class="cls-2" d="M278.2,130.15V123c0-.52,0-1.46-.79-1.46-1,0-.9,1.2-.9,1.85v6.73H273.2V118.53h3.31v1.82a3.17,3.17,0,0,1,2.8-2c2,0,2.2,1.87,2.2,3.43v8.4Z" transform="translate(-59.5 -22.5)"/><path class="cls-2" d="M288.67,130.15v-1.32a2.54,2.54,0,0,1-2.19,1.56c-2.73,0-3.2-4.11-3.2-6.09s.39-6,3.17-6a2.47,2.47,0,0,1,2.22,1.64v-1.43H292v11.62Zm-.9-8.92c-1.08,0-1.16,2.4-1.16,3.12s.08,3.12,1.19,3.12,1.11-2.41,1.11-3.12S288.83,121.23,287.77,121.23Z" transform="translate(-59.5 -22.5)"/><path class="cls-2" d="M297.71,121.23v8.92h-3.3v-8.92h-1.14v-2.7h1.14v-3.3h3.3v3.3h1.35v2.7Z" transform="translate(-59.5 -22.5)"/><path class="cls-2" d="M301.89,116.79a2.06,2.06,0,1,1,2.09-2.06A2.06,2.06,0,0,1,301.89,116.79Zm-1.67,13.36V118.53h3.31v11.62Z" transform="translate(-59.5 -22.5)"/><path class="cls-2" d="M309.77,130.39c-3.39,0-4.5-3.23-4.5-6s1.11-6,4.5-6,4.44,3.15,4.44,6S313.26,130.39,309.77,130.39Zm0-9.16c-1.08,0-1.16,2.37-1.16,3.12s.08,3.12,1.16,3.12,1.11-2.41,1.11-3.12S310.8,121.23,309.77,121.23Z" transform="translate(-59.5 -22.5)"/><path class="cls-2" d="M321,130.15V123c0-.52,0-1.46-.79-1.46-.95,0-.9,1.2-.9,1.85v6.73H316V118.53h3.31v1.82a3.17,3.17,0,0,1,2.8-2c2,0,2.2,1.87,2.2,3.43v8.4Z" transform="translate(-59.5 -22.5)"/><path class="cls-2" d="M337.32,130.15v-.93a2.33,2.33,0,0,1-2,1.11c-2.7,0-2.78-3.71-2.78-5.77,0-2.36.08-6.21,2.91-6.21a2.19,2.19,0,0,1,1.88,1v-.78h1.51v11.62Zm-1.51-10.63c-1.72,0-1.74,3-1.74,4.13,0,1,0,1.87.08,2.81s.26,2.68,1.64,2.68a1.21,1.21,0,0,0,.95-.39c.74-.73.74-3.46.74-4.47C337.48,122,337.35,119.52,335.81,119.52Z" transform="translate(-59.5 -22.5)"/><path class="cls-2" d="M346.07,130.15V121.7c0-.93,0-2.16-1.32-2.16a1.66,1.66,0,0,0-1.4.76,3.53,3.53,0,0,0-.4,2v7.82h-1.48V118.53H343v.94a3.11,3.11,0,0,1,2.3-1.12c2,0,2.3,1.61,2.3,3.2v8.6Z" transform="translate(-59.5 -22.5)"/><path class="cls-2" d="M354.56,130.15v-.93a2.38,2.38,0,0,1-2,1.11c-2.72,0-2.77-3.87-2.77-5.9,0-2.26,0-6.08,2.93-6.08a2.19,2.19,0,0,1,1.88,1V111.2H356v19ZM353,119.52c-1.69,0-1.71,3-1.71,4.13,0,1,0,1.87.07,2.81s.24,2.68,1.62,2.68a1.27,1.27,0,0,0,1-.39c.71-.7.71-3.43.71-4.4C354.69,121.91,354.56,119.52,353,119.52Z" transform="translate(-59.5 -22.5)"/><path class="cls-2" d="M370.82,126.2c-.08,1.87-.66,4.13-3,4.13-3,0-3.44-3.71-3.44-6s.45-6,3.34-6,3.2,3.51,3.2,5.56c0,.24,0,.5,0,.73h-5v.26c0,1.17.19,4.06,1.88,4.06,1.32,0,1.51-1.77,1.53-2.76Zm-1.37-2.81c-.06-1-.19-3.69-1.7-3.69s-1.77,2.63-1.82,3.69Z" transform="translate(-59.5 -22.5)"/><path class="cls-2" d="M375.05,119.88v10.27h-1.48V119.88h-1.35v-1.35h1.35v-4.65c0-1.49.39-3,2.19-3a3.43,3.43,0,0,1,1.33.26v1.61a1.8,1.8,0,0,0-1.09-.52c-.87,0-.95.78-.95,1.43v4.84h2v1.35Z" transform="translate(-59.5 -22.5)"/><path class="cls-2" d="M380.44,119.88v10.27H379V119.88h-1.35v-1.35H379v-4.65c0-1.49.4-3,2.2-3a3.34,3.34,0,0,1,1.32.26v1.61a1.78,1.78,0,0,0-1.09-.52c-.87,0-.95.78-.95,1.43v4.84h2v1.35Zm3.89-3.92a1.1,1.1,0,1,1,1.08-1.07A1.08,1.08,0,0,1,384.33,116Zm-.77,14.19V118.53h1.51v11.62Z" transform="translate(-59.5 -22.5)"/><path class="cls-2" d="M392.42,129.74a2.93,2.93,0,0,1-1.69.59c-2.78,0-3.41-3.71-3.41-5.79s.47-6.19,3.49-6.19a3.22,3.22,0,0,1,1.61.44v1.72a2.11,2.11,0,0,0-1.48-.81c-1.88,0-2.06,3.41-2.06,4.71s.24,4.55,2,4.55a2,2,0,0,0,1.51-1Z" transform="translate(-59.5 -22.5)"/><path class="cls-2" d="M395,116a1.1,1.1,0,1,1,1.08-1.07A1.08,1.08,0,0,1,395,116Zm-.77,14.19V118.53h1.51v11.62Z" transform="translate(-59.5 -22.5)"/><path class="cls-2" d="M404.34,126.2c-.08,1.87-.66,4.13-3,4.13-3,0-3.44-3.71-3.44-6s.45-6,3.33-6,3.2,3.51,3.2,5.56c0,.24,0,.5,0,.73h-5v.26c0,1.17.18,4.06,1.87,4.06,1.32,0,1.51-1.77,1.54-2.76ZM403,123.39c-.05-1-.19-3.69-1.69-3.69s-1.78,2.63-1.83,3.69Z" transform="translate(-59.5 -22.5)"/><path class="cls-2" d="M411.25,130.15V121.7c0-.93,0-2.16-1.33-2.16a1.68,1.68,0,0,0-1.4.76,3.53,3.53,0,0,0-.4,2v7.82h-1.48V118.53h1.48v.94a3.13,3.13,0,0,1,2.31-1.12c2,0,2.3,1.61,2.3,3.2v8.6Z" transform="translate(-59.5 -22.5)"/><path class="cls-2" d="M420,129.74a2.91,2.91,0,0,1-1.69.59c-2.78,0-3.41-3.71-3.41-5.79s.48-6.19,3.49-6.19a3.2,3.2,0,0,1,1.61.44v1.72a2.09,2.09,0,0,0-1.48-.81c-1.87,0-2.06,3.41-2.06,4.71s.24,4.55,2,4.55a2,2,0,0,0,1.5-1Z" transform="translate(-59.5 -22.5)"/><path class="cls-2" d="M424.23,134.83h-1.59l1.32-5-2.8-11.31h1.51l1.48,6.45c.23,1,.42,2,.55,2.91.11-.73.29-1.43.48-2.18l1.72-7.18h1.56Z" transform="translate(-59.5 -22.5)"/><path class="cls-2" d="M430.25,130.33a1.21,1.21,0,0,1-1.19-1.17,1.19,1.19,0,1,1,1.19,1.17Z" transform="translate(-59.5 -22.5)"/><path class="cls-2" d="M96.16,161.35v-8.94h-4v8.94H90.5V144h1.64v6.91h4V144H97.8v17.34Z" transform="translate(-59.5 -22.5)"/><path class="cls-2" d="M103.57,161.53c-3,0-3.47-3.74-3.47-6s.43-6,3.47-6,3.3,3.82,3.3,6S106.61,161.53,103.57,161.53Zm0-10.63c-1.82,0-1.88,3.53-1.88,4.76s.08,4.49,1.88,4.49,1.8-3.45,1.8-4.62S105.29,150.9,103.54,150.9Z" transform="translate(-59.5 -22.5)"/><path class="cls-2" d="M112.11,161.35h-1.62l-2.69-11.62h1.53l1.56,6.94a24.15,24.15,0,0,1,.42,2.5c.14-.81.27-1.64.43-2.45l1.45-7h1.53Z" transform="translate(-59.5 -22.5)"/><path class="cls-2" d="M122,157.4c-.08,1.87-.66,4.13-3,4.13-3,0-3.43-3.72-3.43-5.95s.45-6,3.33-6,3.2,3.51,3.2,5.56c0,.24,0,.49,0,.73h-5v.26c0,1.17.19,4.05,1.88,4.05,1.32,0,1.51-1.76,1.53-2.75Zm-1.37-2.81c-.06-1-.19-3.69-1.7-3.69s-1.77,2.62-1.82,3.69Z" transform="translate(-59.5 -22.5)"/><path class="cls-2" d="M127.81,151.24c-2,0-2,1.56-2,3.07v7h-1.48V149.73h1.48v1.51a2.43,2.43,0,0,1,2-1.69Z" transform="translate(-59.5 -22.5)"/><path class="cls-2" d="M138.65,161.53c-3,0-3.46-3.74-3.46-6s.42-6,3.46-6,3.31,3.82,3.31,6S141.69,161.53,138.65,161.53Zm0-10.63c-1.82,0-1.87,3.53-1.87,4.76s.08,4.49,1.87,4.49,1.8-3.45,1.8-4.62S140.37,150.9,138.62,150.9Z" transform="translate(-59.5 -22.5)"/><path class="cls-2" d="M147.19,161.35h-1.61l-2.7-11.62h1.54l1.56,6.94c.18.83.31,1.67.42,2.5.13-.81.26-1.64.42-2.45l1.46-7h1.53Z" transform="translate(-59.5 -22.5)"/><path class="cls-2" d="M157.11,157.4c-.08,1.87-.66,4.13-3,4.13-3,0-3.44-3.72-3.44-5.95s.45-6,3.33-6,3.2,3.51,3.2,5.56c0,.24,0,.49,0,.73h-5v.26c0,1.17.18,4.05,1.88,4.05,1.32,0,1.5-1.76,1.53-2.75Zm-1.38-2.81c0-1-.18-3.69-1.69-3.69s-1.77,2.62-1.82,3.69Z" transform="translate(-59.5 -22.5)"/><path class="cls-2" d="M162.9,151.24c-2,0-2,1.56-2,3.07v7h-1.48V149.73h1.48v1.51a2.42,2.42,0,0,1,2-1.69Z" transform="translate(-59.5 -22.5)"/><path class="cls-2" d="M172.65,151.08v10.27h-1.48V151.08H169.9v-1.35h1.27v-3.3h1.48v3.3h2v1.35Z" transform="translate(-59.5 -22.5)"/><path class="cls-2" d="M180.58,161.35V152.9c0-.94,0-2.16-1.32-2.16a1.68,1.68,0,0,0-1.4.76,3.56,3.56,0,0,0-.4,2v7.83H176V142.4h1.48v8.26a3.16,3.16,0,0,1,2.31-1.11c1.93,0,2.3,1.35,2.3,3v8.81Z" transform="translate(-59.5 -22.5)"/><path class="cls-2" d="M190.4,157.4c-.08,1.87-.67,4.13-3,4.13-3,0-3.44-3.72-3.44-5.95s.45-6,3.33-6,3.2,3.51,3.2,5.56c0,.24,0,.49,0,.73h-5v.26c0,1.17.18,4.05,1.87,4.05,1.33,0,1.51-1.76,1.54-2.75ZM189,154.59c-.05-1-.19-3.69-1.69-3.69s-1.77,2.62-1.83,3.69Z" transform="translate(-59.5 -22.5)"/><path class="cls-2" d="M203.35,161.35v-.93a2.33,2.33,0,0,1-2,1.11c-2.7,0-2.78-3.72-2.78-5.77,0-2.37.08-6.21,2.91-6.21a2.19,2.19,0,0,1,1.88,1v-.78h1.51v11.62Zm-1.51-10.63c-1.72,0-1.74,3-1.74,4.13,0,1,0,1.87.08,2.81s.26,2.68,1.64,2.68a1.21,1.21,0,0,0,1-.39c.74-.73.74-3.46.74-4.48C203.51,153.16,203.38,150.72,201.84,150.72Z" transform="translate(-59.5 -22.5)"/><path class="cls-2" d="M211,151.24c-2,0-2,1.56-2,3.07v7H207.5V149.73H209v1.51a2.43,2.43,0,0,1,2-1.69Z" transform="translate(-59.5 -22.5)"/><path class="cls-2" d="M218.47,157.4c-.08,1.87-.66,4.13-3,4.13-3.05,0-3.44-3.72-3.44-5.95s.45-6,3.33-6,3.2,3.51,3.2,5.56c0,.24,0,.49,0,.73h-5v.26c0,1.17.19,4.05,1.88,4.05,1.32,0,1.51-1.76,1.54-2.75Zm-1.37-2.81c-.06-1-.19-3.69-1.69-3.69s-1.78,2.62-1.83,3.69Z" transform="translate(-59.5 -22.5)"/><path class="cls-2" d="M225.27,161.35v-.93a2.34,2.34,0,0,1-2,1.11c-2.7,0-2.78-3.72-2.78-5.77,0-2.37.08-6.21,2.91-6.21a2.19,2.19,0,0,1,1.88,1v-.78h1.51v11.62Zm-1.51-10.63c-1.72,0-1.74,3-1.74,4.13,0,1,0,1.87.07,2.81s.27,2.68,1.64,2.68a1.22,1.22,0,0,0,1-.39c.74-.73.74-3.46.74-4.48C225.43,153.16,225.29,150.72,223.76,150.72Z" transform="translate(-59.5 -22.5)"/><path class="cls-2" d="M242.9,147.93a4,4,0,0,0-2.51-1.11,1.62,1.62,0,0,0-1.74,1.69c0,3,5.29,2.93,5.29,7.77,0,3-1.83,5.36-5,5.36a5.46,5.46,0,0,1-3-.89v-3.27a4.66,4.66,0,0,0,2.59.93,1.89,1.89,0,0,0,2.06-1.92,2.12,2.12,0,0,0-.18-.89,5.64,5.64,0,0,0-1.88-1.61c-2-1.35-3.25-2.6-3.25-5.12,0-2.73,1.61-5.12,4.6-5.12a5.88,5.88,0,0,1,3.09.83Z" transform="translate(-59.5 -22.5)"/><path class="cls-2" d="M253.93,157.58a3.58,3.58,0,0,1-.56,2.21,4.34,4.34,0,0,1-3.62,1.8,4.28,4.28,0,0,1-3.62-1.82,3.53,3.53,0,0,1-.48-2v-8H249v7.15c0,.57,0,1.69.82,1.69,1,0,.82-1.56.82-2.18v-6.66h3.33Z" transform="translate(-59.5 -22.5)"/><path class="cls-2" d="M259.35,151.16a2.47,2.47,0,0,1,2.22-1.64c2.78,0,3.17,3.95,3.17,6s-.47,6.09-3.2,6.09a2.53,2.53,0,0,1-2.19-1.57v1.33H256V142.4h3.31Zm.87,1.27c-1,0-1.11,2.42-1.11,3.12s.08,3.12,1.14,3.12,1.16-2.39,1.16-3.12S261.33,152.43,260.22,152.43Z" transform="translate(-59.5 -22.5)"/><path class="cls-2" d="M268.23,148a2.06,2.06,0,1,1,2.09-2.06A2.06,2.06,0,0,1,268.23,148Zm-1.66,18.72v-17h3.3v17Z" transform="translate(-59.5 -22.5)"/><path class="cls-2" d="M279.87,157.35a5.27,5.27,0,0,1-1.27,3.33,3.37,3.37,0,0,1-2.57.91,3.7,3.7,0,0,1-2.83-1,6.4,6.4,0,0,1-1.61-4.71,7.45,7.45,0,0,1,1.72-5.25,3.68,3.68,0,0,1,2.7-1.07,3.51,3.51,0,0,1,2.53.94,6.37,6.37,0,0,1,1.54,4.52,9,9,0,0,1-.08,1.14h-5.24c0,.19,0,.42,0,.65a3.41,3.41,0,0,0,.47,2.06.91.91,0,0,0,.69.31,1,1,0,0,0,.66-.21,2.69,2.69,0,0,0,.5-1.58Zm-2.67-3.23a2.94,2.94,0,0,0-.53-1.9,1.06,1.06,0,0,0-.61-.23,1.07,1.07,0,0,0-.74.31,3.11,3.11,0,0,0-.5,1.82Z" transform="translate(-59.5 -22.5)"/><path class="cls-2" d="M287.67,161.17a4.44,4.44,0,0,1-1.88.42c-3.18,0-4.31-3.28-4.31-5.91,0-2.83,1.08-6.19,4.52-6.19a4.19,4.19,0,0,1,1.67.34v2.86a1.27,1.27,0,0,0-.93-.39c-1.59,0-1.93,1.95-1.93,3.15s.26,3.09,1.88,3.09a1.71,1.71,0,0,0,1-.34Z" transform="translate(-59.5 -22.5)"/><path class="cls-2" d="M293.43,152.43v8.92h-3.31v-8.92H289v-2.7h1.13v-3.3h3.31v3.3h1.35v2.7Z" transform="translate(-59.5 -22.5)"/><path class="cls-2" d="M297.61,148a2.06,2.06,0,1,1,2.09-2.06A2.06,2.06,0,0,1,297.61,148Zm-1.67,13.36V149.73h3.31v11.62Z" transform="translate(-59.5 -22.5)"/><path class="cls-2" d="M306.62,161.35h-3l-3.38-11.62h3.25c.55,2.18,1.16,4.37,1.61,6.58.08-.5.24-1,.35-1.43l1.21-5.15h3.44Z" transform="translate(-59.5 -22.5)"/><path class="cls-2" d="M318.65,157.35a5.21,5.21,0,0,1-1.27,3.33,3.35,3.35,0,0,1-2.56.91,3.7,3.7,0,0,1-2.83-1,6.4,6.4,0,0,1-1.61-4.71,7.45,7.45,0,0,1,1.72-5.25,3.66,3.66,0,0,1,2.69-1.07,3.53,3.53,0,0,1,2.54.94,6.42,6.42,0,0,1,1.54,4.52,9,9,0,0,1-.08,1.14h-5.24a4.43,4.43,0,0,0,0,.65,3.41,3.41,0,0,0,.48,2.06.88.88,0,0,0,.69.31,1.06,1.06,0,0,0,.66-.21,2.76,2.76,0,0,0,.5-1.58ZM316,154.12a2.94,2.94,0,0,0-.53-1.9,1,1,0,0,0-.6-.23,1,1,0,0,0-.74.31,3.11,3.11,0,0,0-.51,1.82Z" transform="translate(-59.5 -22.5)"/><path class="cls-2" d="M331.32,144a5.47,5.47,0,0,1,3,.57,5.13,5.13,0,0,1,2.4,4.58c0,3.64-2.61,5.33-6.1,5.07v7.12h-3.49V144Zm-.53,7.33c1.59,0,2.43-.55,2.43-2.21,0-1.38-.47-2.34-2-2.34h-.6v4.55Z" transform="translate(-59.5 -22.5)"/><path class="cls-2" d="M345.73,157.35a5.27,5.27,0,0,1-1.27,3.33,3.37,3.37,0,0,1-2.57.91,3.71,3.71,0,0,1-2.83-1,6.44,6.44,0,0,1-1.61-4.71,7.45,7.45,0,0,1,1.72-5.25,3.68,3.68,0,0,1,2.7-1.07,3.55,3.55,0,0,1,2.54.94,6.41,6.41,0,0,1,1.53,4.52,9,9,0,0,1-.08,1.14h-5.24c0,.19,0,.42,0,.65a3.41,3.41,0,0,0,.47,2.06.91.91,0,0,0,.69.31,1,1,0,0,0,.66-.21,2.69,2.69,0,0,0,.5-1.58Zm-2.67-3.23a2.94,2.94,0,0,0-.53-1.9,1,1,0,0,0-.61-.23,1.09,1.09,0,0,0-.74.31,3.18,3.18,0,0,0-.5,1.82Z" transform="translate(-59.5 -22.5)"/><path class="cls-2" d="M353.71,152.46a2.59,2.59,0,0,0-.47-.05c-2,0-2.25,1.09-2.25,2.78v6.16h-3.31V149.73H351v1.43a3.62,3.62,0,0,1,2.72-1.85Z" transform="translate(-59.5 -22.5)"/><path class="cls-2" d="M360.82,161.17a4.36,4.36,0,0,1-1.87.42c-3.18,0-4.31-3.28-4.31-5.91,0-2.83,1.08-6.19,4.52-6.19a4.11,4.11,0,0,1,1.66.34v2.86a1.23,1.23,0,0,0-.92-.39c-1.59,0-1.93,1.95-1.93,3.15s.26,3.09,1.88,3.09a1.68,1.68,0,0,0,1-.34Z" transform="translate(-59.5 -22.5)"/><path class="cls-2" d="M370.32,157.35a5.27,5.27,0,0,1-1.27,3.33,3.37,3.37,0,0,1-2.57.91,3.7,3.7,0,0,1-2.83-1,6.4,6.4,0,0,1-1.61-4.71,7.45,7.45,0,0,1,1.72-5.25,3.68,3.68,0,0,1,2.7-1.07,3.55,3.55,0,0,1,2.54.94,6.41,6.41,0,0,1,1.53,4.52,9,9,0,0,1-.08,1.14h-5.24c0,.19,0,.42,0,.65a3.41,3.41,0,0,0,.47,2.06.91.91,0,0,0,.69.31,1,1,0,0,0,.66-.21,2.69,2.69,0,0,0,.5-1.58Zm-2.67-3.23a2.94,2.94,0,0,0-.53-1.9,1.06,1.06,0,0,0-.61-.23,1.07,1.07,0,0,0-.74.31,3.11,3.11,0,0,0-.5,1.82Z" transform="translate(-59.5 -22.5)"/><path class="cls-2" d="M375.58,151.16a2.46,2.46,0,0,1,2.22-1.64c2.78,0,3.17,3.95,3.17,6s-.47,6.09-3.2,6.09a2.52,2.52,0,0,1-2.19-1.57v6.69h-3.31v-17h3.31Zm.87,1.27c-1,0-1.11,2.42-1.11,3.12s.08,3.12,1.14,3.12,1.16-2.39,1.16-3.12S377.56,152.43,376.45,152.43Z" transform="translate(-59.5 -22.5)"/><path class="cls-2" d="M386.37,152.43v8.92h-3.31v-8.92h-1.14v-2.7h1.14v-3.3h3.31v3.3h1.34v2.7Z" transform="translate(-59.5 -22.5)"/><path class="cls-2" d="M390.54,148a2.06,2.06,0,1,1,2.09-2.06A2.06,2.06,0,0,1,390.54,148Zm-1.66,13.36V149.73h3.3v11.62Z" transform="translate(-59.5 -22.5)"/><path class="cls-2" d="M398.42,161.59c-3.38,0-4.49-3.23-4.49-6s1.11-6,4.49-6,4.44,3.15,4.44,6S401.91,161.59,398.42,161.59Zm0-9.16c-1.08,0-1.16,2.37-1.16,3.12s.08,3.12,1.16,3.12,1.11-2.41,1.11-3.12S399.45,152.43,398.42,152.43Z" transform="translate(-59.5 -22.5)"/><path class="cls-2" d="M409.63,161.35v-7.12c0-.52,0-1.46-.79-1.46-.95,0-.9,1.2-.9,1.85v6.73h-3.31V149.73h3.31v1.82a3.17,3.17,0,0,1,2.8-2c2,0,2.2,1.87,2.2,3.43v8.4Z" transform="translate(-59.5 -22.5)"/><path class="cls-2" d="M93.92,178.41v3.69h3.2v3.3h-3.2v7.15H90.43V175.21h7v3.2Z" transform="translate(-59.5 -22.5)"/><path class="cls-2" d="M104.23,192.55v-1.33a2.54,2.54,0,0,1-2.2,1.57c-2.72,0-3.2-4.11-3.2-6.09s.4-6,3.18-6a2.47,2.47,0,0,1,2.22,1.64v-1.43h3.3v11.62Zm-.9-8.92c-1.09,0-1.16,2.39-1.16,3.12s.07,3.12,1.19,3.12,1.11-2.42,1.11-3.12S104.39,183.63,103.33,183.63Z" transform="translate(-59.5 -22.5)"/><path class="cls-2" d="M115.49,192.37a4.23,4.23,0,0,1-1.88.42c-3.17,0-4.31-3.28-4.31-5.91,0-2.83,1.09-6.19,4.53-6.19a4.11,4.11,0,0,1,1.66.34v2.86a1.23,1.23,0,0,0-.92-.39c-1.59,0-1.93,1.95-1.93,3.15s.26,3.09,1.87,3.09a1.69,1.69,0,0,0,1-.34Z" transform="translate(-59.5 -22.5)"/><path class="cls-2" d="M118.8,179.19a2.06,2.06,0,1,1,2.08-2.06A2.06,2.06,0,0,1,118.8,179.19Zm-1.67,13.36V180.93h3.31v11.62Z" transform="translate(-59.5 -22.5)"/><path class="cls-2" d="M127.57,192.55v-1.33a2.52,2.52,0,0,1-2.19,1.57c-2.72,0-3.2-4.11-3.2-6.09s.4-6,3.17-6a2.46,2.46,0,0,1,2.22,1.64v-1.43h3.31v11.62Zm-.89-8.92c-1.09,0-1.17,2.39-1.17,3.12s.08,3.12,1.19,3.12,1.11-2.42,1.11-3.12S127.73,183.63,126.68,183.63Z" transform="translate(-59.5 -22.5)"/><path class="cls-2" d="M133,192.55v-19h3.31v19Z" transform="translate(-59.5 -22.5)"/><path class="cls-2" d="M151.48,192.55l-3.1-8v8h-3.49V175.21h3.78a7,7,0,0,1,3.84.83,5,5,0,0,1,2.09,4.21,4.77,4.77,0,0,1-2.52,4.42l3.07,7.88Zm-3.1-9.88a3.82,3.82,0,0,0,.58,0,2.15,2.15,0,0,0,2.25-2.42c0-1.41-.63-2.37-2.17-2.37h-.66Z" transform="translate(-59.5 -22.5)"/><path class="cls-2" d="M164.56,188.55a5.21,5.21,0,0,1-1.27,3.33,3.35,3.35,0,0,1-2.56.91,3.7,3.7,0,0,1-2.83-1,6.4,6.4,0,0,1-1.61-4.71,7.45,7.45,0,0,1,1.72-5.25,3.66,3.66,0,0,1,2.69-1.07,3.53,3.53,0,0,1,2.54.94,6.42,6.42,0,0,1,1.53,4.52,8.94,8.94,0,0,1-.07,1.14h-5.24a4.43,4.43,0,0,0,0,.65,3.41,3.41,0,0,0,.48,2.06.88.88,0,0,0,.69.31,1.06,1.06,0,0,0,.66-.21,2.76,2.76,0,0,0,.5-1.58Zm-2.67-3.23a2.89,2.89,0,0,0-.53-1.89,1,1,0,0,0-.6-.24,1,1,0,0,0-.74.31,3.11,3.11,0,0,0-.51,1.82Z" transform="translate(-59.5 -22.5)"/><path class="cls-2" d="M172.36,192.37a4.22,4.22,0,0,1-1.87.42c-3.18,0-4.32-3.28-4.32-5.91,0-2.83,1.09-6.19,4.53-6.19a4.11,4.11,0,0,1,1.66.34v2.86a1.23,1.23,0,0,0-.92-.39c-1.59,0-1.93,1.95-1.93,3.15s.26,3.09,1.87,3.09a1.69,1.69,0,0,0,1-.34Z" transform="translate(-59.5 -22.5)"/><path class="cls-2" d="M178.1,192.79c-3.38,0-4.5-3.23-4.5-6s1.12-6,4.5-6,4.44,3.15,4.44,6S181.59,192.79,178.1,192.79Zm0-9.16c-1.08,0-1.16,2.37-1.16,3.12s.08,3.12,1.16,3.12,1.11-2.42,1.11-3.12S179.13,183.63,178.1,183.63Z" transform="translate(-59.5 -22.5)"/><path class="cls-2" d="M192.8,193.28a5.34,5.34,0,0,1-.34,2.21,4.31,4.31,0,0,1-4.23,2.42c-2.83,0-3.94-1.64-4.16-4H187c.06.57.27,1.4,1.22,1.4,1.24,0,1.27-1.59,1.27-2.47V191.1c-.53.85-1.09,1.69-2.22,1.69-2.67,0-3.31-4-3.31-5.93s.4-6.14,3.18-6.14a2.69,2.69,0,0,1,2.35,1.61v-1.4h3.33Zm-4.31-9.65c-1.11,0-1.19,2.34-1.19,3.1s.08,3.09,1.19,3.09,1.14-2.39,1.14-3.09S189.52,183.63,188.49,183.63Z" transform="translate(-59.5 -22.5)"/><path class="cls-2" d="M199.91,192.55v-7.12c0-.52,0-1.46-.79-1.46-1,0-.9,1.2-.9,1.85v6.73h-3.3V180.93h3.3v1.82a3.17,3.17,0,0,1,2.8-2c2,0,2.2,1.87,2.2,3.43v8.4Z" transform="translate(-59.5 -22.5)"/><path class="cls-2" d="M207.05,179.19a2.06,2.06,0,1,1,2.09-2.06A2.06,2.06,0,0,1,207.05,179.19Zm-1.67,13.36V180.93h3.31v11.62Z" transform="translate(-59.5 -22.5)"/><path class="cls-2" d="M214.4,183.63v8.92h-3.3v-8.92H210v-2.7h1.14v-3.3h3.3v3.3h1.35v2.7Z" transform="translate(-59.5 -22.5)"/><path class="cls-2" d="M218.58,179.19a2.06,2.06,0,1,1,2.09-2.06A2.06,2.06,0,0,1,218.58,179.19Zm-1.67,13.36V180.93h3.31v11.62Z" transform="translate(-59.5 -22.5)"/><path class="cls-2" d="M226.46,192.79c-3.39,0-4.5-3.23-4.5-6s1.11-6,4.5-6,4.44,3.15,4.44,6S230,192.79,226.46,192.79Zm0-9.16c-1.09,0-1.17,2.37-1.17,3.12s.08,3.12,1.17,3.12,1.11-2.42,1.11-3.12S227.49,183.63,226.46,183.63Z" transform="translate(-59.5 -22.5)"/><path class="cls-2" d="M237.67,192.55v-7.12c0-.52,0-1.46-.79-1.46-1,0-.9,1.2-.9,1.85v6.73h-3.31V180.93H236v1.82a3.15,3.15,0,0,1,2.8-2c2,0,2.19,1.87,2.19,3.43v8.4Z" transform="translate(-59.5 -22.5)"/><path class="cls-2" d="M254.41,178.38v14.17h-3.49V178.38h-2.73v-3.17h8.94v3.17Z" transform="translate(-59.5 -22.5)"/><path class="cls-2" d="M265.46,188.55a5.27,5.27,0,0,1-1.27,3.33,3.37,3.37,0,0,1-2.57.91,3.71,3.71,0,0,1-2.83-1,6.44,6.44,0,0,1-1.61-4.71,7.45,7.45,0,0,1,1.72-5.25,3.68,3.68,0,0,1,2.7-1.07,3.55,3.55,0,0,1,2.54.94,6.42,6.42,0,0,1,1.53,4.52,9,9,0,0,1-.08,1.14h-5.24c0,.19,0,.42,0,.65a3.41,3.41,0,0,0,.47,2.06.91.91,0,0,0,.69.31,1,1,0,0,0,.66-.21,2.77,2.77,0,0,0,.51-1.58Zm-2.67-3.23a2.89,2.89,0,0,0-.53-1.89,1,1,0,0,0-.61-.24,1.09,1.09,0,0,0-.74.31,3.18,3.18,0,0,0-.5,1.82Z" transform="translate(-59.5 -22.5)"/><path class="cls-2" d="M273.26,192.37a4.26,4.26,0,0,1-1.88.42c-3.17,0-4.31-3.28-4.31-5.91,0-2.83,1.08-6.19,4.52-6.19a4.12,4.12,0,0,1,1.67.34v2.86a1.27,1.27,0,0,0-.93-.39c-1.58,0-1.93,1.95-1.93,3.15s.27,3.09,1.88,3.09a1.71,1.71,0,0,0,1-.34Z" transform="translate(-59.5 -22.5)"/><path class="cls-2" d="M279.84,192.55v-7.12c0-.52,0-1.46-.79-1.46-.95,0-.9,1.2-.9,1.85v6.73h-3.31v-19h3.31v9.15a3.17,3.17,0,0,1,2.8-2c2,0,2.2,1.87,2.2,3.43v8.4Z" transform="translate(-59.5 -22.5)"/><path class="cls-2" d="M290.26,192.55v-7.12c0-.52,0-1.46-.8-1.46-.95,0-.89,1.2-.89,1.85v6.73h-3.31V180.93h3.31v1.82a3.15,3.15,0,0,1,2.8-2c2,0,2.19,1.87,2.19,3.43v8.4Z" transform="translate(-59.5 -22.5)"/><path class="cls-2" d="M299.83,192.79c-3.39,0-4.5-3.23-4.5-6s1.11-6,4.5-6,4.44,3.15,4.44,6S303.32,192.79,299.83,192.79Zm0-9.16c-1.08,0-1.16,2.37-1.16,3.12s.08,3.12,1.16,3.12,1.11-2.42,1.11-3.12S300.86,183.63,299.83,183.63Z" transform="translate(-59.5 -22.5)"/><path class="cls-2" d="M306,192.55v-19h3.31v19Z" transform="translate(-59.5 -22.5)"/><path class="cls-2" d="M315.61,192.79c-3.38,0-4.49-3.23-4.49-6s1.11-6,4.49-6,4.45,3.15,4.45,6S319.1,192.79,315.61,192.79Zm0-9.16c-1.08,0-1.16,2.37-1.16,3.12s.08,3.12,1.16,3.12,1.11-2.42,1.11-3.12S316.64,183.63,315.61,183.63Z" transform="translate(-59.5 -22.5)"/><path class="cls-2" d="M330.31,193.28a5.18,5.18,0,0,1-.34,2.21,4.3,4.3,0,0,1-4.23,2.42c-2.83,0-3.94-1.64-4.15-4h2.91c.05.57.26,1.4,1.21,1.4,1.25,0,1.27-1.59,1.27-2.47V191.1c-.53.85-1.08,1.69-2.22,1.69-2.67,0-3.3-4-3.3-5.93s.39-6.14,3.17-6.14a2.67,2.67,0,0,1,2.35,1.61v-1.4h3.33ZM326,183.63c-1.11,0-1.19,2.34-1.19,3.1s.08,3.09,1.19,3.09,1.14-2.39,1.14-3.09S327,183.63,326,183.63Z" transform="translate(-59.5 -22.5)"/><path class="cls-2" d="M334.15,179.19a2.06,2.06,0,1,1,2.09-2.06A2.06,2.06,0,0,1,334.15,179.19Zm-1.67,13.36V180.93h3.31v11.62Z" transform="translate(-59.5 -22.5)"/><path class="cls-2" d="M345.78,188.55a5.27,5.27,0,0,1-1.27,3.33,3.36,3.36,0,0,1-2.56.91,3.7,3.7,0,0,1-2.83-1A6.4,6.4,0,0,1,337.5,187a7.5,7.5,0,0,1,1.72-5.25,3.7,3.7,0,0,1,2.7-1.07,3.55,3.55,0,0,1,2.54.94,6.42,6.42,0,0,1,1.53,4.52,7.46,7.46,0,0,1-.08,1.14h-5.23a4.43,4.43,0,0,0,0,.65,3.41,3.41,0,0,0,.48,2.06.88.88,0,0,0,.69.31,1.06,1.06,0,0,0,.66-.21,2.76,2.76,0,0,0,.5-1.58Zm-2.67-3.23a2.89,2.89,0,0,0-.53-1.89,1,1,0,0,0-.61-.24,1.09,1.09,0,0,0-.74.31,3.18,3.18,0,0,0-.5,1.82Z" transform="translate(-59.5 -22.5)"/><path class="cls-2" d="M353.26,184.07a2.27,2.27,0,0,0-1.56-.78.8.8,0,0,0-.84.84c0,1.4,3.7,1.11,3.7,4.63,0,2.21-1.35,4-3.73,4a5.77,5.77,0,0,1-3.59-1.33l1.45-2.32a2.58,2.58,0,0,0,1.61.73,1,1,0,0,0,1.06-1c0-1.46-3.86-1.25-3.86-4.76,0-2.23,1.82-3.43,3.94-3.43a5.07,5.07,0,0,1,3.15,1Z" transform="translate(-59.5 -22.5)"/><path class="cls-2" d="M92.3,213.48v10.27H90.82V213.48H89.55v-1.35h1.27v-3.3H92.3v3.3h2v1.35Z" transform="translate(-59.5 -22.5)"/><path class="cls-2" d="M98.62,223.93c-3,0-3.46-3.74-3.46-6s.42-6,3.46-6,3.31,3.82,3.31,6.06S101.66,223.93,98.62,223.93Zm0-10.63c-1.83,0-1.88,3.54-1.88,4.76s.08,4.5,1.88,4.5,1.79-3.46,1.79-4.63S100.34,213.3,98.6,213.3Z" transform="translate(-59.5 -22.5)"/><path class="cls-2" d="M116.42,225c0,2.1-.82,3.4-3.1,3.4-2.06,0-3.07-1.27-3.07-3.22a2,2,0,0,1,0-.44h1.51c0,1.16.13,2.28,1.61,2.28s1.51-1.14,1.51-2.26v-1.87a2.35,2.35,0,0,1-1.88.83c-3,0-3-3.95-3-6.06,0-1.95.21-5.74,2.93-5.74a2.35,2.35,0,0,1,2,1v-.8h1.51Zm-3.15-11.89c-1.59,0-1.72,2.68-1.72,5.1,0,1.25,0,4.32,1.85,4.32,1.32,0,1.51-1.54,1.59-2.5s.08-1.87.08-2.81C115.07,216,115.07,213.14,113.27,213.14Z" transform="translate(-59.5 -22.5)"/><path class="cls-2" d="M125,219.8c-.08,1.87-.66,4.13-3,4.13-3,0-3.43-3.71-3.43-6s.45-6,3.33-6,3.2,3.51,3.2,5.56c0,.24,0,.5,0,.73h-5v.26c0,1.17.19,4.06,1.88,4.06,1.32,0,1.51-1.77,1.54-2.76ZM123.61,217c0-1-.19-3.69-1.69-3.69s-1.78,2.63-1.83,3.69Z" transform="translate(-59.5 -22.5)"/><path class="cls-2" d="M129.21,213.48v10.27h-1.48V213.48h-1.27v-1.35h1.27v-3.3h1.48v3.3h2v1.35Z" transform="translate(-59.5 -22.5)"/><path class="cls-2" d="M149.49,223.75H148v-8.61c0-1-.16-2-1.37-2-1.72,0-1.8,1.9-1.8,3.17v7.44h-1.51v-8.58c0-.86-.08-2-1.24-2-1.85,0-1.9,2.06-1.9,3.41v7.2H138.7V212.13h1.49v1a3.15,3.15,0,0,1,2.3-1.14,2.31,2.31,0,0,1,2.16,1.35,2.9,2.9,0,0,1,2.44-1.35c1.9,0,2.4,1.22,2.4,2.88Z" transform="translate(-59.5 -22.5)"/><path class="cls-2" d="M155.15,223.93c-3,0-3.46-3.74-3.46-6s.42-6,3.46-6,3.31,3.82,3.31,6.06S158.19,223.93,155.15,223.93Zm0-10.63c-1.82,0-1.87,3.54-1.87,4.76s.08,4.5,1.87,4.5,1.8-3.46,1.8-4.63S156.87,213.3,155.12,213.3Z" transform="translate(-59.5 -22.5)"/><path class="cls-2" d="M164.17,213.64c-2,0-2,1.56-2,3.07v7h-1.48V212.13h1.48v1.51a2.41,2.41,0,0,1,2-1.69Z" transform="translate(-59.5 -22.5)"/><path class="cls-2" d="M171.65,219.8c-.08,1.87-.66,4.13-3,4.13-3,0-3.44-3.71-3.44-6s.45-6,3.34-6,3.19,3.51,3.19,5.56c0,.24,0,.5,0,.73h-5v.26c0,1.17.19,4.06,1.88,4.06,1.32,0,1.51-1.77,1.53-2.76ZM170.27,217c-.05-1-.18-3.69-1.69-3.69s-1.77,2.63-1.82,3.69Z" transform="translate(-59.5 -22.5)"/><path class="cls-2" d="M180.85,209.56a1.11,1.11,0,0,1-1.11-1.07,1.09,1.09,0,0,1,1.11-1.12,1.1,1.1,0,0,1,1.08,1.12A1.08,1.08,0,0,1,180.85,209.56Zm-.77,14.19V212.13h1.51v11.62Z" transform="translate(-59.5 -22.5)"/><path class="cls-2" d="M188.81,223.75V215.3c0-.94,0-2.16-1.32-2.16a1.69,1.69,0,0,0-1.41.76,3.6,3.6,0,0,0-.39,2v7.82h-1.48V212.13h1.48v.93A3.12,3.12,0,0,1,188,212c2,0,2.3,1.61,2.3,3.19v8.61Z" transform="translate(-59.5 -22.5)"/><path class="cls-2" d="M194.86,213.48v10.27h-1.48V213.48H192v-1.35h1.35v-4.66c0-1.48.4-3,2.2-3a3.38,3.38,0,0,1,1.32.26v1.61a1.78,1.78,0,0,0-1.09-.52c-.87,0-.95.78-.95,1.43v4.84h2v1.35Z" transform="translate(-59.5 -22.5)"/><path class="cls-2" d="M201.29,223.93c-3,0-3.47-3.74-3.47-6s.43-6,3.47-6,3.3,3.82,3.3,6.06S204.33,223.93,201.29,223.93Zm0-10.63c-1.82,0-1.88,3.54-1.88,4.76s.08,4.5,1.88,4.5,1.8-3.46,1.8-4.63S203,213.3,201.26,213.3Z" transform="translate(-59.5 -22.5)"/><path class="cls-2" d="M210.3,213.64c-2,0-2,1.56-2,3.07v7h-1.48V212.13h1.48v1.51a2.43,2.43,0,0,1,2-1.69Z" transform="translate(-59.5 -22.5)"/><path class="cls-2" d="M222.73,223.75h-1.48v-8.61c0-1-.16-2-1.37-2-1.72,0-1.8,1.9-1.8,3.17v7.44h-1.51v-8.58c0-.86-.08-2-1.24-2-1.85,0-1.91,2.06-1.91,3.41v7.2h-1.48V212.13h1.48v1a3.19,3.19,0,0,1,2.3-1.14,2.31,2.31,0,0,1,2.17,1.35,2.88,2.88,0,0,1,2.44-1.35c1.9,0,2.4,1.22,2.4,2.88Z" transform="translate(-59.5 -22.5)"/><path class="cls-2" d="M229.87,223.75v-.93a2.33,2.33,0,0,1-2,1.11c-2.7,0-2.78-3.71-2.78-5.77,0-2.36.08-6.21,2.91-6.21a2.19,2.19,0,0,1,1.88,1v-.78h1.51v11.62Zm-1.51-10.63c-1.72,0-1.74,3-1.74,4.13,0,1,0,1.87.08,2.81s.26,2.68,1.64,2.68a1.21,1.21,0,0,0,.95-.39c.74-.73.74-3.46.74-4.47C230,215.56,229.9,213.12,228.36,213.12Z" transform="translate(-59.5 -22.5)"/><path class="cls-2" d="M236,213.48v10.27h-1.48V213.48H233.2v-1.35h1.27v-3.3H236v3.3h2v1.35Z" transform="translate(-59.5 -22.5)"/><path class="cls-2" d="M240,209.56a1.1,1.1,0,1,1,1.09-1.07A1.09,1.09,0,0,1,240,209.56Zm-.77,14.19V212.13h1.51v11.62Z" transform="translate(-59.5 -22.5)"/><path class="cls-2" d="M246.39,223.93c-3,0-3.46-3.74-3.46-6s.42-6,3.46-6,3.31,3.82,3.31,6.06S249.43,223.93,246.39,223.93Zm0-10.63c-1.83,0-1.88,3.54-1.88,4.76s.08,4.5,1.88,4.5,1.8-3.46,1.8-4.63S248.11,213.3,246.37,213.3Z" transform="translate(-59.5 -22.5)"/><path class="cls-2" d="M256.52,223.75V215.3c0-.94,0-2.16-1.32-2.16a1.66,1.66,0,0,0-1.4.76,3.53,3.53,0,0,0-.4,2v7.82h-1.48V212.13h1.48v.93a3.12,3.12,0,0,1,2.3-1.11c2,0,2.3,1.61,2.3,3.19v8.61Z" transform="translate(-59.5 -22.5)"/><path class="cls-2" d="M269.82,223.93c-3,0-3.46-3.74-3.46-6s.42-6,3.46-6,3.3,3.82,3.3,6.06S272.86,223.93,269.82,223.93Zm0-10.63c-1.82,0-1.87,3.54-1.87,4.76s.07,4.5,1.87,4.5,1.8-3.46,1.8-4.63S271.54,213.3,269.79,213.3Z" transform="translate(-59.5 -22.5)"/><path class="cls-2" d="M280,223.75V215.3c0-.94,0-2.16-1.33-2.16a1.68,1.68,0,0,0-1.4.76,3.6,3.6,0,0,0-.39,2v7.82h-1.49V212.13h1.49v.93a3.12,3.12,0,0,1,2.3-1.11c2,0,2.3,1.61,2.3,3.19v8.61Z" transform="translate(-59.5 -22.5)"/><path class="cls-2" d="M292.16,213.48v10.27h-1.48V213.48h-1.27v-1.35h1.27v-3.3h1.48v3.3h2v1.35Z" transform="translate(-59.5 -22.5)"/><path class="cls-2" d="M300.09,223.75V215.3c0-.94,0-2.16-1.32-2.16a1.66,1.66,0,0,0-1.4.76,3.57,3.57,0,0,0-.4,2v7.82h-1.48V204.8H297v8.26a3.14,3.14,0,0,1,2.3-1.11c1.93,0,2.3,1.35,2.3,3v8.81Z" transform="translate(-59.5 -22.5)"/><path class="cls-2" d="M309.9,219.8c-.08,1.87-.66,4.13-3,4.13-3,0-3.43-3.71-3.43-6s.45-6,3.33-6,3.2,3.51,3.2,5.56c0,.24,0,.5,0,.73h-5v.26c0,1.17.19,4.06,1.88,4.06,1.32,0,1.51-1.77,1.53-2.76ZM308.53,217c-.06-1-.19-3.69-1.7-3.69s-1.77,2.63-1.82,3.69Z" transform="translate(-59.5 -22.5)"/><path class="cls-2" d="M320.29,213.48v10.27h-1.48V213.48h-1.35v-1.35h1.35v-4.66c0-1.48.4-3,2.2-3a3.38,3.38,0,0,1,1.32.26v1.61a1.78,1.78,0,0,0-1.09-.52c-.87,0-.95.78-.95,1.43v4.84h2v1.35Z" transform="translate(-59.5 -22.5)"/><path class="cls-2" d="M328.25,223.75v-.93a2.33,2.33,0,0,1-2,1.11c-2.7,0-2.78-3.71-2.78-5.77,0-2.36.08-6.21,2.91-6.21a2.19,2.19,0,0,1,1.88,1v-.78h1.51v11.62Zm-1.51-10.63c-1.72,0-1.74,3-1.74,4.13,0,1,0,1.87.08,2.81s.26,2.68,1.64,2.68a1.21,1.21,0,0,0,.95-.39c.74-.73.74-3.46.74-4.47C328.41,215.56,328.28,213.12,326.74,213.12Z" transform="translate(-59.5 -22.5)"/><path class="cls-2" d="M337.06,223.34a3,3,0,0,1-1.7.59c-2.77,0-3.41-3.71-3.41-5.79s.48-6.19,3.49-6.19a3.26,3.26,0,0,1,1.62.44v1.71a2.16,2.16,0,0,0-1.49-.8c-1.87,0-2.06,3.41-2.06,4.71s.24,4.55,2,4.55a2,2,0,0,0,1.51-1Z" transform="translate(-59.5 -22.5)"/><path class="cls-2" d="M340.84,213.48v10.27h-1.49V213.48h-1.27v-1.35h1.27v-3.3h1.49v3.3h2v1.35Z" transform="translate(-59.5 -22.5)"/><path class="cls-2" d="M347.15,223.93c-3,0-3.46-3.74-3.46-6s.42-6,3.46-6,3.31,3.82,3.31,6.06S350.2,223.93,347.15,223.93Zm0-10.63c-1.83,0-1.88,3.54-1.88,4.76s.08,4.5,1.88,4.5,1.8-3.46,1.8-4.63S348.87,213.3,347.13,213.3Z" transform="translate(-59.5 -22.5)"/><path class="cls-2" d="M356.17,213.64c-2,0-2,1.56-2,3.07v7h-1.48V212.13h1.48v1.51a2.43,2.43,0,0,1,2-1.69Z" transform="translate(-59.5 -22.5)"/><path class="cls-2" d="M362.3,214.5a2.74,2.74,0,0,0-2-1.2,1.47,1.47,0,0,0-1.46,1.53c0,2.27,3.81,2.68,3.81,5.83a3.15,3.15,0,0,1-3.17,3.27,3.67,3.67,0,0,1-2.2-.8v-1.72a3.06,3.06,0,0,0,2.09,1.15,1.71,1.71,0,0,0,1.72-1.8c0-2.29-3.81-3.07-3.81-5.87a2.84,2.84,0,0,1,2.94-2.94,3.53,3.53,0,0,1,2.11.75Z" transform="translate(-59.5 -22.5)"/><path class="cls-2" d="M372.06,212.91a2.2,2.2,0,0,1,1.9-1c2.89,0,2.91,3.69,2.91,5.77,0,2.5-.08,6.21-2.77,6.21a2.49,2.49,0,0,1-2-1.11v.93h-1.48V204.8h1.48Zm1.53.21c-1.53,0-1.66,2.44-1.66,4.76,0,1,0,3.74.74,4.47a1.18,1.18,0,0,0,.95.39c1.38,0,1.53-1.67,1.64-2.68s.08-1.82.08-2.73C375.34,216.16,375.31,213.12,373.59,213.12Z" transform="translate(-59.5 -22.5)"/><path class="cls-2" d="M385,219.8c-.08,1.87-.66,4.13-3,4.13-3,0-3.43-3.71-3.43-6s.45-6,3.33-6,3.2,3.51,3.2,5.56c0,.24,0,.5,0,.73h-5v.26c0,1.17.19,4.06,1.88,4.06,1.32,0,1.51-1.77,1.54-2.76ZM383.67,217c-.06-1-.19-3.69-1.7-3.69s-1.77,2.63-1.82,3.69Z" transform="translate(-59.5 -22.5)"/><path class="cls-2" d="M391.94,223.75V215.3c0-.94,0-2.16-1.32-2.16a1.68,1.68,0,0,0-1.4.76,3.57,3.57,0,0,0-.4,2v7.82h-1.48V204.8h1.48v8.26a3.16,3.16,0,0,1,2.3-1.11c1.93,0,2.3,1.35,2.3,3v8.81Z" transform="translate(-59.5 -22.5)"/><path class="cls-2" d="M396.81,209.56a1.11,1.11,0,0,1-1.11-1.07,1.09,1.09,0,0,1,1.11-1.12,1.1,1.1,0,0,1,1.08,1.12A1.08,1.08,0,0,1,396.81,209.56ZM396,223.75V212.13h1.51v11.62Z" transform="translate(-59.5 -22.5)"/><path class="cls-2" d="M404.77,223.75V215.3c0-.94,0-2.16-1.33-2.16a1.68,1.68,0,0,0-1.4.76,3.6,3.6,0,0,0-.39,2v7.82h-1.48V212.13h1.48v.93A3.12,3.12,0,0,1,404,212c2,0,2.3,1.61,2.3,3.19v8.61Z" transform="translate(-59.5 -22.5)"/><path class="cls-2" d="M413.25,223.75v-.93a2.38,2.38,0,0,1-2,1.11c-2.73,0-2.78-3.87-2.78-5.9,0-2.26,0-6.08,2.94-6.08a2.18,2.18,0,0,1,1.87,1V204.8h1.48v18.95Zm-1.53-10.63c-1.69,0-1.72,3-1.72,4.13,0,1,0,1.87.08,2.81s.24,2.68,1.61,2.68a1.25,1.25,0,0,0,1-.39c.72-.71.72-3.43.72-4.4C413.39,215.51,413.25,213.12,411.72,213.12Z" transform="translate(-59.5 -22.5)"/><path class="cls-2" d="M418.38,223.93a1.21,1.21,0,0,1-1.19-1.17,1.19,1.19,0,1,1,1.19,1.17Z" transform="translate(-59.5 -22.5)"/></svg>