<svg id="Ebene_1" data-name="Ebene 1" xmlns="http://www.w3.org/2000/svg" width="344.31" height="284.03" viewBox="0 0 344.31 284.03">
  <defs>
    <style>
      .cls-1 {
        fill: none;
        stroke: aqua;
        stroke-width: 8px;
      }

      .cls-2 {
        fill: #f6f6f6;
      }
    </style>
  </defs>
  <g id="Gruppe_432" data-name="Gruppe 432">
    <g id="Gruppe_430" data-name="Gruppe 430">
      <g id="Gruppe_93" data-name="Gruppe 93">
        <path id="Pfad_50-2" data-name="Pfad 50-2" class="cls-1" d="M340.31,98.5V4h-68.2" transform="translate(0 0)"/>
        <path id="Pfad_51-2" data-name="Pfad 51-2" class="cls-1" d="M340.31,185.5V280h-68.2" transform="translate(0 0)"/>
        <path id="Pfad_52-2" data-name="Pfad 52-2" class="cls-1" d="M4,98.5V4H72.2" transform="translate(0 0)"/>
        <path id="Pfad_53-2" data-name="Pfad 53-2" class="cls-1" d="M4,185.5V280H72.2" transform="translate(0 0)"/>
      </g>
    </g>
  </g>
  <g>
    <path class="cls-2" d="M28.56,47.25V30.84h1.55V47.25Z" transform="translate(0 0)"/>
    <path class="cls-2" d="M37.06,47.25v-8c0-.88,0-2-1.25-2a1.59,1.59,0,0,0-1.33.71,3.42,3.42,0,0,0-.37,1.92v7.41h-1.4v-11h1.4v.89a2.92,2.92,0,0,1,2.17-1.06c1.88,0,2.18,1.52,2.18,3v8.14Z" transform="translate(0 0)"/>
    <path class="cls-2" d="M45.35,46.85a2.66,2.66,0,0,1-1.59.57c-2.63,0-3.23-3.52-3.23-5.49s.45-5.85,3.3-5.85a3.05,3.05,0,0,1,1.52.42v1.62A2,2,0,0,0,44,37.36c-1.78,0-2,3.22-2,4.45s.22,4.31,1.92,4.31a1.88,1.88,0,0,0,1.42-1Z" transform="translate(0 0)"/>
    <path class="cls-2" d="M47.11,47.25V29.32h1.42V47.25Z" transform="translate(0 0)"/>
    <path class="cls-2" d="M56.83,44.57a2.9,2.9,0,0,1-5.8,0V36.25h1.4V43.7c0,1.14,0,2.42,1.55,2.42s1.45-1.48,1.45-2.56V36.25h1.4Z" transform="translate(0 0)"/>
    <path class="cls-2" d="M63.45,47.25v-.89a2.24,2.24,0,0,1-1.92,1.06c-2.57,0-2.62-3.67-2.62-5.58,0-2.14,0-5.76,2.77-5.76a2,2,0,0,1,1.77.91V29.32h1.4V47.25ZM62,37.19c-1.6,0-1.62,2.83-1.62,3.91,0,.91,0,1.77.08,2.65s.22,2.54,1.52,2.54a1.17,1.17,0,0,0,.92-.37c.68-.67.68-3.25.68-4.16C63.58,39.45,63.45,37.19,62,37.19Z" transform="translate(0 0)"/>
    <path class="cls-2" d="M73,43.51c-.07,1.77-.62,3.91-2.82,3.91-2.87,0-3.25-3.52-3.25-5.63s.43-5.71,3.15-5.71,3,3.32,3,5.26c0,.22,0,.47,0,.69H68.36v.25c0,1.11.17,3.84,1.77,3.84,1.25,0,1.42-1.68,1.45-2.61Zm-1.3-2.66c0-1-.17-3.49-1.6-3.49s-1.67,2.48-1.72,3.49Z" transform="translate(0 0)"/>
    <path class="cls-2" d="M79.4,38.49a2.63,2.63,0,0,0-1.92-1.13,1.38,1.38,0,0,0-1.38,1.45c0,2.14,3.6,2.53,3.6,5.51a3,3,0,0,1-3,3.1,3.47,3.47,0,0,1-2.08-.76V45a2.86,2.86,0,0,0,2,1.09,1.62,1.62,0,0,0,1.63-1.7c0-2.17-3.6-2.9-3.6-5.56a2.68,2.68,0,0,1,2.77-2.78,3.36,3.36,0,0,1,2,.71Z" transform="translate(0 0)"/>
    <path class="cls-2" d="M89.05,37.53v9.72h-1.4V37.53H86.46V36.25h1.19V33.13h1.4v3.12h1.88v1.28Z" transform="translate(0 0)"/>
    <path class="cls-2" d="M99.8,47.25H98.35c-.47-3-1-6.1-1.42-9.15-.1.59-.13,1.13-.23,1.72l-1.22,7.43H94l-2.25-11H93.2l1.25,6.67c.15.76.25,1.55.33,2.31,0-.74.2-1.5.32-2.26l1.13-6.72h1.45c.47,3,1,6,1.4,9,.12-.76.22-1.55.37-2.34l1.38-6.64h1.42Z" transform="translate(0 0)"/>
    <path class="cls-2" d="M106.4,47.42c-2.87,0-3.27-3.54-3.27-5.68s.4-5.66,3.27-5.66,3.13,3.62,3.13,5.73S109.28,47.42,106.4,47.42Zm0-10.06c-1.73,0-1.78,3.34-1.78,4.5s.08,4.26,1.78,4.26,1.7-3.28,1.7-4.38S108,37.36,106.38,37.36Z" transform="translate(0 0)"/>
    <path class="cls-2" d="M119.28,37.53v9.72h-1.4V37.53H116.6V36.25h1.28v-4.4c0-1.4.37-2.8,2.07-2.8a3.16,3.16,0,0,1,1.25.24v1.53a1.65,1.65,0,0,0-1-.5c-.83,0-.9.74-.9,1.36v4.57h1.92v1.28Z" transform="translate(0 0)"/>
    <path class="cls-2" d="M126.8,47.25v-.89a2.19,2.19,0,0,1-1.9,1.06c-2.55,0-2.62-3.52-2.62-5.46,0-2.24.07-5.88,2.75-5.88a2,2,0,0,1,1.77.91v-.74h1.43v11Zm-1.42-10.06c-1.63,0-1.65,2.8-1.65,3.91,0,.91,0,1.77.07,2.65s.25,2.54,1.55,2.54a1.11,1.11,0,0,0,.9-.37c.7-.69.7-3.27.7-4.23C127,39.5,126.83,37.19,125.38,37.19Z" transform="translate(0 0)"/>
    <path class="cls-2" d="M135.13,46.85a2.72,2.72,0,0,1-1.6.57c-2.63,0-3.23-3.52-3.23-5.49s.45-5.85,3.3-5.85a3.12,3.12,0,0,1,1.53.42v1.62a2,2,0,0,0-1.4-.76c-1.78,0-1.95,3.22-1.95,4.45s.22,4.31,1.92,4.31a1.91,1.91,0,0,0,1.43-1Z" transform="translate(0 0)"/>
    <path class="cls-2" d="M138.7,37.53v9.72h-1.4V37.53h-1.2V36.25h1.2V33.13h1.4v3.12h1.88v1.28Z" transform="translate(0 0)"/>
    <path class="cls-2" d="M144.68,47.42c-2.88,0-3.28-3.54-3.28-5.68s.4-5.66,3.28-5.66,3.12,3.62,3.12,5.73S147.55,47.42,144.68,47.42Zm0-10.06c-1.72,0-1.77,3.34-1.77,4.5s.07,4.26,1.77,4.26,1.7-3.28,1.7-4.38S146.3,37.36,144.65,37.36Z" transform="translate(0 0)"/>
    <path class="cls-2" d="M153.2,37.68c-1.87,0-1.9,1.47-1.9,2.9v6.67h-1.4v-11h1.4v1.43a2.32,2.32,0,0,1,1.9-1.6Z" transform="translate(0 0)"/>
    <path class="cls-2" d="M159,38.49a2.63,2.63,0,0,0-1.92-1.13,1.38,1.38,0,0,0-1.38,1.45c0,2.14,3.6,2.53,3.6,5.51a3,3,0,0,1-3,3.1,3.44,3.44,0,0,1-2.07-.76V45a2.84,2.84,0,0,0,2,1.09,1.62,1.62,0,0,0,1.63-1.7c0-2.17-3.6-2.9-3.6-5.56A2.68,2.68,0,0,1,157,36.08a3.36,3.36,0,0,1,2,.71Z" transform="translate(0 0)"/>
    <path class="cls-2" d="M162,47.42a1.14,1.14,0,0,1-1.12-1.11A1.13,1.13,0,1,1,162,47.42Z" transform="translate(0 0)"/>
    <path class="cls-2" d="M172.93,32.24V38h3.55v1.41h-3.55v7.82h-1.55V30.84h5.3v1.4Z" transform="translate(0 0)"/>
    <path class="cls-2" d="M179,33.82a1,1,0,1,1,1-1A1,1,0,0,1,179,33.82Zm-.72,13.43v-11h1.42v11Z" transform="translate(0 0)"/>
    <path class="cls-2" d="M185.43,37.68c-1.88,0-1.9,1.47-1.9,2.9v6.67h-1.4v-11h1.4v1.43a2.29,2.29,0,0,1,1.9-1.6Z" transform="translate(0 0)"/>
    <path class="cls-2" d="M191.23,38.49a2.65,2.65,0,0,0-1.93-1.13,1.38,1.38,0,0,0-1.37,1.45c0,2.14,3.6,2.53,3.6,5.51a3,3,0,0,1-3,3.1,3.47,3.47,0,0,1-2.08-.76V45a2.86,2.86,0,0,0,2,1.09,1.61,1.61,0,0,0,1.62-1.7c0-2.17-3.6-2.9-3.6-5.56a2.68,2.68,0,0,1,2.78-2.78,3.39,3.39,0,0,1,2,.71Z" transform="translate(0 0)"/>
    <path class="cls-2" d="M195.05,37.53v9.72h-1.4V37.53h-1.2V36.25h1.2V33.13h1.4v3.12h1.88v1.28Z" transform="translate(0 0)"/>
    <path class="cls-2" d="M198.18,50.74l-1.08-.49,1.73-5,1.55.68Z" transform="translate(0 0)"/>
    <path class="cls-2" d="M210.28,37.53v9.72h-1.4V37.53h-1.2V36.25h1.2V33.13h1.4v3.12h1.87v1.28Z" transform="translate(0 0)"/>
    <path class="cls-2" d="M217.77,47.25v-8c0-.88,0-2-1.25-2a1.57,1.57,0,0,0-1.32.71,3.46,3.46,0,0,0-.37,1.92v7.41h-1.4V29.32h1.4v7.82A2.9,2.9,0,0,1,217,36.08c1.82,0,2.17,1.28,2.17,2.83v8.34Z" transform="translate(0 0)"/>
    <path class="cls-2" d="M227.05,43.51c-.08,1.77-.63,3.91-2.83,3.91-2.87,0-3.24-3.52-3.24-5.63s.42-5.71,3.14-5.71,3,3.32,3,5.26c0,.22,0,.47,0,.69H222.4v.25c0,1.11.18,3.84,1.77,3.84,1.25,0,1.43-1.68,1.45-2.61Zm-1.3-2.66c-.05-1-.18-3.49-1.6-3.49s-1.68,2.48-1.73,3.49Z" transform="translate(0 0)"/>
    <path class="cls-2" d="M236.87,37.53v9.72h-1.4V37.53h-1.2V36.25h1.2V33.13h1.4v3.12h1.88v1.28Z" transform="translate(0 0)"/>
    <path class="cls-2" d="M242.45,51.67H241L242.2,47l-2.65-10.7H241l1.4,6.1a26.83,26.83,0,0,1,.53,2.76,20.24,20.24,0,0,1,.45-2.07L245,36.25h1.48Z" transform="translate(0 0)"/>
    <path class="cls-2" d="M249.25,37a2,2,0,0,1,1.77-.91c2.75,0,2.78,3.47,2.78,5.46,0,2.36-.08,5.88-2.63,5.88a2.33,2.33,0,0,1-1.92-1.06v5.31h-1.4V36.25h1.4Zm1.45.2c-1.45,0-1.58,2.31-1.58,4.5,0,1,0,3.54.7,4.23a1.12,1.12,0,0,0,.9.37c1.3,0,1.45-1.58,1.55-2.54s.08-1.72.08-2.58C252.35,40.06,252.32,37.19,250.7,37.19Z" transform="translate(0 0)"/>
    <path class="cls-2" d="M261.52,43.51c-.07,1.77-.62,3.91-2.82,3.91-2.88,0-3.25-3.52-3.25-5.63s.42-5.71,3.15-5.71,3,3.32,3,5.26c0,.22,0,.47,0,.69h-4.73v.25c0,1.11.18,3.84,1.78,3.84,1.25,0,1.42-1.68,1.45-2.61Zm-1.3-2.66c-.05-1-.17-3.49-1.6-3.49s-1.67,2.48-1.72,3.49Z" transform="translate(0 0)"/>
    <path class="cls-2" d="M272.37,47.42c-2.87,0-3.27-3.54-3.27-5.68s.4-5.66,3.27-5.66,3.13,3.62,3.13,5.73S275.25,47.42,272.37,47.42Zm0-10.06c-1.73,0-1.78,3.34-1.78,4.5s.08,4.26,1.78,4.26,1.7-3.28,1.7-4.38S274,37.36,272.35,37.36Z" transform="translate(0 0)"/>
    <path class="cls-2" d="M279.42,37.53v9.72H278V37.53h-1.27V36.25H278v-4.4c0-1.4.38-2.8,2.08-2.8a3.2,3.2,0,0,1,1.25.24v1.53a1.68,1.68,0,0,0-1-.5c-.82,0-.9.74-.9,1.36v4.57h1.93v1.28Z" transform="translate(0 0)"/>
    <path class="cls-2" d="M31.28,76.93c-2.87,0-3.27-3.54-3.27-5.68s.4-5.66,3.27-5.66,3.13,3.62,3.13,5.74S34.16,76.93,31.28,76.93Zm0-10.06c-1.73,0-1.78,3.35-1.78,4.5s.08,4.26,1.78,4.26S33,72.36,33,71.25,32.91,66.87,31.26,66.87Z" transform="translate(0 0)"/>
    <path class="cls-2" d="M40.91,76.37a2.77,2.77,0,0,1-1.6.56c-2.63,0-3.23-3.51-3.23-5.48s.45-5.86,3.3-5.86a3.12,3.12,0,0,1,1.53.42v1.63a2,2,0,0,0-1.4-.77c-1.78,0-1.95,3.23-1.95,4.46s.22,4.3,1.92,4.3a1.93,1.93,0,0,0,1.43-1Z" transform="translate(0 0)"/>
    <path class="cls-2" d="M47.06,76.37a2.77,2.77,0,0,1-1.6.56c-2.63,0-3.23-3.51-3.23-5.48s.45-5.86,3.3-5.86a3.12,3.12,0,0,1,1.53.42v1.63a2,2,0,0,0-1.4-.77c-1.78,0-1.95,3.23-1.95,4.46s.22,4.3,1.92,4.3a1.93,1.93,0,0,0,1.43-1Z" transform="translate(0 0)"/>
    <path class="cls-2" d="M53.06,76.76v-.88a2.22,2.22,0,0,1-1.9,1.05c-2.55,0-2.63-3.51-2.63-5.46,0-2.24.08-5.88,2.75-5.88a2.09,2.09,0,0,1,1.78.91v-.73h1.42v11ZM51.63,66.7C50,66.7,50,69.5,50,70.61c0,.91,0,1.77.08,2.66s.25,2.53,1.55,2.53a1.12,1.12,0,0,0,.9-.37c.7-.69.7-3.27.7-4.23C53.21,69,53.08,66.7,51.63,66.7Z" transform="translate(0 0)"/>
    <path class="cls-2" d="M61.21,68a2.65,2.65,0,0,0-1.93-1.13,1.38,1.38,0,0,0-1.37,1.45c0,2.14,3.59,2.54,3.59,5.51a3,3,0,0,1-3,3.1,3.41,3.41,0,0,1-2.08-.76V74.55a2.89,2.89,0,0,0,2,1.08A1.61,1.61,0,0,0,60,73.93c0-2.16-3.6-2.9-3.6-5.56a2.68,2.68,0,0,1,2.78-2.78,3.33,3.33,0,0,1,2,.72Z" transform="translate(0 0)"/>
    <path class="cls-2" d="M63.91,63.33a1,1,0,0,1-1-1,1,1,0,0,1,1-1,1,1,0,0,1,1,1A1,1,0,0,1,63.91,63.33Zm-.73,13.43v-11h1.43v11Z" transform="translate(0 0)"/>
    <path class="cls-2" d="M69.93,76.93c-2.87,0-3.27-3.54-3.27-5.68s.4-5.66,3.27-5.66,3.12,3.62,3.12,5.74S72.8,76.93,69.93,76.93Zm0-10.06c-1.73,0-1.78,3.35-1.78,4.5s.08,4.26,1.78,4.26,1.69-3.27,1.69-4.38S71.55,66.87,69.91,66.87Z" transform="translate(0 0)"/>
    <path class="cls-2" d="M79.5,76.76v-8c0-.89,0-2-1.24-2a1.59,1.59,0,0,0-1.33.71,3.41,3.41,0,0,0-.37,1.92v7.4h-1.4v-11h1.4v.88a3,3,0,0,1,2.17-1.06c1.87,0,2.17,1.53,2.17,3v8.14Z" transform="translate(0 0)"/>
    <path class="cls-2" d="M87.63,68a2.65,2.65,0,0,0-1.92-1.13,1.39,1.39,0,0,0-1.38,1.45c0,2.14,3.6,2.54,3.6,5.51a3,3,0,0,1-3,3.1,3.38,3.38,0,0,1-2.07-.76V74.55a2.87,2.87,0,0,0,2,1.08,1.61,1.61,0,0,0,1.62-1.7c0-2.16-3.59-2.9-3.59-5.56a2.68,2.68,0,0,1,2.77-2.78,3.33,3.33,0,0,1,2,.72Z" transform="translate(0 0)"/>
    <path class="cls-2" d="M96.15,63.33a1,1,0,0,1-1.05-1,1,1,0,0,1,1.05-1,1,1,0,0,1,1,1A1,1,0,0,1,96.15,63.33Zm-.72,13.43v-11h1.42v11Z" transform="translate(0 0)"/>
    <path class="cls-2" d="M103.68,76.76v-8c0-.89,0-2-1.25-2a1.59,1.59,0,0,0-1.33.71,3.41,3.41,0,0,0-.37,1.92v7.4h-1.4v-11h1.4v.88a3,3,0,0,1,2.17-1.06c1.88,0,2.18,1.53,2.18,3v8.14Z" transform="translate(0 0)"/>
    <path class="cls-2" d="M120.43,76.76H119c-.48-3.05-1-6.1-1.43-9.15-.1.59-.12,1.13-.22,1.72l-1.23,7.43h-1.45l-2.25-11h1.43l1.25,6.66a22.89,22.89,0,0,1,.32,2.31c0-.73.2-1.5.33-2.26l1.12-6.71h1.45c.48,3,1,6,1.4,9,.13-.76.23-1.55.38-2.33l1.37-6.64h1.43Z" transform="translate(0 0)"/>
    <path class="cls-2" d="M128.73,76.76v-8c0-.89,0-2-1.25-2a1.59,1.59,0,0,0-1.33.71,3.44,3.44,0,0,0-.37,1.92v7.4h-1.4V58.83h1.4v7.82A3,3,0,0,1,128,65.59c1.83,0,2.18,1.28,2.18,2.83v8.34Z" transform="translate(0 0)"/>
    <path class="cls-2" d="M133.33,63.33a1,1,0,0,1-1.05-1,1,1,0,0,1,1.05-1,1,1,0,0,1,1,1A1,1,0,0,1,133.33,63.33Zm-.73,13.43v-11H134v11Z" transform="translate(0 0)"/>
    <path class="cls-2" d="M140.9,76.37a2.77,2.77,0,0,1-1.6.56c-2.62,0-3.22-3.51-3.22-5.48s.45-5.86,3.3-5.86a3.08,3.08,0,0,1,1.52.42v1.63a2,2,0,0,0-1.4-.77c-1.77,0-1.95,3.23-1.95,4.46s.23,4.3,1.93,4.3a1.91,1.91,0,0,0,1.42-1Z" transform="translate(0 0)"/>
    <path class="cls-2" d="M146.9,76.76v-8c0-.89,0-2-1.25-2a1.57,1.57,0,0,0-1.32.71,3.36,3.36,0,0,0-.38,1.92v7.4h-1.4V58.83H144v7.82a3,3,0,0,1,2.18-1.06c1.82,0,2.17,1.28,2.17,2.83v8.34Z" transform="translate(0 0)"/>
    <path class="cls-2" d="M161,76.37a2.77,2.77,0,0,1-1.6.56c-2.63,0-3.23-3.51-3.23-5.48s.45-5.86,3.3-5.86A3.12,3.12,0,0,1,161,66v1.63a2,2,0,0,0-1.4-.77c-1.78,0-1.95,3.23-1.95,4.46s.22,4.3,1.92,4.3a1.93,1.93,0,0,0,1.43-1Z" transform="translate(0 0)"/>
    <path class="cls-2" d="M163.48,63.33a1,1,0,0,1-1-1,1,1,0,0,1,1-1,1,1,0,0,1,1,1A1,1,0,0,1,163.48,63.33Zm-.73,13.43v-11h1.43v11Z" transform="translate(0 0)"/>
    <path class="cls-2" d="M168.48,67.05v9.71h-1.4V67.05h-1.2V65.77h1.2V62.64h1.4v3.13h1.87v1.28Z" transform="translate(0 0)"/>
    <path class="cls-2" d="M172.33,63.33a1,1,0,0,1-1.05-1,1,1,0,0,1,1.05-1,1,1,0,0,1,1,1A1,1,0,0,1,172.33,63.33Zm-.73,13.43v-11H173v11Z" transform="translate(0 0)"/>
    <path class="cls-2" d="M179.9,76.37a2.77,2.77,0,0,1-1.6.56c-2.62,0-3.22-3.51-3.22-5.48s.45-5.86,3.3-5.86a3.08,3.08,0,0,1,1.52.42v1.63a2,2,0,0,0-1.4-.77c-1.77,0-1.95,3.23-1.95,4.46s.23,4.3,1.93,4.3a1.91,1.91,0,0,0,1.42-1Z" transform="translate(0 0)"/>
    <path class="cls-2" d="M187.3,73c-.07,1.77-.62,3.91-2.82,3.91-2.88,0-3.25-3.51-3.25-5.63s.42-5.71,3.15-5.71,3,3.32,3,5.27c0,.22,0,.47,0,.69h-4.73v.24c0,1.11.18,3.84,1.78,3.84,1.25,0,1.42-1.67,1.45-2.61ZM186,70.37c-.05-1-.17-3.5-1.6-3.5s-1.67,2.49-1.72,3.5Z" transform="translate(0 0)"/>
    <path class="cls-2" d="M193.83,76.76v-8c0-.89,0-2-1.25-2a1.59,1.59,0,0,0-1.33.71,3.41,3.41,0,0,0-.37,1.92v7.4h-1.4v-11h1.4v.88a3,3,0,0,1,2.17-1.06c1.87,0,2.17,1.53,2.17,3v8.14Z" transform="translate(0 0)"/>
    <path class="cls-2" d="M202,68A2.63,2.63,0,0,0,200,66.87a1.39,1.39,0,0,0-1.38,1.45c0,2.14,3.6,2.54,3.6,5.51a3,3,0,0,1-3,3.1,3.38,3.38,0,0,1-2.07-.76V74.55a2.87,2.87,0,0,0,2,1.08,1.62,1.62,0,0,0,1.63-1.7c0-2.16-3.6-2.9-3.6-5.56A2.68,2.68,0,0,1,200,65.59a3.31,3.31,0,0,1,2,.72Z" transform="translate(0 0)"/>
    <path class="cls-2" d="M212.65,67.12a2.33,2.33,0,0,1,2.1-1.55c2.62,0,3,3.74,3,5.66s-.45,5.75-3,5.75a2.38,2.38,0,0,1-2.07-1.47v6.32h-3.12V65.77h3.12Zm.83,1.2c-1,0-1,2.29-1,3s.07,3,1.07,3,1.1-2.27,1.1-3S214.53,68.32,213.48,68.32Z" transform="translate(0 0)"/>
    <path class="cls-2" d="M226.9,73a5,5,0,0,1-1.2,3.15,3.19,3.19,0,0,1-2.43.86,3.5,3.5,0,0,1-2.67-1,6,6,0,0,1-1.52-4.45,7.07,7.07,0,0,1,1.62-5,3.48,3.48,0,0,1,2.55-1,3.37,3.37,0,0,1,2.4.88,6.09,6.09,0,0,1,1.45,4.28,8.23,8.23,0,0,1-.08,1.09h-4.94a3.83,3.83,0,0,0,0,.61,3.23,3.23,0,0,0,.45,1.95.86.86,0,0,0,.65.29.94.94,0,0,0,.62-.2,2.62,2.62,0,0,0,.48-1.5Zm-2.53-3a2.73,2.73,0,0,0-.5-1.79.91.91,0,0,0-.57-.22,1,1,0,0,0-.7.29,3,3,0,0,0-.48,1.72Z" transform="translate(0 0)"/>
    <path class="cls-2" d="M234.45,68.35a2.3,2.3,0,0,0-.45,0c-1.88,0-2.12,1-2.12,2.63v5.83h-3.13v-11h3.13v1.35a3.42,3.42,0,0,1,2.57-1.75Z" transform="translate(0 0)"/>
    <path class="cls-2" d="M241.17,76.59a4,4,0,0,1-1.77.39c-3,0-4.07-3.1-4.07-5.58,0-2.68,1-5.86,4.27-5.86a3.84,3.84,0,0,1,1.57.32v2.71a1.16,1.16,0,0,0-.87-.37c-1.5,0-1.83,1.85-1.83,3s.25,2.92,1.78,2.92a1.64,1.64,0,0,0,.92-.31Z" transform="translate(0 0)"/>
    <path class="cls-2" d="M250.15,73a5,5,0,0,1-1.2,3.15,3.19,3.19,0,0,1-2.43.86,3.5,3.5,0,0,1-2.67-1,6,6,0,0,1-1.52-4.45,7.07,7.07,0,0,1,1.62-5,3.48,3.48,0,0,1,2.55-1,3.37,3.37,0,0,1,2.4.88,6.09,6.09,0,0,1,1.45,4.28,8.23,8.23,0,0,1-.08,1.09h-4.94a3.83,3.83,0,0,0,0,.61,3.23,3.23,0,0,0,.45,1.95.86.86,0,0,0,.65.29.92.92,0,0,0,.62-.2,2.62,2.62,0,0,0,.48-1.5Zm-2.53-3a2.73,2.73,0,0,0-.5-1.79.91.91,0,0,0-.57-.22,1,1,0,0,0-.7.29,2.94,2.94,0,0,0-.47,1.72Z" transform="translate(0 0)"/>
    <path class="cls-2" d="M253.62,64.12a1.95,1.95,0,1,1,2-1.94A1.94,1.94,0,0,1,253.62,64.12Zm-1.57,12.64v-11h3.12v11Z" transform="translate(0 0)"/>
    <path class="cls-2" d="M262.15,76.76h-2.88l-3.2-11h3.08c.52,2.06,1.1,4.13,1.52,6.22.08-.47.23-.91.33-1.35l1.15-4.87h3.25Z" transform="translate(0 0)"/>
    <path class="cls-2" d="M273.52,73a4.9,4.9,0,0,1-1.2,3.15,3.15,3.15,0,0,1-2.42.86,3.51,3.51,0,0,1-2.68-1,6,6,0,0,1-1.52-4.45,7.07,7.07,0,0,1,1.62-5,3.48,3.48,0,0,1,2.55-1,3.33,3.33,0,0,1,2.4.88,6.09,6.09,0,0,1,1.45,4.28,8.19,8.19,0,0,1-.07,1.09H268.7a3.83,3.83,0,0,0,0,.61,3.23,3.23,0,0,0,.45,1.95.87.87,0,0,0,.65.29,1,1,0,0,0,.63-.2,2.54,2.54,0,0,0,.47-1.5Zm-2.52-3a2.73,2.73,0,0,0-.5-1.79.94.94,0,0,0-.58-.22,1,1,0,0,0-.7.29,3,3,0,0,0-.47,1.72Z" transform="translate(0 0)"/>
    <path class="cls-2" d="M280.15,76.76V75.51A2.39,2.39,0,0,1,278.07,77c-2.57,0-3-3.88-3-5.75s.37-5.66,3-5.66a2.34,2.34,0,0,1,2.1,1.55V58.83h3.12V76.76Zm-.85-8.44c-1,0-1.1,2.27-1.1,3s.07,3,1.12,3,1.05-2.29,1.05-3S280.3,68.32,279.3,68.32Z" transform="translate(0 0)"/>
    <path class="cls-2" d="M294.52,68.32v8.44H291.4V68.32h-1.08V65.77h1.08V62.64h3.12v3.13h1.28v2.55Z" transform="translate(0 0)"/>
    <path class="cls-2" d="M300.77,77c-3.2,0-4.25-3-4.25-5.7s1.05-5.71,4.25-5.71,4.2,3,4.2,5.71S304.07,77,300.77,77Zm0-8.66c-1,0-1.1,2.24-1.1,3s.08,3,1.1,3,1.05-2.29,1.05-3S301.75,68.32,300.77,68.32Z" transform="translate(0 0)"/>
    <path class="cls-2" d="M31.31,96.63a2.33,2.33,0,0,1,2.1-1.55c2.62,0,3,3.74,3,5.66s-.44,5.76-3,5.76A2.39,2.39,0,0,1,31.31,105v1.26H28.18V88.34h3.13Zm.82,1.21c-1,0-1.05,2.29-1.05,3s.08,2.95,1.08,2.95,1.1-2.26,1.1-2.95S33.18,97.84,32.13,97.84Z" transform="translate(0 0)"/>
    <path class="cls-2" d="M45.56,102.49a5,5,0,0,1-1.2,3.15,3.19,3.19,0,0,1-2.43.86,3.47,3.47,0,0,1-2.67-1,6,6,0,0,1-1.53-4.45,7.09,7.09,0,0,1,1.63-5,3.46,3.46,0,0,1,2.55-1,3.37,3.37,0,0,1,2.4.89,6.11,6.11,0,0,1,1.44,4.28,8.15,8.15,0,0,1-.07,1.08h-5a5.82,5.82,0,0,0,0,.62,3.22,3.22,0,0,0,.45,1.94.82.82,0,0,0,.65.29,1,1,0,0,0,.62-.19,2.67,2.67,0,0,0,.48-1.5Zm-2.53-3a2.77,2.77,0,0,0-.5-1.8.91.91,0,0,0-.57-.22,1,1,0,0,0-.7.3,2.92,2.92,0,0,0-.48,1.72Z" transform="translate(0 0)"/>
    <path class="cls-2" d="M60.7,102.49a5,5,0,0,1-1.2,3.15,3.15,3.15,0,0,1-2.42.86,3.47,3.47,0,0,1-2.67-1,6,6,0,0,1-1.53-4.45,7.09,7.09,0,0,1,1.63-5,3.46,3.46,0,0,1,2.55-1,3.33,3.33,0,0,1,2.39.89,6.08,6.08,0,0,1,1.45,4.28,8.15,8.15,0,0,1-.07,1.08H55.88a5.82,5.82,0,0,0,0,.62,3.22,3.22,0,0,0,.45,1.94.82.82,0,0,0,.65.29,1,1,0,0,0,.62-.19,2.67,2.67,0,0,0,.48-1.5Zm-2.52-3a2.77,2.77,0,0,0-.5-1.8.91.91,0,0,0-.57-.22,1,1,0,0,0-.7.3,2.92,2.92,0,0,0-.48,1.72Z" transform="translate(0 0)"/>
    <path class="cls-2" d="M68,106.28l-1-1.92a7.61,7.61,0,0,1-.61-1.41,12.89,12.89,0,0,1-.64,1.48l-1,1.85h-3.2l3.2-5.91-2.77-5.09h3.22l.6,1.16a7.31,7.31,0,0,1,.62,1.6A6.56,6.56,0,0,1,67,96.36l.57-1.08h3.23L68,100.37l3.3,5.91Z" transform="translate(0 0)"/>
    <path class="cls-2" d="M75.3,96.63a2.34,2.34,0,0,1,2.1-1.55c2.63,0,3,3.74,3,5.66s-.45,5.76-3,5.76A2.4,2.4,0,0,1,75.3,105v6.32H72.18V95.28H75.3Zm.83,1.21c-1,0-1,2.29-1,3s.07,2.95,1.07,2.95,1.1-2.26,1.1-2.95S77.18,97.84,76.13,97.84Z" transform="translate(0 0)"/>
    <path class="cls-2" d="M86,106.5c-3.19,0-4.24-3-4.24-5.71s1-5.71,4.24-5.71,4.2,3,4.2,5.71S89.3,106.5,86,106.5Zm0-8.66c-1,0-1.1,2.24-1.1,3s.08,2.95,1.1,2.95,1-2.29,1-2.95S87,97.84,86,97.84Z" transform="translate(0 0)"/>
    <path class="cls-2" d="M97.1,98.26a2.1,2.1,0,0,0-1.47-.74.75.75,0,0,0-.8.79c0,1.32,3.5,1,3.5,4.37a3.51,3.51,0,0,1-3.53,3.82,5.51,5.51,0,0,1-3.39-1.26l1.37-2.19a2.43,2.43,0,0,0,1.53.69.91.91,0,0,0,1-.91c0-1.38-3.64-1.18-3.64-4.5,0-2.11,1.72-3.25,3.72-3.25a4.72,4.72,0,0,1,3,.94Z" transform="translate(0 0)"/>
    <path class="cls-2" d="M107.23,102.49a5,5,0,0,1-1.2,3.15,3.19,3.19,0,0,1-2.43.86,3.47,3.47,0,0,1-2.67-1,6,6,0,0,1-1.52-4.45,7.09,7.09,0,0,1,1.62-5,3.46,3.46,0,0,1,2.55-1A3.37,3.37,0,0,1,106,96a6.08,6.08,0,0,1,1.45,4.28,8.21,8.21,0,0,1-.08,1.08H102.4a5.82,5.82,0,0,0,0,.62,3.22,3.22,0,0,0,.45,1.94.82.82,0,0,0,.65.29,1,1,0,0,0,.62-.19,2.67,2.67,0,0,0,.48-1.5Zm-2.53-3a2.77,2.77,0,0,0-.5-1.8.91.91,0,0,0-.57-.22,1,1,0,0,0-.7.3,2.92,2.92,0,0,0-.48,1.72Z" transform="translate(0 0)"/>
    <path class="cls-2" d="M113.85,106.28V105a2.39,2.39,0,0,1-2.07,1.48c-2.58,0-3-3.89-3-5.76s.38-5.66,3-5.66a2.33,2.33,0,0,1,2.1,1.55V88.34H117v17.94ZM113,97.84c-1,0-1.1,2.26-1.1,3s.08,2.95,1.13,2.95,1-2.29,1-2.95S114,97.84,113,97.84Z" transform="translate(0 0)"/>
    <path class="cls-2" d="M126.88,96.56v9.72h-1.4V96.56h-1.2V95.28h1.2V92.16h1.4v3.12h1.87v1.28Z" transform="translate(0 0)"/>
    <path class="cls-2" d="M132.85,106.45c-2.87,0-3.27-3.54-3.27-5.68s.4-5.66,3.27-5.66,3.13,3.61,3.13,5.73S135.73,106.45,132.85,106.45Zm0-10.06c-1.73,0-1.78,3.34-1.78,4.5s.08,4.25,1.78,4.25,1.7-3.27,1.7-4.37S134.48,96.39,132.83,96.39Z" transform="translate(0 0)"/>
    <path class="cls-2" d="M145.58,91.27v5.78h3.55v1.4h-3.55v7.83H144V89.87h5.3v1.4Z" transform="translate(0 0)"/>
    <path class="cls-2" d="M157.08,106.28l-3.88-8v8h-1.7V89.87h2.1a6,6,0,0,1,2.88.47c1.5.78,1.8,2.41,1.8,3.93,0,2.26-.78,3.94-3.3,4.13l3.87,7.88Zm-2.85-9.23c2,0,2.32-1.15,2.32-2.88,0-1.89-.4-2.9-2.52-2.9h-.83v5.78Z" transform="translate(0 0)"/>
    <path class="cls-2" d="M163,91.27v15h-1.55v-15h-2.5v-1.4h6.55v1.4Z" transform="translate(0 0)"/>
    <path class="cls-2" d="M170.25,97.52a2.63,2.63,0,0,0-1.92-1.13A1.38,1.38,0,0,0,167,97.84c0,2.14,3.6,2.53,3.6,5.51a3,3,0,0,1-3,3.1,3.39,3.39,0,0,1-2.07-.77v-1.62a2.83,2.83,0,0,0,2,1.08,1.61,1.61,0,0,0,1.63-1.69c0-2.17-3.6-2.91-3.6-5.56a2.68,2.68,0,0,1,2.77-2.78,3.36,3.36,0,0,1,2,.71Z" transform="translate(0 0)"/>
    <path class="cls-2" d="M172.23,109.77l-1.08-.49,1.73-5,1.55.69Z" transform="translate(0 0)"/>
    <path class="cls-2" d="M188.15,102.54c-.07,1.77-.62,3.91-2.82,3.91-2.88,0-3.25-3.52-3.25-5.64s.42-5.7,3.15-5.7,3,3.32,3,5.26c0,.22,0,.47,0,.69H183.5v.25c0,1.1.18,3.83,1.78,3.83,1.25,0,1.42-1.67,1.45-2.6Zm-1.3-2.66c0-1-.17-3.49-1.6-3.49s-1.67,2.48-1.72,3.49Z" transform="translate(0 0)"/>
    <path class="cls-2" d="M191.28,106.45a1.15,1.15,0,0,1-1.13-1.11,1.13,1.13,0,1,1,1.13,1.11Z" transform="translate(0 0)"/>
    <path class="cls-2" d="M200.53,107.48c0,2-.78,3.22-2.93,3.22-1.95,0-2.9-1.2-2.9-3a1.93,1.93,0,0,1,0-.42h1.42c0,1.11.13,2.17,1.53,2.17s1.42-1.08,1.42-2.14v-1.77a2.22,2.22,0,0,1-1.77.79c-2.83,0-2.85-3.74-2.85-5.74,0-1.84.2-5.43,2.77-5.43a2.23,2.23,0,0,1,1.85.93v-.76h1.43Zm-3-11.24c-1.5,0-1.62,2.53-1.62,4.82,0,1.18,0,4.08,1.75,4.08,1.25,0,1.42-1.45,1.5-2.36s.07-1.77.07-2.65C199.25,99,199.25,96.24,197.55,96.24Z" transform="translate(0 0)"/>
    <path class="cls-2" d="M204,106.45a1.15,1.15,0,0,1-1.13-1.11,1.13,1.13,0,1,1,1.13,1.11Z" transform="translate(0 0)"/>
    <path class="cls-2" d="M207.43,109.77l-1.08-.49,1.73-5,1.55.69Z" transform="translate(0 0)"/>
    <path class="cls-2" d="M224.72,106.28h-1.45c-.47-3.06-1-6.1-1.42-9.15-.1.59-.13,1.13-.23,1.72l-1.22,7.43H219l-2.25-11h1.43l1.25,6.67c.15.76.24,1.55.32,2.31A22.81,22.81,0,0,1,220,102l1.12-6.72h1.45c.47,3,1.05,6,1.4,9,.12-.76.22-1.55.37-2.34l1.38-6.64h1.42Z" transform="translate(0 0)"/>
    <path class="cls-2" d="M233,106.28v-8c0-.88,0-2-1.25-2a1.57,1.57,0,0,0-1.32.71,3.46,3.46,0,0,0-.37,1.92v7.41h-1.4V88.34h1.4v7.83a2.9,2.9,0,0,1,2.17-1.06c1.82,0,2.17,1.28,2.17,2.83v8.34Z" transform="translate(0 0)"/>
    <path class="cls-2" d="M237.62,92.85a1,1,0,1,1,1-1A1,1,0,0,1,237.62,92.85Zm-.72,13.43v-11h1.43v11Z" transform="translate(0 0)"/>
    <path class="cls-2" d="M240.8,106.28V88.34h1.43v17.94Z" transform="translate(0 0)"/>
    <path class="cls-2" d="M250.37,102.54c-.07,1.77-.62,3.91-2.82,3.91-2.87,0-3.25-3.52-3.25-5.64s.43-5.7,3.15-5.7,3,3.32,3,5.26c0,.22,0,.47,0,.69h-4.73v.25c0,1.1.18,3.83,1.78,3.83,1.25,0,1.42-1.67,1.45-2.6Zm-1.3-2.66c0-1-.17-3.49-1.6-3.49s-1.67,2.48-1.72,3.49Z" transform="translate(0 0)"/>
    <path class="cls-2" d="M32.66,127a2.65,2.65,0,0,0-1.93-1.13,1.38,1.38,0,0,0-1.37,1.45c0,2.14,3.6,2.54,3.6,5.51a3,3,0,0,1-3,3.1,3.41,3.41,0,0,1-2.08-.76v-1.62a2.89,2.89,0,0,0,2,1.08,1.61,1.61,0,0,0,1.62-1.7c0-2.16-3.6-2.9-3.6-5.56a2.68,2.68,0,0,1,2.78-2.78,3.33,3.33,0,0,1,2,.72Z" transform="translate(0 0)"/>
    <path class="cls-2" d="M44.85,135.79h-1.4v-8.14c0-.91-.15-1.9-1.3-1.9-1.62,0-1.69,1.8-1.69,3v7H39v-8.12c0-.81-.07-1.92-1.17-1.92-1.75,0-1.8,2-1.8,3.23v6.81h-1.4v-11h1.4v.91a3,3,0,0,1,2.17-1.08,2.2,2.2,0,0,1,2.05,1.28,2.71,2.71,0,0,1,2.3-1.28c1.8,0,2.27,1.16,2.27,2.73Z" transform="translate(0 0)"/>
    <path class="cls-2" d="M51.61,135.79v-.89a2.21,2.21,0,0,1-1.9,1.06c-2.55,0-2.63-3.52-2.63-5.46,0-2.24.08-5.88,2.75-5.88a2.09,2.09,0,0,1,1.78.91v-.74H53v11Zm-1.43-10.06c-1.62,0-1.65,2.8-1.65,3.91,0,.91,0,1.77.08,2.66s.25,2.53,1.55,2.53a1.12,1.12,0,0,0,.9-.37c.7-.69.7-3.27.7-4.23C51.76,128,51.63,125.73,50.18,125.73Z" transform="translate(0 0)"/>
    <path class="cls-2" d="M58.83,126.22c-1.87,0-1.9,1.48-1.9,2.9v6.67h-1.4v-11h1.4v1.43a2.32,2.32,0,0,1,1.9-1.6Z" transform="translate(0 0)"/>
    <path class="cls-2" d="M62.61,126.07v9.72h-1.4v-9.72H60v-1.28h1.2v-3.12h1.4v3.12h1.87v1.28Z" transform="translate(0 0)"/>
    <path class="cls-2" d="M67.16,125.53a2,2,0,0,1,1.77-.91c2.75,0,2.77,3.47,2.77,5.46,0,2.36-.07,5.88-2.62,5.88a2.33,2.33,0,0,1-1.92-1.06v5.32h-1.4V124.79h1.4Zm1.45.2c-1.45,0-1.58,2.31-1.58,4.5,0,1,0,3.54.7,4.23a1.12,1.12,0,0,0,.9.37c1.3,0,1.45-1.57,1.55-2.53s.07-1.72.07-2.59C70.25,128.61,70.23,125.73,68.61,125.73Z" transform="translate(0 0)"/>
    <path class="cls-2" d="M78.13,135.79v-8c0-.89,0-2-1.25-2a1.56,1.56,0,0,0-1.32.72,3.36,3.36,0,0,0-.38,1.92v7.4h-1.4V117.86h1.4v7.82a3,3,0,0,1,2.17-1.06c1.83,0,2.18,1.28,2.18,2.83v8.34Z" transform="translate(0 0)"/>
    <path class="cls-2" d="M84.58,136c-2.87,0-3.27-3.54-3.27-5.68s.4-5.66,3.27-5.66,3.12,3.62,3.12,5.73S87.45,136,84.58,136Zm0-10.06c-1.73,0-1.78,3.35-1.78,4.5s.08,4.26,1.78,4.26,1.69-3.27,1.69-4.38S86.2,125.9,84.56,125.9Z" transform="translate(0 0)"/>
    <path class="cls-2" d="M94.15,135.79v-8c0-.89,0-2-1.24-2a1.58,1.58,0,0,0-1.33.72,3.41,3.41,0,0,0-.37,1.92v7.4h-1.4v-11h1.4v.89a3,3,0,0,1,2.17-1.06c1.87,0,2.17,1.53,2.17,3v8.14Z" transform="translate(0 0)"/>
    <path class="cls-2" d="M103.7,132.05c-.07,1.77-.62,3.91-2.82,3.91-2.87,0-3.25-3.52-3.25-5.63s.43-5.71,3.15-5.71,3,3.32,3,5.27c0,.22,0,.46,0,.69H99.06v.24c0,1.11.17,3.84,1.77,3.84,1.25,0,1.42-1.67,1.45-2.61Zm-1.3-2.66c-.05-1-.17-3.49-1.6-3.49s-1.67,2.49-1.72,3.49Z" transform="translate(0 0)"/>
    <path class="cls-2" d="M117.5,133.11a2.9,2.9,0,0,1-5.8,0v-8.32h1.4v7.46c0,1.13.05,2.41,1.55,2.41s1.45-1.48,1.45-2.56v-7.31h1.4Z" transform="translate(0 0)"/>
    <path class="cls-2" d="M124.23,127a2.65,2.65,0,0,0-1.93-1.13,1.38,1.38,0,0,0-1.37,1.45c0,2.14,3.6,2.54,3.6,5.51a3,3,0,0,1-3,3.1,3.41,3.41,0,0,1-2.08-.76v-1.62a2.89,2.89,0,0,0,2,1.08,1.61,1.61,0,0,0,1.62-1.7c0-2.16-3.6-2.9-3.6-5.56a2.68,2.68,0,0,1,2.78-2.78,3.33,3.33,0,0,1,2,.72Z" transform="translate(0 0)"/>
    <path class="cls-2" d="M130.48,135.79v-.89a2.21,2.21,0,0,1-1.9,1.06c-2.55,0-2.63-3.52-2.63-5.46,0-2.24.08-5.88,2.75-5.88a2.09,2.09,0,0,1,1.78.91v-.74h1.42v11Zm-1.43-10.06c-1.62,0-1.65,2.8-1.65,3.91,0,.91,0,1.77.08,2.66s.25,2.53,1.55,2.53a1.12,1.12,0,0,0,.9-.37c.7-.69.7-3.27.7-4.23C130.63,128,130.5,125.73,129.05,125.73Z" transform="translate(0 0)"/>
    <path class="cls-2" d="M140.18,137c0,2-.78,3.23-2.93,3.23-1.95,0-2.9-1.21-2.9-3.05a1.84,1.84,0,0,1,0-.42h1.42c0,1.11.13,2.16,1.53,2.16s1.42-1.08,1.42-2.14V135a2.22,2.22,0,0,1-1.77.79c-2.83,0-2.85-3.74-2.85-5.73s.2-5.44,2.77-5.44a2.21,2.21,0,0,1,1.85.94v-.77h1.43Zm-3-11.24c-1.5,0-1.62,2.54-1.62,4.83,0,1.18,0,4.08,1.75,4.08,1.25,0,1.42-1.45,1.5-2.36s.07-1.77.07-2.66C138.9,128.48,138.9,125.75,137.2,125.75Z" transform="translate(0 0)"/>
    <path class="cls-2" d="M148.28,132.05c-.08,1.77-.63,3.91-2.83,3.91-2.87,0-3.25-3.52-3.25-5.63s.43-5.71,3.15-5.71,3,3.32,3,5.27c0,.22,0,.46,0,.69h-4.72v.24c0,1.11.17,3.84,1.77,3.84,1.25,0,1.43-1.67,1.45-2.61Zm-1.3-2.66c0-1-.18-3.49-1.6-3.49s-1.68,2.49-1.73,3.49Z" transform="translate(0 0)"/>
    <path class="cls-2" d="M151.4,136a1.13,1.13,0,0,1-1.12-1.1,1.13,1.13,0,1,1,1.12,1.1Z" transform="translate(0 0)"/>
    <path class="cls-2" d="M166.4,122a3.09,3.09,0,0,0-2.47-1.33,2.47,2.47,0,0,0-2.4,2.68c0,3.79,5.7,3.54,5.7,8.09a4.38,4.38,0,0,1-4.18,4.63,4.51,4.51,0,0,1-2.62-.86v-2a3.79,3.79,0,0,0,2.7,1.33,2.69,2.69,0,0,0,2.52-2.93c0-3.76-5.7-3.49-5.7-8.09,0-2.24,1.4-4.36,3.85-4.36a4.28,4.28,0,0,1,2.6.89Z" transform="translate(0 0)"/>
    <path class="cls-2" d="M174.5,132.05c-.07,1.77-.62,3.91-2.82,3.91-2.88,0-3.25-3.52-3.25-5.63s.42-5.71,3.15-5.71,3,3.32,3,5.27c0,.22,0,.46,0,.69h-4.73v.24c0,1.11.18,3.84,1.78,3.84,1.25,0,1.42-1.67,1.45-2.61Zm-1.3-2.66c0-1-.17-3.49-1.6-3.49s-1.67,2.49-1.72,3.49Z" transform="translate(0 0)"/>
    <path class="cls-2" d="M181.08,135.4a2.77,2.77,0,0,1-1.6.56c-2.63,0-3.23-3.52-3.23-5.48s.45-5.86,3.3-5.86a3.12,3.12,0,0,1,1.53.42v1.62a2,2,0,0,0-1.4-.76c-1.78,0-2,3.22-2,4.45s.22,4.31,1.92,4.31a1.91,1.91,0,0,0,1.43-1Z" transform="translate(0 0)"/>
    <path class="cls-2" d="M185.68,136c-2.88,0-3.28-3.54-3.28-5.68s.4-5.66,3.28-5.66,3.12,3.62,3.12,5.73S188.55,136,185.68,136Zm0-10.06c-1.72,0-1.77,3.35-1.77,4.5s.07,4.26,1.77,4.26,1.7-3.27,1.7-4.38S187.3,125.9,185.65,125.9Z" transform="translate(0 0)"/>
    <path class="cls-2" d="M195.25,135.79v-8c0-.89,0-2-1.25-2a1.56,1.56,0,0,0-1.32.72,3.33,3.33,0,0,0-.38,1.92v7.4h-1.4v-11h1.4v.89a3,3,0,0,1,2.18-1.06c1.87,0,2.17,1.53,2.17,3v8.14Z" transform="translate(0 0)"/>
    <path class="cls-2" d="M203.28,135.79v-.89a2.24,2.24,0,0,1-1.93,1.06c-2.57,0-2.62-3.66-2.62-5.58,0-2.14,0-5.76,2.77-5.76a2.09,2.09,0,0,1,1.78.91v-7.67h1.4v17.93Zm-1.45-10.06c-1.6,0-1.63,2.83-1.63,3.91,0,.91,0,1.77.08,2.66s.22,2.53,1.52,2.53a1.17,1.17,0,0,0,.93-.37c.67-.66.67-3.25.67-4.16C203.4,128,203.28,125.73,201.83,125.73Z" transform="translate(0 0)"/>
    <path class="cls-2" d="M207.15,139.28l-1.07-.49,1.72-5,1.55.69Z" transform="translate(0 0)"/>
    <path class="cls-2" d="M219.25,126.07v9.72h-1.4v-9.72h-1.2v-1.28h1.2v-3.12h1.4v3.12h1.88v1.28Z" transform="translate(0 0)"/>
    <path class="cls-2" d="M226.75,135.79v-8c0-.89,0-2-1.25-2a1.56,1.56,0,0,0-1.32.72,3.36,3.36,0,0,0-.38,1.92v7.4h-1.4V117.86h1.4v7.82a3,3,0,0,1,2.18-1.06c1.82,0,2.17,1.28,2.17,2.83v8.34Z" transform="translate(0 0)"/>
    <path class="cls-2" d="M236,132.05c-.07,1.77-.62,3.91-2.82,3.91-2.87,0-3.25-3.52-3.25-5.63s.43-5.71,3.15-5.71,3,3.32,3,5.27c0,.22,0,.46,0,.69h-4.72v.24c0,1.11.17,3.84,1.77,3.84,1.25,0,1.42-1.67,1.45-2.61Zm-1.3-2.66c-.05-1-.17-3.49-1.6-3.49s-1.67,2.49-1.72,3.49Z" transform="translate(0 0)"/>
    <path class="cls-2" d="M245.85,126.07v9.72h-1.4v-9.72h-1.27v-1.28h1.27v-4.4c0-1.4.38-2.8,2.07-2.8a3.16,3.16,0,0,1,1.25.24v1.53a1.64,1.64,0,0,0-1-.49c-.83,0-.9.73-.9,1.35v4.57h1.92v1.28Z" transform="translate(0 0)"/>
    <path class="cls-2" d="M252.42,126.22c-1.87,0-1.9,1.48-1.9,2.9v6.67h-1.4v-11h1.4v1.43a2.32,2.32,0,0,1,1.9-1.6Z" transform="translate(0 0)"/>
    <path class="cls-2" d="M259.5,132.05c-.08,1.77-.63,3.91-2.83,3.91-2.87,0-3.24-3.52-3.24-5.63s.42-5.71,3.14-5.71,3,3.32,3,5.27c0,.22,0,.46,0,.69h-4.72v.24c0,1.11.18,3.84,1.77,3.84,1.25,0,1.43-1.67,1.45-2.61Zm-1.3-2.66c-.05-1-.18-3.49-1.6-3.49s-1.68,2.49-1.72,3.49Z" transform="translate(0 0)"/>
    <path class="cls-2" d="M265.92,140.22V134.9A2.19,2.19,0,0,1,264,136c-2.55,0-2.62-3.52-2.62-5.46,0-2.26,0-5.88,2.75-5.88a2.07,2.07,0,0,1,1.77.91v-.74h1.43v15.43Zm-1.42-14.49c-1.63,0-1.65,2.8-1.65,3.91,0,.91,0,1.77.07,2.66s.25,2.53,1.55,2.53a1.11,1.11,0,0,0,.9-.37c.7-.69.7-3.27.7-4.23C266.07,127.92,265.92,125.73,264.5,125.73Z" transform="translate(0 0)"/>
    <path class="cls-2" d="M275.57,133.11a2.9,2.9,0,0,1-5.79,0v-8.32h1.39v7.46c0,1.13.05,2.41,1.55,2.41s1.45-1.48,1.45-2.56v-7.31h1.4Z" transform="translate(0 0)"/>
    <path class="cls-2" d="M283.72,132.05c-.07,1.77-.62,3.91-2.82,3.91-2.88,0-3.25-3.52-3.25-5.63s.42-5.71,3.15-5.71,3,3.32,3,5.27c0,.22,0,.46,0,.69h-4.73v.24c0,1.11.18,3.84,1.78,3.84,1.25,0,1.42-1.67,1.45-2.61Zm-1.3-2.66c-.05-1-.17-3.49-1.6-3.49s-1.67,2.49-1.72,3.49Z" transform="translate(0 0)"/>
    <path class="cls-2" d="M290.25,135.79v-8c0-.89,0-2-1.25-2a1.58,1.58,0,0,0-1.33.72,3.41,3.41,0,0,0-.37,1.92v7.4h-1.4v-11h1.4v.89a3,3,0,0,1,2.17-1.06c1.88,0,2.18,1.53,2.18,3v8.14Z" transform="translate(0 0)"/>
    <path class="cls-2" d="M298.55,135.4a2.77,2.77,0,0,1-1.6.56c-2.63,0-3.23-3.52-3.23-5.48s.45-5.86,3.3-5.86a3.12,3.12,0,0,1,1.53.42v1.62a2,2,0,0,0-1.4-.76c-1.78,0-1.95,3.22-1.95,4.45s.22,4.31,1.92,4.31a1.91,1.91,0,0,0,1.43-1Z" transform="translate(0 0)"/>
    <path class="cls-2" d="M302.52,140.22H301l1.25-4.73-2.65-10.7h1.43l1.4,6.1a27.29,27.29,0,0,1,.52,2.76c.1-.69.28-1.35.45-2.07l1.63-6.79h1.47Z" transform="translate(0 0)"/>
    <path class="cls-2" d="M31.28,165.48c-2.87,0-3.27-3.55-3.27-5.69s.4-5.65,3.27-5.65,3.13,3.61,3.13,5.73S34.16,165.48,31.28,165.48Zm0-10.06c-1.73,0-1.78,3.34-1.78,4.5s.08,4.25,1.78,4.25,1.7-3.27,1.7-4.38S32.91,155.42,31.26,155.42Z" transform="translate(0 0)"/>
    <path class="cls-2" d="M38.33,155.59v9.71h-1.4v-9.71H35.66v-1.28h1.27v-4.4c0-1.41.38-2.81,2.08-2.81a3.21,3.21,0,0,1,1.25.25v1.52a1.72,1.72,0,0,0-1-.49c-.82,0-.9.74-.9,1.35v4.58h1.93v1.28Z" transform="translate(0 0)"/>
    <path class="cls-2" d="M49.11,150.3v5.78h3.55v1.4H49.11v7.82H47.56V148.9h5.29v1.4Z" transform="translate(0 0)"/>
    <path class="cls-2" d="M60.6,165.3l-3.87-8v8H55V148.9h2.1a6.06,6.06,0,0,1,2.87.46c1.5.79,1.8,2.42,1.8,3.94,0,2.26-.77,3.94-3.29,4.13l3.87,7.87Zm-2.84-9.22c2,0,2.32-1.16,2.32-2.88,0-1.89-.4-2.9-2.52-2.9h-.83v5.78Z" transform="translate(0 0)"/>
    <path class="cls-2" d="M66.51,150.3v15H65v-15h-2.5v-1.4H69v1.4Z" transform="translate(0 0)"/>
    <path class="cls-2" d="M73.78,156.55a2.63,2.63,0,0,0-1.92-1.13,1.38,1.38,0,0,0-1.38,1.45c0,2.14,3.6,2.53,3.6,5.51a3,3,0,0,1-3,3.1,3.39,3.39,0,0,1-2.07-.77v-1.62a2.83,2.83,0,0,0,2,1.08,1.62,1.62,0,0,0,1.63-1.7c0-2.16-3.6-2.9-3.6-5.55a2.68,2.68,0,0,1,2.77-2.78,3.36,3.36,0,0,1,2,.71Z" transform="translate(0 0)"/>
    <path class="cls-2" d="M89.18,161.74a3.41,3.41,0,0,1-.53,2.09,4.12,4.12,0,0,1-3.42,1.7,4,4,0,0,1-3.42-1.73,3.28,3.28,0,0,1-.45-1.89v-7.6h3.12v6.76c0,.54,0,1.6.77,1.6,1,0,.78-1.47.78-2.06v-6.3h3.15Z" transform="translate(0 0)"/>
    <path class="cls-2" d="M96.4,157.29a2.1,2.1,0,0,0-1.47-.74.75.75,0,0,0-.8.78c0,1.33,3.5,1.06,3.5,4.38a3.51,3.51,0,0,1-3.53,3.82,5.51,5.51,0,0,1-3.39-1.26l1.37-2.19a2.4,2.4,0,0,0,1.52.69.92.92,0,0,0,1-.91c0-1.38-3.64-1.18-3.64-4.5,0-2.12,1.72-3.25,3.72-3.25a4.72,4.72,0,0,1,3,.94Z" transform="translate(0 0)"/>
    <path class="cls-2" d="M106.53,161.52a5,5,0,0,1-1.2,3.14,3.16,3.16,0,0,1-2.43.87,3.47,3.47,0,0,1-2.67-1,6,6,0,0,1-1.52-4.45,7.09,7.09,0,0,1,1.62-5,3.46,3.46,0,0,1,2.55-1,3.37,3.37,0,0,1,2.4.89,6.08,6.08,0,0,1,1.45,4.28,8.21,8.21,0,0,1-.08,1.08h-5a5.72,5.72,0,0,0,0,.61,3.23,3.23,0,0,0,.45,1.95.86.86,0,0,0,.65.29,1,1,0,0,0,.62-.19,2.67,2.67,0,0,0,.48-1.5ZM104,158.47a2.77,2.77,0,0,0-.5-1.8.91.91,0,0,0-.57-.22,1,1,0,0,0-.7.29,3,3,0,0,0-.48,1.73Z" transform="translate(0 0)"/>
    <path class="cls-2" d="M115.83,152.66a1.95,1.95,0,1,1,2-1.94A2,2,0,0,1,115.83,152.66Zm-1.58,12.64v-11h3.13v11Z" transform="translate(0 0)"/>
    <path class="cls-2" d="M124.08,165.3v-6.74c0-.49,0-1.37-.75-1.37-.9,0-.85,1.13-.85,1.74v6.37h-3.13v-11h3.13V156a3,3,0,0,1,2.65-1.92c1.92,0,2.07,1.77,2.07,3.25v7.94Z" transform="translate(0 0)"/>
    <path class="cls-2" d="M138.15,155.66a2.34,2.34,0,0,1,2.1-1.55c2.63,0,3,3.74,3,5.66s-.45,5.76-3,5.76a2.4,2.4,0,0,1-2.08-1.48v6.32H135V154.31h3.12Zm.83,1.21c-1,0-1,2.28-1,2.95s.07,3,1.07,3,1.1-2.26,1.1-3S140,156.87,139,156.87Z" transform="translate(0 0)"/>
    <path class="cls-2" d="M150.63,156.89a3.44,3.44,0,0,0-.45,0c-1.88,0-2.13,1-2.13,2.63v5.83h-3.12v-11h3.12v1.35a3.4,3.4,0,0,1,2.58-1.74Z" transform="translate(0 0)"/>
    <path class="cls-2" d="M153.5,152.66a1.95,1.95,0,1,1,2-1.94A1.94,1.94,0,0,1,153.5,152.66Zm-1.57,12.64v-11h3.12v11Z" transform="translate(0 0)"/>
    <path class="cls-2" d="M162,165.3h-2.88l-3.2-11H159c.52,2.07,1.1,4.13,1.52,6.22.08-.47.23-.91.33-1.35l1.15-4.87h3.25Z" transform="translate(0 0)"/>
    <path class="cls-2" d="M170.8,165.3v-1.25a2.39,2.39,0,0,1-2.07,1.48c-2.58,0-3-3.89-3-5.76s.38-5.66,3-5.66a2.33,2.33,0,0,1,2.1,1.55v-1.35h3.13v11Zm-.85-8.43c-1,0-1.1,2.26-1.1,2.95s.08,3,1.13,3,1.05-2.29,1.05-3S171,156.87,170,156.87Z" transform="translate(0 0)"/>
    <path class="cls-2" d="M179.35,156.87v8.43h-3.12v-8.43h-1.08v-2.56h1.08v-3.13h3.12v3.13h1.28v2.56Z" transform="translate(0 0)"/>
    <path class="cls-2" d="M189.15,161.52a4.9,4.9,0,0,1-1.2,3.14,3.13,3.13,0,0,1-2.42.87,3.48,3.48,0,0,1-2.68-1,6,6,0,0,1-1.52-4.45,7.09,7.09,0,0,1,1.62-5,3.48,3.48,0,0,1,2.55-1,3.34,3.34,0,0,1,2.4.89,6.08,6.08,0,0,1,1.45,4.28,8.15,8.15,0,0,1-.07,1.08h-4.95a3.83,3.83,0,0,0,0,.61,3.23,3.23,0,0,0,.45,1.95.87.87,0,0,0,.65.29A1,1,0,0,0,186,163a2.58,2.58,0,0,0,.47-1.5Zm-2.52-3.05a2.77,2.77,0,0,0-.5-1.8.94.94,0,0,0-.58-.22,1,1,0,0,0-.7.29,3,3,0,0,0-.47,1.73Z" transform="translate(0 0)"/>
    <path class="cls-2" d="M202.35,165.13a4.05,4.05,0,0,1-1.77.4c-3,0-4.08-3.1-4.08-5.59,0-2.68,1-5.85,4.28-5.85a3.84,3.84,0,0,1,1.57.32v2.7a1.19,1.19,0,0,0-.87-.37c-1.5,0-1.83,1.85-1.83,3s.25,2.93,1.78,2.93a1.65,1.65,0,0,0,.92-.32Z" transform="translate(0 0)"/>
    <path class="cls-2" d="M207.78,165.53c-3.2,0-4.25-3.06-4.25-5.71s1.05-5.71,4.25-5.71,4.2,3,4.2,5.71S211.08,165.53,207.78,165.53Zm0-8.66c-1,0-1.1,2.24-1.1,2.95s.07,3,1.1,3,1.05-2.29,1.05-3S208.75,156.87,207.78,156.87Z" transform="translate(0 0)"/>
    <path class="cls-2" d="M218.38,165.3v-6.74c0-.49,0-1.37-.75-1.37-.9,0-.85,1.13-.85,1.74v6.37h-3.13v-11h3.13V156a3,3,0,0,1,2.65-1.92c1.92,0,2.07,1.77,2.07,3.25v7.94Z" transform="translate(0 0)"/>
    <path class="cls-2" d="M226.93,156.87v8.43H223.8v-8.43h-1.07v-2.56h1.07v-3.13h3.13v3.13h1.27v2.56Z" transform="translate(0 0)"/>
    <path class="cls-2" d="M236.73,161.52a5,5,0,0,1-1.2,3.14,3.16,3.16,0,0,1-2.43.87,3.47,3.47,0,0,1-2.67-1,6,6,0,0,1-1.53-4.45,7.09,7.09,0,0,1,1.63-5,3.46,3.46,0,0,1,2.55-1,3.37,3.37,0,0,1,2.4.89,6.08,6.08,0,0,1,1.45,4.28,8.21,8.21,0,0,1-.08,1.08H231.9a5.72,5.72,0,0,0,0,.61,3.23,3.23,0,0,0,.45,1.95.86.86,0,0,0,.65.29,1,1,0,0,0,.62-.19,2.67,2.67,0,0,0,.48-1.5Zm-2.53-3.05a2.77,2.77,0,0,0-.5-1.8.91.91,0,0,0-.57-.22,1,1,0,0,0-.7.29,3,3,0,0,0-.48,1.73Z" transform="translate(0 0)"/>
    <path class="cls-2" d="M244,165.3l-1-1.91a7.86,7.86,0,0,1-.6-1.41,14.87,14.87,0,0,1-.65,1.48l-1,1.84h-3.2l3.2-5.9-2.77-5.09h3.22l.6,1.16a8,8,0,0,1,.63,1.59,6.27,6.27,0,0,1,.67-1.67l.58-1.08h3.22L244,159.4l3.3,5.9Z" transform="translate(0 0)"/>
    <path class="cls-2" d="M251.63,156.87v8.43H248.5v-8.43h-1.07v-2.56h1.07v-3.13h3.13v3.13h1.27v2.56Z" transform="translate(0 0)"/>
    <path class="cls-2" d="M264.55,165.3v-1.25a2.39,2.39,0,0,1-2.07,1.48c-2.58,0-3-3.89-3-5.76s.38-5.66,3-5.66a2.33,2.33,0,0,1,2.1,1.55v-1.35h3.12v11Zm-.85-8.43c-1,0-1.1,2.26-1.1,2.95s.08,3,1.13,3,1-2.29,1-3S264.7,156.87,263.7,156.87Z" transform="translate(0 0)"/>
    <path class="cls-2" d="M274.4,165.3v-6.74c0-.49,0-1.37-.75-1.37-.9,0-.85,1.13-.85,1.74v6.37h-3.12v-11h3.12V156a3,3,0,0,1,2.65-1.92c1.93,0,2.07,1.77,2.07,3.25v7.94Z" transform="translate(0 0)"/>
    <path class="cls-2" d="M284.3,165.3v-1.25a2.39,2.39,0,0,1-2.07,1.48c-2.58,0-3-3.89-3-5.76s.38-5.66,3-5.66a2.33,2.33,0,0,1,2.1,1.55v-8.29h3.12V165.3Zm-.85-8.43c-1,0-1.1,2.26-1.1,2.95s.08,3,1.13,3,1-2.29,1-3S284.45,156.87,283.45,156.87Z" transform="translate(0 0)"/>
    <path class="cls-2" d="M31.66,186.38v8.44H28.53v-8.44H27.38v-2.56h1.15v-3.71a4.11,4.11,0,0,1,.33-2,3.14,3.14,0,0,1,2.87-1.48,4.14,4.14,0,0,1,1.35.25v3a1.08,1.08,0,0,0-.55-.17c-.8,0-.87.73-.87,1.35v2.8h1.42v2.56Z" transform="translate(0 0)"/>
    <path class="cls-2" d="M39.91,186.41a2.3,2.3,0,0,0-.45,0c-1.88,0-2.13,1-2.13,2.63v5.83H34.21v-11h3.12v1.36a3.44,3.44,0,0,1,2.58-1.75Z" transform="translate(0 0)"/>
    <path class="cls-2" d="M48.58,191a5,5,0,0,1-1.2,3.15A3.15,3.15,0,0,1,45,195a3.51,3.51,0,0,1-2.68-1,6.06,6.06,0,0,1-1.52-4.46,7.1,7.1,0,0,1,1.62-5,3.51,3.51,0,0,1,2.55-1,3.33,3.33,0,0,1,2.4.88,6.09,6.09,0,0,1,1.45,4.28,10,10,0,0,1-.07,1.08h-5a4,4,0,0,0,0,.62,3.22,3.22,0,0,0,.45,1.94.85.85,0,0,0,.65.3,1,1,0,0,0,.63-.2,2.58,2.58,0,0,0,.47-1.5ZM46.06,188a2.77,2.77,0,0,0-.5-1.8A1,1,0,0,0,45,186a1,1,0,0,0-.7.3,3,3,0,0,0-.47,1.72Z" transform="translate(0 0)"/>
    <path class="cls-2" d="M55.21,199.89v-6.33A2.39,2.39,0,0,1,53.13,195c-2.57,0-3-3.89-3-5.76s.37-5.65,3-5.65a2.33,2.33,0,0,1,2.1,1.55v-1.36h3.12v16.07Zm-.85-13.51c-1,0-1.1,2.26-1.1,3s.07,2.95,1.12,2.95,1-2.28,1-2.95S55.35,186.38,54.36,186.38Z" transform="translate(0 0)"/>
    <path class="cls-2" d="M68.15,191.25a3.41,3.41,0,0,1-.52,2.09,4.1,4.1,0,0,1-3.42,1.7,4,4,0,0,1-3.43-1.72,3.39,3.39,0,0,1-.45-1.9v-7.6h3.13v6.77c0,.54,0,1.6.77,1.6,1,0,.78-1.48.78-2.07v-6.3h3.14Z" transform="translate(0 0)"/>
    <path class="cls-2" d="M77.63,191a5,5,0,0,1-1.2,3.15A3.19,3.19,0,0,1,74,195a3.5,3.5,0,0,1-2.67-1,6.06,6.06,0,0,1-1.52-4.46,7.1,7.1,0,0,1,1.62-5,3.51,3.51,0,0,1,2.55-1,3.37,3.37,0,0,1,2.4.88,6.09,6.09,0,0,1,1.45,4.28,8,8,0,0,1-.08,1.08H72.81a4,4,0,0,0,0,.62,3.22,3.22,0,0,0,.45,1.94.85.85,0,0,0,.65.3,1,1,0,0,0,.62-.2A2.59,2.59,0,0,0,75,191ZM75.1,188a2.72,2.72,0,0,0-.5-1.8A1,1,0,0,0,74,186a1,1,0,0,0-.7.3,3,3,0,0,0-.47,1.72Z" transform="translate(0 0)"/>
    <path class="cls-2" d="M84.2,194.82v-6.74c0-.49,0-1.38-.75-1.38-.89,0-.85,1.13-.85,1.75v6.37H79.48v-11H82.6v1.72a3,3,0,0,1,2.65-1.91c1.93,0,2.08,1.77,2.08,3.24v7.95Z" transform="translate(0 0)"/>
    <path class="cls-2" d="M94.85,194.65a4,4,0,0,1-1.77.39c-3,0-4.07-3.1-4.07-5.58,0-2.69,1-5.86,4.27-5.86a3.84,3.84,0,0,1,1.57.32v2.71a1.16,1.16,0,0,0-.87-.37c-1.5,0-1.82,1.84-1.82,3s.25,2.93,1.77,2.93a1.58,1.58,0,0,0,.92-.32Z" transform="translate(0 0)"/>
    <path class="cls-2" d="M100.13,199.89H97.06l1.72-5.29-3.25-10.78h3.12l1.08,4a17.32,17.32,0,0,1,.5,2.27l1.47-6.28h3.13Z" transform="translate(0 0)"/>
    <path class="cls-2" d="M115.5,195c-3.2,0-4.25-3-4.25-5.71s1-5.7,4.25-5.7,4.2,3,4.2,5.7S118.8,195,115.5,195Zm0-8.66c-1,0-1.1,2.24-1.1,3s.08,2.95,1.1,2.95,1-2.28,1-2.95S116.48,186.38,115.5,186.38Z" transform="translate(0 0)"/>
    <path class="cls-2" d="M124.85,186.38v8.44h-3.12v-8.44h-1.15v-2.56h1.15v-3.71a4.11,4.11,0,0,1,.33-2,3.14,3.14,0,0,1,2.87-1.48,4.19,4.19,0,0,1,1.35.25v3a1.11,1.11,0,0,0-.55-.17c-.8,0-.88.73-.88,1.35v2.8h1.43v2.56Z" transform="translate(0 0)"/>
    <path class="cls-2" d="M137.15,195c-3.2,0-4.25-3-4.25-5.71s1-5.7,4.25-5.7,4.2,3,4.2,5.7S140.45,195,137.15,195Zm0-8.66c-1,0-1.1,2.24-1.1,3s.08,2.95,1.1,2.95,1-2.28,1-2.95S138.13,186.38,137.15,186.38Z" transform="translate(0 0)"/>
    <path class="cls-2" d="M148.55,194.65a4,4,0,0,1-1.77.39c-3,0-4.08-3.1-4.08-5.58,0-2.69,1-5.86,4.28-5.86a3.84,3.84,0,0,1,1.57.32v2.71a1.16,1.16,0,0,0-.87-.37c-1.5,0-1.83,1.84-1.83,3s.25,2.93,1.78,2.93a1.58,1.58,0,0,0,.92-.32Z" transform="translate(0 0)"/>
    <path class="cls-2" d="M155.58,194.65a4.08,4.08,0,0,1-1.78.39c-3,0-4.07-3.1-4.07-5.58,0-2.69,1-5.86,4.27-5.86a3.88,3.88,0,0,1,1.58.32v2.71a1.18,1.18,0,0,0-.88-.37c-1.5,0-1.82,1.84-1.82,3s.25,2.93,1.77,2.93a1.61,1.61,0,0,0,.93-.32Z" transform="translate(0 0)"/>
    <path class="cls-2" d="M161.85,194.82v-1.26a2.37,2.37,0,0,1-2.07,1.48c-2.58,0-3-3.89-3-5.76s.38-5.65,3-5.65a2.32,2.32,0,0,1,2.1,1.55v-1.36H165v11Zm-.85-8.44c-1,0-1.1,2.26-1.1,3s.08,2.95,1.13,2.95,1.05-2.28,1.05-2.95S162,186.38,161,186.38Z" transform="translate(0 0)"/>
    <path class="cls-2" d="M172.2,186.8a2.14,2.14,0,0,0-1.47-.74.75.75,0,0,0-.8.79c0,1.33,3.5,1.06,3.5,4.38A3.5,3.5,0,0,1,169.9,195a5.46,5.46,0,0,1-3.4-1.26l1.38-2.18a2.44,2.44,0,0,0,1.52.68.92.92,0,0,0,1-.91c0-1.37-3.65-1.18-3.65-4.5,0-2.11,1.73-3.24,3.73-3.24a4.77,4.77,0,0,1,3,.93Z" transform="translate(0 0)"/>
    <path class="cls-2" d="M176.48,182.18a1.95,1.95,0,1,1,2-2A2,2,0,0,1,176.48,182.18Zm-1.58,12.64v-11H178v11Z" transform="translate(0 0)"/>
    <path class="cls-2" d="M183.93,195c-3.2,0-4.25-3-4.25-5.71s1-5.7,4.25-5.7,4.2,3,4.2,5.7S187.23,195,183.93,195Zm0-8.66c-1,0-1.1,2.24-1.1,3s.07,2.95,1.1,2.95,1-2.28,1-2.95S184.9,186.38,183.93,186.38Z" transform="translate(0 0)"/>
    <path class="cls-2" d="M194.53,194.82v-6.74c0-.49,0-1.38-.75-1.38-.9,0-.85,1.13-.85,1.75v6.37H189.8v-11h3.13v1.72a3,3,0,0,1,2.65-1.91c1.92,0,2.07,1.77,2.07,3.24v7.95Z" transform="translate(0 0)"/>
    <path class="cls-2" d="M204.88,186.8a2.16,2.16,0,0,0-1.48-.74.76.76,0,0,0-.8.79c0,1.33,3.5,1.06,3.5,4.38a3.5,3.5,0,0,1-3.52,3.81,5.46,5.46,0,0,1-3.4-1.26l1.37-2.18a2.47,2.47,0,0,0,1.53.68.92.92,0,0,0,1-.91c0-1.37-3.65-1.18-3.65-4.5,0-2.11,1.72-3.24,3.72-3.24a4.78,4.78,0,0,1,3,.93Z" transform="translate(0 0)"/>
    <path class="cls-2" d="M214.3,181.39a1,1,0,1,1,1-1A1,1,0,0,1,214.3,181.39Zm-.72,13.43v-11H215v11Z" transform="translate(0 0)"/>
    <path class="cls-2" d="M221.83,194.82v-8c0-.88,0-2-1.25-2a1.58,1.58,0,0,0-1.33.72,3.37,3.37,0,0,0-.37,1.91v7.41h-1.4v-11h1.4v.89a2.92,2.92,0,0,1,2.17-1.06c1.88,0,2.18,1.53,2.18,3v8.14Z" transform="translate(0 0)"/>
    <path class="cls-2" d="M238.58,194.82h-1.46c-.47-3-1-6.1-1.42-9.15-.1.59-.12,1.13-.22,1.72l-1.23,7.43H232.8l-2.25-11H232l1.25,6.67a22.89,22.89,0,0,1,.32,2.31,22.81,22.81,0,0,1,.33-2.26l1.12-6.72h1.45c.47,3,1.05,6,1.4,9,.12-.76.23-1.55.37-2.34l1.38-6.64H241Z" transform="translate(0 0)"/>
    <path class="cls-2" d="M246.88,194.82v-8c0-.88,0-2-1.25-2a1.58,1.58,0,0,0-1.33.72,3.4,3.4,0,0,0-.37,1.91v7.41h-1.4V176.89h1.4v7.82a2.92,2.92,0,0,1,2.17-1.06c1.83,0,2.18,1.28,2.18,2.83v8.34Z" transform="translate(0 0)"/>
    <path class="cls-2" d="M251.48,181.39a1,1,0,1,1,1-1A1,1,0,0,1,251.48,181.39Zm-.73,13.43v-11h1.43v11Z" transform="translate(0 0)"/>
    <path class="cls-2" d="M259.05,194.42a2.72,2.72,0,0,1-1.6.57c-2.62,0-3.22-3.52-3.22-5.48s.45-5.86,3.3-5.86a3.08,3.08,0,0,1,1.52.42v1.62a2,2,0,0,0-1.4-.76c-1.77,0-1.95,3.22-1.95,4.45s.23,4.31,1.92,4.31a1.91,1.91,0,0,0,1.43-1Z" transform="translate(0 0)"/>
    <path class="cls-2" d="M265.05,194.82v-8c0-.88,0-2-1.25-2a1.56,1.56,0,0,0-1.32.72,3.33,3.33,0,0,0-.38,1.91v7.41h-1.4V176.89h1.4v7.82a2.92,2.92,0,0,1,2.18-1.06c1.82,0,2.17,1.28,2.17,2.83v8.34Z" transform="translate(0 0)"/>
    <path class="cls-2" d="M279.17,194.42a2.72,2.72,0,0,1-1.6.57c-2.62,0-3.22-3.52-3.22-5.48s.45-5.86,3.3-5.86a3.08,3.08,0,0,1,1.52.42v1.62a2,2,0,0,0-1.4-.76c-1.77,0-1.94,3.22-1.94,4.45s.22,4.31,1.92,4.31a1.9,1.9,0,0,0,1.42-1Z" transform="translate(0 0)"/>
    <path class="cls-2" d="M281.62,181.39a1,1,0,1,1,1-1A1,1,0,0,1,281.62,181.39Zm-.72,13.43v-11h1.43v11Z" transform="translate(0 0)"/>
    <path class="cls-2" d="M286.62,185.1v9.72h-1.39V185.1H284v-1.28h1.2V180.7h1.39v3.12h1.88v1.28Z" transform="translate(0 0)"/>
    <path class="cls-2" d="M290.47,181.39a1,1,0,1,1,1-1A1,1,0,0,1,290.47,181.39Zm-.72,13.43v-11h1.42v11Z" transform="translate(0 0)"/>
    <path class="cls-2" d="M294.55,193.54h3.77v1.28h-5.79l4.39-9.72H293.1v-1.28h5.95Z" transform="translate(0 0)"/>
    <path class="cls-2" d="M306.07,191.08c-.07,1.77-.62,3.91-2.82,3.91-2.87,0-3.25-3.52-3.25-5.63s.42-5.71,3.15-5.71,3,3.32,3,5.26c0,.23,0,.47,0,.69h-4.73v.25c0,1.11.18,3.84,1.78,3.84,1.25,0,1.42-1.68,1.45-2.61Zm-1.3-2.66c0-1-.17-3.49-1.6-3.49s-1.67,2.48-1.72,3.49Z" transform="translate(0 0)"/>
    <path class="cls-2" d="M312.6,194.82v-8c0-.88,0-2-1.25-2a1.58,1.58,0,0,0-1.33.72,3.37,3.37,0,0,0-.37,1.91v7.41h-1.4v-11h1.4v.89a2.92,2.92,0,0,1,2.17-1.06c1.88,0,2.18,1.53,2.18,3v8.14Z" transform="translate(0 0)"/>
    <path class="cls-2" d="M320.72,186.06a2.63,2.63,0,0,0-1.92-1.13,1.38,1.38,0,0,0-1.38,1.45c0,2.14,3.6,2.53,3.6,5.51a3,3,0,0,1-3,3.1,3.44,3.44,0,0,1-2.07-.76V192.6a2.84,2.84,0,0,0,2,1.09,1.62,1.62,0,0,0,1.63-1.7c0-2.17-3.6-2.9-3.6-5.56a2.68,2.68,0,0,1,2.77-2.78,3.36,3.36,0,0,1,2,.71Z" transform="translate(0 0)"/>
    <path class="cls-2" d="M29.83,214.08a2,2,0,0,1,1.78-.91c2.75,0,2.77,3.46,2.77,5.46,0,2.36-.07,5.87-2.62,5.87a2.34,2.34,0,0,1-1.93-1.05v5.31h-1.4V213.34h1.4Zm1.45.19c-1.45,0-1.57,2.31-1.57,4.5,0,1,0,3.55.7,4.23a1.11,1.11,0,0,0,.9.37c1.3,0,1.45-1.57,1.55-2.53s.07-1.72.07-2.58C32.93,217.15,32.91,214.27,31.28,214.27Z" transform="translate(0 0)"/>
    <path class="cls-2" d="M42.11,220.59c-.08,1.77-.63,3.91-2.83,3.91-2.87,0-3.25-3.51-3.25-5.63s.43-5.7,3.15-5.7,3,3.32,3,5.26c0,.22,0,.47,0,.69H37.46v.24c0,1.11.17,3.84,1.77,3.84,1.25,0,1.43-1.67,1.45-2.61Zm-1.3-2.65c-.05-1-.18-3.5-1.6-3.5s-1.68,2.49-1.73,3.5Z" transform="translate(0 0)"/>
    <path class="cls-2" d="M47.58,214.76c-1.87,0-1.9,1.48-1.9,2.91v6.66h-1.4v-11h1.4v1.42a2.29,2.29,0,0,1,1.9-1.59Z" transform="translate(0 0)"/>
    <path class="cls-2" d="M53.41,223.94a2.77,2.77,0,0,1-1.6.56c-2.63,0-3.23-3.51-3.23-5.48s.45-5.85,3.3-5.85a3.11,3.11,0,0,1,1.53.41v1.63a2,2,0,0,0-1.4-.77c-1.78,0-1.95,3.23-1.95,4.46s.22,4.3,1.92,4.3a1.93,1.93,0,0,0,1.43-1Z" transform="translate(0 0)"/>
    <path class="cls-2" d="M60.8,220.59c-.07,1.77-.62,3.91-2.82,3.91-2.87,0-3.25-3.51-3.25-5.63s.43-5.7,3.15-5.7,3,3.32,3,5.26c0,.22,0,.47,0,.69H56.16v.24c0,1.11.17,3.84,1.77,3.84,1.25,0,1.42-1.67,1.45-2.61Zm-1.3-2.65c0-1-.17-3.5-1.59-3.5s-1.68,2.49-1.73,3.5Z" transform="translate(0 0)"/>
    <path class="cls-2" d="M63.68,210.9a1,1,0,0,1-1-1,1,1,0,0,1,1-1,1,1,0,0,1,1,1A1,1,0,0,1,63.68,210.9ZM63,224.33v-11h1.42v11Z" transform="translate(0 0)"/>
    <path class="cls-2" d="M69.85,224.33H68.33l-2.55-11h1.45l1.48,6.56c.17.79.29,1.58.39,2.37.13-.77.25-1.55.4-2.32l1.38-6.61h1.45Z" transform="translate(0 0)"/>
    <path class="cls-2" d="M79.23,220.59c-.08,1.77-.63,3.91-2.82,3.91-2.88,0-3.25-3.51-3.25-5.63s.42-5.7,3.15-5.7,3,3.32,3,5.26c0,.22,0,.47,0,.69H74.58v.24c0,1.11.18,3.84,1.77,3.84,1.25,0,1.43-1.67,1.45-2.61Zm-1.3-2.65c-.05-1-.18-3.5-1.6-3.5s-1.67,2.49-1.72,3.5Z" transform="translate(0 0)"/>
    <path class="cls-2" d="M85.53,224.33v-.88a2.26,2.26,0,0,1-1.93,1.05c-2.57,0-2.62-3.66-2.62-5.58,0-2.14,0-5.75,2.77-5.75a2.06,2.06,0,0,1,1.78.91V206.4h1.4v17.93Zm-1.45-10.06c-1.6,0-1.62,2.83-1.62,3.91,0,.91,0,1.77.07,2.66s.22,2.53,1.52,2.53A1.17,1.17,0,0,0,85,223c.67-.66.67-3.24.67-4.15C85.65,216.54,85.53,214.27,84.08,214.27Z" transform="translate(0 0)"/>
    <path class="cls-2" d="M97.08,214.62v9.71h-1.4v-9.71h-1.2v-1.28h1.2v-3.13h1.4v3.13H99v1.28Z" transform="translate(0 0)"/>
    <path class="cls-2" d="M103.05,224.5c-2.87,0-3.27-3.54-3.27-5.68s.4-5.65,3.27-5.65,3.13,3.61,3.13,5.73S105.93,224.5,103.05,224.5Zm0-10.06c-1.73,0-1.78,3.35-1.78,4.51s.08,4.25,1.78,4.25,1.7-3.27,1.7-4.38S104.68,214.44,103,214.44Z" transform="translate(0 0)"/>
    <path class="cls-2" d="M115.5,214.08a2.07,2.07,0,0,1,1.8-.91c2.73,0,2.75,3.49,2.75,5.46,0,2.36-.07,5.87-2.62,5.87a2.34,2.34,0,0,1-1.93-1.05v.88h-1.4V206.4h1.4Zm1.45.19c-1.45,0-1.57,2.31-1.57,4.5,0,1,0,3.55.7,4.23a1.11,1.11,0,0,0,.9.37c1.3,0,1.45-1.57,1.55-2.53s.07-1.72.07-2.58C118.6,217.15,118.58,214.27,117,214.27Z" transform="translate(0 0)"/>
    <path class="cls-2" d="M127.78,220.59c-.08,1.77-.63,3.91-2.83,3.91-2.87,0-3.25-3.51-3.25-5.63s.43-5.7,3.15-5.7,3,3.32,3,5.26c0,.22,0,.47,0,.69h-4.72v.24c0,1.11.17,3.84,1.77,3.84,1.25,0,1.43-1.67,1.45-2.61Zm-1.3-2.65c0-1-.18-3.5-1.6-3.5s-1.68,2.49-1.73,3.5Z" transform="translate(0 0)"/>
    <path class="cls-2" d="M141.43,220.59c-.08,1.77-.63,3.91-2.83,3.91-2.87,0-3.25-3.51-3.25-5.63s.43-5.7,3.15-5.7,3,3.32,3,5.26c0,.22,0,.47,0,.69h-4.72v.24c0,1.11.17,3.84,1.77,3.84,1.25,0,1.43-1.67,1.45-2.61Zm-1.3-2.65c0-1-.18-3.5-1.6-3.5s-1.68,2.49-1.73,3.5Z" transform="translate(0 0)"/>
    <path class="cls-2" d="M147.58,224.33l-1.23-3.12a14.73,14.73,0,0,1-.55-1.62,10.26,10.26,0,0,1-.5,1.64l-1.2,3.1h-1.57l2.55-5.63-2.28-5.36h1.55a37.42,37.42,0,0,1,1.58,4.65,24.73,24.73,0,0,1,1.65-4.65h1.57l-2.5,5.36,2.5,5.63Z" transform="translate(0 0)"/>
    <path class="cls-2" d="M152,214.08a2,2,0,0,1,1.77-.91c2.75,0,2.78,3.46,2.78,5.46,0,2.36-.08,5.87-2.63,5.87a2.33,2.33,0,0,1-1.92-1.05v5.31h-1.4V213.34H152Zm1.45.19c-1.45,0-1.58,2.31-1.58,4.5,0,1,0,3.55.7,4.23a1.12,1.12,0,0,0,.9.37c1.3,0,1.45-1.57,1.55-2.53s.08-1.72.08-2.58C155.08,217.15,155.05,214.27,153.43,214.27Z" transform="translate(0 0)"/>
    <path class="cls-2" d="M161.45,224.5c-2.87,0-3.27-3.54-3.27-5.68s.4-5.65,3.27-5.65,3.13,3.61,3.13,5.73S164.33,224.5,161.45,224.5Zm0-10.06c-1.73,0-1.78,3.35-1.78,4.51s.08,4.25,1.78,4.25,1.7-3.27,1.7-4.38S163.08,214.44,161.43,214.44Z" transform="translate(0 0)"/>
    <path class="cls-2" d="M170.9,215.58a2.64,2.64,0,0,0-1.92-1.14,1.39,1.39,0,0,0-1.38,1.46c0,2.14,3.6,2.53,3.6,5.51a3,3,0,0,1-3,3.09,3.38,3.38,0,0,1-2.07-.76v-1.62a2.87,2.87,0,0,0,2,1.08,1.62,1.62,0,0,0,1.63-1.7c0-2.16-3.6-2.9-3.6-5.56a2.68,2.68,0,0,1,2.77-2.77,3.36,3.36,0,0,1,2,.71Z" transform="translate(0 0)"/>
    <path class="cls-2" d="M178.55,220.59c-.07,1.77-.62,3.91-2.82,3.91-2.88,0-3.25-3.51-3.25-5.63s.42-5.7,3.15-5.7,3,3.32,3,5.26c0,.22,0,.47,0,.69H173.9v.24c0,1.11.18,3.84,1.78,3.84,1.25,0,1.42-1.67,1.45-2.61Zm-1.3-2.65c-.05-1-.17-3.5-1.6-3.5s-1.67,2.49-1.72,3.5Z" transform="translate(0 0)"/>
    <path class="cls-2" d="M184.85,224.33v-.88a2.25,2.25,0,0,1-1.92,1.05c-2.58,0-2.63-3.66-2.63-5.58,0-2.14,0-5.75,2.78-5.75a2,2,0,0,1,1.77.91V206.4h1.4v17.93Zm-1.45-10.06c-1.6,0-1.62,2.83-1.62,3.91,0,.91,0,1.77.07,2.66s.23,2.53,1.53,2.53a1.17,1.17,0,0,0,.92-.37c.68-.66.68-3.24.68-4.15C185,216.54,184.85,214.27,183.4,214.27Z" transform="translate(0 0)"/>
    <path class="cls-2" d="M196.4,214.62v9.71H195v-9.71h-1.2v-1.28H195v-3.13h1.4v3.13h1.88v1.28Z" transform="translate(0 0)"/>
    <path class="cls-2" d="M202.38,224.5c-2.88,0-3.28-3.54-3.28-5.68s.4-5.65,3.28-5.65,3.12,3.61,3.12,5.73S205.25,224.5,202.38,224.5Zm0-10.06c-1.72,0-1.77,3.35-1.77,4.51s.07,4.25,1.77,4.25,1.7-3.27,1.7-4.38S204,214.44,202.35,214.44Z" transform="translate(0 0)"/>
    <path class="cls-2" d="M215.1,209.33v5.78h3.55v1.4H215.1v7.82h-1.55v-16.4h5.3v1.4Z" transform="translate(0 0)"/>
    <path class="cls-2" d="M226.6,224.33l-3.87-8v8H221v-16.4h2.1a6.08,6.08,0,0,1,2.87.46c1.5.79,1.8,2.41,1.8,3.94,0,2.26-.77,3.94-3.3,4.13l3.88,7.87Zm-2.85-9.22c2,0,2.33-1.16,2.33-2.88,0-1.89-.4-2.9-2.53-2.9h-.82v5.78Z" transform="translate(0 0)"/>
    <path class="cls-2" d="M232.5,209.33v15H231v-15h-2.5v-1.4H235v1.4Z" transform="translate(0 0)"/>
    <path class="cls-2" d="M239.78,215.58a2.66,2.66,0,0,0-1.93-1.14,1.39,1.39,0,0,0-1.37,1.46c0,2.14,3.6,2.53,3.6,5.51a3,3,0,0,1-3,3.09,3.41,3.41,0,0,1-2.08-.76v-1.62a2.89,2.89,0,0,0,2,1.08,1.61,1.61,0,0,0,1.62-1.7c0-2.16-3.6-2.9-3.6-5.56a2.68,2.68,0,0,1,2.78-2.77,3.39,3.39,0,0,1,2,.71Z" transform="translate(0 0)"/>
    <path class="cls-2" d="M248.3,210.9a1,1,0,0,1-1.05-1,1,1,0,0,1,1.05-1,1,1,0,0,1,1,1A1,1,0,0,1,248.3,210.9Zm-.72,13.43v-11H249v11Z" transform="translate(0 0)"/>
    <path class="cls-2" d="M255.83,224.33v-8c0-.89,0-2-1.25-2a1.59,1.59,0,0,0-1.33.71,3.41,3.41,0,0,0-.37,1.92v7.4h-1.4v-11h1.4v.88a2.94,2.94,0,0,1,2.17-1.05c1.87,0,2.17,1.52,2.17,3v8.14Z" transform="translate(0 0)"/>
    <path class="cls-2" d="M31.31,244.2a2.32,2.32,0,0,1,2.1-1.54c2.62,0,3,3.73,3,5.65s-.44,5.76-3,5.76a2.39,2.39,0,0,1-2.07-1.48v6.32H28.18V242.85h3.13Zm.82,1.21c-1,0-1.05,2.29-1.05,3s.08,2.95,1.08,2.95,1.1-2.26,1.1-2.95S33.18,245.41,32.13,245.41Z" transform="translate(0 0)"/>
    <path class="cls-2" d="M45.9,250.28a3.41,3.41,0,0,1-.52,2.09,4.09,4.09,0,0,1-3.42,1.7,4,4,0,0,1-3.43-1.72,3.39,3.39,0,0,1-.45-1.9v-7.6h3.13v6.77c0,.54,0,1.6.77,1.6,1,0,.78-1.48.78-2.07v-6.3H45.9Z" transform="translate(0 0)"/>
    <path class="cls-2" d="M51,244.2a2.33,2.33,0,0,1,2.1-1.54c2.62,0,3,3.73,3,5.65s-.45,5.76-3,5.76A2.4,2.4,0,0,1,51,252.59v1.26H47.91V235.92H51Zm.83,1.21c-1,0-1,2.29-1,3s.07,2.95,1.07,2.95,1.1-2.26,1.1-2.95S52.91,245.41,51.86,245.41Z" transform="translate(0 0)"/>
    <path class="cls-2" d="M57.81,253.85V235.92h3.12v17.93Z" transform="translate(0 0)"/>
    <path class="cls-2" d="M64.56,241.2a1.94,1.94,0,1,1,2-1.94A2,2,0,0,1,64.56,241.2ZM63,253.85v-11H66.1v11Z" transform="translate(0 0)"/>
    <path class="cls-2" d="M73.6,253.68a4,4,0,0,1-1.77.39c-3,0-4.07-3.1-4.07-5.59,0-2.68,1-5.85,4.27-5.85a3.84,3.84,0,0,1,1.57.32v2.71a1.16,1.16,0,0,0-.87-.37c-1.5,0-1.82,1.84-1.82,3s.25,2.93,1.77,2.93a1.58,1.58,0,0,0,.92-.32Z" transform="translate(0 0)"/>
    <path class="cls-2" d="M84,254c-2.87,0-3.27-3.54-3.27-5.68s.4-5.66,3.27-5.66,3.12,3.62,3.12,5.73S86.9,254,84,254ZM84,244c-1.72,0-1.77,3.34-1.77,4.5s.08,4.26,1.77,4.26,1.7-3.28,1.7-4.38S85.65,244,84,244Z" transform="translate(0 0)"/>
    <path class="cls-2" d="M93.65,253.45a2.72,2.72,0,0,1-1.6.57c-2.62,0-3.22-3.52-3.22-5.49s.45-5.85,3.3-5.85a3.08,3.08,0,0,1,1.52.42v1.62a2,2,0,0,0-1.4-.76c-1.77,0-2,3.22-2,4.45s.23,4.31,1.93,4.31a1.9,1.9,0,0,0,1.42-1Z" transform="translate(0 0)"/>
    <path class="cls-2" d="M99.8,253.45a2.72,2.72,0,0,1-1.6.57c-2.62,0-3.22-3.52-3.22-5.49s.45-5.85,3.3-5.85a3.08,3.08,0,0,1,1.52.42v1.62a2,2,0,0,0-1.4-.76c-1.77,0-2,3.22-2,4.45s.23,4.31,1.93,4.31a1.9,1.9,0,0,0,1.42-1Z" transform="translate(0 0)"/>
    <path class="cls-2" d="M105.8,253.85V253a2.19,2.19,0,0,1-1.9,1.06c-2.55,0-2.62-3.52-2.62-5.46,0-2.24.07-5.88,2.75-5.88a2,2,0,0,1,1.77.91v-.74h1.43v11Zm-1.42-10.06c-1.63,0-1.65,2.8-1.65,3.91,0,.91,0,1.77.07,2.65s.25,2.54,1.55,2.54a1.11,1.11,0,0,0,.9-.37c.7-.69.7-3.27.7-4.23C106,246.1,105.83,243.79,104.38,243.79Z" transform="translate(0 0)"/>
    <path class="cls-2" d="M114,245.09A2.63,2.63,0,0,0,112,244a1.38,1.38,0,0,0-1.38,1.45c0,2.14,3.6,2.53,3.6,5.51a3,3,0,0,1-3,3.1,3.44,3.44,0,0,1-2.07-.76v-1.63a2.84,2.84,0,0,0,2,1.09,1.62,1.62,0,0,0,1.63-1.7c0-2.17-3.6-2.9-3.6-5.56a2.68,2.68,0,0,1,2.77-2.78,3.36,3.36,0,0,1,2,.71Z" transform="translate(0 0)"/>
    <path class="cls-2" d="M116.65,240.42a1,1,0,1,1,1-1A1,1,0,0,1,116.65,240.42Zm-.72,13.43v-11h1.42v11Z" transform="translate(0 0)"/>
    <path class="cls-2" d="M122.68,254c-2.88,0-3.28-3.54-3.28-5.68s.4-5.66,3.28-5.66,3.12,3.62,3.12,5.73S125.55,254,122.68,254Zm0-10.06c-1.72,0-1.77,3.34-1.77,4.5s.07,4.26,1.77,4.26,1.7-3.28,1.7-4.38S124.3,244,122.65,244Z" transform="translate(0 0)"/>
    <path class="cls-2" d="M132.25,253.85v-8c0-.88,0-2-1.25-2a1.57,1.57,0,0,0-1.32.71,3.35,3.35,0,0,0-.38,1.92v7.41h-1.4v-11h1.4v.89a2.92,2.92,0,0,1,2.18-1.06c1.87,0,2.17,1.52,2.17,3v8.14Z" transform="translate(0 0)"/>
    <path class="cls-2" d="M140.38,245.09a2.65,2.65,0,0,0-1.93-1.13,1.38,1.38,0,0,0-1.37,1.45c0,2.14,3.6,2.53,3.6,5.51a3,3,0,0,1-3,3.1,3.47,3.47,0,0,1-2.08-.76v-1.63a2.86,2.86,0,0,0,2,1.09,1.61,1.61,0,0,0,1.62-1.7c0-2.17-3.6-2.9-3.6-5.56a2.68,2.68,0,0,1,2.78-2.78,3.39,3.39,0,0,1,2,.71Z" transform="translate(0 0)"/>
    <path class="cls-2" d="M143.33,254a1.15,1.15,0,0,1-1.13-1.11,1.13,1.13,0,1,1,1.13,1.11Z" transform="translate(0 0)"/>
  </g>
</svg>
