<svg id="Ebene_1" data-name="Ebene 1" xmlns="http://www.w3.org/2000/svg" width="344.31" height="137.5" viewBox="0 0 344.31 137.5"><defs><style>.cls-1{fill:none;stroke:aqua;stroke-width:8px;}.cls-2{fill:#fde8e9;}</style></defs><g id="Gruppe_432" data-name="Gruppe 432"><g id="Gruppe_430" data-name="Gruppe 430"><g id="Gruppe_93" data-name="Gruppe 93"><path id="Pfad_50-2" data-name="Pfad 50-2" class="cls-1" d="M399.81,70.85V26.5h-68.2" transform="translate(-59.5 -22.5)"/><path id="Pfad_51-2" data-name="Pfad 51-2" class="cls-1" d="M399.81,111.65V156h-68.2" transform="translate(-59.5 -22.5)"/><path id="Pfad_52-2" data-name="Pfad 52-2" class="cls-1" d="M63.5,70.85V26.5h68.2" transform="translate(-59.5 -22.5)"/><path id="Pfad_53-2" data-name="Pfad 53-2" class="cls-1" d="M63.5,111.65V156h68.2" transform="translate(-59.5 -22.5)"/></g></g></g><path class="cls-2" d="M90.5,67.75V50.41h1.64V67.75Z" transform="translate(-59.5 -22.5)"/><path class="cls-2" d="M99.49,67.75V59.3c0-.93,0-2.16-1.32-2.16a1.68,1.68,0,0,0-1.4.76,3.53,3.53,0,0,0-.4,2v7.82H94.89V56.13h1.48v.94A3.13,3.13,0,0,1,98.67,56c2,0,2.31,1.61,2.31,3.2v8.6Z" transform="translate(-59.5 -22.5)"/><path class="cls-2" d="M108.27,67.34a2.91,2.91,0,0,1-1.69.59c-2.78,0-3.41-3.71-3.41-5.79s.48-6.19,3.49-6.19a3.22,3.22,0,0,1,1.61.44v1.72a2.09,2.09,0,0,0-1.48-.81c-1.88,0-2.06,3.41-2.06,4.71s.24,4.55,2,4.55a2,2,0,0,0,1.5-1Z" transform="translate(-59.5 -22.5)"/><path class="cls-2" d="M110.12,67.75v-19h1.51v19Z" transform="translate(-59.5 -22.5)"/><path class="cls-2" d="M120.41,64.92a3.07,3.07,0,0,1-6.14,0V56.13h1.48V64c0,1.19.06,2.55,1.64,2.55s1.54-1.56,1.54-2.71V56.13h1.48Z" transform="translate(-59.5 -22.5)"/><path class="cls-2" d="M127.41,67.75v-.93a2.36,2.36,0,0,1-2,1.11c-2.73,0-2.78-3.87-2.78-5.9,0-2.26,0-6.08,2.94-6.08a2.17,2.17,0,0,1,1.87,1V48.8h1.49v19Zm-1.53-10.63c-1.69,0-1.72,3-1.72,4.13,0,1,0,1.87.08,2.81s.24,2.68,1.61,2.68a1.25,1.25,0,0,0,1-.39c.72-.7.72-3.43.72-4.4C127.55,59.51,127.41,57.12,125.88,57.12Z" transform="translate(-59.5 -22.5)"/><path class="cls-2" d="M137.51,63.8c-.07,1.87-.66,4.13-3,4.13-3,0-3.44-3.71-3.44-6s.45-6,3.33-6,3.2,3.51,3.2,5.56c0,.24,0,.5,0,.73h-5v.26c0,1.17.18,4.06,1.87,4.06,1.33,0,1.51-1.77,1.54-2.76ZM136.14,61c0-1-.19-3.69-1.69-3.69s-1.77,2.63-1.83,3.69Z" transform="translate(-59.5 -22.5)"/><path class="cls-2" d="M144.28,58.5a2.78,2.78,0,0,0-2-1.2,1.46,1.46,0,0,0-1.46,1.53c0,2.27,3.81,2.68,3.81,5.83a3.16,3.16,0,0,1-3.17,3.27,3.64,3.64,0,0,1-2.2-.8V65.41a3,3,0,0,0,2.09,1.15,1.71,1.71,0,0,0,1.72-1.8c0-2.29-3.81-3.07-3.81-5.87A2.84,2.84,0,0,1,142.17,56a3.53,3.53,0,0,1,2.11.75Z" transform="translate(-59.5 -22.5)"/><path class="cls-2" d="M154.49,57.48V67.75H153V57.48h-1.27V56.13H153v-3.3h1.48v3.3h2v1.35Z" transform="translate(-59.5 -22.5)"/><path class="cls-2" d="M162.42,67.75V59.3c0-.93,0-2.16-1.32-2.16a1.66,1.66,0,0,0-1.4.76,3.57,3.57,0,0,0-.4,2v7.82h-1.48v-19h1.48v8.27A3.11,3.11,0,0,1,161.6,56c1.93,0,2.3,1.35,2.3,3v8.81Z" transform="translate(-59.5 -22.5)"/><path class="cls-2" d="M172.23,63.8c-.08,1.87-.66,4.13-3,4.13-3,0-3.44-3.71-3.44-6s.45-6,3.34-6,3.2,3.51,3.2,5.56c0,.24,0,.5,0,.73h-5v.26c0,1.17.19,4.06,1.88,4.06,1.32,0,1.51-1.77,1.53-2.76ZM170.85,61c0-1-.18-3.69-1.69-3.69s-1.77,2.63-1.82,3.69Z" transform="translate(-59.5 -22.5)"/><path class="cls-2" d="M182.62,57.48V67.75h-1.48V57.48h-1.35V56.13h1.35V51.48c0-1.49.4-3,2.19-3a3.43,3.43,0,0,1,1.33.26v1.61a1.78,1.78,0,0,0-1.09-.52c-.87,0-.95.78-.95,1.43v4.84h2v1.35Z" transform="translate(-59.5 -22.5)"/><path class="cls-2" d="M190.58,67.75v-.93a2.34,2.34,0,0,1-2,1.11c-2.7,0-2.78-3.71-2.78-5.77,0-2.36.08-6.21,2.91-6.21a2.19,2.19,0,0,1,1.88,1v-.78h1.51V67.75Zm-1.51-10.63c-1.72,0-1.74,3-1.74,4.13,0,1,0,1.87.08,2.81s.26,2.68,1.63,2.68a1.22,1.22,0,0,0,1-.39c.74-.73.74-3.46.74-4.47C190.74,59.56,190.6,57.12,189.07,57.12Z" transform="translate(-59.5 -22.5)"/><path class="cls-2" d="M199.38,67.34a2.91,2.91,0,0,1-1.69.59c-2.78,0-3.41-3.71-3.41-5.79s.47-6.19,3.49-6.19a3.2,3.2,0,0,1,1.61.44v1.72a2.09,2.09,0,0,0-1.48-.81c-1.88,0-2.06,3.41-2.06,4.71s.24,4.55,2,4.55a2,2,0,0,0,1.5-1Z" transform="translate(-59.5 -22.5)"/><path class="cls-2" d="M203.16,57.48V67.75h-1.48V57.48h-1.27V56.13h1.27v-3.3h1.48v3.3h2v1.35Z" transform="translate(-59.5 -22.5)"/><path class="cls-2" d="M209.48,67.93c-3,0-3.46-3.74-3.46-6s.42-6,3.46-6,3.31,3.82,3.31,6.06S212.52,67.93,209.48,67.93Zm0-10.63c-1.83,0-1.88,3.54-1.88,4.76s.08,4.5,1.88,4.5,1.79-3.46,1.79-4.63S211.2,57.3,209.46,57.3Z" transform="translate(-59.5 -22.5)"/><path class="cls-2" d="M218.5,57.64c-2,0-2,1.56-2,3.07v7H215V56.13h1.48v1.51a2.42,2.42,0,0,1,2-1.69Z" transform="translate(-59.5 -22.5)"/><path class="cls-2" d="M224.63,58.5a2.78,2.78,0,0,0-2-1.2,1.46,1.46,0,0,0-1.46,1.53c0,2.27,3.81,2.68,3.81,5.83a3.16,3.16,0,0,1-3.17,3.27,3.64,3.64,0,0,1-2.2-.8V65.41a3,3,0,0,0,2.09,1.15,1.71,1.71,0,0,0,1.72-1.8c0-2.29-3.81-3.07-3.81-5.87A2.84,2.84,0,0,1,222.52,56a3.53,3.53,0,0,1,2.11.75Z" transform="translate(-59.5 -22.5)"/><path class="cls-2" d="M237.4,67.75v-.93a2.33,2.33,0,0,1-2,1.11c-2.69,0-2.77-3.71-2.77-5.77,0-2.36.08-6.21,2.91-6.21a2.18,2.18,0,0,1,1.87,1v-.78h1.51V67.75Zm-1.5-10.63c-1.72,0-1.75,3-1.75,4.13,0,1,0,1.87.08,2.81s.26,2.68,1.64,2.68a1.18,1.18,0,0,0,.95-.39c.74-.73.74-3.46.74-4.47C237.56,59.56,237.43,57.12,235.9,57.12Z" transform="translate(-59.5 -22.5)"/><path class="cls-2" d="M247.66,69c0,2.1-.82,3.4-3.09,3.4-2.06,0-3.07-1.27-3.07-3.22a2,2,0,0,1,0-.44H243c0,1.17.14,2.28,1.62,2.28s1.5-1.14,1.5-2.26V66.92a2.33,2.33,0,0,1-1.87.83c-3,0-3-4-3-6.06,0-1.95.21-5.74,2.94-5.74a2.34,2.34,0,0,1,2,1v-.81h1.51Zm-3.14-11.89c-1.59,0-1.72,2.68-1.72,5.1,0,1.25,0,4.32,1.85,4.32,1.32,0,1.5-1.54,1.58-2.5s.08-1.87.08-2.81C246.31,60,246.31,57.14,244.52,57.14Z" transform="translate(-59.5 -22.5)"/><path class="cls-2" d="M256.23,63.8c-.08,1.87-.66,4.13-3,4.13-3,0-3.44-3.71-3.44-6s.45-6,3.33-6,3.2,3.51,3.2,5.56c0,.24,0,.5,0,.73h-5v.26c0,1.17.19,4.06,1.88,4.06,1.32,0,1.5-1.77,1.53-2.76ZM254.85,61c0-1-.18-3.69-1.69-3.69s-1.77,2.63-1.82,3.69Z" transform="translate(-59.5 -22.5)"/><path class="cls-2" d="M258.5,71.44l-1.14-.52,1.83-5.33,1.64.73Z" transform="translate(-59.5 -22.5)"/><path class="cls-2" d="M275.48,69c0,2.1-.82,3.4-3.1,3.4-2.06,0-3.07-1.27-3.07-3.22a2,2,0,0,1,0-.44h1.51c0,1.17.13,2.28,1.61,2.28S274,69.91,274,68.79V66.92a2.36,2.36,0,0,1-1.88.83c-3,0-3-4-3-6.06,0-1.95.21-5.74,2.93-5.74a2.35,2.35,0,0,1,2,1v-.81h1.51Zm-3.15-11.89c-1.59,0-1.72,2.68-1.72,5.1,0,1.25,0,4.32,1.85,4.32,1.32,0,1.51-1.54,1.59-2.5s.08-1.87.08-2.81C274.13,60,274.13,57.14,272.33,57.14Z" transform="translate(-59.5 -22.5)"/><path class="cls-2" d="M284,63.8c-.08,1.87-.66,4.13-3,4.13-3,0-3.43-3.71-3.43-6s.45-6,3.33-6,3.2,3.51,3.2,5.56c0,.24,0,.5,0,.73h-5v.26c0,1.17.19,4.06,1.88,4.06,1.32,0,1.51-1.77,1.54-2.76ZM282.67,61c-.06-1-.19-3.69-1.7-3.69s-1.77,2.63-1.82,3.69Z" transform="translate(-59.5 -22.5)"/><path class="cls-2" d="M290.94,67.75V59.3c0-.93,0-2.16-1.32-2.16a1.68,1.68,0,0,0-1.4.76,3.53,3.53,0,0,0-.4,2v7.82h-1.48V56.13h1.48v.94a3.11,3.11,0,0,1,2.3-1.12c2,0,2.3,1.61,2.3,3.2v8.6Z" transform="translate(-59.5 -22.5)"/><path class="cls-2" d="M299.43,67.75v-.93a2.38,2.38,0,0,1-2,1.11c-2.72,0-2.77-3.87-2.77-5.9,0-2.26,0-6.08,2.93-6.08a2.19,2.19,0,0,1,1.88,1V48.8h1.48v19ZM297.9,57.12c-1.7,0-1.72,3-1.72,4.13,0,1,0,1.87.08,2.81s.23,2.68,1.61,2.68a1.26,1.26,0,0,0,1-.39c.71-.7.71-3.43.71-4.4C299.56,59.51,299.43,57.12,297.9,57.12Z" transform="translate(-59.5 -22.5)"/><path class="cls-2" d="M309.53,63.8c-.08,1.87-.66,4.13-3,4.13-3,0-3.44-3.71-3.44-6s.45-6,3.34-6,3.2,3.51,3.2,5.56c0,.24,0,.5,0,.73h-5v.26c0,1.17.19,4.06,1.88,4.06,1.32,0,1.51-1.77,1.53-2.76ZM308.15,61c0-1-.18-3.69-1.69-3.69s-1.77,2.63-1.82,3.69Z" transform="translate(-59.5 -22.5)"/><path class="cls-2" d="M315.32,57.64c-2,0-2,1.56-2,3.07v7h-1.48V56.13h1.48v1.51a2.43,2.43,0,0,1,2-1.69Z" transform="translate(-59.5 -22.5)"/><path class="cls-2" d="M316.54,71.44l-1.14-.52,1.82-5.33,1.64.73Z" transform="translate(-59.5 -22.5)"/><path class="cls-2" d="M328.14,53.56a1.1,1.1,0,1,1,1.09-1.07A1.09,1.09,0,0,1,328.14,53.56Zm-.76,14.19V56.13h1.5V67.75Z" transform="translate(-59.5 -22.5)"/><path class="cls-2" d="M336.1,67.75V59.3c0-.93,0-2.16-1.32-2.16a1.66,1.66,0,0,0-1.4.76,3.53,3.53,0,0,0-.4,2v7.82H331.5V56.13H333v.94a3.11,3.11,0,0,1,2.3-1.12c2,0,2.3,1.61,2.3,3.2v8.6Z" transform="translate(-59.5 -22.5)"/><path class="cls-2" d="M344.88,67.34a2.93,2.93,0,0,1-1.69.59c-2.78,0-3.41-3.71-3.41-5.79s.47-6.19,3.49-6.19a3.22,3.22,0,0,1,1.61.44v1.72a2.11,2.11,0,0,0-1.48-.81c-1.88,0-2.06,3.41-2.06,4.71s.23,4.55,2,4.55a2,2,0,0,0,1.51-1Z" transform="translate(-59.5 -22.5)"/><path class="cls-2" d="M349.74,67.93c-3,0-3.46-3.74-3.46-6s.42-6,3.46-6,3.31,3.82,3.31,6.06S352.79,67.93,349.74,67.93Zm0-10.63c-1.83,0-1.88,3.54-1.88,4.76s.08,4.5,1.88,4.5,1.8-3.46,1.8-4.63S351.46,57.3,349.72,57.3Z" transform="translate(-59.5 -22.5)"/><path class="cls-2" d="M366.06,67.75h-1.48v-8.6c0-1-.16-2-1.38-2-1.72,0-1.8,1.9-1.8,3.18v7.43h-1.5V59.17c0-.86-.08-2-1.25-2-1.85,0-1.9,2.06-1.9,3.41v7.2h-1.48V56.13h1.48v1a3.17,3.17,0,0,1,2.3-1.14,2.31,2.31,0,0,1,2.17,1.35A2.87,2.87,0,0,1,363.65,56c1.91,0,2.41,1.22,2.41,2.88Z" transform="translate(-59.5 -22.5)"/><path class="cls-2" d="M374.68,63.8c-.08,1.87-.66,4.13-3,4.13-3,0-3.44-3.71-3.44-6s.45-6,3.33-6,3.2,3.51,3.2,5.56c0,.24,0,.5,0,.73h-5v.26c0,1.17.18,4.06,1.88,4.06,1.32,0,1.5-1.77,1.53-2.76ZM373.3,61c-.05-1-.18-3.69-1.69-3.69s-1.77,2.63-1.82,3.69Z" transform="translate(-59.5 -22.5)"/><path class="cls-2" d="M377,71.44l-1.14-.52,1.83-5.33,1.64.73Z" transform="translate(-59.5 -22.5)"/><path class="cls-2" d="M96.35,95c-.08,1.87-.66,4.13-3,4.13-3,0-3.44-3.71-3.44-5.95s.45-6,3.33-6,3.2,3.51,3.2,5.56c0,.24,0,.5,0,.73h-5v.26c0,1.17.19,4.06,1.88,4.06,1.32,0,1.5-1.77,1.53-2.76ZM95,92.19c0-1-.18-3.69-1.69-3.69s-1.77,2.63-1.82,3.69Z" transform="translate(-59.5 -22.5)"/><path class="cls-2" d="M100.58,88.68V99H99.1V88.68H97.83V87.33H99.1V84h1.48v3.3h2v1.35Z" transform="translate(-59.5 -22.5)"/><path class="cls-2" d="M108.51,99V90.5c0-.93,0-2.16-1.32-2.16a1.66,1.66,0,0,0-1.4.76,3.57,3.57,0,0,0-.4,2V99h-1.48V80h1.48v8.27a3.11,3.11,0,0,1,2.3-1.12c1.93,0,2.3,1.35,2.3,3V99Z" transform="translate(-59.5 -22.5)"/><path class="cls-2" d="M117.24,99V90.5c0-.93,0-2.16-1.33-2.16a1.68,1.68,0,0,0-1.4.76,3.6,3.6,0,0,0-.39,2V99h-1.49V87.33h1.49v.94a3.1,3.1,0,0,1,2.3-1.12c2,0,2.3,1.61,2.3,3.2V99Z" transform="translate(-59.5 -22.5)"/><path class="cls-2" d="M122.1,84.76a1.1,1.1,0,1,1,1.08-1.07A1.08,1.08,0,0,1,122.1,84.76ZM121.33,99V87.33h1.51V99Z" transform="translate(-59.5 -22.5)"/><path class="cls-2" d="M130.11,98.54a2.91,2.91,0,0,1-1.69.59c-2.78,0-3.41-3.71-3.41-5.79s.47-6.19,3.49-6.19a3.22,3.22,0,0,1,1.61.44v1.72a2.11,2.11,0,0,0-1.48-.81c-1.88,0-2.06,3.41-2.06,4.71s.24,4.55,2,4.55a2,2,0,0,0,1.51-1Z" transform="translate(-59.5 -22.5)"/><path class="cls-2" d="M144.23,100.23c0,2.1-.82,3.4-3.09,3.4-2.07,0-3.07-1.27-3.07-3.22a2,2,0,0,1,0-.44h1.5c0,1.17.13,2.28,1.62,2.28s1.5-1.14,1.5-2.26V98.12a2.34,2.34,0,0,1-1.87.83c-3,0-3-4-3-6.06,0-2,.21-5.74,2.94-5.74a2.35,2.35,0,0,1,1.95,1v-.81h1.51Zm-3.15-11.89c-1.58,0-1.72,2.68-1.72,5.1,0,1.25,0,4.32,1.86,4.32,1.32,0,1.5-1.54,1.58-2.5s.08-1.87.08-2.81C142.88,91.23,142.88,88.34,141.08,88.34Z" transform="translate(-59.5 -22.5)"/><path class="cls-2" d="M150.28,88.84c-2,0-2,1.56-2,3.07v7h-1.49V87.33h1.49v1.51a2.41,2.41,0,0,1,2-1.69Z" transform="translate(-59.5 -22.5)"/><path class="cls-2" d="M154.83,99.13c-3,0-3.46-3.74-3.46-6s.42-6,3.46-6,3.31,3.82,3.31,6.06S157.87,99.13,154.83,99.13Zm0-10.63c-1.83,0-1.88,3.54-1.88,4.76s.08,4.5,1.88,4.5,1.79-3.46,1.79-4.63S156.55,88.5,154.81,88.5Z" transform="translate(-59.5 -22.5)"/><path class="cls-2" d="M166.49,96.12a3.07,3.07,0,0,1-6.13,0V87.33h1.48v7.88c0,1.19,0,2.55,1.64,2.55S165,96.2,165,95.05V87.33h1.48Z" transform="translate(-59.5 -22.5)"/><path class="cls-2" d="M170.62,88.11a2.15,2.15,0,0,1,1.87-1c2.91,0,2.94,3.66,2.94,5.77,0,2.5-.08,6.21-2.78,6.21a2.47,2.47,0,0,1-2-1.11v5.61h-1.48V87.33h1.48Zm1.53.21c-1.53,0-1.67,2.44-1.67,4.76,0,1,0,3.74.74,4.47a1.22,1.22,0,0,0,1,.39c1.37,0,1.53-1.67,1.64-2.68s.08-1.82.08-2.73C173.9,91.36,173.87,88.32,172.15,88.32Z" transform="translate(-59.5 -22.5)"/><path class="cls-2" d="M177.6,102.64l-1.14-.52,1.82-5.33,1.64.73Z" transform="translate(-59.5 -22.5)"/><path class="cls-2" d="M200.6,95c-.08,1.87-.66,4.13-3,4.13-3,0-3.44-3.71-3.44-5.95s.45-6,3.33-6,3.21,3.51,3.21,5.56c0,.24,0,.5,0,.73h-5v.26c0,1.17.19,4.06,1.88,4.06,1.32,0,1.51-1.77,1.53-2.76Zm-1.38-2.81c-.05-1-.18-3.69-1.69-3.69s-1.77,2.63-1.82,3.69Z" transform="translate(-59.5 -22.5)"/><path class="cls-2" d="M207.26,99V98a2.38,2.38,0,0,1-2,1.11c-2.73,0-2.78-3.87-2.78-5.9,0-2.26,0-6.08,2.93-6.08a2.19,2.19,0,0,1,1.88,1V80h1.48V99Zm-1.53-10.63c-1.69,0-1.72,3-1.72,4.13,0,1,0,1.87.08,2.81s.24,2.68,1.61,2.68a1.25,1.25,0,0,0,1-.39c.71-.7.71-3.43.71-4.4C207.39,90.71,207.26,88.32,205.73,88.32Z" transform="translate(-59.5 -22.5)"/><path class="cls-2" d="M217.52,96.12a3.07,3.07,0,0,1-6.13,0V87.33h1.48v7.88c0,1.19,0,2.55,1.64,2.55S216,96.2,216,95.05V87.33h1.48Z" transform="translate(-59.5 -22.5)"/><path class="cls-2" d="M224.82,98.54a2.93,2.93,0,0,1-1.69.59c-2.78,0-3.42-3.71-3.42-5.79s.48-6.19,3.5-6.19a3.22,3.22,0,0,1,1.61.44v1.72a2.11,2.11,0,0,0-1.48-.81c-1.88,0-2.07,3.41-2.07,4.71s.24,4.55,2,4.55a2,2,0,0,0,1.51-1Z" transform="translate(-59.5 -22.5)"/><path class="cls-2" d="M231.16,99V98a2.33,2.33,0,0,1-2,1.11c-2.69,0-2.77-3.71-2.77-5.77,0-2.36.08-6.21,2.91-6.21a2.18,2.18,0,0,1,1.87,1v-.78h1.51V99Zm-1.5-10.63c-1.72,0-1.75,3-1.75,4.13,0,1,0,1.87.08,2.81s.26,2.68,1.64,2.68a1.18,1.18,0,0,0,1-.39c.74-.73.74-3.46.74-4.47C231.32,90.76,231.19,88.32,229.66,88.32Z" transform="translate(-59.5 -22.5)"/><path class="cls-2" d="M237.24,88.68V99h-1.48V88.68h-1.27V87.33h1.27V84h1.48v3.3h2v1.35Z" transform="translate(-59.5 -22.5)"/><path class="cls-2" d="M241.32,84.76a1.1,1.1,0,1,1,1.08-1.07A1.09,1.09,0,0,1,241.32,84.76ZM240.55,99V87.33h1.51V99Z" transform="translate(-59.5 -22.5)"/><path class="cls-2" d="M247.69,99.13c-3,0-3.47-3.74-3.47-6s.43-6,3.47-6S251,91,251,93.21,250.73,99.13,247.69,99.13Zm0-10.63c-1.82,0-1.88,3.54-1.88,4.76s.08,4.5,1.88,4.5,1.8-3.46,1.8-4.63S249.41,88.5,247.66,88.5Z" transform="translate(-59.5 -22.5)"/><path class="cls-2" d="M257.81,99V90.5c0-.93,0-2.16-1.32-2.16a1.68,1.68,0,0,0-1.4.76,3.53,3.53,0,0,0-.4,2V99h-1.48V87.33h1.48v.94A3.13,3.13,0,0,1,257,87.15c2,0,2.3,1.61,2.3,3.2V99Z" transform="translate(-59.5 -22.5)"/><path class="cls-2" d="M261.91,102.64l-1.14-.52,1.83-5.33,1.64.73Z" transform="translate(-59.5 -22.5)"/><path class="cls-2" d="M272.78,99V80h1.51V99Z" transform="translate(-59.5 -22.5)"/><path class="cls-2" d="M277.67,84.76a1.1,1.1,0,1,1,1.08-1.07A1.08,1.08,0,0,1,277.67,84.76ZM276.9,99V87.33h1.51V99Z" transform="translate(-59.5 -22.5)"/><path class="cls-2" d="M284.2,99h-1.61l-2.7-11.62h1.53L283,94.27c.19.83.32,1.67.43,2.5.13-.81.26-1.64.42-2.45l1.45-7h1.54Z" transform="translate(-59.5 -22.5)"/><path class="cls-2" d="M289.06,84.76a1.1,1.1,0,1,1,1.09-1.07A1.09,1.09,0,0,1,289.06,84.76ZM288.3,99V87.33h1.5V99Z" transform="translate(-59.5 -22.5)"/><path class="cls-2" d="M297,99V90.5c0-.93,0-2.16-1.32-2.16a1.68,1.68,0,0,0-1.4.76,3.53,3.53,0,0,0-.4,2V99h-1.48V87.33h1.48v.94a3.13,3.13,0,0,1,2.3-1.12c2,0,2.3,1.61,2.3,3.2V99Z" transform="translate(-59.5 -22.5)"/><path class="cls-2" d="M307.26,100.23c0,2.1-.82,3.4-3.1,3.4-2.06,0-3.07-1.27-3.07-3.22a2,2,0,0,1,0-.44h1.51c0,1.17.13,2.28,1.61,2.28s1.51-1.14,1.51-2.26V98.12a2.36,2.36,0,0,1-1.88.83c-3,0-3-4-3-6.06,0-2,.21-5.74,2.93-5.74a2.35,2.35,0,0,1,2,1v-.81h1.51Zm-3.15-11.89c-1.59,0-1.72,2.68-1.72,5.1,0,1.25,0,4.32,1.85,4.32,1.32,0,1.51-1.54,1.59-2.5s.08-1.87.08-2.81C305.91,91.23,305.91,88.34,304.11,88.34Z" transform="translate(-59.5 -22.5)"/><path class="cls-2" d="M320.53,89.7a2.78,2.78,0,0,0-2-1.2A1.46,1.46,0,0,0,317,90c0,2.27,3.81,2.68,3.81,5.83a3.16,3.16,0,0,1-3.18,3.27,3.61,3.61,0,0,1-2.19-.8V96.61a3,3,0,0,0,2.09,1.15,1.72,1.72,0,0,0,1.72-1.8c0-2.29-3.81-3.07-3.81-5.87a2.83,2.83,0,0,1,2.93-2.94,3.53,3.53,0,0,1,2.12.75Z" transform="translate(-59.5 -22.5)"/><path class="cls-2" d="M324.12,88.11a2.17,2.17,0,0,1,1.88-1c2.91,0,2.94,3.66,2.94,5.77,0,2.5-.08,6.21-2.78,6.21a2.51,2.51,0,0,1-2-1.11v5.61h-1.48V87.33h1.48Zm1.54.21c-1.54,0-1.67,2.44-1.67,4.76,0,1,0,3.74.74,4.47a1.21,1.21,0,0,0,.95.39c1.38,0,1.54-1.67,1.64-2.68s.08-1.82.08-2.73C327.4,91.36,327.38,88.32,325.66,88.32Z" transform="translate(-59.5 -22.5)"/><path class="cls-2" d="M335.63,99V98a2.34,2.34,0,0,1-2,1.11c-2.7,0-2.78-3.71-2.78-5.77,0-2.36.08-6.21,2.91-6.21a2.2,2.2,0,0,1,1.88,1v-.78h1.5V99Zm-1.51-10.63c-1.72,0-1.75,3-1.75,4.13,0,1,0,1.87.08,2.81s.27,2.68,1.64,2.68a1.18,1.18,0,0,0,1-.39c.75-.73.75-3.46.75-4.47C335.79,90.76,335.65,88.32,334.12,88.32Z" transform="translate(-59.5 -22.5)"/><path class="cls-2" d="M344.43,98.54a2.93,2.93,0,0,1-1.69.59c-2.78,0-3.41-3.71-3.41-5.79s.47-6.19,3.49-6.19a3.22,3.22,0,0,1,1.61.44v1.72A2.11,2.11,0,0,0,343,88.5c-1.88,0-2.06,3.41-2.06,4.71s.23,4.55,2,4.55a2,2,0,0,0,1.51-1Z" transform="translate(-59.5 -22.5)"/><path class="cls-2" d="M352.26,95c-.08,1.87-.66,4.13-3,4.13-3,0-3.44-3.71-3.44-5.95s.45-6,3.33-6,3.2,3.51,3.2,5.56c0,.24,0,.5,0,.73h-5v.26c0,1.17.18,4.06,1.88,4.06,1.32,0,1.5-1.77,1.53-2.76Zm-1.38-2.81c-.05-1-.18-3.69-1.69-3.69s-1.77,2.63-1.83,3.69Z" transform="translate(-59.5 -22.5)"/><path class="cls-2" d="M361.46,84.76a1.1,1.1,0,1,1,1.08-1.07A1.09,1.09,0,0,1,361.46,84.76ZM360.69,99V87.33h1.51V99Z" transform="translate(-59.5 -22.5)"/><path class="cls-2" d="M369.42,99V90.5c0-.93,0-2.16-1.33-2.16a1.68,1.68,0,0,0-1.4.76,3.53,3.53,0,0,0-.4,2V99h-1.48V87.33h1.48v.94a3.13,3.13,0,0,1,2.31-1.12c2,0,2.3,1.61,2.3,3.2V99Z" transform="translate(-59.5 -22.5)"/><path class="cls-2" d="M93.86,120c-2,0-2,1.56-2,3.07v7H90.37V118.53h1.48V120a2.43,2.43,0,0,1,2-1.69Z" transform="translate(-59.5 -22.5)"/><path class="cls-2" d="M101.64,127.32a3.07,3.07,0,0,1-6.14,0v-8.79H97v7.88c0,1.19.06,2.55,1.64,2.55s1.54-1.56,1.54-2.71v-7.72h1.48Z" transform="translate(-59.5 -22.5)"/><path class="cls-2" d="M107.77,120c-2,0-2,1.56-2,3.07v7h-1.48V118.53h1.48V120a2.43,2.43,0,0,1,2-1.69Z" transform="translate(-59.5 -22.5)"/><path class="cls-2" d="M113.85,130.15v-.93a2.33,2.33,0,0,1-2,1.11c-2.69,0-2.77-3.71-2.77-5.77,0-2.36.08-6.21,2.9-6.21a2.19,2.19,0,0,1,1.88,1v-.78h1.51v11.62Zm-1.51-10.63c-1.71,0-1.74,3-1.74,4.13,0,1,0,1.87.08,2.81s.26,2.68,1.64,2.68a1.2,1.2,0,0,0,1-.39c.74-.73.74-3.46.74-4.47C114,122,113.88,119.52,112.34,119.52Z" transform="translate(-59.5 -22.5)"/><path class="cls-2" d="M118,130.15v-19h1.51v19Z" transform="translate(-59.5 -22.5)"/><path class="cls-2" d="M131.33,130.33c-3,0-3.47-3.74-3.47-6s.43-6,3.47-6,3.3,3.82,3.3,6.06S134.37,130.33,131.33,130.33Zm0-10.63c-1.82,0-1.88,3.54-1.88,4.76s.08,4.5,1.88,4.5,1.8-3.46,1.8-4.63S133.05,119.7,131.3,119.7Z" transform="translate(-59.5 -22.5)"/><path class="cls-2" d="M140.34,120c-2,0-2,1.56-2,3.07v7h-1.48V118.53h1.48V120a2.43,2.43,0,0,1,2-1.69Z" transform="translate(-59.5 -22.5)"/><path class="cls-2" d="M154.3,127.32a3.07,3.07,0,0,1-6.13,0v-8.79h1.48v7.88c0,1.19,0,2.55,1.64,2.55s1.53-1.56,1.53-2.71v-7.72h1.48Z" transform="translate(-59.5 -22.5)"/><path class="cls-2" d="M160.44,120c-2,0-2,1.56-2,3.07v7H157V118.53h1.48V120a2.42,2.42,0,0,1,2-1.69Z" transform="translate(-59.5 -22.5)"/><path class="cls-2" d="M163.58,119.31a2.21,2.21,0,0,1,1.91-1c2.88,0,2.91,3.69,2.91,5.77,0,2.5-.08,6.21-2.78,6.21a2.49,2.49,0,0,1-2-1.11v.93H162.1v-19h1.48Zm1.54.21c-1.54,0-1.67,2.44-1.67,4.76,0,1,0,3.74.74,4.47a1.21,1.21,0,0,0,.95.39c1.38,0,1.54-1.67,1.64-2.68s.08-1.82.08-2.73C166.86,122.56,166.84,119.52,165.12,119.52Z" transform="translate(-59.5 -22.5)"/><path class="cls-2" d="M175.09,130.15v-.93a2.34,2.34,0,0,1-2,1.11c-2.7,0-2.78-3.71-2.78-5.77,0-2.36.08-6.21,2.91-6.21a2.2,2.2,0,0,1,1.88,1v-.78h1.5v11.62Zm-1.51-10.63c-1.72,0-1.75,3-1.75,4.13,0,1,0,1.87.08,2.81s.27,2.68,1.64,2.68a1.18,1.18,0,0,0,.95-.39c.74-.73.74-3.46.74-4.47C175.24,122,175.11,119.52,173.58,119.52Z" transform="translate(-59.5 -22.5)"/><path class="cls-2" d="M183.84,130.15V121.7c0-.93,0-2.16-1.32-2.16a1.68,1.68,0,0,0-1.41.76,3.6,3.6,0,0,0-.39,2v7.82h-1.48V118.53h1.48v.94a3.1,3.1,0,0,1,2.3-1.12c2,0,2.3,1.61,2.3,3.2v8.6Z" transform="translate(-59.5 -22.5)"/><path class="cls-2" d="M198.62,130.15v-.93a2.34,2.34,0,0,1-2,1.11c-2.7,0-2.78-3.71-2.78-5.77,0-2.36.08-6.21,2.91-6.21a2.2,2.2,0,0,1,1.88,1v-.78h1.5v11.62Zm-1.51-10.63c-1.72,0-1.75,3-1.75,4.13,0,1,0,1.87.08,2.81s.27,2.68,1.64,2.68a1.18,1.18,0,0,0,.95-.39c.75-.73.75-3.46.75-4.47C198.78,122,198.64,119.52,197.11,119.52Z" transform="translate(-59.5 -22.5)"/><path class="cls-2" d="M206.26,120c-2,0-2,1.56-2,3.07v7h-1.48V118.53h1.48V120a2.42,2.42,0,0,1,2-1.69Z" transform="translate(-59.5 -22.5)"/><path class="cls-2" d="M213.74,126.2c-.08,1.87-.66,4.13-3,4.13-3,0-3.43-3.71-3.43-6s.44-6,3.33-6,3.2,3.51,3.2,5.56c0,.24,0,.5,0,.73h-5v.26c0,1.17.19,4.06,1.88,4.06,1.32,0,1.51-1.77,1.53-2.76Zm-1.37-2.81c-.06-1-.19-3.69-1.7-3.69s-1.77,2.63-1.82,3.69Z" transform="translate(-59.5 -22.5)"/><path class="cls-2" d="M220.54,130.15v-.93a2.34,2.34,0,0,1-2,1.11c-2.7,0-2.78-3.71-2.78-5.77,0-2.36.08-6.21,2.91-6.21a2.2,2.2,0,0,1,1.88,1v-.78H222v11.62ZM219,119.52c-1.72,0-1.75,3-1.75,4.13,0,1,0,1.87.08,2.81s.27,2.68,1.64,2.68a1.18,1.18,0,0,0,.95-.39c.74-.73.74-3.46.74-4.47C220.69,122,220.56,119.52,219,119.52Z" transform="translate(-59.5 -22.5)"/></svg>