<svg id="Ebene_1" data-name="Ebene 1" xmlns="http://www.w3.org/2000/svg" width="399.46" height="256.48" viewBox="0 0 399.46 256.48"><defs><style>.cls-1{fill:none;stroke:#c7f700;stroke-width:8px;}.cls-2{fill:#fde8e9;}</style></defs><g id="Gruppe_432" data-name="Gruppe 432"><g id="Gruppe_430" data-name="Gruppe 430"><g id="Gruppe_93" data-name="Gruppe 93"><path id="Pfad_50-2" data-name="Pfad 50-2" class="cls-1" d="M455,111.59V26.5H375.57" transform="translate(-59.5 -22.5)"/><path id="Pfad_51-2" data-name="Pfad 51-2" class="cls-1" d="M455,189.89V275H375.57" transform="translate(-59.5 -22.5)"/><path id="Pfad_52-2" data-name="Pfad 52-2" class="cls-1" d="M63.5,111.59V26.5h79.39" transform="translate(-59.5 -22.5)"/><path id="Pfad_53-2" data-name="Pfad 53-2" class="cls-1" d="M63.5,189.89V275h79.39" transform="translate(-59.5 -22.5)"/></g></g></g><path class="cls-2" d="M97.91,63.18a9.16,9.16,0,0,1-.24,2.39,3.69,3.69,0,0,1-6.93,0,8.2,8.2,0,0,1-.24-2.42V50.41h1.64v13c0,1.46.19,3.05,2.07,3.05,2.3,0,2.06-2.42,2.06-4v-12h1.64Z" transform="translate(-59.5 -22.5)"/><path class="cls-2" d="M105.15,58.5a2.78,2.78,0,0,0-2-1.2,1.46,1.46,0,0,0-1.46,1.53c0,2.27,3.81,2.68,3.81,5.83a3.16,3.16,0,0,1-3.17,3.27,3.64,3.64,0,0,1-2.2-.8V65.41a3,3,0,0,0,2.09,1.15,1.71,1.71,0,0,0,1.72-1.8c0-2.29-3.81-3.07-3.81-5.87A2.84,2.84,0,0,1,103,56a3.53,3.53,0,0,1,2.11.75Z" transform="translate(-59.5 -22.5)"/><path class="cls-2" d="M113.24,63.8c-.08,1.87-.66,4.13-3,4.13-3.05,0-3.44-3.71-3.44-6s.45-6,3.33-6,3.2,3.51,3.2,5.56c0,.24,0,.5,0,.73h-5v.26c0,1.17.18,4.06,1.87,4.06,1.32,0,1.51-1.77,1.54-2.76ZM111.87,61c-.05-1-.19-3.69-1.69-3.69s-1.78,2.63-1.83,3.69Z" transform="translate(-59.5 -22.5)"/><path class="cls-2" d="M117.47,57.48V67.75H116V57.48h-1.35V56.13H116V51.48c0-1.49.4-3,2.2-3a3.34,3.34,0,0,1,1.32.26v1.61a1.78,1.78,0,0,0-1.08-.52c-.88,0-1,.78-1,1.43v4.84h2v1.35Z" transform="translate(-59.5 -22.5)"/><path class="cls-2" d="M127.07,64.92a3.07,3.07,0,0,1-6.13,0V56.13h1.48V64c0,1.19,0,2.55,1.64,2.55s1.53-1.56,1.53-2.71V56.13h1.48Z" transform="translate(-59.5 -22.5)"/><path class="cls-2" d="M129.71,67.75v-19h1.51v19Z" transform="translate(-59.5 -22.5)"/><path class="cls-2" d="M138.47,67.75V59.3c0-.93,0-2.16-1.33-2.16a1.68,1.68,0,0,0-1.4.76,3.6,3.6,0,0,0-.39,2v7.82h-1.48V56.13h1.48v.94a3.1,3.1,0,0,1,2.3-1.12c2,0,2.3,1.61,2.3,3.2v8.6Z" transform="translate(-59.5 -22.5)"/><path class="cls-2" d="M148.57,63.8c-.08,1.87-.66,4.13-3,4.13-3,0-3.44-3.71-3.44-6s.45-6,3.33-6,3.2,3.51,3.2,5.56c0,.24,0,.5,0,.73h-5v.26c0,1.17.18,4.06,1.88,4.06,1.32,0,1.5-1.77,1.53-2.76ZM147.19,61c-.05-1-.18-3.69-1.69-3.69s-1.77,2.63-1.83,3.69Z" transform="translate(-59.5 -22.5)"/><path class="cls-2" d="M155.33,58.5a2.74,2.74,0,0,0-2-1.2,1.47,1.47,0,0,0-1.46,1.53c0,2.27,3.81,2.68,3.81,5.83a3.15,3.15,0,0,1-3.17,3.27,3.67,3.67,0,0,1-2.2-.8V65.41a3.06,3.06,0,0,0,2.09,1.15,1.71,1.71,0,0,0,1.72-1.8c0-2.29-3.81-3.07-3.81-5.87A2.84,2.84,0,0,1,153.22,56a3.53,3.53,0,0,1,2.11.75Z" transform="translate(-59.5 -22.5)"/><path class="cls-2" d="M161.92,58.5a2.78,2.78,0,0,0-2-1.2,1.46,1.46,0,0,0-1.45,1.53c0,2.27,3.81,2.68,3.81,5.83a3.16,3.16,0,0,1-3.18,3.27,3.61,3.61,0,0,1-2.19-.8V65.41A3,3,0,0,0,159,66.56a1.72,1.72,0,0,0,1.72-1.8c0-2.29-3.81-3.07-3.81-5.87A2.83,2.83,0,0,1,159.8,56a3.53,3.53,0,0,1,2.12.75Z" transform="translate(-59.5 -22.5)"/><path class="cls-2" d="M170.93,53.56A1.1,1.1,0,1,1,172,52.49,1.09,1.09,0,0,1,170.93,53.56Zm-.76,14.19V56.13h1.5V67.75Z" transform="translate(-59.5 -22.5)"/><path class="cls-2" d="M178.76,58.5a2.78,2.78,0,0,0-2-1.2,1.46,1.46,0,0,0-1.45,1.53c0,2.27,3.81,2.68,3.81,5.83a3.16,3.16,0,0,1-3.18,3.27,3.61,3.61,0,0,1-2.19-.8V65.41a3,3,0,0,0,2.09,1.15,1.71,1.71,0,0,0,1.72-1.8c0-2.29-3.81-3.07-3.81-5.87A2.84,2.84,0,0,1,176.64,56a3.53,3.53,0,0,1,2.12.75Z" transform="translate(-59.5 -22.5)"/><path class="cls-2" d="M190.05,67.93c-3,0-3.46-3.74-3.46-6s.42-6,3.46-6,3.31,3.82,3.31,6.06S193.09,67.93,190.05,67.93Zm0-10.63c-1.82,0-1.87,3.54-1.87,4.76s.07,4.5,1.87,4.5,1.8-3.46,1.8-4.63S191.77,57.3,190,57.3Z" transform="translate(-59.5 -22.5)"/><path class="cls-2" d="M200.18,67.75V59.3c0-.93,0-2.16-1.33-2.16a1.68,1.68,0,0,0-1.4.76,3.6,3.6,0,0,0-.39,2v7.82h-1.48V56.13h1.48v.94a3.1,3.1,0,0,1,2.3-1.12c2,0,2.3,1.61,2.3,3.2v8.6Z" transform="translate(-59.5 -22.5)"/><path class="cls-2" d="M210.28,63.8c-.08,1.87-.66,4.13-3,4.13-3,0-3.44-3.71-3.44-6s.45-6,3.33-6,3.2,3.51,3.2,5.56c0,.24,0,.5,0,.73h-5v.26c0,1.17.18,4.06,1.88,4.06,1.32,0,1.5-1.77,1.53-2.76ZM208.9,61c-.05-1-.18-3.69-1.69-3.69s-1.77,2.63-1.83,3.69Z" transform="translate(-59.5 -22.5)"/><path class="cls-2" d="M221.75,67.93c-3,0-3.46-3.74-3.46-6s.42-6,3.46-6,3.31,3.82,3.31,6.06S224.79,67.93,221.75,67.93Zm0-10.63c-1.82,0-1.87,3.54-1.87,4.76s.08,4.5,1.87,4.5,1.8-3.46,1.8-4.63S223.47,57.3,221.72,57.3Z" transform="translate(-59.5 -22.5)"/><path class="cls-2" d="M229.21,57.48V67.75h-1.48V57.48h-1.35V56.13h1.35V51.48c0-1.49.39-3,2.19-3a3.34,3.34,0,0,1,1.32.26v1.61a1.75,1.75,0,0,0-1.08-.52c-.87,0-.95.78-.95,1.43v4.84h2v1.35Z" transform="translate(-59.5 -22.5)"/><path class="cls-2" d="M240.76,57.48V67.75h-1.48V57.48H238V56.13h1.27v-3.3h1.48v3.3h2v1.35Z" transform="translate(-59.5 -22.5)"/><path class="cls-2" d="M248.69,67.75V59.3c0-.93,0-2.16-1.32-2.16a1.68,1.68,0,0,0-1.4.76,3.57,3.57,0,0,0-.4,2v7.82h-1.48v-19h1.48v8.27a3.11,3.11,0,0,1,2.3-1.12c1.93,0,2.3,1.35,2.3,3v8.81Z" transform="translate(-59.5 -22.5)"/><path class="cls-2" d="M256.31,57.64c-2,0-2,1.56-2,3.07v7h-1.48V56.13h1.48v1.51a2.42,2.42,0,0,1,2-1.69Z" transform="translate(-59.5 -22.5)"/><path class="cls-2" d="M263.79,63.8c-.08,1.87-.66,4.13-3,4.13-3,0-3.44-3.71-3.44-6s.45-6,3.34-6,3.2,3.51,3.2,5.56c0,.24,0,.5,0,.73h-5v.26c0,1.17.19,4.06,1.88,4.06,1.32,0,1.51-1.77,1.53-2.76ZM262.41,61c-.05-1-.18-3.69-1.69-3.69S259,59.93,258.9,61Z" transform="translate(-59.5 -22.5)"/><path class="cls-2" d="M272.07,63.8c-.08,1.87-.67,4.13-3,4.13-3,0-3.44-3.71-3.44-6s.45-6,3.33-6,3.2,3.51,3.2,5.56c0,.24,0,.5,0,.73h-5v.26c0,1.17.18,4.06,1.87,4.06,1.33,0,1.51-1.77,1.54-2.76ZM270.69,61c-.05-1-.19-3.69-1.69-3.69s-1.77,2.63-1.83,3.69Z" transform="translate(-59.5 -22.5)"/><path class="cls-2" d="M282.46,57.48V67.75H281V57.48h-1.35V56.13H281V51.48c0-1.49.4-3,2.2-3a3.34,3.34,0,0,1,1.32.26v1.61a1.78,1.78,0,0,0-1.08-.52c-.88,0-1,.78-1,1.43v4.84h2v1.35Z" transform="translate(-59.5 -22.5)"/><path class="cls-2" d="M290.41,67.75v-.93a2.32,2.32,0,0,1-2,1.11c-2.69,0-2.77-3.71-2.77-5.77,0-2.36.08-6.21,2.91-6.21a2.17,2.17,0,0,1,1.87,1v-.78h1.51V67.75Zm-1.5-10.63c-1.72,0-1.75,3-1.75,4.13,0,1,0,1.87.08,2.81s.27,2.68,1.64,2.68a1.18,1.18,0,0,0,.95-.39c.74-.73.74-3.46.74-4.47C290.57,59.56,290.44,57.12,288.91,57.12Z" transform="translate(-59.5 -22.5)"/><path class="cls-2" d="M299.22,67.34a2.93,2.93,0,0,1-1.69.59c-2.78,0-3.41-3.71-3.41-5.79s.47-6.19,3.49-6.19a3.22,3.22,0,0,1,1.61.44v1.72a2.11,2.11,0,0,0-1.48-.81c-1.88,0-2.07,3.41-2.07,4.71s.24,4.55,2,4.55a2,2,0,0,0,1.51-1Z" transform="translate(-59.5 -22.5)"/><path class="cls-2" d="M303,57.48V67.75h-1.48V57.48h-1.27V56.13h1.27v-3.3H303v3.3h2v1.35Z" transform="translate(-59.5 -22.5)"/><path class="cls-2" d="M309.32,67.93c-3,0-3.47-3.74-3.47-6s.43-6,3.47-6,3.3,3.82,3.3,6.06S312.36,67.93,309.32,67.93Zm0-10.63c-1.82,0-1.88,3.54-1.88,4.76s.08,4.5,1.88,4.5,1.8-3.46,1.8-4.63S311,57.3,309.29,57.3Z" transform="translate(-59.5 -22.5)"/><path class="cls-2" d="M318.33,57.64c-2,0-2,1.56-2,3.07v7h-1.48V56.13h1.48v1.51a2.43,2.43,0,0,1,2-1.69Z" transform="translate(-59.5 -22.5)"/><path class="cls-2" d="M324.47,58.5a2.78,2.78,0,0,0-2-1.2A1.46,1.46,0,0,0,321,58.83c0,2.27,3.81,2.68,3.81,5.83a3.16,3.16,0,0,1-3.18,3.27,3.61,3.61,0,0,1-2.19-.8V65.41a3,3,0,0,0,2.09,1.15,1.71,1.71,0,0,0,1.71-1.8c0-2.29-3.8-3.07-3.8-5.87A2.83,2.83,0,0,1,322.35,56a3.53,3.53,0,0,1,2.12.75Z" transform="translate(-59.5 -22.5)"/><path class="cls-2" d="M334.22,56.91a2.2,2.2,0,0,1,1.91-1C339,56,339,59.64,339,61.72c0,2.5-.08,6.21-2.78,6.21a2.49,2.49,0,0,1-2-1.11v.93h-1.48v-19h1.48Zm1.54.21c-1.54,0-1.67,2.44-1.67,4.76,0,1,0,3.74.74,4.47a1.21,1.21,0,0,0,.95.39c1.38,0,1.54-1.67,1.64-2.68s.08-1.82.08-2.73C337.5,60.16,337.48,57.12,335.76,57.12Z" transform="translate(-59.5 -22.5)"/><path class="cls-2" d="M347.21,63.8c-.08,1.87-.66,4.13-3,4.13-3,0-3.44-3.71-3.44-6s.45-6,3.33-6,3.2,3.51,3.2,5.56c0,.24,0,.5,0,.73h-5v.26c0,1.17.18,4.06,1.88,4.06,1.32,0,1.5-1.77,1.53-2.76ZM345.83,61c-.05-1-.18-3.69-1.69-3.69s-1.77,2.63-1.83,3.69Z" transform="translate(-59.5 -22.5)"/><path class="cls-2" d="M354.11,67.75V59.3c0-.93,0-2.16-1.32-2.16a1.68,1.68,0,0,0-1.41.76,3.65,3.65,0,0,0-.39,2v7.82h-1.48v-19H351v8.27a3.1,3.1,0,0,1,2.3-1.12c1.93,0,2.3,1.35,2.3,3v8.81Z" transform="translate(-59.5 -22.5)"/><path class="cls-2" d="M359,53.56a1.1,1.1,0,1,1,1.08-1.07A1.08,1.08,0,0,1,359,53.56Zm-.77,14.19V56.13h1.51V67.75Z" transform="translate(-59.5 -22.5)"/><path class="cls-2" d="M366.93,67.75V59.3c0-.93,0-2.16-1.32-2.16a1.66,1.66,0,0,0-1.4.76,3.53,3.53,0,0,0-.4,2v7.82h-1.48V56.13h1.48v.94a3.1,3.1,0,0,1,2.3-1.12c2,0,2.3,1.61,2.3,3.2v8.6Z" transform="translate(-59.5 -22.5)"/><path class="cls-2" d="M375.42,67.75v-.93a2.38,2.38,0,0,1-2,1.11c-2.72,0-2.78-3.87-2.78-5.9,0-2.26,0-6.08,2.94-6.08a2.19,2.19,0,0,1,1.88,1V48.8h1.48v19Zm-1.54-10.63c-1.69,0-1.72,3-1.72,4.13,0,1,0,1.87.08,2.81s.24,2.68,1.62,2.68a1.24,1.24,0,0,0,1-.39c.72-.7.72-3.43.72-4.4C375.55,59.51,375.42,57.12,373.88,57.12Z" transform="translate(-59.5 -22.5)"/><path class="cls-2" d="M387.63,57.48V67.75h-1.48V57.48h-1.27V56.13h1.27v-3.3h1.48v3.3h2v1.35Z" transform="translate(-59.5 -22.5)"/><path class="cls-2" d="M395.56,67.75V59.3c0-.93,0-2.16-1.32-2.16a1.68,1.68,0,0,0-1.4.76,3.57,3.57,0,0,0-.4,2v7.82H391v-19h1.48v8.27a3.13,3.13,0,0,1,2.3-1.12c1.93,0,2.3,1.35,2.3,3v8.81Z" transform="translate(-59.5 -22.5)"/><path class="cls-2" d="M405.37,63.8c-.08,1.87-.66,4.13-3,4.13-3.05,0-3.44-3.71-3.44-6s.45-6,3.33-6,3.2,3.51,3.2,5.56c0,.24,0,.5,0,.73h-5v.26c0,1.17.18,4.06,1.87,4.06,1.32,0,1.51-1.77,1.54-2.76ZM404,61c-.05-1-.19-3.69-1.69-3.69s-1.78,2.63-1.83,3.69Z" transform="translate(-59.5 -22.5)"/><path class="cls-2" d="M94.84,89.7a2.78,2.78,0,0,0-2-1.2A1.46,1.46,0,0,0,91.35,90c0,2.27,3.81,2.68,3.81,5.83A3.16,3.16,0,0,1,92,99.13a3.64,3.64,0,0,1-2.2-.8V96.61a3,3,0,0,0,2.09,1.15A1.71,1.71,0,0,0,93.6,96c0-2.29-3.81-3.07-3.81-5.87a2.84,2.84,0,0,1,2.94-2.94,3.53,3.53,0,0,1,2.11.75Z" transform="translate(-59.5 -22.5)"/><path class="cls-2" d="M103.09,96.12a3.07,3.07,0,0,1-6.13,0V87.33h1.48v7.88c0,1.19,0,2.55,1.64,2.55s1.53-1.56,1.53-2.71V87.33h1.48Z" transform="translate(-59.5 -22.5)"/><path class="cls-2" d="M107.21,88.11a2.21,2.21,0,0,1,1.91-1c2.88,0,2.91,3.69,2.91,5.77,0,2.5-.08,6.21-2.78,6.21a2.51,2.51,0,0,1-2-1.11V99h-1.48V80h1.48Zm1.54.21c-1.54,0-1.67,2.44-1.67,4.76,0,1,0,3.74.74,4.47a1.21,1.21,0,0,0,1,.39c1.38,0,1.54-1.67,1.64-2.68s.08-1.82.08-2.73C110.49,91.36,110.47,88.32,108.75,88.32Z" transform="translate(-59.5 -22.5)"/><path class="cls-2" d="M115,84.76a1.1,1.1,0,1,1,1.11-1.07A1.11,1.11,0,0,1,115,84.76Zm-.77,18.87V87.33h1.54v16.3Z" transform="translate(-59.5 -22.5)"/><path class="cls-2" d="M124.4,95c-.08,1.87-.66,4.13-3,4.13-3,0-3.43-3.71-3.43-5.95s.44-6,3.33-6,3.2,3.51,3.2,5.56c0,.24,0,.5,0,.73h-5v.26c0,1.17.19,4.06,1.88,4.06,1.32,0,1.51-1.77,1.53-2.76ZM123,92.19c-.06-1-.19-3.69-1.7-3.69s-1.77,2.63-1.82,3.69Z" transform="translate(-59.5 -22.5)"/><path class="cls-2" d="M131.35,98.54a2.91,2.91,0,0,1-1.69.59c-2.77,0-3.41-3.71-3.41-5.79s.48-6.19,3.49-6.19a3.2,3.2,0,0,1,1.61.44v1.72a2.09,2.09,0,0,0-1.48-.81c-1.87,0-2.06,3.41-2.06,4.71s.24,4.55,2,4.55a2,2,0,0,0,1.5-1Z" transform="translate(-59.5 -22.5)"/><path class="cls-2" d="M135.13,88.68V99h-1.48V88.68h-1.27V87.33h1.27V84h1.48v3.3h2v1.35Z" transform="translate(-59.5 -22.5)"/><path class="cls-2" d="M139.21,84.76a1.1,1.1,0,1,1,1.08-1.07A1.09,1.09,0,0,1,139.21,84.76ZM138.44,99V87.33H140V99Z" transform="translate(-59.5 -22.5)"/><path class="cls-2" d="M145.74,99h-1.62l-2.69-11.62H143l1.56,6.94a24.15,24.15,0,0,1,.42,2.5c.14-.81.27-1.64.43-2.45l1.45-7h1.53Z" transform="translate(-59.5 -22.5)"/><path class="cls-2" d="M155.65,95c-.08,1.87-.66,4.13-3,4.13-3,0-3.43-3.71-3.43-5.95s.45-6,3.33-6,3.2,3.51,3.2,5.56c0,.24,0,.5,0,.73h-5v.26c0,1.17.19,4.06,1.88,4.06,1.32,0,1.51-1.77,1.54-2.76Zm-1.37-2.81c-.06-1-.19-3.69-1.7-3.69s-1.77,2.63-1.82,3.69Z" transform="translate(-59.5 -22.5)"/><path class="cls-2" d="M165.59,88.11a2.16,2.16,0,0,1,1.88-1c2.91,0,2.94,3.66,2.94,5.77,0,2.5-.08,6.21-2.78,6.21a2.49,2.49,0,0,1-2-1.11v5.61h-1.48V87.33h1.48Zm1.54.21c-1.54,0-1.67,2.44-1.67,4.76,0,1,0,3.74.74,4.47a1.21,1.21,0,0,0,1,.39c1.38,0,1.54-1.67,1.64-2.68s.08-1.82.08-2.73C168.87,91.36,168.85,88.32,167.13,88.32Z" transform="translate(-59.5 -22.5)"/><path class="cls-2" d="M178.58,95c-.08,1.87-.66,4.13-3,4.13-3,0-3.44-3.71-3.44-5.95s.45-6,3.33-6,3.2,3.51,3.2,5.56c0,.24,0,.5,0,.73h-5v.26c0,1.17.18,4.06,1.87,4.06,1.33,0,1.51-1.77,1.54-2.76Zm-1.38-2.81c0-1-.18-3.69-1.69-3.69s-1.77,2.63-1.83,3.69Z" transform="translate(-59.5 -22.5)"/><path class="cls-2" d="M184.37,88.84c-2,0-2,1.56-2,3.07v7h-1.48V87.33h1.48v1.51a2.41,2.41,0,0,1,2-1.69Z" transform="translate(-59.5 -22.5)"/><path class="cls-2" d="M190.53,98.54a2.94,2.94,0,0,1-1.7.59c-2.77,0-3.41-3.71-3.41-5.79s.48-6.19,3.49-6.19a3.26,3.26,0,0,1,1.62.44v1.72A2.13,2.13,0,0,0,189,88.5c-1.87,0-2.06,3.41-2.06,4.71s.24,4.55,2,4.55a2,2,0,0,0,1.51-1Z" transform="translate(-59.5 -22.5)"/><path class="cls-2" d="M198.35,95c-.08,1.87-.66,4.13-3,4.13-3,0-3.43-3.71-3.43-5.95s.45-6,3.33-6,3.2,3.51,3.2,5.56c0,.24,0,.5,0,.73h-5v.26c0,1.17.19,4.06,1.88,4.06,1.32,0,1.51-1.77,1.53-2.76ZM197,92.19c-.06-1-.19-3.69-1.69-3.69s-1.78,2.63-1.83,3.69Z" transform="translate(-59.5 -22.5)"/><path class="cls-2" d="M202.13,88.11a2.15,2.15,0,0,1,1.88-1c2.91,0,2.94,3.66,2.94,5.77,0,2.5-.08,6.21-2.78,6.21a2.49,2.49,0,0,1-2-1.11v5.61h-1.48V87.33h1.48Zm1.54.21c-1.54,0-1.67,2.44-1.67,4.76,0,1,0,3.74.74,4.47a1.2,1.2,0,0,0,.95.39c1.38,0,1.54-1.67,1.64-2.68s.08-1.82.08-2.73C205.41,91.36,205.38,88.32,203.67,88.32Z" transform="translate(-59.5 -22.5)"/><path class="cls-2" d="M211.07,88.68V99h-1.48V88.68h-1.27V87.33h1.27V84h1.48v3.3h2v1.35Z" transform="translate(-59.5 -22.5)"/><path class="cls-2" d="M215.14,84.76a1.1,1.1,0,1,1,1.08-1.07A1.08,1.08,0,0,1,215.14,84.76ZM214.37,99V87.33h1.51V99Z" transform="translate(-59.5 -22.5)"/><path class="cls-2" d="M221.51,99.13c-3,0-3.46-3.74-3.46-6s.42-6,3.46-6,3.31,3.82,3.31,6.06S224.55,99.13,221.51,99.13Zm0-10.63c-1.83,0-1.88,3.54-1.88,4.76s.08,4.5,1.88,4.5,1.79-3.46,1.79-4.63S223.23,88.5,221.49,88.5Z" transform="translate(-59.5 -22.5)"/><path class="cls-2" d="M231.64,99V90.5c0-.93,0-2.16-1.32-2.16a1.66,1.66,0,0,0-1.4.76,3.53,3.53,0,0,0-.4,2V99H227V87.33h1.48v.94a3.1,3.1,0,0,1,2.3-1.12c2,0,2.3,1.61,2.3,3.2V99Z" transform="translate(-59.5 -22.5)"/><path class="cls-2" d="M244.94,99.13c-3,0-3.47-3.74-3.47-6s.43-6,3.47-6,3.3,3.82,3.3,6.06S248,99.13,244.94,99.13Zm0-10.63c-1.82,0-1.88,3.54-1.88,4.76s.08,4.5,1.88,4.5,1.8-3.46,1.8-4.63S246.66,88.5,244.91,88.5Z" transform="translate(-59.5 -22.5)"/><path class="cls-2" d="M252.39,88.68V99h-1.48V88.68h-1.35V87.33h1.35V82.68c0-1.49.4-3,2.2-3a3.34,3.34,0,0,1,1.32.26v1.61a1.78,1.78,0,0,0-1.08-.52c-.88,0-1,.78-1,1.43v4.84h2v1.35Z" transform="translate(-59.5 -22.5)"/><path class="cls-2" d="M263.79,83.09V89.2h3.75v1.48h-3.75V99h-1.64V81.61h5.61v1.48Z" transform="translate(-59.5 -22.5)"/><path class="cls-2" d="M276,99l-4.1-8.47V99h-1.79V81.61h2.22a6.42,6.42,0,0,1,3,.49c1.58.84,1.9,2.55,1.9,4.16,0,2.4-.82,4.16-3.49,4.37l4.1,8.32Zm-3-9.75c2.11,0,2.46-1.22,2.46-3,0-2-.43-3.07-2.67-3.07h-.88V89.2Z" transform="translate(-59.5 -22.5)"/><path class="cls-2" d="M282.19,83.09V99h-1.64V83.09h-2.64V81.61h6.93v1.48Z" transform="translate(-59.5 -22.5)"/><path class="cls-2" d="M289.89,89.7a2.78,2.78,0,0,0-2-1.2A1.46,1.46,0,0,0,286.4,90c0,2.27,3.8,2.68,3.8,5.83A3.15,3.15,0,0,1,287,99.13a3.61,3.61,0,0,1-2.19-.8V96.61a3,3,0,0,0,2.08,1.15,1.71,1.71,0,0,0,1.72-1.8c0-2.29-3.8-3.07-3.8-5.87a2.83,2.83,0,0,1,2.93-2.94,3.56,3.56,0,0,1,2.12.75Z" transform="translate(-59.5 -22.5)"/><path class="cls-2" d="M293,99.13A1.2,1.2,0,0,1,291.82,98,1.19,1.19,0,1,1,293,99.13Z" transform="translate(-59.5 -22.5)"/><path class="cls-2" d="M305.83,83.09V99h-1.64V83.09h-2.65V81.61h6.93v1.48Z" transform="translate(-59.5 -22.5)"/><path class="cls-2" d="M313.84,99V90.5c0-.93,0-2.16-1.32-2.16a1.66,1.66,0,0,0-1.4.76,3.57,3.57,0,0,0-.4,2V99h-1.48V80h1.48v8.27a3.1,3.1,0,0,1,2.3-1.12c1.93,0,2.3,1.35,2.3,3V99Z" transform="translate(-59.5 -22.5)"/><path class="cls-2" d="M323.65,95c-.08,1.87-.66,4.13-3,4.13-3,0-3.44-3.71-3.44-5.95s.45-6,3.34-6,3.2,3.51,3.2,5.56c0,.24,0,.5,0,.73h-5v.26c0,1.17.19,4.06,1.88,4.06,1.32,0,1.51-1.77,1.53-2.76Zm-1.37-2.81c-.06-1-.19-3.69-1.7-3.69s-1.77,2.63-1.82,3.69Z" transform="translate(-59.5 -22.5)"/><path class="cls-2" d="M326.69,84.76a1.1,1.1,0,1,1,1.08-1.07A1.08,1.08,0,0,1,326.69,84.76ZM325.92,99V87.33h1.51V99Z" transform="translate(-59.5 -22.5)"/><path class="cls-2" d="M333.54,88.84c-2,0-2,1.56-2,3.07v7h-1.48V87.33h1.48v1.51a2.42,2.42,0,0,1,2-1.69Z" transform="translate(-59.5 -22.5)"/><path class="cls-2" d="M347.5,96.12a3.07,3.07,0,0,1-6.14,0V87.33h1.48v7.88c0,1.19.06,2.55,1.64,2.55S346,96.2,346,95.05V87.33h1.48Z" transform="translate(-59.5 -22.5)"/><path class="cls-2" d="M354.61,89.7a2.78,2.78,0,0,0-2-1.2A1.46,1.46,0,0,0,351.12,90c0,2.27,3.81,2.68,3.81,5.83a3.16,3.16,0,0,1-3.18,3.27,3.61,3.61,0,0,1-2.19-.8V96.61a3,3,0,0,0,2.09,1.15,1.71,1.71,0,0,0,1.72-1.8c0-2.29-3.81-3.07-3.81-5.87a2.84,2.84,0,0,1,2.94-2.94,3.53,3.53,0,0,1,2.11.75Z" transform="translate(-59.5 -22.5)"/><path class="cls-2" d="M362.7,95c-.08,1.87-.66,4.13-3,4.13-3,0-3.43-3.71-3.43-5.95s.44-6,3.33-6,3.2,3.51,3.2,5.56c0,.24,0,.5,0,.73h-5v.26c0,1.17.19,4.06,1.88,4.06,1.32,0,1.51-1.77,1.53-2.76Zm-1.37-2.81c-.06-1-.19-3.69-1.7-3.69s-1.77,2.63-1.82,3.69Z" transform="translate(-59.5 -22.5)"/><path class="cls-2" d="M366.93,88.68V99h-1.48V88.68H364.1V87.33h1.35V82.68c0-1.49.4-3,2.19-3A3.43,3.43,0,0,1,369,80v1.61a1.78,1.78,0,0,0-1.09-.52c-.87,0-.95.78-.95,1.43v4.84h2v1.35Z" transform="translate(-59.5 -22.5)"/><path class="cls-2" d="M376.53,96.12a3.07,3.07,0,0,1-6.14,0V87.33h1.48v7.88c0,1.19.06,2.55,1.64,2.55s1.54-1.56,1.54-2.71V87.33h1.48Z" transform="translate(-59.5 -22.5)"/><path class="cls-2" d="M379.17,99V80h1.51V99Z" transform="translate(-59.5 -22.5)"/><path class="cls-2" d="M387.92,99V90.5c0-.93,0-2.16-1.32-2.16a1.68,1.68,0,0,0-1.4.76,3.53,3.53,0,0,0-.4,2V99h-1.48V87.33h1.48v.94a3.13,3.13,0,0,1,2.3-1.12c2,0,2.31,1.61,2.31,3.2V99Z" transform="translate(-59.5 -22.5)"/><path class="cls-2" d="M398,95c-.08,1.87-.66,4.13-3,4.13-3,0-3.44-3.71-3.44-5.95s.45-6,3.33-6,3.2,3.51,3.2,5.56c0,.24,0,.5,0,.73h-5v.26c0,1.17.18,4.06,1.87,4.06,1.32,0,1.51-1.77,1.54-2.76Zm-1.37-2.81c0-1-.19-3.69-1.69-3.69s-1.78,2.63-1.83,3.69Z" transform="translate(-59.5 -22.5)"/><path class="cls-2" d="M404.79,89.7a2.78,2.78,0,0,0-2-1.2A1.46,1.46,0,0,0,401.3,90c0,2.27,3.81,2.68,3.81,5.83a3.16,3.16,0,0,1-3.17,3.27,3.64,3.64,0,0,1-2.2-.8V96.61a3,3,0,0,0,2.09,1.15,1.71,1.71,0,0,0,1.72-1.8c0-2.29-3.81-3.07-3.81-5.87a2.84,2.84,0,0,1,2.94-2.94,3.53,3.53,0,0,1,2.11.75Z" transform="translate(-59.5 -22.5)"/><path class="cls-2" d="M411.38,89.7a2.78,2.78,0,0,0-2-1.2A1.47,1.47,0,0,0,407.88,90c0,2.27,3.81,2.68,3.81,5.83a3.15,3.15,0,0,1-3.17,3.27,3.67,3.67,0,0,1-2.2-.8V96.61a3.06,3.06,0,0,0,2.09,1.15,1.71,1.71,0,0,0,1.72-1.8c0-2.29-3.81-3.07-3.81-5.87a2.84,2.84,0,0,1,2.94-2.94,3.58,3.58,0,0,1,2.12.75Z" transform="translate(-59.5 -22.5)"/><path class="cls-2" d="M420.39,84.76a1.1,1.1,0,1,1,1.08-1.07A1.08,1.08,0,0,1,420.39,84.76ZM419.62,99V87.33h1.51V99Z" transform="translate(-59.5 -22.5)"/><path class="cls-2" d="M428.22,89.7a2.78,2.78,0,0,0-2-1.2A1.46,1.46,0,0,0,424.73,90c0,2.27,3.81,2.68,3.81,5.83a3.16,3.16,0,0,1-3.18,3.27,3.61,3.61,0,0,1-2.19-.8V96.61a3,3,0,0,0,2.09,1.15A1.71,1.71,0,0,0,427,96c0-2.29-3.8-3.07-3.8-5.87a2.83,2.83,0,0,1,2.93-2.94,3.53,3.53,0,0,1,2.12.75Z" transform="translate(-59.5 -22.5)"/><path class="cls-2" d="M96.35,126.2c-.08,1.87-.66,4.13-3,4.13-3,0-3.44-3.71-3.44-6s.45-6,3.33-6,3.2,3.51,3.2,5.56c0,.24,0,.5,0,.73h-5v.26c0,1.17.19,4.06,1.88,4.06,1.32,0,1.5-1.77,1.53-2.76ZM95,123.39c0-1-.18-3.69-1.69-3.69s-1.77,2.63-1.82,3.69Z" transform="translate(-59.5 -22.5)"/><path class="cls-2" d="M101.66,130.15h-1.61l-2.7-11.62h1.54l1.56,6.94c.18.83.31,1.67.42,2.5.13-.81.26-1.64.42-2.45l1.46-7h1.53Z" transform="translate(-59.5 -22.5)"/><path class="cls-2" d="M110.12,130.15v-.93a2.33,2.33,0,0,1-2,1.11c-2.69,0-2.77-3.71-2.77-5.77,0-2.36.08-6.21,2.91-6.21a2.18,2.18,0,0,1,1.87,1v-.78h1.51v11.62Zm-1.5-10.63c-1.72,0-1.75,3-1.75,4.13,0,1,0,1.87.08,2.81s.26,2.68,1.64,2.68a1.18,1.18,0,0,0,1-.39c.74-.73.74-3.46.74-4.47C110.28,122,110.15,119.52,108.62,119.52Z" transform="translate(-59.5 -22.5)"/><path class="cls-2" d="M114.27,130.15v-19h1.51v19Z" transform="translate(-59.5 -22.5)"/><path class="cls-2" d="M124.56,127.32a3.07,3.07,0,0,1-6.14,0v-8.79h1.49v7.88c0,1.19,0,2.55,1.63,2.55s1.54-1.56,1.54-2.71v-7.72h1.48Z" transform="translate(-59.5 -22.5)"/><path class="cls-2" d="M131.7,130.15v-.93a2.34,2.34,0,0,1-2,1.11c-2.7,0-2.78-3.71-2.78-5.77,0-2.36.08-6.21,2.91-6.21a2.19,2.19,0,0,1,1.88,1v-.78h1.51v11.62Zm-1.51-10.63c-1.72,0-1.74,3-1.74,4.13,0,1,0,1.87.07,2.81s.27,2.68,1.64,2.68a1.22,1.22,0,0,0,1-.39c.74-.73.74-3.46.74-4.47C131.86,122,131.72,119.52,130.19,119.52Z" transform="translate(-59.5 -22.5)"/><path class="cls-2" d="M137.78,119.88v10.27H136.3V119.88H135v-1.35h1.27v-3.3h1.48v3.3h2v1.35Z" transform="translate(-59.5 -22.5)"/><path class="cls-2" d="M147,126.2c-.08,1.87-.66,4.13-3,4.13-3,0-3.43-3.71-3.43-6s.45-6,3.33-6,3.2,3.51,3.2,5.56c0,.24,0,.5,0,.73h-5v.26c0,1.17.19,4.06,1.88,4.06,1.32,0,1.51-1.77,1.54-2.76Zm-1.37-2.81c0-1-.19-3.69-1.69-3.69s-1.78,2.63-1.83,3.69Z" transform="translate(-59.5 -22.5)"/><path class="cls-2" d="M153.7,130.15v-.93a2.39,2.39,0,0,1-2,1.11c-2.72,0-2.78-3.87-2.78-5.9,0-2.26,0-6.08,2.94-6.08a2.2,2.2,0,0,1,1.88,1V111.2h1.48v19Zm-1.54-10.63c-1.69,0-1.72,3-1.72,4.13,0,1,0,1.87.08,2.81s.24,2.68,1.62,2.68a1.24,1.24,0,0,0,1-.39c.72-.7.72-3.43.72-4.4C153.83,121.91,153.7,119.52,152.16,119.52Z" transform="translate(-59.5 -22.5)"/><path class="cls-2" d="M165.46,119.31a2.2,2.2,0,0,1,1.91-1c2.88,0,2.9,3.69,2.9,5.77,0,2.5-.08,6.21-2.77,6.21a2.49,2.49,0,0,1-2-1.11v.93H164v-19h1.48Zm1.54.21c-1.54,0-1.67,2.44-1.67,4.76,0,1,0,3.74.74,4.47a1.18,1.18,0,0,0,1,.39c1.38,0,1.54-1.67,1.64-2.68s.08-1.82.08-2.73C168.74,122.56,168.71,119.52,167,119.52Z" transform="translate(-59.5 -22.5)"/><path class="cls-2" d="M177,130.15v-.93a2.33,2.33,0,0,1-2,1.11c-2.69,0-2.77-3.71-2.77-5.77,0-2.36.08-6.21,2.91-6.21a2.18,2.18,0,0,1,1.87,1v-.78h1.51v11.62Zm-1.5-10.63c-1.72,0-1.75,3-1.75,4.13,0,1,0,1.87.08,2.81s.26,2.68,1.64,2.68a1.18,1.18,0,0,0,.95-.39c.74-.73.74-3.46.74-4.47C177.12,122,177,119.52,175.46,119.52Z" transform="translate(-59.5 -22.5)"/><path class="cls-2" d="M185.58,120.9a2.78,2.78,0,0,0-2-1.2,1.46,1.46,0,0,0-1.46,1.53c0,2.27,3.81,2.68,3.81,5.83a3.16,3.16,0,0,1-3.17,3.27,3.64,3.64,0,0,1-2.2-.8v-1.72a3,3,0,0,0,2.09,1.15,1.71,1.71,0,0,0,1.72-1.8c0-2.29-3.81-3.07-3.81-5.87a2.84,2.84,0,0,1,2.94-2.94,3.53,3.53,0,0,1,2.11.75Z" transform="translate(-59.5 -22.5)"/><path class="cls-2" d="M193.67,126.2c-.08,1.87-.66,4.13-3,4.13-3.05,0-3.44-3.71-3.44-6s.45-6,3.33-6,3.2,3.51,3.2,5.56c0,.24,0,.5,0,.73h-5v.26c0,1.17.19,4.06,1.88,4.06,1.32,0,1.51-1.77,1.54-2.76Zm-1.37-2.81c-.05-1-.19-3.69-1.69-3.69s-1.78,2.63-1.83,3.69Z" transform="translate(-59.5 -22.5)"/><path class="cls-2" d="M200.34,130.15v-.93a2.38,2.38,0,0,1-2,1.11c-2.72,0-2.78-3.87-2.78-5.9,0-2.26,0-6.08,2.94-6.08a2.2,2.2,0,0,1,1.88,1V111.2h1.48v19Zm-1.54-10.63c-1.69,0-1.72,3-1.72,4.13,0,1,0,1.87.08,2.81s.24,2.68,1.62,2.68a1.24,1.24,0,0,0,1-.39c.72-.7.72-3.43.72-4.4C200.47,121.91,200.34,119.52,198.8,119.52Z" transform="translate(-59.5 -22.5)"/><path class="cls-2" d="M213.63,130.33c-3,0-3.46-3.74-3.46-6s.42-6,3.46-6,3.31,3.82,3.31,6.06S216.68,130.33,213.63,130.33Zm0-10.63c-1.83,0-1.88,3.54-1.88,4.76s.08,4.5,1.88,4.5,1.8-3.46,1.8-4.63S215.35,119.7,213.61,119.7Z" transform="translate(-59.5 -22.5)"/><path class="cls-2" d="M223.76,130.15V121.7c0-.93,0-2.16-1.32-2.16a1.66,1.66,0,0,0-1.4.76,3.53,3.53,0,0,0-.4,2v7.82h-1.48V118.53h1.48v.94a3.11,3.11,0,0,1,2.3-1.12c2,0,2.3,1.61,2.3,3.2v8.6Z" transform="translate(-59.5 -22.5)"/><path class="cls-2" d="M241.48,130.15h-1.54c-.5-3.22-1.08-6.45-1.51-9.67-.1.62-.13,1.2-.23,1.82l-1.3,7.85h-1.53L233,118.53h1.5l1.33,7c.16.8.26,1.63.34,2.44.05-.78.21-1.59.34-2.39l1.19-7.1h1.54c.5,3.15,1.11,6.32,1.48,9.49.13-.81.24-1.64.4-2.47l1.45-7h1.51Z" transform="translate(-59.5 -22.5)"/><path class="cls-2" d="M250.25,130.15V121.7c0-.93,0-2.16-1.32-2.16a1.68,1.68,0,0,0-1.4.76,3.57,3.57,0,0,0-.4,2v7.82h-1.48v-19h1.48v8.27a3.11,3.11,0,0,1,2.3-1.12c1.93,0,2.3,1.35,2.3,3v8.81Z" transform="translate(-59.5 -22.5)"/><path class="cls-2" d="M255.12,116a1.1,1.1,0,1,1,1.08-1.07A1.08,1.08,0,0,1,255.12,116Zm-.77,14.19V118.53h1.51v11.62Z" transform="translate(-59.5 -22.5)"/><path class="cls-2" d="M263.13,129.74a2.93,2.93,0,0,1-1.69.59c-2.78,0-3.41-3.71-3.41-5.79s.47-6.19,3.49-6.19a3.22,3.22,0,0,1,1.61.44v1.72a2.11,2.11,0,0,0-1.48-.81c-1.88,0-2.06,3.41-2.06,4.71s.23,4.55,2,4.55a2,2,0,0,0,1.51-1Z" transform="translate(-59.5 -22.5)"/><path class="cls-2" d="M269.47,130.15V121.7c0-.93,0-2.16-1.32-2.16a1.68,1.68,0,0,0-1.4.76,3.57,3.57,0,0,0-.4,2v7.82h-1.48v-19h1.48v8.27a3.13,3.13,0,0,1,2.31-1.12c1.93,0,2.3,1.35,2.3,3v8.81Z" transform="translate(-59.5 -22.5)"/><path class="cls-2" d="M282.77,130.33c-3,0-3.46-3.74-3.46-6s.42-6,3.46-6,3.31,3.82,3.31,6.06S285.81,130.33,282.77,130.33Zm0-10.63c-1.83,0-1.88,3.54-1.88,4.76s.08,4.5,1.88,4.5,1.79-3.46,1.79-4.63S284.49,119.7,282.75,119.7Z" transform="translate(-59.5 -22.5)"/><path class="cls-2" d="M293,129.74a2.91,2.91,0,0,1-1.69.59c-2.78,0-3.41-3.71-3.41-5.79s.48-6.19,3.49-6.19a3.2,3.2,0,0,1,1.61.44v1.72a2.09,2.09,0,0,0-1.48-.81c-1.88,0-2.06,3.41-2.06,4.71s.24,4.55,2,4.55a2,2,0,0,0,1.5-1Z" transform="translate(-59.5 -22.5)"/><path class="cls-2" d="M299.46,129.74a2.93,2.93,0,0,1-1.69.59c-2.78,0-3.42-3.71-3.42-5.79s.48-6.19,3.49-6.19a3.23,3.23,0,0,1,1.62.44v1.72a2.13,2.13,0,0,0-1.48-.81c-1.88,0-2.07,3.41-2.07,4.71s.24,4.55,2,4.55a2,2,0,0,0,1.51-1Z" transform="translate(-59.5 -22.5)"/><path class="cls-2" d="M305.8,130.15v-.93a2.33,2.33,0,0,1-2,1.11c-2.69,0-2.77-3.71-2.77-5.77,0-2.36.08-6.21,2.91-6.21a2.18,2.18,0,0,1,1.87,1v-.78h1.51v11.62Zm-1.5-10.63c-1.72,0-1.75,3-1.75,4.13,0,1,0,1.87.08,2.81s.26,2.68,1.64,2.68a1.18,1.18,0,0,0,1-.39c.74-.73.74-3.46.74-4.47C306,122,305.83,119.52,304.3,119.52Z" transform="translate(-59.5 -22.5)"/><path class="cls-2" d="M314.42,120.9a2.78,2.78,0,0,0-2-1.2,1.46,1.46,0,0,0-1.46,1.53c0,2.27,3.81,2.68,3.81,5.83a3.16,3.16,0,0,1-3.17,3.27,3.64,3.64,0,0,1-2.2-.8v-1.72a3,3,0,0,0,2.09,1.15,1.71,1.71,0,0,0,1.72-1.8c0-2.29-3.81-3.07-3.81-5.87a2.84,2.84,0,0,1,2.94-2.94,3.53,3.53,0,0,1,2.11.75Z" transform="translate(-59.5 -22.5)"/><path class="cls-2" d="M317.28,116a1.1,1.1,0,1,1,1.08-1.07A1.09,1.09,0,0,1,317.28,116Zm-.77,14.19V118.53H318v11.62Z" transform="translate(-59.5 -22.5)"/><path class="cls-2" d="M323.65,130.33c-3,0-3.46-3.74-3.46-6s.42-6,3.46-6,3.31,3.82,3.31,6.06S326.69,130.33,323.65,130.33Zm0-10.63c-1.82,0-1.87,3.54-1.87,4.76s.07,4.5,1.87,4.5,1.8-3.46,1.8-4.63S325.37,119.7,323.62,119.7Z" transform="translate(-59.5 -22.5)"/><path class="cls-2" d="M333.78,130.15V121.7c0-.93,0-2.16-1.33-2.16a1.68,1.68,0,0,0-1.4.76,3.6,3.6,0,0,0-.39,2v7.82h-1.49V118.53h1.49v.94a3.1,3.1,0,0,1,2.3-1.12c2,0,2.3,1.61,2.3,3.2v8.6Z" transform="translate(-59.5 -22.5)"/><path class="cls-2" d="M342.37,120.9a2.78,2.78,0,0,0-2-1.2,1.46,1.46,0,0,0-1.45,1.53c0,2.27,3.81,2.68,3.81,5.83a3.16,3.16,0,0,1-3.18,3.27,3.61,3.61,0,0,1-2.19-.8v-1.72a3,3,0,0,0,2.09,1.15,1.72,1.72,0,0,0,1.72-1.8c0-2.29-3.81-3.07-3.81-5.87a2.84,2.84,0,0,1,2.93-2.94,3.53,3.53,0,0,1,2.12.75Z" transform="translate(-59.5 -22.5)"/><path class="cls-2" d="M352.57,119.88v10.27h-1.48V119.88h-1.27v-1.35h1.27v-3.3h1.48v3.3h2v1.35Z" transform="translate(-59.5 -22.5)"/><path class="cls-2" d="M360.51,130.15V121.7c0-.93,0-2.16-1.33-2.16a1.68,1.68,0,0,0-1.4.76,3.65,3.65,0,0,0-.39,2v7.82h-1.48v-19h1.48v8.27a3.1,3.1,0,0,1,2.3-1.12c1.93,0,2.3,1.35,2.3,3v8.81Z" transform="translate(-59.5 -22.5)"/><path class="cls-2" d="M370.32,126.2c-.08,1.87-.66,4.13-3,4.13-3,0-3.44-3.71-3.44-6s.45-6,3.33-6,3.2,3.51,3.2,5.56c0,.24,0,.5,0,.73h-5v.26c0,1.17.18,4.06,1.88,4.06,1.32,0,1.5-1.77,1.53-2.76Zm-1.38-2.81c-.05-1-.18-3.69-1.69-3.69s-1.77,2.63-1.83,3.69Z" transform="translate(-59.5 -22.5)"/><path class="cls-2" d="M374.36,134.83h-1.59l1.33-5-2.81-11.31h1.51l1.48,6.45c.24,1,.42,2,.56,2.91.1-.73.29-1.43.47-2.18l1.72-7.18h1.56Z" transform="translate(-59.5 -22.5)"/><path class="cls-2" d="M390.73,130.15v-.93a2.34,2.34,0,0,1-2,1.11c-2.7,0-2.78-3.71-2.78-5.77,0-2.36.08-6.21,2.91-6.21a2.19,2.19,0,0,1,1.88,1v-.78h1.5v11.62Zm-1.51-10.63c-1.72,0-1.75,3-1.75,4.13,0,1,0,1.87.08,2.81s.27,2.68,1.64,2.68a1.18,1.18,0,0,0,.95-.39c.75-.73.75-3.46.75-4.47C390.89,122,390.75,119.52,389.22,119.52Z" transform="translate(-59.5 -22.5)"/><path class="cls-2" d="M398.37,120c-2,0-2,1.56-2,3.07v7h-1.48V118.53h1.48V120a2.42,2.42,0,0,1,2-1.69Z" transform="translate(-59.5 -22.5)"/><path class="cls-2" d="M405.85,126.2c-.08,1.87-.66,4.13-3,4.13-3,0-3.44-3.71-3.44-6s.45-6,3.34-6,3.2,3.51,3.2,5.56c0,.24,0,.5,0,.73h-5v.26c0,1.17.19,4.06,1.88,4.06,1.32,0,1.51-1.77,1.53-2.76Zm-1.38-2.81c-.05-1-.18-3.69-1.69-3.69s-1.77,2.63-1.82,3.69Z" transform="translate(-59.5 -22.5)"/><path class="cls-2" d="M91.85,150.51a2.16,2.16,0,0,1,1.88-1c2.91,0,2.94,3.66,2.94,5.77,0,2.49-.08,6.21-2.78,6.21a2.49,2.49,0,0,1-2-1.11V166H90.37v-16.3h1.48Zm1.54.21c-1.54,0-1.67,2.44-1.67,4.75,0,1,0,3.75.74,4.48a1.21,1.21,0,0,0,1,.39c1.38,0,1.54-1.67,1.64-2.68s.08-1.82.08-2.73C95.13,153.76,95.11,150.72,93.39,150.72Z" transform="translate(-59.5 -22.5)"/><path class="cls-2" d="M104.84,157.4c-.08,1.87-.67,4.13-3,4.13-3,0-3.44-3.72-3.44-5.95s.45-6,3.33-6,3.2,3.51,3.2,5.56c0,.24,0,.49,0,.73h-5v.26c0,1.17.18,4.05,1.87,4.05,1.33,0,1.51-1.76,1.54-2.75Zm-1.38-2.81c0-1-.18-3.69-1.69-3.69s-1.77,2.62-1.83,3.69Z" transform="translate(-59.5 -22.5)"/><path class="cls-2" d="M110.63,151.24c-2,0-2,1.56-2,3.07v7h-1.48V149.73h1.48v1.51a2.41,2.41,0,0,1,2-1.69Z" transform="translate(-59.5 -22.5)"/><path class="cls-2" d="M116.79,160.93a2.88,2.88,0,0,1-1.7.6c-2.77,0-3.41-3.72-3.41-5.8s.48-6.18,3.49-6.18a3.26,3.26,0,0,1,1.62.44v1.71a2.16,2.16,0,0,0-1.48-.8c-1.88,0-2.07,3.41-2.07,4.7s.24,4.55,2,4.55a2,2,0,0,0,1.51-1Z" transform="translate(-59.5 -22.5)"/><path class="cls-2" d="M124.61,157.4c-.08,1.87-.66,4.13-3,4.13-3,0-3.43-3.72-3.43-5.95s.45-6,3.33-6,3.2,3.51,3.2,5.56c0,.24,0,.49,0,.73h-5v.26c0,1.17.19,4.05,1.88,4.05,1.32,0,1.51-1.76,1.53-2.75Zm-1.37-2.81c-.06-1-.19-3.69-1.7-3.69s-1.77,2.62-1.82,3.69Z" transform="translate(-59.5 -22.5)"/><path class="cls-2" d="M127.65,147.15a1.09,1.09,0,1,1,0-2.18,1.11,1.11,0,0,1,1.09,1.12A1.08,1.08,0,0,1,127.65,147.15Zm-.76,14.2V149.73h1.5v11.62Z" transform="translate(-59.5 -22.5)"/><path class="cls-2" d="M134.18,161.35h-1.61l-2.7-11.62h1.54l1.56,6.94c.18.83.31,1.67.42,2.5.13-.81.26-1.64.42-2.45l1.46-7h1.53Z" transform="translate(-59.5 -22.5)"/><path class="cls-2" d="M144.1,157.4c-.08,1.87-.66,4.13-3,4.13-3,0-3.44-3.72-3.44-5.95s.45-6,3.33-6,3.2,3.51,3.2,5.56c0,.24,0,.49,0,.73h-5v.26c0,1.17.19,4.05,1.88,4.05,1.32,0,1.5-1.76,1.53-2.75Zm-1.38-2.81c-.05-1-.18-3.69-1.69-3.69s-1.77,2.62-1.82,3.69Z" transform="translate(-59.5 -22.5)"/><path class="cls-2" d="M150.76,161.35v-.93a2.38,2.38,0,0,1-2,1.11c-2.73,0-2.78-3.87-2.78-5.9,0-2.26,0-6.08,2.93-6.08a2.19,2.19,0,0,1,1.88,1V142.4h1.48v18.95Zm-1.53-10.63c-1.69,0-1.72,3-1.72,4.13,0,1,0,1.87.08,2.81s.24,2.68,1.61,2.68a1.25,1.25,0,0,0,1-.39c.71-.71.71-3.43.71-4.4C150.89,153.11,150.76,150.72,149.23,150.72Z" transform="translate(-59.5 -22.5)"/><path class="cls-2" d="M163,151.08v10.27h-1.49V151.08h-1.26v-1.35h1.26v-3.3H163v3.3h2v1.35Z" transform="translate(-59.5 -22.5)"/><path class="cls-2" d="M169.3,161.53c-3.05,0-3.47-3.74-3.47-6s.42-6,3.47-6,3.3,3.82,3.3,6S172.34,161.53,169.3,161.53Zm0-10.63c-1.83,0-1.88,3.53-1.88,4.76s.08,4.49,1.88,4.49,1.8-3.45,1.8-4.62S171,150.9,169.27,150.9Z" transform="translate(-59.5 -22.5)"/><path class="cls-2" d="M182.46,150.51a2.2,2.2,0,0,1,1.91-1c2.88,0,2.91,3.69,2.91,5.77,0,2.49-.08,6.21-2.78,6.21a2.49,2.49,0,0,1-2-1.11v.93H181V142.4h1.48Zm1.54.21c-1.54,0-1.67,2.44-1.67,4.75,0,1,0,3.75.74,4.48a1.2,1.2,0,0,0,1,.39c1.38,0,1.54-1.67,1.64-2.68s.08-1.82.08-2.73C185.74,153.76,185.71,150.72,184,150.72Z" transform="translate(-59.5 -22.5)"/><path class="cls-2" d="M195.45,157.4c-.08,1.87-.67,4.13-3,4.13-3,0-3.44-3.72-3.44-5.95s.45-6,3.33-6,3.2,3.51,3.2,5.56c0,.24,0,.49,0,.73h-5v.26c0,1.17.18,4.05,1.87,4.05,1.33,0,1.51-1.76,1.54-2.75Zm-1.38-2.81c0-1-.19-3.69-1.69-3.69s-1.77,2.62-1.83,3.69Z" transform="translate(-59.5 -22.5)"/><path class="cls-2" d="M210,158.52a3.07,3.07,0,0,1-6.14,0v-8.79h1.48v7.88c0,1.19.06,2.54,1.64,2.54s1.54-1.55,1.54-2.7v-7.72H210Z" transform="translate(-59.5 -22.5)"/><path class="cls-2" d="M217.15,152.1a2.78,2.78,0,0,0-2-1.2,1.46,1.46,0,0,0-1.45,1.53c0,2.26,3.81,2.68,3.81,5.83a3.16,3.16,0,0,1-3.18,3.27,3.61,3.61,0,0,1-2.19-.8V159a3,3,0,0,0,2.09,1.14,1.7,1.7,0,0,0,1.72-1.79c0-2.29-3.81-3.07-3.81-5.88a2.83,2.83,0,0,1,2.94-2.93,3.53,3.53,0,0,1,2.11.75Z" transform="translate(-59.5 -22.5)"/><path class="cls-2" d="M225.24,157.4c-.08,1.87-.66,4.13-3,4.13-3,0-3.43-3.72-3.43-5.95s.45-6,3.33-6,3.2,3.51,3.2,5.56c0,.24,0,.49,0,.73h-5v.26c0,1.17.19,4.05,1.88,4.05,1.32,0,1.51-1.76,1.53-2.75Zm-1.37-2.81c-.06-1-.19-3.69-1.7-3.69s-1.77,2.62-1.82,3.69Z" transform="translate(-59.5 -22.5)"/><path class="cls-2" d="M231.9,161.35v-.93a2.36,2.36,0,0,1-2,1.11c-2.73,0-2.78-3.87-2.78-5.9,0-2.26,0-6.08,2.94-6.08a2.17,2.17,0,0,1,1.87,1V142.4h1.48v18.95Zm-1.53-10.63c-1.69,0-1.72,3-1.72,4.13,0,1,0,1.87.08,2.81s.24,2.68,1.61,2.68a1.25,1.25,0,0,0,1-.39c.72-.71.72-3.43.72-4.4C232,153.11,231.9,150.72,230.37,150.72Z" transform="translate(-59.5 -22.5)"/><path class="cls-2" d="M237,161.53a1.21,1.21,0,0,1-1.19-1.17,1.19,1.19,0,1,1,1.19,1.17Z" transform="translate(-59.5 -22.5)"/><path class="cls-2" d="M252.66,161.35v-8.94h-4v8.94H247V144h1.64v6.91h4V144h1.64v17.34Z" transform="translate(-59.5 -22.5)"/><path class="cls-2" d="M260.06,161.53c-3,0-3.46-3.74-3.46-6s.42-6,3.46-6,3.31,3.82,3.31,6S263.1,161.53,260.06,161.53Zm0-10.63c-1.83,0-1.88,3.53-1.88,4.76s.08,4.49,1.88,4.49,1.79-3.45,1.79-4.62S261.78,150.9,260,150.9Z" transform="translate(-59.5 -22.5)"/><path class="cls-2" d="M268.6,161.35H267l-2.7-11.62h1.54l1.56,6.94c.18.83.31,1.67.42,2.5.13-.81.26-1.64.42-2.45l1.46-7h1.53Z" transform="translate(-59.5 -22.5)"/><path class="cls-2" d="M278.52,157.4c-.08,1.87-.66,4.13-3,4.13-3,0-3.44-3.72-3.44-5.95s.45-6,3.33-6,3.2,3.51,3.2,5.56c0,.24,0,.49,0,.73h-5v.26c0,1.17.19,4.05,1.88,4.05,1.32,0,1.5-1.76,1.53-2.75Zm-1.38-2.81c-.05-1-.18-3.69-1.69-3.69s-1.77,2.62-1.82,3.69Z" transform="translate(-59.5 -22.5)"/><path class="cls-2" d="M284.31,151.24c-2,0-2,1.56-2,3.07v7h-1.48V149.73h1.48v1.51a2.42,2.42,0,0,1,2-1.69Z" transform="translate(-59.5 -22.5)"/><path class="cls-2" d="M295.15,161.53c-3,0-3.47-3.74-3.47-6s.43-6,3.47-6,3.3,3.82,3.3,6S298.19,161.53,295.15,161.53Zm0-10.63c-1.82,0-1.88,3.53-1.88,4.76s.08,4.49,1.88,4.49,1.8-3.45,1.8-4.62S296.87,150.9,295.12,150.9Z" transform="translate(-59.5 -22.5)"/><path class="cls-2" d="M303.69,161.35h-1.61l-2.7-11.62h1.53l1.56,6.94a24.15,24.15,0,0,1,.42,2.5c.14-.81.27-1.64.43-2.45l1.45-7h1.54Z" transform="translate(-59.5 -22.5)"/><path class="cls-2" d="M313.6,157.4c-.08,1.87-.66,4.13-3,4.13-3.05,0-3.44-3.72-3.44-5.95s.45-6,3.33-6,3.2,3.51,3.2,5.56c0,.24,0,.49,0,.73h-5v.26c0,1.17.19,4.05,1.88,4.05,1.32,0,1.51-1.76,1.54-2.75Zm-1.37-2.81c-.06-1-.19-3.69-1.69-3.69s-1.78,2.62-1.83,3.69Z" transform="translate(-59.5 -22.5)"/><path class="cls-2" d="M319.39,151.24c-2,0-2,1.56-2,3.07v7H315.9V149.73h1.48v1.51a2.43,2.43,0,0,1,2-1.69Z" transform="translate(-59.5 -22.5)"/><path class="cls-2" d="M329.15,151.08v10.27h-1.48V151.08H326.4v-1.35h1.27v-3.3h1.48v3.3h2v1.35Z" transform="translate(-59.5 -22.5)"/><path class="cls-2" d="M337.08,161.35V152.9c0-.94,0-2.16-1.32-2.16a1.66,1.66,0,0,0-1.4.76,3.56,3.56,0,0,0-.4,2v7.83h-1.48V142.4H334v8.26a3.12,3.12,0,0,1,2.3-1.11c1.93,0,2.3,1.35,2.3,3v8.81Z" transform="translate(-59.5 -22.5)"/><path class="cls-2" d="M346.89,157.4c-.08,1.87-.66,4.13-3,4.13-3,0-3.44-3.72-3.44-5.95s.45-6,3.34-6,3.2,3.51,3.2,5.56c0,.24,0,.49,0,.73h-5v.26c0,1.17.19,4.05,1.88,4.05,1.32,0,1.51-1.76,1.53-2.75Zm-1.37-2.81c-.06-1-.19-3.69-1.7-3.69s-1.77,2.62-1.82,3.69Z" transform="translate(-59.5 -22.5)"/><path class="cls-2" d="M359.84,161.35v-.93a2.32,2.32,0,0,1-2,1.11c-2.69,0-2.77-3.72-2.77-5.77,0-2.37.08-6.21,2.91-6.21a2.17,2.17,0,0,1,1.87,1v-.78h1.51v11.62Zm-1.5-10.63c-1.72,0-1.75,3-1.75,4.13,0,1,0,1.87.08,2.81s.27,2.68,1.64,2.68a1.18,1.18,0,0,0,.95-.39c.74-.73.74-3.46.74-4.48C360,153.16,359.87,150.72,358.34,150.72Z" transform="translate(-59.5 -22.5)"/><path class="cls-2" d="M367.49,151.24c-2,0-2,1.56-2,3.07v7H364V149.73h1.48v1.51a2.42,2.42,0,0,1,2-1.69Z" transform="translate(-59.5 -22.5)"/><path class="cls-2" d="M375,157.4c-.08,1.87-.66,4.13-3,4.13-3,0-3.44-3.72-3.44-5.95s.45-6,3.34-6,3.2,3.51,3.2,5.56c0,.24,0,.49,0,.73h-5v.26c0,1.17.19,4.05,1.88,4.05,1.32,0,1.51-1.76,1.53-2.75Zm-1.38-2.81c0-1-.18-3.69-1.69-3.69s-1.77,2.62-1.82,3.69Z" transform="translate(-59.5 -22.5)"/><path class="cls-2" d="M381.76,161.35v-.93a2.32,2.32,0,0,1-2,1.11c-2.69,0-2.77-3.72-2.77-5.77,0-2.37.08-6.21,2.91-6.21a2.17,2.17,0,0,1,1.87,1v-.78h1.51v11.62Zm-1.5-10.63c-1.72,0-1.75,3-1.75,4.13,0,1,0,1.87.08,2.81s.27,2.68,1.64,2.68a1.18,1.18,0,0,0,.95-.39c.74-.73.74-3.46.74-4.48C381.92,153.16,381.79,150.72,380.26,150.72Z" transform="translate(-59.5 -22.5)"/><path class="cls-2" d="M96.4,177.94a3.29,3.29,0,0,0-2.62-1.41,2.62,2.62,0,0,0-2.53,2.84c0,4,6,3.74,6,8.55a4.62,4.62,0,0,1-4.41,4.89,4.81,4.81,0,0,1-2.78-.91v-2.08a4,4,0,0,0,2.86,1.4,2.83,2.83,0,0,0,2.67-3.09c0-4-6-3.69-6-8.55,0-2.37,1.48-4.61,4.07-4.61a4.53,4.53,0,0,1,2.75.94Z" transform="translate(-59.5 -22.5)"/><path class="cls-2" d="M107,188.78a3.64,3.64,0,0,1-.55,2.21,4.35,4.35,0,0,1-3.62,1.8A4.28,4.28,0,0,1,99.2,191a3.6,3.6,0,0,1-.47-2v-8H102v7.15c0,.57,0,1.69.82,1.69,1,0,.82-1.56.82-2.18v-6.66H107Z" transform="translate(-59.5 -22.5)"/><path class="cls-2" d="M112.42,182.36a2.48,2.48,0,0,1,2.23-1.64c2.77,0,3.17,3.95,3.17,6s-.48,6.09-3.2,6.09a2.54,2.54,0,0,1-2.2-1.57v1.33h-3.3v-19h3.3Zm.88,1.27c-1,0-1.11,2.42-1.11,3.12s.08,3.12,1.13,3.12,1.17-2.39,1.17-3.12S114.41,183.63,113.3,183.63Z" transform="translate(-59.5 -22.5)"/><path class="cls-2" d="M121.31,179.19a2.06,2.06,0,1,1,2.09-2.06A2.06,2.06,0,0,1,121.31,179.19Zm-1.67,18.72v-17H123v17Z" transform="translate(-59.5 -22.5)"/><path class="cls-2" d="M132.94,188.55a5.21,5.21,0,0,1-1.27,3.33,3.36,3.36,0,0,1-2.56.91,3.7,3.7,0,0,1-2.83-1,6.4,6.4,0,0,1-1.62-4.71,7.5,7.5,0,0,1,1.72-5.25,3.7,3.7,0,0,1,2.7-1.07,3.55,3.55,0,0,1,2.54.94,6.42,6.42,0,0,1,1.53,4.52,7.46,7.46,0,0,1-.08,1.14h-5.23a4.43,4.43,0,0,0,0,.65,3.41,3.41,0,0,0,.48,2.06.88.88,0,0,0,.69.31,1.06,1.06,0,0,0,.66-.21,2.76,2.76,0,0,0,.5-1.58Zm-2.67-3.23a2.89,2.89,0,0,0-.53-1.89,1,1,0,0,0-.61-.24,1.09,1.09,0,0,0-.74.31,3.18,3.18,0,0,0-.5,1.82Z" transform="translate(-59.5 -22.5)"/><path class="cls-2" d="M140.74,192.37a4.23,4.23,0,0,1-1.88.42c-3.17,0-4.31-3.28-4.31-5.91,0-2.83,1.09-6.19,4.52-6.19a4.12,4.12,0,0,1,1.67.34v2.86a1.24,1.24,0,0,0-.93-.39c-1.58,0-1.93,1.95-1.93,3.15s.27,3.09,1.88,3.09a1.69,1.69,0,0,0,1-.34Z" transform="translate(-59.5 -22.5)"/><path class="cls-2" d="M146.5,183.63v8.92h-3.3v-8.92h-1.14v-2.7h1.14v-3.3h3.3v3.3h1.35v2.7Z" transform="translate(-59.5 -22.5)"/><path class="cls-2" d="M150.68,179.19a2.06,2.06,0,1,1,2.09-2.06A2.06,2.06,0,0,1,150.68,179.19ZM149,192.55V180.93h3.3v11.62Z" transform="translate(-59.5 -22.5)"/><path class="cls-2" d="M159.7,192.55h-3l-3.39-11.62h3.25c.56,2.18,1.17,4.37,1.62,6.58.08-.5.24-1,.34-1.43l1.22-5.15h3.44Z" transform="translate(-59.5 -22.5)"/><path class="cls-2" d="M171.73,188.55a5.27,5.27,0,0,1-1.27,3.33,3.37,3.37,0,0,1-2.57.91,3.71,3.71,0,0,1-2.83-1,6.44,6.44,0,0,1-1.61-4.71,7.45,7.45,0,0,1,1.72-5.25,3.68,3.68,0,0,1,2.7-1.07,3.55,3.55,0,0,1,2.54.94,6.42,6.42,0,0,1,1.53,4.52,9,9,0,0,1-.08,1.14h-5.24c0,.19,0,.42,0,.65a3.41,3.41,0,0,0,.47,2.06.91.91,0,0,0,.69.31,1,1,0,0,0,.66-.21,2.77,2.77,0,0,0,.51-1.58Zm-2.67-3.23a2.89,2.89,0,0,0-.53-1.89,1,1,0,0,0-.61-.24,1.09,1.09,0,0,0-.74.31,3.18,3.18,0,0,0-.5,1.82Z" transform="translate(-59.5 -22.5)"/><path class="cls-2" d="M184.39,175.21a5.45,5.45,0,0,1,3,.57,5.14,5.14,0,0,1,2.41,4.58c0,3.64-2.62,5.33-6.11,5.07v7.12h-3.49V175.21Zm-.53,7.33c1.59,0,2.44-.55,2.44-2.21,0-1.38-.48-2.34-2-2.34h-.61v4.55Z" transform="translate(-59.5 -22.5)"/><path class="cls-2" d="M198.8,188.55a5.21,5.21,0,0,1-1.27,3.33,3.36,3.36,0,0,1-2.56.91,3.7,3.7,0,0,1-2.83-1,6.4,6.4,0,0,1-1.61-4.71,7.49,7.49,0,0,1,1.71-5.25,3.7,3.7,0,0,1,2.7-1.07,3.55,3.55,0,0,1,2.54.94,6.42,6.42,0,0,1,1.53,4.52,7.46,7.46,0,0,1-.08,1.14H193.7a4.43,4.43,0,0,0,0,.65,3.41,3.41,0,0,0,.48,2.06.88.88,0,0,0,.69.31,1.06,1.06,0,0,0,.66-.21,2.76,2.76,0,0,0,.5-1.58Zm-2.67-3.23a2.89,2.89,0,0,0-.53-1.89,1,1,0,0,0-.61-.24,1.09,1.09,0,0,0-.74.31,3.18,3.18,0,0,0-.5,1.82Z" transform="translate(-59.5 -22.5)"/><path class="cls-2" d="M206.79,183.66a2.61,2.61,0,0,0-.48,0c-2,0-2.25,1.09-2.25,2.78v6.16h-3.3V180.93h3.3v1.43a3.64,3.64,0,0,1,2.73-1.85Z" transform="translate(-59.5 -22.5)"/><path class="cls-2" d="M213.9,192.37a4.23,4.23,0,0,1-1.88.42c-3.17,0-4.31-3.28-4.31-5.91,0-2.83,1.09-6.19,4.52-6.19a4.12,4.12,0,0,1,1.67.34v2.86a1.25,1.25,0,0,0-.93-.39c-1.58,0-1.93,1.95-1.93,3.15s.27,3.09,1.88,3.09a1.69,1.69,0,0,0,1-.34Z" transform="translate(-59.5 -22.5)"/><path class="cls-2" d="M223.39,188.55a5.27,5.27,0,0,1-1.27,3.33,3.36,3.36,0,0,1-2.56.91,3.7,3.7,0,0,1-2.83-1,6.4,6.4,0,0,1-1.62-4.71,7.5,7.5,0,0,1,1.72-5.25,3.7,3.7,0,0,1,2.7-1.07,3.55,3.55,0,0,1,2.54.94,6.42,6.42,0,0,1,1.53,4.52,7.46,7.46,0,0,1-.08,1.14h-5.23a4.43,4.43,0,0,0,0,.65,3.41,3.41,0,0,0,.48,2.06.87.87,0,0,0,.68.31,1.07,1.07,0,0,0,.67-.21,2.76,2.76,0,0,0,.5-1.58Zm-2.67-3.23a2.89,2.89,0,0,0-.53-1.89,1,1,0,0,0-.61-.24,1.09,1.09,0,0,0-.74.31,3.18,3.18,0,0,0-.5,1.82Z" transform="translate(-59.5 -22.5)"/><path class="cls-2" d="M228.65,182.36a2.48,2.48,0,0,1,2.22-1.64c2.78,0,3.18,3.95,3.18,6s-.48,6.09-3.2,6.09a2.54,2.54,0,0,1-2.2-1.57v6.69h-3.3v-17h3.3Zm.87,1.27c-1,0-1.11,2.42-1.11,3.12s.08,3.12,1.14,3.12,1.16-2.39,1.16-3.12S230.64,183.63,229.52,183.63Z" transform="translate(-59.5 -22.5)"/><path class="cls-2" d="M239.44,183.63v8.92h-3.31v-8.92H235v-2.7h1.13v-3.3h3.31v3.3h1.35v2.7Z" transform="translate(-59.5 -22.5)"/><path class="cls-2" d="M243.62,179.19a2.06,2.06,0,1,1,2.09-2.06A2.06,2.06,0,0,1,243.62,179.19ZM242,192.55V180.93h3.31v11.62Z" transform="translate(-59.5 -22.5)"/><path class="cls-2" d="M251.5,192.79c-3.39,0-4.5-3.23-4.5-6s1.11-6,4.5-6,4.44,3.15,4.44,6S255,192.79,251.5,192.79Zm0-9.16c-1.09,0-1.17,2.37-1.17,3.12s.08,3.12,1.17,3.12,1.11-2.42,1.11-3.12S252.53,183.63,251.5,183.63Z" transform="translate(-59.5 -22.5)"/><path class="cls-2" d="M262.71,192.55v-7.12c0-.52,0-1.46-.8-1.46-1,0-.9,1.2-.9,1.85v6.73h-3.3V180.93H261v1.82a3.18,3.18,0,0,1,2.81-2c2,0,2.19,1.87,2.19,3.43v8.4Z" transform="translate(-59.5 -22.5)"/><path class="cls-2" d="M278.09,178.41v3.69h3.2v3.3h-3.2v7.15H274.6V175.21h7v3.2Z" transform="translate(-59.5 -22.5)"/><path class="cls-2" d="M288.41,192.55v-1.33a2.54,2.54,0,0,1-2.2,1.57c-2.72,0-3.2-4.11-3.2-6.09s.4-6,3.17-6a2.48,2.48,0,0,1,2.23,1.64v-1.43h3.3v11.62Zm-.9-8.92c-1.09,0-1.17,2.39-1.17,3.12s.08,3.12,1.19,3.12,1.11-2.42,1.11-3.12S288.57,183.63,287.51,183.63Z" transform="translate(-59.5 -22.5)"/><path class="cls-2" d="M299.67,192.37a4.23,4.23,0,0,1-1.88.42c-3.17,0-4.31-3.28-4.31-5.91,0-2.83,1.09-6.19,4.52-6.19a4.12,4.12,0,0,1,1.67.34v2.86a1.23,1.23,0,0,0-.92-.39c-1.59,0-1.94,1.95-1.94,3.15s.27,3.09,1.88,3.09a1.69,1.69,0,0,0,1-.34Z" transform="translate(-59.5 -22.5)"/><path class="cls-2" d="M303,179.19a2.06,2.06,0,1,1,2.09-2.06A2.06,2.06,0,0,1,303,179.19Zm-1.66,13.36V180.93h3.3v11.62Z" transform="translate(-59.5 -22.5)"/><path class="cls-2" d="M311.75,192.55v-1.33a2.52,2.52,0,0,1-2.19,1.57c-2.73,0-3.2-4.11-3.2-6.09s.39-6,3.17-6a2.46,2.46,0,0,1,2.22,1.64v-1.43h3.31v11.62Zm-.9-8.92c-1.08,0-1.16,2.39-1.16,3.12s.08,3.12,1.19,3.12,1.11-2.42,1.11-3.12S311.91,183.63,310.85,183.63Z" transform="translate(-59.5 -22.5)"/><path class="cls-2" d="M317.17,192.55v-19h3.31v19Z" transform="translate(-59.5 -22.5)"/><path class="cls-2" d="M335.66,192.55l-3.1-8v8h-3.49V175.21h3.78a7,7,0,0,1,3.84.83,5,5,0,0,1,2.09,4.21,4.77,4.77,0,0,1-2.52,4.42l3.07,7.88Zm-3.1-9.88a3.82,3.82,0,0,0,.58,0,2.15,2.15,0,0,0,2.25-2.42c0-1.41-.63-2.37-2.17-2.37h-.66Z" transform="translate(-59.5 -22.5)"/><path class="cls-2" d="M348.74,188.55a5.21,5.21,0,0,1-1.27,3.33,3.36,3.36,0,0,1-2.56.91,3.7,3.7,0,0,1-2.83-1,6.4,6.4,0,0,1-1.61-4.71,7.49,7.49,0,0,1,1.71-5.25,3.7,3.7,0,0,1,2.7-1.07,3.53,3.53,0,0,1,2.54.94,6.42,6.42,0,0,1,1.53,4.52,8.94,8.94,0,0,1-.07,1.14h-5.24a4.43,4.43,0,0,0,0,.65,3.41,3.41,0,0,0,.48,2.06.88.88,0,0,0,.69.31,1.06,1.06,0,0,0,.66-.21,2.76,2.76,0,0,0,.5-1.58Zm-2.67-3.23a2.89,2.89,0,0,0-.53-1.89,1,1,0,0,0-.61-.24,1.09,1.09,0,0,0-.74.31,3.18,3.18,0,0,0-.5,1.82Z" transform="translate(-59.5 -22.5)"/><path class="cls-2" d="M356.54,192.37a4.23,4.23,0,0,1-1.88.42c-3.17,0-4.31-3.28-4.31-5.91,0-2.83,1.09-6.19,4.53-6.19a4.11,4.11,0,0,1,1.66.34v2.86a1.23,1.23,0,0,0-.92-.39c-1.59,0-1.93,1.95-1.93,3.15s.26,3.09,1.87,3.09a1.69,1.69,0,0,0,1-.34Z" transform="translate(-59.5 -22.5)"/><path class="cls-2" d="M362.28,192.79c-3.39,0-4.5-3.23-4.5-6s1.11-6,4.5-6,4.44,3.15,4.44,6S365.77,192.79,362.28,192.79Zm0-9.16c-1.09,0-1.16,2.37-1.16,3.12s.07,3.12,1.16,3.12,1.11-2.42,1.11-3.12S363.31,183.63,362.28,183.63Z" transform="translate(-59.5 -22.5)"/><path class="cls-2" d="M377,193.28a5.34,5.34,0,0,1-.34,2.21,4.31,4.31,0,0,1-4.23,2.42c-2.83,0-3.94-1.64-4.16-4h2.91c.06.57.27,1.4,1.22,1.4,1.24,0,1.27-1.59,1.27-2.47V191.1c-.53.85-1.09,1.69-2.22,1.69-2.67,0-3.31-4-3.31-5.93s.4-6.14,3.17-6.14a2.69,2.69,0,0,1,2.36,1.61v-1.4H377Zm-4.31-9.65c-1.11,0-1.19,2.34-1.19,3.1s.08,3.09,1.19,3.09,1.14-2.39,1.14-3.09S373.7,183.63,372.67,183.63Z" transform="translate(-59.5 -22.5)"/><path class="cls-2" d="M384.09,192.55v-7.12c0-.52,0-1.46-.79-1.46-.95,0-.9,1.2-.9,1.85v6.73h-3.31V180.93h3.31v1.82a3.17,3.17,0,0,1,2.8-2c2,0,2.2,1.87,2.2,3.43v8.4Z" transform="translate(-59.5 -22.5)"/><path class="cls-2" d="M391.23,179.19a2.06,2.06,0,1,1,2.09-2.06A2.06,2.06,0,0,1,391.23,179.19Zm-1.67,13.36V180.93h3.31v11.62Z" transform="translate(-59.5 -22.5)"/><path class="cls-2" d="M398.58,183.63v8.92h-3.3v-8.92h-1.14v-2.7h1.14v-3.3h3.3v3.3h1.35v2.7Z" transform="translate(-59.5 -22.5)"/><path class="cls-2" d="M402.76,179.19a2.06,2.06,0,1,1,2.09-2.06A2.06,2.06,0,0,1,402.76,179.19Zm-1.67,13.36V180.93h3.31v11.62Z" transform="translate(-59.5 -22.5)"/><path class="cls-2" d="M410.64,192.79c-3.39,0-4.5-3.23-4.5-6s1.11-6,4.5-6,4.44,3.15,4.44,6S414.13,192.79,410.64,192.79Zm0-9.16c-1.09,0-1.17,2.37-1.17,3.12s.08,3.12,1.17,3.12,1.11-2.42,1.11-3.12S411.67,183.63,410.64,183.63Z" transform="translate(-59.5 -22.5)"/><path class="cls-2" d="M421.85,192.55v-7.12c0-.52,0-1.46-.79-1.46-1,0-.9,1.2-.9,1.85v6.73h-3.31V180.93h3.31v1.82a3.15,3.15,0,0,1,2.8-2c2,0,2.19,1.87,2.19,3.43v8.4Z" transform="translate(-59.5 -22.5)"/><path class="cls-2" d="M95.26,209.58v14.17H91.77V209.58H89.05v-3.17H98v3.17Z" transform="translate(-59.5 -22.5)"/><path class="cls-2" d="M106.32,219.75a5.27,5.27,0,0,1-1.27,3.33,3.37,3.37,0,0,1-2.57.91,3.7,3.7,0,0,1-2.83-1A6.4,6.4,0,0,1,98,218.24,7.45,7.45,0,0,1,99.76,213a3.68,3.68,0,0,1,2.7-1.07,3.55,3.55,0,0,1,2.54.94,6.42,6.42,0,0,1,1.53,4.52,8.86,8.86,0,0,1-.08,1.14h-5.24c0,.19,0,.42,0,.66a3.4,3.4,0,0,0,.47,2,.91.91,0,0,0,.69.31,1,1,0,0,0,.66-.21,2.69,2.69,0,0,0,.5-1.58Zm-2.67-3.23a2.89,2.89,0,0,0-.53-1.89,1,1,0,0,0-.61-.24,1.07,1.07,0,0,0-.74.31,3.18,3.18,0,0,0-.5,1.82Z" transform="translate(-59.5 -22.5)"/><path class="cls-2" d="M114.12,223.57a4.41,4.41,0,0,1-1.88.42c-3.17,0-4.31-3.28-4.31-5.91,0-2.83,1.08-6.19,4.52-6.19a4.16,4.16,0,0,1,1.67.34v2.86a1.27,1.27,0,0,0-.93-.39c-1.59,0-1.93,2-1.93,3.15s.26,3.09,1.88,3.09a1.71,1.71,0,0,0,1-.34Z" transform="translate(-59.5 -22.5)"/><path class="cls-2" d="M120.7,223.75v-7.12c0-.52,0-1.46-.79-1.46-1,0-.9,1.2-.9,1.85v6.73H115.7V204.8H119V214a3.17,3.17,0,0,1,2.8-2c2,0,2.19,1.87,2.19,3.43v8.4Z" transform="translate(-59.5 -22.5)"/><path class="cls-2" d="M131.12,223.75v-7.12c0-.52,0-1.46-.8-1.46-.95,0-.9,1.2-.9,1.85v6.73h-3.3V212.13h3.3V214a3.18,3.18,0,0,1,2.81-2c2,0,2.19,1.87,2.19,3.43v8.4Z" transform="translate(-59.5 -22.5)"/><path class="cls-2" d="M140.69,224c-3.39,0-4.5-3.23-4.5-6s1.11-6,4.5-6,4.44,3.15,4.44,6S144.18,224,140.69,224Zm0-9.16c-1.09,0-1.17,2.37-1.17,3.12s.08,3.12,1.17,3.12,1.11-2.41,1.11-3.12S141.72,214.83,140.69,214.83Z" transform="translate(-59.5 -22.5)"/><path class="cls-2" d="M146.9,223.75V204.8h3.31v18.95Z" transform="translate(-59.5 -22.5)"/><path class="cls-2" d="M156.47,224c-3.38,0-4.49-3.23-4.49-6s1.11-6,4.49-6,4.45,3.15,4.45,6S160,224,156.47,224Zm0-9.16c-1.08,0-1.16,2.37-1.16,3.12s.08,3.12,1.16,3.12,1.11-2.41,1.11-3.12S157.5,214.83,156.47,214.83Z" transform="translate(-59.5 -22.5)"/><path class="cls-2" d="M171.17,224.48a5.21,5.21,0,0,1-.34,2.21,4.3,4.3,0,0,1-4.23,2.42c-2.83,0-3.94-1.64-4.15-4h2.91c0,.57.26,1.4,1.21,1.4,1.25,0,1.27-1.58,1.27-2.47V222.3c-.53.85-1.08,1.69-2.22,1.69-2.67,0-3.3-4-3.3-5.93s.39-6.14,3.17-6.14a2.67,2.67,0,0,1,2.35,1.61v-1.4h3.33Zm-4.31-9.65c-1.11,0-1.19,2.34-1.19,3.1s.08,3.09,1.19,3.09,1.14-2.39,1.14-3.09S167.9,214.83,166.86,214.83Z" transform="translate(-59.5 -22.5)"/><path class="cls-2" d="M175,210.39a2.06,2.06,0,1,1,2.09-2.06A2.06,2.06,0,0,1,175,210.39Zm-1.67,13.36V212.13h3.31v11.62Z" transform="translate(-59.5 -22.5)"/><path class="cls-2" d="M186.64,219.75a5.27,5.27,0,0,1-1.27,3.33,3.36,3.36,0,0,1-2.56.91,3.7,3.7,0,0,1-2.83-1,6.4,6.4,0,0,1-1.62-4.71,7.5,7.5,0,0,1,1.72-5.25,3.7,3.7,0,0,1,2.7-1.07,3.55,3.55,0,0,1,2.54.94,6.42,6.42,0,0,1,1.53,4.52,7.37,7.37,0,0,1-.08,1.14h-5.23a4.51,4.51,0,0,0,0,.66,3.39,3.39,0,0,0,.48,2,.87.87,0,0,0,.68.31,1.07,1.07,0,0,0,.67-.21,2.76,2.76,0,0,0,.5-1.58ZM184,216.52a2.89,2.89,0,0,0-.53-1.89,1,1,0,0,0-.61-.24,1.09,1.09,0,0,0-.74.31,3.18,3.18,0,0,0-.5,1.82Z" transform="translate(-59.5 -22.5)"/><path class="cls-2" d="M194.12,215.27a2.28,2.28,0,0,0-1.56-.77.79.79,0,0,0-.84.83c0,1.4,3.7,1.11,3.7,4.63,0,2.21-1.35,4-3.73,4a5.82,5.82,0,0,1-3.6-1.33l1.46-2.31a2.54,2.54,0,0,0,1.61.72,1,1,0,0,0,1.06-1c0-1.45-3.86-1.25-3.86-4.76,0-2.23,1.82-3.43,3.94-3.43a5.07,5.07,0,0,1,3.15,1Z" transform="translate(-59.5 -22.5)"/><path class="cls-2" d="M205.28,213.48v10.27H203.8V213.48h-1.27v-1.35h1.27v-3.3h1.48v3.3h2v1.35Z" transform="translate(-59.5 -22.5)"/><path class="cls-2" d="M211.6,223.93c-3,0-3.46-3.74-3.46-6s.42-6,3.46-6,3.31,3.82,3.31,6.06S214.64,223.93,211.6,223.93Zm0-10.63c-1.82,0-1.87,3.54-1.87,4.76s.07,4.5,1.87,4.5,1.8-3.46,1.8-4.63S213.32,213.3,211.57,213.3Z" transform="translate(-59.5 -22.5)"/><path class="cls-2" d="M229.39,225c0,2.1-.82,3.4-3.09,3.4-2.06,0-3.07-1.27-3.07-3.22a2,2,0,0,1,0-.44h1.51c0,1.16.13,2.28,1.61,2.28s1.51-1.14,1.51-2.26v-1.87a2.36,2.36,0,0,1-1.88.83c-3,0-3-3.95-3-6.06,0-1.95.22-5.74,2.94-5.74a2.35,2.35,0,0,1,2,1v-.8h1.5Zm-3.14-11.89c-1.59,0-1.72,2.68-1.72,5.1,0,1.25,0,4.32,1.85,4.32,1.32,0,1.51-1.54,1.59-2.5s.07-1.87.07-2.81C228,216,228,213.14,226.25,213.14Z" transform="translate(-59.5 -22.5)"/><path class="cls-2" d="M238,219.8c-.08,1.87-.66,4.13-3,4.13-3,0-3.44-3.71-3.44-6s.45-6,3.34-6,3.2,3.51,3.2,5.56c0,.24,0,.5,0,.73h-5v.26c0,1.17.19,4.06,1.88,4.06,1.32,0,1.51-1.77,1.53-2.76ZM236.58,217c-.05-1-.18-3.69-1.69-3.69s-1.77,2.63-1.82,3.69Z" transform="translate(-59.5 -22.5)"/><path class="cls-2" d="M242.19,213.48v10.27h-1.48V213.48h-1.27v-1.35h1.27v-3.3h1.48v3.3h2v1.35Z" transform="translate(-59.5 -22.5)"/><path class="cls-2" d="M262.47,223.75H261v-8.61c0-1-.16-2-1.38-2-1.72,0-1.79,1.9-1.79,3.17v7.44h-1.51v-8.58c0-.86-.08-2-1.24-2-1.86,0-1.91,2.06-1.91,3.41v7.2h-1.48V212.13h1.48v1a3.19,3.19,0,0,1,2.3-1.14,2.31,2.31,0,0,1,2.17,1.35,2.87,2.87,0,0,1,2.43-1.35c1.91,0,2.41,1.22,2.41,2.88Z" transform="translate(-59.5 -22.5)"/><path class="cls-2" d="M268.13,223.93c-3,0-3.47-3.74-3.47-6s.43-6,3.47-6,3.3,3.82,3.3,6.06S271.17,223.93,268.13,223.93Zm0-10.63c-1.82,0-1.88,3.54-1.88,4.76s.08,4.5,1.88,4.5,1.8-3.46,1.8-4.63S269.85,213.3,268.1,213.3Z" transform="translate(-59.5 -22.5)"/><path class="cls-2" d="M277.14,213.64c-2,0-2,1.56-2,3.07v7h-1.48V212.13h1.48v1.51a2.43,2.43,0,0,1,2-1.69Z" transform="translate(-59.5 -22.5)"/><path class="cls-2" d="M284.63,219.8c-.08,1.87-.67,4.13-3,4.13-3,0-3.44-3.71-3.44-6s.45-6,3.33-6,3.2,3.51,3.2,5.56c0,.24,0,.5,0,.73h-5v.26c0,1.17.18,4.06,1.87,4.06,1.33,0,1.51-1.77,1.54-2.76ZM283.25,217c-.05-1-.18-3.69-1.69-3.69s-1.77,2.63-1.83,3.69Z" transform="translate(-59.5 -22.5)"/><path class="cls-2" d="M293.83,209.56a1.12,1.12,0,0,1-1.12-1.07,1.1,1.1,0,1,1,2.2,0A1.09,1.09,0,0,1,293.83,209.56Zm-.77,14.19V212.13h1.51v11.62Z" transform="translate(-59.5 -22.5)"/><path class="cls-2" d="M301.79,223.75V215.3c0-.94,0-2.16-1.33-2.16a1.68,1.68,0,0,0-1.4.76,3.53,3.53,0,0,0-.4,2v7.82h-1.48V212.13h1.48v.93A3.16,3.16,0,0,1,301,212c2,0,2.31,1.61,2.31,3.19v8.61Z" transform="translate(-59.5 -22.5)"/><path class="cls-2" d="M307.84,213.48v10.27h-1.48V213.48H305v-1.35h1.35v-4.66c0-1.48.39-3,2.19-3a3.43,3.43,0,0,1,1.33.26v1.61a1.8,1.8,0,0,0-1.09-.52c-.87,0-1,.78-1,1.43v4.84h2v1.35Z" transform="translate(-59.5 -22.5)"/><path class="cls-2" d="M314.26,223.93c-3,0-3.46-3.74-3.46-6s.42-6,3.46-6,3.31,3.82,3.31,6.06S317.3,223.93,314.26,223.93Zm0-10.63c-1.83,0-1.88,3.54-1.88,4.76s.08,4.5,1.88,4.5,1.8-3.46,1.8-4.63S316,213.3,314.24,213.3Z" transform="translate(-59.5 -22.5)"/><path class="cls-2" d="M323.28,213.64c-2,0-2,1.56-2,3.07v7h-1.48V212.13h1.48v1.51a2.43,2.43,0,0,1,2-1.69Z" transform="translate(-59.5 -22.5)"/><path class="cls-2" d="M335.71,223.75h-1.48v-8.61c0-1-.16-2-1.38-2-1.72,0-1.8,1.9-1.8,3.17v7.44h-1.5v-8.58c0-.86-.08-2-1.25-2-1.85,0-1.9,2.06-1.9,3.41v7.2h-1.48V212.13h1.48v1a3.17,3.17,0,0,1,2.3-1.14,2.31,2.31,0,0,1,2.17,1.35A2.87,2.87,0,0,1,333.3,212c1.91,0,2.41,1.22,2.41,2.88Z" transform="translate(-59.5 -22.5)"/><path class="cls-2" d="M342.85,223.75v-.93a2.34,2.34,0,0,1-2,1.11c-2.7,0-2.78-3.71-2.78-5.77,0-2.36.08-6.21,2.91-6.21a2.2,2.2,0,0,1,1.88,1v-.78h1.5v11.62Zm-1.51-10.63c-1.72,0-1.75,3-1.75,4.13,0,1,0,1.87.08,2.81s.27,2.68,1.64,2.68a1.18,1.18,0,0,0,.95-.39c.74-.73.74-3.46.74-4.47C343,215.56,342.87,213.12,341.34,213.12Z" transform="translate(-59.5 -22.5)"/><path class="cls-2" d="M348.93,213.48v10.27h-1.48V213.48h-1.27v-1.35h1.27v-3.3h1.48v3.3h2v1.35Z" transform="translate(-59.5 -22.5)"/><path class="cls-2" d="M353,209.56a1.11,1.11,0,0,1-1.11-1.07,1.09,1.09,0,0,1,1.11-1.12,1.1,1.1,0,0,1,1.08,1.12A1.08,1.08,0,0,1,353,209.56Zm-.77,14.19V212.13h1.51v11.62Z" transform="translate(-59.5 -22.5)"/><path class="cls-2" d="M359.37,223.93c-3,0-3.46-3.74-3.46-6s.42-6,3.46-6,3.31,3.82,3.31,6.06S362.41,223.93,359.37,223.93Zm0-10.63c-1.82,0-1.87,3.54-1.87,4.76s.08,4.5,1.87,4.5,1.8-3.46,1.8-4.63S361.09,213.3,359.34,213.3Z" transform="translate(-59.5 -22.5)"/><path class="cls-2" d="M369.5,223.75V215.3c0-.94,0-2.16-1.32-2.16a1.68,1.68,0,0,0-1.41.76,3.6,3.6,0,0,0-.39,2v7.82H364.9V212.13h1.48v.93a3.12,3.12,0,0,1,2.3-1.11c2,0,2.3,1.61,2.3,3.19v8.61Z" transform="translate(-59.5 -22.5)"/><path class="cls-2" d="M382.8,223.93c-3.05,0-3.47-3.74-3.47-6s.42-6,3.47-6,3.3,3.82,3.3,6.06S385.84,223.93,382.8,223.93Zm0-10.63c-1.83,0-1.88,3.54-1.88,4.76s.08,4.5,1.88,4.5,1.8-3.46,1.8-4.63S384.51,213.3,382.77,213.3Z" transform="translate(-59.5 -22.5)"/><path class="cls-2" d="M392.92,223.75V215.3c0-.94,0-2.16-1.32-2.16a1.66,1.66,0,0,0-1.4.76,3.53,3.53,0,0,0-.4,2v7.82h-1.48V212.13h1.48v.93a3.14,3.14,0,0,1,2.3-1.11c2,0,2.3,1.61,2.3,3.19v8.61Z" transform="translate(-59.5 -22.5)"/><path class="cls-2" d="M405.14,213.48v10.27h-1.48V213.48h-1.27v-1.35h1.27v-3.3h1.48v3.3h2v1.35Z" transform="translate(-59.5 -22.5)"/><path class="cls-2" d="M413.07,223.75V215.3c0-.94,0-2.16-1.32-2.16a1.69,1.69,0,0,0-1.41.76,3.65,3.65,0,0,0-.39,2v7.82h-1.48V204.8H410v8.26a3.12,3.12,0,0,1,2.3-1.11c1.93,0,2.3,1.35,2.3,3v8.81Z" transform="translate(-59.5 -22.5)"/><path class="cls-2" d="M422.88,219.8c-.08,1.87-.66,4.13-3,4.13-3,0-3.44-3.71-3.44-6s.45-6,3.33-6,3.2,3.51,3.2,5.56c0,.24,0,.5,0,.73h-5v.26c0,1.17.19,4.06,1.88,4.06,1.32,0,1.5-1.77,1.53-2.76ZM421.5,217c-.05-1-.18-3.69-1.69-3.69S418,215.93,418,217Z" transform="translate(-59.5 -22.5)"/><path class="cls-2" d="M92.3,244.68V255H90.82V244.68H89.47v-1.35h1.35v-4.65c0-1.49.4-3,2.2-3a3.34,3.34,0,0,1,1.32.26v1.61a1.78,1.78,0,0,0-1.09-.52c-.87,0-1,.78-1,1.43v4.84h2v1.35Z" transform="translate(-59.5 -22.5)"/><path class="cls-2" d="M100.26,255V254a2.33,2.33,0,0,1-2,1.11c-2.7,0-2.77-3.71-2.77-5.77,0-2.36.07-6.21,2.9-6.21a2.19,2.19,0,0,1,1.88,1v-.78h1.51V255Zm-1.51-10.63c-1.71,0-1.74,3-1.74,4.13,0,1,0,1.87.08,2.81s.26,2.68,1.64,2.68a1.2,1.2,0,0,0,1-.39c.74-.73.74-3.46.74-4.47C100.42,246.76,100.29,244.32,98.75,244.32Z" transform="translate(-59.5 -22.5)"/><path class="cls-2" d="M109.07,254.54a2.94,2.94,0,0,1-1.7.59c-2.77,0-3.41-3.71-3.41-5.79s.48-6.19,3.49-6.19a3.26,3.26,0,0,1,1.62.44v1.72a2.13,2.13,0,0,0-1.48-.81c-1.88,0-2.07,3.41-2.07,4.71s.24,4.55,2,4.55a2,2,0,0,0,1.51-1Z" transform="translate(-59.5 -22.5)"/><path class="cls-2" d="M112.85,244.68V255h-1.48V244.68H110.1v-1.35h1.27V240h1.48v3.3h2v1.35Z" transform="translate(-59.5 -22.5)"/><path class="cls-2" d="M119.17,255.13c-3,0-3.47-3.74-3.47-6s.42-6,3.47-6,3.3,3.82,3.3,6.06S122.21,255.13,119.17,255.13Zm0-10.63c-1.83,0-1.88,3.54-1.88,4.76s.08,4.5,1.88,4.5,1.8-3.46,1.8-4.63S120.88,244.5,119.14,244.5Z" transform="translate(-59.5 -22.5)"/><path class="cls-2" d="M128.18,244.84c-2,0-2,1.56-2,3.07v7h-1.48V243.33h1.48v1.51a2.43,2.43,0,0,1,2-1.69Z" transform="translate(-59.5 -22.5)"/><path class="cls-2" d="M134.32,245.69a2.8,2.8,0,0,0-2-1.19,1.46,1.46,0,0,0-1.45,1.53c0,2.27,3.8,2.68,3.8,5.83a3.15,3.15,0,0,1-3.17,3.27,3.61,3.61,0,0,1-2.19-.8v-1.72a3,3,0,0,0,2.08,1.15,1.71,1.71,0,0,0,1.72-1.8c0-2.29-3.8-3.07-3.8-5.87a2.83,2.83,0,0,1,2.93-2.94,3.58,3.58,0,0,1,2.12.75Z" transform="translate(-59.5 -22.5)"/><path class="cls-2" d="M144.07,244.11a2.2,2.2,0,0,1,1.91-1c2.88,0,2.9,3.69,2.9,5.77,0,2.5-.07,6.21-2.77,6.21a2.49,2.49,0,0,1-2-1.11V255h-1.48V236h1.48Zm1.54.21c-1.54,0-1.67,2.44-1.67,4.76,0,1,0,3.74.74,4.47a1.18,1.18,0,0,0,.95.39c1.38,0,1.54-1.67,1.64-2.68s.08-1.82.08-2.73C147.35,247.36,147.32,244.32,145.61,244.32Z" transform="translate(-59.5 -22.5)"/><path class="cls-2" d="M157.05,251c-.07,1.87-.66,4.13-3,4.13-3,0-3.44-3.71-3.44-5.95s.45-6,3.33-6,3.2,3.51,3.2,5.56c0,.24,0,.5,0,.73h-5v.26c0,1.17.18,4.06,1.87,4.06,1.33,0,1.51-1.77,1.54-2.76Zm-1.37-2.81c-.05-1-.19-3.69-1.69-3.69s-1.77,2.63-1.83,3.69Z" transform="translate(-59.5 -22.5)"/><path class="cls-2" d="M164,255V246.5c0-.94,0-2.16-1.32-2.16a1.68,1.68,0,0,0-1.4.76,3.56,3.56,0,0,0-.4,2V255h-1.48V236h1.48v8.27a3.09,3.09,0,0,1,2.3-1.12c1.94,0,2.31,1.35,2.31,3V255Z" transform="translate(-59.5 -22.5)"/><path class="cls-2" d="M168.82,240.76a1.11,1.11,0,0,1-1.11-1.07,1.09,1.09,0,0,1,1.11-1.12,1.1,1.1,0,0,1,1.08,1.12A1.08,1.08,0,0,1,168.82,240.76ZM168.05,255V243.33h1.51V255Z" transform="translate(-59.5 -22.5)"/><path class="cls-2" d="M176.78,255V246.5c0-.94,0-2.16-1.32-2.16a1.69,1.69,0,0,0-1.41.76,3.6,3.6,0,0,0-.39,2V255h-1.48V243.33h1.48v.94a3.06,3.06,0,0,1,2.3-1.12c2,0,2.3,1.61,2.3,3.2V255Z" transform="translate(-59.5 -22.5)"/><path class="cls-2" d="M185.26,255V254a2.36,2.36,0,0,1-2,1.11c-2.73,0-2.78-3.87-2.78-5.9,0-2.26,0-6.08,2.94-6.08a2.17,2.17,0,0,1,1.87,1V236h1.49V255Zm-1.53-10.63c-1.69,0-1.72,3-1.72,4.13,0,1,0,1.87.08,2.81s.24,2.68,1.61,2.68a1.25,1.25,0,0,0,1-.39c.72-.7.72-3.43.72-4.4C185.4,246.71,185.26,244.32,183.73,244.32Z" transform="translate(-59.5 -22.5)"/><path class="cls-2" d="M190.39,255.13A1.21,1.21,0,0,1,189.2,254a1.19,1.19,0,1,1,1.19,1.17Z" transform="translate(-59.5 -22.5)"/></svg>