<svg id="Ebene_1" data-name="Ebene 1" xmlns="http://www.w3.org/2000/svg" viewBox="0 0 283.68 283.68"><defs><style>.cls-1{fill:#70e6ab;}.cls-2,.cls-4{fill:none;stroke:#5f5e5e;stroke-linecap:round;stroke-miterlimit:10;}.cls-2{stroke-width:9px;}.cls-3{fill:#5f5e5e;}.cls-4{stroke-width:4px;}</style></defs><circle class="cls-1" cx="141.84" cy="141.84" r="141.84"/><path class="cls-2" d="M168.06,230.17c-31.07.26-60,0-60,0s-18.89.12-18.89-10.89,22.16-10.89,22.16-10.89h58.1"/><g id="Gruppe_324" data-name="Gruppe 324"><g id="Pfad_184" data-name="Pfad 184"><path class="cls-3" d="M140.18,100.68l65,26.39a5.89,5.89,0,0,1-.4,11.06L140.18,159,75.12,138.14a5.89,5.89,0,0,1-.41-11.07Z"/></g><g id="Pfad_185" data-name="Pfad 185"><path class="cls-3" d="M96.88,155.41S86,188,138.38,190.29c47.06,2.06,46.9-34.87,46.9-34.87L138.38,171Z"/></g><g id="Pfad_186" data-name="Pfad 186"><polygon class="cls-3" points="196.91 152.7 206.27 149.56 206.27 229.27 196.71 229.27 196.91 152.7"/></g><g id="Ellipse_408" data-name="Ellipse 408"><circle class="cls-3" cx="201.49" cy="198.98" r="11.16"/></g></g><line class="cls-4" x1="158.98" y1="230.29" x2="158.98" y2="210.14"/></svg>