<svg id="Ebene_1" data-name="Ebene 1" xmlns="http://www.w3.org/2000/svg" viewBox="0 0 283.68 283.68"><defs><style>.cls-1{fill:#70e6ab;}.cls-2,.cls-3{fill:none;stroke:#70e6ab;stroke-linecap:round;stroke-miterlimit:10;}.cls-2{stroke-width:9px;}.cls-3{stroke-width:4px;}</style></defs><path class="cls-1" d="M141.84,12a129.84,129.84,0,0,1,91.81,221.65A129.84,129.84,0,1,1,50,50a129,129,0,0,1,91.81-38m0-12A141.84,141.84,0,1,0,283.68,141.84,141.83,141.83,0,0,0,141.84,0Z"/><g id="Gruppe_324" data-name="Gruppe 324"><g id="Pfad_184" data-name="Pfad 184"><path class="cls-1" d="M140.18,62.28l65,26.39a5.89,5.89,0,0,1-.4,11.06l-64.59,20.88L75.12,99.73a5.89,5.89,0,0,1-.41-11.07Z"/></g><g id="Pfad_185" data-name="Pfad 185"><path class="cls-1" d="M96.88,117S86,149.58,138.38,151.88C185.44,154,185.28,117,185.28,117l-46.9,15.63Z"/></g><g id="Pfad_186" data-name="Pfad 186"><polygon class="cls-1" points="196.91 114.3 206.27 111.16 206.27 190.87 196.71 190.87 196.91 114.3"/></g><g id="Ellipse_408" data-name="Ellipse 408"><circle class="cls-1" cx="201.49" cy="160.58" r="11.16"/></g></g><path class="cls-2" d="M168.06,191.76c-31.07.26-60,0-60,0s-18.89.12-18.89-10.89S111.36,170,111.36,170h58.1"/><line class="cls-3" x1="158.98" y1="191.88" x2="158.98" y2="171.74"/><path class="cls-2" d="M168.06,226.77c-31.07.26-60,0-60,0s-18.89.11-18.89-10.9S111.36,205,111.36,205h58.1"/><line class="cls-3" x1="158.98" y1="226.88" x2="158.98" y2="206.74"/></svg>