<svg id="Ebene_1" data-name="Ebene 1" xmlns="http://www.w3.org/2000/svg" viewBox="0 0 283.68 283.68"><defs><style>.cls-1{fill:#70e6ab;}.cls-2,.cls-4{fill:none;stroke:#5f5e5e;stroke-linecap:round;stroke-miterlimit:10;}.cls-2{stroke-width:9px;}.cls-3{fill:#5f5e5e;}.cls-4{stroke-width:4px;}</style></defs><circle class="cls-1" cx="141.84" cy="141.84" r="141.84"/><path class="cls-2" d="M168.06,191.17c-31.07.26-60,0-60,0s-18.89.11-18.89-10.9,22.16-10.88,22.16-10.88h58.1"/><g id="Gruppe_324" data-name="Gruppe 324"><g id="Pfad_184" data-name="Pfad 184"><path class="cls-3" d="M140.18,61.68l65,26.39a5.89,5.89,0,0,1-.4,11.06L140.18,120,75.12,99.13a5.88,5.88,0,0,1-.41-11.06Z"/></g><g id="Pfad_185" data-name="Pfad 185"><path class="cls-3" d="M96.88,116.4S86,149,138.38,151.28c47.06,2.07,46.9-34.86,46.9-34.86L138.38,132Z"/></g><g id="Pfad_186" data-name="Pfad 186"><polygon class="cls-3" points="196.91 113.7 206.27 110.56 206.27 190.27 196.71 190.27 196.91 113.7"/></g><g id="Ellipse_408" data-name="Ellipse 408"><circle class="cls-3" cx="201.49" cy="159.98" r="11.16"/></g></g><line class="cls-4" x1="158.98" y1="197.72" x2="158.98" y2="171.14"/><path class="cls-2" d="M168.06,226.17c-31.07.26-60,0-60,0s-18.89.12-18.89-10.89,22.16-10.89,22.16-10.89h58.1"/><line class="cls-4" x1="158.98" y1="226.29" x2="158.98" y2="206.14"/></svg>