<svg id="Ebene_1" data-name="Ebene 1" xmlns="http://www.w3.org/2000/svg" viewBox="0 0 283.68 283.68"><defs><style>.cls-1{fill:#0cbaf7;}.cls-2,.cls-3{fill:#5f5e5e;}.cls-3{stroke:#5f5e5e;stroke-miterlimit:10;stroke-width:12px;}</style></defs><circle class="cls-1" cx="141.84" cy="141.84" r="141.84"/><path class="cls-2" d="M104.21,213.35c.13-1.58.2-3.19.2-4.82,0-18.63-3.69-33.73-19.13-33.73-15.17,0-19.14,15.1-19.14,33.73,0,1.63.07,3.24.2,4.82Z"/><circle class="cls-2" cx="85.28" cy="152.12" r="15.87"/><path class="cls-2" d="M161.62,213.35c.13-1.58.2-3.19.2-4.82,0-18.63-3.69-33.73-19.14-33.73-15.17,0-19.13,15.1-19.13,33.73,0,1.63.07,3.24.19,4.82Z"/><circle class="cls-2" cx="142.68" cy="152.12" r="15.87"/><path class="cls-2" d="M219.06,213.35c.13-1.58.2-3.19.2-4.82,0-18.63-3.69-33.73-19.13-33.73C185,174.8,181,189.9,181,208.53c0,1.63.07,3.24.2,4.82Z"/><circle class="cls-2" cx="200.13" cy="152.12" r="15.87"/><path class="cls-3" d="M163.84,114.7c.13-1.57.2-3.18.2-4.82,0-18.63-3.69-33.73-19.14-33.73-15.16,0-19.13,15.1-19.13,33.73,0,1.64.07,3.25.2,4.82Z"/><circle class="cls-3" cx="144.9" cy="54.47" r="15.87"/></svg>