<svg id="Ebene_1" data-name="Ebene 1" xmlns="http://www.w3.org/2000/svg" viewBox="0 0 283.68 283.68"><defs><style>.cls-1{fill:#bbfefe;}.cls-2{fill:#5f5e5e;}</style></defs><circle class="cls-1" cx="141.84" cy="141.84" r="141.84"/><path class="cls-2" d="M54.17,162.32v-7.66a17.41,17.41,0,0,0,11.11,3.9,12.89,12.89,0,0,0,8-2.29,7.34,7.34,0,0,0,3-6.18q0-8.58-13.11-8.58H59.3V135H63q11.64,0,11.64-8.09,0-7.45-9.07-7.45a14.88,14.88,0,0,0-9.53,3.62v-7.24a24.38,24.38,0,0,1,12.13-2.88q6.7,0,10.76,3.37A10.77,10.77,0,0,1,83,125q0,9.95-10.13,12.8v.14a13.26,13.26,0,0,1,8.62,3.81,11.37,11.37,0,0,1,3.16,8.21,13.46,13.46,0,0,1-5.1,11Q74.45,165,66.12,165,58.64,165,54.17,162.32Z"/><path class="cls-2" d="M111.44,112.64v51.54h-8.16V122.63a26.08,26.08,0,0,1-4.76,2.69,38.83,38.83,0,0,1-5.82,2v-7c1.36-.45,2.67-.92,3.94-1.41s2.51-1,3.74-1.65,2.48-1.29,3.73-2,2.55-1.6,3.88-2.57Z"/><path class="cls-2" d="M143.05,147.52h-19.2v-6h19.2Z"/><path class="cls-2" d="M180.28,113.77v32.55h7.48v6.79h-7.48v11.07h-7.91V153.11H149.55v-6.86q3.09-3.48,6.34-7.54t6.26-8.29q3-4.24,5.57-8.49a76.15,76.15,0,0,0,4.33-8.16Zm-7.91,32.55V125.16a117.17,117.17,0,0,1-7.58,12q-3.75,5.15-7,9.14Z"/><path class="cls-2" d="M208.65,165a14.08,14.08,0,0,1-12.29-6.44Q192,152.16,192,140q0-13.36,4.6-20.22t13.29-6.85q16.64,0,16.63,25.84,0,12.79-4.69,19.53A15.12,15.12,0,0,1,208.65,165Zm.81-45.6q-9.18,0-9.18,20.21,0,18.92,9,18.92t8.86-19.23Q218.14,119.43,209.46,119.43Z"/></svg>