<svg id="Ebene_1" data-name="Ebene 1" xmlns="http://www.w3.org/2000/svg" viewBox="0 0 283.46 283.46"><defs><style>.cls-1{fill:#c7f700;}</style></defs><path class="cls-1" d="M190.69,73.61q-14,0-28,0c-5.29,0-7.72,3.3-6.25,8.4,1.91,6.61,3.74,13.23,5.86,19.77.85,2.65.46,4-2.05,5.56-13,8.4-20.2,20.49-20.6,36s-.19,31.18,0,46.77a21,21,0,0,0,2.16,8.06c2.3,5.07,6.94,7.44,11.92,9.22h73.73c5.26-1.84,9.83-4.56,12.35-9.83.68-1.42,1.22-2.9,1.83-4.35V139.36a13.88,13.88,0,0,1-.57-1.87c-2.49-13.47-9.55-23.82-21.28-30.89a2.49,2.49,0,0,1-1.29-3.4q3.17-10.56,6.23-21.13c1.49-5.13-.92-8.43-6.2-8.44q-13.92,0-27.82,0Zm21.07,11.65c-1.3,4.57-2.42,8.9-3.8,13.16-1.3,4-.77,4.5-2.83,4.5-.64,0-1.52,0-2.79,0H202l-5.06,0c-4.23,0-8.46,0-12.69,0q-3.58,0-7.17,0H177c-1.84,0-2.75-.54-3.25-2.42-1.31-5-2.83-9.9-4.38-15.22Zm-17.71,29.3c3.46,0,6.91,0,10.35-.18l.82,0c5.65,0,9.94,2.41,13.89,5.94a32,32,0,0,1,11,24.27c.21,14.63.08,29.28,0,43.92,0,5-2.52,7.43-7.51,7.44q-6.7,0-13.41,0H190.6v.14H159.43c-6.23,0-8.56-2.31-8.56-8.51,0-13.88-.14-27.77,0-41.65s6.06-24.3,18.58-30.66a9.26,9.26,0,0,1,4-.86h.84c6.56,0,13.13.16,19.68.16Z"/><path class="cls-1" d="M81.68,114.32q-10.49,0-21,.16c-7.87.11-13.67,4.13-17,11.22-3.19,6.89-2.36,13.63,2.29,19.69,1.15,1.5,1.12,2.38,0,3.84a18.7,18.7,0,0,0,0,23.29c1.28,1.61,1.16,2.52-.06,4.06A19.13,19.13,0,0,0,46,199.94c3,3.83,7,5.71,11.29,7.48h48.77a26,26,0,0,1,2.47-1.12c12.21-4.14,16.88-19.55,8.91-29.72-1.22-1.54-1.35-2.45-.06-4.06a18.7,18.7,0,0,0,0-23.29c-1.15-1.46-1.17-2.34,0-3.84,4.65-6.06,5.49-12.8,2.29-19.69-3.28-7.09-9.08-11.11-17-11.22q-10.48-.17-21-.16ZM69.59,141.61H61.75c-4.82,0-8.33-3.45-8.4-7.82s3.54-8,8.5-8c2.68,0,5.36,0,8,0,4,0,8.06,0,12.08,0v.13c4,0,7.92,0,11.88,0,2.56,0,5.12,0,7.68.06,6,.1,9.85,5.33,7.74,10.58a7.64,7.64,0,0,1-7.56,5q-16,.14-32.11.15Zm.56,27.26q-4.14,0-8.26,0c-3.23,0-5.88-1.24-7.5-4.21a7.4,7.4,0,0,1,.34-8,7.85,7.85,0,0,1,7-3.61h0c13.32,0,26.64,0,39.95.15a7.94,7.94,0,0,1,8.21,7.69c.07,4.31-3.5,7.79-8.32,7.86-2.64,0-5.29.05-7.93.05l-11.9,0v.13l-11.57,0Zm-.6,27.24c-2.59,0-5.19,0-7.79-.06-6-.11-9.77-5.25-7.87-10.58a7.86,7.86,0,0,1,7.67-5.24h9q15.63,0,31.27.15a7.91,7.91,0,0,1,8.08,7.8c0,4.24-3.49,7.66-8.16,7.74-2.69,0-5.39.06-8.08.06l-12,0v.14c-4,0-8,0-12,0Z"/><path class="cls-1" d="M190.56,123.94c-2.92,0-5.22,2.3-5.84,5.44A4.18,4.18,0,0,1,182.9,132c-7,3.66-10.83,10.7-9.35,17.7s8.21,12.62,15.86,13.09c1.3.08,2.86.1,3.8.81,1.23.92,2.61,2.47,2.7,3.83.08,1.18-1.26,2.95-2.45,3.65a6.08,6.08,0,0,1-3.09.9,5.62,5.62,0,0,1-5.38-4.68,13.71,13.71,0,0,0-.53-1.9,5.69,5.69,0,0,0-5.24-3.76,6.3,6.3,0,0,0-.75,0,5.59,5.59,0,0,0-5,5.53c-.14,6.78,3.36,11.36,9.06,14.48,1.26.69,2.27,1.12,2.46,2.93a5.61,5.61,0,0,0,5.51,4.78h.11a5.72,5.72,0,0,0,5.65-4.84c.22-1.6,1.12-2,2.21-2.8,2.46-1.82,5.2-3.65,6.85-6.13,6.78-10.16-.8-23.58-13.56-24.46a11.5,11.5,0,0,1-4.33-1c-3.11-1.61-3.13-5.14-.19-7a6.08,6.08,0,0,1,3.36-1.05,5.78,5.78,0,0,1,5.6,4.78c.75,3.43,3,5.64,5.73,5.64.2,0,.41,0,.62,0,3.28-.41,5.23-2.86,5.21-7.84-.41-5-3.65-9.47-9.16-12.3-1.34-.69-2.21-1.22-2.3-3a5.72,5.72,0,0,0-5.62-5.31Z"/><path class="cls-1" d="M141.73,11.79a129.84,129.84,0,0,1,91.81,221.65A129.84,129.84,0,1,1,49.92,49.82a129,129,0,0,1,91.81-38m0-12A141.84,141.84,0,1,0,283.57,141.63,141.84,141.84,0,0,0,141.73-.21Z"/></svg>