<svg id="Ebene_1" data-name="Ebene 1" xmlns="http://www.w3.org/2000/svg" viewBox="0 0 283.68 283.68"><defs><style>.cls-1{fill:#bbfefe;}.cls-2{fill:#5f5e5e;}</style></defs><circle class="cls-1" cx="141.84" cy="141.84" r="141.84"/><path class="cls-2" d="M82.4,113.77v32.55h7.49v6.79H82.4v11.07H74.49V153.11H51.67v-6.86q3.11-3.48,6.35-7.54t6.26-8.29q3-4.24,5.57-8.49a77.82,77.82,0,0,0,4.32-8.16Zm-7.91,32.55V125.16a115.47,115.47,0,0,1-7.58,12q-3.73,5.15-7,9.14Z"/><path class="cls-2" d="M113,112.64v51.54H104.8V122.63a26.51,26.51,0,0,1-4.77,2.69,38.83,38.83,0,0,1-5.82,2v-7c1.36-.45,2.68-.92,3.94-1.41s2.51-1,3.74-1.65,2.48-1.29,3.73-2,2.55-1.6,3.89-2.57Z"/><path class="cls-2" d="M144.56,147.52h-19.2v-6h19.2Z"/><path class="cls-2" d="M154.68,163v-7.84a17.83,17.83,0,0,0,10.06,3.34A12.43,12.43,0,0,0,173,155.9a8.64,8.64,0,0,0,3.13-7,7.87,7.87,0,0,0-3.18-6.68c-2.13-1.6-5.17-2.39-9.13-2.39q-2,0-8.26.42l1.79-26.51h24.82v7h-18l-.84,12.62c1.61-.09,3.08-.14,4.39-.14q8,0,12.39,4.11t4.38,11.25a15.37,15.37,0,0,1-5,12q-5,4.51-13.76,4.52C160.76,165.1,157.1,164.41,154.68,163Z"/><path class="cls-2" d="M208.65,165a14.08,14.08,0,0,1-12.29-6.44Q192,152.16,192,140q0-13.36,4.6-20.22t13.29-6.85q16.64,0,16.63,25.84,0,12.79-4.69,19.53A15.12,15.12,0,0,1,208.65,165Zm.81-45.6q-9.18,0-9.18,20.21,0,18.92,9,18.92t8.86-19.23Q218.14,119.43,209.46,119.43Z"/></svg>