<svg id="Ebene_1" data-name="Ebene 1" xmlns="http://www.w3.org/2000/svg" viewBox="0 0 283.68 283.68"><defs><style>.cls-1{fill:#222;}.cls-2,.cls-4{fill:none;stroke:#5f5e5e;stroke-linecap:round;stroke-width:12px;}.cls-2{stroke-linejoin:round;}.cls-3{fill:#5f5e5e;}.cls-4{stroke-miterlimit:10;}</style></defs><circle class="cls-1" cx="141.84" cy="141.84" r="141.84"/><polyline class="cls-2" points="82.58 107.9 143.38 39.45 206.74 108.75"/><path class="cls-3" d="M146.41,179a129.22,129.22,0,0,1,46.32,8.38,11.94,11.94,0,0,0,.4-3V111.4L143.81,56.88,96.19,111.4v72.95a11.91,11.91,0,0,0,.8,4.27A128.31,128.31,0,0,1,146.41,179Z"/><rect class="cls-1" x="111.49" y="114.71" width="27.21" height="23.81"/><rect class="cls-1" x="147.21" y="141.07" width="31.89" height="77.39" rx="13.61"/><path class="cls-4" d="M62.19,226.61C72.37,199.12,105.48,179,144.75,179c37.08,0,68.66,18,80.65,43.09"/></svg>