<svg id="Ebene_1" data-name="Ebene 1" xmlns="http://www.w3.org/2000/svg" viewBox="0 0 200.41 200.41"><defs><style>.cls-1{fill:#e6e6e6;}.cls-2{fill:#5f5e5e;}.cls-3,.cls-4{fill:none;stroke-linecap:round;stroke-miterlimit:10;stroke-width:12px;}.cls-3{stroke:#5f5e5e;}.cls-4{stroke:#e6e6e6;}</style></defs><circle class="cls-1" cx="100.2" cy="100.2" r="100.2"/><path class="cls-2" d="M61.62,60.48c-1,0-1.88.05-2.7,0a2.69,2.69,0,0,1-.07-5.38,11.43,11.43,0,0,1,1.55,0H85.57c0-1.78,0-3.43,0-5.08.07-4.71,3.27-8.07,8-8.12q10.63-.13,21.26,0c4.71,0,7.91,3.4,8,8.1,0,1.6,0,3.21,0,5.1H148a13.19,13.19,0,0,1,1.54,0,2.72,2.72,0,0,1,2.61,2.8,2.64,2.64,0,0,1-2.64,2.57c-.82.08-1.65,0-2.72,0v2.39c0,30.66-.08,61.32.08,92,0,5.33-3.3,9.45-9.4,9.4-22.28-.17-44.57-.06-66.85-.07-4.68,0-7.74-2.12-8.71-6.06a14.08,14.08,0,0,1-.23-3.25q0-45.9,0-91.79ZM91,55h26.36c0-1.9.08-3.69,0-5.46a2.24,2.24,0,0,0-2.44-2.23q-10.69,0-21.4,0A2.28,2.28,0,0,0,91,49.64C90.93,51.36,91,53.09,91,55Z" transform="translate(-2.96 -3.81)"/><line class="cls-3" x1="146.31" y1="55.19" x2="55.82" y2="55.19"/><line class="cls-4" x1="82.17" y1="139.18" x2="82.17" y2="76.54"/><line class="cls-4" x1="101.67" y1="139.18" x2="101.67" y2="76.54"/><line class="cls-4" x1="121.17" y1="139.18" x2="121.17" y2="76.54"/></svg>