<svg id="Ebene_1" data-name="Ebene 1" xmlns="http://www.w3.org/2000/svg" viewBox="0 0 283.68 283.68"><defs><style>.cls-1{fill:#bbfefe;}.cls-2{fill:#5f5e5e;}</style></defs><circle class="cls-1" cx="141.84" cy="141.84" r="141.84"/><path class="cls-2" d="M85.69,164.18H54.05v-3.9a14.49,14.49,0,0,1,.67-4.48,17.77,17.77,0,0,1,1.79-3.94,22.4,22.4,0,0,1,2.63-3.48q1.52-1.63,3.24-3.16t3.51-3q1.8-1.42,3.52-2.86c1.08-.92,2.06-1.81,3-2.69A17.83,17.83,0,0,0,74.65,134a12.49,12.49,0,0,0,1.48-3,10.57,10.57,0,0,0,.52-3.39,9.2,9.2,0,0,0-.61-3.5,6.84,6.84,0,0,0-1.73-2.49,7.28,7.28,0,0,0-2.61-1.51,10.3,10.3,0,0,0-3.31-.51,15.24,15.24,0,0,0-6.29,1.44A21.45,21.45,0,0,0,56,125.37v-7.84a25.79,25.79,0,0,1,3.12-2,22.56,22.56,0,0,1,3.27-1.44,19.38,19.38,0,0,1,3.55-.86,26.45,26.45,0,0,1,4-.28,20,20,0,0,1,6.18.89,13.14,13.14,0,0,1,4.75,2.64,11.59,11.59,0,0,1,3,4.34,15.52,15.52,0,0,1,1.07,6,18.71,18.71,0,0,1-.75,5.5A17.75,17.75,0,0,1,82,136.83a23.46,23.46,0,0,1-3.35,4c-1.32,1.27-2.78,2.57-4.4,3.9-1.36,1.1-2.71,2.18-4.06,3.22S67.64,150,66.56,151a16.74,16.74,0,0,0-2.62,3,5.38,5.38,0,0,0-1,3v.18H85.69Z"/><path class="cls-2" d="M112.2,112.64v51.54H104V122.63a26.77,26.77,0,0,1-4.76,2.69,38.83,38.83,0,0,1-5.82,2v-7q2-.68,3.93-1.41t3.75-1.65c1.23-.61,2.47-1.29,3.73-2s2.54-1.6,3.88-2.57Z"/><path class="cls-2" d="M143.8,147.52H124.61v-6H143.8Z"/><path class="cls-2" d="M152.8,162.32v-7.66a17.43,17.43,0,0,0,11.11,3.9,12.89,12.89,0,0,0,8-2.29,7.34,7.34,0,0,0,3-6.18q0-8.58-13.11-8.58h-3.91V135h3.73q11.64,0,11.64-8.09,0-7.45-9.07-7.45a14.9,14.9,0,0,0-9.53,3.62v-7.24a24.38,24.38,0,0,1,12.13-2.88q6.71,0,10.76,3.37a10.77,10.77,0,0,1,4,8.65q0,9.95-10.13,12.8v.14a13.26,13.26,0,0,1,8.62,3.81,11.37,11.37,0,0,1,3.16,8.21,13.46,13.46,0,0,1-5.1,11Q173.09,165,164.75,165,157.26,165,152.8,162.32Z"/><path class="cls-2" d="M207.89,165a14.1,14.1,0,0,1-12.29-6.44q-4.41-6.43-4.41-18.59,0-13.36,4.61-20.22t13.29-6.85q16.62,0,16.63,25.84,0,12.79-4.7,19.53A15.11,15.11,0,0,1,207.89,165Zm.81-45.6q-9.18,0-9.18,20.21,0,18.92,9,18.92t8.86-19.23Q217.38,119.43,208.7,119.43Z"/></svg>