<svg id="Ebene_1" data-name="Ebene 1" xmlns="http://www.w3.org/2000/svg" viewBox="0 0 283.68 283.68"><defs><style>.cls-1{fill:#70e6ab;}.cls-2,.cls-3{fill:none;stroke:#70e6ab;stroke-linecap:round;stroke-miterlimit:10;}.cls-2{stroke-width:9px;}.cls-3{stroke-width:4px;}</style></defs><path class="cls-1" d="M141.84,12a129.84,129.84,0,0,1,91.81,221.65A129.84,129.84,0,1,1,50,50a129,129,0,0,1,91.81-38m0-12A141.84,141.84,0,1,0,283.68,141.84,141.83,141.83,0,0,0,141.84,0Z"/><path class="cls-2" d="M170.06,169.76c-31.07.26-60,0-60,0s-18.89.12-18.89-10.89S113.36,148,113.36,148h58.1"/><g id="Gruppe_324" data-name="Gruppe 324"><g id="Pfad_184" data-name="Pfad 184"><path class="cls-1" d="M142.18,40.28l65,26.39a5.89,5.89,0,0,1-.4,11.06L142.18,98.61,77.12,77.73a5.89,5.89,0,0,1-.41-11.07Z"/></g><g id="Pfad_185" data-name="Pfad 185"><path class="cls-1" d="M98.88,95S88,127.58,140.38,129.88c47.06,2.06,46.9-34.87,46.9-34.87l-46.9,15.63Z"/></g><g id="Pfad_186" data-name="Pfad 186"><polygon class="cls-1" points="198.91 92.29 208.27 89.16 208.27 168.87 198.71 168.87 198.91 92.29"/></g><g id="Ellipse_408" data-name="Ellipse 408"><circle class="cls-1" cx="203.49" cy="138.58" r="11.16"/></g></g><line class="cls-3" x1="160.98" y1="169.88" x2="160.98" y2="149.74"/><path class="cls-2" d="M170.06,204.76c-31.07.27-60,0-60,0s-18.89.12-18.89-10.89S113.36,183,113.36,183h58.1"/><line class="cls-3" x1="160.98" y1="204.88" x2="160.98" y2="184.74"/><path class="cls-2" d="M171.06,240.07c-31.07.26-60,0-60,0s-18.89.11-18.89-10.89,22.16-10.89,22.16-10.89h58.1"/><line class="cls-3" x1="161.98" y1="240.18" x2="161.98" y2="220.04"/></svg>