<svg id="Ebene_1" data-name="Ebene 1" xmlns="http://www.w3.org/2000/svg" viewBox="0 0 283.68 283.68"><defs><style>.cls-1{fill:#222;}.cls-2{fill:#5f5e5e;}</style></defs><circle class="cls-1" cx="141.84" cy="141.84" r="141.84"/><rect class="cls-1" x="111.49" y="114.71" width="27.21" height="23.81"/><path class="cls-2" d="M65.43,118h0a18.14,18.14,0,0,1,18.14,18.14v70a3.73,3.73,0,0,1-3.73,3.73H51a3.73,3.73,0,0,1-3.73-3.73v-70A18.14,18.14,0,0,1,65.43,118Z"/><path class="cls-2" d="M110.51,48.83h23.22A20.14,20.14,0,0,1,153.87,69V205a3.73,3.73,0,0,1-3.73,3.73h-56A3.73,3.73,0,0,1,90.37,205V69A20.14,20.14,0,0,1,110.51,48.83Z"/><path class="cls-2" d="M166.07,136.14h70.27a6,6,0,0,1,6,6v61.23a6.51,6.51,0,0,1-6.51,6.51H166.61a6.51,6.51,0,0,1-6.51-6.51V142.11A6,6,0,0,1,166.07,136.14Z"/><rect class="cls-1" x="97.9" y="63.35" width="12.47" height="19.28"/><rect class="cls-1" x="116.35" y="63.35" width="12.47" height="19.28"/><rect class="cls-1" x="134.8" y="63.35" width="12.47" height="19.28"/><rect class="cls-1" x="97.78" y="89.91" width="12.47" height="19.28"/><rect class="cls-1" x="134.67" y="89.91" width="12.47" height="19.28"/><rect class="cls-1" x="97.37" y="116.74" width="12.47" height="19.28"/><rect class="cls-1" x="115.81" y="116.74" width="12.47" height="19.28"/><rect class="cls-1" x="134.26" y="116.74" width="12.47" height="19.28"/><rect class="cls-1" x="98.06" y="141.78" width="12.47" height="19.28"/><rect class="cls-1" x="116.51" y="141.78" width="12.47" height="19.28"/><rect class="cls-1" x="97.78" y="166.44" width="12.47" height="19.28"/><rect class="cls-1" x="116.22" y="166.44" width="12.47" height="19.28"/><rect class="cls-1" x="134.67" y="166.44" width="12.47" height="19.28"/><rect class="cls-1" x="167.52" y="180.33" width="12.47" height="19.28"/><rect class="cls-1" x="185.95" y="180.33" width="12.47" height="19.28"/><rect class="cls-1" x="204.38" y="180.33" width="12.47" height="19.28"/><rect class="cls-1" x="222.81" y="180.33" width="12.47" height="19.28"/><rect class="cls-1" x="167.54" y="156.43" width="12.47" height="19.28"/><rect class="cls-1" x="185.97" y="156.43" width="12.47" height="19.28"/><rect class="cls-1" x="204.4" y="156.43" width="12.47" height="19.28"/><rect class="cls-1" x="222.83" y="156.43" width="12.47" height="19.28"/><rect class="cls-1" x="55.54" y="139.18" width="8.18" height="13.32"/><rect class="cls-1" x="67.63" y="139.18" width="8.18" height="13.32"/><rect class="cls-1" x="55.54" y="156.06" width="8.18" height="13.32"/><rect class="cls-1" x="55.54" y="172.63" width="8.18" height="13.32"/><rect class="cls-1" x="67.63" y="172.63" width="8.18" height="13.32"/><rect class="cls-1" x="55.63" y="188.79" width="8.18" height="13.32"/><rect class="cls-1" x="67.72" y="188.79" width="8.18" height="13.32"/></svg>