<svg id="Ebene_1" data-name="Ebene 1" xmlns="http://www.w3.org/2000/svg" viewBox="0 0 283.46 283.46"><defs><style>.cls-1{fill:#c7f700;}.cls-2{fill:#5f5e5e;}</style></defs><circle class="cls-1" cx="141.73" cy="141.63" r="141.84"/><path class="cls-2" d="M153.71,207.42c-5-1.78-9.62-4.15-11.92-9.22a21,21,0,0,1-2.16-8.06c-.19-15.59-.39-31.19,0-46.77s7.57-27.61,20.6-36c2.51-1.61,2.9-2.91,2.05-5.56-2.12-6.54-3.95-13.16-5.86-19.77-1.47-5.1,1-8.4,6.25-8.4q27.92,0,55.84,0c5.28,0,7.69,3.31,6.2,8.44q-3.06,10.58-6.23,21.13a2.49,2.49,0,0,0,1.29,3.4c11.73,7.07,18.79,17.42,21.28,30.89a13.88,13.88,0,0,0,.57,1.87v53.88c-.61,1.45-1.15,2.93-1.83,4.35-2.52,5.27-7.09,8-12.35,9.83Zm36.89-11.34v-.14c10.67,0,21.34,0,32,0,5,0,7.5-2.48,7.51-7.44,0-14.64.16-29.29,0-43.92a32,32,0,0,0-11-24.27c-4.14-3.7-8.65-6.17-14.71-5.92-10.27.41-20.58,0-30.87,0a9.26,9.26,0,0,0-4,.86c-12.52,6.36-18.4,16.88-18.58,30.66s0,27.77,0,41.65c0,6.2,2.33,8.5,8.56,8.51ZM169.32,85.26c1.55,5.32,3.07,10.24,4.38,15.22.51,1.92,1.45,2.44,3.36,2.42,8.31-.1,16.61,0,24.92,0,5.78,0,4.24.93,6-4.45,1.38-4.26,2.5-8.59,3.8-13.16Z"/><path class="cls-2" d="M207.72,144.57c0,5-1.93,7.43-5.21,7.84-3,.36-5.55-1.92-6.35-5.6a5.73,5.73,0,0,0-9-3.73c-2.94,1.91-2.92,5.44.19,7a11.5,11.5,0,0,0,4.33,1c12.76.88,20.34,14.3,13.56,24.46-1.65,2.48-4.39,4.31-6.85,6.13-1.09.8-2,1.2-2.21,2.8a5.73,5.73,0,0,1-5.76,4.84A5.61,5.61,0,0,1,185,184.6c-.19-1.81-1.2-2.24-2.46-2.93-5.7-3.12-9.2-7.7-9.06-14.48a5.69,5.69,0,0,1,11-1.82,13.71,13.71,0,0,1,.53,1.9c.92,4,4.85,5.93,8.47,3.78,1.19-.7,2.53-2.47,2.45-3.65-.09-1.36-1.47-2.91-2.7-3.83-.94-.71-2.5-.73-3.8-.81-7.65-.47-14.34-6-15.86-13.09s2.31-14,9.35-17.7a4.18,4.18,0,0,0,1.82-2.59c.62-3.17,3-5.48,5.92-5.44a5.72,5.72,0,0,1,5.62,5.31c.09,1.8,1,2.33,2.3,3C204.07,135.1,207.31,139.54,207.72,144.57Z"/><path class="cls-2" d="M117.37,175.46c-5.86-2.6-11.62-5.41-17.33-8.32-5.58,0-11.16,0-16.73,0v.14c-5.2,0-10.4,0-15.61,0l-1.14.54c-5.48,2.42-11.29,4.11-17,6a6.59,6.59,0,0,0-1.44.62c-3.3,2.13-4.54,8.21-4.59,11.8a19.56,19.56,0,0,0,4,12.14c2.92,3.78,8.5,7.49,13.38,7.48H99.65c3.86,0,7.43.33,11.06-1.25,10.66-4.6,15.84-17.66,9.49-27.89ZM103.3,194.32c-6.7.12-13.41,0-20.12,0v.14c-6.61,0-13.22.1-19.83,0-6-.11-9.77-5.24-7.87-10.57a7.84,7.84,0,0,1,7.67-5.24q20.12,0,40.23.14a7.9,7.9,0,0,1,8.08,7.8C111.43,190.83,108,194.24,103.3,194.32Z"/><path class="cls-2" d="M49.16,197.54c5.86,2.59,11.62,5.41,17.33,8.32,5.58,0,11.16,0,16.73,0v-.13c5.21,0,10.41,0,15.61,0l1.14-.53c5.48-2.43,11.29-4.12,17-6a5.75,5.75,0,0,0,1.44-.62c3.3-2.12,4.54-8.21,4.59-11.79a19.54,19.54,0,0,0-4-12.14c-2.92-3.79-8.49-7.49-13.38-7.49H66.88c-3.86,0-7.43-.32-11.06,1.25C45.17,173,40,186.07,46.33,196.31,47.28,196.71,48.23,197.12,49.16,197.54Zm14.07-18.87c6.7-.11,13.41,0,20.12,0v-.14c6.61,0,13.22-.09,19.83,0,6,.11,9.77,5.25,7.87,10.58a7.86,7.86,0,0,1-7.67,5.24q-20.11,0-40.23-.14a7.91,7.91,0,0,1-8.08-7.81C55.1,182.17,58.56,178.75,63.23,178.67Z"/><path class="cls-2" d="M117.33,148.06c-5.86-2.59-11.62-5.41-17.33-8.32-5.58,0-11.16,0-16.74,0v.13c-5.2,0-10.4,0-15.6,0l-1.15.53c-5.48,2.43-11.28,4.12-17,6a5.84,5.84,0,0,0-1.43.62c-3.3,2.12-4.54,8.21-4.59,11.79a19.48,19.48,0,0,0,4,12.14c2.92,3.79,8.49,7.49,13.38,7.49H99.61c3.86,0,7.42.32,11.06-1.25,10.65-4.61,15.83-17.66,9.48-27.9Q118.73,148.69,117.33,148.06Zm-14.07,18.87c-6.71.11-13.41,0-20.12,0v.14c-6.61,0-13.22.09-19.83,0-6-.11-9.77-5.25-7.87-10.58a7.85,7.85,0,0,1,7.66-5.24q20.12,0,40.24.14a7.78,7.78,0,1,1-.08,15.54Z"/><path class="cls-2" d="M49.12,170.14c5.85,2.6,11.62,5.41,17.33,8.32,5.58,0,11.15,0,16.73,0v-.14c5.2,0,10.4,0,15.6,0,.38-.18.76-.37,1.15-.54,5.48-2.42,11.28-4.11,17-6a6.59,6.59,0,0,0,1.44-.62c3.3-2.13,4.53-8.21,4.59-11.8a19.56,19.56,0,0,0-4-12.14c-2.93-3.78-8.5-7.48-13.39-7.48H66.84c-3.87,0-7.43-.33-11.07,1.25-10.65,4.61-15.83,17.66-9.48,27.89Zm14.07-18.86c6.7-.12,13.41,0,20.11,0v-.14c6.61,0,13.23-.1,19.83,0,6.05.11,9.78,5.24,7.87,10.57a7.83,7.83,0,0,1-7.66,5.24q-20.11,0-40.23-.13A7.91,7.91,0,0,1,55,159C55.06,154.77,58.52,151.36,63.19,151.28Z"/></svg>