<svg id="Ebene_1" data-name="Ebene 1" xmlns="http://www.w3.org/2000/svg" viewBox="0 0 283.46 283.46"><defs><style>.cls-1{fill:#c7f700;}.cls-2{fill:#5f5e5e;}</style></defs><circle class="cls-1" cx="141.73" cy="141.63" r="141.84"/><path class="cls-2" d="M153.71,207.42c-5-1.78-9.62-4.15-11.92-9.22a21,21,0,0,1-2.16-8.06c-.19-15.59-.39-31.19,0-46.77s7.57-27.61,20.6-36c2.51-1.61,2.9-2.91,2.05-5.56-2.12-6.54-3.95-13.16-5.86-19.77-1.47-5.1,1-8.4,6.25-8.4q27.92,0,55.84,0c5.28,0,7.69,3.31,6.2,8.44q-3.06,10.58-6.23,21.13a2.49,2.49,0,0,0,1.29,3.4c11.73,7.07,18.79,17.42,21.28,30.89a13.88,13.88,0,0,0,.57,1.87v53.88c-.61,1.45-1.15,2.93-1.83,4.35-2.52,5.27-7.09,8-12.35,9.83Zm36.89-11.34v-.14c10.67,0,21.34,0,32,0,5,0,7.5-2.48,7.51-7.44,0-14.64.16-29.29,0-43.92a32,32,0,0,0-11-24.27c-4.14-3.7-8.65-6.17-14.71-5.92-10.27.41-20.58,0-30.87,0a9.26,9.26,0,0,0-4,.86c-12.52,6.36-18.4,16.88-18.58,30.66s0,27.77,0,41.65c0,6.2,2.33,8.5,8.56,8.51ZM169.32,85.26c1.55,5.32,3.07,10.24,4.38,15.22.51,1.92,1.45,2.44,3.36,2.42,8.31-.1,16.61,0,24.92,0,5.78,0,4.24.93,6-4.45,1.38-4.26,2.5-8.59,3.8-13.16Z"/><path class="cls-2" d="M57.29,207.42c-4.24-1.77-8.33-3.65-11.29-7.48a19.13,19.13,0,0,1-.08-23.36c1.22-1.54,1.34-2.45.06-4.06a18.7,18.7,0,0,1,0-23.29c1.15-1.46,1.18-2.34,0-3.84-4.65-6.06-5.48-12.8-2.29-19.69,3.28-7.09,9.08-11.11,17-11.22q21-.32,41.93,0c7.87.11,13.67,4.13,17,11.22,3.2,6.89,2.36,13.63-2.29,19.69-1.14,1.5-1.12,2.38,0,3.84a18.7,18.7,0,0,1,0,23.29c-1.29,1.61-1.16,2.52.05,4.06,8,10.17,3.31,25.58-8.9,29.72a26,26,0,0,0-2.47,1.12ZM82,125.88v-.13c-6.7,0-13.41-.07-20.11,0-5,.06-8.57,3.56-8.5,8s3.58,7.81,8.4,7.82c13.32,0,26.63,0,40-.14a7.64,7.64,0,0,0,7.56-5c2.11-5.25-1.69-10.48-7.74-10.58C95,125.8,88.48,125.88,82,125.88Zm-.24,43v-.13c6.61,0,13.22.07,19.83,0,4.82-.07,8.39-3.55,8.32-7.86a7.94,7.94,0,0,0-8.21-7.69C88.35,153,75,153,61.71,153a7.85,7.85,0,0,0-7,3.61,7.4,7.4,0,0,0-.34,8c1.62,3,4.27,4.18,7.5,4.21C68.5,168.89,75.11,168.85,81.72,168.85Zm-.13,27.23v-.14c6.71,0,13.42.08,20.12,0,4.67-.08,8.13-3.5,8.16-7.74a7.91,7.91,0,0,0-8.08-7.8q-20.12-.21-40.23-.14a7.86,7.86,0,0,0-7.67,5.24c-1.9,5.33,1.83,10.47,7.87,10.58C68.37,196.17,75,196.08,81.59,196.08Z"/><path class="cls-2" d="M207.72,144.57c0,5-1.93,7.43-5.21,7.84-3,.36-5.55-1.92-6.35-5.6a5.73,5.73,0,0,0-9-3.73c-2.94,1.91-2.92,5.44.19,7a11.5,11.5,0,0,0,4.33,1c12.76.88,20.34,14.3,13.56,24.46-1.65,2.48-4.39,4.31-6.85,6.13-1.09.8-2,1.2-2.21,2.8a5.73,5.73,0,0,1-5.76,4.84A5.61,5.61,0,0,1,185,184.6c-.19-1.81-1.2-2.24-2.46-2.93-5.7-3.12-9.2-7.7-9.06-14.48a5.69,5.69,0,0,1,11-1.82,13.71,13.71,0,0,1,.53,1.9c.92,4,4.85,5.93,8.47,3.78,1.19-.7,2.53-2.47,2.45-3.65-.09-1.36-1.47-2.91-2.7-3.83-.94-.71-2.5-.73-3.8-.81-7.65-.47-14.34-6-15.86-13.09s2.31-14,9.35-17.7a4.18,4.18,0,0,0,1.82-2.59c.62-3.17,3-5.48,5.92-5.44a5.72,5.72,0,0,1,5.62,5.31c.09,1.8,1,2.33,2.3,3C204.07,135.1,207.31,139.54,207.72,144.57Z"/></svg>